<svg width="125" height="32" viewBox="0 0 125 32" fill="none" xmlns="http://www.w3.org/2000/svg">
    <path
        d="M26.8864 17.1616C26.8864 20.5114 19.3783 25.1173 15.1966 25.1173C11.0149 25.1173 3.50684 20.3992 3.50684 17.1616C3.50684 12.2492 8.50995 6.2749 15.1966 6.2749C21.8833 6.2749 26.8864 12.2492 26.8864 17.1616Z"
        fill="url(#paint0_linear_280_3531)" />
    <path
        d="M24.4068 14.3966L24.7016 15.4191C25.2416 17.2924 24.3711 19.2846 22.6297 20.1611L18.0446 22.4687C16.3066 23.3434 14.2548 23.3332 12.5255 22.4411L8.13348 20.1754C6.41442 19.2886 5.56184 17.3104 6.09764 15.4518L6.40072 14.4004C6.56758 13.8216 7.13318 13.4523 7.73023 13.5323L13.6867 14.3304C14.743 14.472 15.8134 14.474 16.8702 14.3364L23.0819 13.5279C23.6775 13.4503 24.2405 13.8195 24.4068 14.3966Z"
        fill="#221A53" />
    <rect x="11.439" y="15.9053" width="2.08746" height="3.76848" rx="1.04373" fill="url(#paint1_linear_280_3531)" />
    <rect x="11.439" y="15.9053" width="2.08746" height="3.76848" rx="1.04373" fill="url(#paint2_linear_280_3531)" />
    <rect x="16.8662" y="15.9053" width="2.08746" height="3.76848" rx="1.04373" fill="url(#paint3_linear_280_3531)" />
    <rect x="16.8662" y="15.9053" width="2.08746" height="3.76848" rx="1.04373" fill="url(#paint4_linear_280_3531)" />
    <path
        d="M2.73396 6.61212C2.73682 6.53698 2.79856 6.47754 2.87375 6.47754V6.47754C2.94894 6.47754 3.01068 6.53698 3.01354 6.61212L3.26244 13.165C3.27081 13.3855 3.09436 13.5688 2.87375 13.5688V13.5688C2.65314 13.5688 2.47669 13.3855 2.48506 13.165L2.73396 6.61212Z"
        fill="url(#paint5_linear_280_3531)" />
    <rect x="26.0508" y="12.5557" width="2.92244" height="7.53696" rx="1.46122" fill="url(#paint6_linear_280_3531)" />
    <rect x="1.41895" y="12.5557" width="2.92244" height="7.53696" rx="1.46122" fill="url(#paint7_linear_280_3531)" />
    <path
        d="M42.4211 18.1765L44.9739 19.3548C44.0084 21.2367 42.2574 21.9567 40.801 21.9567C38.5264 21.9567 36.2354 20.6312 36.2354 17.9965V14.0036C36.2354 11.3853 38.5264 10.0435 40.8501 10.0435C42.2738 10.0435 43.9921 10.6489 44.9248 12.7108L42.5356 13.6763C41.7501 12.2363 39.1646 12.5636 39.1646 14.0036V17.9965C39.1646 19.3875 41.7829 19.7803 42.4211 18.1765Z"
        fill="#171524" />
    <path
        d="M46.4145 17.9802V14.02C46.4145 11.3526 48.8037 10.0435 51.2093 10.0435C53.6148 10.0435 56.0204 11.369 56.0204 14.02V17.9802C56.0204 20.6312 53.6312 21.9567 51.2256 21.9567C48.8201 21.9567 46.4145 20.6312 46.4145 17.9802ZM49.3437 14.02V17.9802C49.3437 18.8311 50.2928 19.2402 51.2256 19.2402C52.1584 19.2402 53.0912 18.8148 53.0912 17.9802V14.02C53.0912 13.12 52.1257 12.7108 51.1765 12.7108C50.2601 12.7108 49.3437 13.169 49.3437 14.02Z"
        fill="#171524" />
    <path
        d="M58.2302 10.2071H62.5668C64.8905 10.2071 67.067 11.3853 67.067 14.0855V17.9802C67.067 20.6476 64.8905 21.8094 62.5668 21.7931H58.2302V10.2071ZM60.568 19.0439H62.6649C63.6632 19.0439 64.1214 18.5366 64.1214 17.7838V14.1673C64.1214 13.4145 63.6468 12.9399 62.6649 12.9399L60.568 12.9246V19.0439Z"
        fill="#171524" />
    <path
        d="M72.2502 12.9563V14.7564H76.9468V17.2929H72.2502V19.0275H77.3559V21.7931H69.2883V10.2071H77.3559V12.9563H72.2502Z"
        fill="#171524" />
    <path
        d="M79.5633 19.4553V10.2071H84.1944C87.0255 10.2071 88.4328 12.2526 88.4328 14.2982C88.4328 16.3601 87.0091 18.4056 84.2108 18.4056H82.4925V21.7931L79.5633 19.4553ZM82.4925 15.8037H84.1944C85.9618 15.8201 85.9618 12.9236 84.1944 12.9399H82.4925V15.8037Z"
        fill="#171524" />
    <path d="M93.263 10.2071V21.7931H90.3338V10.2071H93.263Z" fill="#171524" />
    <path d="M95.7506 21.7931V10.2071H98.6962V18.8966H103.409V21.7931H95.7506Z" fill="#171524" />
    <path
        d="M104.853 17.9802V14.02C104.853 11.3526 107.242 10.0435 109.647 10.0435C112.053 10.0435 114.458 11.369 114.458 14.02V17.9802C114.458 20.6312 112.069 21.9567 109.664 21.9567C107.258 21.9567 104.853 20.6312 104.853 17.9802ZM107.782 14.02V17.9802C107.782 18.8311 108.731 19.2402 109.664 19.2402C110.596 19.2402 111.529 18.8148 111.529 17.9802V14.02C111.529 13.12 110.564 12.7108 109.615 12.7108C108.698 12.7108 107.782 13.169 107.782 14.02Z"
        fill="#171524" />
    <path d="M125 12.9727H121.923V21.7931L118.962 19.4553V12.9727H115.885V10.1907H125V12.9727Z" fill="#171524" />
    <defs>
        <linearGradient id="paint0_linear_280_3531" x1="15.1966" y1="6.2749" x2="15.1966" y2="25.1173"
            gradientUnits="userSpaceOnUse">
            <stop stop-color="#9786FD" />
            <stop offset="1" stop-color="#9463FB" />
        </linearGradient>
        <linearGradient id="paint1_linear_280_3531" x1="12.4827" y1="15.9053" x2="12.4827" y2="19.6738"
            gradientUnits="userSpaceOnUse">
            <stop stop-color="#3CA8F6" />
            <stop offset="1" stop-color="#054B9C" />
        </linearGradient>
        <linearGradient id="paint2_linear_280_3531" x1="12.4827" y1="15.9053" x2="12.4827" y2="19.6738"
            gradientUnits="userSpaceOnUse">
            <stop stop-color="white" />
            <stop offset="1" stop-color="white" />
        </linearGradient>
        <linearGradient id="paint3_linear_280_3531" x1="17.9099" y1="15.9053" x2="17.9099" y2="19.6738"
            gradientUnits="userSpaceOnUse">
            <stop stop-color="#3CA8F6" />
            <stop offset="1" stop-color="#054B9C" />
        </linearGradient>
        <linearGradient id="paint4_linear_280_3531" x1="17.9099" y1="15.9053" x2="17.9099" y2="19.6738"
            gradientUnits="userSpaceOnUse">
            <stop stop-color="white" />
            <stop offset="1" stop-color="white" />
        </linearGradient>
        <linearGradient id="paint5_linear_280_3531" x1="2.87375" y1="6.47754" x2="2.87375" y2="13.5688"
            gradientUnits="userSpaceOnUse">
            <stop stop-color="#9786FD" />
            <stop offset="1" stop-color="#9463FB" />
        </linearGradient>
        <linearGradient id="paint6_linear_280_3531" x1="27.512" y1="12.5557" x2="27.512" y2="20.0926"
            gradientUnits="userSpaceOnUse">
            <stop stop-color="#9786FD" />
            <stop offset="1" stop-color="#9463FB" />
        </linearGradient>
        <linearGradient id="paint7_linear_280_3531" x1="2.88017" y1="12.5557" x2="2.88017" y2="20.0926"
            gradientUnits="userSpaceOnUse">
            <stop stop-color="#9786FD" />
            <stop offset="1" stop-color="#9463FB" />
        </linearGradient>
    </defs>
</svg>