<svg width="48" height="33" viewBox="0 0 48 33" fill="none" xmlns="http://www.w3.org/2000/svg">
    <path
        d="M44.0016 18.9875C44.0016 24.7191 31.1551 32.6 24 32.6C16.845 32.6 3.99841 24.5271 3.99841 18.9875C3.99841 10.5822 12.5589 0.359985 24 0.359985C35.4411 0.359985 44.0016 10.5822 44.0016 18.9875Z"
        fill="url(#paint0_linear_163_1143)" />
    <path
        d="M39.7607 14.2567L40.2651 16.0062C41.1891 19.2114 39.6996 22.6202 36.72 24.1199L28.8748 28.0683C25.9009 29.565 22.3902 29.5474 19.4314 28.0211L11.9164 24.1444C8.97507 22.627 7.51628 19.2423 8.43305 16.0621L8.95163 14.2632C9.23713 13.2728 10.2049 12.6409 11.2265 12.7778L21.4182 14.1434C23.2256 14.3856 25.057 14.389 26.8653 14.1536L37.4937 12.7702C38.5128 12.6376 39.4761 13.2691 39.7607 14.2567Z"
        fill="#221A53" />
    <rect x="17.5709" y="16.8382" width="3.57172" height="6.448" rx="1.78586" fill="url(#paint1_linear_163_1143)" />
    <rect x="17.5709" y="16.8382" width="3.57172" height="6.448" rx="1.78586" fill="url(#paint2_linear_163_1143)" />
    <rect x="26.8574" y="16.8382" width="3.57172" height="6.448" rx="1.78586" fill="url(#paint3_linear_163_1143)" />
    <rect x="26.8574" y="16.8382" width="3.57172" height="6.448" rx="1.78586" fill="url(#paint4_linear_163_1143)" />
    <path
        d="M2.67612 0.936932C2.681 0.808369 2.78664 0.706665 2.9153 0.706665C3.04395 0.706665 3.1496 0.808369 3.15448 0.936932L3.58036 12.1492C3.59469 12.5264 3.29277 12.84 2.9153 12.84C2.53782 12.84 2.23591 12.5264 2.25024 12.1492L2.67612 0.936932Z"
        fill="url(#paint5_linear_163_1143)" />
    <rect x="42.573" y="11.1066" width="5.0004" height="12.896" rx="2.5002" fill="url(#paint6_linear_163_1143)" />
    <rect x="0.426636" y="11.1066" width="5.0004" height="12.896" rx="2.5002" fill="url(#paint7_linear_163_1143)" />
    <defs>
        <linearGradient id="paint0_linear_163_1143" x1="24" y1="0.359985" x2="24" y2="32.6"
            gradientUnits="userSpaceOnUse">
            <stop stop-color="#9786FD" />
            <stop offset="1" stop-color="#9463FB" />
        </linearGradient>
        <linearGradient id="paint1_linear_163_1143" x1="19.3568" y1="16.8382" x2="19.3568" y2="23.2862"
            gradientUnits="userSpaceOnUse">
            <stop stop-color="#3CA8F6" />
            <stop offset="1" stop-color="#054B9C" />
        </linearGradient>
        <linearGradient id="paint2_linear_163_1143" x1="19.3568" y1="16.8382" x2="19.3568" y2="23.2862"
            gradientUnits="userSpaceOnUse">
            <stop stop-color="white" />
            <stop offset="1" stop-color="white" />
        </linearGradient>
        <linearGradient id="paint3_linear_163_1143" x1="28.6433" y1="16.8382" x2="28.6433" y2="23.2862"
            gradientUnits="userSpaceOnUse">
            <stop stop-color="#3CA8F6" />
            <stop offset="1" stop-color="#054B9C" />
        </linearGradient>
        <linearGradient id="paint4_linear_163_1143" x1="28.6433" y1="16.8382" x2="28.6433" y2="23.2862"
            gradientUnits="userSpaceOnUse">
            <stop stop-color="white" />
            <stop offset="1" stop-color="white" />
        </linearGradient>
        <linearGradient id="paint5_linear_163_1143" x1="2.9153" y1="0.706665" x2="2.9153" y2="12.84"
            gradientUnits="userSpaceOnUse">
            <stop stop-color="#9786FD" />
            <stop offset="1" stop-color="#9463FB" />
        </linearGradient>
        <linearGradient id="paint6_linear_163_1143" x1="45.0732" y1="11.1066" x2="45.0732" y2="24.0026"
            gradientUnits="userSpaceOnUse">
            <stop stop-color="#9786FD" />
            <stop offset="1" stop-color="#9463FB" />
        </linearGradient>
        <linearGradient id="paint7_linear_163_1143" x1="2.92684" y1="11.1066" x2="2.92684" y2="24.0026"
            gradientUnits="userSpaceOnUse">
            <stop stop-color="#9786FD" />
            <stop offset="1" stop-color="#9463FB" />
        </linearGradient>
    </defs>
</svg>