<svg xmlns="http://www.w3.org/2000/svg" xmlns:xlink="http://www.w3.org/1999/xlink" width="488" zoomAndPan="magnify" viewBox="0 0 366 94.499997" height="126" preserveAspectRatio="xMidYMid meet" version="1.0"><defs><g/><clipPath id="3984968699"><path d="M 1.546875 0.269531 L 59 0.269531 L 59 66 L 1.546875 66 Z M 1.546875 0.269531 " clip-rule="nonzero"/></clipPath><clipPath id="b1659b12c2"><path d="M 26 53 L 59 53 L 59 93.082031 L 26 93.082031 Z M 26 53 " clip-rule="nonzero"/></clipPath><clipPath id="23d80a55c1"><path d="M 76 28 L 133.597656 28 L 133.597656 93.082031 L 76 93.082031 Z M 76 28 " clip-rule="nonzero"/></clipPath><clipPath id="c5497e458a"><path d="M 76 0.269531 L 109 0.269531 L 109 41 L 76 41 Z M 76 0.269531 " clip-rule="nonzero"/></clipPath></defs><g clip-path="url(#3984968699)"><path fill="#3a51d6" d="M 1.546875 46.773438 L 58.4375 0.3125 L 58.4375 31.5 L 34.914062 50.714844 L 27.167969 57.039062 C 25.058594 58.757812 23.851562 61.308594 23.851562 64.027344 C 23.851562 64.367188 23.871094 64.703125 23.90625 65.035156 Z M 1.546875 46.773438 " fill-opacity="1" fill-rule="nonzero"/></g><g clip-path="url(#b1659b12c2)"><path fill="#009bff" d="M 28.792969 69.023438 C 27.289062 67.792969 26.425781 65.972656 26.425781 64.027344 C 26.425781 62.082031 27.289062 60.261719 28.792969 59.03125 L 35.726562 53.371094 L 58.4375 71.917969 L 58.4375 93.234375 Z M 28.792969 69.023438 " fill-opacity="1" fill-rule="nonzero"/></g><g clip-path="url(#23d80a55c1)"><path fill="#009bff" d="M 76.371094 62.046875 L 99.894531 42.835938 L 107.640625 36.507812 C 109.746094 34.789062 110.957031 32.242188 110.957031 29.519531 C 110.957031 29.179688 110.9375 28.84375 110.902344 28.511719 L 133.261719 46.773438 L 76.371094 93.234375 Z M 76.371094 62.046875 " fill-opacity="1" fill-rule="nonzero"/></g><g clip-path="url(#c5497e458a)"><path fill="#3a51d6" d="M 76.371094 21.628906 L 76.371094 0.3125 L 106.011719 24.523438 C 107.519531 25.753906 108.382812 27.574219 108.382812 29.519531 C 108.382812 31.464844 107.519531 33.285156 106.011719 34.515625 L 99.082031 40.179688 Z M 76.371094 21.628906 " fill-opacity="1" fill-rule="nonzero"/></g><g fill="#000000" fill-opacity="1"><g transform="translate(138.257539, 59.786847)"><g><path d="M 11.34375 -4.125 L 11.34375 -8.03125 L 16.515625 -8.03125 L 16.515625 -4.75 C 16.515625 -1.320312 14.90625 0.390625 11.6875 0.390625 L 6.78125 0.390625 C 3.5625 0.390625 1.953125 -1.320312 1.953125 -4.75 L 1.953125 -20.453125 C 1.953125 -23.890625 3.5625 -25.609375 6.78125 -25.609375 L 11.6875 -25.609375 C 14.90625 -25.609375 16.515625 -23.890625 16.515625 -20.453125 L 16.515625 -18.078125 L 11.34375 -18.078125 L 11.34375 -21.125 C 11.34375 -21.332031 11.269531 -21.515625 11.125 -21.671875 C 10.976562 -21.828125 10.800781 -21.90625 10.59375 -21.90625 L 8.140625 -21.90625 C 7.929688 -21.90625 7.753906 -21.828125 7.609375 -21.671875 C 7.472656 -21.515625 7.40625 -21.332031 7.40625 -21.125 L 7.40625 -4.125 C 7.40625 -3.914062 7.472656 -3.734375 7.609375 -3.578125 C 7.753906 -3.421875 7.929688 -3.34375 8.140625 -3.34375 L 10.59375 -3.34375 C 10.800781 -3.34375 10.976562 -3.421875 11.125 -3.578125 C 11.269531 -3.734375 11.34375 -3.914062 11.34375 -4.125 Z M 11.34375 -4.125 "/></g></g></g><g fill="#000000" fill-opacity="1"><g transform="translate(160.189384, 59.786847)"><g><path d="M 16.796875 -20.453125 L 16.796875 -4.75 C 16.796875 -1.320312 15.1875 0.390625 11.96875 0.390625 L 6.78125 0.390625 C 3.5625 0.390625 1.953125 -1.320312 1.953125 -4.75 L 1.953125 -20.453125 C 1.953125 -23.890625 3.5625 -25.609375 6.78125 -25.609375 L 11.96875 -25.609375 C 15.1875 -25.609375 16.796875 -23.890625 16.796875 -20.453125 Z M 11.34375 -4.125 L 11.34375 -21.125 C 11.34375 -21.332031 11.269531 -21.515625 11.125 -21.671875 C 10.976562 -21.828125 10.800781 -21.90625 10.59375 -21.90625 L 8.140625 -21.90625 C 7.929688 -21.90625 7.753906 -21.828125 7.609375 -21.671875 C 7.472656 -21.515625 7.40625 -21.332031 7.40625 -21.125 L 7.40625 -4.125 C 7.40625 -3.914062 7.472656 -3.734375 7.609375 -3.578125 C 7.753906 -3.421875 7.929688 -3.34375 8.140625 -3.34375 L 10.59375 -3.34375 C 10.800781 -3.34375 10.976562 -3.421875 11.125 -3.578125 C 11.269531 -3.734375 11.34375 -3.914062 11.34375 -4.125 Z M 11.34375 -4.125 "/></g></g></g><g fill="#000000" fill-opacity="1"><g transform="translate(183.134019, 59.786847)"><g><path d="M 11.96875 -25.21875 C 15.1875 -25.21875 16.796875 -23.5 16.796875 -20.0625 L 16.796875 -5.140625 C 16.796875 -1.710938 15.1875 0 11.96875 0 L 1.953125 0 L 1.953125 -25.21875 Z M 11.34375 -4.515625 L 11.34375 -20.734375 C 11.34375 -20.941406 11.269531 -21.125 11.125 -21.28125 C 10.976562 -21.4375 10.800781 -21.515625 10.59375 -21.515625 L 7.40625 -21.515625 L 7.40625 -3.734375 L 10.59375 -3.734375 C 10.800781 -3.734375 10.976562 -3.8125 11.125 -3.96875 C 11.269531 -4.125 11.34375 -4.304688 11.34375 -4.515625 Z M 11.34375 -4.515625 "/></g></g></g><g fill="#000000" fill-opacity="1"><g transform="translate(206.117606, 59.786847)"><g><path d="M 7.40625 -4.515625 L 13.4375 -4.515625 L 13.4375 0 L 1.953125 0 L 1.953125 -25.21875 L 13.4375 -25.21875 L 13.4375 -20.765625 L 7.40625 -20.765625 L 7.40625 -14.84375 L 13.046875 -14.84375 L 13.046875 -10.5625 L 7.40625 -10.5625 Z M 7.40625 -4.515625 "/></g></g></g><g fill="#000000" fill-opacity="1"><g transform="translate(224.855273, 59.786847)"><g><path d="M 11.765625 -25.21875 C 14.984375 -25.21875 16.59375 -23.5 16.59375 -20.0625 L 16.59375 -15.046875 C 16.59375 -11.609375 14.984375 -9.890625 11.765625 -9.890625 L 7.359375 -9.890625 L 7.359375 0 L 1.90625 0 L 1.90625 -25.21875 Z M 11.140625 -14.421875 L 11.140625 -20.6875 C 11.140625 -20.894531 11.066406 -21.078125 10.921875 -21.234375 C 10.785156 -21.390625 10.613281 -21.46875 10.40625 -21.46875 L 7.359375 -21.46875 L 7.359375 -13.640625 L 10.40625 -13.640625 C 10.613281 -13.640625 10.785156 -13.71875 10.921875 -13.875 C 11.066406 -14.03125 11.140625 -14.210938 11.140625 -14.421875 Z M 11.140625 -14.421875 "/></g></g></g><g fill="#000000" fill-opacity="1"><g transform="translate(246.31968, 59.786847)"><g><path d="M 7.40625 -25.21875 L 7.40625 0 L 1.953125 0 L 1.953125 -25.21875 Z M 7.40625 -25.21875 "/></g></g></g><g fill="#000000" fill-opacity="1"><g transform="translate(259.915504, 59.786847)"><g><path d="M 7.40625 -4.59375 L 13.359375 -4.59375 L 13.359375 0 L 1.953125 0 L 1.953125 -25.21875 L 7.40625 -25.21875 Z M 7.40625 -4.59375 "/></g></g></g><g fill="#000000" fill-opacity="1"><g transform="translate(277.990962, 59.786847)"><g><path d="M 16.796875 -20.453125 L 16.796875 -4.75 C 16.796875 -1.320312 15.1875 0.390625 11.96875 0.390625 L 6.78125 0.390625 C 3.5625 0.390625 1.953125 -1.320312 1.953125 -4.75 L 1.953125 -20.453125 C 1.953125 -23.890625 3.5625 -25.609375 6.78125 -25.609375 L 11.96875 -25.609375 C 15.1875 -25.609375 16.796875 -23.890625 16.796875 -20.453125 Z M 11.34375 -4.125 L 11.34375 -21.125 C 11.34375 -21.332031 11.269531 -21.515625 11.125 -21.671875 C 10.976562 -21.828125 10.800781 -21.90625 10.59375 -21.90625 L 8.140625 -21.90625 C 7.929688 -21.90625 7.753906 -21.828125 7.609375 -21.671875 C 7.472656 -21.515625 7.40625 -21.332031 7.40625 -21.125 L 7.40625 -4.125 C 7.40625 -3.914062 7.472656 -3.734375 7.609375 -3.578125 C 7.753906 -3.421875 7.929688 -3.34375 8.140625 -3.34375 L 10.59375 -3.34375 C 10.800781 -3.34375 10.976562 -3.421875 11.125 -3.578125 C 11.269531 -3.734375 11.34375 -3.914062 11.34375 -4.125 Z M 11.34375 -4.125 "/></g></g></g><g fill="#000000" fill-opacity="1"><g transform="translate(300.935597, 59.786847)"><g><path d="M 0.5 -20.578125 L 0.5 -25.21875 L 14.140625 -25.21875 L 14.140625 -20.578125 L 10.046875 -20.578125 L 10.046875 0 L 4.59375 0 L 4.59375 -20.578125 Z M 0.5 -20.578125 "/></g></g></g></svg>