<svg width="97" height="26" viewBox="0 0 97 26" fill="none" xmlns="http://www.w3.org/2000/svg">
<path d="M27.4512 9.09091H29.6831L32.3518 13.9169H32.4583L35.127 9.09091H37.3589L33.3905 15.9304V20H31.4196V15.9304L27.4512 9.09091ZM45.6353 9.09091H47.6115V16.218C47.6115 16.9993 47.4268 17.6864 47.0575 18.2795C46.6917 18.8725 46.1768 19.3359 45.5128 19.6697C44.8487 20 44.0728 20.1651 43.185 20.1651C42.2936 20.1651 41.5159 20 40.8519 19.6697C40.1878 19.3359 39.6729 18.8725 39.3071 18.2795C38.9414 17.6864 38.7585 16.9993 38.7585 16.218V9.09091H40.7347V16.0529C40.7347 16.5075 40.8341 16.9123 41.033 17.2674C41.2354 17.6225 41.5195 17.9013 41.8853 18.1037C42.251 18.3026 42.6843 18.402 43.185 18.402C43.6857 18.402 44.1189 18.3026 44.4847 18.1037C44.854 17.9013 45.1381 17.6225 45.337 17.2674C45.5358 16.9123 45.6353 16.5075 45.6353 16.0529V9.09091ZM58.7243 9.09091V20H56.9665L51.8262 12.5692H51.7357V20H49.7595V9.09091H51.5279L56.6629 16.527H56.7588V9.09091H58.7243ZM62.2786 20H60.1692L64.0097 9.09091H66.4494L70.2952 20H68.1859L65.2722 11.3281H65.1869L62.2786 20ZM62.3478 15.7227H68.1006V17.31H62.3478V15.7227ZM71.7321 20V9.09091H73.7083V14.1033H73.8415L78.0975 9.09091H80.5105L76.2918 13.9862L80.5478 20H78.1721L74.9175 15.3232L73.7083 16.7507V20H71.7321ZM83.8597 9.09091V20H81.8835V9.09091H83.8597ZM94.9645 9.09091V20H93.2067L88.0665 12.5692H87.9759V20H85.9997V9.09091H87.7682L92.9031 16.527H92.999V9.09091H94.9645Z" fill="white"/>
<path d="M14.4161 15.3668L2.41736 24.0545M14.4161 15.3668V24.0545M14.4161 15.3668L19.9982 19.7107L25.5802 24.0545" stroke="white" stroke-width="3" stroke-linecap="round" stroke-linejoin="round"/>
<path d="M14.4161 15.3668L2.41736 24.0545M14.4161 15.3668V24.0545M14.4161 15.3668L19.9982 19.7107L25.5802 24.0545" stroke="white" stroke-opacity="0.2" stroke-width="3" stroke-linecap="round" stroke-linejoin="round"/>
<path d="M14.4162 10.6877L2.00003 2.00005M14.4162 10.6877L25.5802 2.00005M14.4162 10.6877L14.4162 2.00004" stroke="white" stroke-width="3" stroke-linecap="round" stroke-linejoin="round"/>
<path d="M14.4162 10.6877L2.00003 2.00005M14.4162 10.6877L25.5802 2.00005M14.4162 10.6877L14.4162 2.00004" stroke="white" stroke-opacity="0.2" stroke-width="3" stroke-linecap="round" stroke-linejoin="round"/>
</svg>
