<svg xmlns="http://www.w3.org/2000/svg" width="701" height="168" viewBox="0 0 701 168" fill="none"><path d="M0.59198 15C0.59198 6.71573 7.30771 0 15.592 0H148.592C156.876 0 163.592 6.71573 163.592 15C163.592 23.2843 156.876 30 148.592 30H15.592C7.30771 30 0.59198 23.2843 0.59198 15Z" fill="#F9AA38"></path><path d="M173.592 15C173.592 6.71573 180.308 0 188.592 0H202.592C210.876 0 217.592 6.71573 217.592 15C217.592 23.2843 210.876 30 202.592 30H188.592C180.308 30 173.592 23.2843 173.592 15Z" fill="#F9AA38"></path><path d="M0.59198 61C0.59198 52.7157 7.30771 46 15.592 46H107.592C115.876 46 122.592 52.7157 122.592 61C122.592 69.2843 115.876 76 107.592 76H15.592C7.3077 76 0.59198 69.2843 0.59198 61Z" fill="#FBCA29"></path><path d="M132.592 61C132.592 52.7157 139.308 46 147.592 46H179.592C187.876 46 194.592 52.7157 194.592 61C194.592 69.2843 187.876 76 179.592 76H147.592C139.308 76 132.592 69.2843 132.592 61Z" fill="#FBCA29"></path><path d="M0.59198 107C0.59198 98.7157 7.30771 92 15.592 92H170.592C178.876 92 185.592 98.7157 185.592 107C185.592 115.284 178.876 122 170.592 122H15.592C7.30771 122 0.59198 115.284 0.59198 107Z" fill="#F9AA38"></path><path d="M195.592 107C195.592 98.7157 202.308 92 210.592 92H224.592C232.876 92 239.592 98.7157 239.592 107C239.592 115.284 232.876 122 224.592 122H210.592C202.308 122 195.592 115.284 195.592 107Z" fill="#F9AA38"></path><path d="M0.59198 153C0.59198 144.716 7.30771 138 15.592 138H126.592C134.876 138 141.592 144.716 141.592 153C141.592 161.284 134.876 168 126.592 168H15.592C7.30771 168 0.59198 161.284 0.59198 153Z" fill="#FBCA29"></path><path d="M151.592 153C151.592 144.716 158.308 138 166.592 138H198.592C206.876 138 213.592 144.716 213.592 153C213.592 161.284 206.876 168 198.592 168H166.592C158.308 168 151.592 161.284 151.592 153Z" fill="#FBCA29"></path><path d="M353.136 131.6L372.04 71.7599L390.944 131.6H408.896L442.488 36.3999H419.368L399.512 99.6399L380.608 36.3999H363.472L344.568 99.6399L324.712 36.3999H301.592L335.184 131.6H353.136Z" fill="black"></path><path d="M505.852 95.4239C505.852 76.9279 491.98 64.2799 471.58 64.2799C450.228 64.2799 436.22 77.3359 436.22 98.8239C436.22 120.72 449.956 133.368 472.26 133.368C489.668 133.368 502.86 124.8 504.9 111.88H484.5C482.732 115.96 478.652 117.728 472.26 117.728C463.012 117.728 457.3 113.104 456.892 104.536H505.308C505.716 100.864 505.852 98.8239 505.852 95.4239ZM456.892 91.6159C457.028 83.5919 462.468 78.2879 471.444 78.2879C480.284 78.2879 485.18 82.9119 485.316 91.6159H456.892Z" fill="black"></path><path d="M563.996 134.32C591.876 134.32 609.964 119.496 612.548 97.0559H589.156C586.708 107.8 577.732 114.6 564.132 114.6C546.18 114.6 535.844 102.632 535.844 83.9999C535.844 65.3679 546.18 53.3999 564.132 53.3999C577.732 53.3999 586.708 60.1999 589.156 70.9439H612.548C609.964 48.5039 591.876 33.6799 563.996 33.6799C532.716 33.6799 512.86 54.7599 512.86 83.9999C512.86 113.24 532.716 134.32 563.996 134.32Z" fill="black"></path><path d="M625.482 36.3999V131.6H647.514V105.216H666.01C685.73 105.216 700.146 90.7999 700.146 70.8079C700.146 50.8159 685.866 36.3999 666.01 36.3999H625.482ZM647.514 87.2639V54.3519H662.61C671.45 54.3519 677.842 61.2879 677.842 70.8079C677.842 80.3279 671.45 87.2639 662.61 87.2639H647.514Z" fill="black"></path></svg>