<svg width="871" height="176" viewBox="0 0 871 176" fill="none" xmlns="http://www.w3.org/2000/svg">
    <path
        d="M236.039 103.111C236.039 106.56 236.489 112.558 237.239 117.807C238.889 128.604 247.436 128.903 247.436 135.201C247.436 138.051 244.887 140.45 240.388 140.45C234.24 140.45 226.292 140 220.144 140C213.696 140 205.899 140.45 199.751 140.45C195.102 140.45 192.703 138.051 192.703 135.201C192.703 128.903 201.25 128.604 202.9 117.807C203.649 112.558 203.949 105.811 203.949 101.462C203.949 94.864 198.701 86.1666 190.603 72.8208C187.155 67.2725 182.356 59.3249 179.507 55.876C175.008 50.6276 170.81 49.2781 170.81 44.0297C170.81 39.0812 173.959 37.5817 181.306 37.5817C186.105 37.5817 189.704 38.0315 198.251 38.0315C206.798 38.0315 210.847 37.5817 216.246 37.5817C221.494 37.5817 224.193 39.831 224.193 43.4299C224.193 48.5283 218.495 50.6276 218.495 56.4758C218.495 60.5246 223.443 71.921 226.442 74.6202C226.742 74.9201 227.192 75.0701 227.642 75.0701C227.942 75.0701 228.392 74.7702 228.692 74.4703C231.241 71.6211 235.74 60.3746 235.74 56.4758C235.74 49.428 229.741 47.9285 229.741 42.98C229.741 39.9809 231.391 37.5817 237.239 37.5817C241.288 37.5817 248.186 38.0315 252.534 38.0315C256.733 38.0315 258.982 37.5817 263.031 37.5817C266.93 37.5817 269.029 39.5311 269.029 42.83C269.029 48.5283 265.58 49.1281 258.682 57.2256C253.434 63.3737 249.685 71.0213 245.337 79.2688C240.838 87.9661 236.039 95.6137 236.039 103.111ZM315.665 52.8769C312.216 52.8769 307.417 57.0756 307.417 75.22C307.417 87.0664 309.517 100.562 313.865 110.909C316.864 117.807 321.063 122.905 326.611 122.905C331.86 122.905 336.808 118.557 336.808 104.611C336.808 93.8143 333.959 78.9689 329.461 68.4721C325.712 58.5752 320.163 52.8769 315.665 52.8769ZM268.729 89.9155C268.729 57.6755 289.273 35.4823 320.613 35.4823C348.805 35.4823 372.647 55.1262 372.647 91.415C372.647 125.305 350.004 142.549 321.363 142.549C287.923 142.549 268.729 120.506 268.729 89.9155ZM469.79 77.7692C469.79 85.5668 470.09 92.1648 470.09 98.3129C470.09 126.804 459.593 142.549 427.503 142.549C403.961 142.549 385.966 131.003 385.966 98.1629C385.966 85.5668 385.816 68.922 385.516 64.7233C384.167 49.7279 376.519 50.1778 376.519 43.2799C376.519 39.9809 378.169 37.5817 382.817 37.5817C389.265 37.5817 395.713 38.0315 402.011 38.0315C408.459 38.0315 414.907 37.5817 420.905 37.5817C425.404 37.5817 427.203 39.9809 427.203 43.2799C427.203 50.1778 420.455 49.7279 418.656 64.7233C418.356 68.0223 418.056 74.7702 418.056 93.6643C418.056 109.409 423.005 118.107 435.001 118.107C441.449 118.107 445.648 115.408 447.897 110.759C449.247 108.06 450.446 100.112 450.446 83.9173C450.446 74.1704 449.996 62.6239 446.697 55.4262C444.148 49.7279 439.799 47.9285 439.799 43.2799C439.799 39.9809 441.449 37.5817 446.098 37.5817C450.296 37.5817 455.245 38.0315 458.694 38.0315C462.892 38.0315 468.291 37.5817 471.89 37.5817C476.388 37.5817 478.038 39.9809 478.038 43.2799C478.038 50.3277 471.44 48.3783 470.24 63.3737C469.94 66.9726 469.79 74.3203 469.79 77.7692ZM511.908 96.6634H522.555C524.355 96.6634 524.804 96.0636 524.804 95.1639C524.804 92.7646 522.105 84.0673 519.106 78.8189C518.656 77.9192 517.907 77.0195 517.457 77.0195C516.857 77.0195 516.257 77.9192 515.807 78.8189C513.108 83.6174 509.809 93.0645 509.809 95.1639C509.809 96.0636 510.259 96.6634 511.908 96.6634ZM484.917 114.808L502.911 67.5724C505.31 61.1244 506.81 54.2265 507.71 49.428C509.209 42.0803 525.104 35.4823 530.953 35.4823C536.051 35.4823 537.85 38.9313 539.65 43.5798L567.841 115.708C568.966 118.557 570.69 122.455 574.739 126.804C576.388 128.604 579.238 131.153 579.238 134.002C579.238 138.95 575.639 140.45 568.291 140.45C563.492 140.45 558.844 140 550.147 140C541.599 140 535.901 140.45 530.503 140.45C525.104 140.45 522.555 138.201 522.555 134.602C522.555 129.503 532.302 127.104 532.302 118.707C532.302 117.357 531.852 116.607 531.102 115.408C530.653 114.658 529.303 114.058 528.103 114.058H508.759C506.81 114.058 505.161 114.808 504.261 115.708C503.511 116.457 502.161 117.807 502.161 120.806C502.161 128.154 510.409 130.103 510.409 135.052C510.409 138.051 508.609 140.45 502.761 140.45C498.713 140.45 494.214 140 489.865 140C485.667 140 482.967 140.45 478.919 140.45C475.02 140.45 472.92 138.5 472.92 135.201C472.92 129.503 479.069 130.103 484.917 114.808ZM624.727 82.2678C626.827 82.2678 645.121 60.8245 645.121 54.6764C645.121 49.8779 640.173 47.9285 640.173 42.98C640.173 39.9809 642.722 37.5817 647.67 37.5817C651.719 37.5817 657.717 38.0315 662.066 38.0315C666.265 38.0315 670.763 37.5817 674.812 37.5817C681.11 37.5817 685.159 37.8816 685.159 43.4299C685.159 48.3783 679.011 49.428 673.162 54.0766C665.815 59.9248 659.067 66.0729 649.77 78.0691C649.47 78.519 648.87 79.1188 648.87 79.7186C648.87 80.0185 649.02 80.3185 649.77 80.6184C664.315 86.0167 671.213 100.712 676.461 114.508C678.861 120.806 682.01 125.754 685.309 128.903C688.158 131.603 689.807 131.903 689.807 135.201C689.807 139.4 687.108 140.45 684.259 140.45C680.81 140.45 669.863 140 666.115 140C658.917 140 651.119 140.45 648.42 140.45C643.622 140.45 640.623 137.901 640.623 134.602C640.623 131.603 642.272 129.953 642.272 126.354C642.272 117.957 634.624 101.612 627.727 101.612C625.477 101.612 623.978 103.711 623.978 109.409V110.159C623.978 117.957 626.227 122.006 628.476 125.754C630.726 129.503 634.175 131.453 634.175 135.201C634.175 138.8 631.175 140.45 627.277 140.45C619.929 140.45 614.231 140 608.083 140C601.635 140 595.187 140.45 589.038 140.45C584.39 140.45 581.991 138.051 581.991 135.201C581.991 128.903 589.338 128.604 590.988 117.807C591.738 112.558 592.038 103.261 592.038 85.4169C592.038 72.8208 592.038 68.922 591.738 64.7233C590.388 49.7279 582.74 50.1778 582.74 43.2799C582.74 39.9809 584.39 37.5817 589.038 37.5817C595.486 37.5817 601.934 38.0315 608.233 38.0315C614.681 38.0315 621.129 37.5817 627.127 37.5817C631.625 37.5817 633.425 39.9809 633.425 43.2799C633.425 47.7785 629.226 50.7776 626.977 55.1262C625.477 57.9754 623.528 61.8742 623.528 69.3718C623.528 78.0691 623.828 82.2678 624.727 82.2678ZM738.128 37.5817C742.626 37.5817 744.426 39.9809 744.426 43.2799C744.426 50.1778 737.078 49.7279 735.578 64.7233C735.128 68.922 735.128 72.8208 735.128 85.4169C735.128 103.261 735.578 112.558 736.328 117.807C737.978 128.604 745.175 128.903 745.175 135.201C745.175 138.051 742.626 140.45 738.128 140.45C731.979 140.45 725.381 140 719.233 140C712.785 140 706.187 140.45 700.039 140.45C695.391 140.45 692.991 138.051 692.991 135.201C692.991 128.903 700.339 128.604 701.989 117.807C702.738 112.558 703.038 103.261 703.038 85.4169C703.038 72.8208 703.038 68.922 702.738 64.7233C701.389 49.7279 693.741 50.1778 693.741 43.2799C693.741 39.9809 695.391 37.5817 700.039 37.5817C706.487 37.5817 712.935 38.0315 719.233 38.0315C725.681 38.0315 732.129 37.5817 738.128 37.5817ZM760.372 37.5817C763.821 37.5817 771.469 38.0315 776.117 38.0315C781.516 38.0315 784.515 38.1815 786.764 39.3811C789.913 40.8806 792.012 44.1796 798.011 51.0775L820.504 76.7196C824.552 81.3681 827.252 84.0673 827.701 84.0673C828.751 84.0673 828.901 83.1676 828.901 81.9679C828.901 72.221 827.851 61.5743 824.402 55.4262C821.103 49.428 817.355 47.9285 817.355 43.2799C817.355 39.9809 819.004 37.5817 823.653 37.5817C827.851 37.5817 832.8 38.0315 836.249 38.0315C840.447 38.0315 845.846 37.5817 849.445 37.5817C853.943 37.5817 855.593 39.9809 855.593 43.2799C855.593 50.3277 848.995 48.3783 847.795 63.3737C847.495 66.9726 847.345 74.3203 847.345 77.7692C847.495 118.707 848.995 113.458 848.995 129.653C848.995 135.951 843.596 141.35 833.7 141.35C831.6 141.35 828.001 139.4 824.702 135.651L786.164 91.2651C784.065 88.8658 783.165 87.8161 782.415 87.8161C781.216 87.8161 781.066 89.7655 781.066 92.1648C781.066 104.911 783.015 116.307 786.164 122.605C789.463 129.053 793.212 130.253 793.212 134.752C793.212 138.051 791.563 140.45 786.914 140.45C781.966 140.45 777.767 140 774.318 140C770.119 140 764.271 140.45 759.472 140.45C754.974 140.45 753.324 138.051 753.324 134.752C753.324 127.704 761.572 129.653 762.771 114.658C763.071 111.059 763.371 102.662 763.371 85.4169C763.371 72.6708 763.221 68.922 762.921 64.8732C761.572 49.8779 754.074 50.3277 754.074 43.2799C754.074 39.9809 755.724 37.5817 760.372 37.5817Z"
        fill="black" />
    <ellipse cx="70.9025" cy="86.9499" rx="70.4396" ry="70.4396" fill="#FFDD04" />
    <path
        d="M69.8836 79.0257V44.392M70.8686 79.0257L103.188 46.6723M70.2043 79.7594L37.8848 47.406M69.8836 95.0204V129.654M70.8686 95.0204L103.188 127.374M70.2043 94.2867L37.8848 126.64"
        stroke="black" stroke-width="12.8673" stroke-linecap="round" />
</svg>