<svg width="165" height="42" viewBox="0 0 165 42" fill="none" xmlns="http://www.w3.org/2000/svg">
    <path
        d="M35.4899 22.5336C35.4899 26.9552 25.5793 33.035 20.0594 33.035C14.5396 33.035 4.62891 26.8071 4.62891 22.5336C4.62891 16.0492 11.233 8.16309 20.0594 8.16309C28.8858 8.16309 35.4899 16.0492 35.4899 22.5336Z"
        fill="url(#paint0_linear_587_6916)" />
    <path
        d="M32.217 18.8843L32.6061 20.2339C33.3189 22.7066 32.1699 25.3365 29.8712 26.4934L23.8189 29.5394C21.5247 30.694 18.8163 30.6805 16.5337 29.503L10.7362 26.5123C8.46703 25.3417 7.34163 22.7305 8.04888 20.2771L8.44895 18.8893C8.66921 18.1253 9.4158 17.6378 10.2039 17.7434L18.0664 18.7969C19.4608 18.9837 20.8736 18.9864 22.2687 18.8048L30.4681 17.7375C31.2543 17.6352 31.9974 18.1224 32.217 18.8843Z"
        fill="#221A53" />
    <rect x="15.0996" y="20.875" width="2.75545" height="4.97439" rx="1.37772" fill="url(#paint1_linear_587_6916)" />
    <rect x="15.0996" y="20.875" width="2.75545" height="4.97439" rx="1.37772" fill="url(#paint2_linear_587_6916)" />
    <rect x="22.2637" y="20.875" width="2.75545" height="4.97439" rx="1.37772" fill="url(#paint3_linear_587_6916)" />
    <rect x="22.2637" y="20.875" width="2.75545" height="4.97439" rx="1.37772" fill="url(#paint4_linear_587_6916)" />
    <path
        d="M3.60856 8.60831C3.61233 8.50913 3.69382 8.43066 3.79308 8.43066V8.43066C3.89233 8.43066 3.97383 8.50913 3.9776 8.60831L4.30615 17.2581C4.3172 17.5491 4.08429 17.7911 3.79308 17.7911V17.7911C3.50187 17.7911 3.26895 17.5491 3.28001 17.2581L3.60856 8.60831Z"
        fill="url(#paint5_linear_587_6916)" />
    <rect x="34.3867" y="16.4541" width="3.85763" height="9.94878" rx="1.92881" fill="url(#paint6_linear_587_6916)" />
    <rect x="1.87305" y="16.4541" width="3.85763" height="9.94878" rx="1.92881" fill="url(#paint7_linear_587_6916)" />
    <path
        d="M55.9952 23.8734L59.365 25.4286C58.0905 27.9127 55.7792 28.8632 53.8567 28.8632C50.8542 28.8632 47.8301 27.1135 47.8301 23.6358V18.3651C47.8301 14.909 50.8542 13.1377 53.9215 13.1377C55.8008 13.1377 58.0689 13.9369 59.3002 16.6587L56.1464 17.9331C55.1096 16.0322 51.6966 16.4642 51.6966 18.3651V23.6358C51.6966 25.4718 55.1528 25.9903 55.9952 23.8734Z"
        fill="white" />
    <path
        d="M61.2665 23.6142V18.3867C61.2665 14.8658 64.4203 13.1377 67.5956 13.1377C70.771 13.1377 73.9463 14.8874 73.9463 18.3867V23.6142C73.9463 27.1135 70.7926 28.8632 67.6172 28.8632C64.4419 28.8632 61.2665 27.1135 61.2665 23.6142ZM65.1331 18.3867V23.6142C65.1331 24.7374 66.386 25.2774 67.6172 25.2774C68.8485 25.2774 70.0797 24.7158 70.0797 23.6142V18.3867C70.0797 17.1987 68.8053 16.6587 67.5524 16.6587C66.3428 16.6587 65.1331 17.2635 65.1331 18.3867Z"
        fill="white" />
    <path
        d="M76.8633 13.3537H82.5875C85.6549 13.3537 88.5278 14.909 88.5278 18.4731V23.6142C88.5278 27.1351 85.6549 28.6688 82.5875 28.6472H76.8633V13.3537ZM79.9491 25.0182H82.7171C84.0348 25.0182 84.6396 24.3486 84.6396 23.3549V18.5811C84.6396 17.5875 84.0132 16.9611 82.7171 16.9611L79.9491 16.9408V25.0182Z"
        fill="white" />
    <path
        d="M95.3697 16.9827V19.3588H101.569V22.7069H95.3697V24.9966H102.109V28.6472H91.46V13.3537H102.109V16.9827H95.3697Z"
        fill="white" />
    <path
        d="M105.023 25.5613V13.3537H111.136C114.873 13.3537 116.731 16.0538 116.731 18.7539C116.731 21.4757 114.851 24.1758 111.158 24.1758H108.89V28.6472L105.023 25.5613ZM108.89 20.7412H111.136C113.469 20.7628 113.469 16.9395 111.136 16.9611H108.89V20.7412Z"
        fill="white" />
    <path d="M123.107 13.3537V28.6472H119.24V13.3537H123.107Z" fill="white" />
    <path d="M126.39 28.6472V13.3537H130.278V24.8238H136.499V28.6472H126.39Z" fill="white" />
    <path
        d="M138.405 23.6142V18.3867C138.405 14.8658 141.558 13.1377 144.734 13.1377C147.909 13.1377 151.085 14.8874 151.085 18.3867V23.6142C151.085 27.1135 147.931 28.8632 144.755 28.8632C141.58 28.8632 138.405 27.1135 138.405 23.6142ZM142.271 18.3867V23.6142C142.271 24.7374 143.524 25.2774 144.755 25.2774C145.987 25.2774 147.218 24.7158 147.218 23.6142V18.3867C147.218 17.1987 145.943 16.6587 144.691 16.6587C143.481 16.6587 142.271 17.2635 142.271 18.3867Z"
        fill="white" />
    <path d="M164.999 17.0043H160.938V28.6472L157.029 25.5613V17.0043H152.968V13.3321H164.999V17.0043Z" fill="white" />
    <defs>
        <linearGradient id="paint0_linear_587_6916" x1="20.0594" y1="8.16309" x2="20.0594" y2="33.035"
            gradientUnits="userSpaceOnUse">
            <stop stop-color="#9786FD" />
            <stop offset="1" stop-color="#9463FB" />
        </linearGradient>
        <linearGradient id="paint1_linear_587_6916" x1="16.4773" y1="20.875" x2="16.4773" y2="25.8494"
            gradientUnits="userSpaceOnUse">
            <stop stop-color="#3CA8F6" />
            <stop offset="1" stop-color="#054B9C" />
        </linearGradient>
        <linearGradient id="paint2_linear_587_6916" x1="16.4773" y1="20.875" x2="16.4773" y2="25.8494"
            gradientUnits="userSpaceOnUse">
            <stop stop-color="white" />
            <stop offset="1" stop-color="white" />
        </linearGradient>
        <linearGradient id="paint3_linear_587_6916" x1="23.6414" y1="20.875" x2="23.6414" y2="25.8494"
            gradientUnits="userSpaceOnUse">
            <stop stop-color="#3CA8F6" />
            <stop offset="1" stop-color="#054B9C" />
        </linearGradient>
        <linearGradient id="paint4_linear_587_6916" x1="23.6414" y1="20.875" x2="23.6414" y2="25.8494"
            gradientUnits="userSpaceOnUse">
            <stop stop-color="white" />
            <stop offset="1" stop-color="white" />
        </linearGradient>
        <linearGradient id="paint5_linear_587_6916" x1="3.79308" y1="8.43066" x2="3.79308" y2="17.7911"
            gradientUnits="userSpaceOnUse">
            <stop stop-color="#9786FD" />
            <stop offset="1" stop-color="#9463FB" />
        </linearGradient>
        <linearGradient id="paint6_linear_587_6916" x1="36.3155" y1="16.4541" x2="36.3155" y2="26.4029"
            gradientUnits="userSpaceOnUse">
            <stop stop-color="#9786FD" />
            <stop offset="1" stop-color="#9463FB" />
        </linearGradient>
        <linearGradient id="paint7_linear_587_6916" x1="3.80186" y1="16.4541" x2="3.80186" y2="26.4029"
            gradientUnits="userSpaceOnUse">
            <stop stop-color="#9786FD" />
            <stop offset="1" stop-color="#9463FB" />
        </linearGradient>
    </defs>
</svg>