<svg width="306" height="119" viewBox="0 0 306 119" fill="none" xmlns="http://www.w3.org/2000/svg">
    <path
        d="M181.618 40.6075C181.618 48.8081 163.237 60.0838 153 60.0838C142.763 60.0838 124.382 48.5333 124.382 40.6075C124.382 28.5815 136.631 13.9558 153 13.9558C169.37 13.9558 181.618 28.5815 181.618 40.6075Z"
        fill="url(#paint0_linear_1_6)" />
    <path
        d="M175.55 33.8387L176.272 36.3418C177.594 40.9278 175.463 45.8051 171.2 47.9507L159.975 53.5999C155.72 55.7413 150.697 55.7163 146.464 53.5324L135.711 47.9857C131.503 45.8147 129.416 40.972 130.727 36.4219L131.469 33.8481C131.878 32.4311 133.263 31.5269 134.724 31.7228L149.306 33.6766C151.892 34.0231 154.512 34.0281 157.1 33.6913L172.306 31.7119C173.765 31.5221 175.143 32.4258 175.55 33.8387Z"
        fill="#221A53" />
    <rect x="143.802" y="37.5323" width="5.1103" height="9.22559" rx="2.55515" fill="url(#paint1_linear_1_6)" />
    <rect x="143.802" y="37.5323" width="5.1103" height="9.22559" rx="2.55515" fill="url(#paint2_linear_1_6)" />
    <rect x="157.089" y="37.5323" width="5.1103" height="9.22559" rx="2.55515" fill="url(#paint3_linear_1_6)" />
    <rect x="157.089" y="37.5323" width="5.1103" height="9.22559" rx="2.55515" fill="url(#paint4_linear_1_6)" />
    <path
        d="M122.49 14.7813C122.497 14.5974 122.649 14.4518 122.833 14.4518C123.017 14.4518 123.168 14.5974 123.175 14.7813L123.784 30.8234C123.805 31.3631 123.373 31.8118 122.833 31.8118C122.293 31.8118 121.861 31.3631 121.881 30.8234L122.49 14.7813Z"
        fill="url(#paint5_linear_1_6)" />
    <rect x="179.574" y="29.3318" width="7.15441" height="18.4512" rx="3.57721" fill="url(#paint6_linear_1_6)" />
    <rect x="119.272" y="29.3318" width="7.15441" height="18.4512" rx="3.57721" fill="url(#paint7_linear_1_6)" />
    <path
        d="M59.4913 109.182L65.7409 112.066C63.3772 116.673 59.0906 118.436 55.5252 118.436C49.9566 118.436 44.348 115.191 44.348 108.741V98.9663C44.348 92.5564 49.9566 89.2714 55.6454 89.2714C59.1307 89.2714 63.3372 90.7537 65.6207 95.8014L59.7717 98.165C57.8487 94.6396 51.519 95.4409 51.519 98.9663V108.741C51.519 112.146 57.9289 113.108 59.4913 109.182Z"
        fill="black" />
    <path
        d="M59.4913 109.182L65.7409 112.066C63.3772 116.673 59.0906 118.436 55.5252 118.436C49.9566 118.436 44.348 115.191 44.348 108.741V98.9663C44.348 92.5564 49.9566 89.2714 55.6454 89.2714C59.1307 89.2714 63.3372 90.7537 65.6207 95.8014L59.7717 98.165C57.8487 94.6396 51.519 95.4409 51.519 98.9663V108.741C51.519 112.146 57.9289 113.108 59.4913 109.182Z"
        fill="#27233A" />
    <path
        d="M59.4913 109.182L65.7409 112.066C63.3772 116.673 59.0906 118.436 55.5252 118.436C49.9566 118.436 44.348 115.191 44.348 108.741V98.9663C44.348 92.5564 49.9566 89.2714 55.6454 89.2714C59.1307 89.2714 63.3372 90.7537 65.6207 95.8014L59.7717 98.165C57.8487 94.6396 51.519 95.4409 51.519 98.9663V108.741C51.519 112.146 57.9289 113.108 59.4913 109.182Z"
        fill="white" />
    <path
        d="M69.2675 108.701V99.0063C69.2675 92.4763 75.1165 89.2714 81.0055 89.2714C86.8946 89.2714 92.7836 92.5164 92.7836 99.0063V108.701C92.7836 115.191 86.9346 118.436 81.0456 118.436C75.1566 118.436 69.2675 115.191 69.2675 108.701ZM76.4385 99.0063V108.701C76.4385 110.784 78.7621 111.786 81.0456 111.786C83.3291 111.786 85.6126 110.744 85.6126 108.701V99.0063C85.6126 96.803 83.249 95.8014 80.9254 95.8014C78.682 95.8014 76.4385 96.9231 76.4385 99.0063Z"
        fill="black" />
    <path
        d="M69.2675 108.701V99.0063C69.2675 92.4763 75.1165 89.2714 81.0055 89.2714C86.8946 89.2714 92.7836 92.5164 92.7836 99.0063V108.701C92.7836 115.191 86.9346 118.436 81.0456 118.436C75.1566 118.436 69.2675 115.191 69.2675 108.701ZM76.4385 99.0063V108.701C76.4385 110.784 78.7621 111.786 81.0456 111.786C83.3291 111.786 85.6126 110.744 85.6126 108.701V99.0063C85.6126 96.803 83.249 95.8014 80.9254 95.8014C78.682 95.8014 76.4385 96.9231 76.4385 99.0063Z"
        fill="#27233A" />
    <path
        d="M69.2675 108.701V99.0063C69.2675 92.4763 75.1165 89.2714 81.0055 89.2714C86.8946 89.2714 92.7836 92.5164 92.7836 99.0063V108.701C92.7836 115.191 86.9346 118.436 81.0456 118.436C75.1566 118.436 69.2675 115.191 69.2675 108.701ZM76.4385 99.0063V108.701C76.4385 110.784 78.7621 111.786 81.0456 111.786C83.3291 111.786 85.6126 110.744 85.6126 108.701V99.0063C85.6126 96.803 83.249 95.8014 80.9254 95.8014C78.682 95.8014 76.4385 96.9231 76.4385 99.0063Z"
        fill="white" />
    <path
        d="M98.1935 89.672H108.81C114.498 89.672 119.827 92.5564 119.827 99.1666V108.701C119.827 115.231 114.498 118.076 108.81 118.036H98.1935V89.672ZM103.917 111.305H109.05C111.494 111.305 112.616 110.063 112.616 108.22V99.3669C112.616 97.5241 111.454 96.3623 109.05 96.3623L103.917 96.3248V111.305Z"
        fill="black" />
    <path
        d="M98.1935 89.672H108.81C114.498 89.672 119.827 92.5564 119.827 99.1666V108.701C119.827 115.231 114.498 118.076 108.81 118.036H98.1935V89.672ZM103.917 111.305H109.05C111.494 111.305 112.616 110.063 112.616 108.22V99.3669C112.616 97.5241 111.454 96.3623 109.05 96.3623L103.917 96.3248V111.305Z"
        fill="#27233A" />
    <path
        d="M98.1935 89.672H108.81C114.498 89.672 119.827 92.5564 119.827 99.1666V108.701C119.827 115.231 114.498 118.076 108.81 118.036H98.1935V89.672ZM103.917 111.305H109.05C111.494 111.305 112.616 110.063 112.616 108.22V99.3669C112.616 97.5241 111.454 96.3623 109.05 96.3623L103.917 96.3248V111.305Z"
        fill="white" />
    <path
        d="M132.516 96.4023V100.809H144.013V107.019H132.516V111.265H145.015V118.036H125.265V89.672H145.015V96.4023H132.516Z"
        fill="black" />
    <path
        d="M132.516 96.4023V100.809H144.013V107.019H132.516V111.265H145.015V118.036H125.265V89.672H145.015V96.4023H132.516Z"
        fill="#27233A" />
    <path
        d="M132.516 96.4023V100.809H144.013V107.019H132.516V111.265H145.015V118.036H125.265V89.672H145.015V96.4023H132.516Z"
        fill="white" />
    <path
        d="M150.419 112.312V89.672H161.756C168.687 89.672 172.132 94.6797 172.132 99.6874C172.132 104.735 168.647 109.743 161.796 109.743H157.59V118.036L150.419 112.312ZM157.59 103.373H161.756C166.083 103.413 166.083 96.3222 161.756 96.3623H157.59V103.373Z"
        fill="black" />
    <path
        d="M150.419 112.312V89.672H161.756C168.687 89.672 172.132 94.6797 172.132 99.6874C172.132 104.735 168.647 109.743 161.796 109.743H157.59V118.036L150.419 112.312ZM157.59 103.373H161.756C166.083 103.413 166.083 96.3222 161.756 96.3623H157.59V103.373Z"
        fill="#27233A" />
    <path
        d="M150.419 112.312V89.672H161.756C168.687 89.672 172.132 94.6797 172.132 99.6874C172.132 104.735 168.647 109.743 161.796 109.743H157.59V118.036L150.419 112.312ZM157.59 103.373H161.756C166.083 103.413 166.083 96.3222 161.756 96.3623H157.59V103.373Z"
        fill="white" />
    <path d="M183.957 89.672V118.036H176.786V89.672H183.957Z" fill="black" />
    <path d="M183.957 89.672V118.036H176.786V89.672H183.957Z" fill="#27233A" />
    <path d="M183.957 89.672V118.036H176.786V89.672H183.957Z" fill="white" />
    <path d="M190.047 118.036V89.672H197.258V110.945H208.796V118.036H190.047Z" fill="black" />
    <path d="M190.047 118.036V89.672H197.258V110.945H208.796V118.036H190.047Z" fill="#27233A" />
    <path d="M190.047 118.036V89.672H197.258V110.945H208.796V118.036H190.047Z" fill="white" />
    <path
        d="M212.329 108.701V99.0063C212.329 92.4763 218.178 89.2714 224.067 89.2714C229.956 89.2714 235.845 92.5164 235.845 99.0063V108.701C235.845 115.191 229.996 118.436 224.107 118.436C218.218 118.436 212.329 115.191 212.329 108.701ZM219.5 99.0063V108.701C219.5 110.784 221.824 111.786 224.107 111.786C226.391 111.786 228.674 110.744 228.674 108.701V99.0063C228.674 96.803 226.311 95.8014 223.987 95.8014C221.744 95.8014 219.5 96.9231 219.5 99.0063Z"
        fill="black" />
    <path
        d="M212.329 108.701V99.0063C212.329 92.4763 218.178 89.2714 224.067 89.2714C229.956 89.2714 235.845 92.5164 235.845 99.0063V108.701C235.845 115.191 229.996 118.436 224.107 118.436C218.218 118.436 212.329 115.191 212.329 108.701ZM219.5 99.0063V108.701C219.5 110.784 221.824 111.786 224.107 111.786C226.391 111.786 228.674 110.744 228.674 108.701V99.0063C228.674 96.803 226.311 95.8014 223.987 95.8014C221.744 95.8014 219.5 96.9231 219.5 99.0063Z"
        fill="#27233A" />
    <path
        d="M212.329 108.701V99.0063C212.329 92.4763 218.178 89.2714 224.067 89.2714C229.956 89.2714 235.845 92.5164 235.845 99.0063V108.701C235.845 115.191 229.996 118.436 224.107 118.436C218.218 118.436 212.329 115.191 212.329 108.701ZM219.5 99.0063V108.701C219.5 110.784 221.824 111.786 224.107 111.786C226.391 111.786 228.674 110.744 228.674 108.701V99.0063C228.674 96.803 226.311 95.8014 223.987 95.8014C221.744 95.8014 219.5 96.9231 219.5 99.0063Z"
        fill="white" />
    <path d="M261.652 96.4424H254.121V118.036L246.869 112.312V96.4424H239.338V89.6319H261.652V96.4424Z" fill="black" />
    <path d="M261.652 96.4424H254.121V118.036L246.869 112.312V96.4424H239.338V89.6319H261.652V96.4424Z"
        fill="#27233A" />
    <path d="M261.652 96.4424H254.121V118.036L246.869 112.312V96.4424H239.338V89.6319H261.652V96.4424Z" fill="white" />
    <defs>
        <linearGradient id="paint0_linear_1_6" x1="153" y1="13.9558" x2="153" y2="60.0838"
            gradientUnits="userSpaceOnUse">
            <stop stop-color="#9786FD" />
            <stop offset="1" stop-color="#9463FB" />
        </linearGradient>
        <linearGradient id="paint1_linear_1_6" x1="146.357" y1="37.5323" x2="146.357" y2="46.7579"
            gradientUnits="userSpaceOnUse">
            <stop stop-color="#3CA8F6" />
            <stop offset="1" stop-color="#054B9C" />
        </linearGradient>
        <linearGradient id="paint2_linear_1_6" x1="146.357" y1="37.5323" x2="146.357" y2="46.7579"
            gradientUnits="userSpaceOnUse">
            <stop stop-color="white" />
            <stop offset="1" stop-color="white" />
        </linearGradient>
        <linearGradient id="paint3_linear_1_6" x1="159.644" y1="37.5323" x2="159.644" y2="46.7579"
            gradientUnits="userSpaceOnUse">
            <stop stop-color="#3CA8F6" />
            <stop offset="1" stop-color="#054B9C" />
        </linearGradient>
        <linearGradient id="paint4_linear_1_6" x1="159.644" y1="37.5323" x2="159.644" y2="46.7579"
            gradientUnits="userSpaceOnUse">
            <stop stop-color="white" />
            <stop offset="1" stop-color="white" />
        </linearGradient>
        <linearGradient id="paint5_linear_1_6" x1="122.833" y1="14.4518" x2="122.833" y2="31.8118"
            gradientUnits="userSpaceOnUse">
            <stop stop-color="#9786FD" />
            <stop offset="1" stop-color="#9463FB" />
        </linearGradient>
        <linearGradient id="paint6_linear_1_6" x1="183.151" y1="29.3318" x2="183.151" y2="47.783"
            gradientUnits="userSpaceOnUse">
            <stop stop-color="#9786FD" />
            <stop offset="1" stop-color="#9463FB" />
        </linearGradient>
        <linearGradient id="paint7_linear_1_6" x1="122.85" y1="29.3318" x2="122.85" y2="47.783"
            gradientUnits="userSpaceOnUse">
            <stop stop-color="#9786FD" />
            <stop offset="1" stop-color="#9463FB" />
        </linearGradient>
    </defs>
</svg>