<svg width="175" height="32" viewBox="0 0 175 32" fill="none" xmlns="http://www.w3.org/2000/svg">
    <g clip-path="url(#clip0_14_61)">
        <path d="M97.884 23.6191H101.614V9.54817H97.884V23.6191ZM97.884 7.35392H101.614V4.00763H97.884V7.35392Z"
            fill="#B9C2CE" />
        <path
            d="M104.018 28.2271H107.749V22.0282H107.803C108.598 23.2351 109.888 24.0305 111.862 24.0305C115.483 24.0305 117.952 21.1505 117.952 16.5974C117.952 12.2087 115.566 9.16418 111.835 9.16418C109.915 9.16418 108.598 10.0694 107.694 11.3036H107.611V9.54818H104.018V28.2271ZM111.067 20.9311C108.846 20.9311 107.666 19.2579 107.666 16.7071C107.666 14.1836 108.598 12.1814 110.93 12.1814C113.234 12.1814 114.166 14.0465 114.166 16.7071C114.166 19.3676 112.96 20.9311 111.067 20.9311Z"
            fill="#B9C2CE" />
        <path
            d="M125.393 24.0305C128.904 24.0305 131.318 22.3299 131.318 19.5047C131.318 16.2134 128.712 15.5551 126.353 15.0614C124.35 14.6499 122.486 14.5402 122.486 13.3334C122.486 12.3185 123.446 11.7699 124.899 11.7699C126.49 11.7699 127.45 12.3185 127.614 13.8271H130.988C130.714 11.0019 128.657 9.16418 124.954 9.16418C121.745 9.16418 119.222 10.6179 119.222 13.6625C119.222 16.7345 121.69 17.4202 124.214 17.9139C126.134 18.2979 127.916 18.4351 127.916 19.7791C127.916 20.7665 126.984 21.3974 125.338 21.3974C123.665 21.3974 122.513 20.6842 122.266 19.0659H118.81C119.03 22.0556 121.306 24.0305 125.393 24.0305Z"
            fill="#B9C2CE" />
        <path
            d="M145.48 23.619V9.54816H141.75V17.667C141.75 19.5322 140.68 20.8487 138.925 20.8487C137.334 20.8487 136.594 19.9436 136.594 18.2979V9.54816H132.89V18.9287C132.89 22.0007 134.646 24.003 137.773 24.003C139.748 24.003 140.845 23.2625 141.805 21.9734H141.887V23.619H145.48Z"
            fill="#B9C2CE" />
        <path
            d="M147.893 23.6191H151.623V15.4454C151.623 13.5802 152.638 12.3734 154.147 12.3734C155.518 12.3734 156.314 13.1962 156.314 14.7871V23.6191H160.044V15.4454C160.044 13.5802 161.004 12.3734 162.567 12.3734C163.939 12.3734 164.734 13.1962 164.734 14.7871V23.6191H168.465V14.1562C168.465 11.0842 166.791 9.16418 163.829 9.16418C162.046 9.16418 160.565 10.0967 159.605 11.6327H159.55C158.865 10.1516 157.438 9.16418 155.655 9.16418C153.708 9.16418 152.337 10.1516 151.569 11.4407H151.486V9.54818H147.893V23.6191Z"
            fill="#B9C2CE" />
        <path d="M0.659302 23.6191H4.38958V4.00763H0.659302V23.6191Z" fill="#B9C2CE" />
        <path
            d="M13.5107 24.0305C17.8719 24.0305 20.8615 20.7939 20.8615 16.5974C20.8615 12.4007 17.8719 9.16418 13.5107 9.16418C9.14955 9.16418 6.15985 12.4007 6.15985 16.5974C6.15985 20.7939 9.14955 24.0305 13.5107 24.0305ZM13.5107 21.1779C11.2067 21.1779 9.94499 19.3402 9.94499 16.5974C9.94499 13.8545 11.2067 11.9894 13.5107 11.9894C15.7873 11.9894 17.0764 13.8545 17.0764 16.5974C17.0764 19.3402 15.7873 21.1779 13.5107 21.1779Z"
            fill="#B9C2CE" />
        <path
            d="M28.7944 28.4191C30.879 28.4191 32.6893 27.9254 33.8687 26.8282C34.911 25.8682 35.5419 24.5242 35.5419 22.5494V9.54818H31.9487V11.0294H31.8938C31.0435 9.84994 29.7544 9.16418 27.999 9.16418C24.4333 9.16418 21.9099 11.8522 21.9099 16.0487C21.9099 20.3002 24.9818 22.7687 28.1087 22.7687C29.8915 22.7687 30.9613 22.0556 31.7841 21.1231H31.8664V22.6591C31.8664 24.5791 30.8515 25.5939 28.7395 25.5939C27.0115 25.5939 26.2161 24.9082 25.9144 24.0305H22.2115C22.5955 26.7734 24.9544 28.4191 28.7944 28.4191ZM28.7395 19.7791C26.8195 19.7791 25.5579 18.3802 25.5579 15.9939C25.5579 13.6351 26.8195 12.1539 28.7121 12.1539C30.9613 12.1539 32.0584 13.9094 32.0584 15.9665C32.0584 18.0511 31.0984 19.7791 28.7395 19.7791Z"
            fill="#B9C2CE" />
        <path
            d="M44.6089 24.0305C48.97 24.0305 51.9598 20.7939 51.9598 16.5974C51.9598 12.4007 48.97 9.16418 44.6089 9.16418C40.2478 9.16418 37.258 12.4007 37.258 16.5974C37.258 20.7939 40.2478 24.0305 44.6089 24.0305ZM44.6089 21.1779C42.3049 21.1779 41.0432 19.3402 41.0432 16.5974C41.0432 13.8545 42.3049 11.9894 44.6089 11.9894C46.8854 11.9894 48.1746 13.8545 48.1746 16.5974C48.1746 19.3402 46.8854 21.1779 44.6089 21.1779Z"
            fill="#B9C2CE" />
        <path
            d="M169.82 7.23807C169.82 6.60689 170.332 6.09521 170.963 6.09521H173.249C173.88 6.09521 174.392 6.60689 174.392 7.23807C174.392 7.86925 173.88 8.38093 173.249 8.38093H170.963C170.332 8.38093 169.82 7.86925 169.82 7.23807Z"
            fill="#B9C2CE" />
        <path fill-rule="evenodd" clip-rule="evenodd"
            d="M74.5822 0C83.4184 0 90.5824 7.16345 90.5824 16C90.5824 24.8366 83.4184 32 74.5822 32C65.7456 32 58.5822 24.8366 58.5822 16C58.5822 7.16345 65.7456 0 74.5822 0ZM74.0038 1.19727C72.1785 1.45415 70.4404 2.92086 69.0912 5.37392C68.6998 6.08546 68.3467 6.87157 68.039 7.72035C69.8736 7.25934 71.8889 6.98754 74.0038 6.9455V1.19727ZM66.6867 8.10464C67.0694 6.90366 67.5375 5.79872 68.0778 4.81652C68.7466 3.60047 69.5403 2.55036 70.4346 1.74382C65.5715 3.15618 61.7383 6.98943 60.3259 11.8526C61.1325 10.9582 62.1826 10.1645 63.3986 9.49568C64.3809 8.95544 65.4858 8.48728 66.6867 8.10464ZM66.3025 9.45688C65.8414 11.2914 65.5697 13.3067 65.5276 15.4217H59.7794C60.0362 13.5963 61.503 11.8582 63.9561 10.5091C64.6676 10.1178 65.4537 9.76464 66.3025 9.45688ZM66.6845 15.4217C66.7322 13.1136 67.0646 10.9467 67.6143 9.03216C69.5289 8.4824 71.6958 8.15008 74.0038 8.10232V10.6006C73.1428 12.805 71.3866 14.561 69.1822 15.4217H66.6845ZM65.5276 16.5783H59.7794C60.0362 18.4037 61.503 20.1417 63.9561 21.4909C64.6676 21.8822 65.4537 22.2354 66.3025 22.5431C65.8414 20.7086 65.5697 18.6933 65.5276 16.5783ZM67.6143 22.9678C67.0646 21.0533 66.7322 18.8864 66.6845 16.5783H69.1822C71.3866 17.439 73.1428 19.195 74.0038 21.3994V23.8977C71.6958 23.8499 69.5289 23.5176 67.6143 22.9678ZM66.6867 23.8954C65.4858 23.5127 64.3809 23.0446 63.3986 22.5043C62.1826 21.8355 61.1325 21.0418 60.3259 20.1474C61.7383 25.0106 65.5715 28.8438 70.4346 30.2562C69.5403 29.4496 68.7466 28.3995 68.0778 27.1834C67.5375 26.2013 67.0694 25.0963 66.6867 23.8954ZM74.0038 30.8027C72.1785 30.5458 70.4404 29.0791 69.0912 26.6261C68.6998 25.9146 68.3467 25.1284 68.039 24.2797C69.8736 24.7406 71.8889 25.0125 74.0038 25.0545V30.8027ZM78.7296 30.2562C79.6239 29.4496 80.4176 28.3995 81.0864 27.1834C81.6264 26.2013 82.0952 25.0963 82.4776 23.8954C83.6784 23.5127 84.7832 23.0446 85.7656 22.5043C86.9816 21.8355 88.032 21.0418 88.8384 20.1474C87.4256 25.0106 83.5928 28.8438 78.7296 30.2562ZM81.1256 24.2797C80.8176 25.1284 80.464 25.9146 80.0728 26.6261C78.7238 29.0791 76.9858 30.5458 75.1604 30.8027V25.0545C77.2754 25.0125 79.2906 24.7406 81.1256 24.2797ZM82.8616 22.5431C83.7104 22.2354 84.4968 21.8822 85.208 21.4909C87.6616 20.1418 89.128 18.4037 89.3848 16.5783H83.6368C83.5944 18.6933 83.3224 20.7086 82.8616 22.5431ZM82.48 16.5783C82.432 18.8864 82.1 21.0533 81.5496 22.9678C79.6353 23.5176 77.4685 23.8499 75.1604 23.8977V21.4012C76.0212 19.1961 77.7778 17.4393 79.9827 16.5783H82.48ZM83.6368 15.4217H89.3848C89.128 13.5963 87.6616 11.8582 85.208 10.5091C84.4968 10.1178 83.7104 9.76464 82.8616 9.45688C83.3224 11.2914 83.5944 13.3067 83.6368 15.4217ZM81.5496 9.03216C82.1 10.9467 82.432 13.1136 82.48 15.4217H79.9828C77.7778 14.5607 76.0212 12.8039 75.1604 10.5988V8.10232C77.4685 8.15008 79.6353 8.4824 81.5496 9.03216ZM82.4776 8.10464C83.6784 8.48728 84.7832 8.95544 85.7656 9.49568C86.9816 10.1645 88.032 10.9582 88.8384 11.8526C87.4256 6.98943 83.5928 3.15618 78.7296 1.74382C79.6239 2.55036 80.4176 3.60047 81.0864 4.81652C81.6264 5.79872 82.0952 6.90366 82.4776 8.10464ZM75.1604 1.19727C76.9858 1.45415 78.7238 2.92086 80.0728 5.37392C80.464 6.08547 80.8176 6.87157 81.1256 7.72035C79.2906 7.25934 77.2754 6.98754 75.1604 6.9455V1.19727Z"
            fill="#B9C2CE" />
    </g>
    <defs>
        <clipPath id="clip0_14_61">
            <rect width="174.4" height="32" fill="white" />
        </clipPath>
    </defs>
</svg>