<svg width="141" height="32" viewBox="0 0 141 32" fill="none" xmlns="http://www.w3.org/2000/svg">
    <g clip-path="url(#clip0_14_49)">
        <path fill-rule="evenodd" clip-rule="evenodd"
            d="M12 22.4C10.9391 22.4 9.92172 21.9786 9.17157 21.2284C8.42143 20.4783 8 19.4609 8 18.4V0H0V18.4C0 25.0272 5.3728 30.4 12 30.4H20.8V22.4H12ZM36 8C35.0545 8 34.1182 8.18623 33.2447 8.54807C32.3711 8.9099 31.5774 9.44025 30.9088 10.1088C30.2402 10.7774 29.7099 11.5711 29.3481 12.4447C28.9862 13.3182 28.8 14.2545 28.8 15.2C28.8 16.1455 28.9862 17.0818 29.3481 17.9553C29.7099 18.8289 30.2402 19.6226 30.9088 20.2912C31.5774 20.9598 32.3711 21.4901 33.2447 21.8519C34.1182 22.2138 35.0545 22.4 36 22.4C37.9096 22.4 39.7409 21.6414 41.0912 20.2912C42.4414 18.9409 43.2 17.1096 43.2 15.2C43.2 13.2904 42.4414 11.4591 41.0912 10.1088C39.7409 8.75857 37.9096 8 36 8ZM20.8 15.2C20.8 6.8056 27.6056 0 36 0C44.3944 0 51.2 6.8056 51.2 15.2C51.2 23.5944 44.3944 30.4 36 30.4C27.6056 30.4 20.8 23.5944 20.8 15.2ZM122.4 8C120.49 8 118.659 8.75857 117.309 10.1088C115.959 11.4591 115.2 13.2904 115.2 15.2C115.2 17.1096 115.959 18.9409 117.309 20.2912C118.659 21.6414 120.49 22.4 122.4 22.4C124.31 22.4 126.141 21.6414 127.491 20.2912C128.841 18.9409 129.6 17.1096 129.6 15.2C129.6 13.2904 128.841 11.4591 127.491 10.1088C126.141 8.75857 124.31 8 122.4 8ZM107.2 15.2C107.2 6.8056 114.006 0 122.4 0C130.794 0 137.6 6.8056 137.6 15.2C137.6 23.5944 130.794 30.4 122.4 30.4C114.006 30.4 107.2 23.5944 107.2 15.2ZM68 0C59.6056 0 52.8 6.8056 52.8 15.2C52.8 23.5944 59.6056 30.4 68 30.4H90.4C91.9752 30.4 93.4944 30.16 94.9232 29.7152L99.2 32L103.814 23.3568C104.987 21.1565 105.6 18.7018 105.6 16.2088V15.2C105.6 6.8056 98.7944 0 90.4 0H68ZM97.6 15.2C97.6 13.2904 96.8414 11.4591 95.4912 10.1088C94.1409 8.75857 92.3096 8 90.4 8H68C67.0545 8 66.1182 8.18623 65.2447 8.54807C64.3711 8.9099 63.5774 9.44025 62.9088 10.1088C62.2402 10.7774 61.7099 11.5711 61.3481 12.4447C60.9862 13.3182 60.8 14.2545 60.8 15.2C60.8 16.1455 60.9862 17.0818 61.3481 17.9553C61.7099 18.8289 62.2402 19.6226 62.9088 20.2912C63.5774 20.9598 64.3711 21.4901 65.2447 21.8519C66.1182 22.2138 67.0545 22.4 68 22.4H90.4C92.2999 22.4001 94.1228 21.6492 95.4715 20.311C96.8201 18.9728 97.5852 17.1558 97.6 15.256V15.2Z"
            fill="#B9C2CE" />
        <path
            d="M140.8 2C140.8 2.53043 140.589 3.03914 140.214 3.41421C139.839 3.78929 139.33 4 138.8 4C138.27 4 137.761 3.78929 137.386 3.41421C137.011 3.03914 136.8 2.53043 136.8 2C136.8 1.46957 137.011 0.960859 137.386 0.585786C137.761 0.210714 138.27 0 138.8 0C139.33 0 139.839 0.210714 140.214 0.585786C140.589 0.960859 140.8 1.46957 140.8 2Z"
            fill="#B9C2CE" />
    </g>
    <defs>
        <clipPath id="clip0_14_49">
            <rect width="140.8" height="32" fill="white" />
        </clipPath>
    </defs>
</svg>