<svg width="21" height="20" viewBox="0 0 21 20" fill="none" xmlns="http://www.w3.org/2000/svg">
    <path
        d="M10.5 2.5V16.6667C10.5 16.8877 10.4122 17.0996 10.2559 17.2559C10.0996 17.4122 9.88768 17.5 9.66667 17.5H4.66667C4.22464 17.5 3.80072 17.3244 3.48816 17.0118C3.17559 16.6993 3 16.2754 3 15.8333V4.16667C3 3.72464 3.17559 3.30072 3.48816 2.98816C3.80072 2.67559 4.22464 2.5 4.66667 2.5H16.3333C16.7754 2.5 17.1993 2.67559 17.5118 2.98816C17.8244 3.30072 18 3.72464 18 4.16667V9.16667C18 9.38768 17.9122 9.59964 17.7559 9.75592C17.5996 9.9122 17.3877 10 17.1667 10H3"
        stroke="currentColor" stroke-width="1.5" stroke-linecap="round" stroke-linejoin="round" />
    <path d="M13.8335 15.8337L15.5002 17.5003L18.8335 14.167" stroke="currentColor" stroke-width="1.5"
        stroke-linecap="round" stroke-linejoin="round" />
</svg>