<svg width="32" height="32" viewBox="0 0 32 32" fill="none" xmlns="http://www.w3.org/2000/svg">
    <rect width="32" height="32" rx="8" fill="#FFCCCC" />
    <path fill-rule="evenodd" clip-rule="evenodd"
        d="M16 7.875C11.5127 7.875 7.875 11.5127 7.875 16C7.875 20.4873 11.5127 24.125 16 24.125C20.4873 24.125 24.125 20.4873 24.125 16C24.125 11.5127 20.4873 7.875 16 7.875ZM14.5669 13.6831C14.3229 13.439 13.9271 13.439 13.6831 13.6831C13.439 13.9271 13.439 14.3229 13.6831 14.5669L15.1161 16L13.6831 17.4331C13.439 17.6771 13.439 18.0729 13.6831 18.3169C13.9271 18.561 14.3229 18.561 14.5669 18.3169L16 16.8839L17.4331 18.3169C17.6771 18.561 18.0729 18.561 18.3169 18.3169C18.561 18.0729 18.561 17.6771 18.3169 17.4331L16.8839 16L18.3169 14.5669C18.561 14.3229 18.561 13.9271 18.3169 13.6831C18.0729 13.439 17.6771 13.439 17.4331 13.6831L16 15.1161L14.5669 13.6831Z"
        fill="#E90000" />
</svg>