<svg width="32" height="32" viewBox="0 0 32 32" fill="none" xmlns="http://www.w3.org/2000/svg">
    <rect width="32" height="32" rx="8" fill="#CCFFD4" />
    <path fill-rule="evenodd" clip-rule="evenodd"
        d="M7.875 16C7.875 11.5127 11.5127 7.875 16 7.875C20.4873 7.875 24.125 11.5127 24.125 16C24.125 20.4873 20.4873 24.125 16 24.125C11.5127 24.125 7.875 20.4873 7.875 16ZM19.0086 14.4883C19.2092 14.2074 19.1442 13.817 18.8633 13.6164C18.5824 13.4158 18.192 13.4808 17.9914 13.7617L15.2952 17.5364L13.9419 16.1831C13.6979 15.939 13.3021 15.939 13.0581 16.1831C12.814 16.4271 12.814 16.8229 13.0581 17.0669L14.9331 18.9419C15.063 19.0719 15.2435 19.138 15.4266 19.1229C15.6096 19.1077 15.7768 19.0128 15.8836 18.8633L19.0086 14.4883Z"
        fill="#00CE21" />
</svg>