<svg width="165" height="42" viewBox="0 0 165 42" fill="none" xmlns="http://www.w3.org/2000/svg">
    <path
        d="M35.4899 22.5333C35.4899 26.955 25.5793 33.0348 20.0594 33.0348C14.5396 33.0348 4.62891 26.8069 4.62891 22.5333C4.62891 16.0489 11.233 8.16284 20.0594 8.16284C28.8858 8.16284 35.4899 16.0489 35.4899 22.5333Z"
        fill="url(#paint0_linear_521_4444)" />
    <path
        d="M32.217 18.8836L32.6061 20.2333C33.3189 22.706 32.1699 25.3358 29.8712 26.4927L23.8189 29.5387C21.5247 30.6934 18.8163 30.6798 16.5337 29.5023L10.7362 26.5116C8.46703 25.341 7.34163 22.7298 8.04888 20.2764L8.44895 18.8886C8.66921 18.1246 9.4158 17.6371 10.2039 17.7427L18.0664 18.7962C19.4608 18.983 20.8736 18.9857 22.2687 18.8041L30.4681 17.7368C31.2543 17.6345 31.9974 18.1217 32.217 18.8836Z"
        fill="#221A53" />
    <rect x="15.0996" y="20.8752" width="2.75545" height="4.97439" rx="1.37772" fill="url(#paint1_linear_521_4444)" />
    <rect x="15.0996" y="20.8752" width="2.75545" height="4.97439" rx="1.37772" fill="url(#paint2_linear_521_4444)" />
    <rect x="22.2637" y="20.8752" width="2.75545" height="4.97439" rx="1.37772" fill="url(#paint3_linear_521_4444)" />
    <rect x="22.2637" y="20.8752" width="2.75545" height="4.97439" rx="1.37772" fill="url(#paint4_linear_521_4444)" />
    <path
        d="M3.60856 8.60794C3.61233 8.50876 3.69382 8.4303 3.79308 8.4303V8.4303C3.89233 8.4303 3.97383 8.50876 3.9776 8.60794L4.30615 17.2578C4.3172 17.5488 4.08429 17.7907 3.79308 17.7907V17.7907C3.50187 17.7907 3.26895 17.5488 3.28001 17.2578L3.60856 8.60794Z"
        fill="url(#paint5_linear_521_4444)" />
    <rect x="34.3867" y="16.4535" width="3.85763" height="9.94878" rx="1.92881" fill="url(#paint6_linear_521_4444)" />
    <rect x="1.87305" y="16.4535" width="3.85763" height="9.94878" rx="1.92881" fill="url(#paint7_linear_521_4444)" />
    <path
        d="M55.9952 23.8729L59.365 25.4282C58.0905 27.9123 55.7792 28.8628 53.8567 28.8628C50.8542 28.8628 47.8301 27.1131 47.8301 23.6353V18.3647C47.8301 14.9085 50.8542 13.1373 53.9215 13.1373C55.8008 13.1373 58.0689 13.9365 59.3002 16.6582L56.1464 17.9327C55.1096 16.0318 51.6966 16.4638 51.6966 18.3647V23.6353C51.6966 25.4714 55.1528 25.9898 55.9952 23.8729Z"
        fill="#171524" />
    <path
        d="M61.2665 23.6137V18.3863C61.2665 14.8653 64.4203 13.1373 67.5956 13.1373C70.771 13.1373 73.9463 14.8869 73.9463 18.3863V23.6137C73.9463 27.1131 70.7926 28.8628 67.6172 28.8628C64.4419 28.8628 61.2665 27.1131 61.2665 23.6137ZM65.1331 18.3863V23.6137C65.1331 24.737 66.386 25.277 67.6172 25.277C68.8485 25.277 70.0797 24.7154 70.0797 23.6137V18.3863C70.0797 17.1982 68.8053 16.6582 67.5524 16.6582C66.3428 16.6582 65.1331 17.2631 65.1331 18.3863Z"
        fill="#171524" />
    <path
        d="M76.8633 13.3533H82.5875C85.6549 13.3533 88.5278 14.9085 88.5278 18.4727V23.6137C88.5278 27.1347 85.6549 28.6684 82.5875 28.6468H76.8633V13.3533ZM79.9491 25.0178H82.7171C84.0348 25.0178 84.6396 24.3482 84.6396 23.3545V18.5807C84.6396 17.5871 84.0132 16.9606 82.7171 16.9606L79.9491 16.9404V25.0178Z"
        fill="#171524" />
    <path
        d="M95.3697 16.9822V19.3583H101.569V22.7065H95.3697V24.9962H102.109V28.6468H91.46V13.3533H102.109V16.9822H95.3697Z"
        fill="#171524" />
    <path
        d="M105.023 25.5609V13.3533H111.136C114.873 13.3533 116.731 16.0534 116.731 18.7535C116.731 21.4752 114.851 24.1754 111.158 24.1754H108.89V28.6468L105.023 25.5609ZM108.89 20.7408H111.136C113.469 20.7624 113.469 16.939 111.136 16.9606H108.89V20.7408Z"
        fill="#171524" />
    <path d="M123.107 13.3533V28.6468H119.24V13.3533H123.107Z" fill="#171524" />
    <path d="M126.39 28.6468V13.3533H130.278V24.8234H136.499V28.6468H126.39Z" fill="#171524" />
    <path
        d="M138.405 23.6137V18.3863C138.405 14.8653 141.558 13.1373 144.734 13.1373C147.909 13.1373 151.085 14.8869 151.085 18.3863V23.6137C151.085 27.1131 147.931 28.8628 144.755 28.8628C141.58 28.8628 138.405 27.1131 138.405 23.6137ZM142.271 18.3863V23.6137C142.271 24.737 143.524 25.277 144.755 25.277C145.987 25.277 147.218 24.7154 147.218 23.6137V18.3863C147.218 17.1982 145.943 16.6582 144.691 16.6582C143.481 16.6582 142.271 17.2631 142.271 18.3863Z"
        fill="#171524" />
    <path d="M164.999 17.0038H160.938V28.6468L157.029 25.5609V17.0038H152.968V13.3317H164.999V17.0038Z"
        fill="#171524" />
    <defs>
        <linearGradient id="paint0_linear_521_4444" x1="20.0594" y1="8.16284" x2="20.0594" y2="33.0348"
            gradientUnits="userSpaceOnUse">
            <stop stop-color="#9786FD" />
            <stop offset="1" stop-color="#9463FB" />
        </linearGradient>
        <linearGradient id="paint1_linear_521_4444" x1="16.4773" y1="20.8752" x2="16.4773" y2="25.8496"
            gradientUnits="userSpaceOnUse">
            <stop stop-color="#3CA8F6" />
            <stop offset="1" stop-color="#054B9C" />
        </linearGradient>
        <linearGradient id="paint2_linear_521_4444" x1="16.4773" y1="20.8752" x2="16.4773" y2="25.8496"
            gradientUnits="userSpaceOnUse">
            <stop stop-color="white" />
            <stop offset="1" stop-color="white" />
        </linearGradient>
        <linearGradient id="paint3_linear_521_4444" x1="23.6414" y1="20.8752" x2="23.6414" y2="25.8496"
            gradientUnits="userSpaceOnUse">
            <stop stop-color="#3CA8F6" />
            <stop offset="1" stop-color="#054B9C" />
        </linearGradient>
        <linearGradient id="paint4_linear_521_4444" x1="23.6414" y1="20.8752" x2="23.6414" y2="25.8496"
            gradientUnits="userSpaceOnUse">
            <stop stop-color="white" />
            <stop offset="1" stop-color="white" />
        </linearGradient>
        <linearGradient id="paint5_linear_521_4444" x1="3.79308" y1="8.4303" x2="3.79308" y2="17.7907"
            gradientUnits="userSpaceOnUse">
            <stop stop-color="#9786FD" />
            <stop offset="1" stop-color="#9463FB" />
        </linearGradient>
        <linearGradient id="paint6_linear_521_4444" x1="36.3155" y1="16.4535" x2="36.3155" y2="26.4023"
            gradientUnits="userSpaceOnUse">
            <stop stop-color="#9786FD" />
            <stop offset="1" stop-color="#9463FB" />
        </linearGradient>
        <linearGradient id="paint7_linear_521_4444" x1="3.80186" y1="16.4535" x2="3.80186" y2="26.4023"
            gradientUnits="userSpaceOnUse">
            <stop stop-color="#9786FD" />
            <stop offset="1" stop-color="#9463FB" />
        </linearGradient>
    </defs>
</svg>