<svg width="165" height="42" viewBox="0 0 165 42" fill="none" xmlns="http://www.w3.org/2000/svg">
    <path
        d="M35.4899 22.5333C35.4899 26.955 25.5793 33.0348 20.0594 33.0348C14.5396 33.0348 4.62891 26.8069 4.62891 22.5333C4.62891 16.0489 11.233 8.16284 20.0594 8.16284C28.8858 8.16284 35.4899 16.0489 35.4899 22.5333Z"
        fill="url(#paint0_linear_556_5002)" />
    <path
        d="M32.217 18.8835L32.6061 20.2332C33.3189 22.7059 32.1699 25.3357 29.8712 26.4926L23.8189 29.5386C21.5247 30.6933 18.8163 30.6798 16.5337 29.5023L10.7362 26.5115C8.46703 25.3409 7.34163 22.7297 8.04888 20.2764L8.44895 18.8886C8.66921 18.1245 9.4158 17.637 10.2039 17.7426L18.0664 18.7961C19.4608 18.983 20.8736 18.9856 22.2687 18.804L30.4681 17.7368C31.2543 17.6344 31.9974 18.1217 32.217 18.8835Z"
        fill="#221A53" />
    <rect x="15.0996" y="20.8752" width="2.75545" height="4.97439" rx="1.37772" fill="url(#paint1_linear_556_5002)" />
    <rect x="15.0996" y="20.8752" width="2.75545" height="4.97439" rx="1.37772" fill="url(#paint2_linear_556_5002)" />
    <rect x="22.2637" y="20.8752" width="2.75545" height="4.97439" rx="1.37772" fill="url(#paint3_linear_556_5002)" />
    <rect x="22.2637" y="20.8752" width="2.75545" height="4.97439" rx="1.37772" fill="url(#paint4_linear_556_5002)" />
    <path
        d="M3.60856 8.60782C3.61233 8.50864 3.69382 8.43018 3.79308 8.43018V8.43018C3.89233 8.43018 3.97383 8.50864 3.9776 8.60782L4.30615 17.2577C4.3172 17.5487 4.08429 17.7906 3.79308 17.7906V17.7906C3.50187 17.7906 3.26895 17.5487 3.28001 17.2577L3.60856 8.60782Z"
        fill="url(#paint5_linear_556_5002)" />
    <rect x="34.3867" y="16.4536" width="3.85763" height="9.94878" rx="1.92881" fill="url(#paint6_linear_556_5002)" />
    <rect x="1.87305" y="16.4536" width="3.85763" height="9.94878" rx="1.92881" fill="url(#paint7_linear_556_5002)" />
    <path
        d="M55.9952 23.8729L59.365 25.4282C58.0905 27.9123 55.7792 28.8627 53.8567 28.8627C50.8542 28.8627 47.8301 27.113 47.8301 23.6353V18.3646C47.8301 14.9085 50.8542 13.1372 53.9215 13.1372C55.8008 13.1372 58.0689 13.9364 59.3002 16.6582L56.1464 17.9326C55.1096 16.0317 51.6966 16.4638 51.6966 18.3646V23.6353C51.6966 25.4714 55.1528 25.9898 55.9952 23.8729Z"
        fill="white" />
    <path
        d="M61.2665 23.6137V18.3862C61.2665 14.8653 64.4203 13.1372 67.5956 13.1372C70.771 13.1372 73.9463 14.8869 73.9463 18.3862V23.6137C73.9463 27.113 70.7926 28.8627 67.6172 28.8627C64.4419 28.8627 61.2665 27.113 61.2665 23.6137ZM65.1331 18.3862V23.6137C65.1331 24.7369 66.386 25.2769 67.6172 25.2769C68.8485 25.2769 70.0797 24.7153 70.0797 23.6137V18.3862C70.0797 17.1982 68.8053 16.6582 67.5524 16.6582C66.3428 16.6582 65.1331 17.263 65.1331 18.3862Z"
        fill="white" />
    <path
        d="M76.8633 13.3532H82.5875C85.6549 13.3532 88.5278 14.9085 88.5278 18.4726V23.6137C88.5278 27.1346 85.6549 28.6683 82.5875 28.6467H76.8633V13.3532ZM79.9491 25.0177H82.7171C84.0348 25.0177 84.6396 24.3481 84.6396 23.3545V18.5806C84.6396 17.587 84.0132 16.9606 82.7171 16.9606L79.9491 16.9403V25.0177Z"
        fill="white" />
    <path
        d="M95.3697 16.9822V19.3583H101.569V22.7064H95.3697V24.9961H102.109V28.6467H91.46V13.3532H102.109V16.9822H95.3697Z"
        fill="white" />
    <path
        d="M105.023 25.5608V13.3532H111.136C114.873 13.3532 116.731 16.0533 116.731 18.7535C116.731 21.4752 114.851 24.1753 111.158 24.1753H108.89V28.6467L105.023 25.5608ZM108.89 20.7407H111.136C113.469 20.7623 113.469 16.939 111.136 16.9606H108.89V20.7407Z"
        fill="white" />
    <path d="M123.107 13.3532V28.6467H119.24V13.3532H123.107Z" fill="white" />
    <path d="M126.39 28.6467V13.3532H130.278V24.8233H136.499V28.6467H126.39Z" fill="white" />
    <path
        d="M138.405 23.6137V18.3862C138.405 14.8653 141.558 13.1372 144.734 13.1372C147.909 13.1372 151.085 14.8869 151.085 18.3862V23.6137C151.085 27.113 147.931 28.8627 144.755 28.8627C141.58 28.8627 138.405 27.113 138.405 23.6137ZM142.271 18.3862V23.6137C142.271 24.7369 143.524 25.2769 144.755 25.2769C145.987 25.2769 147.218 24.7153 147.218 23.6137V18.3862C147.218 17.1982 145.943 16.6582 144.691 16.6582C143.481 16.6582 142.271 17.263 142.271 18.3862Z"
        fill="white" />
    <path d="M164.999 17.0038H160.938V28.6467L157.029 25.5608V17.0038H152.968V13.3316H164.999V17.0038Z" fill="white" />
    <defs>
        <linearGradient id="paint0_linear_556_5002" x1="20.0594" y1="8.16284" x2="20.0594" y2="33.0348"
            gradientUnits="userSpaceOnUse">
            <stop stop-color="#9786FD" />
            <stop offset="1" stop-color="#9463FB" />
        </linearGradient>
        <linearGradient id="paint1_linear_556_5002" x1="16.4773" y1="20.8752" x2="16.4773" y2="25.8496"
            gradientUnits="userSpaceOnUse">
            <stop stop-color="#3CA8F6" />
            <stop offset="1" stop-color="#054B9C" />
        </linearGradient>
        <linearGradient id="paint2_linear_556_5002" x1="16.4773" y1="20.8752" x2="16.4773" y2="25.8496"
            gradientUnits="userSpaceOnUse">
            <stop stop-color="white" />
            <stop offset="1" stop-color="white" />
        </linearGradient>
        <linearGradient id="paint3_linear_556_5002" x1="23.6414" y1="20.8752" x2="23.6414" y2="25.8496"
            gradientUnits="userSpaceOnUse">
            <stop stop-color="#3CA8F6" />
            <stop offset="1" stop-color="#054B9C" />
        </linearGradient>
        <linearGradient id="paint4_linear_556_5002" x1="23.6414" y1="20.8752" x2="23.6414" y2="25.8496"
            gradientUnits="userSpaceOnUse">
            <stop stop-color="white" />
            <stop offset="1" stop-color="white" />
        </linearGradient>
        <linearGradient id="paint5_linear_556_5002" x1="3.79308" y1="8.43018" x2="3.79308" y2="17.7906"
            gradientUnits="userSpaceOnUse">
            <stop stop-color="#9786FD" />
            <stop offset="1" stop-color="#9463FB" />
        </linearGradient>
        <linearGradient id="paint6_linear_556_5002" x1="36.3155" y1="16.4536" x2="36.3155" y2="26.4024"
            gradientUnits="userSpaceOnUse">
            <stop stop-color="#9786FD" />
            <stop offset="1" stop-color="#9463FB" />
        </linearGradient>
        <linearGradient id="paint7_linear_556_5002" x1="3.80186" y1="16.4536" x2="3.80186" y2="26.4024"
            gradientUnits="userSpaceOnUse">
            <stop stop-color="#9786FD" />
            <stop offset="1" stop-color="#9463FB" />
        </linearGradient>
    </defs>
</svg>