<svg width="214" height="52" viewBox="0 0 214 52" fill="none" xmlns="http://www.w3.org/2000/svg">
    <path
        d="M46.0018 27.9875C46.0018 33.7191 33.1552 41.6 26.0002 41.6C18.8451 41.6 5.99854 33.5271 5.99854 27.9875C5.99854 19.5822 14.559 9.35999 26.0002 9.35999C37.4413 9.35999 46.0018 19.5822 46.0018 27.9875Z"
        fill="url(#paint0_linear_190_42)" />
    <path
        d="M41.761 23.2567L42.2653 25.0062C43.1893 28.2114 41.6999 31.6202 38.7202 33.1199L30.875 37.0683C27.9011 38.565 24.3904 38.5474 21.4316 37.0211L13.9167 33.1444C10.9753 31.627 9.51652 28.2423 10.4333 25.0621L10.9519 23.2632C11.2374 22.2728 12.2051 21.6409 13.2267 21.7778L23.4184 23.1434C25.2258 23.3856 27.0572 23.389 28.8655 23.1536L39.4939 21.7702C40.513 21.6376 41.4763 22.2691 41.761 23.2567Z"
        fill="#221A53" />
    <rect x="19.571" y="25.8382" width="3.57172" height="6.448" rx="1.78586" fill="url(#paint1_linear_190_42)" />
    <rect x="19.571" y="25.8382" width="3.57172" height="6.448" rx="1.78586" fill="url(#paint2_linear_190_42)" />
    <rect x="28.8574" y="25.8382" width="3.57172" height="6.448" rx="1.78586" fill="url(#paint3_linear_190_42)" />
    <rect x="28.8574" y="25.8382" width="3.57172" height="6.448" rx="1.78586" fill="url(#paint4_linear_190_42)" />
    <path
        d="M4.67624 9.93693C4.68112 9.80837 4.78677 9.70667 4.91542 9.70667C5.04408 9.70667 5.14972 9.80837 5.1546 9.93693L5.58048 21.1492C5.59481 21.5264 5.2929 21.84 4.91542 21.84C4.53795 21.84 4.23603 21.5264 4.25036 21.1492L4.67624 9.93693Z"
        fill="url(#paint5_linear_190_42)" />
    <rect x="44.573" y="20.1067" width="5.0004" height="12.896" rx="2.5002" fill="url(#paint6_linear_190_42)" />
    <rect x="2.42676" y="20.1067" width="5.0004" height="12.896" rx="2.5002" fill="url(#paint7_linear_190_42)" />
    <path
        d="M72.584 29.724L76.952 31.74C75.3 34.96 72.304 36.192 69.812 36.192C65.92 36.192 62 33.924 62 29.416V22.584C62 18.104 65.92 15.808 69.896 15.808C72.332 15.808 75.272 16.844 76.868 20.372L72.78 22.024C71.436 19.56 67.012 20.12 67.012 22.584V29.416C67.012 31.796 71.492 32.468 72.584 29.724Z"
        fill="#171524" />
    <path
        d="M79.4169 29.388V22.612C79.4169 18.048 83.5049 15.808 87.6209 15.808C91.7369 15.808 95.8529 18.076 95.8529 22.612V29.388C95.8529 33.924 91.7649 36.192 87.6489 36.192C83.5329 36.192 79.4169 33.924 79.4169 29.388ZM84.4289 22.612V29.388C84.4289 30.844 86.0529 31.544 87.6489 31.544C89.2449 31.544 90.8409 30.816 90.8409 29.388V22.612C90.8409 21.072 89.1889 20.372 87.5649 20.372C85.9969 20.372 84.4289 21.156 84.4289 22.612Z"
        fill="#171524" />
    <path
        d="M99.634 16.088H107.054C111.03 16.088 114.754 18.104 114.754 22.724V29.388C114.754 33.952 111.03 35.94 107.054 35.912H99.634V16.088ZM103.634 31.208H107.222C108.93 31.208 109.714 30.34 109.714 29.052V22.864C109.714 21.576 108.902 20.764 107.222 20.764L103.634 20.7378V31.208Z"
        fill="#171524" />
    <path d="M123.623 20.792V23.872H131.659V28.212H123.623V31.18H132.359V35.912H118.555V16.088H132.359V20.792H123.623Z"
        fill="#171524" />
    <path
        d="M136.136 31.912V16.088H144.06C148.904 16.088 151.312 19.588 151.312 23.088C151.312 26.616 148.876 30.116 144.088 30.116H141.148V35.912L136.136 31.912ZM141.148 25.664H144.06C147.084 25.692 147.084 20.736 144.06 20.764H141.148V25.664Z"
        fill="#171524" />
    <path d="M159.576 16.088V35.912H154.564V16.088H159.576Z" fill="#171524" />
    <path d="M163.833 35.912V16.088H168.873V30.956H176.937V35.912H163.833Z" fill="#171524" />
    <path
        d="M179.406 29.388V22.612C179.406 18.048 183.494 15.808 187.61 15.808C191.726 15.808 195.842 18.076 195.842 22.612V29.388C195.842 33.924 191.754 36.192 187.638 36.192C183.522 36.192 179.406 33.924 179.406 29.388ZM184.418 22.612V29.388C184.418 30.844 186.042 31.544 187.638 31.544C189.234 31.544 190.83 30.816 190.83 29.388V22.612C190.83 21.072 189.178 20.372 187.554 20.372C185.986 20.372 184.418 21.156 184.418 22.612Z"
        fill="#171524" />
    <path d="M213.879 20.82H208.615V35.912L203.547 31.912V20.82H198.283V16.06H213.879V20.82Z" fill="#171524" />
    <defs>
        <linearGradient id="paint0_linear_190_42" x1="26.0002" y1="9.35999" x2="26.0002" y2="41.6"
            gradientUnits="userSpaceOnUse">
            <stop stop-color="#9786FD" />
            <stop offset="1" stop-color="#9463FB" />
        </linearGradient>
        <linearGradient id="paint1_linear_190_42" x1="21.3569" y1="25.8382" x2="21.3569" y2="32.2862"
            gradientUnits="userSpaceOnUse">
            <stop stop-color="#3CA8F6" />
            <stop offset="1" stop-color="#054B9C" />
        </linearGradient>
        <linearGradient id="paint2_linear_190_42" x1="21.3569" y1="25.8382" x2="21.3569" y2="32.2862"
            gradientUnits="userSpaceOnUse">
            <stop stop-color="white" />
            <stop offset="1" stop-color="white" />
        </linearGradient>
        <linearGradient id="paint3_linear_190_42" x1="30.6433" y1="25.8382" x2="30.6433" y2="32.2862"
            gradientUnits="userSpaceOnUse">
            <stop stop-color="#3CA8F6" />
            <stop offset="1" stop-color="#054B9C" />
        </linearGradient>
        <linearGradient id="paint4_linear_190_42" x1="30.6433" y1="25.8382" x2="30.6433" y2="32.2862"
            gradientUnits="userSpaceOnUse">
            <stop stop-color="white" />
            <stop offset="1" stop-color="white" />
        </linearGradient>
        <linearGradient id="paint5_linear_190_42" x1="4.91542" y1="9.70667" x2="4.91542" y2="21.84"
            gradientUnits="userSpaceOnUse">
            <stop stop-color="#9786FD" />
            <stop offset="1" stop-color="#9463FB" />
        </linearGradient>
        <linearGradient id="paint6_linear_190_42" x1="47.0732" y1="20.1067" x2="47.0732" y2="33.0027"
            gradientUnits="userSpaceOnUse">
            <stop stop-color="#9786FD" />
            <stop offset="1" stop-color="#9463FB" />
        </linearGradient>
        <linearGradient id="paint7_linear_190_42" x1="4.92696" y1="20.1067" x2="4.92696" y2="33.0027"
            gradientUnits="userSpaceOnUse">
            <stop stop-color="#9786FD" />
            <stop offset="1" stop-color="#9463FB" />
        </linearGradient>
    </defs>
</svg>