<svg width="398" height="210" viewBox="0 0 398 210" fill="none" xmlns="http://www.w3.org/2000/svg">
    <rect width="398" height="210" rx="23.88" fill="#F8F7F7" />
    <g filter="url(#filter0_dddd_2889_5974)">
        <rect x="9" y="68" width="75.9222" height="27.2478" rx="3.67365" fill="white" />
        <rect x="9.1148" y="68.1148" width="75.6926" height="27.0182" rx="3.55885" stroke="#ECECEC"
            stroke-width="0.229603" />
    </g>
    <path
        d="M14.7936 75.592V73.2543H15.5835C15.7669 73.2543 15.9168 73.2874 16.0333 73.3536C16.1504 73.419 16.2372 73.5077 16.2935 73.6195C16.3498 73.7314 16.378 73.8562 16.378 73.9939C16.378 74.1317 16.3498 74.2569 16.2935 74.3695C16.238 74.4821 16.152 74.5719 16.0355 74.6389C15.9191 74.7051 15.7699 74.7382 15.5881 74.7382H15.0219V74.4871H15.5789C15.7045 74.4871 15.8053 74.4654 15.8814 74.422C15.9575 74.3786 16.0127 74.32 16.0469 74.2462C16.082 74.1716 16.0995 74.0876 16.0995 73.9939C16.0995 73.9003 16.082 73.8166 16.0469 73.7428C16.0127 73.669 15.9572 73.6112 15.8803 73.5693C15.8034 73.5267 15.7015 73.5054 15.5744 73.5054H15.0767V75.592H14.7936ZM17.3134 75.6331C17.2023 75.6331 17.1015 75.6122 17.0109 75.5704C16.9204 75.5277 16.8485 75.4665 16.7952 75.3866C16.7419 75.3059 16.7153 75.2085 16.7153 75.0943C16.7153 74.9939 16.7351 74.9125 16.7747 74.8501C16.8142 74.7869 16.8671 74.7374 16.9333 74.7017C16.9995 74.6659 17.0726 74.6393 17.1525 74.6218C17.2332 74.6035 17.3142 74.589 17.3956 74.5784C17.5022 74.5647 17.5885 74.5544 17.6547 74.5476C17.7217 74.54 17.7704 74.5274 17.8009 74.5099C17.8321 74.4924 17.8477 74.462 17.8477 74.4186V74.4095C17.8477 74.2968 17.8168 74.2093 17.7552 74.1469C17.6943 74.0845 17.6019 74.0533 17.4778 74.0533C17.3492 74.0533 17.2484 74.0815 17.1753 74.1378C17.1023 74.1941 17.0509 74.2542 17.0212 74.3181L16.7655 74.2268C16.8112 74.1203 16.8721 74.0373 16.9482 73.978C17.025 73.9178 17.1087 73.876 17.1993 73.8524C17.2906 73.8281 17.3804 73.8159 17.4687 73.8159C17.525 73.8159 17.5897 73.8227 17.6627 73.8364C17.7366 73.8494 17.8077 73.8764 17.8762 73.9175C17.9454 73.9586 18.0029 74.0206 18.0486 74.1035C18.0942 74.1865 18.117 74.2976 18.117 74.4368V75.592H17.8477V75.3546H17.834C17.8157 75.3927 17.7853 75.4334 17.7426 75.4768C17.7 75.5201 17.6433 75.557 17.5726 75.5875C17.5018 75.6179 17.4154 75.6331 17.3134 75.6331ZM17.3545 75.3911C17.4611 75.3911 17.5509 75.3702 17.6239 75.3284C17.6977 75.2865 17.7533 75.2325 17.7906 75.1663C17.8286 75.1001 17.8477 75.0304 17.8477 74.9574V74.7108C17.8362 74.7245 17.8111 74.7371 17.7723 74.7485C17.7343 74.7591 17.6901 74.7686 17.6399 74.777C17.5904 74.7846 17.5421 74.7915 17.4949 74.7976C17.4485 74.8029 17.4108 74.8075 17.3819 74.8113C17.3119 74.8204 17.2465 74.8352 17.1856 74.8558C17.1255 74.8756 17.0768 74.9056 17.0395 74.946C17.003 74.9855 16.9847 75.0396 16.9847 75.108C16.9847 75.2016 17.0193 75.2724 17.0886 75.3204C17.1586 75.3675 17.2472 75.3911 17.3545 75.3911ZM19.3165 76.2861C19.1863 76.2861 19.0745 76.2693 18.9809 76.2358C18.8873 76.2031 18.8093 76.1597 18.7469 76.1057C18.6852 76.0524 18.6361 75.9954 18.5996 75.9345L18.8142 75.7838C18.8386 75.8158 18.8694 75.8523 18.9067 75.8934C18.944 75.9353 18.995 75.9714 19.0596 76.0018C19.1251 76.033 19.2107 76.0486 19.3165 76.0486C19.458 76.0486 19.5748 76.0144 19.6669 75.9459C19.759 75.8774 19.805 75.7701 19.805 75.624V75.2679H19.7822C19.7624 75.2998 19.7343 75.3394 19.6977 75.3866C19.662 75.433 19.6102 75.4745 19.5425 75.511C19.4755 75.5468 19.385 75.5646 19.2708 75.5646C19.1293 75.5646 19.0022 75.5312 18.8896 75.4642C18.7777 75.3972 18.689 75.2998 18.6236 75.172C18.5589 75.0441 18.5266 74.8889 18.5266 74.7062C18.5266 74.5266 18.5581 74.3703 18.6213 74.2371C18.6845 74.1032 18.7724 73.9997 18.885 73.9266C18.9976 73.8528 19.1277 73.8159 19.2754 73.8159C19.3895 73.8159 19.4801 73.8349 19.5471 73.873C19.6148 73.9102 19.6665 73.9529 19.7023 74.0008C19.7388 74.048 19.767 74.0868 19.7868 74.1172H19.8142V73.8387H20.0744V75.6423C20.0744 75.7929 20.0402 75.9155 19.9717 76.0098C19.904 76.105 19.8126 76.1746 19.6977 76.2187C19.5836 76.2636 19.4565 76.2861 19.3165 76.2861ZM19.3073 75.3226C19.4154 75.3226 19.5067 75.2979 19.5813 75.2485C19.6559 75.199 19.7126 75.1278 19.7514 75.035C19.7902 74.9422 19.8096 74.831 19.8096 74.7017C19.8096 74.5754 19.7906 74.4639 19.7525 74.3672C19.7145 74.2706 19.6582 74.1949 19.5836 74.1401C19.509 74.0853 19.4169 74.0579 19.3073 74.0579C19.1932 74.0579 19.0981 74.0868 19.022 74.1446C18.9466 74.2025 18.8899 74.2801 18.8519 74.3775C18.8146 74.4749 18.796 74.583 18.796 74.7017C18.796 74.8234 18.815 74.9311 18.853 75.0247C18.8918 75.1176 18.9489 75.1906 19.0243 75.2439C19.1004 75.2964 19.1947 75.3226 19.3073 75.3226ZM21.3027 75.6286C21.1337 75.6286 20.988 75.5913 20.8655 75.5167C20.7437 75.4414 20.6497 75.3363 20.5835 75.2016C20.5181 75.0662 20.4854 74.9087 20.4854 74.7291C20.4854 74.5495 20.5181 74.3912 20.5835 74.2542C20.6497 74.1165 20.7418 74.0092 20.8598 73.9323C20.9785 73.8547 21.117 73.8159 21.2753 73.8159C21.3666 73.8159 21.4568 73.8311 21.5458 73.8615C21.6348 73.892 21.7159 73.9414 21.789 74.0099C21.862 74.0777 21.9202 74.1675 21.9636 74.2793C22.007 74.3912 22.0287 74.5289 22.0287 74.6925V74.8067H20.6771V74.5738H21.7547C21.7547 74.4749 21.7349 74.3866 21.6953 74.309C21.6565 74.2314 21.601 74.1701 21.5287 74.1252C21.4572 74.0803 21.3727 74.0579 21.2753 74.0579C21.168 74.0579 21.0751 74.0845 20.9968 74.1378C20.9191 74.1903 20.8594 74.2588 20.8175 74.3432C20.7757 74.4277 20.7548 74.5183 20.7548 74.6149V74.7702C20.7548 74.9026 20.7776 75.0148 20.8232 75.1069C20.8697 75.1982 20.934 75.2679 21.0162 75.3158C21.0983 75.363 21.1939 75.3866 21.3027 75.3866C21.3734 75.3866 21.4374 75.3767 21.4944 75.3569C21.5523 75.3363 21.6021 75.3059 21.644 75.2656C21.6858 75.2245 21.7182 75.1735 21.741 75.1126L22.0013 75.1857C21.9739 75.2739 21.9278 75.3516 21.8631 75.4185C21.7985 75.4847 21.7186 75.5365 21.6234 75.5738C21.5283 75.6103 21.4214 75.6286 21.3027 75.6286ZM23.8188 73.8387L23.1704 75.592H22.8965L22.2481 73.8387H22.5403L23.0243 75.2359H23.0426L23.5266 73.8387H23.8188ZM24.1744 75.592V73.8387H24.4438V75.592H24.1744ZM24.3114 73.5465C24.2589 73.5465 24.2136 73.5286 24.1755 73.4928C24.1382 73.4571 24.1196 73.4141 24.1196 73.3638C24.1196 73.3136 24.1382 73.2706 24.1755 73.2349C24.2136 73.1991 24.2589 73.1812 24.3114 73.1812C24.3639 73.1812 24.4088 73.1991 24.4461 73.2349C24.4841 73.2706 24.5031 73.3136 24.5031 73.3638C24.5031 73.4141 24.4841 73.4571 24.4461 73.4928C24.4088 73.5286 24.3639 73.5465 24.3114 73.5465ZM25.6723 75.6286C25.5034 75.6286 25.3576 75.5913 25.2351 75.5167C25.1134 75.4414 25.0194 75.3363 24.9532 75.2016C24.8877 75.0662 24.855 74.9087 24.855 74.7291C24.855 74.5495 24.8877 74.3912 24.9532 74.2542C25.0194 74.1165 25.1115 74.0092 25.2294 73.9323C25.3481 73.8547 25.4866 73.8159 25.6449 73.8159C25.7362 73.8159 25.8264 73.8311 25.9155 73.8615C26.0045 73.892 26.0855 73.9414 26.1586 74.0099C26.2316 74.0777 26.2899 74.1675 26.3332 74.2793C26.3766 74.3912 26.3983 74.5289 26.3983 74.6925V74.8067H25.0468V74.5738H26.1243C26.1243 74.4749 26.1046 74.3866 26.065 74.309C26.0262 74.2314 25.9706 74.1701 25.8983 74.1252C25.8268 74.0803 25.7423 74.0579 25.6449 74.0579C25.5376 74.0579 25.4448 74.0845 25.3664 74.1378C25.2888 74.1903 25.229 74.2588 25.1872 74.3432C25.1453 74.4277 25.1244 74.5183 25.1244 74.6149V74.7702C25.1244 74.9026 25.1472 75.0148 25.1929 75.1069C25.2393 75.1982 25.3036 75.2679 25.3858 75.3158C25.468 75.363 25.5635 75.3866 25.6723 75.3866C25.7431 75.3866 25.807 75.3767 25.8641 75.3569C25.9219 75.3363 25.9718 75.3059 26.0136 75.2656C26.0555 75.2245 26.0878 75.1735 26.1106 75.1126L26.3709 75.1857C26.3435 75.2739 26.2975 75.3516 26.2328 75.4185C26.1681 75.4847 26.0882 75.5365 25.9931 75.5738C25.8979 75.6103 25.791 75.6286 25.6723 75.6286ZM27.2053 75.592L26.6711 73.8387H26.9542L27.3332 75.1811H27.3515L27.7259 73.8387H28.0135L28.3834 75.1765H28.4016L28.7806 73.8387H29.0637L28.5295 75.592H28.2646L27.8811 74.2451H27.8537L27.4702 75.592H27.2053ZM30.6618 74.2314L30.4198 74.2999C30.4046 74.2595 30.3821 74.2203 30.3524 74.1823C30.3235 74.1435 30.284 74.1115 30.2337 74.0864C30.1835 74.0613 30.1192 74.0487 30.0408 74.0487C29.9335 74.0487 29.8441 74.0735 29.7726 74.1229C29.7018 74.1716 29.6664 74.2337 29.6664 74.309C29.6664 74.376 29.6908 74.4289 29.7395 74.4677C29.7882 74.5065 29.8643 74.5388 29.9678 74.5647L30.228 74.6286C30.3848 74.6667 30.5016 74.7249 30.5785 74.8033C30.6553 74.8809 30.6937 74.981 30.6937 75.1035C30.6937 75.2039 30.6648 75.2937 30.607 75.3729C30.5499 75.452 30.47 75.5144 30.3673 75.5601C30.2645 75.6057 30.1451 75.6286 30.0089 75.6286C29.83 75.6286 29.682 75.5898 29.5648 75.5121C29.4476 75.4345 29.3734 75.3211 29.3422 75.172L29.5979 75.108C29.6223 75.2024 29.6683 75.2732 29.736 75.3204C29.8045 75.3675 29.8939 75.3911 30.0043 75.3911C30.1298 75.3911 30.2295 75.3645 30.3034 75.3112C30.3779 75.2572 30.4152 75.1925 30.4152 75.1172C30.4152 75.0563 30.3939 75.0053 30.3513 74.9642C30.3087 74.9224 30.2432 74.8912 30.155 74.8706L29.8627 74.8021C29.7022 74.7641 29.5842 74.7051 29.5089 74.6252C29.4343 74.5445 29.397 74.4437 29.397 74.3227C29.397 74.2238 29.4248 74.1363 29.4803 74.0602C29.5367 73.9841 29.6131 73.9243 29.7098 73.8809C29.8072 73.8376 29.9175 73.8159 30.0408 73.8159C30.2143 73.8159 30.3505 73.8539 30.4495 73.93C30.5492 74.0061 30.6199 74.1066 30.6618 74.2314Z"
        fill="#5E5E5E" />
    <path
        d="M14.8314 88.3021V87.903L16.5926 85.1164H16.8822V85.7348H16.6865L15.3559 87.8403V87.8716H17.7276V88.3021H14.8314ZM16.7178 89.124V88.1808V87.9949V85.1164H17.1796V89.124H16.7178ZM19.7133 89.1788C19.4837 89.1788 19.2769 89.1332 19.0929 89.0418C18.909 88.9505 18.7616 88.8253 18.6507 88.6661C18.5398 88.507 18.4791 88.3256 18.4687 88.1221H18.9384C18.9566 88.3035 19.0388 88.4535 19.1849 88.5722C19.3323 88.6896 19.5084 88.7483 19.7133 88.7483C19.8776 88.7483 20.0238 88.7098 20.1516 88.6329C20.2808 88.5559 20.3819 88.4502 20.4549 88.3158C20.5293 88.1802 20.5665 88.0269 20.5665 87.856C20.5665 87.6812 20.528 87.5253 20.451 87.3883C20.3753 87.25 20.271 87.1411 20.1379 87.0615C20.0048 86.9819 19.8529 86.9415 19.682 86.9402C19.5593 86.9389 19.4334 86.9578 19.3043 86.9969C19.1751 87.0348 19.0688 87.0837 18.9853 87.1437L18.5313 87.0889L18.774 85.1164H20.8561V85.5469H19.181L19.0401 86.7288H19.0636C19.1458 86.6636 19.2488 86.6095 19.3728 86.5664C19.4967 86.5234 19.6259 86.5018 19.7602 86.5018C20.0055 86.5018 20.224 86.5606 20.4158 86.678C20.6088 86.7941 20.7602 86.9532 20.8698 87.1554C20.9806 87.3576 21.0361 87.5886 21.0361 87.8482C21.0361 88.1039 20.9787 88.3322 20.8639 88.5331C20.7504 88.7327 20.5938 88.8905 20.3942 89.0066C20.1946 89.1214 19.9677 89.1788 19.7133 89.1788ZM22.3594 88.5761L22.3281 88.7874C22.3059 88.9362 22.272 89.0953 22.2263 89.2649C22.182 89.4345 22.1357 89.5943 22.0874 89.7443C22.0391 89.8944 21.9994 90.0137 21.968 90.1024H21.6158C21.6328 90.019 21.6549 89.9087 21.6823 89.7717C21.7097 89.6348 21.7371 89.4815 21.7645 89.3119C21.7932 89.1436 21.8167 88.9714 21.835 88.7953L21.8585 88.5761H22.3594ZM24.4107 89.1788C24.1524 89.1788 23.9221 89.1345 23.7199 89.0457C23.519 88.957 23.3592 88.8338 23.2405 88.6759C23.1231 88.5167 23.0591 88.3322 23.0487 88.1221H23.5418C23.5523 88.2513 23.5966 88.3628 23.6749 88.4567C23.7532 88.5494 23.8556 88.6211 23.9821 88.672C24.1087 88.7229 24.2489 88.7483 24.4028 88.7483C24.5751 88.7483 24.7277 88.7183 24.8608 88.6583C24.9938 88.5983 25.0982 88.5148 25.1738 88.4078C25.2495 88.3008 25.2873 88.1769 25.2873 88.036C25.2873 87.8886 25.2508 87.7588 25.1778 87.6466C25.1047 87.5331 24.9977 87.4444 24.8568 87.3805C24.7159 87.3165 24.5437 87.2846 24.3402 87.2846H24.0193V86.8541H24.3402C24.4994 86.8541 24.639 86.8254 24.759 86.768C24.8803 86.7106 24.9749 86.6297 25.0427 86.5253C25.1119 86.421 25.1465 86.2983 25.1465 86.1574C25.1465 86.0218 25.1164 85.9037 25.0564 85.8033C24.9964 85.7028 24.9116 85.6245 24.802 85.5684C24.6938 85.5123 24.5659 85.4843 24.4185 85.4843C24.2802 85.4843 24.1498 85.5097 24.0271 85.5606C23.9058 85.6102 23.8067 85.6826 23.7297 85.7778C23.6527 85.8717 23.611 85.9852 23.6045 86.1183H23.1348C23.1426 85.9083 23.2059 85.7243 23.3246 85.5665C23.4433 85.4073 23.5986 85.2834 23.7904 85.1947C23.9834 85.106 24.1954 85.0616 24.4263 85.0616C24.6742 85.0616 24.8868 85.1118 25.0643 85.2123C25.2417 85.3114 25.378 85.4425 25.4732 85.6056C25.5685 85.7687 25.6161 85.9448 25.6161 86.134C25.6161 86.3597 25.5567 86.5521 25.438 86.7112C25.3206 86.8704 25.1608 86.9806 24.9586 87.0419V87.0732C25.2117 87.115 25.4093 87.2226 25.5515 87.3961C25.6937 87.5683 25.7648 87.7816 25.7648 88.036C25.7648 88.2539 25.7055 88.4496 25.5867 88.6231C25.4693 88.7953 25.3089 88.9309 25.1054 89.0301C24.9018 89.1292 24.6703 89.1788 24.4107 89.1788ZM26.5652 89.124V88.7718L27.888 87.3237C28.0432 87.1541 28.1711 87.0067 28.2715 86.8815C28.372 86.7549 28.4463 86.6362 28.4946 86.5253C28.5442 86.4131 28.569 86.2957 28.569 86.1731C28.569 86.0322 28.5351 85.9102 28.4672 85.8072C28.4007 85.7041 28.3094 85.6245 28.1933 85.5684C28.0772 85.5123 27.9467 85.4843 27.8019 85.4843C27.648 85.4843 27.5136 85.5162 27.3988 85.5802C27.2853 85.6428 27.1972 85.7309 27.1346 85.8443C27.0733 85.9578 27.0426 86.0909 27.0426 86.2435H26.5808C26.5808 86.0087 26.635 85.8026 26.7432 85.6252C26.8515 85.4478 26.9989 85.3095 27.1855 85.2103C27.3733 85.1112 27.584 85.0616 27.8175 85.0616C28.0524 85.0616 28.2604 85.1112 28.4418 85.2103C28.6231 85.3095 28.7653 85.4432 28.8684 85.6115C28.9714 85.7798 29.023 85.967 29.023 86.1731C29.023 86.3205 28.9962 86.4647 28.9427 86.6056C28.8906 86.7451 28.7992 86.901 28.6688 87.0732C28.5396 87.2441 28.3602 87.4529 28.1306 87.6994L27.2305 88.6622V88.6935H29.0934V89.124H26.5652ZM31.1775 85.0616C31.3418 85.0629 31.5062 85.0942 31.6706 85.1555C31.835 85.2169 31.985 85.3186 32.1207 85.4608C32.2563 85.6017 32.3653 85.7941 32.4474 86.0381C32.5296 86.282 32.5707 86.5879 32.5707 86.9558C32.5707 87.312 32.5368 87.6283 32.469 87.9049C32.4024 88.1802 32.3059 88.4124 32.1794 88.6015C32.0541 88.7907 31.9015 88.9342 31.7215 89.0321C31.5427 89.1299 31.3405 89.1788 31.1148 89.1788C30.8904 89.1788 30.6902 89.1345 30.5141 89.0457C30.3393 88.9557 30.1958 88.8311 30.0836 88.672C29.9727 88.5115 29.9016 88.3256 29.8703 88.1143H30.3478C30.3908 88.2982 30.4763 88.4502 30.6041 88.5702C30.7332 88.689 30.9035 88.7483 31.1148 88.7483C31.424 88.7483 31.668 88.6133 31.8467 88.3432C32.0267 88.0732 32.1167 87.6916 32.1167 87.1985H32.0854C32.0124 87.3081 31.9256 87.4027 31.8252 87.4822C31.7247 87.5618 31.6132 87.6231 31.4905 87.6662C31.3679 87.7092 31.2375 87.7307 31.0992 87.7307C30.8696 87.7307 30.6589 87.674 30.4671 87.5605C30.2767 87.4457 30.124 87.2885 30.0092 87.0889C29.8957 86.888 29.839 86.6584 29.839 86.4001C29.839 86.1548 29.8938 85.9304 30.0033 85.7269C30.1142 85.5221 30.2695 85.359 30.4691 85.2377C30.67 85.1164 30.9061 85.0577 31.1775 85.0616ZM31.1775 85.4921C31.0131 85.4921 30.865 85.5332 30.7332 85.6154C30.6028 85.6963 30.4991 85.8059 30.4221 85.9441C30.3464 86.0811 30.3086 86.2331 30.3086 86.4001C30.3086 86.5671 30.3451 86.7191 30.4182 86.856C30.4926 86.9917 30.5937 87.1 30.7215 87.1809C30.8507 87.2605 30.9974 87.3002 31.1618 87.3002C31.2857 87.3002 31.4012 87.2761 31.5082 87.2278C31.6151 87.1783 31.7084 87.1111 31.788 87.0263C31.8689 86.9402 31.9321 86.843 31.9778 86.7347C32.0235 86.6251 32.0463 86.511 32.0463 86.3923C32.0463 86.2357 32.0085 86.089 31.9328 85.952C31.8584 85.815 31.7554 85.7041 31.6236 85.6193C31.4932 85.5345 31.3444 85.4921 31.1775 85.4921Z"
        fill="#121212" />
    <g clip-path="url(#clip0_2889_5974)">
        <rect x="63.6868" y="84.1648" width="15.7249" height="5.91841" rx="1.37762" fill="#E6F6D1" />
        <g clip-path="url(#clip1_2889_5974)">
            <path
                d="M65.4949 88.272L66.7864 86.9804L67.6104 87.8044C67.8407 87.3513 68.2222 86.9713 68.7228 86.7485L69.2471 86.515M69.2471 86.515L68.1104 86.0786M69.2471 86.515L68.8108 87.6518"
                stroke="#629C28" stroke-width="0.287004" stroke-linecap="round" stroke-linejoin="round" />
        </g>
        <path
            d="M71.2762 87.624V87.4186L72.0478 86.5738C72.1384 86.4749 72.213 86.3889 72.2716 86.3159C72.3302 86.2421 72.3735 86.1728 72.4017 86.1081C72.4306 86.0427 72.4451 85.9742 72.4451 85.9027C72.4451 85.8205 72.4253 85.7493 72.3857 85.6892C72.3469 85.6291 72.2936 85.5827 72.2259 85.5499C72.1582 85.5172 72.0821 85.5008 71.9976 85.5008C71.9078 85.5008 71.8294 85.5195 71.7625 85.5568C71.6962 85.5933 71.6449 85.6447 71.6084 85.7109C71.5726 85.7771 71.5547 85.8547 71.5547 85.9437H71.2853C71.2853 85.8068 71.3169 85.6865 71.3801 85.583C71.4432 85.4795 71.5292 85.3989 71.638 85.341C71.7476 85.2832 71.8705 85.2543 72.0067 85.2543C72.1437 85.2543 72.2651 85.2832 72.3709 85.341C72.4766 85.3989 72.5596 85.4769 72.6197 85.575C72.6798 85.6732 72.7099 85.7824 72.7099 85.9027C72.7099 85.9886 72.6943 86.0727 72.6631 86.1549C72.6327 86.2363 72.5794 86.3273 72.5033 86.4277C72.4279 86.5274 72.3233 86.6492 72.1894 86.793L71.6643 87.3546V87.3729H72.751V87.624H71.2762ZM74.0443 85.2862V87.624H73.7612V85.583H73.7475L73.1768 85.962V85.6744L73.7612 85.2862H74.0443ZM75.9084 87.1857V87.0624C75.9084 86.9772 75.9259 86.8992 75.9609 86.8284C75.9966 86.7569 76.0484 86.6998 76.1161 86.6572C76.1846 86.6138 76.2675 86.5921 76.365 86.5921C76.4639 86.5921 76.5468 86.6138 76.6138 86.6572C76.6808 86.6998 76.7314 86.7569 76.7656 86.8284C76.7999 86.8992 76.817 86.9772 76.817 87.0624V87.1857C76.817 87.2709 76.7995 87.3493 76.7645 87.4208C76.7302 87.4916 76.6792 87.5487 76.6115 87.5921C76.5446 87.6347 76.4624 87.656 76.365 87.656C76.266 87.656 76.1827 87.6347 76.115 87.5921C76.0472 87.5487 75.9959 87.4916 75.9609 87.4208C75.9259 87.3493 75.9084 87.2709 75.9084 87.1857ZM76.1412 87.0624V87.1857C76.1412 87.2565 76.158 87.32 76.1915 87.3763C76.2249 87.4319 76.2828 87.4596 76.365 87.4596C76.4449 87.4596 76.5012 87.4319 76.5339 87.3763C76.5674 87.32 76.5841 87.2565 76.5841 87.1857V87.0624C76.5841 86.9916 76.5681 86.9285 76.5362 86.8729C76.5042 86.8166 76.4471 86.7884 76.365 86.7884C76.2851 86.7884 76.2276 86.8166 76.1926 86.8729C76.1583 86.9285 76.1412 86.9916 76.1412 87.0624ZM74.744 85.8479V85.7246C74.744 85.6393 74.7615 85.5613 74.7965 85.4906C74.8323 85.419 74.8841 85.362 74.9518 85.3193C75.0203 85.276 75.1032 85.2543 75.2006 85.2543C75.2996 85.2543 75.3825 85.276 75.4495 85.3193C75.5164 85.362 75.5671 85.419 75.6013 85.4906C75.6355 85.5613 75.6527 85.6393 75.6527 85.7246V85.8479C75.6527 85.9331 75.6352 86.0115 75.6002 86.083C75.5659 86.1538 75.5149 86.2109 75.4472 86.2542C75.3802 86.2968 75.298 86.3182 75.2006 86.3182C75.1017 86.3182 75.0184 86.2968 74.9506 86.2542C74.8829 86.2109 74.8316 86.1538 74.7965 86.083C74.7615 86.0115 74.744 85.9331 74.744 85.8479ZM74.9769 85.7246V85.8479C74.9769 85.9186 74.9936 85.9822 75.0271 86.0385C75.0606 86.094 75.1184 86.1218 75.2006 86.1218C75.2805 86.1218 75.3369 86.094 75.3696 86.0385C75.4031 85.9822 75.4198 85.9186 75.4198 85.8479V85.7246C75.4198 85.6538 75.4038 85.5906 75.3719 85.5351C75.3399 85.4788 75.2828 85.4506 75.2006 85.4506C75.1207 85.4506 75.0633 85.4788 75.0283 85.5351C74.994 85.5906 74.9769 85.6538 74.9769 85.7246ZM74.8308 87.624L76.438 85.2862H76.6983L75.091 87.624H74.8308Z"
            fill="#629C28" />
    </g>
    <rect x="9" y="99.3831" width="75.9468" height="27.617" fill="white" />
    <path
        d="M14.7936 107.404V105.067H15.5835C15.7669 105.067 15.9168 105.1 16.0333 105.166C16.1504 105.231 16.2372 105.32 16.2935 105.432C16.3498 105.544 16.378 105.668 16.378 105.806C16.378 105.944 16.3498 106.069 16.2935 106.182C16.238 106.294 16.152 106.384 16.0355 106.451C15.9191 106.517 15.7699 106.55 15.5881 106.55H15.0219V106.299H15.5789C15.7045 106.299 15.8053 106.278 15.8814 106.234C15.9575 106.191 16.0127 106.132 16.0469 106.058C16.082 105.984 16.0995 105.9 16.0995 105.806C16.0995 105.713 16.082 105.629 16.0469 105.555C16.0127 105.481 15.9572 105.423 15.8803 105.382C15.8034 105.339 15.7015 105.318 15.5744 105.318H15.0767V107.404H14.7936ZM17.3134 107.445C17.2023 107.445 17.1015 107.424 17.0109 107.383C16.9204 107.34 16.8485 107.279 16.7952 107.199C16.7419 107.118 16.7153 107.021 16.7153 106.907C16.7153 106.806 16.7351 106.725 16.7747 106.662C16.8142 106.599 16.8671 106.55 16.9333 106.514C16.9995 106.478 17.0726 106.452 17.1525 106.434C17.2332 106.416 17.3142 106.401 17.3956 106.391C17.5022 106.377 17.5885 106.367 17.6547 106.36C17.7217 106.352 17.7704 106.34 17.8009 106.322C17.8321 106.305 17.8477 106.274 17.8477 106.231V106.222C17.8477 106.109 17.8168 106.022 17.7552 105.959C17.6943 105.897 17.6019 105.866 17.4778 105.866C17.3492 105.866 17.2484 105.894 17.1753 105.95C17.1023 106.006 17.0509 106.066 17.0212 106.13L16.7655 106.039C16.8112 105.933 16.8721 105.85 16.9482 105.79C17.025 105.73 17.1087 105.688 17.1993 105.665C17.2906 105.64 17.3804 105.628 17.4687 105.628C17.525 105.628 17.5897 105.635 17.6627 105.649C17.7366 105.662 17.8077 105.689 17.8762 105.73C17.9454 105.771 18.0029 105.833 18.0486 105.916C18.0942 105.999 18.117 106.11 18.117 106.249V107.404H17.8477V107.167H17.834C17.8157 107.205 17.7853 107.246 17.7426 107.289C17.7 107.332 17.6433 107.369 17.5726 107.4C17.5018 107.43 17.4154 107.445 17.3134 107.445ZM17.3545 107.203C17.4611 107.203 17.5509 107.182 17.6239 107.141C17.6977 107.099 17.7533 107.045 17.7906 106.979C17.8286 106.912 17.8477 106.843 17.8477 106.77V106.523C17.8362 106.537 17.8111 106.549 17.7723 106.561C17.7343 106.571 17.6901 106.581 17.6399 106.589C17.5904 106.597 17.5421 106.604 17.4949 106.61C17.4485 106.615 17.4108 106.62 17.3819 106.624C17.3119 106.633 17.2465 106.647 17.1856 106.668C17.1255 106.688 17.0768 106.718 17.0395 106.758C17.003 106.798 16.9847 106.852 16.9847 106.92C16.9847 107.014 17.0193 107.085 17.0886 107.133C17.1586 107.18 17.2472 107.203 17.3545 107.203ZM19.3165 108.098C19.1863 108.098 19.0745 108.082 18.9809 108.048C18.8873 108.015 18.8093 107.972 18.7469 107.918C18.6852 107.865 18.6361 107.808 18.5996 107.747L18.8142 107.596C18.8386 107.628 18.8694 107.665 18.9067 107.706C18.944 107.748 18.995 107.784 19.0596 107.814C19.1251 107.845 19.2107 107.861 19.3165 107.861C19.458 107.861 19.5748 107.827 19.6669 107.758C19.759 107.69 19.805 107.582 19.805 107.436V107.08H19.7822C19.7624 107.112 19.7343 107.152 19.6977 107.199C19.662 107.245 19.6102 107.287 19.5425 107.323C19.4755 107.359 19.385 107.377 19.2708 107.377C19.1293 107.377 19.0022 107.343 18.8896 107.276C18.7777 107.209 18.689 107.112 18.6236 106.984C18.5589 106.856 18.5266 106.701 18.5266 106.518C18.5266 106.339 18.5581 106.183 18.6213 106.049C18.6845 105.915 18.7724 105.812 18.885 105.739C18.9976 105.665 19.1277 105.628 19.2754 105.628C19.3895 105.628 19.4801 105.647 19.5471 105.685C19.6148 105.722 19.6665 105.765 19.7023 105.813C19.7388 105.86 19.767 105.899 19.7868 105.929H19.8142V105.651H20.0744V107.455C20.0744 107.605 20.0402 107.728 19.9717 107.822C19.904 107.917 19.8126 107.987 19.6977 108.031C19.5836 108.076 19.4565 108.098 19.3165 108.098ZM19.3073 107.135C19.4154 107.135 19.5067 107.11 19.5813 107.061C19.6559 107.011 19.7126 106.94 19.7514 106.847C19.7902 106.754 19.8096 106.643 19.8096 106.514C19.8096 106.388 19.7906 106.276 19.7525 106.179C19.7145 106.083 19.6582 106.007 19.5836 105.952C19.509 105.898 19.4169 105.87 19.3073 105.87C19.1932 105.87 19.0981 105.899 19.022 105.957C18.9466 106.015 18.8899 106.092 18.8519 106.19C18.8146 106.287 18.796 106.395 18.796 106.514C18.796 106.636 18.815 106.743 18.853 106.837C18.8918 106.93 18.9489 107.003 19.0243 107.056C19.1004 107.109 19.1947 107.135 19.3073 107.135ZM21.3027 107.441C21.1337 107.441 20.988 107.404 20.8655 107.329C20.7437 107.254 20.6497 107.149 20.5835 107.014C20.5181 106.878 20.4854 106.721 20.4854 106.541C20.4854 106.362 20.5181 106.203 20.5835 106.066C20.6497 105.929 20.7418 105.821 20.8598 105.745C20.9785 105.667 21.117 105.628 21.2753 105.628C21.3666 105.628 21.4568 105.643 21.5458 105.674C21.6348 105.704 21.7159 105.754 21.789 105.822C21.862 105.89 21.9202 105.98 21.9636 106.092C22.007 106.203 22.0287 106.341 22.0287 106.505V106.619H20.6771V106.386H21.7547C21.7547 106.287 21.7349 106.199 21.6953 106.121C21.6565 106.044 21.601 105.982 21.5287 105.937C21.4572 105.893 21.3727 105.87 21.2753 105.87C21.168 105.87 21.0751 105.897 20.9968 105.95C20.9191 106.003 20.8594 106.071 20.8175 106.156C20.7757 106.24 20.7548 106.331 20.7548 106.427V106.582C20.7548 106.715 20.7776 106.827 20.8232 106.919C20.8697 107.01 20.934 107.08 21.0162 107.128C21.0983 107.175 21.1939 107.199 21.3027 107.199C21.3734 107.199 21.4374 107.189 21.4944 107.169C21.5523 107.149 21.6021 107.118 21.644 107.078C21.6858 107.037 21.7182 106.986 21.741 106.925L22.0013 106.998C21.9739 107.086 21.9278 107.164 21.8631 107.231C21.7985 107.297 21.7186 107.349 21.6234 107.386C21.5283 107.423 21.4214 107.441 21.3027 107.441ZM23.8188 105.651L23.1704 107.404H22.8965L22.2481 105.651H22.5403L23.0243 107.048H23.0426L23.5266 105.651H23.8188ZM24.1744 107.404V105.651H24.4438V107.404H24.1744ZM24.3114 105.359C24.2589 105.359 24.2136 105.341 24.1755 105.305C24.1382 105.269 24.1196 105.226 24.1196 105.176C24.1196 105.126 24.1382 105.083 24.1755 105.047C24.2136 105.011 24.2589 104.993 24.3114 104.993C24.3639 104.993 24.4088 105.011 24.4461 105.047C24.4841 105.083 24.5031 105.126 24.5031 105.176C24.5031 105.226 24.4841 105.269 24.4461 105.305C24.4088 105.341 24.3639 105.359 24.3114 105.359ZM25.6723 107.441C25.5034 107.441 25.3576 107.404 25.2351 107.329C25.1134 107.254 25.0194 107.149 24.9532 107.014C24.8877 106.878 24.855 106.721 24.855 106.541C24.855 106.362 24.8877 106.203 24.9532 106.066C25.0194 105.929 25.1115 105.821 25.2294 105.745C25.3481 105.667 25.4866 105.628 25.6449 105.628C25.7362 105.628 25.8264 105.643 25.9155 105.674C26.0045 105.704 26.0855 105.754 26.1586 105.822C26.2316 105.89 26.2899 105.98 26.3332 106.092C26.3766 106.203 26.3983 106.341 26.3983 106.505V106.619H25.0468V106.386H26.1243C26.1243 106.287 26.1046 106.199 26.065 106.121C26.0262 106.044 25.9706 105.982 25.8983 105.937C25.8268 105.893 25.7423 105.87 25.6449 105.87C25.5376 105.87 25.4448 105.897 25.3664 105.95C25.2888 106.003 25.229 106.071 25.1872 106.156C25.1453 106.24 25.1244 106.331 25.1244 106.427V106.582C25.1244 106.715 25.1472 106.827 25.1929 106.919C25.2393 107.01 25.3036 107.08 25.3858 107.128C25.468 107.175 25.5635 107.199 25.6723 107.199C25.7431 107.199 25.807 107.189 25.8641 107.169C25.9219 107.149 25.9718 107.118 26.0136 107.078C26.0555 107.037 26.0878 106.986 26.1106 106.925L26.3709 106.998C26.3435 107.086 26.2975 107.164 26.2328 107.231C26.1681 107.297 26.0882 107.349 25.9931 107.386C25.8979 107.423 25.791 107.441 25.6723 107.441ZM27.2053 107.404L26.6711 105.651H26.9542L27.3332 106.993H27.3515L27.7259 105.651H28.0135L28.3834 106.989H28.4016L28.7806 105.651H29.0637L28.5295 107.404H28.2646L27.8811 106.057H27.8537L27.4702 107.404H27.2053ZM30.6618 106.044L30.4198 106.112C30.4046 106.072 30.3821 106.033 30.3524 105.995C30.3235 105.956 30.284 105.924 30.2337 105.899C30.1835 105.874 30.1192 105.861 30.0408 105.861C29.9335 105.861 29.8441 105.886 29.7726 105.935C29.7018 105.984 29.6664 106.046 29.6664 106.121C29.6664 106.188 29.6908 106.241 29.7395 106.28C29.7882 106.319 29.8643 106.351 29.9678 106.377L30.228 106.441C30.3848 106.479 30.5016 106.537 30.5785 106.616C30.6553 106.693 30.6937 106.793 30.6937 106.916C30.6937 107.016 30.6648 107.106 30.607 107.185C30.5499 107.264 30.47 107.327 30.3673 107.372C30.2645 107.418 30.1451 107.441 30.0089 107.441C29.83 107.441 29.682 107.402 29.5648 107.324C29.4476 107.247 29.3734 107.133 29.3422 106.984L29.5979 106.92C29.6223 107.015 29.6683 107.085 29.736 107.133C29.8045 107.18 29.8939 107.203 30.0043 107.203C30.1298 107.203 30.2295 107.177 30.3034 107.123C30.3779 107.069 30.4152 107.005 30.4152 106.929C30.4152 106.869 30.3939 106.818 30.3513 106.776C30.3087 106.735 30.2432 106.703 30.155 106.683L29.8627 106.614C29.7022 106.576 29.5842 106.517 29.5089 106.437C29.4343 106.357 29.397 106.256 29.397 106.135C29.397 106.036 29.4248 105.949 29.4803 105.872C29.5367 105.796 29.6131 105.737 29.7098 105.693C29.8072 105.65 29.9175 105.628 30.0408 105.628C30.2143 105.628 30.3505 105.666 30.4495 105.742C30.5492 105.818 30.6199 105.919 30.6618 106.044Z"
        fill="#5E5E5E" />
    <path
        d="M14.8314 120.114V119.715L16.5926 116.928H16.8822V117.547H16.6865L15.3559 119.652V119.684H17.7276V120.114H14.8314ZM16.7178 120.936V119.993V119.807V116.928H17.1796V120.936H16.7178ZM19.7133 120.991C19.4837 120.991 19.2769 120.945 19.0929 120.854C18.909 120.763 18.7616 120.637 18.6507 120.478C18.5398 120.319 18.4791 120.138 18.4687 119.934H18.9384C18.9566 120.115 19.0388 120.265 19.1849 120.384C19.3323 120.502 19.5084 120.56 19.7133 120.56C19.8776 120.56 20.0238 120.522 20.1516 120.445C20.2808 120.368 20.3819 120.262 20.4549 120.128C20.5293 119.992 20.5665 119.839 20.5665 119.668C20.5665 119.493 20.528 119.337 20.451 119.2C20.3753 119.062 20.271 118.953 20.1379 118.874C20.0048 118.794 19.8529 118.753 19.682 118.752C19.5593 118.751 19.4334 118.77 19.3043 118.809C19.1751 118.847 19.0688 118.896 18.9853 118.956L18.5313 118.901L18.774 116.928H20.8561V117.359H19.181L19.0401 118.541H19.0636C19.1458 118.476 19.2488 118.421 19.3728 118.378C19.4967 118.335 19.6259 118.314 19.7602 118.314C20.0055 118.314 20.224 118.373 20.4158 118.49C20.6088 118.606 20.7602 118.765 20.8698 118.967C20.9806 119.17 21.0361 119.401 21.0361 119.66C21.0361 119.916 20.9787 120.144 20.8639 120.345C20.7504 120.545 20.5938 120.703 20.3942 120.819C20.1946 120.933 19.9677 120.991 19.7133 120.991ZM22.3594 120.388L22.3281 120.599C22.3059 120.748 22.272 120.907 22.2263 121.077C22.182 121.247 22.1357 121.406 22.0874 121.556C22.0391 121.706 21.9994 121.826 21.968 121.914H21.6158C21.6328 121.831 21.6549 121.721 21.6823 121.584C21.7097 121.447 21.7371 121.293 21.7645 121.124C21.7932 120.956 21.8167 120.783 21.835 120.607L21.8585 120.388H22.3594ZM24.4107 120.991C24.1524 120.991 23.9221 120.946 23.7199 120.858C23.519 120.769 23.3592 120.646 23.2405 120.488C23.1231 120.329 23.0591 120.144 23.0487 119.934H23.5418C23.5523 120.063 23.5966 120.175 23.6749 120.269C23.7532 120.361 23.8556 120.433 23.9821 120.484C24.1087 120.535 24.2489 120.56 24.4028 120.56C24.5751 120.56 24.7277 120.53 24.8608 120.47C24.9938 120.41 25.0982 120.327 25.1738 120.22C25.2495 120.113 25.2873 119.989 25.2873 119.848C25.2873 119.701 25.2508 119.571 25.1778 119.459C25.1047 119.345 24.9977 119.256 24.8568 119.192C24.7159 119.129 24.5437 119.097 24.3402 119.097H24.0193V118.666H24.3402C24.4994 118.666 24.639 118.637 24.759 118.58C24.8803 118.523 24.9749 118.442 25.0427 118.337C25.1119 118.233 25.1465 118.11 25.1465 117.969C25.1465 117.834 25.1164 117.716 25.0564 117.615C24.9964 117.515 24.9116 117.437 24.802 117.38C24.6938 117.324 24.5659 117.296 24.4185 117.296C24.2802 117.296 24.1498 117.322 24.0271 117.373C23.9058 117.422 23.8067 117.495 23.7297 117.59C23.6527 117.684 23.611 117.797 23.6045 117.93H23.1348C23.1426 117.72 23.2059 117.536 23.3246 117.378C23.4433 117.219 23.5986 117.095 23.7904 117.007C23.9834 116.918 24.1954 116.874 24.4263 116.874C24.6742 116.874 24.8868 116.924 25.0643 117.024C25.2417 117.123 25.378 117.255 25.4732 117.418C25.5685 117.581 25.6161 117.757 25.6161 117.946C25.6161 118.172 25.5567 118.364 25.438 118.523C25.3206 118.682 25.1608 118.793 24.9586 118.854V118.885C25.2117 118.927 25.4093 119.035 25.5515 119.208C25.6937 119.38 25.7648 119.594 25.7648 119.848C25.7648 120.066 25.7055 120.262 25.5867 120.435C25.4693 120.607 25.3089 120.743 25.1054 120.842C24.9018 120.941 24.6703 120.991 24.4107 120.991ZM26.5652 120.936V120.584L27.888 119.136C28.0432 118.966 28.1711 118.819 28.2715 118.693C28.372 118.567 28.4463 118.448 28.4946 118.337C28.5442 118.225 28.569 118.108 28.569 117.985C28.569 117.844 28.5351 117.722 28.4672 117.619C28.4007 117.516 28.3094 117.437 28.1933 117.38C28.0772 117.324 27.9467 117.296 27.8019 117.296C27.648 117.296 27.5136 117.328 27.3988 117.392C27.2853 117.455 27.1972 117.543 27.1346 117.656C27.0733 117.77 27.0426 117.903 27.0426 118.056H26.5808C26.5808 117.821 26.635 117.615 26.7432 117.437C26.8515 117.26 26.9989 117.121 27.1855 117.022C27.3733 116.923 27.584 116.874 27.8175 116.874C28.0524 116.874 28.2604 116.923 28.4418 117.022C28.6231 117.121 28.7653 117.255 28.8684 117.423C28.9714 117.592 29.023 117.779 29.023 117.985C29.023 118.133 28.9962 118.277 28.9427 118.418C28.8906 118.557 28.7992 118.713 28.6688 118.885C28.5396 119.056 28.3602 119.265 28.1306 119.511L27.2305 120.474V120.506H29.0934V120.936H26.5652ZM31.1775 116.874C31.3418 116.875 31.5062 116.906 31.6706 116.968C31.835 117.029 31.985 117.131 32.1207 117.273C32.2563 117.414 32.3653 117.606 32.4474 117.85C32.5296 118.094 32.5707 118.4 32.5707 118.768C32.5707 119.124 32.5368 119.44 32.469 119.717C32.4024 119.992 32.3059 120.224 32.1794 120.414C32.0541 120.603 31.9015 120.746 31.7215 120.844C31.5427 120.942 31.3405 120.991 31.1148 120.991C30.8904 120.991 30.6902 120.946 30.5141 120.858C30.3393 120.768 30.1958 120.643 30.0836 120.484C29.9727 120.324 29.9016 120.138 29.8703 119.926H30.3478C30.3908 120.11 30.4763 120.262 30.6041 120.382C30.7332 120.501 30.9035 120.56 31.1148 120.56C31.424 120.56 31.668 120.425 31.8467 120.155C32.0267 119.885 32.1167 119.504 32.1167 119.01H32.0854C32.0124 119.12 31.9256 119.215 31.8252 119.294C31.7247 119.374 31.6132 119.435 31.4905 119.478C31.3679 119.521 31.2375 119.543 31.0992 119.543C30.8696 119.543 30.6589 119.486 30.4671 119.373C30.2767 119.258 30.124 119.101 30.0092 118.901C29.8957 118.7 29.839 118.47 29.839 118.212C29.839 117.967 29.8938 117.742 30.0033 117.539C30.1142 117.334 30.2695 117.171 30.4691 117.05C30.67 116.928 30.9061 116.87 31.1775 116.874ZM31.1775 117.304C31.0131 117.304 30.865 117.345 30.7332 117.427C30.6028 117.508 30.4991 117.618 30.4221 117.756C30.3464 117.893 30.3086 118.045 30.3086 118.212C30.3086 118.379 30.3451 118.531 30.4182 118.668C30.4926 118.804 30.5937 118.912 30.7215 118.993C30.8507 119.072 30.9974 119.112 31.1618 119.112C31.2857 119.112 31.4012 119.088 31.5082 119.04C31.6151 118.99 31.7084 118.923 31.788 118.838C31.8689 118.752 31.9321 118.655 31.9778 118.547C32.0235 118.437 32.0463 118.323 32.0463 118.204C32.0463 118.048 32.0085 117.901 31.9328 117.764C31.8584 117.627 31.7554 117.516 31.6236 117.431C31.4932 117.347 31.3444 117.304 31.1775 117.304Z"
        fill="#121212" />
    <g clip-path="url(#clip2_2889_5974)">
        <rect x="63.6868" y="115.977" width="15.7249" height="5.91841" rx="1.37762" fill="#E6F6D1" />
        <g clip-path="url(#clip3_2889_5974)">
            <path
                d="M65.4949 120.084L66.7864 118.792L67.6104 119.616C67.8407 119.163 68.2222 118.783 68.7228 118.56L69.2471 118.327M69.2471 118.327L68.1104 117.891M69.2471 118.327L68.8108 119.464"
                stroke="#629C28" stroke-width="0.287004" stroke-linecap="round" stroke-linejoin="round" />
        </g>
        <path
            d="M71.2762 119.436V119.231L72.0478 118.386C72.1384 118.287 72.213 118.201 72.2716 118.128C72.3302 118.054 72.3735 117.985 72.4017 117.92C72.4306 117.855 72.4451 117.786 72.4451 117.715C72.4451 117.632 72.4253 117.561 72.3857 117.501C72.3469 117.441 72.2936 117.395 72.2259 117.362C72.1582 117.329 72.0821 117.313 71.9976 117.313C71.9078 117.313 71.8294 117.332 71.7625 117.369C71.6962 117.405 71.6449 117.457 71.6084 117.523C71.5726 117.589 71.5547 117.667 71.5547 117.756H71.2853C71.2853 117.619 71.3169 117.499 71.3801 117.395C71.4432 117.292 71.5292 117.211 71.638 117.153C71.7476 117.095 71.8705 117.066 72.0067 117.066C72.1437 117.066 72.2651 117.095 72.3709 117.153C72.4766 117.211 72.5596 117.289 72.6197 117.387C72.6798 117.485 72.7099 117.594 72.7099 117.715C72.7099 117.801 72.6943 117.885 72.6631 117.967C72.6327 118.048 72.5794 118.139 72.5033 118.24C72.4279 118.339 72.3233 118.461 72.1894 118.605L71.6643 119.167V119.185H72.751V119.436H71.2762ZM74.0443 117.098V119.436H73.7612V117.395H73.7475L73.1768 117.774V117.486L73.7612 117.098H74.0443ZM75.9084 118.998V118.874C75.9084 118.789 75.9259 118.711 75.9609 118.64C75.9966 118.569 76.0484 118.512 76.1161 118.469C76.1846 118.426 76.2675 118.404 76.365 118.404C76.4639 118.404 76.5468 118.426 76.6138 118.469C76.6808 118.512 76.7314 118.569 76.7656 118.64C76.7999 118.711 76.817 118.789 76.817 118.874V118.998C76.817 119.083 76.7995 119.161 76.7645 119.233C76.7302 119.304 76.6792 119.361 76.6115 119.404C76.5446 119.447 76.4624 119.468 76.365 119.468C76.266 119.468 76.1827 119.447 76.115 119.404C76.0472 119.361 75.9959 119.304 75.9609 119.233C75.9259 119.161 75.9084 119.083 75.9084 118.998ZM76.1412 118.874V118.998C76.1412 119.068 76.158 119.132 76.1915 119.188C76.2249 119.244 76.2828 119.272 76.365 119.272C76.4449 119.272 76.5012 119.244 76.5339 119.188C76.5674 119.132 76.5841 119.068 76.5841 118.998V118.874C76.5841 118.804 76.5681 118.74 76.5362 118.685C76.5042 118.629 76.4471 118.6 76.365 118.6C76.2851 118.6 76.2276 118.629 76.1926 118.685C76.1583 118.74 76.1412 118.804 76.1412 118.874ZM74.744 117.66V117.537C74.744 117.451 74.7615 117.373 74.7965 117.303C74.8323 117.231 74.8841 117.174 74.9518 117.131C75.0203 117.088 75.1032 117.066 75.2006 117.066C75.2996 117.066 75.3825 117.088 75.4495 117.131C75.5164 117.174 75.5671 117.231 75.6013 117.303C75.6355 117.373 75.6527 117.451 75.6527 117.537V117.66C75.6527 117.745 75.6352 117.823 75.6002 117.895C75.5659 117.966 75.5149 118.023 75.4472 118.066C75.3802 118.109 75.298 118.13 75.2006 118.13C75.1017 118.13 75.0184 118.109 74.9506 118.066C74.8829 118.023 74.8316 117.966 74.7965 117.895C74.7615 117.823 74.744 117.745 74.744 117.66ZM74.9769 117.537V117.66C74.9769 117.731 74.9936 117.794 75.0271 117.85C75.0606 117.906 75.1184 117.934 75.2006 117.934C75.2805 117.934 75.3369 117.906 75.3696 117.85C75.4031 117.794 75.4198 117.731 75.4198 117.66V117.537C75.4198 117.466 75.4038 117.403 75.3719 117.347C75.3399 117.291 75.2828 117.263 75.2006 117.263C75.1207 117.263 75.0633 117.291 75.0283 117.347C74.994 117.403 74.9769 117.466 74.9769 117.537ZM74.8308 119.436L76.438 117.098H76.6983L75.091 119.436H74.8308Z"
            fill="#629C28" />
    </g>
    <defs>
        <filter id="filter0_dddd_2889_5974" x="8.31119" y="68" width="77.2997" height="28.6254"
            filterUnits="userSpaceOnUse" color-interpolation-filters="sRGB">
            <feFlood flood-opacity="0" result="BackgroundImageFix" />
            <feColorMatrix in="SourceAlpha" type="matrix" values="0 0 0 0 0 0 0 0 0 0 0 0 0 0 0 0 0 0 127 0"
                result="hardAlpha" />
            <feMorphology radius="0.68881" operator="erode" in="SourceAlpha" result="effect1_dropShadow_2889_5974" />
            <feOffset dy="0.68881" />
            <feGaussianBlur stdDeviation="0.68881" />
            <feComposite in2="hardAlpha" operator="out" />
            <feColorMatrix type="matrix" values="0 0 0 0 0 0 0 0 0 0 0 0 0 0 0 0 0 0 0.05 0" />
            <feBlend mode="normal" in2="BackgroundImageFix" result="effect1_dropShadow_2889_5974" />
            <feColorMatrix in="SourceAlpha" type="matrix" values="0 0 0 0 0 0 0 0 0 0 0 0 0 0 0 0 0 0 127 0"
                result="hardAlpha" />
            <feMorphology radius="0.459207" operator="erode" in="SourceAlpha" result="effect2_dropShadow_2889_5974" />
            <feOffset dy="0.459207" />
            <feGaussianBlur stdDeviation="0.459207" />
            <feComposite in2="hardAlpha" operator="out" />
            <feColorMatrix type="matrix" values="0 0 0 0 0 0 0 0 0 0 0 0 0 0 0 0 0 0 0.05 0" />
            <feBlend mode="normal" in2="effect1_dropShadow_2889_5974" result="effect2_dropShadow_2889_5974" />
            <feColorMatrix in="SourceAlpha" type="matrix" values="0 0 0 0 0 0 0 0 0 0 0 0 0 0 0 0 0 0 127 0"
                result="hardAlpha" />
            <feMorphology radius="0.229603" operator="erode" in="SourceAlpha" result="effect3_dropShadow_2889_5974" />
            <feOffset dy="0.229603" />
            <feGaussianBlur stdDeviation="0.229603" />
            <feComposite in2="hardAlpha" operator="out" />
            <feColorMatrix type="matrix" values="0 0 0 0 0 0 0 0 0 0 0 0 0 0 0 0 0 0 0.05 0" />
            <feBlend mode="normal" in2="effect2_dropShadow_2889_5974" result="effect3_dropShadow_2889_5974" />
            <feColorMatrix in="SourceAlpha" type="matrix" values="0 0 0 0 0 0 0 0 0 0 0 0 0 0 0 0 0 0 127 0"
                result="hardAlpha" />
            <feMorphology radius="0.229603" operator="erode" in="SourceAlpha" result="effect4_dropShadow_2889_5974" />
            <feOffset dy="0.229603" />
            <feComposite in2="hardAlpha" operator="out" />
            <feColorMatrix type="matrix" values="0 0 0 0 0 0 0 0 0 0 0 0 0 0 0 0 0 0 0.05 0" />
            <feBlend mode="normal" in2="effect3_dropShadow_2889_5974" result="effect4_dropShadow_2889_5974" />
            <feBlend mode="normal" in="SourceGraphic" in2="effect4_dropShadow_2889_5974" result="shape" />
        </filter>
        <clipPath id="clip0_2889_5974">
            <rect x="63.6868" y="84.1648" width="15.7249" height="5.91841" rx="1.37762" fill="white" />
        </clipPath>
        <clipPath id="clip1_2889_5974">
            <rect width="4.59207" height="4.59207" fill="white" transform="translate(65.0645 84.8279)" />
        </clipPath>
        <clipPath id="clip2_2889_5974">
            <rect x="63.6868" y="115.977" width="15.7249" height="5.91841" rx="1.37762" fill="white" />
        </clipPath>
        <clipPath id="clip3_2889_5974">
            <rect width="4.59207" height="4.59207" fill="white" transform="translate(65.0645 116.64)" />
        </clipPath>
    </defs>
</svg>