<svg width="398" height="210" viewBox="0 0 398 210" fill="none" xmlns="http://www.w3.org/2000/svg">
    <rect width="398" height="210" rx="8" fill="#F8F7F7" />
    <g filter="url(#filter0_dd_2788_6830)">
        <rect x="113.42" y="15.979" width="171.16" height="178.042" rx="6.11287" fill="white" />
        <rect x="113.611" y="16.17" width="170.778" height="177.66" rx="5.92184" stroke="#ECECEC"
            stroke-width="0.382054" />
        <circle cx="131.758" cy="35.8456" r="4.39362" fill="white" stroke="#FFDD04" stroke-width="0.382054" />
        <path d="M131.613 34.6287H130.8V34.158H132.116V38.0251H131.613V34.6287Z" fill="#121212" />
        <path
            d="M141.374 37.8457H139.913V33.4261H141.35C142.67 33.4261 143.563 34.3186 143.563 35.639C143.563 36.9532 142.682 37.8457 141.374 37.8457ZM141.307 33.9763H140.512V37.2894H141.331C142.315 37.2894 142.939 36.6537 142.939 35.639C142.939 34.612 142.315 33.9763 141.307 33.9763ZM145.517 37.9191C144.636 37.9191 144.031 37.2833 144.031 36.3542C144.031 35.4189 144.624 34.7709 145.492 34.7709C146.342 34.7709 146.898 35.3578 146.898 36.2441V36.4581L144.588 36.4642C144.63 37.0938 144.96 37.4423 145.529 37.4423C145.975 37.4423 146.269 37.2589 146.366 36.9165H146.904C146.758 37.5584 146.256 37.9191 145.517 37.9191ZM145.492 35.2538C144.991 35.2538 144.673 35.5534 144.6 36.0791H146.324C146.324 35.5839 146 35.2538 145.492 35.2538ZM148.384 37.9191C147.742 37.9191 147.363 37.5584 147.363 37.0144C147.363 36.4642 147.773 36.1219 148.476 36.0669L149.417 35.9935V35.9079C149.417 35.4067 149.118 35.2294 148.714 35.2294C148.231 35.2294 147.956 35.4433 147.956 35.804H147.455C147.455 35.1805 147.969 34.7709 148.739 34.7709C149.478 34.7709 149.98 35.1622 149.98 35.9691V37.8457H149.491L149.43 37.3628C149.277 37.7051 148.867 37.9191 148.384 37.9191ZM148.549 37.4728C149.093 37.4728 149.423 37.1183 149.423 36.5559V36.397L148.659 36.4581C148.152 36.507 147.944 36.7026 147.944 36.996C147.944 37.3139 148.176 37.4728 148.549 37.4728ZM151.362 37.8457H150.788V33.3466H151.362V37.8457Z"
            fill="#121212" />
        <line x1="160.041" y1="35.6547" x2="228.96" y2="35.6547" stroke="#CECECE" stroke-width="0.382054" />
        <circle cx="241.185" cy="35.8456" r="4.39362" fill="white" stroke="#ECECEC" stroke-width="0.382054" />
        <path
            d="M242.423 38.0251H239.898V37.7203L241.123 36.6505C241.829 36.0354 242.011 35.768 242.011 35.3133C242.011 34.7945 241.7 34.4789 241.192 34.4789C240.663 34.4789 240.315 34.864 240.299 35.4577H239.914C239.935 34.6554 240.443 34.1259 241.198 34.1259C241.92 34.1259 242.401 34.5912 242.401 35.2919C242.401 35.8482 242.15 36.2173 241.385 36.8859L240.492 37.6668H242.423V38.0251Z"
            fill="black" />
        <path
            d="M251.143 37.9129C249.921 37.9129 249.089 37.0021 249.089 35.6573C249.089 34.3125 249.933 33.3955 251.168 33.3955C252.109 33.3955 252.849 33.964 253.026 34.8321H252.555C252.372 34.2024 251.834 33.8173 251.149 33.8173C250.19 33.8173 249.548 34.5509 249.548 35.6573C249.548 36.7576 250.19 37.4912 251.149 37.4912C251.84 37.4912 252.39 37.1183 252.58 36.5314H253.05C252.849 37.3567 252.085 37.9129 251.143 37.9129ZM253.512 36.3664C253.512 35.4617 254.148 34.8076 255.016 34.8076C255.884 34.8076 256.52 35.4617 256.52 36.3664C256.52 37.265 255.884 37.9191 255.016 37.9191C254.148 37.9191 253.512 37.265 253.512 36.3664ZM253.94 36.3603C253.94 37.0571 254.38 37.5401 255.016 37.5401C255.645 37.5401 256.092 37.0571 256.092 36.3603C256.092 35.6756 255.645 35.1866 255.016 35.1866C254.38 35.1866 253.94 35.6756 253.94 36.3603ZM257.616 37.8457H257.194V34.8871H257.561L257.622 35.4006C257.818 35.0216 258.209 34.8076 258.637 34.8076C259.45 34.8076 259.786 35.2905 259.786 36.0363V37.8457H259.364V36.128C259.364 35.4372 259.052 35.1927 258.563 35.1927C257.958 35.1927 257.616 35.6328 257.616 36.2991V37.8457ZM261.305 37.8457H260.89V35.2416H260.297V34.8871H260.89V33.9518H261.305V34.8871H261.898V35.2416H261.305V37.8457ZM263.658 37.9191C262.79 37.9191 262.21 37.2955 262.21 36.3664C262.21 35.4433 262.784 34.8076 263.628 34.8076C264.429 34.8076 264.973 35.3761 264.973 36.2136V36.4214H262.619C262.65 37.1427 263.029 37.5584 263.665 37.5584C264.148 37.5584 264.459 37.3506 264.569 36.9593H264.973C264.814 37.5828 264.355 37.9191 263.658 37.9191ZM263.628 35.1683C263.072 35.1683 262.705 35.535 262.632 36.1158H264.551C264.551 35.5473 264.184 35.1683 263.628 35.1683ZM266.069 37.8457H265.647V34.8871H266.014L266.075 35.4006C266.271 35.0216 266.662 34.8076 267.09 34.8076C267.903 34.8076 268.239 35.2905 268.239 36.0363V37.8457H267.817V36.128C267.817 35.4372 267.505 35.1927 267.016 35.1927C266.411 35.1927 266.069 35.6328 266.069 36.2991V37.8457ZM269.758 37.8457H269.342V35.2416H268.75V34.8871H269.342V33.9518H269.758V34.8871H270.351V35.2416H269.758V37.8457Z"
            fill="#121212" />
        <g clip-path="url(#clip0_2788_6830)">
            <path
                d="M124.973 59.7294C123.671 59.7294 122.828 58.8247 122.828 57.4248C122.828 56.0372 123.702 55.1141 125.01 55.1141C126.068 55.1141 126.856 55.7315 127.009 56.6913H126.184C126.031 56.1717 125.585 55.866 124.992 55.866C124.166 55.866 123.647 56.4651 123.647 57.4187C123.647 58.3662 124.173 58.9775 124.992 58.9775C125.597 58.9775 126.061 58.6596 126.208 58.1645H127.021C126.85 59.1058 126.031 59.7294 124.973 59.7294ZM129.508 56.624V57.3148H129.233C128.695 57.3148 128.359 57.6021 128.359 58.1889V59.656H127.613V56.6424H128.316L128.359 57.0825C128.487 56.783 128.774 56.5812 129.178 56.5812C129.282 56.5812 129.386 56.5935 129.508 56.624ZM131.262 59.7355C130.363 59.7355 129.734 59.0814 129.734 58.1461C129.734 57.1986 130.351 56.5446 131.238 56.5446C132.142 56.5446 132.717 57.1497 132.717 58.0911V58.3173L130.443 58.3234C130.498 58.8552 130.779 59.1242 131.274 59.1242C131.684 59.1242 131.953 58.9653 132.038 58.6779H132.729C132.601 59.3381 132.051 59.7355 131.262 59.7355ZM131.244 57.1558C130.804 57.1558 130.535 57.3942 130.461 57.8466H131.977C131.977 57.4309 131.69 57.1558 131.244 57.1558ZM134.183 59.7355C133.541 59.7355 133.149 59.3626 133.149 58.7941C133.149 58.2378 133.553 57.8894 134.268 57.8344L135.173 57.7671V57.6999C135.173 57.2903 134.928 57.1253 134.549 57.1253C134.109 57.1253 133.865 57.3087 133.865 57.6265H133.229C133.229 56.9725 133.767 56.5446 134.586 56.5446C135.399 56.5446 135.9 56.9847 135.9 57.8221V59.656H135.246L135.191 59.2098C135.063 59.5215 134.653 59.7355 134.183 59.7355ZM134.427 59.1731C134.886 59.1731 135.179 58.898 135.179 58.4334V58.2745L134.549 58.3234C134.085 58.3662 133.907 58.519 133.907 58.7635C133.907 59.0386 134.091 59.1731 134.427 59.1731ZM137.618 59.656H136.872V57.2598H136.292V56.6362H136.872V55.6949H137.618V56.6362H138.205V57.2598H137.618V59.656ZM139.99 59.7355C139.091 59.7355 138.461 59.0814 138.461 58.1461C138.461 57.1986 139.079 56.5446 139.965 56.5446C140.87 56.5446 141.444 57.1497 141.444 58.0911V58.3173L139.171 58.3234C139.226 58.8552 139.507 59.1242 140.002 59.1242C140.411 59.1242 140.68 58.9653 140.766 58.6779H141.457C141.328 59.3381 140.778 59.7355 139.99 59.7355ZM139.971 57.1558C139.531 57.1558 139.262 57.3942 139.189 57.8466H140.705C140.705 57.4309 140.418 57.1558 139.971 57.1558ZM145.407 59.656H143.799V55.1875H145.364C146.684 55.1875 147.595 56.0983 147.595 57.4309C147.595 58.7452 146.703 59.656 145.407 59.656ZM145.291 55.9088H144.581V58.9347H145.333C146.226 58.9347 146.77 58.3601 146.77 57.4309C146.77 56.4834 146.214 55.9088 145.291 55.9088ZM149.565 59.7355C148.666 59.7355 148.037 59.0814 148.037 58.1461C148.037 57.1986 148.654 56.5446 149.54 56.5446C150.445 56.5446 151.02 57.1497 151.02 58.0911V58.3173L148.746 58.3234C148.801 58.8552 149.082 59.1242 149.577 59.1242C149.987 59.1242 150.256 58.9653 150.341 58.6779H151.032C150.904 59.3381 150.353 59.7355 149.565 59.7355ZM149.547 57.1558C149.106 57.1558 148.837 57.3942 148.764 57.8466H150.28C150.28 57.4309 149.993 57.1558 149.547 57.1558ZM152.485 59.7355C151.843 59.7355 151.452 59.3626 151.452 58.7941C151.452 58.2378 151.856 57.8894 152.571 57.8344L153.476 57.7671V57.6999C153.476 57.2903 153.231 57.1253 152.852 57.1253C152.412 57.1253 152.167 57.3087 152.167 57.6265H151.532C151.532 56.9725 152.07 56.5446 152.889 56.5446C153.702 56.5446 154.203 56.9847 154.203 57.8221V59.656H153.549L153.494 59.2098C153.366 59.5215 152.956 59.7355 152.485 59.7355ZM152.73 59.1731C153.188 59.1731 153.482 58.898 153.482 58.4334V58.2745L152.852 58.3234C152.388 58.3662 152.21 58.519 152.21 58.7635C152.21 59.0386 152.394 59.1731 152.73 59.1731ZM155.688 59.656H154.948V55.108H155.688V59.656Z"
                fill="#121212" />
            <path
                d="M124.515 68.7776H123.44V70.1843H123.055V66.3546H124.515C125.253 66.3546 125.718 66.836 125.718 67.5581C125.718 68.2534 125.248 68.7776 124.515 68.7776ZM124.461 66.7023H123.44V68.4299H124.44C124.996 68.4299 125.317 68.0769 125.317 67.5527C125.317 67.0232 124.991 66.7023 124.461 66.7023ZM128.079 67.5955H128.448V70.1843H128.127L128.079 69.7457C127.934 70.0453 127.576 70.2485 127.169 70.2485C126.56 70.2485 126.228 69.8313 126.228 69.2002V67.5902H126.602V69.0825C126.602 69.6976 126.875 69.9169 127.287 69.9169C127.784 69.9169 128.079 69.5853 128.079 68.9702V67.5955ZM129.537 70.1843H129.216V66.2851H129.585V68.0983C129.767 67.7185 130.12 67.526 130.559 67.526C131.313 67.526 131.752 68.1144 131.752 68.8953C131.752 69.6708 131.302 70.2485 130.548 70.2485C130.115 70.2485 129.757 70.056 129.575 69.6548L129.537 70.1843ZM129.591 68.8846C129.591 69.4836 129.922 69.9115 130.489 69.9115C131.051 69.9115 131.377 69.4836 131.377 68.8846C131.377 68.2909 131.051 67.8576 130.489 67.8576C129.922 67.8576 129.591 68.2909 129.591 68.8846ZM132.725 70.1843H132.356V66.2851H132.725V70.1843ZM133.692 66.8841C133.542 66.8841 133.419 66.7611 133.419 66.6114C133.419 66.4616 133.542 66.3332 133.692 66.3332C133.842 66.3332 133.97 66.4616 133.97 66.6114C133.97 66.7611 133.842 66.8841 133.692 66.8841ZM133.51 70.1843V67.5955H133.879V70.1843H133.51ZM134.429 69.4569H134.782C134.782 69.7564 135.007 69.9436 135.371 69.9436C135.772 69.9436 136.007 69.7725 136.007 69.4943C136.007 69.2804 135.9 69.1574 135.595 69.0825L135.152 68.9702C134.702 68.8578 134.483 68.6225 134.483 68.2695C134.483 67.8148 134.863 67.526 135.419 67.526C135.965 67.526 136.318 67.8255 136.334 68.3069H135.975C135.965 68.0074 135.756 67.8309 135.408 67.8309C135.045 67.8309 134.841 67.986 134.841 68.2641C134.841 68.462 134.98 68.6011 135.264 68.6706L135.708 68.783C136.157 68.8953 136.36 69.1039 136.36 69.4783C136.36 69.9436 135.965 70.2485 135.376 70.2485C134.793 70.2485 134.429 69.9383 134.429 69.4569ZM137.337 70.179H136.968V66.2851H137.337V68.0448C137.503 67.7346 137.818 67.526 138.252 67.526C138.931 67.526 139.236 67.9485 139.236 68.6011V70.1843H138.867V68.6813C138.867 68.0769 138.583 67.863 138.182 67.863C137.626 67.863 137.337 68.2748 137.337 68.7723V70.179ZM141.193 71.3129V71.008H141.476C141.701 71.008 141.926 70.992 142.054 70.6443L142.166 70.3394L141.118 67.5955H141.508L142.343 69.8527L143.161 67.5955H143.541L142.353 70.778C142.204 71.1845 141.952 71.3504 141.583 71.3504C141.428 71.3504 141.31 71.3397 141.193 71.3129ZM143.702 68.8899C143.702 68.0983 144.258 67.526 145.018 67.526C145.777 67.526 146.333 68.0983 146.333 68.8899C146.333 69.6762 145.777 70.2485 145.018 70.2485C144.258 70.2485 143.702 69.6762 143.702 68.8899ZM144.076 68.8846C144.076 69.4943 144.461 69.9169 145.018 69.9169C145.569 69.9169 145.959 69.4943 145.959 68.8846C145.959 68.2855 145.569 67.8576 145.018 67.8576C144.461 67.8576 144.076 68.2855 144.076 68.8846ZM148.68 67.5955H149.049V70.1843H148.728L148.68 69.7457C148.535 70.0453 148.177 70.2485 147.77 70.2485C147.161 70.2485 146.829 69.8313 146.829 69.2002V67.5902H147.203V69.0825C147.203 69.6976 147.476 69.9169 147.888 69.9169C148.385 69.9169 148.68 69.5853 148.68 68.9702V67.5955ZM151.171 67.5634V67.8951H150.967C150.491 67.8951 150.187 68.216 150.187 68.7081V70.1843H149.817V67.5955H150.165L150.192 67.9967C150.294 67.7185 150.566 67.5367 150.93 67.5367C151.01 67.5367 151.08 67.542 151.171 67.5634ZM153.145 71.3129V67.5955H153.466L153.503 68.1197C153.685 67.7185 154.049 67.526 154.482 67.526C155.231 67.526 155.68 68.0983 155.68 68.8792C155.68 69.6601 155.247 70.2485 154.482 70.2485C154.043 70.2485 153.696 70.0613 153.514 69.6869V71.3129H153.145ZM153.519 68.8899C153.519 69.4836 153.851 69.9169 154.418 69.9169C154.979 69.9169 155.306 69.4836 155.306 68.8899C155.306 68.2909 154.979 67.863 154.418 67.863C153.851 67.863 153.519 68.2909 153.519 68.8899ZM157.622 67.5634V67.8951H157.418C156.942 67.8951 156.637 68.216 156.637 68.7081V70.1843H156.268V67.5955H156.616L156.643 67.9967C156.744 67.7185 157.017 67.5367 157.381 67.5367C157.461 67.5367 157.531 67.542 157.622 67.5634ZM158.294 66.8841C158.144 66.8841 158.021 66.7611 158.021 66.6114C158.021 66.4616 158.144 66.3332 158.294 66.3332C158.444 66.3332 158.572 66.4616 158.572 66.6114C158.572 66.7611 158.444 66.8841 158.294 66.8841ZM158.112 70.1843V67.5955H158.481V70.1843H158.112ZM159.973 70.1843L158.914 67.5955H159.31L159.978 69.2643C160.048 69.4515 160.117 69.6281 160.166 69.7992C160.214 69.6227 160.283 69.4515 160.358 69.2643L161.037 67.5955H161.417L160.342 70.1843H159.973ZM162.481 70.2485C161.93 70.2485 161.604 69.9383 161.604 69.4836C161.604 69.0076 161.967 68.7081 162.572 68.6599L163.427 68.5904V68.5048C163.427 67.9967 163.123 67.8362 162.743 67.8362C162.294 67.8362 162.026 68.0395 162.026 68.3871H161.689C161.689 67.863 162.117 67.526 162.754 67.526C163.353 67.526 163.791 67.8255 163.791 68.5102V70.1843H163.481L163.433 69.7297C163.272 70.056 162.919 70.2485 162.481 70.2485ZM162.566 69.949C163.112 69.949 163.427 69.5692 163.427 69.0076V68.8685L162.663 68.9274C162.176 68.9702 161.978 69.1841 161.978 69.4729C161.978 69.7885 162.213 69.949 162.566 69.949ZM165.079 70.1843H164.715V67.9058H164.196V67.5955H164.715V66.7772H165.079V67.5955H165.597V67.9058H165.079V70.1843ZM167.138 70.2485C166.378 70.2485 165.87 69.7029 165.87 68.8899C165.87 68.0823 166.373 67.526 167.111 67.526C167.812 67.526 168.288 68.0234 168.288 68.7562V68.9381H166.228C166.255 69.5692 166.587 69.9329 167.143 69.9329C167.566 69.9329 167.838 69.7511 167.935 69.4088H168.288C168.149 69.9543 167.747 70.2485 167.138 70.2485ZM167.111 67.8416C166.624 67.8416 166.303 68.1625 166.239 68.6706H167.919C167.919 68.1732 167.598 67.8416 167.111 67.8416ZM170.179 68.8899C170.179 68.0983 170.736 67.526 171.495 67.526C172.255 67.526 172.811 68.0983 172.811 68.8899C172.811 69.6762 172.255 70.2485 171.495 70.2485C170.736 70.2485 170.179 69.6762 170.179 68.8899ZM170.554 68.8846C170.554 69.4943 170.939 69.9169 171.495 69.9169C172.046 69.9169 172.436 69.4943 172.436 68.8846C172.436 68.2855 172.046 67.8576 171.495 67.8576C170.939 67.8576 170.554 68.2855 170.554 68.8846ZM174.754 67.5634V67.8951H174.551C174.075 67.8951 173.77 68.216 173.77 68.7081V70.1843H173.401V67.5955H173.749L173.776 67.9967C173.877 67.7185 174.15 67.5367 174.514 67.5367C174.594 67.5367 174.663 67.542 174.754 67.5634ZM176.728 71.3129V67.5955H177.049L177.087 68.1197C177.269 67.7185 177.632 67.526 178.066 67.526C178.814 67.526 179.264 68.0983 179.264 68.8792C179.264 69.6601 178.83 70.2485 178.066 70.2485C177.627 70.2485 177.279 70.0613 177.098 69.6869V71.3129H176.728ZM177.103 68.8899C177.103 69.4836 177.434 69.9169 178.001 69.9169C178.563 69.9169 178.889 69.4836 178.889 68.8899C178.889 68.2909 178.563 67.863 178.001 67.863C177.434 67.863 177.103 68.2909 177.103 68.8899ZM181.608 67.5955H181.977V70.1843H181.656L181.608 69.7457C181.464 70.0453 181.105 70.2485 180.699 70.2485C180.089 70.2485 179.757 69.8313 179.757 69.2002V67.5902H180.132V69.0825C180.132 69.6976 180.404 69.9169 180.816 69.9169C181.314 69.9169 181.608 69.5853 181.608 68.9702V67.5955ZM183.067 70.1843H182.746V66.2851H183.115V68.0983C183.297 67.7185 183.65 67.526 184.088 67.526C184.843 67.526 185.281 68.1144 185.281 68.8953C185.281 69.6708 184.832 70.2485 184.078 70.2485C183.644 70.2485 183.286 70.056 183.104 69.6548L183.067 70.1843ZM183.12 68.8846C183.12 69.4836 183.452 69.9115 184.019 69.9115C184.58 69.9115 184.907 69.4836 184.907 68.8846C184.907 68.2909 184.58 67.8576 184.019 67.8576C183.452 67.8576 183.12 68.2909 183.12 68.8846ZM186.254 70.1843H185.885V66.2851H186.254V70.1843ZM187.221 66.8841C187.072 66.8841 186.948 66.7611 186.948 66.6114C186.948 66.4616 187.072 66.3332 187.221 66.3332C187.371 66.3332 187.499 66.4616 187.499 66.6114C187.499 66.7611 187.371 66.8841 187.221 66.8841ZM187.039 70.1843V67.5955H187.408V70.1843H187.039ZM187.996 68.8953C187.996 68.0823 188.494 67.526 189.248 67.526C189.847 67.526 190.286 67.8737 190.387 68.4085H190.018C189.922 68.0502 189.612 67.8523 189.253 67.8523C188.729 67.8523 188.36 68.2534 188.36 68.8899C188.36 69.505 188.702 69.9169 189.226 69.9169C189.612 69.9169 189.922 69.7029 190.023 69.3713H190.398C190.275 69.9008 189.815 70.2485 189.226 70.2485C188.494 70.2485 187.996 69.7083 187.996 68.8953ZM193.457 70.2485C192.703 70.2485 192.259 69.6708 192.259 68.8953C192.259 68.1144 192.703 67.526 193.473 67.526C193.901 67.526 194.243 67.7132 194.425 68.0876V66.2851H194.794V70.1843H194.473L194.436 69.6548C194.254 70.056 193.89 70.2485 193.457 70.2485ZM193.521 69.9115C194.088 69.9115 194.419 69.4836 194.419 68.8846C194.419 68.2909 194.088 67.8576 193.521 67.8576C192.959 67.8576 192.633 68.2909 192.633 68.8846C192.633 69.4836 192.959 69.9115 193.521 69.9115ZM196.65 70.2485C195.89 70.2485 195.382 69.7029 195.382 68.8899C195.382 68.0823 195.885 67.526 196.623 67.526C197.324 67.526 197.8 68.0234 197.8 68.7562V68.9381H195.741C195.767 69.5692 196.099 69.9329 196.655 69.9329C197.078 69.9329 197.35 69.7511 197.447 69.4088H197.8C197.661 69.9543 197.26 70.2485 196.65 70.2485ZM196.623 67.8416C196.136 67.8416 195.815 68.1625 195.751 68.6706H197.431C197.431 68.1732 197.11 67.8416 196.623 67.8416ZM199.107 70.2485C198.556 70.2485 198.23 69.9383 198.23 69.4836C198.23 69.0076 198.594 68.7081 199.198 68.6599L200.054 68.5904V68.5048C200.054 67.9967 199.749 67.8362 199.369 67.8362C198.92 67.8362 198.653 68.0395 198.653 68.3871H198.316C198.316 67.863 198.744 67.526 199.38 67.526C199.979 67.526 200.418 67.8255 200.418 68.5102V70.1843H200.107L200.059 69.7297C199.899 70.056 199.546 70.2485 199.107 70.2485ZM199.193 69.949C199.738 69.949 200.054 69.5692 200.054 69.0076V68.8685L199.289 68.9274C198.802 68.9702 198.604 69.1841 198.604 69.4729C198.604 69.7885 198.84 69.949 199.193 69.949ZM201.543 70.1843H201.174V66.2851H201.543V70.1843ZM202.644 70.2432C202.462 70.2432 202.307 70.0934 202.307 69.9169C202.307 69.735 202.462 69.5799 202.644 69.5799C202.826 69.5799 202.981 69.735 202.981 69.9169C202.981 70.0934 202.826 70.2432 202.644 70.2432Z"
                fill="#5E5E5E" />
        </g>
        <line x1="122.589" y1="81.1625" x2="275.411" y2="81.1625" stroke="#E6E6E6" stroke-width="0.382054" />
        <path
            d="M124.317 96.5227H123.039V92.6556H124.296C125.451 92.6556 126.232 93.4365 126.232 94.5918C126.232 95.7418 125.462 96.5227 124.317 96.5227ZM124.258 93.1369H123.563V96.036H124.28C125.141 96.036 125.686 95.4797 125.686 94.5918C125.686 93.6932 125.141 93.1369 124.258 93.1369ZM127.942 96.5869C127.172 96.5869 126.642 96.0306 126.642 95.2176C126.642 94.3992 127.161 93.8323 127.92 93.8323C128.664 93.8323 129.151 94.3458 129.151 95.1213V95.3085L127.129 95.3139C127.166 95.8648 127.455 96.1697 127.952 96.1697C128.343 96.1697 128.6 96.0092 128.685 95.7097H129.156C129.028 96.2713 128.589 96.5869 127.942 96.5869ZM127.92 94.2548C127.482 94.2548 127.204 94.5169 127.139 94.9769H128.648C128.648 94.5437 128.364 94.2548 127.92 94.2548ZM130.451 96.5869C129.889 96.5869 129.558 96.2713 129.558 95.7953C129.558 95.3139 129.916 95.0144 130.531 94.9662L131.355 94.902V94.8271C131.355 94.3886 131.093 94.2334 130.74 94.2334C130.317 94.2334 130.076 94.4206 130.076 94.7362H129.638C129.638 94.1906 130.087 93.8323 130.761 93.8323C131.408 93.8323 131.847 94.1746 131.847 94.8806V96.5227H131.419L131.366 96.1002C131.232 96.3997 130.873 96.5869 130.451 96.5869ZM130.595 96.1964C131.071 96.1964 131.36 95.8862 131.36 95.3941V95.255L130.692 95.3085C130.248 95.3513 130.066 95.5225 130.066 95.7792C130.066 96.0574 130.269 96.1964 130.595 96.1964ZM133.057 96.5227H132.554V92.586H133.057V96.5227ZM134.971 93.1369V92.6556H137.821V93.1369H136.661V96.5227H136.137V93.1369H134.971ZM137.803 97.6941V97.2822H138.139C138.38 97.2822 138.573 97.2448 138.696 96.9132L138.787 96.6618L137.733 93.9072H138.263L139.022 96.0146L139.798 93.9072H140.316L139.081 97.1111C138.904 97.5604 138.642 97.7476 138.241 97.7476C138.075 97.7476 137.936 97.7262 137.803 97.6941ZM140.718 97.6941V93.9072H141.172L141.21 94.3779C141.386 94.0195 141.739 93.8323 142.157 93.8323C142.905 93.8323 143.371 94.3939 143.371 95.1962C143.371 95.9932 142.932 96.5922 142.157 96.5922C141.739 96.5922 141.392 96.4157 141.221 96.0948V97.6941H140.718ZM141.226 95.2176C141.226 95.7525 141.536 96.1376 142.05 96.1376C142.563 96.1376 142.868 95.7525 142.868 95.2176C142.868 94.6774 142.563 94.2923 142.05 94.2923C141.536 94.2923 141.226 94.672 141.226 95.2176ZM145.054 96.5869C144.283 96.5869 143.754 96.0306 143.754 95.2176C143.754 94.3992 144.273 93.8323 145.032 93.8323C145.776 93.8323 146.262 94.3458 146.262 95.1213V95.3085L144.241 95.3139C144.278 95.8648 144.567 96.1697 145.064 96.1697C145.455 96.1697 145.711 96.0092 145.797 95.7097H146.268C146.139 96.2713 145.701 96.5869 145.054 96.5869ZM145.032 94.2548C144.594 94.2548 144.315 94.5169 144.251 94.9769H145.76C145.76 94.5437 145.476 94.2548 145.032 94.2548Z"
            fill="#121212" />
        <path
            d="M122.654 102.574V102.221H125.397V102.574H124.215V106.051H123.83V102.574H122.654ZM126.216 106.046H125.847V102.152H126.216V103.912C126.382 103.601 126.698 103.393 127.131 103.393C127.81 103.393 128.115 103.815 128.115 104.468V106.051H127.746V104.548C127.746 103.944 127.463 103.73 127.062 103.73C126.505 103.73 126.216 104.142 126.216 104.639V106.046ZM129.033 102.751C128.883 102.751 128.76 102.628 128.76 102.478C128.76 102.328 128.883 102.2 129.033 102.2C129.182 102.2 129.311 102.328 129.311 102.478C129.311 102.628 129.182 102.751 129.033 102.751ZM128.851 106.051V103.462H129.22V106.051H128.851ZM129.77 105.324H130.123C130.123 105.623 130.348 105.81 130.712 105.81C131.113 105.81 131.348 105.639 131.348 105.361C131.348 105.147 131.241 105.024 130.936 104.949L130.492 104.837C130.043 104.725 129.824 104.489 129.824 104.136C129.824 103.682 130.203 103.393 130.76 103.393C131.305 103.393 131.658 103.692 131.674 104.174H131.316C131.305 103.874 131.097 103.698 130.749 103.698C130.385 103.698 130.182 103.853 130.182 104.131C130.182 104.329 130.321 104.468 130.605 104.537L131.049 104.65C131.498 104.762 131.701 104.971 131.701 105.345C131.701 105.81 131.305 106.115 130.717 106.115C130.134 106.115 129.77 105.805 129.77 105.324ZM134.808 106.115C134.054 106.115 133.61 105.538 133.61 104.762C133.61 103.981 134.054 103.393 134.824 103.393C135.252 103.393 135.595 103.58 135.777 103.954V102.152H136.146V106.051H135.825L135.787 105.521C135.605 105.923 135.242 106.115 134.808 106.115ZM134.873 105.778C135.44 105.778 135.771 105.35 135.771 104.751C135.771 104.158 135.44 103.724 134.873 103.724C134.311 103.724 133.985 104.158 133.985 104.751C133.985 105.35 134.311 105.778 134.873 105.778ZM138.002 106.115C137.242 106.115 136.734 105.57 136.734 104.757C136.734 103.949 137.237 103.393 137.975 103.393C138.675 103.393 139.151 103.89 139.151 104.623V104.805H137.092C137.119 105.436 137.451 105.8 138.007 105.8C138.429 105.8 138.702 105.618 138.798 105.275H139.151C139.012 105.821 138.611 106.115 138.002 106.115ZM137.975 103.708C137.488 103.708 137.167 104.029 137.103 104.537H138.782C138.782 104.04 138.462 103.708 137.975 103.708ZM140.459 106.115C139.908 106.115 139.582 105.805 139.582 105.35C139.582 104.874 139.945 104.575 140.55 104.527L141.406 104.457V104.372C141.406 103.863 141.101 103.703 140.721 103.703C140.272 103.703 140.004 103.906 140.004 104.254H139.667C139.667 103.73 140.095 103.393 140.732 103.393C141.331 103.393 141.769 103.692 141.769 104.377V106.051H141.459L141.411 105.596C141.251 105.923 140.898 106.115 140.459 106.115ZM140.545 105.816C141.09 105.816 141.406 105.436 141.406 104.874V104.735L140.641 104.794C140.154 104.837 139.956 105.051 139.956 105.34C139.956 105.655 140.191 105.816 140.545 105.816ZM142.895 106.051H142.526V102.152H142.895V106.051ZM145.345 102.751C145.196 102.751 145.073 102.628 145.073 102.478C145.073 102.328 145.196 102.2 145.345 102.2C145.495 102.2 145.623 102.328 145.623 102.478C145.623 102.628 145.495 102.751 145.345 102.751ZM145.163 106.051V103.462H145.533V106.051H145.163ZM146.083 105.324H146.436C146.436 105.623 146.661 105.81 147.024 105.81C147.425 105.81 147.661 105.639 147.661 105.361C147.661 105.147 147.554 105.024 147.249 104.949L146.805 104.837C146.356 104.725 146.136 104.489 146.136 104.136C146.136 103.682 146.516 103.393 147.072 103.393C147.618 103.393 147.971 103.692 147.987 104.174H147.629C147.618 103.874 147.409 103.698 147.062 103.698C146.698 103.698 146.495 103.853 146.495 104.131C146.495 104.329 146.634 104.468 146.917 104.537L147.361 104.65C147.811 104.762 148.014 104.971 148.014 105.345C148.014 105.81 147.618 106.115 147.03 106.115C146.447 106.115 146.083 105.805 146.083 105.324ZM149.816 103.462H150.212V102.959C150.212 102.376 150.533 102.152 150.928 102.152C151.019 102.152 151.126 102.157 151.212 102.173V102.489H150.993C150.666 102.489 150.581 102.655 150.581 102.959V103.462H151.191V103.772H150.581V106.051H150.212V103.772H149.816V103.462ZM153.046 103.43V103.762H152.843C152.367 103.762 152.062 104.083 152.062 104.575V106.051H151.693V103.462H152.04L152.067 103.863C152.169 103.585 152.442 103.403 152.805 103.403C152.885 103.403 152.955 103.409 153.046 103.43ZM153.255 104.757C153.255 103.965 153.812 103.393 154.571 103.393C155.331 103.393 155.887 103.965 155.887 104.757C155.887 105.543 155.331 106.115 154.571 106.115C153.812 106.115 153.255 105.543 153.255 104.757ZM153.63 104.751C153.63 105.361 154.015 105.784 154.571 105.784C155.122 105.784 155.513 105.361 155.513 104.751C155.513 104.152 155.122 103.724 154.571 103.724C154.015 103.724 153.63 104.152 153.63 104.751ZM156.846 106.051H156.477V103.462H156.798L156.841 103.831C156.969 103.559 157.258 103.393 157.622 103.393C158.028 103.393 158.333 103.607 158.456 103.944C158.574 103.607 158.89 103.393 159.307 103.393C159.868 103.393 160.238 103.756 160.238 104.355V106.051H159.879V104.43C159.879 103.986 159.633 103.724 159.237 103.724C158.804 103.724 158.547 104.051 158.547 104.452V106.051H158.184V104.425C158.184 103.986 157.932 103.73 157.542 103.73C157.108 103.73 156.846 104.051 156.846 104.446V106.051ZM162.201 107.18V106.875H162.485C162.709 106.875 162.934 106.859 163.062 106.511L163.175 106.206L162.126 103.462H162.517L163.351 105.719L164.17 103.462H164.549L163.362 106.645C163.212 107.051 162.961 107.217 162.592 107.217C162.437 107.217 162.319 107.206 162.201 107.18ZM164.71 104.757C164.71 103.965 165.267 103.393 166.026 103.393C166.786 103.393 167.342 103.965 167.342 104.757C167.342 105.543 166.786 106.115 166.026 106.115C165.267 106.115 164.71 105.543 164.71 104.757ZM165.085 104.751C165.085 105.361 165.47 105.784 166.026 105.784C166.577 105.784 166.968 105.361 166.968 104.751C166.968 104.152 166.577 103.724 166.026 103.724C165.47 103.724 165.085 104.152 165.085 104.751ZM169.688 103.462H170.057V106.051H169.736L169.688 105.612C169.544 105.912 169.185 106.115 168.779 106.115C168.169 106.115 167.837 105.698 167.837 105.067V103.457H168.212V104.949C168.212 105.564 168.485 105.784 168.897 105.784C169.394 105.784 169.688 105.452 169.688 104.837V103.462ZM172.179 103.43V103.762H171.976C171.5 103.762 171.195 104.083 171.195 104.575V106.051H170.826V103.462H171.174L171.2 103.863C171.302 103.585 171.575 103.403 171.939 103.403C172.019 103.403 172.088 103.409 172.179 103.43ZM173.971 104.762C173.971 103.949 174.469 103.393 175.223 103.393C175.822 103.393 176.261 103.74 176.362 104.275H175.993C175.897 103.917 175.587 103.719 175.228 103.719C174.704 103.719 174.335 104.12 174.335 104.757C174.335 105.372 174.677 105.784 175.202 105.784C175.587 105.784 175.897 105.57 175.999 105.238H176.373C176.25 105.768 175.79 106.115 175.202 106.115C174.469 106.115 173.971 105.575 173.971 104.762ZM176.75 104.757C176.75 103.965 177.307 103.393 178.066 103.393C178.826 103.393 179.382 103.965 179.382 104.757C179.382 105.543 178.826 106.115 178.066 106.115C177.307 106.115 176.75 105.543 176.75 104.757ZM177.125 104.751C177.125 105.361 177.51 105.784 178.066 105.784C178.617 105.784 179.007 105.361 179.007 104.751C179.007 104.152 178.617 103.724 178.066 103.724C177.51 103.724 177.125 104.152 177.125 104.751ZM180.341 106.051H179.972V103.462H180.293L180.336 103.831C180.464 103.559 180.753 103.393 181.117 103.393C181.523 103.393 181.828 103.607 181.951 103.944C182.069 103.607 182.384 103.393 182.802 103.393C183.363 103.393 183.732 103.756 183.732 104.355V106.051H183.374V104.43C183.374 103.986 183.128 103.724 182.732 103.724C182.299 103.724 182.042 104.051 182.042 104.452V106.051H181.678V104.425C181.678 103.986 181.427 103.73 181.037 103.73C180.603 103.73 180.341 104.051 180.341 104.446V106.051ZM184.475 107.18V103.462H184.796L184.833 103.986C185.015 103.585 185.379 103.393 185.812 103.393C186.561 103.393 187.01 103.965 187.01 104.746C187.01 105.527 186.577 106.115 185.812 106.115C185.373 106.115 185.026 105.928 184.844 105.554V107.18H184.475ZM184.849 104.757C184.849 105.35 185.181 105.784 185.748 105.784C186.309 105.784 186.636 105.35 186.636 104.757C186.636 104.158 186.309 103.73 185.748 103.73C185.181 103.73 184.849 104.158 184.849 104.757ZM188.342 106.115C187.791 106.115 187.465 105.805 187.465 105.35C187.465 104.874 187.828 104.575 188.433 104.527L189.289 104.457V104.372C189.289 103.863 188.984 103.703 188.604 103.703C188.155 103.703 187.887 103.906 187.887 104.254H187.55C187.55 103.73 187.978 103.393 188.615 103.393C189.214 103.393 189.652 103.692 189.652 104.377V106.051H189.342L189.294 105.596C189.133 105.923 188.78 106.115 188.342 106.115ZM188.427 105.816C188.973 105.816 189.289 105.436 189.289 104.874V104.735L188.524 104.794C188.037 104.837 187.839 105.051 187.839 105.34C187.839 105.655 188.074 105.816 188.427 105.816ZM190.762 106.051H190.393V103.462H190.714L190.767 103.912C190.938 103.58 191.281 103.393 191.655 103.393C192.367 103.393 192.661 103.815 192.661 104.468V106.051H192.292V104.548C192.292 103.944 192.019 103.73 191.591 103.73C191.061 103.73 190.762 104.115 190.762 104.698V106.051ZM193.082 107.18V106.875H193.365C193.59 106.875 193.815 106.859 193.943 106.511L194.055 106.206L193.007 103.462H193.398L194.232 105.719L195.05 103.462H195.43L194.243 106.645C194.093 107.051 193.841 107.217 193.472 107.217C193.317 107.217 193.2 107.206 193.082 107.18ZM197.163 104.757C197.163 103.965 197.72 103.393 198.479 103.393C199.239 103.393 199.795 103.965 199.795 104.757C199.795 105.543 199.239 106.115 198.479 106.115C197.72 106.115 197.163 105.543 197.163 104.757ZM197.538 104.751C197.538 105.361 197.923 105.784 198.479 105.784C199.03 105.784 199.421 105.361 199.421 104.751C199.421 104.152 199.03 103.724 198.479 103.724C197.923 103.724 197.538 104.152 197.538 104.751ZM201.738 103.43V103.762H201.535C201.059 103.762 200.754 104.083 200.754 104.575V106.051H200.385V103.462H200.733L200.76 103.863C200.861 103.585 201.134 103.403 201.498 103.403C201.578 103.403 201.648 103.409 201.738 103.43ZM204.456 106.115C203.905 106.115 203.579 105.805 203.579 105.35C203.579 104.874 203.942 104.575 204.547 104.527L205.403 104.457V104.372C205.403 103.863 205.098 103.703 204.718 103.703C204.269 103.703 204.001 103.906 204.001 104.254H203.664C203.664 103.73 204.092 103.393 204.729 103.393C205.328 103.393 205.766 103.692 205.766 104.377V106.051H205.456L205.408 105.596C205.248 105.923 204.895 106.115 204.456 106.115ZM204.542 105.816C205.087 105.816 205.403 105.436 205.403 104.874V104.735L204.638 104.794C204.151 104.837 203.953 105.051 203.953 105.34C203.953 105.655 204.189 105.816 204.542 105.816ZM207.86 103.43V103.762H207.657C207.181 103.762 206.876 104.083 206.876 104.575V106.051H206.507V103.462H206.855L206.881 103.863C206.983 103.585 207.256 103.403 207.62 103.403C207.7 103.403 207.769 103.409 207.86 103.43ZM209.337 106.115C208.578 106.115 208.07 105.57 208.07 104.757C208.07 103.949 208.573 103.393 209.311 103.393C210.011 103.393 210.487 103.89 210.487 104.623V104.805H208.428C208.455 105.436 208.787 105.8 209.343 105.8C209.765 105.8 210.038 105.618 210.134 105.275H210.487C210.348 105.821 209.947 106.115 209.337 106.115ZM209.311 103.708C208.824 103.708 208.503 104.029 208.439 104.537H210.118C210.118 104.04 209.797 103.708 209.311 103.708ZM212.299 107.18V106.875H212.582C212.807 106.875 213.032 106.859 213.16 106.511L213.272 106.206L212.224 103.462H212.614L213.449 105.719L214.267 103.462H214.647L213.46 106.645C213.31 107.051 213.058 107.217 212.689 107.217C212.534 107.217 212.417 107.206 212.299 107.18ZM214.808 104.757C214.808 103.965 215.364 103.393 216.124 103.393C216.883 103.393 217.44 103.965 217.44 104.757C217.44 105.543 216.883 106.115 216.124 106.115C215.364 106.115 214.808 105.543 214.808 104.757ZM215.182 104.751C215.182 105.361 215.567 105.784 216.124 105.784C216.675 105.784 217.065 105.361 217.065 104.751C217.065 104.152 216.675 103.724 216.124 103.724C215.567 103.724 215.182 104.152 215.182 104.751ZM219.786 103.462H220.155V106.051H219.834L219.786 105.612C219.641 105.912 219.283 106.115 218.876 106.115C218.267 106.115 217.935 105.698 217.935 105.067V103.457H218.309V104.949C218.309 105.564 218.582 105.784 218.994 105.784C219.492 105.784 219.786 105.452 219.786 104.837V103.462ZM222.225 104.762C222.225 103.949 222.723 103.393 223.477 103.393C224.076 103.393 224.514 103.74 224.616 104.275H224.247C224.151 103.917 223.841 103.719 223.482 103.719C222.958 103.719 222.589 104.12 222.589 104.757C222.589 105.372 222.931 105.784 223.455 105.784C223.841 105.784 224.151 105.57 224.252 105.238H224.627C224.504 105.768 224.044 106.115 223.455 106.115C222.723 106.115 222.225 105.575 222.225 104.762ZM226.539 103.43V103.762H226.336C225.86 103.762 225.555 104.083 225.555 104.575V106.051H225.186V103.462H225.534L225.56 103.863C225.662 103.585 225.935 103.403 226.298 103.403C226.379 103.403 226.448 103.409 226.539 103.43ZM228.016 106.115C227.257 106.115 226.749 105.57 226.749 104.757C226.749 103.949 227.251 103.393 227.99 103.393C228.69 103.393 229.166 103.89 229.166 104.623V104.805H227.107C227.134 105.436 227.465 105.8 228.022 105.8C228.444 105.8 228.717 105.618 228.813 105.275H229.166C229.027 105.821 228.626 106.115 228.016 106.115ZM227.99 103.708C227.503 103.708 227.182 104.029 227.118 104.537H228.797C228.797 104.04 228.476 103.708 227.99 103.708ZM230.474 106.115C229.923 106.115 229.597 105.805 229.597 105.35C229.597 104.874 229.96 104.575 230.565 104.527L231.42 104.457V104.372C231.42 103.863 231.116 103.703 230.736 103.703C230.287 103.703 230.019 103.906 230.019 104.254H229.682C229.682 103.73 230.11 103.393 230.747 103.393C231.346 103.393 231.784 103.692 231.784 104.377V106.051H231.474L231.426 105.596C231.265 105.923 230.912 106.115 230.474 106.115ZM230.559 105.816C231.105 105.816 231.42 105.436 231.42 104.874V104.735L230.656 104.794C230.169 104.837 229.971 105.051 229.971 105.34C229.971 105.655 230.206 105.816 230.559 105.816ZM233.071 106.051H232.708V103.772H232.189V103.462H232.708V102.644H233.071V103.462H233.59V103.772H233.071V106.051ZM234.253 102.751C234.103 102.751 233.98 102.628 233.98 102.478C233.98 102.328 234.103 102.2 234.253 102.2C234.403 102.2 234.531 102.328 234.531 102.478C234.531 102.628 234.403 102.751 234.253 102.751ZM234.071 106.051V103.462H234.44V106.051H234.071ZM235.579 106.051H235.21V103.462H235.531L235.584 103.912C235.755 103.58 236.097 103.393 236.472 103.393C237.183 103.393 237.477 103.815 237.477 104.468V106.051H237.108V104.548C237.108 103.944 236.836 103.73 236.408 103.73C235.878 103.73 235.579 104.115 235.579 104.698V106.051ZM238.037 104.682C238.037 103.976 238.491 103.393 239.251 103.393C239.7 103.393 240.042 103.601 240.208 103.981L240.246 103.462H240.566V105.971C240.566 106.741 240.074 107.244 239.315 107.244C238.652 107.244 238.186 106.869 238.085 106.244H238.454C238.534 106.661 238.855 106.907 239.32 106.907C239.85 106.907 240.203 106.548 240.203 106.008V105.393C240.026 105.757 239.668 105.971 239.224 105.971C238.486 105.971 238.037 105.388 238.037 104.682ZM238.406 104.676C238.406 105.206 238.732 105.639 239.277 105.639C239.839 105.639 240.171 105.233 240.171 104.676C240.171 104.125 239.85 103.719 239.283 103.719C238.727 103.719 238.406 104.152 238.406 104.676ZM242.638 104.757C242.638 103.965 243.194 103.393 243.954 103.393C244.714 103.393 245.27 103.965 245.27 104.757C245.27 105.543 244.714 106.115 243.954 106.115C243.194 106.115 242.638 105.543 242.638 104.757ZM243.013 104.751C243.013 105.361 243.398 105.784 243.954 105.784C244.505 105.784 244.895 105.361 244.895 104.751C244.895 104.152 244.505 103.724 243.954 103.724C243.398 103.724 243.013 104.152 243.013 104.751ZM246.229 106.051H245.86V103.462H246.181L246.234 103.912C246.406 103.58 246.748 103.393 247.122 103.393C247.834 103.393 248.128 103.815 248.128 104.468V106.051H247.759V104.548C247.759 103.944 247.486 103.73 247.058 103.73C246.529 103.73 246.229 104.115 246.229 104.698V106.051ZM250.668 106.051H250.347V102.152H250.716V103.965C250.898 103.585 251.251 103.393 251.69 103.393C252.444 103.393 252.882 103.981 252.882 104.762C252.882 105.538 252.433 106.115 251.679 106.115C251.246 106.115 250.887 105.923 250.705 105.521L250.668 106.051ZM250.721 104.751C250.721 105.35 251.053 105.778 251.62 105.778C252.182 105.778 252.508 105.35 252.508 104.751C252.508 104.158 252.182 103.724 251.62 103.724C251.053 103.724 250.721 104.158 250.721 104.751ZM254.556 106.115C253.797 106.115 253.289 105.57 253.289 104.757C253.289 103.949 253.792 103.393 254.53 103.393C255.23 103.393 255.706 103.89 255.706 104.623V104.805H253.647C253.674 105.436 254.005 105.8 254.562 105.8C254.984 105.8 255.257 105.618 255.353 105.275H255.706C255.567 105.821 255.166 106.115 254.556 106.115ZM254.53 103.708C254.043 103.708 253.722 104.029 253.658 104.537H255.337C255.337 104.04 255.016 103.708 254.53 103.708ZM256.665 106.046H256.296V102.152H256.665V103.912C256.831 103.601 257.147 103.393 257.58 103.393C258.259 103.393 258.564 103.815 258.564 104.468V106.051H258.195V104.548C258.195 103.944 257.912 103.73 257.511 103.73C256.954 103.73 256.665 104.142 256.665 104.639V106.046ZM260.043 106.115C259.492 106.115 259.166 105.805 259.166 105.35C259.166 104.874 259.53 104.575 260.134 104.527L260.99 104.457V104.372C260.99 103.863 260.685 103.703 260.305 103.703C259.856 103.703 259.589 103.906 259.589 104.254H259.252C259.252 103.73 259.68 103.393 260.316 103.393C260.915 103.393 261.354 103.692 261.354 104.377V106.051H261.044L260.995 105.596C260.835 105.923 260.482 106.115 260.043 106.115ZM260.129 105.816C260.675 105.816 260.99 105.436 260.99 104.874V104.735L260.225 104.794C259.738 104.837 259.541 105.051 259.541 105.34C259.541 105.655 259.776 105.816 260.129 105.816ZM262.48 106.051H262.11V102.152H262.48V106.051ZM262.976 103.462H263.371V102.959C263.371 102.376 263.692 102.152 264.088 102.152C264.179 102.152 264.286 102.157 264.372 102.173V102.489H264.152C263.826 102.489 263.74 102.655 263.74 102.959V103.462H264.35V103.772H263.74V106.051H263.371V103.772H262.976V103.462ZM122.793 112.757C122.793 111.965 123.349 111.393 124.108 111.393C124.868 111.393 125.424 111.965 125.424 112.757C125.424 113.543 124.868 114.115 124.108 114.115C123.349 114.115 122.793 113.543 122.793 112.757ZM123.167 112.751C123.167 113.361 123.552 113.784 124.108 113.784C124.659 113.784 125.05 113.361 125.05 112.751C125.05 112.152 124.659 111.724 124.108 111.724C123.552 111.724 123.167 112.152 123.167 112.751ZM125.705 111.462H126.101V110.959C126.101 110.376 126.421 110.152 126.817 110.152C126.908 110.152 127.015 110.157 127.101 110.173V110.489H126.881C126.555 110.489 126.47 110.655 126.47 110.959V111.462H127.079V111.772H126.47V114.051H126.101V111.772H125.705V111.462ZM129.808 114.115C129.258 114.115 128.931 113.805 128.931 113.35C128.931 112.874 129.295 112.575 129.899 112.527L130.755 112.457V112.372C130.755 111.863 130.45 111.703 130.071 111.703C129.621 111.703 129.354 111.906 129.354 112.254H129.017C129.017 111.73 129.445 111.393 130.081 111.393C130.68 111.393 131.119 111.692 131.119 112.377V114.051H130.809L130.761 113.596C130.6 113.923 130.247 114.115 129.808 114.115ZM129.894 113.816C130.44 113.816 130.755 113.436 130.755 112.874V112.735L129.99 112.794C129.504 112.837 129.306 113.051 129.306 113.34C129.306 113.655 129.541 113.816 129.894 113.816ZM133.343 115.18V111.462H133.664L133.701 111.986C133.883 111.585 134.247 111.393 134.68 111.393C135.429 111.393 135.878 111.965 135.878 112.746C135.878 113.527 135.445 114.115 134.68 114.115C134.241 114.115 133.894 113.928 133.712 113.554V115.18H133.343ZM133.717 112.757C133.717 113.35 134.049 113.784 134.616 113.784C135.178 113.784 135.504 113.35 135.504 112.757C135.504 112.158 135.178 111.73 134.616 111.73C134.049 111.73 133.717 112.158 133.717 112.757ZM137.21 114.115C136.659 114.115 136.333 113.805 136.333 113.35C136.333 112.874 136.696 112.575 137.301 112.527L138.157 112.457V112.372C138.157 111.863 137.852 111.703 137.472 111.703C137.023 111.703 136.755 111.906 136.755 112.254H136.418C136.418 111.73 136.846 111.393 137.483 111.393C138.082 111.393 138.52 111.692 138.52 112.377V114.051H138.21L138.162 113.596C138.002 113.923 137.649 114.115 137.21 114.115ZM137.296 113.816C137.841 113.816 138.157 113.436 138.157 112.874V112.735L137.392 112.794C136.905 112.837 136.707 113.051 136.707 113.34C136.707 113.655 136.943 113.816 137.296 113.816ZM140.614 111.43V111.762H140.411C139.935 111.762 139.63 112.083 139.63 112.575V114.051H139.261V111.462H139.609L139.635 111.863C139.737 111.585 140.01 111.403 140.374 111.403C140.454 111.403 140.523 111.409 140.614 111.43ZM141.803 114.051H141.439V111.772H140.921V111.462H141.439V110.644H141.803V111.462H142.322V111.772H141.803V114.051ZM143.172 114.051H142.802V111.462H143.123L143.177 111.912C143.348 111.58 143.69 111.393 144.065 111.393C144.776 111.393 145.07 111.815 145.07 112.468V114.051H144.701V112.548C144.701 111.944 144.429 111.73 144.001 111.73C143.471 111.73 143.172 112.115 143.172 112.698V114.051ZM146.892 114.115C146.132 114.115 145.624 113.57 145.624 112.757C145.624 111.949 146.127 111.393 146.865 111.393C147.566 111.393 148.042 111.89 148.042 112.623V112.805H145.982C146.009 113.436 146.341 113.8 146.897 113.8C147.32 113.8 147.592 113.618 147.689 113.275H148.042C147.903 113.821 147.501 114.115 146.892 114.115ZM146.865 111.708C146.378 111.708 146.057 112.029 145.993 112.537H147.673C147.673 112.04 147.352 111.708 146.865 111.708ZM149.985 111.43V111.762H149.782C149.306 111.762 149.001 112.083 149.001 112.575V114.051H148.632V111.462H148.979L149.006 111.863C149.108 111.585 149.381 111.403 149.744 111.403C149.825 111.403 149.894 111.409 149.985 111.43ZM151.508 113.174H151.16V113.035C151.16 112.596 151.444 112.361 151.743 112.136C152.021 111.922 152.284 111.703 152.284 111.312C152.284 110.858 151.968 110.505 151.476 110.505C151.011 110.505 150.647 110.874 150.647 111.339H150.272C150.272 110.671 150.802 110.152 151.476 110.152C152.209 110.152 152.663 110.649 152.663 111.302C152.663 111.853 152.31 112.125 151.995 112.361C151.695 112.575 151.508 112.751 151.508 113.035V113.174ZM151.358 114.126C151.171 114.126 151.021 113.971 151.021 113.789C151.021 113.607 151.171 113.457 151.358 113.457C151.54 113.457 151.69 113.607 151.69 113.789C151.69 113.971 151.54 114.126 151.358 114.126Z"
            fill="#5E5E5E" />
        <g filter="url(#filter1_dddd_2788_6830)">
            <rect x="122.589" y="120.635" width="6.11287" height="6.11287" rx="3.05643" fill="white" />
            <rect x="122.78" y="120.827" width="5.73081" height="5.73081" rx="2.86541" stroke="#DBDBDB"
                stroke-width="0.382054" />
        </g>
        <path
            d="M132.721 126.635H132.208V122.768H132.721L134.053 126.02L135.385 122.768H135.909V126.635H135.396V125.106C135.396 124.384 135.401 124.122 135.428 123.849L134.299 126.635H133.807L132.684 123.859C132.711 124.047 132.721 124.443 132.721 124.983V126.635ZM136.473 127.807V127.395H136.81C137.05 127.395 137.243 127.358 137.366 127.026L137.457 126.775L136.403 124.02H136.933L137.692 126.127L138.468 124.02H138.987L137.751 127.224C137.575 127.673 137.312 127.86 136.911 127.86C136.745 127.86 136.606 127.839 136.473 127.807ZM142.541 126.694C141.439 126.694 140.706 125.903 140.706 124.705C140.706 123.512 141.46 122.704 142.568 122.704C143.439 122.704 144.108 123.223 144.252 124.015H143.691C143.546 123.512 143.113 123.207 142.551 123.207C141.771 123.207 141.257 123.795 141.257 124.699C141.257 125.603 141.771 126.192 142.551 126.192C143.118 126.192 143.568 125.887 143.712 125.411H144.268C144.103 126.181 143.413 126.694 142.541 126.694ZM144.654 125.325C144.654 124.517 145.232 123.95 146.018 123.95C146.799 123.95 147.377 124.517 147.377 125.325C147.377 126.133 146.799 126.7 146.018 126.7C145.232 126.7 144.654 126.133 144.654 125.325ZM145.163 125.325C145.163 125.871 145.51 126.25 146.018 126.25C146.521 126.25 146.874 125.871 146.874 125.325C146.874 124.779 146.521 124.4 146.018 124.4C145.51 124.4 145.163 124.779 145.163 125.325ZM148.436 126.635H147.933V124.02H148.383L148.431 124.362C148.565 124.116 148.843 123.945 149.212 123.945C149.618 123.945 149.907 124.148 150.041 124.475C150.164 124.148 150.479 123.945 150.886 123.945C151.485 123.945 151.849 124.319 151.849 124.924V126.635H151.357V125.047C151.357 124.635 151.127 124.4 150.774 124.4C150.394 124.4 150.143 124.667 150.143 125.084V126.635H149.645V125.042C149.645 124.63 149.42 124.405 149.067 124.405C148.688 124.405 148.436 124.667 148.436 125.084V126.635ZM152.546 127.807V124.02H153L153.038 124.491C153.214 124.132 153.567 123.945 153.985 123.945C154.733 123.945 155.199 124.507 155.199 125.309C155.199 126.106 154.76 126.705 153.985 126.705C153.567 126.705 153.22 126.529 153.049 126.208V127.807H152.546ZM153.054 125.33C153.054 125.865 153.364 126.25 153.878 126.25C154.391 126.25 154.696 125.865 154.696 125.33C154.696 124.79 154.391 124.405 153.878 124.405C153.364 124.405 153.054 124.785 153.054 125.33ZM156.518 126.7C155.956 126.7 155.625 126.384 155.625 125.908C155.625 125.427 155.983 125.127 156.598 125.079L157.422 125.015V124.94C157.422 124.501 157.16 124.346 156.807 124.346C156.384 124.346 156.143 124.533 156.143 124.849H155.705C155.705 124.303 156.154 123.945 156.828 123.945C157.475 123.945 157.914 124.287 157.914 124.993V126.635H157.486L157.432 126.213C157.299 126.512 156.94 126.7 156.518 126.7ZM156.662 126.309C157.138 126.309 157.427 125.999 157.427 125.507V125.368L156.758 125.421C156.315 125.464 156.133 125.635 156.133 125.892C156.133 126.17 156.336 126.309 156.662 126.309ZM159.113 126.635H158.61V124.02H159.065L159.118 124.421C159.284 124.122 159.616 123.945 159.985 123.945C160.675 123.945 160.99 124.368 160.99 125.036V126.635H160.488V125.149C160.488 124.619 160.241 124.405 159.856 124.405C159.386 124.405 159.113 124.742 159.113 125.25V126.635ZM161.383 127.807V127.395H161.72C161.961 127.395 162.153 127.358 162.276 127.026L162.367 126.775L161.314 124.02H161.843L162.603 126.127L163.378 124.02H163.897L162.661 127.224C162.485 127.673 162.223 127.86 161.822 127.86C161.656 127.86 161.517 127.839 161.383 127.807Z"
            fill="#121212" />
        <path
            d="M133.786 135.223C132.716 135.223 131.989 134.426 131.989 133.249C131.989 132.072 132.727 131.27 133.807 131.27C134.631 131.27 135.278 131.767 135.433 132.527H135.021C134.861 131.976 134.39 131.639 133.791 131.639C132.951 131.639 132.39 132.281 132.39 133.249C132.39 134.212 132.951 134.854 133.791 134.854C134.395 134.854 134.877 134.527 135.043 134.014H135.455C135.278 134.736 134.609 135.223 133.786 135.223ZM136.383 135.158H136.014V131.265H136.383V133.024C136.549 132.714 136.865 132.505 137.298 132.505C137.977 132.505 138.282 132.928 138.282 133.581V135.164H137.913V133.661C137.913 133.056 137.63 132.842 137.228 132.842C136.672 132.842 136.383 133.254 136.383 133.752V135.158ZM140.103 135.228C139.344 135.228 138.836 134.682 138.836 133.869C138.836 133.062 139.339 132.505 140.077 132.505C140.777 132.505 141.253 133.003 141.253 133.736V133.918H139.194C139.221 134.549 139.553 134.912 140.109 134.912C140.531 134.912 140.804 134.731 140.9 134.388H141.253C141.114 134.934 140.713 135.228 140.103 135.228ZM140.077 132.821C139.59 132.821 139.269 133.142 139.205 133.65H140.884C140.884 133.153 140.563 132.821 140.077 132.821ZM141.662 133.875C141.662 133.062 142.159 132.505 142.913 132.505C143.512 132.505 143.951 132.853 144.053 133.388H143.683C143.587 133.03 143.277 132.832 142.919 132.832C142.394 132.832 142.025 133.233 142.025 133.869C142.025 134.485 142.368 134.896 142.892 134.896C143.277 134.896 143.587 134.682 143.689 134.351H144.063C143.94 134.88 143.48 135.228 142.892 135.228C142.159 135.228 141.662 134.688 141.662 133.875ZM145.007 135.164H144.638V131.265H145.007V133.912L146.291 132.575H146.757L145.762 133.607L146.762 135.164H146.334L145.51 133.869L145.007 134.388V135.164ZM148.2 135.228C147.44 135.228 146.932 134.682 146.932 133.869C146.932 133.062 147.435 132.505 148.173 132.505C148.874 132.505 149.35 133.003 149.35 133.736V133.918H147.29C147.317 134.549 147.649 134.912 148.205 134.912C148.628 134.912 148.9 134.731 148.997 134.388H149.35C149.211 134.934 148.809 135.228 148.2 135.228ZM148.173 132.821C147.686 132.821 147.365 133.142 147.301 133.65H148.981C148.981 133.153 148.66 132.821 148.173 132.821ZM150.956 135.228C150.202 135.228 149.758 134.65 149.758 133.875C149.758 133.094 150.202 132.505 150.972 132.505C151.4 132.505 151.742 132.693 151.924 133.067V131.265H152.293V135.164H151.972L151.935 134.634C151.753 135.035 151.389 135.228 150.956 135.228ZM151.02 134.891C151.587 134.891 151.919 134.463 151.919 133.864C151.919 133.27 151.587 132.837 151.02 132.837C150.459 132.837 150.132 133.27 150.132 133.864C150.132 134.463 150.459 134.891 151.02 134.891ZM154.285 136.292V135.988H154.568C154.793 135.988 155.017 135.971 155.146 135.624L155.258 135.319L154.21 132.575H154.6L155.435 134.832L156.253 132.575H156.633L155.445 135.758C155.296 136.164 155.044 136.33 154.675 136.33C154.52 136.33 154.402 136.319 154.285 136.292ZM156.794 133.869C156.794 133.078 157.35 132.505 158.11 132.505C158.869 132.505 159.425 133.078 159.425 133.869C159.425 134.656 158.869 135.228 158.11 135.228C157.35 135.228 156.794 134.656 156.794 133.869ZM157.168 133.864C157.168 134.474 157.553 134.896 158.11 134.896C158.661 134.896 159.051 134.474 159.051 133.864C159.051 133.265 158.661 132.837 158.11 132.837C157.553 132.837 157.168 133.265 157.168 133.864ZM161.772 132.575H162.141V135.164H161.82L161.772 134.725C161.627 135.025 161.269 135.228 160.862 135.228C160.253 135.228 159.921 134.811 159.921 134.18V132.57H160.295V134.062C160.295 134.677 160.568 134.896 160.98 134.896C161.477 134.896 161.772 134.565 161.772 133.95V132.575ZM164.211 133.875C164.211 133.062 164.708 132.505 165.463 132.505C166.062 132.505 166.5 132.853 166.602 133.388H166.233C166.137 133.03 165.826 132.832 165.468 132.832C164.944 132.832 164.575 133.233 164.575 133.869C164.575 134.485 164.917 134.896 165.441 134.896C165.826 134.896 166.137 134.682 166.238 134.351H166.613C166.49 134.88 166.03 135.228 165.441 135.228C164.708 135.228 164.211 134.688 164.211 133.875ZM167.915 135.228C167.364 135.228 167.038 134.918 167.038 134.463C167.038 133.987 167.402 133.688 168.006 133.639L168.862 133.57V133.484C168.862 132.976 168.557 132.816 168.177 132.816C167.728 132.816 167.461 133.019 167.461 133.367H167.124C167.124 132.842 167.552 132.505 168.188 132.505C168.787 132.505 169.226 132.805 169.226 133.49V135.164H168.915L168.867 134.709C168.707 135.035 168.354 135.228 167.915 135.228ZM168.001 134.928C168.546 134.928 168.862 134.549 168.862 133.987V133.848L168.097 133.907C167.61 133.95 167.412 134.164 167.412 134.452C167.412 134.768 167.648 134.928 168.001 134.928ZM170.335 135.164H169.966V132.575H170.287L170.341 133.024C170.512 132.693 170.854 132.505 171.229 132.505C171.94 132.505 172.234 132.928 172.234 133.581V135.164H171.865V133.661C171.865 133.056 171.592 132.842 171.164 132.842C170.635 132.842 170.335 133.228 170.335 133.811V135.164ZM174.271 133.875C174.271 133.062 174.769 132.505 175.523 132.505C176.122 132.505 176.561 132.853 176.662 133.388H176.293C176.197 133.03 175.887 132.832 175.528 132.832C175.004 132.832 174.635 133.233 174.635 133.869C174.635 134.485 174.977 134.896 175.502 134.896C175.887 134.896 176.197 134.682 176.298 134.351H176.673C176.55 134.88 176.09 135.228 175.502 135.228C174.769 135.228 174.271 134.688 174.271 133.875ZM177.601 135.158H177.232V131.265H177.601V133.024C177.767 132.714 178.082 132.505 178.516 132.505C179.195 132.505 179.5 132.928 179.5 133.581V135.164H179.131V133.661C179.131 133.056 178.847 132.842 178.446 132.842C177.89 132.842 177.601 133.254 177.601 133.752V135.158ZM180.054 133.869C180.054 133.078 180.61 132.505 181.369 132.505C182.129 132.505 182.685 133.078 182.685 133.869C182.685 134.656 182.129 135.228 181.369 135.228C180.61 135.228 180.054 134.656 180.054 133.869ZM180.428 133.864C180.428 134.474 180.813 134.896 181.369 134.896C181.92 134.896 182.311 134.474 182.311 133.864C182.311 133.265 181.92 132.837 181.369 132.837C180.813 132.837 180.428 133.265 180.428 133.864ZM183.094 133.869C183.094 133.078 183.65 132.505 184.409 132.505C185.169 132.505 185.725 133.078 185.725 133.869C185.725 134.656 185.169 135.228 184.409 135.228C183.65 135.228 183.094 134.656 183.094 133.869ZM183.468 133.864C183.468 134.474 183.853 134.896 184.409 134.896C184.96 134.896 185.351 134.474 185.351 133.864C185.351 133.265 184.96 132.837 184.409 132.837C183.853 132.837 183.468 133.265 183.468 133.864ZM186.096 134.436H186.449C186.449 134.736 186.674 134.923 187.038 134.923C187.439 134.923 187.674 134.752 187.674 134.474C187.674 134.26 187.567 134.137 187.262 134.062L186.818 133.95C186.369 133.837 186.15 133.602 186.15 133.249C186.15 132.794 186.529 132.505 187.086 132.505C187.631 132.505 187.984 132.805 188 133.286H187.642C187.631 132.987 187.423 132.81 187.075 132.81C186.711 132.81 186.508 132.965 186.508 133.244C186.508 133.442 186.647 133.581 186.931 133.65L187.375 133.762C187.824 133.875 188.027 134.083 188.027 134.458C188.027 134.923 187.631 135.228 187.043 135.228C186.46 135.228 186.096 134.918 186.096 134.436ZM189.72 135.228C188.961 135.228 188.453 134.682 188.453 133.869C188.453 133.062 188.956 132.505 189.694 132.505C190.394 132.505 190.87 133.003 190.87 133.736V133.918H188.811C188.838 134.549 189.17 134.912 189.726 134.912C190.148 134.912 190.421 134.731 190.517 134.388H190.87C190.731 134.934 190.33 135.228 189.72 135.228ZM189.694 132.821C189.207 132.821 188.886 133.142 188.822 133.65H190.501C190.501 133.153 190.18 132.821 189.694 132.821ZM193.49 135.164L192.634 132.575H193.014L193.522 134.137C193.58 134.308 193.629 134.485 193.682 134.693C193.725 134.485 193.81 134.222 193.837 134.137L194.351 132.575H194.73L195.239 134.137C195.287 134.276 195.351 134.501 195.399 134.693C195.453 134.479 195.463 134.415 195.554 134.137L196.068 132.575H196.453L195.576 135.164H195.217L194.682 133.538C194.618 133.345 194.575 133.185 194.543 133.03C194.506 133.169 194.463 133.324 194.394 133.538L193.859 135.164H193.49ZM197.283 135.158H196.914V131.265H197.283V133.024C197.449 132.714 197.764 132.505 198.197 132.505C198.877 132.505 199.182 132.928 199.182 133.581V135.164H198.813V133.661C198.813 133.056 198.529 132.842 198.128 132.842C197.572 132.842 197.283 133.254 197.283 133.752V135.158ZM199.735 133.869C199.735 133.078 200.292 132.505 201.051 132.505C201.811 132.505 202.367 133.078 202.367 133.869C202.367 134.656 201.811 135.228 201.051 135.228C200.292 135.228 199.735 134.656 199.735 133.869ZM200.11 133.864C200.11 134.474 200.495 134.896 201.051 134.896C201.602 134.896 201.993 134.474 201.993 133.864C201.993 133.265 201.602 132.837 201.051 132.837C200.495 132.837 200.11 133.265 200.11 133.864ZM204.986 135.164L204.13 132.575H204.51L205.018 134.137C205.077 134.308 205.125 134.485 205.179 134.693C205.222 134.485 205.307 134.222 205.334 134.137L205.847 132.575H206.227L206.735 134.137C206.783 134.276 206.848 134.501 206.896 134.693C206.949 134.479 206.96 134.415 207.051 134.137L207.564 132.575H207.949L207.072 135.164H206.714L206.179 133.538C206.115 133.345 206.072 133.185 206.04 133.03C206.003 133.169 205.96 133.324 205.89 133.538L205.355 135.164H204.986ZM208.592 131.864C208.443 131.864 208.32 131.741 208.32 131.591C208.32 131.441 208.443 131.313 208.592 131.313C208.742 131.313 208.87 131.441 208.87 131.591C208.87 131.741 208.742 131.864 208.592 131.864ZM208.41 135.164V132.575H208.78V135.164H208.41ZM209.934 135.164H209.565V131.265H209.934V135.164ZM211.104 135.164H210.735V131.265H211.104V135.164ZM213.153 134.436H213.506C213.506 134.736 213.731 134.923 214.095 134.923C214.496 134.923 214.731 134.752 214.731 134.474C214.731 134.26 214.624 134.137 214.319 134.062L213.875 133.95C213.426 133.837 213.207 133.602 213.207 133.249C213.207 132.794 213.587 132.505 214.143 132.505C214.688 132.505 215.042 132.805 215.058 133.286H214.699C214.688 132.987 214.48 132.81 214.132 132.81C213.768 132.81 213.565 132.965 213.565 133.244C213.565 133.442 213.704 133.581 213.988 133.65L214.432 133.762C214.881 133.875 215.084 134.083 215.084 134.458C215.084 134.923 214.688 135.228 214.1 135.228C213.517 135.228 213.153 134.918 213.153 134.436ZM216.778 135.228C216.018 135.228 215.51 134.682 215.51 133.869C215.51 133.062 216.013 132.505 216.751 132.505C217.452 132.505 217.928 133.003 217.928 133.736V133.918H215.868C215.895 134.549 216.227 134.912 216.783 134.912C217.206 134.912 217.478 134.731 217.575 134.388H217.928C217.789 134.934 217.387 135.228 216.778 135.228ZM216.751 132.821C216.264 132.821 215.943 133.142 215.879 133.65H217.559C217.559 133.153 217.238 132.821 216.751 132.821ZM219.604 135.228C218.844 135.228 218.336 134.682 218.336 133.869C218.336 133.062 218.839 132.505 219.577 132.505C220.277 132.505 220.754 133.003 220.754 133.736V133.918H218.694C218.721 134.549 219.053 134.912 219.609 134.912C220.031 134.912 220.304 134.731 220.4 134.388H220.754C220.614 134.934 220.213 135.228 219.604 135.228ZM219.577 132.821C219.09 132.821 218.769 133.142 218.705 133.65H220.384C220.384 133.153 220.064 132.821 219.577 132.821ZM222.565 136.292V135.988H222.848C223.073 135.988 223.298 135.971 223.426 135.624L223.538 135.319L222.49 132.575H222.881L223.715 134.832L224.533 132.575H224.913L223.726 135.758C223.576 136.164 223.324 136.33 222.955 136.33C222.8 136.33 222.683 136.319 222.565 136.292ZM225.074 133.869C225.074 133.078 225.63 132.505 226.39 132.505C227.149 132.505 227.706 133.078 227.706 133.869C227.706 134.656 227.149 135.228 226.39 135.228C225.63 135.228 225.074 134.656 225.074 133.869ZM225.448 133.864C225.448 134.474 225.834 134.896 226.39 134.896C226.941 134.896 227.331 134.474 227.331 133.864C227.331 133.265 226.941 132.837 226.39 132.837C225.834 132.837 225.448 133.265 225.448 133.864ZM230.052 132.575H230.421V135.164H230.1L230.052 134.725C229.907 135.025 229.549 135.228 229.143 135.228C228.533 135.228 228.201 134.811 228.201 134.18V132.57H228.576V134.062C228.576 134.677 228.848 134.896 229.26 134.896C229.758 134.896 230.052 134.565 230.052 133.95V132.575ZM232.543 132.543V132.875H232.34C231.864 132.875 231.559 133.195 231.559 133.688V135.164H231.19V132.575H231.537L231.564 132.976C231.666 132.698 231.939 132.516 232.302 132.516C232.382 132.516 232.452 132.522 232.543 132.543ZM235.533 135.228C234.779 135.228 234.335 134.65 234.335 133.875C234.335 133.094 234.779 132.505 235.549 132.505C235.977 132.505 236.32 132.693 236.501 133.067V131.265H236.87V135.164H236.55L236.512 134.634C236.33 135.035 235.967 135.228 235.533 135.228ZM235.597 134.891C236.164 134.891 236.496 134.463 236.496 133.864C236.496 133.27 236.164 132.837 235.597 132.837C235.036 132.837 234.71 133.27 234.71 133.864C234.71 134.463 235.036 134.891 235.597 134.891ZM238.726 135.228C237.967 135.228 237.459 134.682 237.459 133.869C237.459 133.062 237.962 132.505 238.7 132.505C239.4 132.505 239.876 133.003 239.876 133.736V133.918H237.817C237.844 134.549 238.175 134.912 238.732 134.912C239.154 134.912 239.427 134.731 239.523 134.388H239.876C239.737 134.934 239.336 135.228 238.726 135.228ZM238.7 132.821C238.213 132.821 237.892 133.142 237.828 133.65H239.507C239.507 133.153 239.186 132.821 238.7 132.821ZM241.184 135.228C240.633 135.228 240.307 134.918 240.307 134.463C240.307 133.987 240.67 133.688 241.275 133.639L242.131 133.57V133.484C242.131 132.976 241.826 132.816 241.446 132.816C240.997 132.816 240.729 133.019 240.729 133.367H240.392C240.392 132.842 240.82 132.505 241.457 132.505C242.056 132.505 242.494 132.805 242.494 133.49V135.164H242.184L242.136 134.709C241.975 135.035 241.622 135.228 241.184 135.228ZM241.269 134.928C241.815 134.928 242.131 134.549 242.131 133.987V133.848L241.366 133.907C240.879 133.95 240.681 134.164 240.681 134.452C240.681 134.768 240.916 134.928 241.269 134.928ZM243.62 135.164H243.251V131.265H243.62V135.164ZM244.72 135.223C244.539 135.223 244.383 135.073 244.383 134.896C244.383 134.715 244.539 134.559 244.72 134.559C244.902 134.559 245.057 134.715 245.057 134.896C245.057 135.073 244.902 135.223 244.72 135.223Z"
            fill="#5E5E5E" />
        <g filter="url(#filter2_dddd_2788_6830)">
            <rect x="122.589" y="142.512" width="6.11287" height="6.11287" rx="3.05643" fill="#FFDD04" />
            <rect x="122.78" y="142.703" width="5.73081" height="5.73081" rx="2.86541" stroke="#FFDD04"
                stroke-width="0.382054" />
            <circle cx="125.646" cy="145.569" r="1.52822" fill="white" />
        </g>
        <path
            d="M132.721 148.512H132.208V144.645H132.721L134.053 147.897L135.385 144.645H135.909V148.512H135.396V146.983C135.396 146.261 135.401 145.999 135.428 145.726L134.299 148.512H133.807L132.684 145.736C132.711 145.924 132.721 146.319 132.721 146.86V148.512ZM136.473 149.684V149.272H136.81C137.05 149.272 137.243 149.235 137.366 148.903L137.457 148.652L136.403 145.897H136.933L137.692 148.004L138.468 145.897H138.987L137.751 149.101C137.575 149.55 137.312 149.737 136.911 149.737C136.745 149.737 136.606 149.716 136.473 149.684ZM142.439 147.132H141.46V148.512H140.936V144.645H142.439C143.199 144.645 143.685 145.143 143.685 145.886C143.685 146.608 143.193 147.132 142.439 147.132ZM142.348 145.116H141.46V146.662H142.327C142.846 146.662 143.134 146.357 143.134 145.881C143.134 145.394 142.84 145.116 142.348 145.116ZM144.854 148.577C144.292 148.577 143.961 148.261 143.961 147.785C143.961 147.304 144.319 147.004 144.934 146.956L145.758 146.892V146.817C145.758 146.378 145.496 146.223 145.143 146.223C144.72 146.223 144.48 146.41 144.48 146.726H144.041C144.041 146.18 144.49 145.822 145.164 145.822C145.811 145.822 146.25 146.164 146.25 146.87V148.512H145.822L145.769 148.09C145.635 148.389 145.276 148.577 144.854 148.577ZM144.998 148.186C145.474 148.186 145.763 147.876 145.763 147.384V147.245L145.095 147.298C144.651 147.341 144.469 147.512 144.469 147.769C144.469 148.047 144.672 148.186 144.998 148.186ZM148.444 145.876V146.336H148.219C147.743 146.336 147.449 146.624 147.449 147.127V148.512H146.946V145.902H147.417L147.449 146.298C147.556 146.025 147.818 145.843 148.176 145.843C148.267 145.843 148.342 145.854 148.444 145.876ZM149.758 148.512H149.255V146.319H148.742V145.897H149.255V145.079H149.758V145.897H150.272V146.319H149.758V148.512ZM151.226 148.512H150.723V145.897H151.177L151.231 146.298C151.397 145.999 151.728 145.822 152.097 145.822C152.787 145.822 153.103 146.245 153.103 146.913V148.512H152.6V147.025C152.6 146.496 152.354 146.282 151.969 146.282C151.498 146.282 151.226 146.619 151.226 147.127V148.512ZM154.928 148.577C154.158 148.577 153.628 148.02 153.628 147.207C153.628 146.389 154.147 145.822 154.907 145.822C155.65 145.822 156.137 146.336 156.137 147.111V147.298L154.115 147.304C154.152 147.855 154.441 148.159 154.939 148.159C155.329 148.159 155.586 147.999 155.671 147.699H156.142C156.014 148.261 155.575 148.577 154.928 148.577ZM154.907 146.245C154.468 146.245 154.19 146.507 154.126 146.967H155.634C155.634 146.533 155.35 146.245 154.907 146.245ZM158.196 145.876V146.336H157.971C157.495 146.336 157.201 146.624 157.201 147.127V148.512H156.698V145.902H157.169L157.201 146.298C157.308 146.025 157.57 145.843 157.929 145.843C158.019 145.843 158.094 145.854 158.196 145.876Z"
            fill="#121212" />
        <path
            d="M133.786 158.1C132.716 158.1 131.989 157.303 131.989 156.126C131.989 154.949 132.727 154.147 133.807 154.147C134.631 154.147 135.278 154.644 135.433 155.404H135.021C134.861 154.853 134.39 154.516 133.791 154.516C132.951 154.516 132.39 155.158 132.39 156.126C132.39 157.089 132.951 157.731 133.791 157.731C134.395 157.731 134.877 157.404 135.043 156.891H135.455C135.278 157.613 134.609 158.1 133.786 158.1ZM136.383 158.035H136.014V154.142H136.383V155.901C136.549 155.591 136.865 155.382 137.298 155.382C137.977 155.382 138.282 155.805 138.282 156.458V158.041H137.913V156.538C137.913 155.933 137.63 155.719 137.228 155.719C136.672 155.719 136.383 156.131 136.383 156.629V158.035ZM140.103 158.105C139.344 158.105 138.836 157.559 138.836 156.746C138.836 155.939 139.339 155.382 140.077 155.382C140.777 155.382 141.253 155.88 141.253 156.613V156.795H139.194C139.221 157.426 139.553 157.789 140.109 157.789C140.531 157.789 140.804 157.608 140.9 157.265H141.253C141.114 157.811 140.713 158.105 140.103 158.105ZM140.077 155.698C139.59 155.698 139.269 156.019 139.205 156.527H140.884C140.884 156.03 140.563 155.698 140.077 155.698ZM141.662 156.752C141.662 155.939 142.159 155.382 142.913 155.382C143.512 155.382 143.951 155.73 144.053 156.265H143.683C143.587 155.907 143.277 155.709 142.919 155.709C142.394 155.709 142.025 156.11 142.025 156.746C142.025 157.361 142.368 157.773 142.892 157.773C143.277 157.773 143.587 157.559 143.689 157.228H144.063C143.94 157.757 143.48 158.105 142.892 158.105C142.159 158.105 141.662 157.565 141.662 156.752ZM145.007 158.041H144.638V154.142H145.007V156.789L146.291 155.452H146.757L145.762 156.484L146.762 158.041H146.334L145.51 156.746L145.007 157.265V158.041ZM148.2 158.105C147.44 158.105 146.932 157.559 146.932 156.746C146.932 155.939 147.435 155.382 148.173 155.382C148.874 155.382 149.35 155.88 149.35 156.613V156.795H147.29C147.317 157.426 147.649 157.789 148.205 157.789C148.628 157.789 148.9 157.608 148.997 157.265H149.35C149.211 157.811 148.809 158.105 148.2 158.105ZM148.173 155.698C147.686 155.698 147.365 156.019 147.301 156.527H148.981C148.981 156.03 148.66 155.698 148.173 155.698ZM150.956 158.105C150.202 158.105 149.758 157.527 149.758 156.752C149.758 155.971 150.202 155.382 150.972 155.382C151.4 155.382 151.742 155.57 151.924 155.944V154.142H152.293V158.041H151.972L151.935 157.511C151.753 157.912 151.389 158.105 150.956 158.105ZM151.02 157.768C151.587 157.768 151.919 157.34 151.919 156.741C151.919 156.147 151.587 155.714 151.02 155.714C150.459 155.714 150.132 156.147 150.132 156.741C150.132 157.34 150.459 157.768 151.02 157.768ZM155.092 158.041L154.237 155.452H154.616L155.124 157.014C155.183 157.185 155.231 157.361 155.285 157.57C155.328 157.361 155.413 157.099 155.44 157.014L155.954 155.452H156.333L156.841 157.014C156.89 157.153 156.954 157.378 157.002 157.57C157.055 157.356 157.066 157.292 157.157 157.014L157.67 155.452H158.056L157.178 158.041H156.82L156.285 156.415C156.221 156.222 156.178 156.062 156.146 155.907C156.109 156.046 156.066 156.201 155.996 156.415L155.461 158.041H155.092ZM158.698 154.741C158.549 154.741 158.426 154.618 158.426 154.468C158.426 154.318 158.549 154.19 158.698 154.19C158.848 154.19 158.977 154.318 158.977 154.468C158.977 154.618 158.848 154.741 158.698 154.741ZM158.517 158.041V155.452H158.886V158.041H158.517ZM160.04 158.041H159.671V154.142H160.04V158.041ZM161.21 158.041H160.841V154.142H161.21V158.041ZM163.8 158.041H163.479V154.142H163.848V155.955C164.03 155.575 164.383 155.382 164.821 155.382C165.576 155.382 166.014 155.971 166.014 156.752C166.014 157.527 165.565 158.105 164.811 158.105C164.377 158.105 164.019 157.912 163.837 157.511L163.8 158.041ZM163.853 156.741C163.853 157.34 164.185 157.768 164.752 157.768C165.313 157.768 165.64 157.34 165.64 156.741C165.64 156.147 165.313 155.714 164.752 155.714C164.185 155.714 163.853 156.147 163.853 156.741ZM167.688 158.105C166.929 158.105 166.421 157.559 166.421 156.746C166.421 155.939 166.923 155.382 167.661 155.382C168.362 155.382 168.838 155.88 168.838 156.613V156.795H166.779C166.806 157.426 167.137 157.789 167.694 157.789C168.116 157.789 168.389 157.608 168.485 157.265H168.838C168.699 157.811 168.298 158.105 167.688 158.105ZM167.661 155.698C167.175 155.698 166.854 156.019 166.79 156.527H168.469C168.469 156.03 168.148 155.698 167.661 155.698ZM171.634 158.041L170.575 155.452H170.971L171.639 157.121C171.709 157.308 171.778 157.485 171.826 157.656C171.874 157.479 171.944 157.308 172.019 157.121L172.698 155.452H173.078L172.003 158.041H171.634ZM173.695 154.741C173.545 154.741 173.422 154.618 173.422 154.468C173.422 154.318 173.545 154.19 173.695 154.19C173.845 154.19 173.973 154.318 173.973 154.468C173.973 154.618 173.845 154.741 173.695 154.741ZM173.513 158.041V155.452H173.882V158.041H173.513ZM174.432 157.313H174.785C174.785 157.613 175.01 157.8 175.374 157.8C175.775 157.8 176.01 157.629 176.01 157.351C176.01 157.137 175.903 157.014 175.598 156.939L175.154 156.827C174.705 156.714 174.486 156.479 174.486 156.126C174.486 155.671 174.866 155.382 175.422 155.382C175.967 155.382 176.32 155.682 176.337 156.163H175.978C175.967 155.864 175.759 155.687 175.411 155.687C175.047 155.687 174.844 155.842 174.844 156.121C174.844 156.318 174.983 156.458 175.267 156.527L175.711 156.639C176.16 156.752 176.363 156.96 176.363 157.335C176.363 157.8 175.967 158.105 175.379 158.105C174.796 158.105 174.432 157.795 174.432 157.313ZM177.153 154.741C177.003 154.741 176.88 154.618 176.88 154.468C176.88 154.318 177.003 154.19 177.153 154.19C177.302 154.19 177.431 154.318 177.431 154.468C177.431 154.618 177.302 154.741 177.153 154.741ZM176.971 158.041V155.452H177.34V158.041H176.971ZM178.43 158.041H178.11V154.142H178.479V155.955C178.66 155.575 179.013 155.382 179.452 155.382C180.206 155.382 180.645 155.971 180.645 156.752C180.645 157.527 180.196 158.105 179.441 158.105C179.008 158.105 178.65 157.912 178.468 157.511L178.43 158.041ZM178.484 156.741C178.484 157.34 178.816 157.768 179.383 157.768C179.944 157.768 180.27 157.34 180.27 156.741C180.27 156.147 179.944 155.714 179.383 155.714C178.816 155.714 178.484 156.147 178.484 156.741ZM181.618 158.041H181.249V154.142H181.618V158.041ZM183.489 158.105C182.729 158.105 182.221 157.559 182.221 156.746C182.221 155.939 182.724 155.382 183.462 155.382C184.163 155.382 184.639 155.88 184.639 156.613V156.795H182.58C182.606 157.426 182.938 157.789 183.494 157.789C183.917 157.789 184.19 157.608 184.286 157.265H184.639C184.5 157.811 184.099 158.105 183.489 158.105ZM183.462 155.698C182.975 155.698 182.655 156.019 182.59 156.527H184.27C184.27 156.03 183.949 155.698 183.462 155.698ZM186.9 154.741C186.745 154.741 186.622 154.618 186.622 154.468C186.622 154.318 186.745 154.19 186.9 154.19C187.044 154.19 187.172 154.318 187.172 154.468C187.172 154.618 187.044 154.741 186.9 154.741ZM186.022 159.175L186.092 158.838C186.199 158.864 186.263 158.875 186.343 158.875C186.6 158.875 186.712 158.725 186.712 158.41V155.452H187.082V158.431C187.082 158.923 186.825 159.223 186.37 159.223C186.231 159.223 186.156 159.212 186.022 159.175ZM189.67 155.452H190.039V158.041H189.718L189.67 157.602C189.525 157.902 189.167 158.105 188.76 158.105C188.151 158.105 187.819 157.688 187.819 157.057V155.447H188.193V156.939C188.193 157.554 188.466 157.773 188.878 157.773C189.376 157.773 189.67 157.442 189.67 156.827V155.452ZM190.536 157.313H190.889C190.889 157.613 191.114 157.8 191.477 157.8C191.879 157.8 192.114 157.629 192.114 157.351C192.114 157.137 192.007 157.014 191.702 156.939L191.258 156.827C190.809 156.714 190.59 156.479 190.59 156.126C190.59 155.671 190.969 155.382 191.526 155.382C192.071 155.382 192.424 155.682 192.44 156.163H192.082C192.071 155.864 191.863 155.687 191.515 155.687C191.151 155.687 190.948 155.842 190.948 156.121C190.948 156.318 191.087 156.458 191.37 156.527L191.814 156.639C192.264 156.752 192.467 156.96 192.467 157.335C192.467 157.8 192.071 158.105 191.483 158.105C190.9 158.105 190.536 157.795 190.536 157.313ZM193.668 158.041H193.305V155.762H192.786V155.452H193.305V154.634H193.668V155.452H194.187V155.762H193.668V158.041ZM195.862 155.452H196.258V154.949C196.258 154.366 196.579 154.142 196.975 154.142C197.066 154.142 197.173 154.147 197.258 154.163V154.478H197.039C196.713 154.478 196.627 154.644 196.627 154.949V155.452H197.237V155.762H196.627V158.041H196.258V155.762H195.862V155.452ZM197.479 156.746C197.479 155.955 198.035 155.382 198.795 155.382C199.554 155.382 200.11 155.955 200.11 156.746C200.11 157.533 199.554 158.105 198.795 158.105C198.035 158.105 197.479 157.533 197.479 156.746ZM197.853 156.741C197.853 157.351 198.238 157.773 198.795 157.773C199.346 157.773 199.736 157.351 199.736 156.741C199.736 156.142 199.346 155.714 198.795 155.714C198.238 155.714 197.853 156.142 197.853 156.741ZM202.054 155.42V155.752H201.851C201.375 155.752 201.07 156.072 201.07 156.565V158.041H200.701V155.452H201.048L201.075 155.853C201.177 155.575 201.45 155.393 201.813 155.393C201.894 155.393 201.963 155.398 202.054 155.42ZM203.766 159.169V158.864H204.049C204.274 158.864 204.499 158.848 204.627 158.501L204.739 158.196L203.691 155.452H204.082L204.916 157.709L205.734 155.452H206.114L204.927 158.634C204.777 159.041 204.525 159.207 204.156 159.207C204.001 159.207 203.884 159.196 203.766 159.169ZM206.275 156.746C206.275 155.955 206.831 155.382 207.591 155.382C208.35 155.382 208.907 155.955 208.907 156.746C208.907 157.533 208.35 158.105 207.591 158.105C206.831 158.105 206.275 157.533 206.275 156.746ZM206.649 156.741C206.649 157.351 207.035 157.773 207.591 157.773C208.142 157.773 208.532 157.351 208.532 156.741C208.532 156.142 208.142 155.714 207.591 155.714C207.035 155.714 206.649 156.142 206.649 156.741ZM211.253 155.452H211.622V158.041H211.301L211.253 157.602C211.108 157.902 210.75 158.105 210.344 158.105C209.734 158.105 209.402 157.688 209.402 157.057V155.447H209.777V156.939C209.777 157.554 210.049 157.773 210.461 157.773C210.959 157.773 211.253 157.442 211.253 156.827V155.452ZM213.744 155.42V155.752H213.541C213.065 155.752 212.76 156.072 212.76 156.565V158.041H212.391V155.452H212.738L212.765 155.853C212.867 155.575 213.14 155.393 213.503 155.393C213.583 155.393 213.653 155.398 213.744 155.42ZM215.536 156.752C215.536 155.939 216.034 155.382 216.788 155.382C217.387 155.382 217.825 155.73 217.927 156.265H217.558C217.462 155.907 217.151 155.709 216.793 155.709C216.269 155.709 215.9 156.11 215.9 156.746C215.9 157.361 216.242 157.773 216.766 157.773C217.151 157.773 217.462 157.559 217.563 157.228H217.938C217.815 157.757 217.355 158.105 216.766 158.105C216.034 158.105 215.536 157.565 215.536 156.752ZM220.315 155.452H220.684V158.041H220.364L220.315 157.602C220.171 157.902 219.813 158.105 219.406 158.105C218.796 158.105 218.465 157.688 218.465 157.057V155.447H218.839V156.939C218.839 157.554 219.112 157.773 219.524 157.773C220.021 157.773 220.315 157.442 220.315 156.827V155.452ZM221.182 157.313H221.535C221.535 157.613 221.759 157.8 222.123 157.8C222.524 157.8 222.76 157.629 222.76 157.351C222.76 157.137 222.653 157.014 222.348 156.939L221.904 156.827C221.455 156.714 221.235 156.479 221.235 156.126C221.235 155.671 221.615 155.382 222.171 155.382C222.717 155.382 223.07 155.682 223.086 156.163H222.728C222.717 155.864 222.508 155.687 222.161 155.687C221.797 155.687 221.594 155.842 221.594 156.121C221.594 156.318 221.733 156.458 222.016 156.527L222.46 156.639C222.909 156.752 223.113 156.96 223.113 157.335C223.113 157.8 222.717 158.105 222.128 158.105C221.545 158.105 221.182 157.795 221.182 157.313ZM224.314 158.041H223.95V155.762H223.431V155.452H223.95V154.634H224.314V155.452H224.833V155.762H224.314V158.041ZM225.105 156.746C225.105 155.955 225.662 155.382 226.421 155.382C227.181 155.382 227.737 155.955 227.737 156.746C227.737 157.533 227.181 158.105 226.421 158.105C225.662 158.105 225.105 157.533 225.105 156.746ZM225.48 156.741C225.48 157.351 225.865 157.773 226.421 157.773C226.972 157.773 227.363 157.351 227.363 156.741C227.363 156.142 226.972 155.714 226.421 155.714C225.865 155.714 225.48 156.142 225.48 156.741ZM228.696 158.041H228.327V155.452H228.648L228.691 155.821C228.819 155.548 229.108 155.382 229.472 155.382C229.878 155.382 230.183 155.596 230.306 155.933C230.424 155.596 230.74 155.382 231.157 155.382C231.718 155.382 232.087 155.746 232.087 156.345V158.041H231.729V156.42C231.729 155.976 231.483 155.714 231.087 155.714C230.654 155.714 230.397 156.04 230.397 156.441V158.041H230.034V156.415C230.034 155.976 229.782 155.719 229.392 155.719C228.958 155.719 228.696 156.04 228.696 156.436V158.041ZM233.916 158.105C233.156 158.105 232.648 157.559 232.648 156.746C232.648 155.939 233.151 155.382 233.889 155.382C234.59 155.382 235.066 155.88 235.066 156.613V156.795H233.006C233.033 157.426 233.365 157.789 233.921 157.789C234.344 157.789 234.616 157.608 234.713 157.265H235.066C234.927 157.811 234.525 158.105 233.916 158.105ZM233.889 155.698C233.402 155.698 233.081 156.019 233.017 156.527H234.697C234.697 156.03 234.376 155.698 233.889 155.698ZM237.009 155.42V155.752H236.806C236.33 155.752 236.025 156.072 236.025 156.565V158.041H235.656V155.452H236.003L236.03 155.853C236.132 155.575 236.405 155.393 236.768 155.393C236.848 155.393 236.918 155.398 237.009 155.42ZM237.28 157.313H237.633C237.633 157.613 237.858 157.8 238.222 157.8C238.623 157.8 238.858 157.629 238.858 157.351C238.858 157.137 238.751 157.014 238.446 156.939L238.002 156.827C237.553 156.714 237.334 156.479 237.334 156.126C237.334 155.671 237.714 155.382 238.27 155.382C238.815 155.382 239.168 155.682 239.184 156.163H238.826C238.815 155.864 238.607 155.687 238.259 155.687C237.895 155.687 237.692 155.842 237.692 156.121C237.692 156.318 237.831 156.458 238.115 156.527L238.559 156.639C239.008 156.752 239.211 156.96 239.211 157.335C239.211 157.8 238.815 158.105 238.227 158.105C237.644 158.105 237.28 157.795 237.28 157.313ZM240.093 158.1C239.911 158.1 239.756 157.95 239.756 157.773C239.756 157.591 239.911 157.436 240.093 157.436C240.274 157.436 240.43 157.591 240.43 157.773C240.43 157.95 240.274 158.1 240.093 158.1Z"
            fill="#5E5E5E" />
        <rect x="122.589" y="169.21" width="152.822" height="15.6411" rx="3.05643" fill="#FFDD04" />
        <path
            d="M193.974 179.031H193.45V175.163H193.974L195.953 178.153V175.163H196.477V179.031H195.953L193.974 176.041V179.031ZM198.421 179.095C197.65 179.095 197.121 178.538 197.121 177.725C197.121 176.907 197.64 176.34 198.399 176.34C199.143 176.34 199.629 176.854 199.629 177.629V177.816L197.608 177.822C197.645 178.373 197.934 178.677 198.431 178.677C198.822 178.677 199.078 178.517 199.164 178.218H199.635C199.506 178.779 199.068 179.095 198.421 179.095ZM198.399 176.763C197.961 176.763 197.682 177.025 197.618 177.485H199.127C199.127 177.051 198.843 176.763 198.399 176.763ZM200.359 179.031H199.781L200.696 177.736L199.787 176.415H200.37L201.033 177.388L201.68 176.415H202.253L201.343 177.736L202.237 179.031H201.654L201.001 178.073L200.359 179.031ZM203.515 179.031H203.012V176.838H202.498V176.415H203.012V175.597H203.515V176.415H204.028V176.838H203.515V179.031Z"
            fill="black" />
        <path fill-rule="evenodd" clip-rule="evenodd"
            d="M272.568 23.8331C272.661 23.7399 272.812 23.7399 272.905 23.8331L274.647 25.5745L276.388 23.8331C276.482 23.7399 276.633 23.7399 276.726 23.8331C276.819 23.9264 276.819 24.0776 276.726 24.1708L274.985 25.9122L276.726 27.6537C276.819 27.7469 276.819 27.8981 276.726 27.9914C276.633 28.0846 276.482 28.0846 276.388 27.9914L274.647 26.2499L272.905 27.9914C272.812 28.0846 272.661 28.0846 272.568 27.9914C272.474 27.8981 272.474 27.7469 272.568 27.6537L274.309 25.9122L272.568 24.1708C272.474 24.0776 272.474 23.9264 272.568 23.8331Z"
            fill="#B3B3B3" />
    </g>
    <defs>
        <filter id="filter0_dd_2788_6830" x="107.307" y="15.979" width="183.386" height="190.267"
            filterUnits="userSpaceOnUse" color-interpolation-filters="sRGB">
            <feFlood flood-opacity="0" result="BackgroundImageFix" />
            <feColorMatrix in="SourceAlpha" type="matrix" values="0 0 0 0 0 0 0 0 0 0 0 0 0 0 0 0 0 0 127 0"
                result="hardAlpha" />
            <feMorphology radius="6.11287" operator="erode" in="SourceAlpha" result="effect1_dropShadow_2788_6830" />
            <feOffset dy="6.11287" />
            <feGaussianBlur stdDeviation="6.11287" />
            <feComposite in2="hardAlpha" operator="out" />
            <feColorMatrix type="matrix" values="0 0 0 0 0 0 0 0 0 0 0 0 0 0 0 0 0 0 0.08 0" />
            <feBlend mode="normal" in2="BackgroundImageFix" result="effect1_dropShadow_2788_6830" />
            <feColorMatrix in="SourceAlpha" type="matrix" values="0 0 0 0 0 0 0 0 0 0 0 0 0 0 0 0 0 0 127 0"
                result="hardAlpha" />
            <feMorphology radius="4.58465" operator="erode" in="SourceAlpha" result="effect2_dropShadow_2788_6830" />
            <feOffset dy="4.58465" />
            <feGaussianBlur stdDeviation="4.58465" />
            <feComposite in2="hardAlpha" operator="out" />
            <feColorMatrix type="matrix" values="0 0 0 0 0 0 0 0 0 0 0 0 0 0 0 0 0 0 0.12 0" />
            <feBlend mode="normal" in2="effect1_dropShadow_2788_6830" result="effect2_dropShadow_2788_6830" />
            <feBlend mode="normal" in="SourceGraphic" in2="effect2_dropShadow_2788_6830" result="shape" />
        </filter>
        <filter id="filter1_dddd_2788_6830" x="121.443" y="120.635" width="8.40512" height="8.40512"
            filterUnits="userSpaceOnUse" color-interpolation-filters="sRGB">
            <feFlood flood-opacity="0" result="BackgroundImageFix" />
            <feColorMatrix in="SourceAlpha" type="matrix" values="0 0 0 0 0 0 0 0 0 0 0 0 0 0 0 0 0 0 127 0"
                result="hardAlpha" />
            <feMorphology radius="1.14616" operator="erode" in="SourceAlpha" result="effect1_dropShadow_2788_6830" />
            <feOffset dy="1.14616" />
            <feGaussianBlur stdDeviation="1.14616" />
            <feComposite in2="hardAlpha" operator="out" />
            <feColorMatrix type="matrix" values="0 0 0 0 0 0 0 0 0 0 0 0 0 0 0 0 0 0 0.05 0" />
            <feBlend mode="normal" in2="BackgroundImageFix" result="effect1_dropShadow_2788_6830" />
            <feColorMatrix in="SourceAlpha" type="matrix" values="0 0 0 0 0 0 0 0 0 0 0 0 0 0 0 0 0 0 127 0"
                result="hardAlpha" />
            <feMorphology radius="0.764108" operator="erode" in="SourceAlpha" result="effect2_dropShadow_2788_6830" />
            <feOffset dy="0.764108" />
            <feGaussianBlur stdDeviation="0.764108" />
            <feComposite in2="hardAlpha" operator="out" />
            <feColorMatrix type="matrix" values="0 0 0 0 0 0 0 0 0 0 0 0 0 0 0 0 0 0 0.05 0" />
            <feBlend mode="normal" in2="effect1_dropShadow_2788_6830" result="effect2_dropShadow_2788_6830" />
            <feColorMatrix in="SourceAlpha" type="matrix" values="0 0 0 0 0 0 0 0 0 0 0 0 0 0 0 0 0 0 127 0"
                result="hardAlpha" />
            <feMorphology radius="0.382054" operator="erode" in="SourceAlpha" result="effect3_dropShadow_2788_6830" />
            <feOffset dy="0.382054" />
            <feGaussianBlur stdDeviation="0.382054" />
            <feComposite in2="hardAlpha" operator="out" />
            <feColorMatrix type="matrix" values="0 0 0 0 0 0 0 0 0 0 0 0 0 0 0 0 0 0 0.05 0" />
            <feBlend mode="normal" in2="effect2_dropShadow_2788_6830" result="effect3_dropShadow_2788_6830" />
            <feColorMatrix in="SourceAlpha" type="matrix" values="0 0 0 0 0 0 0 0 0 0 0 0 0 0 0 0 0 0 127 0"
                result="hardAlpha" />
            <feMorphology radius="0.382054" operator="erode" in="SourceAlpha" result="effect4_dropShadow_2788_6830" />
            <feOffset dy="0.382054" />
            <feComposite in2="hardAlpha" operator="out" />
            <feColorMatrix type="matrix" values="0 0 0 0 0 0 0 0 0 0 0 0 0 0 0 0 0 0 0.05 0" />
            <feBlend mode="normal" in2="effect3_dropShadow_2788_6830" result="effect4_dropShadow_2788_6830" />
            <feBlend mode="normal" in="SourceGraphic" in2="effect4_dropShadow_2788_6830" result="shape" />
        </filter>
        <filter id="filter2_dddd_2788_6830" x="121.443" y="142.512" width="8.40512" height="8.40512"
            filterUnits="userSpaceOnUse" color-interpolation-filters="sRGB">
            <feFlood flood-opacity="0" result="BackgroundImageFix" />
            <feColorMatrix in="SourceAlpha" type="matrix" values="0 0 0 0 0 0 0 0 0 0 0 0 0 0 0 0 0 0 127 0"
                result="hardAlpha" />
            <feMorphology radius="1.14616" operator="erode" in="SourceAlpha" result="effect1_dropShadow_2788_6830" />
            <feOffset dy="1.14616" />
            <feGaussianBlur stdDeviation="1.14616" />
            <feComposite in2="hardAlpha" operator="out" />
            <feColorMatrix type="matrix" values="0 0 0 0 0 0 0 0 0 0 0 0 0 0 0 0 0 0 0.05 0" />
            <feBlend mode="normal" in2="BackgroundImageFix" result="effect1_dropShadow_2788_6830" />
            <feColorMatrix in="SourceAlpha" type="matrix" values="0 0 0 0 0 0 0 0 0 0 0 0 0 0 0 0 0 0 127 0"
                result="hardAlpha" />
            <feMorphology radius="0.764108" operator="erode" in="SourceAlpha" result="effect2_dropShadow_2788_6830" />
            <feOffset dy="0.764108" />
            <feGaussianBlur stdDeviation="0.764108" />
            <feComposite in2="hardAlpha" operator="out" />
            <feColorMatrix type="matrix" values="0 0 0 0 0 0 0 0 0 0 0 0 0 0 0 0 0 0 0.05 0" />
            <feBlend mode="normal" in2="effect1_dropShadow_2788_6830" result="effect2_dropShadow_2788_6830" />
            <feColorMatrix in="SourceAlpha" type="matrix" values="0 0 0 0 0 0 0 0 0 0 0 0 0 0 0 0 0 0 127 0"
                result="hardAlpha" />
            <feMorphology radius="0.382054" operator="erode" in="SourceAlpha" result="effect3_dropShadow_2788_6830" />
            <feOffset dy="0.382054" />
            <feGaussianBlur stdDeviation="0.382054" />
            <feComposite in2="hardAlpha" operator="out" />
            <feColorMatrix type="matrix" values="0 0 0 0 0 0 0 0 0 0 0 0 0 0 0 0 0 0 0.05 0" />
            <feBlend mode="normal" in2="effect2_dropShadow_2788_6830" result="effect3_dropShadow_2788_6830" />
            <feColorMatrix in="SourceAlpha" type="matrix" values="0 0 0 0 0 0 0 0 0 0 0 0 0 0 0 0 0 0 127 0"
                result="hardAlpha" />
            <feMorphology radius="0.382054" operator="erode" in="SourceAlpha" result="effect4_dropShadow_2788_6830" />
            <feOffset dy="0.382054" />
            <feComposite in2="hardAlpha" operator="out" />
            <feColorMatrix type="matrix" values="0 0 0 0 0 0 0 0 0 0 0 0 0 0 0 0 0 0 0.05 0" />
            <feBlend mode="normal" in2="effect3_dropShadow_2788_6830" result="effect4_dropShadow_2788_6830" />
            <feBlend mode="normal" in="SourceGraphic" in2="effect4_dropShadow_2788_6830" result="shape" />
        </filter>
        <clipPath id="clip0_2788_6830">
            <rect width="152.822" height="19.5282" fill="white" transform="translate(122.589 52.656)" />
        </clipPath>
    </defs>
</svg>