<svg width="16" height="16" viewBox="0 0 16 16" fill="none" xmlns="http://www.w3.org/2000/svg">
    <path
        d="M14.1544 8.61156C14.1544 10.3751 10.2016 12.8 8.00005 12.8C5.79849 12.8 1.8457 10.316 1.8457 8.61156C1.8457 6.02531 4.47971 2.88 8.00005 2.88C11.5204 2.88 14.1544 6.02531 14.1544 8.61156Z"
        fill="url(#paint0_linear_219_4871)" />
    <path
        d="M12.8495 7.15584L13.0047 7.69415C13.289 8.68037 12.8307 9.72926 11.9139 10.1907L9.49995 11.4056C8.58491 11.8661 7.50469 11.8607 6.59429 11.3911L4.282 10.1982C3.37696 9.73134 2.9281 8.68988 3.21019 7.71136L3.36975 7.15786C3.4576 6.85312 3.75537 6.65869 4.0697 6.7008L7.20562 7.12099C7.76174 7.19551 8.32524 7.19657 8.88164 7.12414L12.1519 6.69847C12.4655 6.65766 12.7619 6.85199 12.8495 7.15584Z"
        fill="#221A53" />
    <rect x="6.02185" y="7.9502" width="1.09899" height="1.984" rx="0.549495" fill="url(#paint1_linear_219_4871)" />
    <rect x="6.02185" y="7.9502" width="1.09899" height="1.984" rx="0.549495" fill="url(#paint2_linear_219_4871)" />
    <rect x="8.87927" y="7.9502" width="1.09899" height="1.984" rx="0.549495" fill="url(#paint3_linear_219_4871)" />
    <rect x="8.87927" y="7.9502" width="1.09899" height="1.984" rx="0.549495" fill="url(#paint4_linear_219_4871)" />
    <path
        d="M1.4388 3.05755C1.4403 3.01799 1.4728 2.98669 1.51239 2.98669C1.55198 2.98669 1.58448 3.01799 1.58598 3.05755L1.71702 6.50747C1.72143 6.62354 1.62854 6.72003 1.51239 6.72003C1.39624 6.72003 1.30335 6.62354 1.30776 6.50747L1.4388 3.05755Z"
        fill="url(#paint5_linear_219_4871)" />
    <rect x="13.7147" y="6.18665" width="1.53859" height="3.968" rx="0.769293" fill="url(#paint6_linear_219_4871)" />
    <rect x="0.746704" y="6.18665" width="1.53859" height="3.968" rx="0.769293" fill="url(#paint7_linear_219_4871)" />
    <defs>
        <linearGradient id="paint0_linear_219_4871" x1="8.00005" y1="2.88" x2="8.00005" y2="12.8"
            gradientUnits="userSpaceOnUse">
            <stop stop-color="#9786FD" />
            <stop offset="1" stop-color="#9463FB" />
        </linearGradient>
        <linearGradient id="paint1_linear_219_4871" x1="6.57135" y1="7.9502" x2="6.57135" y2="9.9342"
            gradientUnits="userSpaceOnUse">
            <stop stop-color="#3CA8F6" />
            <stop offset="1" stop-color="#054B9C" />
        </linearGradient>
        <linearGradient id="paint2_linear_219_4871" x1="6.57135" y1="7.9502" x2="6.57135" y2="9.9342"
            gradientUnits="userSpaceOnUse">
            <stop stop-color="white" />
            <stop offset="1" stop-color="white" />
        </linearGradient>
        <linearGradient id="paint3_linear_219_4871" x1="9.42877" y1="7.9502" x2="9.42877" y2="9.9342"
            gradientUnits="userSpaceOnUse">
            <stop stop-color="#3CA8F6" />
            <stop offset="1" stop-color="#054B9C" />
        </linearGradient>
        <linearGradient id="paint4_linear_219_4871" x1="9.42877" y1="7.9502" x2="9.42877" y2="9.9342"
            gradientUnits="userSpaceOnUse">
            <stop stop-color="white" />
            <stop offset="1" stop-color="white" />
        </linearGradient>
        <linearGradient id="paint5_linear_219_4871" x1="1.51239" y1="2.98669" x2="1.51239" y2="6.72003"
            gradientUnits="userSpaceOnUse">
            <stop stop-color="#9786FD" />
            <stop offset="1" stop-color="#9463FB" />
        </linearGradient>
        <linearGradient id="paint6_linear_219_4871" x1="14.484" y1="6.18665" x2="14.484" y2="10.1546"
            gradientUnits="userSpaceOnUse">
            <stop stop-color="#9786FD" />
            <stop offset="1" stop-color="#9463FB" />
        </linearGradient>
        <linearGradient id="paint7_linear_219_4871" x1="1.516" y1="6.18665" x2="1.516" y2="10.1546"
            gradientUnits="userSpaceOnUse">
            <stop stop-color="#9786FD" />
            <stop offset="1" stop-color="#9463FB" />
        </linearGradient>
    </defs>
</svg>