<svg width="207" height="32" viewBox="0 0 207 32" fill="none" xmlns="http://www.w3.org/2000/svg">
<g clip-path="url(#clip0_2949_702)">
<path d="M0.00299072 8.073C0.901714 8.073 1.80044 8.073 2.7264 8.073C3.07324 8.59327 3.412 9.10492 3.72677 9.64291C3.80256 9.77134 3.87834 9.89978 3.95412 10.0282C3.99285 10.0941 4.03159 10.1599 4.07149 10.2278C4.69417 11.2862 5.32322 12.3396 5.9754 13.3802C6.24851 13.8174 6.51443 14.2578 6.77389 14.7033C6.83202 14.803 6.89015 14.9028 6.95004 15.0055C7.06224 15.1988 7.17381 15.3925 7.28467 15.5865C7.33452 15.6725 7.38438 15.7584 7.43574 15.8469C7.47965 15.9236 7.52355 16.0002 7.56879 16.0792C7.60776 16.1333 7.64673 16.1874 7.68688 16.2432C7.75108 16.2432 7.81527 16.2432 7.88141 16.2432C7.91949 16.1768 7.95758 16.1104 7.99682 16.0419C8.67391 14.8621 9.35259 13.6836 10.056 12.5192C10.3403 12.0483 10.6223 11.5762 10.9019 11.1026C10.9362 11.0447 10.9704 10.9867 11.0057 10.927C11.174 10.642 11.3421 10.3569 11.51 10.0717C11.572 9.96668 11.634 9.86166 11.6979 9.75347C11.7521 9.66143 11.8063 9.5694 11.8622 9.47457C12.1489 9.00282 12.4482 8.53877 12.7446 8.073C13.6434 8.073 14.5421 8.073 15.468 8.073C15.468 12.5987 15.468 17.1244 15.468 21.7873C14.473 21.7873 13.478 21.7873 12.4528 21.7873C12.4469 21.3793 12.4411 20.9713 12.435 20.551C12.43 20.2204 12.425 19.8898 12.4199 19.5593C12.4145 19.2132 12.4094 18.8672 12.4045 18.5211C12.3836 17.047 12.3619 15.5746 12.2583 14.1034C12.2154 14.1762 12.2154 14.1762 12.1716 14.2504C11.4585 15.4588 10.7435 16.6659 10.0273 17.8724C9.98784 17.9389 9.94837 18.0054 9.90771 18.0739C9.86896 18.1392 9.83022 18.2045 9.7903 18.2717C9.75236 18.3357 9.71442 18.3997 9.67533 18.4656C9.60101 18.5906 9.52637 18.7153 9.4514 18.8399C9.2895 19.1094 9.13411 19.3781 8.98829 19.6569C8.61162 20.3631 8.61162 20.3631 8.19486 20.5088C7.7351 20.5766 7.32012 20.5561 6.90877 20.3283C6.39102 19.7924 6.07032 19.0966 5.73391 18.439C5.41285 17.8133 5.04689 17.2177 4.6771 16.62C4.50449 16.3404 4.33419 16.0594 4.1637 15.7785C4.10677 15.685 4.04984 15.5915 3.99119 15.4951C3.73038 15.0644 3.47177 14.6324 3.21272 14.2007C3.18062 16.7042 3.14852 19.2078 3.11545 21.7873C2.08834 21.7873 1.06123 21.7873 0.00299072 21.7873C0.00299072 17.2616 0.00299072 12.7359 0.00299072 8.073Z" fill="#AEAEAE"/>
<path d="M32.1428 9.4225C33.511 10.6074 34.5093 12.1495 34.6504 13.9921C34.7569 16.1192 34.416 18.0575 32.9574 19.6839C31.5994 21.1161 29.7741 21.9291 27.8107 22.0125C25.6022 22.0697 23.5717 21.6587 21.8875 20.1337C21.8222 20.0773 21.7568 20.0209 21.6895 19.9628C20.3179 18.6995 19.7717 16.9454 19.6325 15.1356C19.5735 13.2576 20.2496 11.557 21.435 10.133C24.1519 7.24377 29.0442 7.06032 32.1428 9.4225ZM23.6732 12.3571C23.0102 13.3556 22.808 14.5942 23.0091 15.7663C23.2996 17.0156 23.8783 17.9971 24.9756 18.7173C26.1059 19.3378 27.3 19.3892 28.5163 19.054C29.5126 18.7396 30.3329 18.1385 30.8445 17.2087C31.4304 16.0488 31.566 14.8858 31.2488 13.6151C30.8981 12.5659 30.2919 11.6899 29.3179 11.1394C27.2941 10.1603 25.0968 10.5811 23.6732 12.3571Z" fill="#AEAEAE"/>
<path d="M91.3343 8.073C92.4416 8.06698 93.549 8.06096 94.6899 8.05476C95.2095 8.05078 95.2095 8.05078 95.7395 8.04671C96.1708 8.0454 96.1708 8.0454 96.3744 8.04515C96.513 8.04471 96.6516 8.0437 96.7902 8.04219C98.6073 8.02349 100.451 8.2427 101.839 9.53197C102.799 10.4815 103.246 11.4775 103.307 12.844C103.314 14.2144 102.978 15.4135 102.033 16.4377C101.127 17.2176 101.127 17.2176 100.574 17.3131C100.999 18.0084 101.456 18.6773 101.924 19.3435C101.983 19.4275 102.042 19.5114 102.103 19.5979C102.323 19.9111 102.543 20.2242 102.764 20.5367C102.89 20.7142 103.015 20.892 103.14 21.07C103.209 21.1675 103.278 21.2651 103.349 21.3656C103.492 21.5928 103.492 21.5928 103.492 21.7873C100.537 22.1408 100.537 22.1408 99.6879 21.5912C99.062 20.9425 98.6842 20.1205 98.3263 19.3026C98.0241 18.5898 98.0241 18.5898 97.4619 18.0912C96.5266 17.8876 95.5949 17.9639 94.6413 17.994C94.6413 19.2458 94.6413 20.4976 94.6413 21.7873C93.55 21.7873 92.4587 21.7873 91.3343 21.7873C91.3343 17.2616 91.3343 12.7359 91.3343 8.073ZM94.6413 10.6991C94.6413 12.2398 94.6413 13.7805 94.6413 15.3678C95.4267 15.3799 95.4267 15.3799 96.2279 15.3921C96.3908 15.3957 96.5537 15.3992 96.7216 15.4029C97.6813 15.4149 98.4673 15.3187 99.3039 14.8025C99.8363 14.2378 100.023 13.637 100.012 12.8751C99.9533 12.2302 99.6741 11.7338 99.2127 11.2827C98.1516 10.6328 96.9985 10.6839 95.7902 10.6931C95.4111 10.6951 95.0319 10.6971 94.6413 10.6991Z" fill="#AEAEAE"/>
<path d="M56.9027 8.073C57.9619 8.073 59.0211 8.073 60.1124 8.073C60.1124 9.83835 60.1124 11.6037 60.1124 13.4225C62.1346 13.4225 64.1567 13.4225 66.2401 13.4225C66.2401 11.6572 66.2401 9.89184 66.2401 8.073C67.2993 8.073 68.3585 8.073 69.4498 8.073C69.4498 12.5987 69.4498 17.1244 69.4498 21.7873C68.3906 21.7873 67.3314 21.7873 66.2401 21.7873C66.2401 19.9577 66.2401 18.1282 66.2401 16.2432C64.218 16.2432 62.1958 16.2432 60.1124 16.2432C60.1124 18.0728 60.1124 19.9023 60.1124 21.7873C59.0532 21.7873 57.994 21.7873 56.9027 21.7873C56.9027 17.2616 56.9027 12.7359 56.9027 8.073Z" fill="#AEAEAE"/>
<path d="M44.1028 13.308C44.1893 13.3067 44.2757 13.3055 44.3648 13.3042C44.4585 13.3035 44.5521 13.3027 44.6485 13.302C44.7459 13.3012 44.8432 13.3004 44.9435 13.2996C45.1505 13.2983 45.3574 13.2972 45.5644 13.2965C45.7735 13.2954 45.9826 13.2934 46.1916 13.2905C48.3397 13.2607 50.1994 13.488 51.8183 15.0467C51.8913 15.1205 51.9643 15.1944 52.0395 15.2705C52.1084 15.3373 52.1774 15.4041 52.2484 15.473C53.4831 16.7479 53.9261 18.4961 53.9019 20.2298C53.8126 22.0415 53.1785 23.7283 51.8449 24.9969C50.6189 26.0095 49.2582 26.6644 47.6522 26.6615C47.5857 26.6615 47.5192 26.6615 47.4507 26.6615C47.2328 26.6614 47.0149 26.6607 46.7971 26.6599C46.6452 26.6597 46.4934 26.6596 46.3416 26.6595C45.9435 26.6591 45.5453 26.6582 45.1472 26.6571C44.7403 26.6561 44.3335 26.6556 43.9266 26.6552C43.1294 26.6541 42.3321 26.6525 41.5349 26.6504C41.5065 26.7098 41.4781 26.7691 41.4489 26.8303C41.3115 27.095 41.1364 27.303 40.9452 27.5319C40.8677 27.6268 40.7903 27.7217 40.7104 27.8195C40.5522 28.0063 40.3888 28.189 40.2195 28.3658C39.6469 28.9857 39.484 29.4748 39.4449 30.2997C39.3539 30.9186 38.9672 31.3042 38.498 31.6831C37.9744 32.0537 37.3873 32.0594 36.7689 32C36.1341 31.8746 35.6979 31.5384 35.31 31.0273C34.9539 30.4186 34.9027 29.721 35.0786 29.044C35.2997 28.4662 35.6476 28.0323 36.1854 27.7203C36.3705 27.6798 36.5572 27.6457 36.7446 27.617C37.5443 27.4554 37.9229 26.8564 38.3909 26.2371C38.5643 26.0078 38.7458 25.7854 38.927 25.5623C38.9868 25.4867 39.0466 25.4111 39.1082 25.3332C39.3272 25.0571 39.5492 24.7836 39.772 24.5106C39.8799 24.3782 39.8799 24.3782 39.9901 24.2431C40.1732 24.0243 40.1732 24.0243 40.3677 23.8297C40.6602 23.8046 40.6602 23.8046 41.0409 23.8034C41.1102 23.8029 41.1795 23.8023 41.2509 23.8018C41.4018 23.8008 41.5527 23.8003 41.7036 23.8001C41.9434 23.7997 42.1831 23.7981 42.4229 23.7961C43.1047 23.7907 43.7866 23.7878 44.4685 23.7854C44.8856 23.7838 45.3027 23.7809 45.7198 23.7771C45.8779 23.776 46.036 23.7754 46.1941 23.7754C47.598 23.7753 48.8306 23.6796 49.8966 22.677C50.7507 21.7686 50.92 20.7895 50.8993 19.5835C50.8562 18.5948 50.4108 17.7923 49.6983 17.1242C48.7635 16.3442 47.7516 16.2331 46.5676 16.2226C46.3947 16.2199 46.2218 16.2171 46.049 16.2142C45.779 16.2102 45.509 16.2066 45.239 16.2041C44.9766 16.2014 44.7144 16.1969 44.4521 16.1922C44.3716 16.1919 44.2912 16.1916 44.2083 16.1912C43.6226 16.1788 43.2954 16.0584 42.8723 15.6352C42.623 15.2434 42.5598 14.9222 42.6477 14.4623C42.7871 13.9774 42.9355 13.6909 43.3829 13.4224C43.6535 13.3323 43.8228 13.3115 44.1028 13.308Z" fill="#AEAEAE"/>
<path d="M56.0273 2.82068C55.9711 3.45679 55.8904 4.08265 55.7784 4.71126C55.7639 4.79362 55.7494 4.87597 55.7345 4.96083C55.704 5.13282 55.6733 5.30477 55.6425 5.47669C55.5954 5.74053 55.5494 6.00457 55.5036 6.26863C55.4737 6.43645 55.4437 6.60425 55.4137 6.77205C55.4001 6.85097 55.3865 6.92988 55.3725 7.01119C55.2714 7.56438 55.2714 7.56438 55.0547 7.78117C55.0089 7.73791 54.9631 7.69465 54.916 7.65009C54.8554 7.59504 54.7949 7.54 54.7325 7.48329C54.6727 7.428 54.6129 7.37271 54.5512 7.31574C54.4927 7.27675 54.4341 7.23775 54.3738 7.19758C53.9914 7.32504 53.8471 7.56773 53.6139 7.87843C53.5189 8.0023 53.4236 8.12603 53.3282 8.24963C53.252 8.34839 53.252 8.34839 53.1743 8.44915C52.8895 8.81325 52.5953 9.16948 52.3009 9.52585C52.245 9.59361 52.1892 9.66138 52.1317 9.7312C51.9718 9.92467 51.8118 10.1179 51.6504 10.31C51.6207 10.367 51.5911 10.424 51.5605 10.4827C51.4154 10.7177 51.3011 10.8408 51.0668 10.9909C50.5007 11.091 49.9398 11.0743 49.3666 11.065C49.1977 11.0649 49.0288 11.0652 48.86 11.0658C48.4156 11.0667 47.9714 11.064 47.5272 11.0601C46.8179 11.0541 46.1087 11.0522 45.3995 11.0532C45.1532 11.0528 44.907 11.0499 44.6607 11.0467C43.5645 11.0402 42.5998 11.1603 41.715 11.8758C40.9205 12.6921 40.6134 13.6404 40.5379 14.7538C40.5576 15.7679 40.9116 16.7402 41.5995 17.4894C42.4739 18.2879 43.4917 18.5082 44.6451 18.5068C44.8305 18.5088 45.0159 18.5108 45.2013 18.5129C45.4905 18.5151 45.7797 18.5167 46.0689 18.5173C46.3502 18.5182 46.6313 18.5215 46.9126 18.5251C46.9986 18.5246 47.0846 18.5241 47.1733 18.5236C47.7084 18.5321 48.0163 18.6102 48.4407 18.9666C48.798 19.3709 48.893 19.6881 48.8674 20.2139C48.7908 20.6447 48.5367 20.9039 48.2513 21.2168C47.8031 21.4906 47.3852 21.4538 46.8696 21.4499C46.7634 21.4502 46.6573 21.4506 46.5479 21.451C46.3229 21.4513 46.098 21.4505 45.8731 21.4489C45.533 21.4468 45.1932 21.4489 44.8531 21.4514C43.7231 21.4528 42.6923 21.4412 41.6322 21.0091C41.5644 20.9822 41.4966 20.9552 41.4268 20.9275C40.6358 20.5809 39.9974 20.0616 39.3951 19.4529C39.3344 19.3955 39.2737 19.338 39.2112 19.2789C37.9442 17.9834 37.5945 16.1963 37.6032 14.4531C37.6485 12.6465 38.3354 11.0913 39.6052 9.80548C40.8248 8.66977 42.366 8.03832 44.0415 8.07305C44.1684 8.07519 44.2954 8.07734 44.4262 8.07954C44.5266 8.08141 44.5266 8.08141 44.6291 8.08331C45.0635 8.09025 45.498 8.09078 45.9324 8.09244C46.3124 8.09425 46.6922 8.09833 47.0721 8.1073C48.7826 8.23713 48.7826 8.23713 50.3221 7.7127C50.6105 7.41321 50.7861 7.08221 50.9696 6.71126C51.0785 6.56776 51.1908 6.42668 51.3081 6.2899C51.3961 6.17726 51.4839 6.06443 51.5714 5.95138C51.6176 5.89214 51.6638 5.83289 51.7114 5.77186C51.821 5.63127 51.9303 5.49044 52.0395 5.34955C51.9652 5.27734 51.891 5.20512 51.8145 5.13071C51.607 4.91829 51.4352 4.71281 51.2613 4.47417C51.8929 4.23803 52.5248 4.00262 53.1569 3.76772C53.372 3.6877 53.587 3.6075 53.8019 3.52713C54.1106 3.41177 54.4194 3.29701 54.7283 3.18238C54.8247 3.14621 54.921 3.11004 55.0203 3.07278C55.1098 3.03968 55.1994 3.00657 55.2917 2.97246C55.3705 2.94309 55.4493 2.91372 55.5306 2.88345C55.7355 2.82068 55.7355 2.82068 56.0273 2.82068Z" fill="#AEAEAE"/>
<path d="M78.7872 8.073C79.8464 8.073 80.9056 8.073 81.9969 8.073C82.4908 9.04554 82.9605 10.0216 83.3986 11.0204C83.5655 11.401 83.7338 11.781 83.9019 12.1611C83.9369 12.2404 83.9719 12.3196 84.008 12.4013C84.403 13.2949 84.8048 14.1854 85.2066 15.076C85.8529 16.5092 86.4942 17.9444 87.1312 19.3817C87.1615 19.45 87.1918 19.5183 87.223 19.5887C87.2812 19.7201 87.3394 19.8515 87.3976 19.9829C87.6074 20.4561 87.8231 20.9264 88.0428 21.3951C88.1246 21.5928 88.1246 21.5928 88.1246 21.7873C87.0012 21.7873 85.8777 21.7873 84.7203 21.7873C84.4328 21.2123 84.1668 20.6454 83.9179 20.0548C83.8825 19.9726 83.8472 19.8904 83.8107 19.8057C83.7774 19.7268 83.744 19.6479 83.7097 19.5665C83.6795 19.4956 83.6494 19.4247 83.6184 19.3516C83.5531 19.1611 83.5531 19.1611 83.5531 18.8693C81.4668 18.8693 79.3805 18.8693 77.2309 18.8693C77.1346 19.1903 77.0384 19.5113 76.9391 19.842C76.8775 20.0086 76.8133 20.1743 76.7439 20.3378C76.7101 20.4176 76.6764 20.4974 76.6417 20.5796C76.6074 20.6592 76.5732 20.7388 76.5379 20.8207C76.4855 20.9451 76.4855 20.9451 76.4319 21.072C76.1749 21.6762 76.1749 21.6762 76.0638 21.7873C75.8186 21.7959 75.5761 21.7985 75.3309 21.7968C75.221 21.7966 75.221 21.7966 75.1088 21.7964C74.874 21.7958 74.6391 21.7946 74.4042 21.7934C74.2453 21.7929 74.0864 21.7924 73.9276 21.792C73.5373 21.791 73.147 21.7893 72.7568 21.7873C72.9426 21.1956 73.1609 20.6313 73.419 20.0677C73.4719 19.9508 73.4719 19.9508 73.5258 19.8316C73.601 19.6656 73.6763 19.4996 73.7519 19.3338C73.8715 19.0711 73.9906 18.8081 74.1096 18.5451C74.2294 18.2802 74.3493 18.0153 74.4693 17.7505C74.7727 17.0812 75.073 16.4105 75.3708 15.7387C75.4144 15.6404 75.458 15.5421 75.5029 15.4408C75.5992 15.2235 75.6956 15.0063 75.7919 14.789C76.1369 14.0107 76.4827 13.2326 76.8284 12.4546C76.9532 12.1737 77.0779 11.8928 77.2026 11.6119C77.7272 10.4306 78.2559 9.2513 78.7872 8.073ZM80.3434 11.38C80.1288 11.9024 79.9143 12.4248 79.6999 12.9472C79.6271 13.1246 79.5543 13.3019 79.4814 13.4792C79.3761 13.7357 79.2708 13.9921 79.1656 14.2485C79.1336 14.3265 79.1015 14.4044 79.0685 14.4848C78.9744 14.7141 78.8808 14.9437 78.7872 15.1733C78.7508 15.2614 78.7145 15.3496 78.6771 15.4404C78.6414 15.5278 78.6057 15.6152 78.569 15.7053C78.5199 15.8248 78.5199 15.8248 78.4699 15.9467C78.3871 16.1411 78.3871 16.1411 78.3981 16.3405C79.7141 16.3405 81.0301 16.3405 82.386 16.3405C82.314 15.9808 82.2452 15.718 82.108 15.3882C82.071 15.2987 82.034 15.2091 81.9959 15.1169C81.936 14.9739 81.936 14.9739 81.8749 14.8279C81.8341 14.7293 81.7932 14.6307 81.7511 14.5291C81.6207 14.2148 81.4896 13.9007 81.3586 13.5867C81.27 13.3734 81.1814 13.16 81.0928 12.9467C80.8759 12.4242 80.6585 11.902 80.4407 11.38C80.4086 11.38 80.3765 11.38 80.3434 11.38Z" fill="#AEAEAE"/>
<path d="M105.535 8.0729C106.009 8.05118 106.483 8.03535 106.957 8.02482C107.118 8.02043 107.28 8.01446 107.441 8.00687C108.759 7.94625 108.759 7.94625 109.147 8.21887C109.306 8.45264 109.41 8.68875 109.523 8.94828C109.622 9.12294 109.726 9.29383 109.831 9.46506C109.949 9.65666 110.063 9.84972 110.177 10.0434C110.216 10.1099 110.255 10.1764 110.296 10.2449C110.336 10.3125 110.375 10.3801 110.416 10.4498C110.58 10.7276 110.744 11.0054 110.909 11.283C110.969 11.3844 110.969 11.3844 111.03 11.4878C111.397 12.1067 111.771 12.7207 112.154 13.3299C112.441 13.7909 112.441 13.7909 112.441 14.006C112.505 14.006 112.569 14.006 112.635 14.006C112.661 13.9377 112.686 13.8693 112.712 13.7988C112.839 13.4975 112.99 13.2262 113.156 12.9441C113.188 12.889 113.22 12.8338 113.253 12.777C113.359 12.5968 113.465 12.4169 113.571 12.237C113.626 12.1447 113.626 12.1447 113.681 12.0506C114.231 11.1161 114.79 10.1878 115.359 9.26439C115.426 9.15566 115.492 9.04694 115.561 8.93491C116.026 8.18351 116.026 8.18351 116.137 8.0729C116.375 8.0643 116.61 8.06169 116.848 8.06341C116.955 8.06361 116.955 8.06361 117.064 8.06382C117.292 8.06437 117.52 8.06559 117.748 8.06682C117.902 8.06731 118.056 8.06776 118.21 8.06815C118.589 8.06923 118.968 8.07091 119.346 8.0729C119.007 8.79063 118.616 9.4678 118.2 10.1436C118.053 10.3824 117.907 10.6219 117.761 10.8612C117.686 10.9845 117.61 11.1077 117.535 11.2309C117.299 11.6168 117.065 12.0037 116.832 12.3917C116.744 12.5389 116.744 12.5389 116.653 12.6891C116.535 12.888 116.418 13.0876 116.302 13.288C115.994 13.8163 115.672 14.3067 115.293 14.7868C113.683 16.9256 113.899 19.2034 113.997 21.7872C112.938 21.7872 111.878 21.7872 110.787 21.7872C110.799 21.4607 110.812 21.1342 110.824 20.7978C110.888 18.2641 110.877 16.4478 109.273 14.4169C108.888 13.9205 108.584 13.3721 108.269 12.8301C108.091 12.5246 107.909 12.2217 107.727 11.9186C107.691 11.8588 107.655 11.799 107.618 11.7374C107.352 11.2932 107.082 10.8511 106.811 10.4095C106.734 10.2834 106.657 10.1573 106.58 10.0311C106.433 9.79241 106.287 9.55413 106.14 9.31606C106.074 9.20949 106.009 9.10292 105.942 8.99312C105.884 8.89963 105.827 8.80614 105.767 8.70982C105.648 8.49147 105.579 8.31579 105.535 8.0729Z" fill="#AEAEAE"/>
<path d="M134.325 8.26746C134.775 8.26746 135.224 8.26746 135.687 8.26746C135.778 8.42518 135.868 8.58291 135.962 8.74542C136.608 9.86882 137.257 10.9902 137.918 12.1051C138.325 12.7902 138.728 13.477 139.13 14.1643C139.236 14.3449 139.342 14.5255 139.448 14.7061C139.781 15.2739 140.114 15.8423 140.443 16.4122C140.558 16.6091 140.673 16.8061 140.787 17.003C140.839 17.0942 140.892 17.1853 140.946 17.2792C140.994 17.3612 141.041 17.4432 141.091 17.5277C141.132 17.5994 141.174 17.6711 141.216 17.745C141.253 17.795 141.29 17.8451 141.328 17.8966C141.392 17.8966 141.457 17.8966 141.523 17.8966C141.554 17.8411 141.585 17.7855 141.617 17.7283C142.277 16.5532 142.945 15.383 143.626 14.2198C144.046 13.5017 144.463 12.7818 144.878 12.0608C145.432 11.0986 145.99 10.1387 146.551 9.18045C146.631 9.04297 146.631 9.04297 146.713 8.90271C146.784 8.78169 146.784 8.78169 146.857 8.65822C146.93 8.53002 147.001 8.39974 147.067 8.26746C147.516 8.26746 147.966 8.26746 148.429 8.26746C148.429 12.729 148.429 17.1905 148.429 21.7872C147.947 21.7872 147.466 21.7872 146.97 21.7872C146.937 18.3849 146.905 14.9826 146.872 11.4772C145.899 13.1224 145.899 13.1224 144.933 14.772C144.819 14.9677 144.705 15.1634 144.591 15.359C144.534 15.4565 144.478 15.5539 144.419 15.6543C144.245 15.9539 144.07 16.2534 143.895 16.5528C143.837 16.6517 143.78 16.7505 143.72 16.8524C143.606 17.0483 143.491 17.2439 143.376 17.4393C143.104 17.9026 142.839 18.3674 142.588 18.8431C142.542 18.9297 142.495 19.0164 142.447 19.1057C142.36 19.2676 142.276 19.4308 142.194 19.5955C141.928 20.0853 141.928 20.0853 141.631 20.212C141.393 20.2418 141.258 20.2271 141.036 20.1337C140.781 19.8769 140.624 19.5753 140.453 19.2583C140.342 19.0704 140.232 18.8826 140.121 18.6949C140.002 18.4877 139.884 18.2804 139.766 18.0729C139.636 17.8462 139.506 17.6195 139.376 17.3928C139.343 17.3363 139.311 17.2797 139.277 17.2214C138.98 16.7044 138.678 16.1906 138.374 15.6778C138.011 15.066 137.649 14.4535 137.29 13.8396C137.252 13.7753 137.215 13.7111 137.176 13.6448C136.989 13.3262 136.803 13.0075 136.617 12.6887C136.549 12.5722 136.48 12.4557 136.412 12.3393C136.352 12.2362 136.292 12.1332 136.23 12.0271C136.119 11.8407 136.002 11.6577 135.881 11.4772C135.849 14.8795 135.817 18.2818 135.784 21.7872C135.303 21.7872 134.821 21.7872 134.325 21.7872C134.325 17.3257 134.325 12.8642 134.325 8.26746Z" fill="#AEAEAE"/>
<path d="M204.939 7.39209C205.421 7.39209 205.902 7.39209 206.398 7.39209C206.398 12.1425 206.398 16.8929 206.398 21.7872C205.917 21.7872 205.435 21.7872 204.939 21.7872C204.907 21.2737 204.875 20.7601 204.842 20.231C204.722 20.3634 204.601 20.4958 204.477 20.6322C203.642 21.4678 202.567 21.9011 201.39 21.9165C201.317 21.916 201.245 21.9155 201.17 21.9149C201.055 21.9141 201.055 21.9141 200.938 21.9132C199.553 21.8846 198.371 21.4061 197.359 20.4498C196.348 19.3491 195.949 17.926 195.971 16.4521C196.061 15.0827 196.501 13.6876 197.547 12.7416C198.776 11.7392 200.156 11.3605 201.729 11.4772C202.98 11.661 203.859 12.1377 204.745 13.0334C204.777 13.0976 204.809 13.1618 204.842 13.228C204.874 11.3021 204.906 9.37628 204.939 7.39209ZM198.593 13.769C197.661 14.7613 197.5 15.8465 197.52 17.1391C197.564 18.2534 198.096 19.0668 198.884 19.8176C199.659 20.4592 200.541 20.6483 201.535 20.6201C202.595 20.4831 203.526 20.0299 204.206 19.1949C204.891 18.148 205.117 16.9398 204.873 15.7158C204.563 14.6199 204.067 13.8351 203.091 13.228C201.608 12.4499 199.842 12.6305 198.593 13.769Z" fill="#AEAEAE"/>
<path d="M171.869 7.39209C172.351 7.39209 172.832 7.39209 173.328 7.39209C173.36 9.25373 173.392 11.1154 173.425 13.0334C173.682 12.7766 173.939 12.5199 174.204 12.2553C175.485 11.4866 176.956 11.2684 178.416 11.5927C179.4 11.8748 180.247 12.3879 180.773 13.2906C181.288 14.3674 181.331 15.3821 181.323 16.5536C181.323 16.705 181.322 16.8564 181.322 17.0078C181.321 17.4035 181.319 17.7992 181.317 18.195C181.315 18.5999 181.314 19.0048 181.313 19.4098C181.311 20.2023 181.308 20.9947 181.304 21.7872C180.822 21.7872 180.341 21.7872 179.845 21.7872C179.844 21.5994 179.843 21.4115 179.842 21.218C179.839 20.5926 179.833 19.9672 179.827 19.3418C179.823 18.9631 179.82 18.5845 179.819 18.2058C179.817 17.8394 179.814 17.473 179.809 17.1066C179.808 16.9679 179.807 16.8291 179.807 16.6903C179.806 15.6041 179.745 14.3756 178.941 13.5551C178.111 12.8923 177.173 12.8756 176.149 12.9362C175.366 13.0641 174.635 13.4028 174.127 14.0247C173.464 15.042 173.382 16.1573 173.376 17.3419C173.374 17.4698 173.372 17.5977 173.37 17.7295C173.366 18.0652 173.363 18.401 173.36 18.7368C173.357 19.0811 173.353 19.4254 173.349 19.7697C173.34 20.4422 173.334 21.1147 173.328 21.7872C172.847 21.7872 172.365 21.7872 171.869 21.7872C171.869 17.0368 171.869 12.2864 171.869 7.39209Z" fill="#AEAEAE"/>
<path d="M159.595 12.4712C160.626 13.2615 161.13 14.5229 161.365 15.7569C161.365 16.2063 161.365 16.6556 161.365 17.1186C158.572 17.1186 155.78 17.1186 152.903 17.1186C153.228 18.42 153.551 19.2837 154.681 19.9784C155.748 20.561 156.881 20.6489 158.057 20.3523C158.589 20.1762 159.013 19.945 159.443 19.5859C159.614 19.4529 159.614 19.4529 160.003 19.2584C160.26 19.5473 160.517 19.8362 160.781 20.1338C160.016 21.1152 159.006 21.6984 157.766 21.8846C156.192 21.9937 154.702 21.8754 153.389 20.9119C153.32 20.862 153.252 20.8121 153.181 20.7607C152.268 20.0323 151.614 18.8594 151.444 17.7022C151.368 16.5445 151.375 15.4756 151.833 14.3952C151.86 14.3242 151.887 14.2533 151.914 14.1801C152.358 13.1451 153.342 12.2654 154.37 11.839C156.204 11.2045 157.98 11.3803 159.595 12.4712ZM153.535 14.1874C153.104 14.8008 152.997 15.2939 152.903 16.0487C155.246 16.0487 157.589 16.0487 160.003 16.0487C159.685 14.7788 159.369 13.8962 158.261 13.2105C156.597 12.3057 154.723 12.7411 153.535 14.1874Z" fill="#AEAEAE"/>
<path d="M192.605 12.6139C193.546 13.4042 194.163 14.5343 194.337 15.7568C194.441 17.4456 194.22 18.9621 193.103 20.31C192.21 21.2477 190.952 21.8501 189.654 21.9076C187.946 21.9475 186.627 21.5985 185.322 20.4316C184.271 19.3271 183.877 17.8928 183.907 16.4031C184.001 14.9756 184.482 13.7175 185.547 12.7348C187.596 11.0698 190.501 11.0451 192.605 12.6139ZM186.532 13.769C185.77 14.5891 185.397 15.6168 185.386 16.7264C185.447 17.9272 185.879 18.9395 186.746 19.7766C187.525 20.413 188.431 20.6542 189.419 20.6079C190.43 20.5054 191.276 20.1217 191.973 19.3738C192.735 18.4286 192.961 17.3369 192.878 16.1459C192.73 15.1021 192.306 14.2074 191.486 13.5258C189.952 12.4434 187.941 12.4826 186.532 13.769Z" fill="#AEAEAE"/>
<path d="M164.283 9.3374C164.764 9.3374 165.246 9.3374 165.742 9.3374C165.742 10.0756 165.742 10.8139 165.742 11.5745C166.769 11.5745 167.796 11.5745 168.854 11.5745C168.854 11.9917 168.854 12.409 168.854 12.8389C167.827 12.8389 166.8 12.8389 165.742 12.8389C165.75 13.9436 165.75 13.9436 165.762 15.0483C165.767 15.4993 165.772 15.9503 165.775 16.4013C165.778 16.7652 165.782 17.1291 165.787 17.4929C165.788 17.6313 165.789 17.7696 165.79 17.908C165.785 19.1152 165.785 19.1152 166.313 20.1702C166.824 20.5612 167.352 20.6036 167.979 20.5228C168.221 20.434 168.442 20.3316 168.668 20.2094C168.854 20.1338 168.854 20.1338 169.146 20.231C169.266 20.3971 169.266 20.3971 169.371 20.6018C169.424 20.7021 169.424 20.7021 169.479 20.8043C169.535 21.0091 169.535 21.0091 169.474 21.2158C169.309 21.4407 169.172 21.5063 168.915 21.611C168.84 21.6424 168.765 21.6739 168.688 21.7063C167.734 22.0529 166.592 22.0028 165.664 21.6056C165.089 21.31 164.726 20.9207 164.494 20.3107C164.251 19.509 164.245 18.7307 164.254 17.9016C164.255 17.7549 164.255 17.6081 164.255 17.4613C164.256 17.0787 164.259 16.6961 164.263 16.3134C164.266 15.9216 164.267 15.5296 164.268 15.1377C164.271 14.3715 164.277 13.6052 164.283 12.8389C163.705 12.8389 163.127 12.8389 162.532 12.8389C162.532 12.4217 162.532 12.0044 162.532 11.5745C163.11 11.5745 163.687 11.5745 164.283 11.5745C164.283 10.8362 164.283 10.098 164.283 9.3374Z" fill="#AEAEAE"/>
<path d="M124.891 0C125.083 0 125.276 0 125.474 0C125.474 9.85386 125.474 19.7077 125.474 29.8602C125.282 29.8602 125.089 29.8602 124.891 29.8602C124.891 20.0063 124.891 10.1525 124.891 0Z" fill="#AEAEAE"/>
</g>
<defs>
<clipPath id="clip0_2949_702">
<rect width="206.395" height="32" fill="white" transform="translate(0.00299072)"/>
</clipPath>
</defs>
</svg>
