<svg width="113" height="28" viewBox="0 0 113 28" fill="none" xmlns="http://www.w3.org/2000/svg">
<path d="M4.01595 24.692H7.20413V27.9633H0.134693V0.683603H7.20413V3.95495H4.01595V24.692ZM13.9662 4.28763V20.6444H22.0614V24.8029H9.47506V4.28763H13.9662ZM23.902 17.0958V4.28763H28.3932V16.7908C28.3932 19.3691 29.807 20.783 32.3299 20.783C34.8804 20.783 36.322 19.3136 36.322 16.7908V4.28763H40.8132V17.0958C40.8132 21.9751 37.4864 25.1355 32.3299 25.1355C27.2011 25.1355 23.902 22.0028 23.902 17.0958ZM50.1533 14.5452L43.5552 4.28763H48.9058L50.6246 6.97679C51.3732 8.14117 52.094 9.38871 53.0088 11.0798L57.1119 4.28763H62.3516L55.8643 14.5452L62.3516 24.8029H57.0287L55.6703 22.6682C54.6445 21.0325 53.9791 19.8127 52.9811 17.9829L48.5731 24.8029H43.3057L50.1533 14.5452ZM76.675 16.7908H69.4669V24.8029H64.9758V4.28763H78.0334V8.44612H69.4669V12.7432H76.675V16.7908ZM85.6027 4.28763V24.8029H81.1116V4.28763H85.6027ZM88.3032 8.44612V4.28763H104.438V8.44612H98.6162V24.8029H94.1251V8.44612H88.3032ZM105.675 27.9633V24.692H108.863V3.95495H105.675V0.683603H112.744V27.9633H105.675Z" fill="#AEAEAE"/>
</svg>
