<svg width="103" height="32" viewBox="0 0 103 32" fill="none" xmlns="http://www.w3.org/2000/svg">
<g clip-path="url(#clip0_2949_647)">
<path d="M15.2066 -0.0101318C15.5685 0.151178 15.865 0.373392 16.1757 0.614868C17.8175 1.83051 19.666 2.61959 21.5891 3.27918C21.7101 3.32088 21.7101 3.32088 21.8334 3.36343C23.9929 4.09138 26.2748 4.43499 28.5383 4.62751C28.6599 4.63879 28.7814 4.65007 28.9067 4.66169C29.0141 4.67052 29.1215 4.67936 29.2322 4.68847C29.5541 4.76025 29.6638 4.81164 29.8435 5.08837C29.8874 5.40341 29.8874 5.40341 29.8886 5.78978C29.8897 6.00595 29.8897 6.00595 29.8907 6.22648C29.8894 6.38421 29.8878 6.54194 29.8859 6.69967C29.8854 6.77994 29.8849 6.8602 29.8843 6.9429C29.8335 13.6014 28.0675 20.1852 23.8506 25.4417C23.7597 25.5557 23.6687 25.6697 23.575 25.7871C21.737 28.0459 19.5822 29.8621 17.0662 31.3216C16.8805 31.4307 16.8805 31.4307 16.6912 31.542C15.9848 31.929 15.3827 32.2016 14.5785 32C12.8123 31.2905 11.1405 30.2001 9.71633 28.947C9.62406 28.8671 9.5318 28.7873 9.43674 28.705C8.14396 27.5659 7.01402 26.3684 5.98488 24.9894C5.938 24.928 5.89112 24.8666 5.84282 24.8033C4.45083 22.9777 1.75762 19.3432 1.9332 16.9258C3.20454 12.8193 5.76426 8.34631 9.37711 5.87989C8.21992 6.12555 7.14783 6.4735 6.05875 6.93797C5.92161 6.9958 5.92161 6.9958 5.7817 7.0548C5.70084 7.08982 5.61998 7.12483 5.53667 7.16091C5.30644 7.23678 5.30644 7.23678 4.85414 7.23678C5.17116 6.19471 5.81148 5.35751 6.49371 4.52299C6.54326 4.4606 6.59281 4.39821 6.64386 4.33392C7.18992 3.6853 7.8962 3.50319 8.67161 3.24591C10.6624 2.58146 12.6723 1.71207 14.3332 0.402191C14.8441 0.00261845 14.8441 0.00261845 15.2066 -0.0101318ZM8.24636 8.93289C8.24636 9.15678 8.24636 9.38066 8.24636 9.61133C8.34985 9.61687 8.45334 9.62241 8.55997 9.62812C8.69436 9.63657 8.82875 9.64503 8.96721 9.65374C9.16792 9.66554 9.16792 9.66554 9.37269 9.67759C9.71633 9.72441 9.71633 9.72441 9.94248 9.95056C10.1227 10.9563 10.0723 12.0132 10.0706 13.0314C10.0706 13.1965 10.0708 13.3616 10.0709 13.5268C10.0711 13.8722 10.0708 14.2177 10.0703 14.5631C10.0697 14.9951 10.07 15.4271 10.0707 15.8591C10.0735 18.0382 10.0357 20.2113 9.94248 22.3887C9.10149 22.4382 9.10149 22.4382 8.83628 22.453C8.45198 22.445 8.45198 22.445 8.13329 22.6149C8.1287 22.8033 8.12846 22.9918 8.13329 23.1802C9.23921 23.1881 10.3451 23.1942 11.4511 23.1978C11.9648 23.1996 12.4784 23.202 12.9921 23.2058C13.4892 23.2096 13.9863 23.2116 14.4834 23.2124C14.6717 23.213 14.86 23.2143 15.0482 23.2161C17.5005 23.2392 19.7432 22.7899 21.6033 21.0742C23.0928 19.5093 23.577 17.5736 23.5427 15.4704C23.4712 13.6945 22.775 12.0798 21.476 10.8552C19.4275 9.1439 16.982 8.91289 14.4191 8.92185C14.2405 8.92206 14.062 8.92222 13.8834 8.92233C13.4167 8.92276 12.9499 8.92387 12.4832 8.92513C12.0056 8.92629 11.528 8.9268 11.0505 8.92737C10.1158 8.92858 9.18107 8.9305 8.24636 8.93289Z" fill="#AEAEAE"/>
<path d="M14.5856 9.54765C14.7132 9.55047 14.7132 9.55047 14.8434 9.55334C16.3198 9.61408 17.7072 10.2758 18.7623 11.3074C19.3853 12.0631 19.7944 12.8741 20.1192 13.795C20.1607 13.9123 20.2023 14.0297 20.2451 14.1506C20.7139 16.1893 20.3383 18.3579 19.3025 20.1492C18.585 21.2815 17.6023 22.039 16.3078 22.4275C15.3811 22.6122 14.3763 22.6997 13.5609 22.1625C13.0611 21.5782 13.043 21.1113 13.0483 20.378C13.0473 20.2685 13.0463 20.1591 13.0453 20.0463C13.0427 19.6855 13.0435 19.3249 13.0445 18.9642C13.0439 18.713 13.0432 18.4618 13.0424 18.2106C13.0412 17.6847 13.0417 17.1588 13.0434 16.6329C13.0453 15.9588 13.0427 15.2849 13.0387 14.6108C13.0362 14.0923 13.0364 13.5739 13.0373 13.0554C13.0374 12.8068 13.0366 12.5583 13.035 12.3098C13.033 11.9624 13.0346 11.6153 13.0372 11.268C13.0359 11.1654 13.0346 11.0628 13.0332 10.957C13.0407 10.457 13.0601 10.2411 13.369 9.83017C13.7709 9.54169 14.1085 9.52987 14.5856 9.54765Z" fill="#AEAEAE"/>
<path d="M6.32412 4.07069C6.19603 4.45497 6.03518 4.56038 5.72783 4.80656C5.35765 5.12648 5.05519 5.50618 4.74108 5.87988C4.65333 5.98162 4.56558 6.08336 4.47518 6.18818C3.78925 6.99303 3.17939 7.82807 2.59267 8.70673C2.99008 8.62304 3.34113 8.47371 3.71237 8.31053C3.841 8.25478 3.96963 8.19903 4.10216 8.14158C4.37242 8.02374 4.64245 7.90537 4.91224 7.78646C5.04101 7.73085 5.16979 7.67525 5.30247 7.61795C5.47847 7.54087 5.47847 7.54087 5.65801 7.46223C5.98025 7.35144 6.21285 7.32629 6.55027 7.34984C6.38229 7.84275 6.1158 8.22931 5.80822 8.64313C4.25378 10.7913 3.08082 13.0018 2.31548 15.553C2.28218 15.6617 2.24888 15.7705 2.21458 15.8825C2.18637 15.9791 2.15817 16.0756 2.12911 16.1751C2.09551 16.2479 2.06191 16.3207 2.0273 16.3958C1.85938 16.4518 1.85938 16.4518 1.68807 16.5089C0.838667 13.3325 0.322254 10.1831 0.302915 6.89048C0.301859 6.76602 0.300802 6.64156 0.299713 6.51333C0.305375 5.11417 0.305375 5.11417 0.670407 4.74914C0.94136 4.70959 1.21057 4.67637 1.48269 4.6471C1.56518 4.63776 1.64767 4.62842 1.73266 4.61879C2.08612 4.57878 2.4397 4.53991 2.79328 4.50093C4.11841 4.35704 4.11841 4.35704 5.42811 4.11334C5.72848 4.05446 6.01937 4.05465 6.32412 4.07069Z" fill="#AEAEAE"/>
<path d="M38.4372 7.91516C42.6072 7.91516 42.6072 7.91516 43.6386 8.93283C44.2263 9.65515 44.4904 10.4729 44.4575 11.4054C44.3484 12.366 44.0079 13.0265 43.2994 13.6819C42.5944 14.2401 41.8985 14.3901 41.0101 14.3825C40.8743 14.3819 40.7385 14.3813 40.5987 14.3808C40.4288 14.3787 40.2589 14.3766 40.0838 14.3745C39.5404 14.3699 38.9971 14.3652 38.4372 14.3604C38.4372 12.2335 38.4372 10.1065 38.4372 7.91516ZM39.9072 9.27205C39.9072 10.5407 39.9072 11.8094 39.9072 13.1166C41.2359 13.184 41.2359 13.184 42.3453 12.6157C42.8436 12.0466 42.8876 11.5586 42.878 10.8317C42.8162 10.2002 42.558 9.86582 42.0768 9.44873C41.4227 9.17323 41.4227 9.17323 39.9072 9.27205Z" fill="#AEAEAE"/>
<path d="M97.8011 7.91523C98.6407 7.90474 98.6407 7.90474 99.4973 7.89403C99.672 7.89094 99.8468 7.88786 100.027 7.88467C101.786 7.87403 101.786 7.87403 102.381 8.4067C102.929 9.01682 103.05 9.55768 103.03 10.3543C102.973 10.9212 102.734 11.2669 102.317 11.6325C101.985 11.8728 101.985 11.8728 101.759 11.8728C102.096 12.5743 102.46 13.2454 102.874 13.9046C103.003 14.1343 103.003 14.1343 103.003 14.3605C102.443 14.3605 101.883 14.3605 101.306 14.3605C101.117 14.0263 100.929 13.6917 100.741 13.3569C100.687 13.2617 100.633 13.1666 100.578 13.0685C100.527 12.9774 100.476 12.8863 100.423 12.7924C100.376 12.7084 100.328 12.6243 100.28 12.5376C100.176 12.3251 100.176 12.3251 100.176 12.099C99.8772 12.099 99.5787 12.099 99.2711 12.099C99.2711 12.8453 99.2711 13.5916 99.2711 14.3605C98.786 14.3605 98.3009 14.3605 97.8011 14.3605C97.8011 12.2335 97.8011 10.1066 97.8011 7.91523ZM99.2711 9.27212C99.2711 9.79453 99.2711 10.3169 99.2711 10.8552C99.523 10.8598 99.7749 10.8645 100.034 10.8693C100.247 10.8732 100.247 10.8732 100.464 10.8772C100.826 10.8568 101.011 10.8294 101.306 10.629C101.501 10.3598 101.535 10.2202 101.518 9.88697C101.392 9.53505 101.293 9.45454 100.967 9.27212C100.665 9.24801 100.391 9.23985 100.091 9.25092C100.012 9.25245 99.9332 9.25398 99.8519 9.25556C99.6583 9.25954 99.4647 9.26562 99.2711 9.27212Z" fill="#AEAEAE"/>
<path d="M50.9884 7.91519C51.8 7.9047 51.8 7.9047 52.628 7.89399C52.8813 7.88936 52.8813 7.88936 53.1397 7.88463C54.0981 7.87864 54.8247 7.89619 55.6033 8.50176C56.0481 9.07364 56.2277 9.5752 56.1828 10.3039C56.0994 10.8821 55.9163 11.3052 55.4438 11.6749C55.2821 11.785 55.1145 11.8863 54.946 11.9859C55.3058 12.6585 55.6691 13.3214 56.09 13.958C56.1898 14.1343 56.1898 14.1343 56.1898 14.3604C55.6219 14.4763 55.0435 14.5859 54.4937 14.3604C53.9598 13.8391 53.6618 13.1114 53.363 12.4382C53.3257 12.3635 53.2884 12.2889 53.2499 12.212C52.9514 12.1747 52.6529 12.1374 52.3453 12.0989C52.3453 12.8452 52.3453 13.5915 52.3453 14.3604C51.8976 14.3604 51.4498 14.3604 50.9884 14.3604C50.9884 12.2335 50.9884 10.1066 50.9884 7.91519ZM52.3453 9.27208C52.3453 9.79448 52.3453 10.3169 52.3453 10.8551C52.6164 10.8674 52.8869 10.8763 53.158 10.8834C53.2342 10.8872 53.3104 10.891 53.3888 10.8949C53.7989 10.9029 54.0238 10.866 54.3754 10.6484C54.6359 10.4162 54.6359 10.4162 54.6704 10.0636C54.5907 9.63854 54.5015 9.52783 54.1545 9.27208C53.8272 9.23922 53.5462 9.2289 53.2216 9.24381C53.1374 9.24585 53.0532 9.24789 52.9663 9.25C52.7593 9.25531 52.5523 9.26342 52.3453 9.27208Z" fill="#AEAEAE"/>
<path d="M64.4443 7.91516C65.0786 7.91516 65.713 7.91516 66.3665 7.91516C66.6871 8.74197 67.0071 9.569 67.3265 10.3963C67.4352 10.6777 67.5442 10.959 67.6533 11.2402C67.81 11.6445 67.9662 12.049 68.1223 12.4536C68.1956 12.6421 68.1956 12.6421 68.2704 12.8345C68.3157 12.9522 68.3609 13.0698 68.4076 13.1911C68.4675 13.3459 68.4675 13.3459 68.5286 13.5038C68.628 13.795 68.628 13.795 68.7411 14.3604C68.1814 14.3604 67.6216 14.3604 67.045 14.3604C66.933 14.0619 66.8211 13.7634 66.7057 13.4558C65.8475 13.4558 64.9893 13.4558 64.105 13.4558C63.9931 13.7543 63.8812 14.0528 63.7658 14.3604C63.2061 14.3604 62.6464 14.3604 62.0697 14.3604C62.3051 13.542 62.5798 12.7505 62.8873 11.9567C62.932 11.8403 62.9767 11.724 63.0227 11.6041C63.164 11.2365 63.3059 10.8691 63.4478 10.5017C63.5443 10.2509 63.6409 9.99998 63.7373 9.74908C63.9725 9.13761 64.2083 8.52633 64.4443 7.91516ZM65.3489 9.61127C65.2163 9.96441 65.0846 10.3178 64.9531 10.6713C64.9153 10.7719 64.8776 10.8725 64.8387 10.9761C64.803 11.0723 64.7673 11.1685 64.7305 11.2676C64.6973 11.3565 64.6642 11.4453 64.63 11.5368C64.5457 11.7564 64.5457 11.7564 64.5573 11.9858C65.1171 11.9858 65.6768 11.9858 66.2534 11.9858C66.0429 11.1648 65.7949 10.3906 65.4619 9.61127C65.4246 9.61127 65.3873 9.61127 65.3489 9.61127Z" fill="#AEAEAE"/>
<path d="M86.6068 7.91516C88.0994 7.91516 89.592 7.91516 91.1298 7.91516C91.1298 8.36294 91.1298 8.81071 91.1298 9.27205C90.085 9.27205 89.0402 9.27205 87.9637 9.27205C87.9637 9.6452 87.9637 10.0183 87.9637 10.4028C89.0085 10.4028 90.0533 10.4028 91.1298 10.4028C91.1298 10.8506 91.1298 11.2983 91.1298 11.7597C90.085 11.7597 89.0402 11.7597 87.9637 11.7597C87.9637 12.2075 87.9637 12.6552 87.9637 13.1166C89.0085 13.1166 90.0533 13.1166 91.1298 13.1166C91.1298 13.527 91.1298 13.9375 91.1298 14.3604C89.6372 14.3604 88.1446 14.3604 86.6068 14.3604C86.6068 12.2335 86.6068 10.1065 86.6068 7.91516Z" fill="#AEAEAE"/>
<path d="M74.9601 7.91522C75.8032 7.90472 75.8032 7.90472 76.6633 7.89402C76.8391 7.89093 77.0149 7.88784 77.196 7.88466C77.3364 7.88381 77.4768 7.88297 77.6214 7.88209C77.7641 7.88032 77.9068 7.87854 78.0538 7.87671C78.6607 7.93349 79.0907 8.11843 79.5679 8.50886C79.9509 8.97697 80.1383 9.39779 80.204 10C80.1292 10.7102 79.9719 11.2142 79.4266 11.6961C79.0171 12.0257 78.6854 12.1133 78.1638 12.11C78.0728 12.1097 77.9818 12.1094 77.8881 12.1092C77.7731 12.1081 77.6581 12.1071 77.5396 12.106C76.9904 12.1025 76.9904 12.1025 76.4301 12.099C76.4301 12.8453 76.4301 13.5915 76.4301 14.3604C75.945 14.3604 75.4599 14.3604 74.9601 14.3604C74.9601 12.2335 74.9601 10.1066 74.9601 7.91522ZM76.4301 9.27211C76.4301 9.79451 76.4301 10.3169 76.4301 10.8551C76.6796 10.8645 76.9292 10.8738 77.1863 10.8834C77.3267 10.8887 77.467 10.8939 77.6116 10.8993C78.0796 10.8478 78.2584 10.7428 78.5785 10.4029C78.6633 10.0023 78.6633 10.0023 78.5785 9.61133C78.2963 9.30139 78.1337 9.27271 77.711 9.23898C77.5573 9.24122 77.4036 9.24524 77.2499 9.25091C77.171 9.25244 77.0922 9.25397 77.0109 9.25555C76.8173 9.25953 76.6237 9.26561 76.4301 9.27211Z" fill="#AEAEAE"/>
<path d="M46.2393 19.1095C46.6315 19.3056 46.7873 19.407 47.0671 19.7137C47.1364 19.7889 47.2058 19.8642 47.2773 19.9417C47.3499 20.0215 47.4225 20.1014 47.4973 20.1837C47.6483 20.3476 47.7995 20.5113 47.9509 20.6749C48.0248 20.7549 48.0988 20.8349 48.175 20.9174C48.6103 21.3828 49.0644 21.8285 49.5185 22.2756C49.5558 21.2681 49.5931 20.2606 49.6315 19.2226C49.8927 19.2226 50.1539 19.2226 50.4231 19.2226C50.4231 20.8644 50.4231 22.5062 50.4231 24.1978C50.0405 24.0065 49.8926 23.9193 49.624 23.6223C49.5604 23.5528 49.4967 23.4833 49.4311 23.4117C49.3643 23.3376 49.2975 23.2636 49.2287 23.1872C48.6259 22.5286 48.0101 21.8901 47.3714 21.2663C47.1439 21.0318 47.1439 21.0318 47.0308 20.8056C46.9935 21.8504 46.9562 22.8952 46.9178 23.9717C46.6939 23.9717 46.47 23.9717 46.2393 23.9717C46.2393 22.3672 46.2393 20.7626 46.2393 19.1095Z" fill="#AEAEAE"/>
<path d="M74.2817 19.2227C76.1641 19.2227 76.1641 19.2227 76.7128 19.6891C76.9286 20.1027 77.0193 20.4517 76.9955 20.9188C76.8261 21.3912 76.6412 21.6826 76.204 21.9364C76.1293 21.9364 76.0547 21.9364 75.9778 21.9364C76.0568 22.0455 76.1358 22.1545 76.2172 22.2668C76.3212 22.4111 76.4251 22.5554 76.5291 22.6997C76.5811 22.7714 76.6331 22.8431 76.6867 22.917C76.9318 23.2579 77.1649 23.5854 77.3347 23.9718C76.988 24.0191 76.7645 24.0488 76.4301 23.9718C76.1424 23.7144 75.9612 23.4047 75.7658 23.0742C75.6605 22.9057 75.5548 22.7374 75.4487 22.5694C75.4035 22.4942 75.3583 22.419 75.3118 22.3415C75.1947 22.1444 75.1947 22.1444 74.9602 22.0495C74.9602 22.6839 74.9602 23.3182 74.9602 23.9718C74.7363 23.9718 74.5124 23.9718 74.2817 23.9718C74.2817 22.4046 74.2817 20.8374 74.2817 19.2227ZM74.9602 19.9011C74.9602 20.4235 74.9602 20.9459 74.9602 21.4841C75.5954 21.4487 75.5954 21.4487 76.1545 21.1803C76.3465 20.921 76.3465 20.921 76.3241 20.5725C76.2302 20.2276 76.2302 20.2276 75.9566 20.0283C75.5907 19.8591 75.5907 19.8591 74.9602 19.9011Z" fill="#AEAEAE"/>
<path d="M38.4372 19.2227C38.6611 19.2227 38.885 19.2227 39.1156 19.2227C39.1173 19.3184 39.1189 19.4142 39.1206 19.5129C39.1276 19.8708 39.136 20.2286 39.1453 20.5864C39.1491 20.7408 39.1522 20.8952 39.1548 21.0496C39.1586 21.2725 39.1647 21.4954 39.1709 21.7182C39.1738 21.8521 39.1768 21.9859 39.1798 22.1238C39.2339 22.5418 39.3503 22.8211 39.5679 23.1803C39.9175 23.3551 40.2005 23.3265 40.5856 23.2933C40.9478 23.0265 41.0711 22.8216 41.151 22.3887C41.1676 22.1434 41.1789 21.8977 41.1868 21.652C41.1915 21.5106 41.1962 21.3692 41.2011 21.2235C41.2056 21.0763 41.21 20.9291 41.2146 20.7774C41.2195 20.6285 41.2243 20.4795 41.2294 20.326C41.2414 19.9582 41.2529 19.5905 41.2641 19.2227C41.4879 19.2227 41.7118 19.2227 41.9425 19.2227C41.9538 19.7053 41.9619 20.1879 41.9673 20.6706C41.9696 20.8344 41.9727 20.9983 41.9766 21.1621C42.0163 22.8556 42.0163 22.8556 41.4902 23.6326C41.0004 24.0927 40.4976 24.1237 39.8515 24.1171C39.3285 24.0576 39.0212 23.7825 38.6845 23.3993C38.4082 22.9485 38.4223 22.5267 38.4262 22.0164C38.4263 21.9366 38.4265 21.8567 38.4266 21.7745C38.4273 21.5199 38.4287 21.2653 38.4301 21.0106C38.4307 20.8379 38.4312 20.6651 38.4317 20.4923C38.4329 20.0691 38.4349 19.6459 38.4372 19.2227Z" fill="#AEAEAE"/>
<path d="M67.4973 19.2227C68.3555 19.2227 69.2137 19.2227 70.098 19.2227C70.098 19.4465 70.098 19.6704 70.098 19.9011C69.4636 19.9011 68.8293 19.9011 68.1757 19.9011C68.1757 20.2742 68.1757 20.6474 68.1757 21.0318C68.7727 21.0318 69.3698 21.0318 69.9849 21.0318C69.9849 21.2557 69.9849 21.4796 69.9849 21.7103C69.3879 21.7103 68.7908 21.7103 68.1757 21.7103C68.1757 22.27 68.1757 22.8297 68.1757 23.4064C68.81 23.4064 69.4444 23.4064 70.098 23.4064C70.098 23.593 70.098 23.7795 70.098 23.9718C69.2397 23.9718 68.3815 23.9718 67.4973 23.9718C67.4973 22.4046 67.4973 20.8374 67.4973 19.2227Z" fill="#AEAEAE"/>
<path d="M83.3276 19.2226C83.6881 19.4488 83.6881 19.4488 83.893 19.6749C83.8557 19.8242 83.8184 19.9735 83.7799 20.1272C83.5821 20.205 83.5821 20.205 83.3276 20.2403C83.2553 20.1843 83.1831 20.1284 83.1086 20.0707C82.8832 19.8685 82.8832 19.8685 82.5785 19.9223C82.293 19.998 82.293 19.998 82.0838 20.2403C82.0649 20.4675 82.0649 20.4675 82.1969 20.6926C82.5236 20.9059 82.5236 20.9059 82.9178 21.0884C83.7646 21.5015 83.7646 21.5015 84.0061 21.9364C84.147 22.427 84.1548 22.843 83.999 23.3286C83.6881 23.7599 83.3935 24.0335 82.855 24.1281C82.3968 24.1513 82.1208 24.1026 81.7022 23.9011C81.3744 23.6045 81.2162 23.3689 81.0662 22.9541C81.1035 22.8421 81.1408 22.7302 81.1792 22.6149C81.4407 22.5795 81.4407 22.5795 81.7446 22.6149C81.9354 22.8905 81.9354 22.8905 82.0838 23.1802C82.4074 23.342 82.6311 23.3371 82.9884 23.2933C83.2427 23.0062 83.3293 22.8349 83.3232 22.4501C83.1625 22.0248 82.9045 21.9572 82.5008 21.7668C81.9664 21.5131 81.6155 21.3097 81.2923 20.8057C81.2429 20.3362 81.2283 19.9487 81.5185 19.5619C82.0264 19.1031 82.6816 19.1306 83.3276 19.2226Z" fill="#AEAEAE"/>
<path d="M59.3559 19.2227C59.6171 19.2227 59.8783 19.2227 60.1474 19.2227C60.5579 20.2301 60.9683 21.2376 61.3912 22.2757C61.6047 21.9555 61.7405 21.6642 61.8868 21.3097C61.9371 21.1883 61.9874 21.067 62.0392 20.942C62.0912 20.8154 62.1433 20.6888 62.1969 20.5583C62.2763 20.3665 62.2763 20.3665 62.3572 20.1708C62.4878 19.8549 62.6181 19.5388 62.7481 19.2227C63.0093 19.2227 63.2705 19.2227 63.5396 19.2227C63.3262 19.8875 63.0897 20.5363 62.821 21.1807C62.769 21.3065 62.769 21.3065 62.716 21.4349C62.6069 21.6988 62.4973 21.9625 62.3877 22.2262C62.3129 22.4068 62.2382 22.5873 62.1635 22.7679C61.9818 23.2071 61.7997 23.646 61.6174 24.0848C61.5054 24.0848 61.3935 24.0848 61.2782 24.0848C61.0402 23.5199 60.8028 22.9546 60.5659 22.3891C60.4854 22.1971 60.4046 22.005 60.3238 21.8131C60.2071 21.5362 60.0911 21.2591 59.9752 20.9819C59.9392 20.897 59.9033 20.812 59.8663 20.7245C59.6601 20.2297 59.4927 19.741 59.3559 19.2227Z" fill="#AEAEAE"/>
<path d="M99.3842 19.2226C99.7451 19.1696 99.7451 19.1696 100.176 19.2226C100.425 19.4696 100.573 19.7606 100.734 20.0706C100.779 20.1515 100.824 20.2324 100.87 20.3158C100.981 20.5153 101.087 20.7168 101.193 20.9187C101.505 20.5469 101.746 20.1817 101.971 19.7526C102.144 19.4544 102.144 19.4544 102.324 19.2226C102.706 19.1519 102.706 19.1519 103.003 19.2226C102.94 19.6293 102.842 19.9029 102.61 20.2416C101.786 21.5068 101.455 22.4589 101.533 23.9717C101.309 23.9717 101.085 23.9717 100.854 23.9717C100.862 23.8441 100.869 23.7166 100.877 23.5852C100.912 22.0015 100.371 20.9612 99.5069 19.6583C99.3842 19.4487 99.3842 19.4487 99.3842 19.2226Z" fill="#AEAEAE"/>
<path d="M92.939 19.2227C93.9091 19.2227 94.8793 19.2227 95.8789 19.2227C95.8789 19.4465 95.8789 19.6704 95.8789 19.9011C95.5057 19.9011 95.1326 19.9011 94.7482 19.9011C94.7482 21.2444 94.7482 22.5877 94.7482 23.9718C94.5243 23.9718 94.3004 23.9718 94.0697 23.9718C94.0697 22.6285 94.0697 21.2851 94.0697 19.9011C93.6966 19.9011 93.3234 19.9011 92.939 19.9011C92.939 19.6772 92.939 19.4533 92.939 19.2227Z" fill="#AEAEAE"/>
<path d="M88.3029 19.2227C88.5268 19.2227 88.7507 19.2227 88.9814 19.2227C88.9814 20.7899 88.9814 22.3571 88.9814 23.9718C88.7575 23.9718 88.5336 23.9718 88.3029 23.9718C88.3029 22.4046 88.3029 20.8374 88.3029 19.2227Z" fill="#AEAEAE"/>
<path d="M54.7199 19.2227C54.9438 19.2227 55.1677 19.2227 55.3983 19.2227C55.3983 20.7899 55.3983 22.3571 55.3983 23.9718C55.1744 23.9718 54.9506 23.9718 54.7199 23.9718C54.7199 22.4046 54.7199 20.8374 54.7199 19.2227Z" fill="#AEAEAE"/>
</g>
<defs>
<clipPath id="clip0_2949_647">
<rect width="102.671" height="32" fill="white" transform="translate(0.331177)"/>
</clipPath>
</defs>
</svg>
