<svg width="128" height="32" viewBox="0 0 128 32" fill="none" xmlns="http://www.w3.org/2000/svg">
<path d="M27.6898 8.57611e-05C28.1986 -0.00217066 28.7029 0.0994177 29.1738 0.299181C29.6447 0.498945 30.073 0.792915 30.4344 1.16433C30.7958 1.53578 31.083 1.97737 31.2798 2.46394C31.4766 2.95051 31.579 3.47249 31.5813 4.00014V28.0088C31.5779 28.5364 31.4744 29.0582 31.2766 29.5443C31.0787 30.0304 30.7905 30.4714 30.4284 30.842C30.0662 31.2126 29.6372 31.5056 29.1659 31.7042C28.6945 31.9029 28.19 32.0033 27.6812 31.9999H4.29817C3.78865 32.0033 3.28348 31.9026 2.81159 31.7034C2.33966 31.5042 1.91031 31.2104 1.54803 30.8388C1.18575 30.4673 0.897712 30.0253 0.700423 29.5381C0.503091 29.051 0.400394 28.5283 0.398132 27.9999V4.00014C0.400394 3.47176 0.503091 2.94901 0.700423 2.46189C0.897712 1.97473 1.18575 1.53275 1.54803 1.16117C1.91031 0.78963 2.33966 0.49583 2.81159 0.296621C3.28348 0.0973697 3.78865 -0.00336531 4.29817 8.57611e-05H27.6898ZM5.49236 22.4219C5.21938 22.4436 4.96577 22.5763 4.78674 22.791C4.69983 22.8972 4.634 23.02 4.59299 23.1526C4.55199 23.2852 4.53663 23.4248 4.54777 23.5636C4.55895 23.7023 4.59636 23.8374 4.65798 23.9611C4.71959 24.0848 4.80411 24.1946 4.90676 24.2844C5.06962 24.4266 8.90105 27.7421 15.9726 27.7421C23.0441 27.7421 26.9012 24.4088 27.0384 24.2666L27.047 24.2755C27.2492 24.092 27.3735 23.8332 27.3927 23.5552C27.412 23.2772 27.3247 23.0026 27.1498 22.791C26.9681 22.5777 26.7133 22.4463 26.4396 22.4247C26.1659 22.4031 25.8948 22.4931 25.6841 22.6755C25.6498 22.7022 22.1783 25.6177 15.964 25.6177C9.74964 25.6177 6.30391 22.7199 6.24388 22.6755C6.0355 22.4914 5.76534 22.4003 5.49236 22.4219ZM107.575 10.0795C110.863 10.0795 112.285 12.3438 112.285 15.9796C112.285 19.6631 110.847 21.8797 107.575 21.8797C104.242 21.8797 102.85 19.6631 102.85 15.9796C102.85 12.4078 104.256 10.0795 107.575 10.0795ZM16.0069 4.25789C15.7318 4.25789 15.468 4.37121 15.2735 4.57293C15.079 4.77462 14.9697 5.04819 14.9697 5.33346V20.7999C14.9697 21.0852 15.079 21.3588 15.2735 21.5605C15.468 21.7622 15.7318 21.8755 16.0069 21.8755C16.2819 21.8755 16.5457 21.7622 16.7402 21.5605C16.9347 21.3588 17.044 21.0852 17.044 20.7999V5.33346C17.044 5.04819 16.9347 4.77462 16.7402 4.57293C16.5457 4.37121 16.2819 4.25789 16.0069 4.25789ZM96.5346 10.0795C97.7425 10.0795 98.6756 10.367 99.3788 10.9887C99.9906 11.4987 100.434 12.2169 100.694 13.2216C100.831 13.7478 100.48 14.274 99.8989 14.3857C99.3485 14.4812 98.9056 14.1145 98.7371 13.5883C98.5536 13.0783 98.3083 12.7116 98.0181 12.4556C97.6205 12.0889 97.1315 11.9294 96.4885 11.9294C95.8008 11.9294 95.2039 12.1366 94.7606 12.5988C94.1184 13.2683 93.8428 14.465 93.8428 15.9796C93.8428 17.479 94.1031 18.6747 94.7759 19.3442C95.2192 19.8064 95.8008 20.0136 96.4732 20.0136C97.1763 20.0136 97.7114 19.8226 98.1555 19.3919C98.3842 19.1684 98.5839 18.8819 98.7213 18.5467C98.9201 18.052 99.3331 17.6853 99.8677 17.8133C100.403 17.9413 100.74 18.4827 100.571 19.0089C100.296 19.8856 99.8221 20.5876 99.1799 21.066C98.4768 21.5923 97.6051 21.8635 96.5043 21.8635C95.0976 21.8635 94.2102 21.4328 93.5369 20.8273C92.3904 19.7586 91.8703 18.0845 91.8703 15.9796C91.8703 13.8585 92.3751 12.2006 93.507 11.1481C94.2102 10.5102 95.1578 10.0795 96.5346 10.0795ZM82.3768 10.2538L82.4368 10.2552H86.0605C88.5535 10.2552 89.5928 11.9456 89.5928 13.6675C89.5928 15.2818 88.7064 16.4802 87.1807 16.8238L87.0998 16.8411L89.0113 20.3804C89.2715 20.8426 89.103 21.4328 88.568 21.7203C88.0641 21.983 87.517 21.7967 87.2479 21.3646L87.2227 21.322L85.0971 17.224H83.079L83.0943 20.7004C83.0943 21.2428 82.6971 21.6888 82.1309 21.6888C81.5977 21.6888 81.2083 21.2693 81.1845 20.7508L81.1833 20.7004V11.5149C81.1833 10.7274 81.5834 10.2709 82.3181 10.2542L82.3768 10.2538ZM49.9891 10.2542C50.9525 10.2542 51.3498 10.7967 51.7325 11.5941L53.6281 15.4696L55.249 19.2334L55.2034 15.6291L55.188 11.2762C55.188 10.7337 55.5852 10.2877 56.1514 10.2877C56.7005 10.2867 57.0982 10.7327 57.0982 11.2752V19.8866C57.0982 21.0508 56.5021 21.705 55.5541 21.705H55.4782C54.5762 21.705 54.1474 21.1626 53.7655 20.3651L51.8387 16.4581L50.1261 12.4241L50.1722 16.3311L50.1875 20.6841C50.1875 21.2266 49.7903 21.6725 49.2241 21.6725C48.6737 21.6725 48.2765 21.2255 48.2765 20.6841V12.0726C48.2765 11.0039 48.8726 10.2542 49.9128 10.2542H49.9891ZM43.7953 10.2867C44.3457 10.2867 44.7433 10.7337 44.7433 11.2752V20.6993C44.7433 21.2418 44.3457 21.6877 43.7799 21.6877C43.2295 21.6877 42.8319 21.2408 42.8319 20.6993V11.2752C42.8319 10.7327 43.2295 10.2867 43.7953 10.2867ZM125.435 10.2877C126.505 10.2877 127.101 10.9572 127.101 12.1539L127.117 20.6841C127.117 21.2266 126.719 21.6725 126.154 21.6725C125.603 21.6725 125.206 21.2255 125.206 20.6841V16.4103L125.252 12.2483L123.921 16.4743L122.576 20.6363C122.347 21.3698 121.872 21.6573 121.276 21.6573C120.649 21.6573 120.19 21.3546 119.946 20.6211L118.569 16.4754L117.3 12.3134L117.346 16.4114V20.6851C117.346 21.2276 116.948 21.6735 116.382 21.6735C115.832 21.6735 115.435 21.2266 115.435 20.6851V12.1539C115.435 10.9734 116.046 10.2877 117.116 10.2877C118.126 10.2877 118.692 10.8454 119.012 11.8664L120.419 16.2194L121.275 19.1857L122.147 16.2194L123.553 11.8664C123.875 10.8454 124.426 10.2877 125.435 10.2877ZM67.1295 10.2877C67.6184 10.2877 68.0161 10.6707 68.0161 11.2284C68.0161 11.7709 67.6184 12.1529 67.1295 12.1529H64.7593V20.6841C64.7593 21.2266 64.3621 21.6725 63.7959 21.6725C63.246 21.6725 62.8483 21.2255 62.8483 20.6841V12.1529H60.4782C59.9893 12.1529 59.592 11.7699 59.592 11.2121C59.592 10.6697 59.9893 10.2877 60.4782 10.2877H67.1295ZM71.7626 10.2552H77.2674C77.7563 10.2552 78.1536 10.6534 78.1536 11.1959C78.1536 11.7384 77.7563 12.1203 77.2674 12.1203H72.4043V14.8632H76.7012C77.1757 14.8632 77.5575 15.2299 77.5575 15.7561C77.5575 16.2824 77.1757 16.6491 76.7012 16.6491H72.4043V19.8064H77.2674C77.7563 19.8064 78.1536 20.2046 78.1536 20.7471C78.1536 21.2895 77.7563 21.6715 77.2674 21.6715H71.7165C70.9216 21.6725 70.4788 21.2103 70.5086 20.3651V11.5149C70.5086 10.6859 70.9519 10.2237 71.7626 10.2552ZM10.8382 4.84455C10.5622 4.83 10.2918 4.92937 10.0863 5.1209C9.88067 5.31247 9.75659 5.58063 9.74106 5.86679V20.0889C9.74106 20.3741 9.85033 20.6477 10.0448 20.8494C10.2394 21.0511 10.5032 21.1644 10.7782 21.1644C11.0533 21.1644 11.3171 21.0511 11.5116 20.8494C11.7061 20.6477 11.8154 20.3741 11.8154 20.0889V5.86679C11.8031 5.60128 11.6964 5.34993 11.516 5.16117C11.3355 4.97242 11.0941 4.85961 10.8382 4.84455ZM21.1498 4.79121C20.8747 4.79121 20.6109 4.90454 20.4164 5.10626C20.2219 5.30795 20.1126 5.58152 20.1126 5.86679V20.0889C20.1126 20.3741 20.2219 20.6477 20.4164 20.8494C20.6109 21.0511 20.8747 21.1644 21.1498 21.1644C21.4248 21.1644 21.6886 21.0511 21.8831 20.8494C22.0776 20.6477 22.1869 20.3741 22.1869 20.0889V5.86679C22.1869 5.58152 22.0776 5.30795 21.8831 5.10626C21.6886 4.90454 21.4248 4.79121 21.1498 4.79121ZM107.56 11.9456C105.77 11.9456 104.822 13.2693 104.822 15.9796C104.822 18.6909 105.74 20.0136 107.56 20.0136C109.364 20.0136 110.327 18.6899 110.327 15.9796C110.327 13.2683 109.379 11.9456 107.56 11.9456ZM26.3612 6.92453C26.0862 6.92453 25.8224 7.03785 25.6278 7.23958C25.4333 7.44126 25.3241 7.71484 25.3241 8.0001V17.6089C25.3241 17.8941 25.4333 18.1677 25.6278 18.3694C25.8224 18.5711 26.0862 18.6844 26.3612 18.6844C26.6363 18.6844 26.9001 18.5711 27.0946 18.3694C27.2891 18.1677 27.3984 17.8941 27.3984 17.6089V8.0001C27.3984 7.71484 27.2891 7.44126 27.0946 7.23958C26.9001 7.03785 26.6363 6.92453 26.3612 6.92453ZM5.63533 6.97786C5.35932 6.96331 5.08895 7.06268 4.88338 7.25421C4.67777 7.44578 4.55366 7.71394 4.53817 8.0001V17.5911C4.53817 17.8764 4.64744 18.1499 4.84195 18.3516C5.03647 18.5533 5.30027 18.6666 5.57534 18.6666C5.85041 18.6666 6.11422 18.5533 6.30869 18.3516C6.50321 18.1499 6.61247 17.8764 6.61247 17.5911V8.0001C6.60019 7.73459 6.49352 7.48324 6.31309 7.29449C6.13265 7.10573 5.8912 6.99292 5.63533 6.97786ZM86.0899 12.1194H83.0777V15.4209H86.1053C87.1301 15.4209 87.6652 14.7352 87.6652 13.762C87.6652 12.7888 87.099 12.1194 86.0899 12.1194Z" fill="#AEAEAE"/>
</svg>
