<svg width="92" height="32" viewBox="0 0 92 32" fill="none" xmlns="http://www.w3.org/2000/svg">
<g clip-path="url(#clip0_2949_624)">
<path d="M14.785 0.0704346C14.9727 0.164945 14.973 0.241964 15.0387 0.440152C15.0603 0.504663 15.082 0.569175 15.1043 0.635642C15.1275 0.70689 15.1508 0.778139 15.1748 0.851547C15.1995 0.925933 15.2242 1.00032 15.2497 1.07696C15.3315 1.32422 15.4126 1.57175 15.4935 1.81933C15.5214 1.90445 15.5494 1.98956 15.5782 2.07725C16.7248 5.56788 17.7558 9.09113 18.6923 12.6446C18.7187 12.7444 18.7452 12.8443 18.7716 12.9441C18.7903 13.0146 18.7903 13.0146 18.8093 13.0866C18.8731 13.325 18.9441 13.5576 19.0285 13.7893C19.1446 14.1248 19.1795 14.4677 19.2249 14.8188C19.2836 15.2262 19.374 15.6257 19.463 16.0273C19.7236 17.2096 19.934 18.3955 20.1027 19.5947C20.112 19.6606 20.1213 19.7265 20.1308 19.7945C20.4922 22.4787 20.1495 25.0817 18.5721 27.3303C18.4774 27.4548 18.3811 27.5781 18.2835 27.7004C18.2552 27.7363 18.2269 27.7723 18.1977 27.8093C17.0736 29.2289 15.7277 30.1458 14.0853 30.8722C14.1574 30.8826 14.1574 30.8826 14.231 30.8931C14.2941 30.9037 14.3571 30.9142 14.4221 30.9251C14.4846 30.9349 14.5471 30.9447 14.6115 30.9548C14.824 31.0263 14.8858 31.1007 14.9949 31.2951C15.0242 31.5843 15.0177 31.6836 14.855 31.9295C14.6768 31.9546 14.6768 31.9546 14.4527 31.9526C14.371 31.9522 14.2894 31.9519 14.2053 31.9515C14.1195 31.95 14.0338 31.9486 13.9454 31.9471C13.82 31.9465 13.82 31.9465 13.692 31.946C13.3398 31.9429 12.992 31.9368 12.6422 31.8937C12.1161 31.8339 11.5848 31.8485 11.056 31.8498C10.8672 31.8502 10.6784 31.8498 10.4896 31.8493C9.70781 31.849 9.70781 31.849 8.92922 31.9132C8.58496 31.9479 8.23873 31.9425 7.89307 31.9427C7.81731 31.9435 7.74155 31.9444 7.66349 31.9453C7.59133 31.9454 7.51918 31.9456 7.44483 31.9457C7.37967 31.946 7.3145 31.9463 7.24736 31.9466C7.08843 31.9295 7.08843 31.9295 6.94849 31.7885C6.90394 31.391 6.90394 31.391 6.94849 31.2246C7.12533 31.0655 7.12533 31.0655 7.29834 30.9427C7.21878 30.9093 7.13923 30.876 7.05727 30.8416C6.0544 30.4126 5.19111 29.8959 4.35964 29.1806C4.30308 29.133 4.24653 29.0855 4.18827 29.0366C3.07252 28.0679 2.31122 26.8526 1.70081 25.5154C1.65116 25.4074 1.65116 25.4074 1.60051 25.2973C0.679407 23.1004 0.684487 20.4579 1.56087 18.2555C2.02071 17.148 2.59059 16.0817 3.2641 15.0917C3.45971 14.7963 3.56862 14.6069 3.52001 14.2378C3.61237 14.2611 3.70473 14.2844 3.79988 14.3083C3.81459 14.2628 3.82929 14.2173 3.84443 14.1704C3.97793 13.8702 4.16039 13.613 4.34652 13.3436C4.38692 13.2846 4.42733 13.2256 4.46896 13.1649C4.85347 12.6061 5.24818 12.0549 5.64563 11.5054C5.75913 11.3478 5.87168 11.1896 5.98396 11.0311C6.48513 10.3246 7.00504 9.63574 7.53756 8.95304C7.69424 8.75119 7.84823 8.54737 8.0024 8.34356C8.2998 7.95312 8.60658 7.57106 8.91572 7.19001C9.16002 6.88854 9.40049 6.58447 9.63793 6.27748C10.2424 5.49754 10.8721 4.73781 11.5085 3.9842C11.7028 3.75389 11.8936 3.52111 12.0825 3.28629C12.4449 2.83788 12.8227 2.40325 13.1995 1.96715C13.738 1.34298 14.269 0.713651 14.785 0.0704346Z" fill="#AEAEAE"/>
<path d="M14.785 0.0704346C14.9727 0.164945 14.973 0.241964 15.0387 0.440152C15.0603 0.504663 15.082 0.569175 15.1043 0.635642C15.1275 0.70689 15.1508 0.778139 15.1748 0.851547C15.1995 0.925933 15.2242 1.00032 15.2497 1.07696C15.3315 1.32422 15.4126 1.57175 15.4935 1.81933C15.5214 1.90445 15.5494 1.98956 15.5782 2.07725C16.5128 4.92251 17.3747 7.78836 18.165 10.6777C18.2123 10.8502 18.26 11.0226 18.3077 11.195C18.3783 11.4496 18.4481 11.7044 18.5172 11.9594C18.5534 12.0923 18.5901 12.225 18.6268 12.3577C18.6579 12.4742 18.6579 12.4742 18.6896 12.593C18.7077 12.6595 18.7257 12.726 18.7443 12.7945C18.7741 12.9739 18.7616 13.0806 18.7033 13.2511C18.621 13.142 18.621 13.142 18.5371 13.0308C17.9424 12.3363 16.9907 12.0389 16.1144 11.9118C14.2112 11.7791 12.5741 12.0697 11.1037 13.3383C10.3813 14.0131 9.98937 14.8607 9.67729 15.7885C9.66087 15.837 9.64446 15.8855 9.62754 15.9355C9.47147 16.4391 9.45623 16.9637 9.44524 17.4867C9.44306 17.5747 9.44306 17.5747 9.44084 17.6645C9.4363 17.8497 9.43216 18.035 9.42802 18.2202C9.425 18.3467 9.42194 18.4732 9.41887 18.5996C9.41142 18.9078 9.40432 19.216 9.39741 19.5242C8.6293 19.3146 8.6293 19.3146 8.41784 19.0308C8.36422 18.7553 8.38457 18.4902 8.40473 18.2114C8.45464 17.4159 8.35127 16.7595 7.83459 16.1288C7.79616 16.0863 7.75774 16.0438 7.71815 16C7.68117 15.9589 7.6442 15.9178 7.60609 15.8755C6.63421 14.918 5.0399 14.5373 3.72992 14.3788C4.25546 13.3565 4.97302 12.4376 5.64337 11.5088C5.75774 11.3498 5.87125 11.1901 5.98451 11.0302C6.48554 10.3241 7.00525 9.63548 7.53756 8.95304C7.69424 8.75119 7.84824 8.54737 8.0024 8.34356C8.2998 7.95312 8.60659 7.57106 8.91573 7.19001C9.16003 6.88854 9.40049 6.58447 9.63793 6.27748C10.2424 5.49754 10.8721 4.73781 11.5085 3.9842C11.7028 3.75389 11.8936 3.52111 12.0825 3.28629C12.4449 2.83788 12.8227 2.40325 13.1996 1.96715C13.738 1.34298 14.269 0.713651 14.785 0.0704346Z" fill="#949494"/>
<path d="M3.52001 14.3789C5.15937 14.9802 6.66292 16.7174 7.5107 18.1983C7.54678 18.2611 7.58285 18.3238 7.62001 18.3885C7.68925 18.5107 7.7571 18.6337 7.82326 18.7576C8.06708 19.1923 8.33947 19.4201 8.76769 19.6653C8.83263 19.7074 8.89757 19.7496 8.96447 19.793C9.11136 19.8733 9.23575 19.91 9.39741 19.9472C9.40232 21.1941 9.40602 22.4409 9.40828 23.6878C9.40936 24.2668 9.41084 24.8458 9.41324 25.4247C9.41534 25.9296 9.41669 26.4345 9.41716 26.9394C9.41743 27.2065 9.41807 27.4736 9.4196 27.7407C9.42104 27.9926 9.42146 28.2445 9.42115 28.4964C9.42123 28.632 9.42236 28.7675 9.42352 28.9031C9.42148 29.4848 9.36134 29.9986 9.0738 30.5111C8.70251 30.8457 8.22739 31.0088 7.73264 31.038C5.96121 30.8424 4.13083 29.198 3.05619 27.8522C2.51142 27.1226 2.07904 26.3441 1.70081 25.5155C1.65116 25.4075 1.65116 25.4075 1.60051 25.2974C0.679407 23.1005 0.684487 20.458 1.56087 18.2556C2.02238 17.1441 2.59832 16.0794 3.2641 15.0794C3.29768 15.0282 3.33126 14.9771 3.36586 14.9243C3.39569 14.88 3.42552 14.8357 3.45626 14.7901C3.54077 14.6428 3.54077 14.6428 3.52001 14.3789Z" fill="#949494"/>
<path d="M18.3491 12.7666C18.4217 12.8328 18.4931 12.9004 18.5633 12.9692C18.6107 13.0116 18.6581 13.0539 18.7068 13.0975C19.0013 13.4292 19.1352 13.9507 19.1537 14.3921C19.1019 14.8474 19.0284 15.2197 18.6814 15.5375C18.2596 15.8571 17.8216 15.925 17.3039 15.8591C16.9768 15.7513 16.7044 15.6077 16.5342 15.2952C16.4479 15.0344 16.4324 14.7913 16.4643 14.5199C16.533 14.4016 16.6029 14.2841 16.6742 14.1675C16.7012 13.9138 16.693 13.731 16.613 13.489C16.2904 13.1258 15.844 12.952 15.3664 12.9249C15.2294 12.9246 15.0925 12.9262 14.9556 12.9296C14.8872 12.9288 14.8189 12.928 14.7485 12.9272C14.0787 12.934 13.5821 13.1448 13.0951 13.6061C12.1704 14.5967 12.1018 15.9899 12.1118 17.2812C12.1131 17.4559 12.1132 17.6307 12.1132 17.8054C12.1136 17.9167 12.114 18.028 12.1144 18.1394C12.1145 18.1915 12.1146 18.2436 12.1147 18.2973C12.1126 18.5673 12.1126 18.5673 12.1962 18.8194C12.2362 18.82 12.2762 18.8206 12.3174 18.8212C12.7328 18.8272 13.1482 18.8342 13.5636 18.8418C13.7188 18.8445 13.8739 18.847 14.0291 18.8492C14.2517 18.8524 14.4744 18.8565 14.697 18.8607C14.7667 18.8616 14.8364 18.8624 14.9082 18.8632C14.9726 18.8646 15.037 18.866 15.1034 18.8674C15.1887 18.8689 15.1887 18.8689 15.2757 18.8703C15.4147 18.8899 15.4147 18.8899 15.5547 19.0309C15.5757 19.2222 15.5757 19.2222 15.5765 19.4494C15.5777 19.5242 15.5789 19.5989 15.5801 19.676C15.5547 19.8767 15.5547 19.8767 15.4681 19.9931C15.3111 20.1141 15.2219 20.1159 15.0255 20.1186C14.9611 20.12 14.8966 20.1214 14.8303 20.1229C14.7263 20.1235 14.7263 20.1235 14.6202 20.1242C14.5491 20.1255 14.4779 20.1268 14.4046 20.1281C14.1772 20.1319 13.9498 20.1343 13.7224 20.1366C13.5683 20.139 13.4142 20.1414 13.26 20.1439C12.8821 20.1499 12.5042 20.1547 12.1262 20.1586C12.1229 21.3528 12.1205 22.547 12.1189 23.7411C12.1182 24.2956 12.1172 24.8501 12.1156 25.4046C12.1142 25.8881 12.1133 26.3715 12.113 26.855C12.1128 27.1108 12.1124 27.3667 12.1114 27.6225C12.1103 27.9085 12.1102 28.1945 12.1103 28.4805C12.1096 28.607 12.1096 28.607 12.1088 28.736C12.1102 29.3337 12.1387 29.9737 12.546 30.4494C13.0542 30.8074 13.6353 30.8794 14.2381 30.9235C14.4623 30.9454 14.651 30.9864 14.855 31.0838C15.0168 31.3283 15.0187 31.4309 14.9949 31.7181C14.9487 31.7879 14.9026 31.8577 14.855 31.9296C14.6768 31.9547 14.6768 31.9547 14.4527 31.9527C14.371 31.9523 14.2894 31.952 14.2053 31.9516C14.1195 31.9501 14.0338 31.9487 13.9454 31.9472C13.82 31.9466 13.82 31.9466 13.692 31.9461C13.3398 31.943 12.992 31.9369 12.6422 31.8938C12.116 31.834 11.5848 31.8486 11.056 31.8499C10.8672 31.8503 10.6784 31.8499 10.4896 31.8494C9.70781 31.8491 9.70781 31.8491 8.92921 31.9133C8.58496 31.948 8.23872 31.9426 7.89307 31.9428C7.81731 31.9436 7.74154 31.9445 7.66348 31.9454C7.59133 31.9455 7.51917 31.9457 7.44483 31.9458C7.37966 31.9461 7.3145 31.9464 7.24736 31.9467C7.08843 31.9296 7.08843 31.9296 6.94849 31.7886C6.90913 31.2891 6.90913 31.2891 7.02174 31.105C7.22804 30.9665 7.44691 30.9694 7.68753 30.9516C8.16357 30.9024 8.59369 30.8321 8.97759 30.5199C9.27364 30.1249 9.33542 29.6792 9.3385 29.1946C9.33919 29.1129 9.33987 29.0311 9.34058 28.9469C9.34098 28.8579 9.34139 28.7689 9.3418 28.6771C9.34247 28.582 9.34317 28.4868 9.3439 28.3916C9.34579 28.1337 9.34726 27.8758 9.34866 27.6179C9.35019 27.3482 9.3521 27.0785 9.35398 26.8088C9.35747 26.2984 9.36061 25.7879 9.36364 25.2774C9.36709 24.6961 9.37094 24.1149 9.37481 23.5336C9.38277 22.3382 9.39024 21.1427 9.3974 19.9472C9.34297 19.9371 9.28854 19.927 9.23246 19.9166C9.03948 19.875 8.90366 19.8116 8.7327 19.7137C8.68147 19.6849 8.63024 19.6561 8.57745 19.6264C8.13007 19.3401 7.92337 19.0303 7.66567 18.5727C7.17852 17.7327 6.63392 16.9905 5.96892 16.282C5.92022 16.2292 5.87151 16.1764 5.82133 16.122C5.14485 15.412 4.35865 14.8739 3.52 14.3789C3.54309 14.3324 3.56618 14.2859 3.58997 14.2379C5.15032 14.5328 6.94422 14.9111 7.99802 16.2115C8.49084 16.9448 8.50618 17.5609 8.44544 18.4227C8.41985 18.8224 8.41985 18.8224 8.60198 19.1566C8.74811 19.251 8.88604 19.3196 9.04756 19.3833C9.14343 19.4223 9.14343 19.4223 9.24124 19.4621C9.31854 19.4929 9.31854 19.4929 9.3974 19.5243C9.39667 19.4472 9.39594 19.3701 9.39518 19.2907C9.39263 19.0013 9.39103 18.7119 9.38972 18.4225C9.38902 18.2979 9.38807 18.1733 9.38685 18.0487C9.37402 16.7047 9.37402 16.7047 9.53734 16.0705C9.54936 16.0234 9.56138 15.9762 9.57376 15.9276C9.84543 14.9476 10.2853 14.1116 11.0067 13.3921C11.0583 13.3378 11.1099 13.2835 11.163 13.2275C12.8915 11.5155 16.453 11.1742 18.3491 12.7666Z" fill="#FDFEFD"/>
<path d="M14.785 0.0704346C14.9727 0.164945 14.973 0.241964 15.0387 0.440152C15.0711 0.536919 15.0711 0.536919 15.1042 0.635642C15.1275 0.70689 15.1508 0.778139 15.1748 0.851547C15.1995 0.925933 15.2242 1.00032 15.2496 1.07696C15.3315 1.32422 15.4125 1.57175 15.4935 1.81933C15.5214 1.90445 15.5494 1.98956 15.5782 2.07725C16.5128 4.92251 17.3747 7.78836 18.165 10.6777C18.2123 10.8502 18.2599 11.0226 18.3077 11.195C18.3783 11.4496 18.4481 11.7044 18.5172 11.9594C18.5534 12.0923 18.59 12.225 18.6268 12.3577C18.6475 12.4354 18.6682 12.513 18.6896 12.593C18.7076 12.6595 18.7257 12.726 18.7442 12.7944C18.774 12.9739 18.7616 13.0806 18.7033 13.2511C18.621 13.142 18.621 13.142 18.5371 13.0308C17.9424 12.3363 16.9906 12.0389 16.1144 11.9118C15.8197 11.8913 15.5264 11.8883 15.2311 11.8898C15.1111 11.8903 15.1111 11.8903 14.9888 11.8907C14.0719 11.903 13.2592 12.0552 12.4061 12.4052C12.4565 11.7413 12.5808 11.0937 12.7034 10.4405C12.7483 10.1993 12.793 9.95811 12.8376 9.71691C12.8487 9.65719 12.8598 9.59746 12.8712 9.53593C12.9518 9.10108 13.0286 8.66569 13.1038 8.22987C13.2687 7.2764 13.4629 6.33156 13.6683 5.3862C13.8114 4.72498 13.95 4.06279 14.0897 3.40083C14.1203 3.25588 14.1509 3.11093 14.1815 2.96598C14.3852 2.00132 14.5872 1.03633 14.785 0.0704346Z" fill="#AEAEAE"/>
<path d="M65.7924 6.69608C66.3399 6.69113 66.8874 6.6874 67.4349 6.68512C67.6893 6.68403 67.9436 6.68255 68.1979 6.68012C68.4443 6.67779 68.6906 6.67656 68.937 6.67601C69.0747 6.67544 69.2125 6.6738 69.3502 6.67212C70.5106 6.67191 71.6826 6.89332 72.5794 7.68286C72.6417 7.73329 72.6417 7.73329 72.7052 7.78473C73.2444 8.26307 73.6473 9.10249 73.7141 9.81922C73.751 10.6028 73.7278 11.3218 73.4191 12.0529C73.3962 12.1131 73.3733 12.1732 73.3497 12.2352C72.9791 13.0989 72.2538 13.7508 71.4039 14.1091C70.3777 14.487 69.3369 14.4708 68.2624 14.4185C68.1952 14.4154 68.1279 14.4123 68.0586 14.4091C67.847 14.3992 67.6353 14.389 67.4236 14.3789C67.2788 14.3721 67.134 14.3653 66.9892 14.3585C66.6369 14.342 66.2846 14.3253 65.9324 14.3084C65.9324 14.2386 65.9324 14.1689 65.9324 14.097C66.1748 14.0272 66.1748 14.0272 66.4222 13.956C66.564 13.2211 66.5817 12.5131 66.5782 11.7674C66.5782 11.6468 66.5781 11.5262 66.5781 11.4056C66.578 11.1546 66.5775 10.9036 66.5765 10.6526C66.5753 10.3321 66.5751 10.0117 66.5751 9.6912C66.5751 9.44285 66.5747 9.1945 66.5742 8.94616C66.574 8.828 66.5738 8.70983 66.5738 8.59167C66.5736 8.42646 66.573 8.26126 66.5723 8.09605C66.5723 8.0481 66.5723 8.00016 66.5724 7.95077C66.5702 7.62071 66.5375 7.30424 66.4921 6.97801C66.2612 6.95475 66.0303 6.93149 65.7924 6.90753C65.7924 6.83775 65.7924 6.76797 65.7924 6.69608ZM67.6816 7.18947C67.6784 7.99332 67.6759 8.79717 67.6744 9.60103C67.6736 9.97429 67.6726 10.3475 67.6711 10.7208C67.6695 11.0809 67.6687 11.441 67.6683 11.8012C67.6681 11.9386 67.6676 12.0761 67.6668 12.2136C67.6658 12.406 67.6657 12.5983 67.6657 12.7907C67.6652 12.8477 67.6647 12.9047 67.6642 12.9634C67.6614 13.3428 67.6614 13.3428 67.8216 13.6741C68.634 14.1073 69.7407 14.0555 70.6132 13.8222C71.3679 13.5522 71.9484 13.1139 72.3214 12.3965C72.5185 11.9779 72.6058 11.5809 72.6276 11.119C72.6301 11.0657 72.6326 11.0124 72.6352 10.9576C72.6761 9.95549 72.4563 9.09461 71.7934 8.30924C71.0995 7.56233 70.1931 7.16112 69.1773 7.10969C68.4192 7.06457 68.4192 7.06457 67.6816 7.18947Z" fill="#AEAEAE"/>
<path d="M55.9968 6.55505C56.3365 6.58612 56.4805 6.72648 56.7156 6.96722C56.7497 7.00177 56.7837 7.03632 56.8188 7.07191C56.9274 7.18239 57.035 7.29382 57.1425 7.40527C57.2143 7.47834 57.2861 7.55135 57.3579 7.6243C57.6486 7.92074 57.9364 8.21846 58.2057 8.53495C58.5107 8.89306 58.847 9.2196 59.1804 9.55065C59.5647 9.9323 59.9421 10.3134 60.2932 10.7264C60.4722 10.9319 60.6656 11.1218 60.8596 11.3128C61.1527 11.6042 61.4367 11.8981 61.7017 12.2161C61.8229 12.3564 61.9531 12.4857 62.0841 12.6167C62.0921 11.3942 62.0882 10.1721 62.0618 8.94983C62.0592 8.82513 62.0568 8.70043 62.0546 8.57572C62.0514 8.39967 62.0474 8.22365 62.0431 8.04762C62.0423 7.99551 62.0415 7.9434 62.0407 7.88971C62.032 7.58501 61.9845 7.33228 61.8742 7.04845C61.5278 6.97867 61.5278 6.97867 61.1745 6.90748C61.1745 6.8377 61.1745 6.76792 61.1745 6.69602C61.9596 6.69602 62.7446 6.69602 63.5535 6.69602C63.5304 6.7658 63.5073 6.83558 63.4835 6.90748C63.4041 6.92783 63.3247 6.94818 63.243 6.96915C62.9908 7.01916 62.9908 7.01916 62.9095 7.18708C62.8313 7.48675 62.8322 7.77273 62.8315 8.08143C62.8307 8.14955 62.83 8.21766 62.8293 8.28783C62.8272 8.51246 62.826 8.73708 62.8248 8.96172C62.8235 9.11766 62.8221 9.27361 62.8207 9.42955C62.8171 9.83963 62.8143 10.2497 62.8117 10.6598C62.8089 11.0784 62.8053 11.497 62.8018 11.9156C62.7951 12.7367 62.7892 13.5578 62.7838 14.3788C62.3247 14.3125 62.3247 14.3125 62.1278 14.0881C61.9718 13.9154 61.8132 13.7581 61.6356 13.6082C61.2462 13.2683 60.8853 12.8998 60.5219 12.5324C60.4007 12.4099 60.2792 12.2879 60.1576 12.1659C59.7981 11.8039 59.4455 11.4412 59.1155 11.0513C58.9154 10.8217 58.6972 10.6103 58.4807 10.3965C58.1695 10.0863 57.8664 9.77582 57.5842 9.43831C57.3735 9.19851 57.1434 8.97766 56.916 8.75412C56.7665 8.59911 56.7665 8.59911 56.6265 8.38765C56.6222 9.182 56.633 9.97526 56.6526 10.7693C56.6571 10.9555 56.6613 11.1416 56.6655 11.3278C56.6791 11.9099 56.6972 12.4915 56.7296 13.073C56.7322 13.1216 56.7347 13.1702 56.7374 13.2203C56.7527 13.4746 56.7865 13.7042 56.8364 13.9559C57.0904 14.0025 57.3444 14.049 57.6061 14.0969C57.6292 14.1667 57.6523 14.2365 57.6761 14.3084C56.8448 14.3084 56.0136 14.3084 55.1572 14.3084C55.1572 14.2386 55.1572 14.1688 55.1572 14.0969C55.5035 14.0271 55.5035 14.0271 55.8569 13.9559C55.8576 13.8653 55.8583 13.7747 55.859 13.6813C55.8659 12.8287 55.8731 11.9761 55.8806 11.1235C55.8845 10.6852 55.8882 10.2468 55.8917 9.80843C55.895 9.38569 55.8986 8.96295 55.9025 8.54022C55.904 8.37862 55.9053 8.21703 55.9065 8.05543C55.9081 7.82977 55.9103 7.60412 55.9125 7.37846C55.9129 7.31108 55.9133 7.24371 55.9137 7.17429C55.9144 7.11301 55.915 7.05173 55.9158 6.98859C55.9162 6.93518 55.9167 6.88178 55.9171 6.82675C55.9268 6.69602 55.9268 6.69602 55.9968 6.55505Z" fill="#AEAEAE"/>
<path d="M41.933 7.33034C42.6952 7.97421 43.1698 8.73287 43.3149 9.73563C43.3207 9.82576 43.3264 9.91589 43.3324 10.0088C43.336 10.0604 43.3396 10.112 43.3433 10.1651C43.3901 11.3742 42.9381 12.4557 42.141 13.3375C41.2522 14.2012 40.1329 14.4836 38.9334 14.4741C37.8595 14.4475 36.9283 14.1141 36.1431 13.3548C35.3575 12.4852 35.0501 11.4367 35.0613 10.2822C35.1158 9.27253 35.5676 8.33363 36.2655 7.61228C37.8469 6.23476 40.2061 6.14578 41.933 7.33034ZM36.9084 7.87219C36.2431 8.70194 36.099 9.7499 36.1955 10.7841C36.3552 11.8482 36.758 12.7828 37.6242 13.4523C38.3695 13.9357 39.2052 14.0834 40.0742 13.9072C40.5568 13.7728 40.9388 13.5988 41.3033 13.251C41.3601 13.198 41.3601 13.198 41.4181 13.1439C42.0493 12.484 42.211 11.526 42.2304 10.6431C42.2065 9.55394 41.9322 8.54794 41.1634 7.75325C40.5191 7.14869 39.7603 6.95408 38.9011 6.96305C38.1327 7.00757 37.4417 7.30587 36.9084 7.87219Z" fill="#AEAEAE"/>
<path d="M83.4946 6.69609C83.9862 6.68888 84.4777 6.68398 84.9693 6.6806C85.1361 6.67919 85.303 6.67728 85.4698 6.67482C87.5766 6.64461 87.5766 6.64461 88.2919 7.21151C88.6652 7.58125 88.8569 7.96563 88.9041 8.48904C88.8905 9.22583 88.5915 9.82541 88.1126 10.3613C88.0372 10.4494 87.9619 10.5377 87.8868 10.6262C87.8502 10.6693 87.8135 10.7125 87.7757 10.757C87.7483 10.7892 87.721 10.8215 87.6928 10.8547C88.1884 11.473 88.6845 12.0907 89.1982 12.6939C89.3068 12.8219 89.4142 12.9509 89.5196 13.0816C90.0177 13.6837 90.5563 14.0006 91.3312 14.097C91.3312 14.1667 91.3312 14.2365 91.3312 14.3084C91.063 14.3167 90.7948 14.3216 90.5265 14.326C90.4511 14.3284 90.3757 14.3308 90.298 14.3332C89.8245 14.339 89.4888 14.294 89.0922 14.0265C89.0426 13.9932 88.9931 13.96 88.9421 13.9257C88.5277 13.564 88.2056 13.1323 87.8757 12.6947C87.7505 12.5303 87.6233 12.3676 87.4957 12.2052C87.4508 12.1477 87.4058 12.0903 87.3595 12.0311C87.2707 11.9176 87.1816 11.8042 87.0924 11.691C87.0521 11.6393 87.0119 11.5875 86.9704 11.5342C86.9343 11.4881 86.8981 11.4419 86.8609 11.3944C86.7832 11.2776 86.7832 11.2776 86.7832 11.1366C86.2983 11.1366 85.8134 11.1366 85.3138 11.1366C85.3223 11.4362 85.3309 11.7358 85.3399 12.0353C85.3429 12.137 85.3458 12.2386 85.3486 12.3402C85.3637 12.8818 85.3828 13.4183 85.4538 13.956C85.7308 14.0025 86.0079 14.049 86.2934 14.097C86.2934 14.1667 86.2934 14.2365 86.2934 14.3084C85.416 14.3084 84.5386 14.3084 83.6346 14.3084C83.6346 14.2386 83.6346 14.1689 83.6346 14.097C83.877 14.0272 83.877 14.0272 84.1244 13.956C84.2328 13.5331 84.2845 13.1414 84.2813 12.7052C84.2814 12.6473 84.2816 12.5893 84.2817 12.5296C84.2819 12.3402 84.2812 12.1509 84.2804 11.9615C84.2803 11.8289 84.2803 11.6964 84.2803 11.5638C84.2802 11.287 84.2796 11.0102 84.2787 10.7334C84.2775 10.3789 84.2772 10.0245 84.2773 9.66999C84.2773 9.39668 84.2769 9.12337 84.2764 8.85006C84.2762 8.71933 84.276 8.5886 84.276 8.45787C84.2758 8.27536 84.2752 8.09287 84.2745 7.91037C84.2745 7.85661 84.2745 7.80285 84.2745 7.74746C84.273 7.48228 84.2576 7.23587 84.1943 6.97803C83.9634 6.95477 83.7325 6.93151 83.4946 6.90754C83.4946 6.83776 83.4946 6.76798 83.4946 6.69609ZM85.3138 7.18948C85.3073 7.29334 85.3056 7.39752 85.3059 7.50159C85.3059 7.5679 85.3059 7.63422 85.3059 7.70255C85.3063 7.77465 85.3066 7.84675 85.307 7.92103C85.3071 7.99447 85.3072 8.0679 85.3073 8.14355C85.3077 8.37913 85.3086 8.6147 85.3095 8.85027C85.3098 9.00955 85.3101 9.16883 85.3104 9.32811C85.3112 9.71949 85.3124 10.1109 85.3138 10.5023C85.8434 10.7282 86.5104 10.7984 87.0718 10.6432C87.3841 10.5123 87.5483 10.3122 87.6928 10.0089C87.9133 9.3846 87.9139 8.68592 87.7002 8.05815C87.5007 7.63575 87.2193 7.33337 86.7843 7.15849C86.5208 7.08471 86.2587 7.09429 85.9873 7.10138C85.9014 7.10192 85.9014 7.10192 85.8137 7.10248C85.5419 7.08043 85.5419 7.08043 85.3138 7.18948Z" fill="#AEAEAE"/>
<path d="M34.1664 19.5242C34.5401 19.6264 34.7318 19.873 34.9798 20.1541C35.0667 20.2504 35.1537 20.3466 35.2408 20.4427C35.2838 20.4902 35.3268 20.5377 35.371 20.5867C35.6005 20.8362 35.842 21.0729 36.0838 21.3102C36.2259 21.4569 36.3586 21.6048 36.491 21.7601C36.7841 22.1008 37.1012 22.4151 37.42 22.7312C37.7818 23.09 38.134 23.4503 38.4648 23.8385C38.6216 24.0189 38.7889 24.1848 38.9593 24.3524C39.1835 24.5728 39.3958 24.7966 39.6015 25.0348C39.6451 25.0853 39.6888 25.1357 39.7338 25.1878C39.7668 25.2261 39.7999 25.2644 39.8339 25.3039C39.8256 24.7964 39.8169 24.2889 39.8079 23.7814C39.8049 23.6094 39.802 23.4373 39.7991 23.2653C39.7855 22.44 39.7718 21.6146 39.7353 20.7899C39.7333 20.7353 39.7312 20.6807 39.7292 20.6244C39.7161 20.3647 39.7006 20.239 39.5541 20.0176C39.385 19.9613 39.385 19.9613 39.1955 19.9339C39.1318 19.9227 39.0681 19.9115 39.0025 19.9C38.9536 19.8923 38.9047 19.8845 38.8544 19.8766C38.8775 19.8068 38.9005 19.737 38.9243 19.6651C39.6401 19.6651 40.3559 19.6651 41.0934 19.6651C41.0934 19.7349 41.0934 19.8047 41.0934 19.8766C41.014 19.8984 40.9346 19.9202 40.8529 19.9427C40.6184 19.9914 40.6184 19.9914 40.5336 20.088C40.5253 20.2441 40.5219 20.4004 40.5204 20.5567C40.5198 20.6058 40.5192 20.6549 40.5186 20.7054C40.5174 20.8127 40.5163 20.9199 40.5154 21.0271C40.5139 21.1984 40.512 21.3697 40.51 21.5409C40.5059 21.9068 40.5022 22.2728 40.4986 22.6387C40.4939 23.1155 40.4889 23.5923 40.4833 24.069C40.4823 24.1553 40.4823 24.1553 40.4813 24.2433C40.4707 25.1383 40.4454 26.0314 40.3937 26.9251C40.0948 26.8255 39.9112 26.6836 39.6822 26.4677C39.6468 26.4343 39.6113 26.401 39.5748 26.3666C39.0703 25.8873 38.5812 25.3917 38.0916 24.8971C37.9222 24.7261 37.7525 24.5556 37.5828 24.385C37.4734 24.2747 37.364 24.1645 37.2546 24.0542C37.2047 24.004 37.1548 23.9539 37.1033 23.9022C36.8255 23.621 36.5597 23.3332 36.3036 23.0318C36.1368 22.8399 35.9569 22.6625 35.7757 22.4845C35.4928 22.2034 35.221 21.918 34.9643 21.612C34.8662 21.4979 34.7626 21.3924 34.6562 21.2863C34.6646 21.731 34.6733 22.1757 34.6823 22.6203C34.6853 22.7709 34.6882 22.9215 34.691 23.072C34.7059 23.857 34.7236 24.6419 34.7549 25.4264C34.7579 25.5178 34.7579 25.5178 34.761 25.6109C34.7742 25.9089 34.7891 26.1649 34.9361 26.4317C35.0871 26.5041 35.0871 26.5041 35.2597 26.5242C35.3169 26.5341 35.3741 26.544 35.433 26.5542C35.4987 26.5633 35.4987 26.5633 35.5658 26.5726C35.5658 26.6657 35.5658 26.7587 35.5658 26.8546C34.8269 26.8546 34.0881 26.8546 33.3268 26.8546C33.3268 26.7615 33.3268 26.6685 33.3268 26.5726C33.3664 26.5633 33.406 26.5539 33.4468 26.5443C33.5238 26.5256 33.5238 26.5256 33.6023 26.5065C33.6535 26.4943 33.7046 26.482 33.7573 26.4694C33.8865 26.443 33.8865 26.443 33.9565 26.3612C33.9646 26.1589 33.9681 25.9583 33.9687 25.7559C33.9691 25.6924 33.9696 25.6289 33.9701 25.5635C33.9711 25.4251 33.9719 25.2867 33.9726 25.1484C33.9738 24.9295 33.9754 24.7106 33.9772 24.4917C33.9821 23.8692 33.9863 23.2467 33.9899 22.6241C33.9921 22.2438 33.995 21.8635 33.9983 21.4832C33.9994 21.338 34.0003 21.1929 34.0009 21.0477C34.0017 20.8447 34.0034 20.6417 34.0053 20.4387C34.0053 20.3786 34.0054 20.3184 34.0054 20.2564C34.0064 20.1732 34.0064 20.1732 34.0075 20.0884C34.0078 20.0404 34.0081 19.9924 34.0084 19.943C34.0298 19.7811 34.0875 19.6657 34.1664 19.5242Z" fill="#AEAEAE"/>
<path d="M45.2915 6.69604C46.1458 6.69604 47.0002 6.69604 47.8804 6.69604C47.8804 6.76582 47.8804 6.8356 47.8804 6.9075C47.8408 6.91604 47.8012 6.92458 47.7604 6.93338C47.6834 6.9511 47.6834 6.9511 47.6049 6.96917C47.5537 6.98062 47.5026 6.99207 47.4499 7.00386C47.3061 7.03646 47.3061 7.03646 47.2507 7.18944C47.2432 7.33719 47.2402 7.48518 47.2394 7.63311C47.239 7.67864 47.2387 7.72416 47.2383 7.77106C47.2373 7.92218 47.2368 8.07329 47.2364 8.2244C47.236 8.3298 47.2356 8.4352 47.2352 8.5406C47.2345 8.76215 47.2341 8.9837 47.2338 9.20525C47.2335 9.48726 47.2318 9.76924 47.2298 10.0512C47.2285 10.2694 47.2281 10.4875 47.228 10.7056C47.2278 10.8094 47.2272 10.9133 47.2263 11.0171C47.2192 11.8774 47.268 12.7316 47.8804 13.3921C48.4966 13.8579 49.0093 13.9358 49.7695 13.8855C50.24 13.7901 50.6266 13.586 50.9678 13.2423C51.3315 12.6804 51.4562 12.0983 51.4601 11.4337C51.4604 11.388 51.4608 11.3422 51.4611 11.295C51.4621 11.145 51.4626 10.995 51.463 10.845C51.4634 10.7402 51.4638 10.6355 51.4642 10.5307C51.4649 10.3118 51.4654 10.0929 51.4656 9.87396C51.466 9.59333 51.4677 9.31272 51.4697 9.03209C51.471 8.81604 51.4713 8.6 51.4714 8.38395C51.4716 8.28045 51.4722 8.17695 51.4731 8.07345C51.4743 7.92903 51.4742 7.78466 51.4737 7.64024C51.474 7.55809 51.4742 7.47594 51.4745 7.3913C51.4647 7.19093 51.4647 7.19093 51.3584 7.05856C51.1696 6.93128 50.9712 6.92861 50.7491 6.9075C50.7491 6.83772 50.7491 6.76794 50.7491 6.69604C51.5111 6.69604 52.273 6.69604 53.0581 6.69604C53.0581 6.76582 53.0581 6.8356 53.0581 6.9075C52.8734 6.93076 52.6886 6.95402 52.4983 6.97798C52.4287 7.21216 52.4189 7.4259 52.4173 7.66984C52.4162 7.79381 52.4162 7.79381 52.4152 7.92028C52.4146 8.00956 52.4141 8.09883 52.4136 8.19081C52.4121 8.33227 52.4107 8.47372 52.4091 8.61518C52.4054 8.96286 52.4024 9.31054 52.4003 9.65824C52.3988 9.9008 52.3963 10.1433 52.3932 10.3859C52.3918 10.521 52.3914 10.6562 52.391 10.7914C52.3775 11.7827 52.2531 12.8758 51.5628 13.6432C50.8882 14.2429 50.1462 14.4907 49.2579 14.4802C49.1619 14.4794 49.1619 14.4794 49.064 14.4786C48.2108 14.4578 47.4798 14.2228 46.8489 13.63C46.1598 12.884 46.1114 11.9034 46.1077 10.9326C46.1071 10.7853 46.1056 10.6381 46.104 10.4908C46.1001 10.1258 46.0976 9.76073 46.0951 9.39571C46.0929 9.08532 46.0901 8.77494 46.0867 8.46456C46.0853 8.31978 46.0847 8.17502 46.0841 8.03024C46.0832 7.94245 46.0822 7.85466 46.0813 7.76421C46.0808 7.68703 46.0802 7.60986 46.0797 7.53035C46.0613 7.33118 46.0312 7.21376 45.9212 7.04847C45.7693 6.98421 45.7693 6.98421 45.5976 6.96036C45.5405 6.94982 45.4833 6.93928 45.4244 6.92842C45.3586 6.91807 45.3586 6.91807 45.2915 6.9075C45.2915 6.83772 45.2915 6.76794 45.2915 6.69604Z" fill="#AEAEAE"/>
<path d="M32.6971 5.21582C32.7664 5.25071 32.7664 5.25071 32.837 5.2863C32.8156 5.53011 32.7936 5.77385 32.7714 6.01758C32.7653 6.087 32.7593 6.15642 32.753 6.22793C32.7469 6.29426 32.7408 6.36059 32.7345 6.42893C32.729 6.4902 32.7235 6.55147 32.7179 6.6146C32.6971 6.76648 32.6971 6.76648 32.6271 6.90745C32.5232 6.87256 32.5232 6.87256 32.4172 6.83697C32.3479 6.48807 32.3479 6.48807 32.2773 6.13212C31.9627 6.0112 31.6933 5.97064 31.3573 5.96197C31.2731 5.95946 31.1889 5.95695 31.1022 5.95436C30.9435 5.95077 30.9435 5.95077 30.7817 5.9471C30.444 5.93838 30.1063 5.92965 29.7584 5.92067C29.7353 7.03714 29.7122 8.15362 29.6884 9.30393C30.2318 9.28866 30.2318 9.28866 30.7861 9.27309C30.8998 9.27005 31.0135 9.26701 31.1306 9.26388C31.2207 9.2612 31.3107 9.25851 31.4035 9.25574C31.5414 9.25187 31.5414 9.25187 31.6822 9.24791C31.8887 9.23572 32.0764 9.21077 32.2773 9.16296C32.3004 9.09318 32.3235 9.0234 32.3473 8.9515C32.3934 8.9515 32.4396 8.9515 32.4872 8.9515C32.4775 9.20409 32.4671 9.45665 32.4566 9.70921C32.4538 9.78081 32.4511 9.85241 32.4482 9.92617C32.4453 9.99523 32.4424 10.0643 32.4394 10.1354C32.4368 10.1989 32.4342 10.2624 32.4316 10.3278C32.4184 10.4878 32.3911 10.6301 32.3473 10.7841C32.278 10.7841 32.2087 10.7841 32.1373 10.7841C32.1305 10.7408 32.1236 10.6974 32.1166 10.6528C32.0583 10.2992 32.0583 10.2992 31.8662 10.0088C31.5889 9.87732 31.3324 9.85646 31.0277 9.8455C30.9497 9.84255 30.8716 9.8396 30.7913 9.83655C30.7102 9.83378 30.6291 9.83101 30.5455 9.82816C30.4634 9.82511 30.3812 9.82207 30.2966 9.81893C30.0939 9.81146 29.8911 9.80427 29.6884 9.79732C29.6949 10.2776 29.7024 10.7578 29.7106 11.2381C29.7133 11.4012 29.7157 11.5644 29.7179 11.7276C29.7212 11.963 29.7252 12.1983 29.7294 12.4336C29.7302 12.5059 29.731 12.5782 29.7319 12.6526C29.7405 13.083 29.7915 13.4683 29.8983 13.8854C30.1985 13.9552 30.4987 14.025 30.8079 14.0969C30.8079 14.1667 30.8079 14.2364 30.8079 14.3083C29.8151 14.3083 28.8222 14.3083 27.7993 14.3083C27.7993 14.2386 27.7993 14.1688 27.7993 14.0969C28.0071 14.0271 28.2149 13.9573 28.429 13.8854C28.5339 13.381 28.5894 12.9021 28.587 12.3871C28.5873 12.3195 28.5875 12.2519 28.5878 12.1822C28.5884 11.9616 28.588 11.741 28.5875 11.5203C28.5876 11.3658 28.5877 11.2113 28.5879 11.0568C28.5881 10.7344 28.5878 10.4121 28.5872 10.0897C28.5864 9.67654 28.5868 9.26345 28.5877 8.85034C28.5882 8.53192 28.588 8.2135 28.5876 7.89509C28.5876 7.74272 28.5877 7.59035 28.588 7.43798C28.5884 7.22544 28.5878 7.01292 28.587 6.80038C28.5873 6.73762 28.5876 6.67485 28.5879 6.61019C28.5858 6.30577 28.5818 6.05189 28.429 5.7797C28.2738 5.6877 28.2738 5.6877 28.0791 5.63873C27.9911 5.61256 27.9031 5.58639 27.8124 5.55943C27.702 5.5289 27.702 5.5289 27.5894 5.49776C27.6124 5.45124 27.6355 5.40472 27.6593 5.35679C27.7204 5.35606 27.7814 5.35534 27.8443 5.35459C28.4188 5.34769 28.9934 5.34047 29.5679 5.33287C29.8633 5.32898 30.1586 5.32521 30.454 5.32174C30.7389 5.31838 31.0238 5.31469 31.3087 5.31077C31.4176 5.30933 31.5264 5.30801 31.6353 5.30681C31.7874 5.30512 31.9395 5.303 32.0917 5.30078C32.1784 5.29968 32.2651 5.29859 32.3544 5.29746C32.5529 5.30012 32.5529 5.30012 32.6971 5.21582Z" fill="#AEAEAE"/>
<path d="M69.8506 19.6652C70.6357 19.6652 71.4208 19.6652 72.2296 19.6652C72.2642 19.7698 72.2642 19.7698 72.2996 19.8766C72.1148 19.8999 71.9301 19.9231 71.7398 19.9471C71.6892 20.2227 71.6606 20.4846 71.6586 20.7647C71.6579 20.8405 71.6572 20.9163 71.6565 20.9944C71.6561 21.116 71.6561 21.116 71.6556 21.2401C71.655 21.3671 71.655 21.3671 71.6544 21.4966C71.6538 21.6758 71.6533 21.8549 71.653 22.0341C71.6524 22.3054 71.6502 22.5767 71.648 22.848C71.5894 24.4511 71.5894 24.4511 72.2296 25.8678C72.6883 26.3177 73.2165 26.4308 73.8389 26.4317C74.3787 26.3835 74.8132 26.1609 75.1902 25.7709C75.7645 24.8708 75.6792 23.7165 75.6725 22.6846C75.6712 22.4802 75.671 22.2758 75.6711 22.0714C75.6697 21.3601 75.6533 20.6558 75.5881 19.9471C75.3803 19.9238 75.1725 19.9006 74.9584 19.8766C74.9584 19.8068 74.9584 19.7371 74.9584 19.6652C75.6742 19.6652 76.39 19.6652 77.1274 19.6652C77.1274 19.7349 77.1274 19.8047 77.1274 19.8766C77.0481 19.897 76.9687 19.9173 76.8869 19.9383C76.8047 19.9645 76.7224 19.9906 76.6376 20.0176C76.5507 20.1927 76.5576 20.3124 76.5555 20.5083C76.5546 20.5813 76.5536 20.6543 76.5527 20.7295C76.5519 20.809 76.5512 20.8884 76.5505 20.9702C76.5481 21.1387 76.5458 21.3072 76.5435 21.4757C76.5402 21.7411 76.5371 22.0065 76.5343 22.2719C76.5005 25.3581 76.5005 25.3581 75.6152 26.2924C74.991 26.813 74.3649 26.9385 73.5852 26.9427C73.519 26.9441 73.4527 26.9456 73.3844 26.9471C72.5852 26.9515 71.9228 26.7331 71.3372 26.1734C70.6552 25.4192 70.6005 24.546 70.5938 23.5649C70.592 23.427 70.5902 23.289 70.5883 23.151C70.5859 22.9597 70.5841 22.7684 70.5823 22.5771C70.5791 22.2411 70.5753 21.9051 70.571 21.569C70.5687 21.3907 70.5668 21.2123 70.5653 21.0339C70.5644 20.9529 70.5635 20.872 70.5625 20.7886C70.5618 20.7178 70.5612 20.647 70.5605 20.574C70.5499 20.3605 70.5192 20.1571 70.4804 19.9471C70.2726 19.9238 70.0648 19.9006 69.8506 19.8766C69.8506 19.8068 69.8506 19.7371 69.8506 19.6652Z" fill="#AEAEAE"/>
<path d="M80.6259 6.62551C80.616 6.78266 80.6057 6.93977 80.5953 7.09688C80.5868 7.22813 80.5868 7.22813 80.5781 7.36202C80.5598 7.56873 80.5316 7.76274 80.486 7.96472C80.3936 7.94146 80.3012 7.9182 80.2061 7.89424C80.1917 7.81573 80.1772 7.73723 80.1624 7.65635C80.0956 7.3931 80.0956 7.3931 79.9043 7.31714C79.5309 7.23426 79.1618 7.22672 78.7805 7.21582C78.512 7.2071 78.2436 7.19838 77.9671 7.18939C77.9671 8.11979 77.9671 9.05018 77.9671 10.0088C78.2716 10.0001 78.5761 9.99133 78.8898 9.98234C78.9852 9.97995 79.0807 9.97755 79.179 9.97508C79.2928 9.97132 79.2928 9.97132 79.4088 9.96748C79.4861 9.96526 79.5634 9.96305 79.6431 9.96076C79.8568 9.93823 80.0092 9.87953 80.2061 9.79732C80.2984 9.79732 80.3908 9.79732 80.486 9.79732C80.4398 10.2625 80.3936 10.7277 80.346 11.207C80.2537 11.207 80.1613 11.207 80.0661 11.207C80.02 11.0442 79.9738 10.8814 79.9262 10.7136C79.4771 10.6013 79.0542 10.5459 78.5924 10.5286C78.5319 10.5259 78.4713 10.5231 78.4089 10.5203C78.2616 10.5138 78.1144 10.5079 77.9671 10.5022C77.9753 10.9099 77.984 11.3176 77.9931 11.7252C77.9962 11.864 77.9991 12.0027 78.0019 12.1414C78.0059 12.3407 78.0104 12.54 78.0149 12.7392C78.0161 12.8013 78.0172 12.8635 78.0184 12.9275C78.0198 12.9853 78.0212 13.0432 78.0227 13.1027C78.0243 13.1791 78.0243 13.1791 78.026 13.2569C78.033 13.4076 78.033 13.4076 78.107 13.6035C78.4296 13.8221 78.8093 13.7677 79.1828 13.7665C79.2548 13.7676 79.3267 13.7688 79.4009 13.7699C79.9397 13.7703 79.9397 13.7703 80.416 13.533C80.5235 13.3776 80.5235 13.3776 80.5822 13.2026C80.6155 13.1172 80.6155 13.1172 80.6494 13.03C80.6647 12.9866 80.6801 12.9433 80.6959 12.8986C80.7998 12.9335 80.7998 12.9335 80.9058 12.9691C80.8898 13.1515 80.8721 13.3333 80.8533 13.5154C80.849 13.5668 80.8446 13.6182 80.8402 13.6712C80.8155 13.8991 80.7787 14.0753 80.6614 14.2728C80.3894 14.4371 80.1412 14.411 79.83 14.4008C79.7625 14.3998 79.6951 14.3987 79.6255 14.3975C79.3759 14.3929 79.1263 14.3859 78.8767 14.3788C78.705 14.3746 78.5333 14.3705 78.3617 14.3664C77.647 14.3493 76.9324 14.3295 76.2178 14.3083C76.2409 14.2386 76.264 14.1688 76.2878 14.0969C76.3686 14.0649 76.4494 14.0329 76.5327 14C76.6135 13.9622 76.6943 13.9244 76.7776 13.8854C76.8832 13.5774 76.8574 13.2431 76.8566 12.9205C76.8567 12.8596 76.8569 12.7987 76.857 12.736C76.8573 12.5352 76.8571 12.3345 76.8569 12.1338C76.8569 11.9941 76.857 11.8545 76.8571 11.7149C76.8572 11.4225 76.857 11.1302 76.8567 10.8379C76.8563 10.4628 76.8565 10.0878 76.8569 9.71273C76.8572 9.42455 76.8571 9.13637 76.8569 8.84819C76.8569 8.70986 76.8569 8.57154 76.8571 8.43322C76.8573 8.24019 76.857 8.04717 76.8566 7.85414C76.8568 7.76813 76.8568 7.76813 76.8571 7.68037C76.8562 7.45131 76.85 7.26731 76.7776 7.04842C76.6321 6.99949 76.6321 6.99949 76.4627 6.97794C76.29 6.95151 76.29 6.95151 76.1479 6.90745C76.1248 6.83767 76.1017 6.76789 76.0779 6.696C76.6192 6.68677 77.1606 6.67758 77.7019 6.66843C77.9533 6.66418 78.2046 6.65992 78.456 6.65563C78.6987 6.65149 78.9415 6.64738 79.1842 6.64329C79.3216 6.64097 79.459 6.63861 79.5963 6.63626C79.6804 6.63485 79.7644 6.63344 79.851 6.63199C79.9248 6.63073 79.9986 6.62948 80.0746 6.62819C80.2584 6.62575 80.4421 6.62501 80.6259 6.62551Z" fill="#AEAEAE"/>
<path d="M91.0513 19.5948C91.0317 19.8049 91.0111 20.0148 90.9901 20.2247C90.9846 20.2846 90.9791 20.3446 90.9734 20.4063C90.9675 20.4633 90.9617 20.5203 90.9556 20.5791C90.9505 20.6319 90.9454 20.6846 90.9401 20.739C90.9306 20.7801 90.9211 20.8212 90.9113 20.8635C90.8421 20.8984 90.8421 20.8984 90.7714 20.934C90.7252 20.9107 90.679 20.8875 90.6315 20.8635C90.5899 20.6768 90.5795 20.4905 90.5615 20.2996C90.1475 20.2137 89.7318 20.2054 89.3108 20.1895C89.0539 20.1793 88.7971 20.1691 88.5324 20.1586C88.5324 21.0193 88.5324 21.8799 88.5324 22.7666C88.8355 22.7593 89.1385 22.752 89.4507 22.7446C89.5455 22.7428 89.6404 22.741 89.738 22.7392C89.8137 22.7369 89.8894 22.7346 89.9673 22.7322C90.0827 22.7294 90.0827 22.7294 90.2005 22.7266C90.4495 22.6922 90.6239 22.6086 90.8414 22.4846C90.9099 22.6918 90.914 22.7706 90.8876 22.9789C90.881 23.0322 90.8745 23.0856 90.8678 23.1406C90.8605 23.196 90.8532 23.2514 90.8458 23.3084C90.8388 23.3646 90.8318 23.4208 90.8246 23.4787C90.8073 23.6173 90.7894 23.7558 90.7714 23.8943C90.679 23.8943 90.5867 23.8943 90.4915 23.8943C90.4569 23.685 90.4569 23.685 90.4216 23.4714C90.0311 23.3085 89.657 23.3 89.2408 23.2864C89.1726 23.2837 89.1045 23.2809 89.0342 23.2781C88.867 23.2715 88.6997 23.2655 88.5324 23.26C88.5407 23.6376 88.5494 24.0151 88.5584 24.3927C88.5615 24.5212 88.5644 24.6496 88.5672 24.7781C88.5712 24.9627 88.5757 25.1473 88.5802 25.3318C88.5814 25.3893 88.5826 25.4468 88.5838 25.5061C88.5898 25.7369 88.5994 25.9294 88.6723 26.1498C88.9858 26.3364 89.3252 26.3142 89.6781 26.3128C89.7359 26.314 89.7936 26.3151 89.8531 26.3163C90.234 26.3166 90.5089 26.2726 90.8414 26.0794C90.9417 25.9411 90.9417 25.9411 90.9769 25.7842C91.0015 25.6955 91.026 25.6068 91.0513 25.5155C91.1206 25.5155 91.1898 25.5155 91.2612 25.5155C91.2551 25.6726 91.2475 25.8298 91.2393 25.9868C91.2332 26.1181 91.2332 26.1181 91.227 26.252C91.1891 26.517 91.1443 26.6456 90.9813 26.8547C90.8047 26.8971 90.8047 26.8971 90.5914 26.8947C90.5115 26.8947 90.4317 26.8946 90.3495 26.8946C90.2633 26.8928 90.1772 26.891 90.0884 26.8891C90.0002 26.8886 89.9119 26.8881 89.821 26.8876C89.5867 26.8859 89.3524 26.8828 89.1181 26.8789C88.8789 26.8753 88.6397 26.8737 88.4005 26.8719C87.9313 26.868 87.4622 26.8621 86.9931 26.8547C86.9931 26.7616 86.9931 26.6686 86.9931 26.5727C87.2009 26.503 87.2009 26.503 87.4129 26.4318C87.4895 26.1205 87.4928 25.8167 87.4919 25.4981C87.492 25.4405 87.4922 25.3829 87.4923 25.3236C87.4926 25.134 87.4924 24.9444 87.4922 24.7547C87.4922 24.6228 87.4923 24.4909 87.4924 24.359C87.4925 24.083 87.4923 23.807 87.492 23.5309C87.4916 23.1766 87.4918 22.8222 87.4922 22.4679C87.4925 22.1957 87.4924 21.9235 87.4922 21.6514C87.4922 21.5207 87.4922 21.39 87.4924 21.2593C87.4926 21.077 87.4923 20.8948 87.4919 20.7126C87.4921 20.6311 87.4921 20.6311 87.4923 20.548C87.4965 20.2738 87.4965 20.2738 87.4129 20.0177C87.2647 19.9692 87.2647 19.9692 87.0937 19.9384C87.0358 19.9266 86.978 19.9148 86.9185 19.9026C86.8738 19.894 86.8292 19.8855 86.7832 19.8767C86.7832 19.8069 86.7832 19.7371 86.7832 19.6653C87.3235 19.6552 87.8639 19.6451 88.4043 19.6351C88.5881 19.6317 88.7718 19.6283 88.9556 19.6249C89.22 19.6199 89.4843 19.6151 89.7487 19.6102C89.8717 19.6079 89.8717 19.6079 89.9972 19.6055C90.0742 19.6041 90.1512 19.6027 90.2305 19.6012C90.298 19.6 90.3654 19.5987 90.4349 19.5974C90.6404 19.5946 90.8458 19.5943 91.0513 19.5948Z" fill="#AEAEAE"/>
<path d="M62.364 19.5242C62.4543 19.5357 62.5447 19.5471 62.6378 19.559C63.184 19.6136 63.7317 19.6034 64.2799 19.6015C64.3966 19.6014 64.5132 19.6013 64.6299 19.6012C64.9347 19.601 65.2395 19.6003 65.5443 19.5995C65.8563 19.5988 66.1682 19.5985 66.4801 19.5981C67.0905 19.5973 67.7009 19.5961 68.3113 19.5947C68.3113 20.0133 68.3113 20.432 68.3113 20.8634C68.219 20.8866 68.1266 20.9099 68.0315 20.9339C68.0141 20.8554 67.9968 20.7769 67.979 20.696C67.9179 20.4447 67.9179 20.4447 67.7734 20.3436C67.322 20.2206 66.8562 20.2099 66.3916 20.1894C66.327 20.1863 66.2625 20.1833 66.196 20.1801C66.0382 20.1727 65.8803 20.1655 65.7225 20.1585C65.73 20.854 65.7379 21.5495 65.7462 22.2449C65.7501 22.5679 65.7538 22.8909 65.7573 23.2139C65.7606 23.526 65.7643 23.8382 65.7682 24.1503C65.7696 24.2689 65.7709 24.3876 65.7721 24.5062C65.7214 25.4963 65.7214 25.4963 65.9324 26.4317C66.0968 26.4802 66.0968 26.4802 66.2866 26.511C66.3509 26.5228 66.4152 26.5346 66.4815 26.5467C66.556 26.5596 66.556 26.5596 66.6321 26.5726C66.6321 26.6657 66.6321 26.7587 66.6321 26.8546C65.8239 26.8546 65.0158 26.8546 64.1832 26.8546C64.1832 26.7615 64.1832 26.6685 64.1832 26.5726C64.2849 26.5443 64.2849 26.5443 64.3887 26.5154C64.4948 26.4739 64.4948 26.4739 64.603 26.4317C64.6908 26.1661 64.6853 25.9165 64.6873 25.6398C64.688 25.5806 64.6887 25.5214 64.6894 25.4605C64.6916 25.2649 64.6934 25.0692 64.6951 24.8736C64.6965 24.738 64.698 24.6024 64.6995 24.4668C64.7034 24.1097 64.7068 23.7527 64.7102 23.3957C64.7137 23.0315 64.7176 22.6672 64.7215 22.3029C64.729 21.5881 64.7361 20.8733 64.7429 20.1585C64.5111 20.1664 64.2794 20.1756 64.0476 20.185C63.9504 20.1882 63.9504 20.1882 63.8512 20.1916C63.1325 20.1998 63.1325 20.1998 62.5058 20.4917C62.4807 20.5358 62.4555 20.58 62.4296 20.6255C62.3625 20.7432 62.3625 20.7432 62.294 20.8634C62.2247 20.8401 62.1555 20.8169 62.0841 20.7929C62.104 20.6474 62.1245 20.5021 62.1453 20.3568C62.1567 20.2758 62.168 20.1949 62.1798 20.1114C62.2199 19.8986 62.2763 19.7211 62.364 19.5242Z" fill="#AEAEAE"/>
<path d="M78.8767 19.5242C78.9556 19.5357 79.0346 19.5471 79.1159 19.559C79.6471 19.618 80.1822 19.6033 80.7158 19.6015C80.8326 19.6014 80.9493 19.6013 81.0661 19.6012C81.3715 19.601 81.6769 19.6003 81.9823 19.5995C82.2946 19.5988 82.607 19.5985 82.9194 19.5981C83.531 19.5973 84.1425 19.5961 84.7541 19.5947C84.7541 20.0366 84.7541 20.4785 84.7541 20.9339C84.6848 20.9339 84.6155 20.9339 84.5442 20.9339C84.5153 20.8554 84.4864 20.7769 84.4567 20.696C84.3867 20.5341 84.3511 20.4538 84.2118 20.3436C83.7746 20.2212 83.32 20.2104 82.8693 20.1894C82.8081 20.1863 82.7469 20.1833 82.6838 20.1801C82.5343 20.1727 82.3847 20.1656 82.2352 20.1585C82.2427 20.9452 82.2506 21.7319 82.2589 22.5186C82.2628 22.8839 82.2665 23.2492 82.27 23.6144C82.2733 23.9668 82.277 24.3191 82.2809 24.6715C82.2823 24.8061 82.2836 24.9407 82.2848 25.0753C82.2865 25.2634 82.2886 25.4516 82.2908 25.6398C82.2914 25.7236 82.2914 25.7236 82.292 25.8092C82.295 26.0346 82.3039 26.2163 82.3751 26.4317C82.606 26.4782 82.8369 26.5247 83.0748 26.5726C83.0748 26.6657 83.0748 26.7587 83.0748 26.8546C82.2667 26.8546 81.4585 26.8546 80.6259 26.8546C80.6259 26.7615 80.6259 26.6685 80.6259 26.5726C80.7875 26.5494 80.9492 26.5261 81.1157 26.5021C81.1895 25.7917 81.2006 25.0846 81.2078 24.3711C81.2092 24.249 81.2107 24.127 81.2122 24.0049C81.216 23.6865 81.2195 23.3681 81.2229 23.0497C81.2264 22.7236 81.2303 22.3976 81.2342 22.0715C81.2416 21.4339 81.2488 20.7962 81.2556 20.1585C81.0121 20.1664 80.7687 20.1756 80.5253 20.185C80.4572 20.1871 80.389 20.1893 80.3188 20.1916C79.6893 20.2079 79.6893 20.2079 79.0866 20.37C78.9512 20.5289 78.8895 20.6676 78.8067 20.8634C78.7143 20.8401 78.622 20.8169 78.5268 20.7929C78.5583 20.621 78.5905 20.4492 78.623 20.2775C78.6319 20.2288 78.6407 20.1802 78.6498 20.13C78.6962 19.8881 78.7392 19.7319 78.8767 19.5242Z" fill="#AEAEAE"/>
<path d="M49.6996 19.5242C49.7786 19.5357 49.8576 19.5472 49.939 19.5591C50.4133 19.6118 50.8891 19.6025 51.3656 19.6C51.5391 19.599 51.7125 19.5986 51.886 19.5983C52.2534 19.5975 52.6208 19.5961 52.9881 19.5947C53.4159 19.593 53.8437 19.5916 54.2715 19.5907C54.4427 19.5903 54.6139 19.5894 54.7851 19.5885C54.8892 19.5882 54.9932 19.588 55.0973 19.5878C55.1885 19.5874 55.2796 19.587 55.3736 19.5867C55.577 19.5947 55.577 19.5947 55.6469 19.6651C55.6485 19.7896 55.6485 19.7896 55.6385 19.9496C55.6351 20.0066 55.6317 20.0636 55.6282 20.1223C55.6243 20.1822 55.6204 20.2422 55.6163 20.3039C55.6127 20.3641 55.609 20.4243 55.6053 20.4863C55.5962 20.6355 55.5866 20.7847 55.577 20.9339C55.4414 20.9116 55.4414 20.9116 55.2971 20.8634C55.2496 20.7227 55.2029 20.5817 55.1572 20.4405C54.7909 20.1535 54.137 20.2102 53.6922 20.1894C53.631 20.1863 53.5698 20.1833 53.5067 20.1801C53.3572 20.1727 53.2076 20.1656 53.0581 20.1585C53.0656 20.9348 53.0735 21.7111 53.0818 22.4874C53.0857 22.8478 53.0894 23.2083 53.0929 23.5687C53.0962 23.9165 53.0999 24.2643 53.1038 24.6121C53.1052 24.7449 53.1065 24.8776 53.1077 25.0104C53.1094 25.1962 53.1115 25.382 53.1137 25.5677C53.1143 25.6503 53.1143 25.6503 53.1149 25.7344C53.1183 25.983 53.1377 26.1887 53.198 26.4317C53.4289 26.4782 53.6598 26.5247 53.8977 26.5726C53.8977 26.6657 53.8977 26.7587 53.8977 26.8546C53.0896 26.8546 52.2814 26.8546 51.4488 26.8546C51.4488 26.7615 51.4488 26.6685 51.4488 26.5726C51.6104 26.5494 51.7721 26.5261 51.9386 26.5021C51.9903 26.0908 52.0197 25.6862 52.0229 25.2717C52.0236 25.2159 52.0243 25.1601 52.025 25.1026C52.0272 24.9207 52.029 24.7388 52.0307 24.5569C52.0321 24.4298 52.0336 24.3027 52.0351 24.1756C52.0389 23.843 52.0424 23.5103 52.0458 23.1776C52.0493 22.8374 52.0532 22.4972 52.0571 22.157C52.0646 21.4909 52.0717 20.8247 52.0785 20.1585C51.8351 20.1664 51.5916 20.1756 51.3482 20.185C51.2801 20.1871 51.2119 20.1893 51.1417 20.1916C50.5122 20.2079 50.5122 20.2079 49.9095 20.37C49.7741 20.5289 49.7124 20.6676 49.6296 20.8634C49.5372 20.8401 49.4449 20.8169 49.3497 20.7929C49.3812 20.621 49.4134 20.4492 49.4459 20.2775C49.4548 20.2288 49.4636 20.1802 49.4727 20.13C49.5191 19.8881 49.5621 19.7319 49.6996 19.5242Z" fill="#AEAEAE"/>
<path d="M47.1107 19.6652C47.1126 19.862 47.114 20.0588 47.1151 20.2555C47.1157 20.3115 47.1163 20.3675 47.1169 20.4252C47.1186 20.8475 47.1186 20.8475 47.0408 21.0044C46.9715 21.0044 46.9022 21.0044 46.8308 21.0044C46.8189 20.9611 46.807 20.9178 46.7948 20.8731C46.6957 20.5286 46.6957 20.5286 46.5029 20.2335C46.0581 20.0277 45.5472 19.9211 45.0693 20.0628C44.9316 20.1146 44.7969 20.1709 44.6618 20.2291C44.5925 20.2524 44.5233 20.2756 44.4519 20.2996C44.2714 20.6058 44.2541 20.9419 44.312 21.2864C44.5388 21.9481 45.2325 22.2957 45.777 22.6668C46.4405 23.1255 47.0685 23.6594 47.3206 24.4582C47.3825 25.1361 47.3443 25.666 46.9577 26.2335C46.4254 26.7697 45.8704 26.9424 45.1304 26.9479C45.0609 26.9476 44.9914 26.9474 44.9198 26.9472C44.8511 26.9483 44.7824 26.9495 44.7117 26.9506C44.2461 26.9509 43.8369 26.8872 43.4024 26.7137C43.2915 26.602 43.3233 26.4875 43.3231 26.3329C43.323 26.2388 43.323 26.2388 43.3228 26.1428C43.3231 26.0768 43.3234 26.0108 43.3236 25.9428C43.3234 25.877 43.3231 25.8113 43.3228 25.7436C43.3229 25.6807 43.323 25.6179 43.3231 25.5532C43.3232 25.4953 43.3233 25.4374 43.3233 25.3778C43.3324 25.2335 43.3324 25.2335 43.4024 25.0926C43.4485 25.0926 43.4947 25.0926 43.5423 25.0926C43.5534 25.1444 43.5645 25.1963 43.5759 25.2498C43.7063 25.8165 43.7063 25.8165 44.1021 26.2203C44.7011 26.4752 45.2386 26.5118 45.8526 26.285C46.1434 26.1493 46.2884 25.9457 46.411 25.6564C46.4382 25.4933 46.4382 25.4933 46.4373 25.3216C46.4393 25.2653 46.4412 25.209 46.4433 25.1509C46.3543 24.6012 46.0594 24.2814 45.6282 23.9604C45.5579 23.9058 45.5579 23.9058 45.4862 23.8502C45.3521 23.7463 45.2171 23.6439 45.0816 23.5419C43.6384 22.4478 43.6384 22.4478 43.4723 21.6388C43.4074 21.0877 43.5359 20.6098 43.8528 20.1553C44.6377 19.2658 46.066 19.3984 47.1107 19.6652Z" fill="#AEAEAE"/>
<path d="M28.0092 18.3965C28.8404 18.3965 29.6716 18.3965 30.5281 18.3965C30.5627 18.5012 30.5627 18.5012 30.598 18.6079C30.5311 18.6284 30.5311 18.6284 30.4627 18.6492C30.4049 18.6676 30.3471 18.6859 30.2875 18.7049C30.2011 18.7318 30.2011 18.7318 30.1129 18.7594C29.9559 18.8059 29.9559 18.8059 29.8983 18.9604C29.7997 19.5886 29.8182 20.2237 29.8191 20.8579C29.819 20.9813 29.819 21.1046 29.8189 21.2279C29.8188 21.4857 29.8189 21.7436 29.8192 22.0014C29.8196 22.3294 29.8194 22.6575 29.819 22.9855C29.8187 23.2401 29.8188 23.4947 29.819 23.7493C29.819 23.8701 29.819 23.9909 29.8188 24.1117C29.7356 25.322 29.7356 25.322 30.0383 26.4317C30.2227 26.4965 30.2227 26.4965 30.4318 26.5198C30.502 26.5304 30.5722 26.5409 30.6445 26.5518C30.6984 26.5587 30.7524 26.5656 30.8079 26.5727C30.8079 26.6657 30.8079 26.7588 30.8079 26.8546C29.9074 26.8546 29.0069 26.8546 28.0791 26.8546C28.0791 26.7616 28.0791 26.6686 28.0791 26.5727C28.196 26.5509 28.196 26.5509 28.3153 26.5286C28.5792 26.4612 28.5792 26.4612 28.6537 26.257C28.7238 25.9417 28.7279 25.6467 28.7259 25.3247C28.726 25.2571 28.7261 25.1894 28.7263 25.1197C28.7265 24.8968 28.7258 24.6739 28.725 24.451C28.7249 24.2958 28.7249 24.1407 28.7249 23.9855C28.7248 23.6607 28.7242 23.3359 28.7233 23.0111C28.7221 22.5946 28.7218 22.1781 28.7219 21.7615C28.7218 21.4413 28.7215 21.1211 28.7209 20.8008C28.7207 20.6472 28.7206 20.4936 28.7205 20.34C28.7204 20.1256 28.7198 19.9111 28.719 19.6967C28.7191 19.6331 28.7191 19.5696 28.7191 19.5041C28.7188 19.4456 28.7185 19.3871 28.7182 19.3268C28.7181 19.2762 28.718 19.2255 28.7179 19.1733C28.7115 19.0056 28.7115 19.0056 28.6389 18.7489C28.3272 18.6791 28.3272 18.6791 28.0092 18.6079C28.0092 18.5382 28.0092 18.4684 28.0092 18.3965Z" fill="#AEAEAE"/>
<path d="M57.746 19.6652C58.4849 19.6652 59.2238 19.6652 59.985 19.6652C60.0197 19.7698 60.0197 19.7698 60.055 19.8766C59.9771 19.8926 59.8991 19.9086 59.8188 19.9251C59.5605 19.988 59.5605 19.988 59.4804 20.1679C59.4139 20.4118 59.408 20.6245 59.4083 20.8776C59.4081 20.9274 59.408 20.9772 59.4079 21.0285C59.4076 21.1926 59.4084 21.3566 59.4091 21.5206C59.4092 21.6354 59.4093 21.7501 59.4092 21.8649C59.4093 22.1054 59.4099 22.3458 59.4109 22.5863C59.4121 22.8929 59.4123 23.1995 59.4123 23.506C59.4123 23.7432 59.4127 23.9803 59.4132 24.2174C59.4134 24.3303 59.4135 24.4432 59.4136 24.5562C59.3586 25.5204 59.3586 25.5204 59.5652 26.4317C59.7296 26.4803 59.7296 26.4803 59.9194 26.511C59.9837 26.5228 60.048 26.5346 60.1143 26.5468C60.1888 26.5596 60.1888 26.5596 60.2649 26.5726C60.2303 26.7122 60.2303 26.7122 60.1949 26.8546C59.4099 26.8546 58.6248 26.8546 57.816 26.8546C57.816 26.7615 57.816 26.6685 57.816 26.5726C57.9177 26.5465 57.9177 26.5465 58.0215 26.5198C58.2388 26.4597 58.2388 26.4597 58.2835 26.3214C58.3159 26.0714 58.3167 25.8227 58.317 25.5711C58.3174 25.513 58.3177 25.4548 58.3181 25.3949C58.3191 25.203 58.3196 25.011 58.32 24.8191C58.3204 24.6857 58.3208 24.5522 58.3212 24.4188C58.3219 24.1393 58.3223 23.8599 58.3226 23.5804C58.323 23.2218 58.3246 22.8633 58.3266 22.5048C58.3279 22.2294 58.3283 21.9539 58.3284 21.6785C58.3286 21.5463 58.3292 21.4141 58.3301 21.2818C58.3313 21.0972 58.3312 20.9127 58.3307 20.7281C58.3317 20.6458 58.3317 20.6458 58.3327 20.5619C58.3322 20.2755 58.3322 20.2755 58.2132 20.0225C58.0445 19.9141 57.8673 19.8618 57.676 19.8061C57.6991 19.7596 57.7222 19.7131 57.746 19.6652Z" fill="#AEAEAE"/>
<path d="M3.52 14.3789C5.57726 15.1335 7.14588 17.3973 8.13796 19.2423C8.13796 19.2656 8.13796 19.2889 8.13796 19.3128C7.1704 19.376 6.20574 19.1161 5.45919 18.4695C4.8855 17.8721 4.70921 17.1396 4.50832 16.3569C4.3176 15.6154 4.09273 14.9155 3.52 14.3789Z" fill="#AEAEAE"/>
</g>
<defs>
<clipPath id="clip0_2949_624">
<rect width="90.4" height="32" fill="white" transform="translate(0.931152)"/>
</clipPath>
</defs>
</svg>
