<svg width="131" height="32" viewBox="0 0 131 32" fill="none" xmlns="http://www.w3.org/2000/svg">
<g clip-path="url(#clip0_2949_698)">
<path fill-rule="evenodd" clip-rule="evenodd" d="M7.47392 13.7797C7.54671 13.8762 7.53825 14.0117 7.45191 14.0963V14.0929C7.37235 14.1708 7.25215 14.1843 7.15735 14.1285C6.73583 13.8779 6.28046 13.5783 5.85047 13.277C3.60236 11.4791 1.44058 9.30551 0.51797 7.07094L0.514581 7.06756C-1.97223 1.04098 5.09376 0.0523515 11.2151 0.00156575C20.2635 -0.07292 19.8623 2.52731 19.4746 4.13722C19.3172 4.79066 18.9109 5.61847 18.5537 6.26514C18.4166 6.51399 18.0408 6.41581 18.0391 6.1331C18.0221 4.18631 17.0471 0.577138 9.9218 1.11039C3.86645 1.56407 2.761 7.48569 7.47392 13.7797ZM39.3472 3.14174C38.819 3.37027 38.3586 3.68176 37.9625 4.0762C37.5663 4.47063 37.2549 4.93278 37.028 5.46095C36.7995 5.98912 36.6861 6.55115 36.6861 7.15212C36.6861 7.75308 36.7995 8.31511 37.028 8.84328C37.2565 9.37146 37.568 9.83191 37.9625 10.228C38.3569 10.6242 38.819 10.9357 39.3472 11.1625C39.8754 11.391 40.4374 11.5045 41.0384 11.5045C41.8543 11.5045 42.5873 11.3064 43.2408 10.9103C43.8942 10.5141 44.4122 9.98766 44.7965 9.32744H41.0384V6.93543H47.7641C47.7641 6.97098 47.7675 7.00823 47.7726 7.04378C47.7777 7.07933 47.781 7.11488 47.781 7.15212C47.781 8.08658 47.605 8.96178 47.2512 9.77774C46.8974 10.5937 46.4149 11.3064 45.8038 11.9175C45.1927 12.5286 44.4783 13.0111 43.664 13.3649C42.848 13.7187 41.9728 13.8948 41.0384 13.8948C40.1039 13.8948 39.2287 13.7187 38.4128 13.3649C37.5968 13.0111 36.8841 12.5286 36.273 11.9175C35.6619 11.3064 35.1794 10.592 34.8256 9.77774C34.4718 8.96178 34.2957 8.08658 34.2957 7.15212C34.2957 6.21766 34.4735 5.34245 34.8256 4.5265C35.1794 3.71054 35.6619 2.99785 36.273 2.38672C36.8841 1.7756 37.5985 1.29314 38.4128 0.939329C39.2287 0.585522 40.1039 0.409465 41.0384 0.409465C41.7223 0.409465 42.3757 0.507651 42.9987 0.705715C43.6217 0.903779 44.2006 1.17633 44.7339 1.52337C45.2671 1.8704 45.7411 2.28854 46.1542 2.77269C46.5673 3.25855 46.9058 3.79518 47.1699 4.3826L45.0843 5.58792C44.9286 5.17994 44.7187 4.80582 44.4546 4.46386C44.1905 4.1219 43.8824 3.82904 43.5286 3.58188C43.1748 3.33642 42.7888 3.14343 42.369 3.00631C41.9491 2.86919 41.5056 2.79978 41.0384 2.79978C40.4391 2.79978 39.8754 2.9132 39.3472 3.14174ZM49.2978 7.20629C49.5501 6.61887 49.8937 6.10593 50.3322 5.66917C50.7706 5.23242 51.2802 4.88707 51.8608 4.63484C52.4415 4.3826 53.0695 4.25733 53.7399 4.25733C54.4103 4.25733 55.0231 4.3826 55.6105 4.63484C56.1979 4.88707 56.7109 5.23072 57.1476 5.66917C57.5844 6.10762 57.9297 6.61887 58.182 7.20629C58.4342 7.79371 58.5595 8.41668 58.5595 9.0769C58.5595 9.25634 58.5476 9.4307 58.5239 9.5983C58.5002 9.76589 58.4697 9.93348 58.4342 10.1028H51.529C51.7322 10.5226 52.0267 10.8612 52.411 11.1185C52.7953 11.3758 53.2388 11.5045 53.7416 11.5045C54.3053 11.5045 54.803 11.3369 55.2347 11.0017H58.1481C57.9687 11.4334 57.7283 11.8261 57.4286 12.1799C57.129 12.5337 56.7904 12.8367 56.4129 13.0873C56.0354 13.3395 55.619 13.5376 55.1636 13.6815C54.7082 13.8254 54.2342 13.8965 53.7433 13.8965C53.0712 13.8965 52.4449 13.7712 51.8642 13.519C51.2836 13.2667 50.774 12.9231 50.3356 12.4846C49.8971 12.0462 49.5535 11.5383 49.3012 10.956C49.049 10.3753 48.9237 9.74727 48.9237 9.0769C48.9237 8.40652 49.049 7.79371 49.3012 7.20629H49.2978ZM52.4008 7.04377C52.0115 7.30786 51.7203 7.64982 51.529 8.06795H55.9525C55.7612 7.64812 55.47 7.30617 55.0806 7.04377C54.6913 6.77969 54.2444 6.64764 53.7416 6.64764C53.2388 6.64764 52.7919 6.77969 52.4025 7.04377H52.4008ZM66.0978 7.22491C66.2112 7.40435 66.2924 7.61427 66.3398 7.85465H66.3415C66.3889 8.09504 66.4126 8.35235 66.4126 8.62829V13.8982H68.8046V8.62829C68.8046 8.02902 68.72 7.46191 68.5524 6.92866C68.3848 6.39541 68.136 5.93157 67.8059 5.53544C67.4757 5.141 67.0745 4.82952 66.6005 4.60098C66.1282 4.37244 65.5848 4.25902 64.9737 4.25902C64.4591 4.25902 63.9935 4.40461 63.5805 4.69917C63.1674 4.99372 62.7916 5.33737 62.4564 5.7335V4.25902H60.0644V13.8982H62.4564V8.88053C62.4564 8.54365 62.5343 8.23893 62.69 7.963C62.8458 7.68706 63.0472 7.45006 63.2927 7.252C63.5382 7.05393 63.8107 6.90327 64.1104 6.8017C64.41 6.70012 64.7113 6.64934 64.9737 6.64934C65.2361 6.64934 65.4612 6.70012 65.6475 6.8017C65.8337 6.90496 65.9843 7.04547 66.0978 7.22491ZM70.6837 7.20629C70.9359 6.61887 71.2796 6.10593 71.718 5.66917C72.1565 5.23242 72.666 4.88707 73.2467 4.63484C73.8274 4.3826 74.4554 4.25733 75.1258 4.25733C75.7961 4.25733 76.409 4.3826 76.9964 4.63484C77.5838 4.88707 78.0967 5.23072 78.5335 5.66917C78.9703 6.10762 79.3156 6.61887 79.5678 7.20629C79.8201 7.79371 79.9453 8.41668 79.9453 9.0769C79.9453 9.25634 79.9335 9.4307 79.9098 9.5983C79.8861 9.76589 79.8556 9.93348 79.8201 10.1028H72.9149C73.1181 10.5226 73.4126 10.8612 73.7969 11.1185C74.1812 11.3758 74.6247 11.5045 75.1275 11.5045C75.6912 11.5045 76.1889 11.3369 76.6206 11.0017H79.534C79.3545 11.4334 79.1142 11.8261 78.8145 12.1799C78.5149 12.5337 78.1763 12.8367 77.7988 13.0873C77.4213 13.3395 77.0049 13.5376 76.5495 13.6815C76.0941 13.8254 75.6201 13.8965 75.1292 13.8965C74.4571 13.8965 73.8307 13.7712 73.2501 13.519C72.6694 13.2667 72.1599 12.9231 71.7214 12.4846C71.283 12.0462 70.9393 11.5383 70.6871 10.956C70.4349 10.3753 70.3096 9.74727 70.3096 9.0769C70.3096 8.40652 70.4349 7.79371 70.6871 7.20629H70.6837ZM73.7867 7.04377C73.3974 7.30786 73.1062 7.64982 72.9149 8.06795H77.3384C77.1471 7.64812 76.8559 7.30617 76.4665 7.04377C76.0772 6.77969 75.6302 6.64764 75.1275 6.64764C74.6247 6.64764 74.1778 6.77969 73.7884 7.04377H73.7867ZM84.1368 5.21041V4.25733H81.7465V13.8965H84.1385V9.0041C84.1385 8.59612 84.1927 8.24232 84.3011 7.94268C84.4094 7.64305 84.5533 7.39419 84.7327 7.19613C84.9122 6.99807 85.1153 6.85248 85.3438 6.75599C85.5724 6.65949 85.8111 6.61209 86.0633 6.61209C86.1953 6.61209 86.3511 6.63072 86.5305 6.66627C86.71 6.70182 86.9436 6.77969 87.2314 6.89988V4.43677C86.9554 4.37752 86.7269 4.3352 86.5475 4.3115C86.368 4.2878 86.2055 4.27595 86.0616 4.27595C85.6773 4.27595 85.3218 4.37244 84.9917 4.56374C84.6616 4.75503 84.3772 4.97002 84.1368 5.21041ZM90.4529 13.6358C89.9078 13.4614 89.4406 13.2244 89.0495 12.9248C88.6585 12.6251 88.3605 12.2781 88.1506 11.882C87.9407 11.4858 87.8358 11.066 87.8358 10.6225C87.8358 10.1789 87.9407 9.75573 88.1506 9.35452C88.3605 8.95331 88.6602 8.60289 89.0495 8.30156C89.4389 8.00024 89.9061 7.76493 90.4529 7.59056C90.998 7.4162 91.6074 7.32986 92.2778 7.32986H94.0587C93.9859 7.17412 93.9063 7.01838 93.8166 6.86263C93.7269 6.70689 93.6135 6.57146 93.4747 6.45804C93.3375 6.34462 93.1716 6.25151 92.9803 6.17872C92.7891 6.10762 92.5555 6.07038 92.2795 6.07038C92.0391 6.07038 91.8157 6.089 91.6057 6.12455C91.3958 6.1601 91.1893 6.22104 90.9845 6.30399C90.7813 6.38863 90.5731 6.49867 90.3632 6.63748C90.1533 6.77461 89.9231 6.95236 89.6708 7.16735L88.501 5.74704C88.7533 5.51851 89.0411 5.31198 89.3644 5.12745C89.6877 4.94124 90.0179 4.7855 90.353 4.66023C90.6882 4.53496 91.0251 4.43508 91.3603 4.36398C91.6955 4.29118 92.0019 4.25563 92.2778 4.25563C93.5966 4.25563 94.6394 4.53495 95.4079 5.09191C96.1765 5.64886 96.559 6.4919 96.559 7.61934V11.6839C96.559 11.8278 96.5658 11.9869 96.5777 12.1596C96.5895 12.334 96.6166 12.5185 96.6589 12.7165C96.7013 12.9146 96.7723 13.1161 96.8739 13.3192C96.9755 13.5223 97.116 13.7153 97.2971 13.8948H94.6901C94.5937 13.7983 94.5158 13.673 94.4565 13.5173C94.3973 13.3615 94.36 13.2481 94.3482 13.1753C94.1332 13.3666 93.8471 13.5342 93.4933 13.6781C93.1395 13.822 92.7349 13.8931 92.2795 13.8931C91.6075 13.8931 90.9997 13.8067 90.4546 13.6324L90.4529 13.6358ZM93.6727 11.1811C93.9673 10.9661 94.1247 10.6953 94.1484 10.3719V9.54412H92.2778C91.6058 9.54412 91.0945 9.65754 90.7407 9.88608C90.3869 10.1146 90.2108 10.3601 90.2108 10.6242C90.2108 10.8883 90.3869 11.0863 90.7407 11.2539C91.0945 11.4215 91.6074 11.5061 92.2778 11.5061C92.9126 11.5061 93.3782 11.3978 93.671 11.1828L93.6727 11.1811ZM99.2829 2.00922V4.25564H98.0234V6.64765H99.2829V10.2077C99.2829 10.8781 99.3607 11.4486 99.5165 11.9158C99.6722 12.3847 99.8872 12.7656 100.163 13.0585C100.439 13.3514 100.766 13.5647 101.143 13.6967C101.521 13.8288 101.937 13.8948 102.393 13.8948C102.643 13.8948 102.926 13.8643 103.237 13.8051C103.551 13.7458 103.891 13.6679 104.263 13.5714L103.94 11.4858C103.676 11.5468 103.434 11.601 103.212 11.6484C102.99 11.6958 102.814 11.7195 102.682 11.7195C102.369 11.7195 102.123 11.6111 101.944 11.3961C101.765 11.1811 101.675 10.785 101.675 10.2094V6.64934H103.635V4.25733H101.675V1.30837L99.2829 2.00922ZM106.322 3.30425V0.409465H108.714V3.30425H106.322ZM108.714 4.25733V13.8965H106.322V4.25733H108.714ZM111.923 5.66917C111.485 6.10593 111.141 6.61887 110.889 7.20629C110.637 7.79371 110.512 8.40652 110.512 9.0769C110.512 9.74727 110.637 10.3753 110.889 10.956C111.141 11.5383 111.485 12.0462 111.923 12.4846C112.36 12.9231 112.871 13.2667 113.452 13.519C114.033 13.7712 114.671 13.8965 115.331 13.8965C115.991 13.8965 116.614 13.7712 117.202 13.519C117.789 13.2667 118.3 12.9231 118.739 12.4846C119.177 12.0462 119.521 11.5383 119.773 10.956C120.025 10.3753 120.151 9.73711 120.151 9.0769C120.151 8.41668 120.025 7.79371 119.773 7.20629C119.521 6.61887 119.176 6.10762 118.739 5.66917C118.302 5.23072 117.789 4.88707 117.202 4.63484C116.614 4.3826 116.003 4.25733 115.331 4.25733C114.659 4.25733 114.033 4.3826 113.452 4.63484C112.871 4.88707 112.36 5.23072 111.923 5.66917ZM113.613 10.7951C113.391 10.5734 113.217 10.3161 113.092 10.0215C112.965 9.72695 112.902 9.41377 112.902 9.0769C112.902 8.74002 112.966 8.42684 113.092 8.13228C113.217 7.83772 113.391 7.58041 113.613 7.35864C113.835 7.13688 114.092 6.96252 114.387 6.83724C114.681 6.71028 114.994 6.64764 115.331 6.64764C115.668 6.64764 115.981 6.71197 116.276 6.83724C116.57 6.96252 116.828 7.13688 117.049 7.35864C117.271 7.58041 117.446 7.83772 117.571 8.13228C117.698 8.42684 117.76 8.74002 117.76 9.0769C117.76 9.41377 117.696 9.72695 117.571 10.0215C117.446 10.3161 117.271 10.5734 117.049 10.7951C116.828 11.0169 116.57 11.1913 116.276 11.3165C115.981 11.4435 115.668 11.5061 115.331 11.5061C114.994 11.5061 114.681 11.4418 114.387 11.3165C114.092 11.1913 113.835 11.0169 113.613 10.7951ZM127.931 7.85465C127.884 7.61427 127.802 7.40435 127.689 7.22491C127.576 7.04547 127.425 6.90496 127.239 6.8017C127.052 6.69843 126.827 6.64934 126.565 6.64934C126.303 6.64934 126.001 6.70012 125.702 6.8017C125.402 6.90327 125.129 7.05393 124.884 7.252C124.638 7.45006 124.437 7.68706 124.281 7.963C124.126 8.23893 124.048 8.54365 124.048 8.88053V13.8982H121.656V4.25902H124.048V5.7335C124.383 5.33737 124.759 4.99372 125.172 4.69917C125.585 4.40461 126.05 4.25902 126.565 4.25902C127.176 4.25902 127.719 4.37244 128.192 4.60098C128.666 4.82952 129.067 5.141 129.397 5.53544C129.727 5.92987 129.976 6.39541 130.144 6.92866C130.311 7.46191 130.396 8.02902 130.396 8.62829V13.8982H128.004V8.62829C128.004 8.35235 127.98 8.09504 127.931 7.85465ZM38.2096 29.1644V18.1032H35.7634V31.5919H44.6831V29.1644H38.2096ZM48.5784 31.3312C48.0333 31.1568 47.566 30.9198 47.175 30.6202C46.7839 30.3206 46.486 29.9735 46.2761 29.5774C46.0662 29.1813 45.9612 28.7615 45.9612 28.3179C45.9612 27.8744 46.0662 27.4512 46.2761 27.05C46.486 26.6488 46.7856 26.2983 47.175 25.997C47.5644 25.6957 48.0316 25.4604 48.5784 25.286C49.1235 25.1117 49.7329 25.0253 50.4033 25.0253H52.1842C52.1131 24.8696 52.0318 24.7138 51.9421 24.5581C51.8524 24.4023 51.7373 24.2669 51.6001 24.1535C51.463 24.0401 51.2971 23.947 51.1058 23.8742C50.9145 23.8031 50.6809 23.7658 50.405 23.7658C50.1646 23.7658 49.9411 23.7845 49.7312 23.82C49.5213 23.8556 49.3148 23.9165 49.1099 23.9994C48.9068 24.0841 48.6986 24.1941 48.4903 24.3329C48.2804 24.4701 48.0502 24.6478 47.798 24.8628L46.6282 23.4425C46.8804 23.214 47.1682 23.0074 47.4916 22.8229C47.8149 22.6367 48.145 22.481 48.4802 22.3557C48.8154 22.2304 49.1523 22.1305 49.4874 22.0594C49.8226 21.9866 50.129 21.9511 50.405 21.9511C51.7237 21.9511 52.7665 22.2304 53.5351 22.7874C54.3036 23.3443 54.6862 24.1874 54.6862 25.3148V29.3793C54.6862 29.5232 54.693 29.6824 54.7048 29.855C54.7167 30.0277 54.7438 30.2139 54.7861 30.412C54.8284 30.6101 54.8995 30.8115 55.0028 31.0146C55.106 31.2178 55.2448 31.4108 55.426 31.5902H52.819C52.7225 31.4937 52.6446 31.3685 52.5854 31.2127C52.5261 31.057 52.4889 30.9435 52.477 30.8708C52.2603 31.062 51.9759 31.2296 51.6221 31.3735C51.2683 31.5174 50.8637 31.5885 50.4083 31.5885C49.7363 31.5885 49.1285 31.5022 48.5834 31.3278L48.5784 31.3312ZM51.7982 28.8766C52.0928 28.6616 52.2502 28.3907 52.2739 28.0674V27.2396H50.4033C49.7312 27.2396 49.22 27.353 48.8662 27.5815C48.5124 27.8101 48.3346 28.0555 48.3346 28.3196C48.3346 28.5837 48.5124 28.7818 48.8662 28.9494C49.22 29.117 49.7329 29.2016 50.4033 29.2016C51.0381 29.2016 51.5036 29.0933 51.7965 28.8783L51.7982 28.8766ZM59.3534 22.9956V18.1032H56.9614V31.5919H59.3534V30.566C59.7597 30.8894 60.2168 31.1416 60.7196 31.3211C61.2224 31.5005 61.7624 31.5902 62.3379 31.5902C62.9981 31.5902 63.6211 31.4649 64.2086 31.2127C64.796 30.9605 65.3089 30.6168 65.7457 30.1784C66.1841 29.7399 66.5278 29.2321 66.78 28.6497C67.0323 28.0691 67.1575 27.4309 67.1575 26.7707C67.1575 26.1104 67.0323 25.4875 66.78 24.9C66.5278 24.3126 66.1841 23.8014 65.7457 23.3629C65.3089 22.9245 64.796 22.5808 64.2086 22.3286C63.6211 22.0764 62.9965 21.9511 62.3379 21.9511C61.7624 21.9511 61.224 22.0442 60.7196 22.2304C60.2168 22.4166 59.7614 22.6722 59.3534 22.9956ZM60.0814 28.4889C59.8596 28.2671 59.6852 28.0098 59.56 27.7153C59.433 27.4207 59.3704 27.1075 59.3704 26.7707C59.3704 26.4338 59.4347 26.1206 59.56 25.826C59.6852 25.5315 59.8596 25.2742 60.0814 25.0524C60.3031 24.8306 60.5605 24.6563 60.855 24.531C61.1496 24.404 61.4627 24.3414 61.7996 24.3414C62.1365 24.3414 62.4497 24.4057 62.7442 24.531C63.0388 24.6563 63.2961 24.8306 63.5179 25.0524C63.7396 25.2742 63.914 25.5315 64.0393 25.826C64.1662 26.1206 64.2289 26.4338 64.2289 26.7707C64.2289 27.1075 64.1645 27.4207 64.0393 27.7153C63.914 28.0098 63.7396 28.2671 63.5179 28.4889C63.2961 28.7107 63.0388 28.885 62.7442 29.0103C62.4497 29.1373 62.1365 29.1999 61.7996 29.1999C61.4627 29.1999 61.1496 29.1356 60.855 29.0103C60.5605 28.885 60.3031 28.7107 60.0814 28.4889ZM12.9183 18.0135C12.8303 18.0964 12.8167 18.2302 12.8862 18.3284C17.4061 24.7629 16.1229 30.6473 10.0557 30.9182C2.9186 31.2347 2.05185 27.5985 2.09417 25.6517C2.10094 25.369 1.72853 25.2606 1.58464 25.5044C1.20883 26.1409 0.775443 26.9535 0.599386 27.6035C0.162628 29.2016 -0.316447 31.7866 8.72849 31.9863C14.8499 32.1218 21.9413 31.3464 19.639 25.2471L19.6356 25.2437C18.7807 22.982 16.6866 20.7441 14.4927 18.8785C14.0729 18.5637 13.6259 18.2522 13.2129 17.9881C13.1198 17.9289 12.9996 17.939 12.9183 18.0152V18.0135ZM10.1606 18.0084C9.11445 18.0084 8.43731 17.2382 8.43731 16.0464C8.43731 14.6261 9.32775 14.1216 10.1606 14.1216C10.9935 14.1216 11.884 14.6278 11.884 16.0464C11.884 17.2382 11.2068 18.0084 10.1606 18.0084ZM3.76501 20.7187C3.76501 21.9105 4.44216 22.6807 5.48835 22.6807C6.53453 22.6807 7.21169 21.9105 7.21169 20.7187C7.21169 19.3001 6.32123 18.7939 5.48835 18.7939C4.65546 18.7939 3.76501 19.2984 3.76501 20.7187ZM14.7144 13.4546C13.6683 13.4546 12.9911 12.6844 12.9911 11.4926C12.9911 10.0723 13.8816 9.56782 14.7144 9.56782C15.5473 9.56782 16.4378 10.074 16.4378 11.4926C16.4378 12.6844 15.7606 13.4546 14.7144 13.4546ZM27.3296 0.00994765H27.3313C27.5959 0.00994765 27.8104 0.224438 27.8104 0.489026V31.5107C27.8104 31.7752 27.5959 31.9897 27.3313 31.9897H27.3296C27.065 31.9897 26.8505 31.7752 26.8505 31.5107V0.489026C26.8505 0.224438 27.065 0.00994765 27.3296 0.00994765Z" fill="#AEAEAE"/>
</g>
<defs>
<clipPath id="clip0_2949_698">
<rect width="131" height="32" fill="white" transform="translate(0.00299072)"/>
</clipPath>
</defs>
</svg>
