<svg width="143" height="32" viewBox="0 0 143 32" fill="none" xmlns="http://www.w3.org/2000/svg">
<path d="M29.2982 2.0304C30.2634 2.80549 30.8561 3.69705 31.4163 4.79295C31.4776 4.90482 31.5388 5.0167 31.6019 5.13196C32.3601 6.75416 32.091 8.89823 31.6159 10.5688C31.1052 11.8482 30.2359 12.8068 29.2645 13.7586C29.0558 13.9689 28.8473 14.1796 28.639 14.3904C26.5192 16.5279 26.5192 16.5279 25.4667 17.4163C24.926 17.8921 24.43 18.4125 23.9244 18.9251C23.4534 19.3894 22.9581 19.8173 22.4562 20.2475C22.0496 20.6103 21.6678 20.9915 21.2851 21.3794C20.6833 21.9895 20.0613 22.5568 19.4107 23.1137C18.8492 23.6153 18.3271 24.1542 17.8025 24.6939C17.2512 25.2286 16.8936 25.5585 16.1298 25.7054C15.1606 25.5438 14.6974 25.022 14.0229 24.3381C13.8648 24.1803 13.8648 24.1803 13.7035 24.0194C13.4968 23.8122 13.2908 23.6041 13.0857 23.3953C12.7591 23.0745 12.4204 22.7758 12.0729 22.4777C11.3868 21.887 10.755 21.253 10.12 20.6082C9.74459 20.2387 9.35825 19.8941 8.9573 19.5527C8.35957 19.041 7.87207 18.5026 7.38831 17.8828C8.15688 17.0926 8.94812 16.3488 9.79083 15.6379C10.101 15.3829 10.4309 15.0804 9.96874 14.9031C9.3556 14.5485 8.91007 14.0629 8.41936 13.5569C8.31996 13.4559 8.22057 13.3549 8.11817 13.2508C7.87406 13.0025 7.63107 12.7531 7.38831 12.5034C7.8038 11.9649 8.208 11.4896 8.73316 11.0577C9.39855 10.4906 10.0138 9.88645 10.6272 9.26457C11.3715 8.51079 12.1262 7.7956 12.947 7.12402C13.5063 7.37619 13.925 7.67945 14.3815 8.08783C14.5063 8.19832 14.6312 8.3088 14.7598 8.42264C15.0988 8.73784 15.0988 8.73784 15.5022 9.18612C15.6058 9.27488 15.7093 9.36364 15.816 9.45509C16.3874 9.38488 16.6792 9.19533 17.074 8.78757C17.1688 8.69107 17.2636 8.59456 17.3612 8.49514C17.4578 8.39401 17.5545 8.29288 17.654 8.18869C17.7534 8.08687 17.8528 7.98505 17.9552 7.88015C18.1997 7.6293 18.4425 7.37682 18.6851 7.12402C18.3876 6.34848 17.8116 5.85194 17.2281 5.28606C17.1271 5.18666 17.0261 5.08727 16.922 4.98487C16.6737 4.74076 16.4243 4.49777 16.1747 4.25501C19.6108 0.0457332 24.7119 -1.31099 29.2982 2.0304Z" fill="#AEAEAE"/>
<path d="M120.348 0.648315C120.58 0.649254 120.812 0.650193 121.051 0.651161C121.236 0.651542 121.236 0.651542 121.424 0.65193C121.819 0.652936 122.214 0.655188 122.608 0.657465C122.875 0.658364 123.142 0.659182 123.409 0.659917C124.065 0.661897 124.721 0.664995 125.377 0.668672C126.4 3.27027 127.413 5.87447 128.373 8.50032C128.857 9.82249 129.343 11.1421 129.871 12.4473C130.536 14.0926 131.155 15.7541 131.763 17.4212C131.864 17.6983 131.966 17.9755 132.067 18.2526C132.118 18.3915 132.169 18.5304 132.221 18.6735C132.729 20.0539 133.269 21.4215 133.816 22.7866C133.882 22.9523 133.948 23.118 134.016 23.2888C134.074 23.4352 134.133 23.5816 134.194 23.7324C134.342 24.1587 134.342 24.1587 134.522 25.0553C132.865 25.0553 131.208 25.0553 129.501 25.0553C128.458 22.5522 128.458 22.5522 128.01 21.2673C127.963 21.1346 127.916 21.0019 127.867 20.8652C127.528 19.9011 127.528 19.9011 127.528 19.4966C124.215 19.5558 120.901 19.6149 117.487 19.6759C117.073 20.9185 116.658 22.1612 116.232 23.4415C115.995 23.974 115.758 24.5066 115.514 25.0553C113.917 25.0553 112.319 25.0553 110.673 25.0553C110.802 24.1488 110.891 23.6039 111.224 22.8041C111.299 22.6216 111.374 22.439 111.451 22.251C111.531 22.0595 111.61 21.868 111.693 21.6708C112.221 20.3793 112.743 19.0913 113.194 17.7707C113.645 16.4598 114.144 15.1714 114.653 13.8822C115.271 12.3131 115.876 10.7392 116.478 9.16364C116.527 9.0352 116.576 8.90676 116.627 8.77443C117.17 7.35334 117.711 5.93137 118.247 4.5078C118.339 4.26431 118.431 4.02082 118.523 3.77733C118.696 3.31939 118.868 2.86121 119.04 2.40288C119.116 2.20019 119.193 1.99751 119.271 1.78868C119.338 1.61057 119.405 1.43246 119.474 1.24895C119.71 0.672795 119.71 0.672795 120.348 0.648315Z" fill="#AEAEAE"/>
<path d="M51.3011 1.63392C52.6805 2.69344 53.9062 4.11893 54.1666 5.90242C54.174 6.06885 54.1814 6.23527 54.189 6.40674C53.3104 6.71264 52.4262 6.99796 51.533 7.25848C51.3728 7.30564 51.2126 7.35279 51.0476 7.40137C50.5745 7.4878 50.3232 7.50164 49.8855 7.30331C49.6964 7.00352 49.6964 7.00352 49.5493 6.63088C49.0734 5.59584 48.2852 4.93715 47.2154 4.52535C45.9256 4.21484 44.6055 4.29782 43.4267 4.9162C42.8015 5.33053 42.3284 5.72377 41.9957 6.40674C41.8169 7.36042 41.8805 8.12111 42.2759 9.00679C43.1138 9.86613 44.2638 10.0984 45.4027 10.3516C45.5348 10.3824 45.667 10.4132 45.8031 10.4449C46.4455 10.5923 47.0865 10.7262 47.7373 10.8314C49.3378 11.1001 50.5271 11.5706 51.858 12.5034C51.9814 12.5885 52.1048 12.6735 52.232 12.7612C53.406 13.6634 54.1745 15.0293 54.5477 16.4483C54.7969 18.9277 54.5101 20.7975 52.9759 22.7992C51.4702 24.5391 49.4031 25.4332 47.1261 25.6304C46.6854 25.6476 46.2471 25.6523 45.8061 25.6493C45.6497 25.6484 45.4932 25.6475 45.332 25.6466C42.6359 25.5981 40.4273 24.8514 38.4557 22.9848C37.2071 21.6283 36.1875 19.7521 36.2577 17.8828C36.8401 17.732 37.423 17.5831 38.006 17.4345C38.2536 17.3704 38.2536 17.3704 38.5061 17.3049C38.6656 17.2645 38.8251 17.224 38.9894 17.1824C39.1359 17.1448 39.2824 17.1072 39.4333 17.0685C39.844 16.9862 39.844 16.9862 40.5612 16.9862C40.6026 17.1141 40.644 17.2419 40.6866 17.3736C41.2233 18.9497 41.6548 19.9733 43.1276 20.8303C44.6053 21.5081 46.1918 21.5894 47.752 21.1238C48.662 20.7117 49.3129 20.2648 49.7062 19.3173C49.8186 18.4945 49.8085 17.7857 49.5045 17.0086C48.7197 16.1192 47.8265 15.7865 46.6901 15.5706C46.4174 15.5134 46.1447 15.4561 45.872 15.3987C45.4486 15.3124 45.025 15.2274 44.601 15.144C42.0779 14.6422 39.8971 13.8879 38.2301 11.7861C37.9345 11.3241 37.7113 10.8623 37.5129 10.3516C37.4389 10.1667 37.365 9.9818 37.2887 9.79128C36.8465 7.50636 37.0757 5.41782 38.3758 3.4866C39.375 2.24658 40.6877 1.24615 42.175 0.668715C42.3003 0.615551 42.4256 0.562387 42.5547 0.507613C45.2682 -0.488259 48.9195 0.0302268 51.3011 1.63392Z" fill="#AEAEAE"/>
<path d="M83.0803 8.8142C84.2141 9.76419 84.9793 10.7207 85.3896 12.1448C85.4224 12.252 85.4551 12.3592 85.4889 12.4697C85.5979 13.0039 85.5987 13.5177 85.6057 14.0628C85.6075 14.1818 85.6093 14.3009 85.6111 14.4235C85.6168 14.8155 85.6212 15.2074 85.6257 15.5994C85.6294 15.8717 85.6331 16.1441 85.637 16.4164C85.6468 17.1322 85.6557 17.8479 85.6644 18.5637C85.6734 19.2945 85.6834 20.0253 85.6933 20.756C85.7125 22.1891 85.7306 23.6222 85.7482 25.0554C84.3873 25.0554 83.0263 25.0554 81.624 25.0554C81.5057 24.5228 81.3873 23.9902 81.2654 23.4415C81.0916 23.6339 80.9178 23.8262 80.7387 24.0243C79.3726 25.3932 77.7223 25.6477 75.8513 25.6497C74.238 25.6166 73.0545 25.0638 71.8858 23.9683C70.7948 22.7185 70.5722 21.2678 70.6152 19.6529C70.7423 18.4052 71.2509 17.6212 72.1758 16.7964C74.0264 15.4077 76.0467 15.2142 78.2892 14.9312C78.4975 14.903 78.7057 14.8748 78.9203 14.8457C79.2021 14.81 79.2021 14.81 79.4896 14.7736C80.064 14.643 80.4415 14.4784 80.9068 14.1172C81.0008 13.5346 81.0412 13.2335 80.9068 12.6827C80.4042 12.0222 79.9199 11.6291 79.1136 11.4275C78.0386 11.2934 77.2932 11.4435 76.3574 11.9879C75.4498 12.4754 75.3516 13.0186 74.9894 14.1172C74.399 13.9722 73.8089 13.8263 73.2187 13.6802C73.0507 13.6389 72.8826 13.5977 72.7095 13.5551C72.5488 13.5153 72.3882 13.4754 72.2227 13.4343C72.0001 13.3794 72.0001 13.3794 71.7731 13.3233C71.4032 13.2207 71.4032 13.2207 71.0445 13.0414C71.329 11.2491 71.9934 10.1268 73.4541 9.02923C76.1014 7.22488 80.3464 6.91363 83.0803 8.8142Z" fill="#AEAEAE"/>
<path d="M87.7207 8.19983C89.3776 8.19983 91.0344 8.19983 92.7415 8.19983C95.4033 13.8531 95.4033 13.8531 96.4062 16.0672C96.4726 16.2128 96.5391 16.3583 96.6075 16.5083C97.045 17.481 97.045 17.481 97.045 17.8828C97.1633 17.8828 97.2817 17.8828 97.4036 17.8828C97.45 17.7384 97.45 17.7384 97.4973 17.5912C97.8367 16.5518 98.2171 15.5348 98.6252 14.5206C98.688 14.3639 98.7509 14.2072 98.8156 14.0457C99.2399 12.9965 99.6887 11.9657 100.179 10.9456C100.594 10.0414 100.966 9.11806 101.349 8.19983C102.946 8.19983 104.544 8.19983 106.19 8.19983C105.922 9.00285 105.641 9.73017 105.291 10.4959C105.239 10.61 105.188 10.7241 105.134 10.8417C105.024 11.084 104.914 11.3263 104.803 11.5685C104.516 12.1978 104.23 12.828 103.944 13.4581C103.861 13.6415 103.861 13.6415 103.776 13.8286C103.39 14.6803 103.009 15.5341 102.637 16.3922C101.66 18.6426 100.647 20.8773 99.6156 23.1032C98.8122 24.8393 98.0331 26.586 97.267 28.339C97.1382 28.6333 97.1382 28.6333 97.0068 28.9336C96.8282 29.3421 96.6498 29.7507 96.4717 30.1594C96.3439 30.451 96.3439 30.451 96.2136 30.7485C96.1364 30.9251 96.0593 31.1017 95.9798 31.2836C95.7898 31.6899 95.7898 31.6899 95.6105 31.8692C95.2519 31.8849 94.8928 31.8884 94.5339 31.8867C94.3161 31.8861 94.0982 31.8856 93.8737 31.885C93.6443 31.8835 93.4149 31.882 93.1786 31.8804C92.9484 31.8796 92.7183 31.8788 92.4813 31.878C91.9105 31.8758 91.3398 31.8729 90.769 31.8692C91.2889 30.6724 91.8093 29.4758 92.3299 28.2793C92.5322 27.814 92.734 27.3484 92.9355 26.8827C93.0426 26.6359 93.1498 26.3892 93.257 26.1424C93.3069 26.0267 93.3569 25.9111 93.4083 25.7919C93.669 25.1937 93.9506 24.6178 94.2656 24.0466C94.5895 23.3179 94.5508 23.1303 94.3553 22.3656C94.1074 21.7337 93.8243 21.1201 93.5372 20.5052C93.4564 20.33 93.3757 20.1547 93.2925 19.9741C92.7641 18.8345 92.2165 17.7059 91.6477 16.586C91.2187 15.7405 90.8108 14.8868 90.4104 14.0275C89.6261 12.346 88.8035 10.6835 87.9483 9.03686C87.7207 8.55846 87.7207 8.55846 87.7207 8.19983Z" fill="#AEAEAE"/>
<path d="M60.1064 2.99976C61.4674 2.99976 62.8284 2.99976 64.2306 2.99976C64.2306 4.71579 64.2306 6.43181 64.2306 8.19984C65.3549 8.19984 66.4792 8.19984 67.6376 8.19984C67.6376 9.50166 67.6376 10.8035 67.6376 12.1447C66.5133 12.1447 65.389 12.1447 64.2306 12.1447C64.2341 13.3287 64.2434 14.5124 64.258 15.6962C64.2621 16.0988 64.2647 16.5015 64.2657 16.9041C64.2674 17.4833 64.2747 18.0622 64.2832 18.6413C64.2825 18.8211 64.2817 19.0008 64.281 19.186C64.2986 20.0294 64.3139 20.4433 64.8288 21.136C65.4368 21.5599 65.7943 21.5621 66.5281 21.5251C67.0773 21.4973 67.0773 21.4973 67.6376 21.469C67.6376 22.7117 67.6376 23.9543 67.6376 25.2346C66.2414 25.9327 64.244 25.8253 62.7436 25.4426C61.4801 24.8609 60.5888 23.9093 60.0035 22.6597C59.6333 21.646 59.6808 20.6361 59.6953 19.5694C59.696 19.3565 59.6968 19.1437 59.6976 18.9243C59.7006 18.2483 59.7073 17.5725 59.7142 16.8965C59.7169 16.4366 59.7193 15.9766 59.7215 15.5167C59.7274 14.3927 59.7367 13.2687 59.7478 12.1447C58.7418 12.1447 57.7359 12.1447 56.6995 12.1447C56.6995 10.8429 56.6995 9.54111 56.6995 8.19984C57.232 8.14067 57.7646 8.0815 58.3133 8.02053C59.116 7.6043 59.5481 7.22369 59.9271 6.40671C60.0159 5.82084 60.0348 5.23899 60.0504 4.6472C60.0689 4.10354 60.0874 3.55989 60.1064 2.99976Z" fill="#AEAEAE"/>
<path d="M13.2272 1.63246C13.9736 2.20826 14.6345 2.85085 15.2781 3.53767C15.5165 3.77739 15.7555 4.01662 15.9953 4.25492C15.0752 5.19704 14.1292 6.09108 13.1263 6.94462C12.9488 6.79299 12.7713 6.64136 12.5884 6.48513C12.4739 6.38782 12.3595 6.29051 12.2416 6.19025C11.9929 5.9744 11.7477 5.75434 11.5062 5.53043C11.3862 5.42017 11.2662 5.30991 11.1426 5.19632C11.0333 5.09369 10.924 4.99106 10.8113 4.88532C9.69791 4.07782 8.34421 4.12636 7.02964 4.25492C5.83219 4.59159 5.13311 5.32793 4.50034 6.37656C4.11879 7.30129 4.18016 8.43401 4.49054 9.37236C4.94702 10.2669 5.55173 10.8801 6.33621 11.4982C6.6896 11.8021 6.94279 12.1223 7.20896 12.5033C6.34475 13.3848 5.48628 14.2451 4.51926 15.0137C2.6091 14.1731 1.29755 12.3579 0.518326 10.4861C-0.195008 8.64403 -0.17659 6.66592 0.601679 4.8482C1.68557 2.68943 3.29775 1.34379 5.5391 0.483736C8.14426 -0.334161 10.965 0.10944 13.2272 1.63246Z" fill="#AEAEAE"/>
<path d="M137.391 8.19983C138.929 8.19983 140.468 8.19983 142.053 8.19983C142.053 13.8213 142.053 19.4428 142.053 25.2346C140.514 25.2346 138.976 25.2346 137.391 25.2346C137.391 19.6131 137.391 13.9917 137.391 8.19983Z" fill="#AEAEAE"/>
<path d="M122.328 6.0481C122.908 6.71225 123.175 7.46551 123.483 8.27831C123.538 8.42222 123.593 8.56614 123.65 8.71442C124.033 9.72394 124.361 10.7421 124.664 11.7784C124.91 12.5463 125.223 13.2792 125.547 14.017C125.735 14.4758 125.735 14.4758 125.914 15.1931C123.666 15.1931 121.417 15.1931 119.101 15.1931C119.454 14.0159 119.817 12.8611 120.234 11.7077C120.288 11.5558 120.343 11.404 120.399 11.2476C120.513 10.9305 120.627 10.6135 120.742 10.2965C120.917 9.81008 121.092 9.32334 121.267 8.83656C121.378 8.52718 121.49 8.21782 121.601 7.90847C121.653 7.76298 121.706 7.61749 121.76 7.46759C122.128 6.44841 122.128 6.44841 122.328 6.0481Z" fill="#FEFBFE"/>
<path d="M141.552 1.16949C142.008 1.47643 142.292 1.82382 142.591 2.28249C143.188 3.14837 143.074 4.26966 142.647 5.19633C142.139 6.10823 141.445 6.65702 140.439 6.94464C139.457 7.03558 138.789 6.89148 137.928 6.4067C137.197 5.69623 136.65 5.08615 136.628 4.042C136.643 3.12546 136.813 2.35559 137.455 1.6598C138.74 0.524081 140.052 0.348242 141.552 1.16949Z" fill="#AEAEAE"/>
<path d="M81.0861 17.5241C81.2509 19.9254 81.2509 19.9254 80.4466 21.0053C79.7995 21.7212 79.2434 22.1501 78.2633 22.2227C78.078 22.2255 77.8926 22.2282 77.7016 22.2311C77.4249 22.238 77.4249 22.238 77.1426 22.2451C76.3926 22.1633 75.935 21.853 75.3817 21.3569C75.0468 20.687 75.0276 20.0491 75.1688 19.3172C75.8039 18.4881 76.502 18.0783 77.5209 17.9094C77.6593 17.8862 77.7978 17.8631 77.9404 17.8393C78.0835 17.8167 78.2266 17.794 78.374 17.7707C78.5157 17.7466 78.6574 17.7226 78.8034 17.6978C79.5728 17.5724 80.3036 17.4964 81.0861 17.5241Z" fill="#FEFAFD"/>
<path d="M19.0436 23.4414C18.7901 23.6998 18.536 23.9574 18.2815 24.2147C18.0693 24.43 18.0693 24.43 17.8528 24.6497C16.9078 25.5557 16.9078 25.5557 16.1298 25.7053C15.1813 25.5472 14.6652 25.0305 14.0228 24.338C13.9636 24.2197 13.9045 24.1013 13.8435 23.9794C13.9545 24.009 14.0654 24.0386 14.1797 24.069C14.5597 24.1585 14.8677 24.1606 15.2556 24.1461C15.3813 24.1429 15.5071 24.1396 15.6366 24.1363C15.7624 24.1321 15.8881 24.128 16.0177 24.1237C16.3539 24.1587 16.3539 24.1587 16.7125 24.5173C17.0878 24.502 17.0878 24.502 17.4298 24.338C17.4889 24.1605 17.5481 23.983 17.6091 23.8001C18.391 23.2239 18.391 23.2239 19.0436 23.4414Z" fill="#AEAEAE"/>
<path d="M50.2442 5.33081C50.4809 5.44916 50.7176 5.5675 50.9615 5.68944C50.9615 5.80778 50.9615 5.92613 50.9615 6.04806C51.0798 6.04806 51.1982 6.04806 51.3201 6.04806C51.3793 5.92972 51.4384 5.81137 51.4994 5.68944C51.6769 5.74861 51.8544 5.80778 52.0373 5.86875C51.919 6.16462 51.8007 6.46048 51.6787 6.76532C51.7971 6.88366 51.9154 7.00201 52.0373 7.12394C51.061 7.30146 51.061 7.30146 50.0649 7.48257C49.769 6.89084 49.4732 6.2991 49.1683 5.68944C49.7063 5.51012 49.7063 5.51012 50.2442 5.68944C50.2442 5.57109 50.2442 5.45274 50.2442 5.33081Z" fill="#AEAEAE"/>
<path d="M60.2858 3.17908C61.5284 3.17908 62.7711 3.17908 64.0513 3.17908C64.0513 3.59329 64.0513 4.00751 64.0513 4.43427C63.933 4.43427 63.8147 4.43427 63.6927 4.43427C63.5152 4.70055 63.5152 4.70055 63.3341 4.97221C63.2157 4.97221 63.0974 4.97221 62.9755 4.97221C62.9163 5.14973 62.8571 5.32725 62.7962 5.51015C62.4029 4.72369 62.4029 4.72369 62.5608 4.22134C62.7962 3.89633 62.7962 3.89633 63.3341 3.5377C62.5648 3.5377 61.7956 3.5377 61.003 3.5377C60.8847 3.7744 60.7663 4.01109 60.6444 4.25496C60.4669 4.34372 60.4669 4.34372 60.2858 4.43427C60.2858 4.02006 60.2858 3.60584 60.2858 3.17908Z" fill="#AEAEAE"/>
<path d="M29.8024 11.9655C30.0391 12.0246 30.2758 12.0838 30.5197 12.1448C30.1335 13.0927 29.3681 13.7189 28.5472 14.2965C28.3343 13.8931 28.3343 13.8931 28.1886 13.4C28.4015 12.9853 28.4015 12.9853 28.7265 12.6827C28.9041 12.6827 29.0816 12.6827 29.2645 12.6827C29.5703 12.3348 29.5703 12.3348 29.8024 11.9655Z" fill="#AEAEAE"/>
<path d="M22.8092 16.9862C23.3471 17.1655 23.3471 17.1655 23.5264 17.5241C23.7039 17.5241 23.8815 17.5241 24.0644 17.5241C23.946 17.82 23.8277 18.1159 23.7057 18.4207C23.9424 18.3615 24.1791 18.3024 24.423 18.2414C24.1271 18.5964 23.8313 18.9515 23.5264 19.3173C23.2897 19.1989 23.053 19.0806 22.8092 18.9587C22.8092 18.6628 22.8092 18.3669 22.8092 18.0621C22.6316 18.0029 22.4541 17.9437 22.2712 17.8828C22.2712 17.7644 22.2712 17.6461 22.2712 17.5241C22.1529 17.5241 22.0345 17.5241 21.9126 17.5241C21.9718 17.4058 22.0309 17.2875 22.0919 17.1655C22.2103 17.2247 22.3286 17.2839 22.4505 17.3448C22.5097 17.2857 22.5689 17.2265 22.6299 17.1655C22.689 17.1063 22.7482 17.0472 22.8092 16.9862Z" fill="#AEAEAE"/>
<path d="M12.7677 22.007C13.3056 22.1863 13.3056 22.1863 13.5409 22.6121C13.5816 22.7675 13.6223 22.9228 13.6642 23.0828C13.4867 23.3491 13.4867 23.3491 13.3056 23.6208C12.8322 23.2066 12.3588 22.7924 11.8711 22.3656C12.0486 22.3064 12.2261 22.2472 12.409 22.1863C12.5274 22.1271 12.6457 22.0679 12.7677 22.007Z" fill="#AEAEAE"/>
<path d="M19.0436 23.4414C18.5111 23.974 17.9785 24.5066 17.4298 25.0553C17.3114 24.8777 17.1931 24.7002 17.0712 24.5173C17.1895 24.4582 17.3079 24.399 17.4298 24.338C17.489 24.1605 17.5481 23.983 17.6091 23.8001C18.391 23.2239 18.391 23.2239 19.0436 23.4414Z" fill="#AEAEAE"/>
<path d="M9.36068 0.130743C9.36068 0.189917 9.36068 0.24909 9.36068 0.310057C8.82812 0.310057 8.29556 0.310057 7.74686 0.310057C7.68769 0.487577 7.62851 0.665097 7.56755 0.847997C6.962 0.751659 6.36674 0.648843 5.77441 0.48937C6.96113 0.0478024 8.10628 0.0967894 9.36068 0.130743Z" fill="#AEAEAE"/>
<path d="M52.9338 3.53772C53.4673 3.99501 53.741 4.50654 54.0097 5.15154C53.9505 5.32906 53.8914 5.50658 53.8304 5.68948C53.7712 5.39361 53.7121 5.09775 53.6511 4.79291C53.3552 4.79291 53.0593 4.79291 52.7545 4.79291C52.8137 4.61539 52.8729 4.43787 52.9338 4.25497C52.8747 4.07745 52.8155 3.89993 52.7545 3.71703C52.8137 3.65786 52.8729 3.59869 52.9338 3.53772Z" fill="#AEAEAE"/>
<path d="M61.7202 5.15149C61.8977 5.26984 62.0752 5.38818 62.2581 5.51012C61.4064 6.38427 61.4064 6.38427 61.0029 6.586C61.0029 6.23096 61.0029 5.87592 61.0029 5.51012C61.2396 5.39177 61.4763 5.27342 61.7202 5.15149Z" fill="#AEAEAE"/>
<path d="M72.6584 16.4482C72.7767 16.5074 72.8951 16.5666 73.017 16.6276C72.4845 17.1601 71.9519 17.6927 71.4032 18.2414C71.4032 17.5321 71.6552 17.3253 72.1205 16.8069C72.298 16.6885 72.4755 16.5702 72.6584 16.4482Z" fill="#AEAEAE"/>
<path d="M12.0504 5.86877C12.583 5.92795 13.1155 5.98712 13.6642 6.04809C13.5459 6.28478 13.4275 6.52148 13.3056 6.76534C13.1281 6.76534 12.9506 6.76534 12.7677 6.76534C12.3754 6.31706 12.3754 6.31706 12.0504 5.86877Z" fill="#AEAEAE"/>
<path d="M73.3756 9.09644C73.4939 9.15561 73.6122 9.21478 73.7342 9.27575C73.2608 9.74914 72.7874 10.2225 72.2997 10.7103C72.2405 10.5919 72.1813 10.4736 72.1204 10.3516C72.5183 9.83018 72.825 9.46347 73.3756 9.09644Z" fill="#AEAEAE"/>
<path d="M1.29163 11.9655C1.82419 12.0542 1.82419 12.0542 2.36751 12.1448C2.36751 12.4998 2.36751 12.8548 2.36751 13.2206C1.49335 12.3689 1.49335 12.3689 1.29163 11.9655Z" fill="#AEAEAE"/>
<path d="M60.2858 3.3584C60.6408 3.3584 60.9958 3.3584 61.3616 3.3584C61.1841 3.44716 61.1841 3.44716 61.003 3.53771C60.9438 3.65606 60.8847 3.77441 60.8237 3.89634C60.6444 4.25497 60.6444 4.25497 60.2858 4.43428C60.2858 4.07924 60.2858 3.7242 60.2858 3.3584Z" fill="#AEAEAE"/>
<path d="M41.0992 1.20667C41.2767 1.26584 41.4543 1.32501 41.6372 1.38598C41.4005 1.68185 41.1638 1.97771 40.9199 2.28255C40.8016 2.04585 40.6832 1.80916 40.5613 1.56529C40.7388 1.44694 40.9163 1.3286 41.0992 1.20667Z" fill="#AEAEAE"/>
<path d="M13.3056 22.1864C12.947 22.545 12.947 22.545 12.409 22.9036C12.2315 22.6669 12.054 22.4302 11.8711 22.1864C12.4605 22.043 12.7157 21.9897 13.3056 22.1864Z" fill="#AEAEAE"/>
<path d="M40.3819 17.1655C40.3227 17.343 40.2636 17.5206 40.2026 17.7035C39.7431 17.9164 39.7431 17.9164 39.306 18.0621C39.2468 17.8846 39.1877 17.7071 39.1267 17.5242C39.6014 17.2622 39.825 17.1655 40.3819 17.1655Z" fill="#AEAEAE"/>
</svg>
