<svg width="91" height="32" viewBox="0 0 91 32" fill="none" xmlns="http://www.w3.org/2000/svg">
<g clip-path="url(#clip0_2949_588)">
<path d="M8.53828 7.23779C4.16944 7.23779 0.613279 10.794 0.613279 15.1628C0.613279 19.5316 4.16944 23.0878 8.53828 23.0878C12.9071 23.0878 16.4633 19.5316 16.4633 15.1628C16.4633 10.794 12.9071 7.23779 8.53828 7.23779ZM8.53828 23.5841C3.89673 23.5841 0.116943 19.8043 0.116943 15.1628C0.116943 10.5212 3.89673 6.74146 8.53828 6.74146C13.1798 6.74146 16.9596 10.5212 16.9596 15.1628C16.9596 19.8043 13.1798 23.5841 8.53828 23.5841Z" fill="#AEAEAE"/>
<path d="M48.6051 7.23779C44.2362 7.23779 40.6801 10.794 40.6801 15.1628C40.6801 19.5316 44.2362 23.0878 48.6051 23.0878C52.9739 23.0878 56.5301 19.5316 56.5301 15.1628C56.5301 10.794 52.9739 7.23779 48.6051 7.23779ZM48.6051 23.5841C43.9635 23.5841 40.1837 19.8043 40.1837 15.1628C40.1837 10.5212 43.9635 6.74146 48.6051 6.74146C53.2466 6.74146 57.0264 10.5212 57.0264 15.1628C57.0264 19.8043 53.2466 23.5841 48.6051 23.5841Z" fill="#AEAEAE"/>
<path d="M12.4381 32C9.95092 32 7.9274 29.9765 7.9274 27.4894V26.2186H8.42373V27.4894C8.42373 29.6984 10.2236 31.4983 12.4326 31.4983C14.6416 31.4983 16.4415 29.6984 16.4415 27.4894V14.9883H16.9378V27.4894C16.9378 29.9765 14.9143 32 12.4271 32" fill="#AEAEAE"/>
<path d="M82.1868 4.42333V3.867H82.6559V2.22528H82.1868V1.66895H83.7958V2.22528H83.3159V3.867H83.7958V4.42333H82.1868Z" fill="#AEAEAE"/>
<path d="M84.1994 4.4234V3.26164C84.1994 3.09256 84.2376 2.93984 84.3194 2.80349C84.4012 2.66713 84.5158 2.55805 84.6685 2.48169C84.8212 2.39987 84.9957 2.36169 85.203 2.36169C85.4103 2.36169 85.5903 2.39987 85.743 2.48169C85.8902 2.5635 86.0048 2.67259 86.0866 2.80349C86.1684 2.93984 86.2066 3.09256 86.2066 3.26164V4.4234H85.5957V3.27801C85.5957 3.2071 85.5794 3.14165 85.5466 3.08711C85.5139 3.03257 85.4648 2.98348 85.4048 2.9453C85.3448 2.90712 85.2794 2.89076 85.203 2.89076C85.1267 2.89076 85.0612 2.90712 85.0012 2.9453C84.9412 2.98348 84.8921 3.02711 84.8594 3.08711C84.8267 3.1471 84.8103 3.21256 84.8103 3.27801V4.4234H84.2049H84.1994Z" fill="#AEAEAE"/>
<path d="M87.6465 4.42334C87.4338 4.42334 87.2484 4.37971 87.0847 4.29244C86.9211 4.20517 86.7902 4.08518 86.6975 3.93246C86.6048 3.77974 86.5557 3.61066 86.5557 3.41431C86.5557 3.21795 86.6048 3.04887 86.6975 2.89615C86.7902 2.74344 86.9211 2.62344 87.0847 2.53618C87.2484 2.44891 87.4338 2.40527 87.6465 2.40527H87.9465V2.91797H87.6683C87.5647 2.91797 87.4774 2.93979 87.4065 2.98342C87.3302 3.02706 87.2756 3.08705 87.2374 3.15796C87.1993 3.23432 87.1774 3.31613 87.1774 3.40885C87.1774 3.50157 87.1993 3.58884 87.2374 3.6652C87.2756 3.74156 87.3356 3.80156 87.4065 3.83974C87.4774 3.88337 87.5647 3.90519 87.6683 3.90519H87.9465V4.41789H87.6465V4.42334Z" fill="#AEAEAE"/>
<path d="M81.3741 4.47249C81.2705 4.47249 81.1778 4.43431 81.1069 4.36341C81.036 4.2925 80.9978 4.19978 80.9978 4.09615C80.9978 3.99252 81.036 3.8998 81.1069 3.82889C81.1833 3.75254 81.2705 3.71436 81.3741 3.71436C81.4778 3.71436 81.565 3.75254 81.6414 3.82889C81.7178 3.90525 81.7559 3.99252 81.7559 4.09615C81.7559 4.1616 81.7396 4.22705 81.7069 4.28705C81.6741 4.34705 81.625 4.39068 81.5705 4.42341C81.5105 4.45613 81.4505 4.47249 81.3796 4.47249" fill="#AEAEAE"/>
<path d="M82.3341 0.572751C80.8887 0.572751 79.7106 1.75087 79.7106 3.19624C79.7106 4.64161 80.8887 5.81973 82.3341 5.81973H87.1393C88.5846 5.81973 89.7628 4.64161 89.7628 3.19624C89.7628 1.75087 88.5846 0.572751 87.1393 0.572751H82.3341ZM87.1393 6.31606H82.3341C80.6105 6.31606 79.2143 4.91432 79.2143 3.19624C79.2143 1.47815 80.616 0.076416 82.3341 0.076416H87.1393C88.8628 0.076416 90.2591 1.47815 90.2591 3.19624C90.2591 4.91432 88.8574 6.31606 87.1393 6.31606Z" fill="#AEAEAE"/>
<path d="M8.4292 26.5567H7.93286C7.93286 19.2971 13.8398 13.3956 21.0939 13.3956V13.892C14.1125 13.892 8.4292 19.5753 8.4292 26.5567Z" fill="#AEAEAE"/>
<path d="M36.9876 15.1628C36.9876 19.5316 33.4314 23.0878 29.0626 23.0878C24.6937 23.0878 21.1376 19.5316 21.1376 15.1628C21.1376 14.7265 21.1812 14.301 21.2521 13.8865C21.1757 13.8865 21.0994 13.892 21.0176 13.892V13.3956C21.1267 13.3956 21.2357 13.3902 21.3448 13.3847C22.1575 9.86673 25.3046 7.23779 29.0626 7.23779C29.8098 7.23779 30.5243 7.34688 31.2115 7.54323C31.2988 7.39596 31.3806 7.2487 31.4624 7.09598C30.7043 6.8669 29.8971 6.74146 29.0626 6.74146C24.421 6.74146 20.6412 10.5212 20.6412 15.1628C20.6412 19.8043 24.421 23.5841 29.0626 23.5841C33.7041 23.5841 37.4839 19.8043 37.4839 15.1628C37.4839 11.5303 35.1659 8.43772 31.937 7.25961C31.8606 7.40687 31.7788 7.55414 31.697 7.7014C34.7732 8.78679 36.9876 11.7212 36.9876 15.1682" fill="#AEAEAE"/>
<path d="M21.3448 13.3847C21.3066 13.5483 21.2794 13.7174 21.2466 13.8864C25.7137 13.8046 29.6025 11.3339 31.6915 7.69589C31.5333 7.64135 31.3697 7.58681 31.2061 7.53772C29.2044 10.9466 25.5446 13.2647 21.3448 13.3792" fill="#AEAEAE"/>
<path d="M32.6242 3.76343C32.4006 4.947 32.0079 6.06512 31.4624 7.09051C31.6261 7.1396 31.7788 7.19414 31.937 7.25414C32.4987 6.1742 32.9078 5.00154 33.1314 3.76343H32.6242Z" fill="#AEAEAE"/>
<path d="M21.0176 13.3956V13.8919C21.0939 13.8919 21.1703 13.8919 21.2521 13.8864C21.2794 13.7174 21.3121 13.5537 21.3503 13.3846C21.2412 13.3846 21.1321 13.3901 21.023 13.3901" fill="#AEAEAE"/>
<path d="M31.2115 7.54319C31.3752 7.59228 31.5333 7.64137 31.697 7.70137C31.7788 7.5541 31.8606 7.40684 31.937 7.25957C31.7788 7.19958 31.6206 7.14504 31.4624 7.09595C31.3806 7.24867 31.2988 7.39593 31.2115 7.54319Z" fill="#AEAEAE"/>
<path d="M68.1476 7.16687C63.7788 7.16687 60.2226 10.723 60.2226 15.0919C60.2226 19.4607 63.7788 23.0169 68.1476 23.0169C72.5165 23.0169 76.0726 19.4607 76.0726 15.0919C76.0726 10.723 72.5165 7.16687 68.1476 7.16687ZM68.1476 23.5132C63.5061 23.5132 59.7263 19.7334 59.7263 15.0919C59.7263 10.4503 63.5061 6.67053 68.1476 6.67053C72.7892 6.67053 76.569 10.4503 76.569 15.0919C76.569 19.7334 72.7892 23.5132 68.1476 23.5132Z" fill="#AEAEAE"/>
<path d="M76.5908 15.4737H76.0945V3.14709C76.0945 1.68536 74.9054 0.496335 73.4437 0.496335C71.982 0.496335 70.7929 1.68536 70.7929 3.14709V9.69763H70.2966V3.14709C70.2966 1.41265 71.7092 0 73.4437 0C75.1781 0 76.5908 1.41265 76.5908 3.14709V15.4737Z" fill="#AEAEAE"/>
<path d="M78.3634 17.6062C73.9128 17.6062 70.2966 13.9901 70.2966 9.53943H70.7929C70.7929 13.7119 74.1909 17.1099 78.3634 17.1099V17.6062Z" fill="#AEAEAE"/>
</g>
<defs>
<clipPath id="clip0_2949_588">
<rect width="90.1476" height="32" fill="white" transform="translate(0.116943)"/>
</clipPath>
</defs>
</svg>
