<svg width="131" height="32" viewBox="0 0 131 32" fill="none" xmlns="http://www.w3.org/2000/svg">
<g clip-path="url(#clip0_2949_606)">
<path d="M1.04093 2.85714C1.04093 1.27919 2.28636 0 3.82268 0H28.4874C30.0237 0 31.2692 1.27919 31.2692 2.85714C31.2692 4.4351 30.0237 5.71429 28.4874 5.71429H3.82268C2.28636 5.71429 1.04093 4.4351 1.04093 2.85714Z" fill="#AEAEAE"/>
<path d="M33.1237 2.85714C33.1237 1.27919 34.3692 0 35.9054 0H38.5017C40.038 0 41.2834 1.27919 41.2834 2.85714C41.2834 4.4351 40.038 5.71429 38.5017 5.71429H35.9054C34.3692 5.71429 33.1237 4.4351 33.1237 2.85714Z" fill="#AEAEAE"/>
<path d="M1.04093 11.6191C1.04093 10.0411 2.28636 8.76196 3.82268 8.76196H20.884C22.4203 8.76196 23.6658 10.0411 23.6658 11.6191C23.6658 13.1971 22.4203 14.4762 20.884 14.4762H3.82268C2.28636 14.4762 1.04093 13.1971 1.04093 11.6191Z" fill="#AEAEAE"/>
<path d="M25.5203 11.6191C25.5203 10.0411 26.7657 8.76196 28.302 8.76196H34.2364C35.7726 8.76196 37.0181 10.0411 37.0181 11.6191C37.0181 13.1971 35.7726 14.4762 34.2364 14.4762H28.302C26.7657 14.4762 25.5203 13.1971 25.5203 11.6191Z" fill="#AEAEAE"/>
<path d="M1.04093 20.3809C1.04093 18.803 2.28636 17.5238 3.82268 17.5238H32.5673C34.1036 17.5238 35.3491 18.803 35.3491 20.3809C35.3491 21.9589 34.1036 23.2381 32.5673 23.2381H3.82268C2.28636 23.2381 1.04093 21.9589 1.04093 20.3809Z" fill="#AEAEAE"/>
<path d="M37.2036 20.3809C37.2036 18.803 38.449 17.5238 39.9853 17.5238H42.5816C44.1179 17.5238 45.3633 18.803 45.3633 20.3809C45.3633 21.9589 44.1179 23.2381 42.5816 23.2381H39.9853C38.449 23.2381 37.2036 21.9589 37.2036 20.3809Z" fill="#AEAEAE"/>
<path d="M1.04093 29.1429C1.04093 27.565 2.28636 26.2858 3.82268 26.2858H24.4076C25.9438 26.2858 27.1893 27.565 27.1893 29.1429C27.1893 30.7208 25.9438 32.0001 24.4076 32.0001H3.82268C2.28636 32.0001 1.04093 30.7208 1.04093 29.1429Z" fill="#AEAEAE"/>
<path d="M29.0438 29.1429C29.0438 27.565 30.2893 26.2858 31.8255 26.2858H37.7599C39.2962 26.2858 40.5417 27.565 40.5417 29.1429C40.5417 30.7208 39.2962 32.0001 37.7599 32.0001H31.8255C30.2893 32.0001 29.0438 30.7208 29.0438 29.1429Z" fill="#AEAEAE"/>
<path d="M66.42 25.0667L69.9257 13.6686L73.4315 25.0667H76.7607L82.9903 6.93335H78.7027L75.0204 18.9791L71.5147 6.93335H68.3368L64.8311 18.9791L61.1488 6.93335H56.8612L63.0908 25.0667H66.42Z" fill="#AEAEAE"/>
<path d="M94.7411 18.176C94.7411 14.6529 92.1685 12.2438 88.3854 12.2438C84.4256 12.2438 81.8279 14.7306 81.8279 18.8236C81.8279 22.9943 84.3752 25.4034 88.5115 25.4034C91.7398 25.4034 94.1862 23.7714 94.5645 21.3105H90.7814C90.4535 22.0876 89.6969 22.4244 88.5115 22.4244C86.7964 22.4244 85.7371 21.5436 85.6615 19.9116H94.6402C94.7159 19.2122 94.7411 18.8236 94.7411 18.176ZM85.6615 17.4506C85.6867 15.9223 86.6955 14.912 88.3601 14.912C89.9995 14.912 90.9075 15.7927 90.9327 17.4506H85.6615Z" fill="#AEAEAE"/>
<path d="M105.524 25.5847C110.694 25.5847 114.049 22.7611 114.528 18.4868H110.19C109.736 20.5333 108.071 21.8285 105.549 21.8285C102.22 21.8285 100.303 19.5489 100.303 15.9999C100.303 12.451 102.22 10.1714 105.549 10.1714C108.071 10.1714 109.736 11.4666 110.19 13.5131H114.528C114.049 9.23878 110.694 6.41516 105.524 6.41516C99.723 6.41516 96.0407 10.4304 96.0407 15.9999C96.0407 21.5695 99.723 25.5847 105.524 25.5847Z" fill="#AEAEAE"/>
<path d="M116.926 6.93335V25.0667H121.012V20.0412H124.442C128.099 20.0412 130.773 17.2953 130.773 13.4873C130.773 9.67925 128.125 6.93335 124.442 6.93335H116.926ZM121.012 16.6217V10.3528H123.812C125.451 10.3528 126.637 11.6739 126.637 13.4873C126.637 15.3006 125.451 16.6217 123.812 16.6217H121.012Z" fill="#AEAEAE"/>
</g>
<defs>
<clipPath id="clip0_2949_606">
<rect width="130" height="32" fill="white" transform="translate(0.931152)"/>
</clipPath>
</defs>
</svg>
