<svg width="136" height="32" viewBox="0 0 136 32" fill="none" xmlns="http://www.w3.org/2000/svg">
    <g clip-path="url(#clip0_14_52)">
        <path fill-rule="evenodd" clip-rule="evenodd" d="M8.81183 2V32H0.799988V2H8.81183Z" fill="#B9C2CE" />
        <path fill-rule="evenodd" clip-rule="evenodd"
            d="M12.8177 2H29.8429C35.374 2 39.8577 6.47715 39.8577 12C39.8577 17.5229 35.374 22 29.8429 22H20.8296V32H12.8177V2ZM20.8296 14H29.8429C30.9492 14 31.8459 13.1046 31.8459 12C31.8459 10.8954 30.9492 10 29.8429 10H20.8296V14Z"
            fill="#B9C2CE" />
        <path fill-rule="evenodd" clip-rule="evenodd"
            d="M69.9022 2V17.5C69.9022 21.0898 72.8166 24 76.4118 24C80.007 24 82.9216 21.0898 82.9216 17.5V2H90.9336V17.5C90.9336 25.5082 84.432 32 76.4118 32C68.3918 32 61.8904 25.5082 61.8904 17.5V2H69.9022Z"
            fill="#B9C2CE" />
        <path fill-rule="evenodd" clip-rule="evenodd"
            d="M42.8622 16C42.8622 8.268 49.1395 2 56.883 2H58.8859V10H56.883C53.5643 10 50.8741 12.6863 50.8741 16V17C50.8741 25.2842 44.1484 32 35.8518 32H34.8504V24H35.8518C39.7236 24 42.8622 20.866 42.8622 17V16Z"
            fill="#B9C2CE" />
        <path
            d="M136 3C136 4.65686 134.655 6 132.995 6C131.336 6 129.991 4.65686 129.991 3C129.991 1.34314 131.336 0 132.995 0C134.655 0 136 1.34314 136 3Z"
            fill="#B9C2CE" />
        <path
            d="M99.536 32L103.359 16.0145L106.202 25.6315C107.896 31.3673 116.033 31.3673 117.728 25.6315L120.57 16.0145L124.393 32H132.63L126.618 6.86361C125.189 0.885969 116.753 0.664642 115.01 6.55915L111.965 16.8667L108.918 6.55915C107.177 0.664677 98.74 0.885937 97.3104 6.8636L91.2992 32H99.536Z"
            fill="#B9C2CE" />
    </g>
    <defs>
        <clipPath id="clip0_14_52">
            <rect width="135.2" height="32" fill="white" transform="translate(0.799988)" />
        </clipPath>
    </defs>
</svg>