<svg width="91" height="32" viewBox="0 0 91 32" fill="none" xmlns="http://www.w3.org/2000/svg">
<path d="M37.503 18.8151V27.5724H35.9714L32.5075 19.9796H32.4831V27.5724H31.4865V18.8151H33.0666L36.482 26.3112H36.5062V18.8151H37.503Z" fill="#AEAEAE"/>
<path d="M40.8089 27.5724V18.8151H45.3307V19.7855H41.9272V22.5994H45.0874V23.5698H41.9272V26.6019H45.4036V27.5724H40.8089Z" fill="#AEAEAE"/>
<path d="M53.0851 18.8151V19.7855H50.7758V27.5724H49.6575V19.7855H47.3482V18.8151H53.0851Z" fill="#AEAEAE"/>
<path d="M54.6044 18.8151H55.7954L57.4485 26.408H57.473L59.2352 18.8151H60.6817L62.2739 26.408H62.2982L64.0849 18.8151H65.2517L62.9303 27.5724H61.569L59.904 19.9796H59.8795L58.1049 27.5724H56.7434L54.6044 18.8151Z" fill="#AEAEAE"/>
<path d="M67.5615 24.3702V21.4955C67.5615 19.749 68.4608 18.6332 70.3205 18.6332C72.1798 18.6332 73.0792 19.749 73.0792 21.4955V24.3702C73.0792 26.796 72.1799 27.7543 70.3205 27.7543C68.461 27.7544 67.5615 26.796 67.5615 24.3702ZM71.937 24.4189V21.4592C71.937 19.6278 70.6731 19.567 70.3205 19.567C69.9678 19.567 68.7034 19.6277 68.7034 21.4592V24.4189C68.7034 26.335 69.2628 26.8202 70.3205 26.8202C71.3779 26.8202 71.937 26.335 71.937 24.4189Z" fill="#AEAEAE"/>
<path d="M77.3943 23.5453V27.5723H76.276V18.8149H79.3027C80.8586 18.8149 81.4053 19.9067 81.4053 20.9981C81.4053 22.0291 80.8339 22.8176 79.8009 22.9997V23.0239C80.8096 23.1816 81.1741 23.5213 81.2351 25.28C81.247 25.6556 81.3686 27.0264 81.5391 27.5724H80.372C80.0561 26.9659 80.1289 25.8259 80.0316 24.6615C79.9468 23.5938 79.0838 23.5453 78.7069 23.5453H77.3943ZM77.3943 22.5751H79.0718C79.8739 22.5751 80.2625 21.8834 80.2625 21.1195C80.2625 20.4889 79.9467 19.7853 79.084 19.7853H77.3942L77.3943 22.5751Z" fill="#AEAEAE"/>
<path d="M84.335 27.5724V18.8151H85.453V22.6601H85.4894L88.5523 18.8151H89.8165L86.6318 22.7691L89.9989 27.5724H88.5646L85.4897 22.9997H85.4534V27.5724H84.335Z" fill="#AEAEAE"/>
<path d="M35.5313 5.1479C34.4517 5.07236 34.2243 5.48813 34.2243 6.45213V7.60527H35.4746V9.25007H34.2243V17.1514H31.5535V9.25007H30.3601V7.60527H31.5723C31.5535 4.86436 31.3261 3.40881 34.5841 3.40881C34.9061 3.40881 35.2092 3.42767 35.5311 3.44664L35.5313 5.1479Z" fill="#AEAEAE"/>
<path d="M35.4178 12.2555C35.4178 9.64678 35.7967 7.41638 39.3198 7.41638C42.8431 7.41638 43.222 9.64678 43.222 12.2555C43.222 15.2422 42.7673 17.3405 39.3198 17.3405C35.8725 17.3405 35.4178 15.2423 35.4178 12.2555ZM40.5513 12.1044C40.5513 10.1195 40.4565 9.11753 39.32 9.11753C38.1835 9.11753 38.0887 10.1195 38.0887 12.1044C38.0887 15.0155 38.3349 15.6391 39.32 15.6391C40.305 15.6391 40.5513 15.0155 40.5513 12.1044Z" fill="#AEAEAE"/>
<path d="M48.7537 16.1874H48.7156C48.4505 16.6033 48.1473 16.9058 47.7686 17.0759C47.3896 17.2648 46.973 17.3405 46.4615 17.3405C45.1925 17.3405 44.0747 16.5844 44.0747 15.2612V7.60535H46.7456V14.2217C46.7456 15.0722 46.8972 15.696 47.7497 15.696C48.6023 15.696 48.7538 15.0722 48.7538 14.2217V7.60535H51.4248V15.2612C51.4248 15.885 51.4626 16.5277 51.5194 17.1514H48.7537V16.1874Z" fill="#AEAEAE"/>
<path d="M55.1753 8.56953H55.2133C55.4784 8.13467 55.8003 7.85113 56.1604 7.68108C56.5391 7.49205 56.9749 7.4165 57.4674 7.4165C58.7364 7.4165 59.8544 8.17262 59.8544 9.49582V17.1515H57.1833V10.5731C57.1833 9.72245 57.0316 9.06096 56.1793 9.06096C55.3267 9.06096 55.175 9.72256 55.175 10.5731V17.1515H52.5041V7.6053H55.175V8.56953H55.1753Z" fill="#AEAEAE"/>
<path d="M65.7073 17.1514V16.0929H65.6698C65.1772 17.0191 64.4387 17.3406 63.4159 17.3406C60.6501 17.3406 60.745 14.2783 60.745 12.3122C60.745 10.3841 60.6688 7.41633 63.3589 7.41633C64.3249 7.41633 64.9878 7.69987 65.5372 8.51267H65.5751V3.50342H68.246V17.1513L65.7073 17.1514ZM65.5751 12.2932C65.5751 10.3841 65.594 9.06079 64.495 9.06079C63.3398 9.06079 63.3588 10.3841 63.3588 12.2932C63.3588 14.694 63.5291 15.6958 64.495 15.6958C65.4048 15.6959 65.5751 14.694 65.5751 12.2932Z" fill="#AEAEAE"/>
<path d="M71.8267 12.8037C71.8267 13.938 71.8644 15.6391 73.0389 15.6391C73.9859 15.6391 74.1754 14.7319 74.1754 13.938H76.884C76.8459 14.9776 76.5051 15.8282 75.8612 16.4142C75.236 17.0002 74.2892 17.3405 73.0389 17.3405C69.5913 17.3405 69.1365 15.2422 69.1365 12.2555C69.1365 9.64678 69.5154 7.41638 73.0389 7.41638C76.6378 7.41638 77.0355 9.74141 76.9408 12.8037H71.8267ZM74.2699 11.3104C74.2699 10.3842 74.3081 9.06095 73.0389 9.06095C71.8076 9.06095 71.8267 10.4976 71.8267 11.3104H74.2699Z" fill="#AEAEAE"/>
<path d="M80.3317 7.6053V8.83421H80.3697C80.8623 7.73775 81.7711 7.41638 82.8513 7.41638V9.79798C80.5022 9.64667 80.4646 11.0079 80.4646 11.953V17.1514H77.7932V7.60518L80.3317 7.6053Z" fill="#AEAEAE"/>
<path d="M85.1622 14.0891C85.1433 14.5239 85.1622 14.9397 85.2946 15.2423C85.4463 15.5448 85.7305 15.6959 86.2607 15.6959C86.791 15.6959 87.2457 15.3556 87.2457 14.713C87.2457 12.6902 82.5476 13.1439 82.5476 10.1006C82.5476 8.04004 84.5937 7.41638 86.3176 7.41638C88.1357 7.41638 89.784 8.28587 89.6323 10.3462H87.0183C87.0183 9.68461 86.9428 9.28758 86.7533 9.11753C86.5826 8.94747 86.3554 8.90964 86.0715 8.90964C85.4841 8.90964 85.1623 9.2877 85.1623 9.93044C85.1623 11.4427 89.8599 11.3671 89.8599 14.4295C89.8599 16.0931 88.4962 17.3407 86.2796 17.3407C83.9501 17.3407 82.3968 16.7546 82.5477 14.0893L85.1622 14.0891Z" fill="#AEAEAE"/>
<path d="M27.6053 26.4825C27.6053 27.203 27.0217 27.787 26.3015 27.787H2.50108C1.78078 27.787 1.19695 27.203 1.19695 26.4825V3.89171C1.19695 3.17126 1.78067 2.58691 2.50108 2.58691H26.3014C27.0217 2.58691 27.6052 3.17126 27.6052 3.89171L27.6053 26.4825Z" fill="#AEAEAE"/>
<path d="M27.1929 27.2785L25.0973 23.1873V4.06162C25.0973 3.51796 24.6389 3.07739 24.0731 3.07739H4.1728C3.60728 3.07739 3.14845 3.51796 3.14845 4.06162V23.1871C3.14845 23.7309 3.60717 24.1716 4.1728 24.1716H23.757L27.1929 27.2785Z" fill="white"/>
<path d="M7.15794 12.9328V12.1068C7.15794 11.2468 7.74086 11.0784 8.33202 11.0784C8.46974 11.0784 8.55068 11.0867 8.64787 11.1039V11.601C7.94337 11.5505 7.82191 11.8625 7.82191 12.2082V12.933H8.64787V13.4559H7.82191V17.1904H7.15794V13.4559H6.52625V12.933H7.15794V12.9328Z" fill="#AEAEAE"/>
<path d="M11.5063 17.1901V14.2397C11.5063 13.7843 11.3524 13.4134 10.7855 13.4134C10.0569 13.4134 9.95143 14.0879 9.95143 14.6694V17.1901H9.28746V13.818C9.28746 13.5229 9.27109 13.2278 9.24693 12.9327H9.95143V13.481H9.98394C10.2429 13.0004 10.5508 12.8486 11.0771 12.8486C11.9516 12.8486 12.1704 13.3965 12.1704 14.2396V17.19H11.5063V17.1901Z" fill="#AEAEAE"/>
</svg>
