<svg width="500" height="330" viewBox="0 0 500 330" fill="none" xmlns="http://www.w3.org/2000/svg">
<g clip-path="url(#clip0_2150_12218)">
<rect width="500" height="330" rx="30" fill="url(#paint0_linear_2150_12218)"/>
<rect x="-1" width="500" height="35" fill="#EDB408"/>
<path d="M37.4 75.96H34.18V81H31.62V66.38H37.4C40.34 66.38 42.24 68.3 42.24 71.16C42.24 73.98 40.32 75.96 37.4 75.96ZM36.9 68.66H34.18V73.68H36.86C38.62 73.68 39.56 72.74 39.56 71.14C39.56 69.54 38.6 68.66 36.9 68.66ZM47.9652 81.26C45.0252 81.26 42.9652 79.12 42.9652 76.06C42.9652 72.96 44.9852 70.82 47.8852 70.82C50.8452 70.82 52.7252 72.8 52.7252 75.88V76.62L45.2852 76.64C45.4652 78.38 46.3852 79.26 48.0052 79.26C49.3452 79.26 50.2252 78.74 50.5052 77.8H52.7652C52.3452 79.96 50.5452 81.26 47.9652 81.26ZM47.9052 72.82C46.4652 72.82 45.5852 73.6 45.3452 75.08H50.3052C50.3052 73.72 49.3652 72.82 47.9052 72.82ZM60.878 71.08V73.34H59.978C58.218 73.34 57.118 74.28 57.118 76.2V81H54.678V71.14H56.978L57.118 72.58C57.538 71.6 58.478 70.94 59.798 70.94C60.138 70.94 60.478 70.98 60.878 71.08ZM61.9402 71.12H63.3602V69.92C63.3602 67.24 64.7802 66.12 66.9202 66.12C67.3002 66.12 67.7602 66.14 68.1802 66.22V68.3H67.3202C66.0802 68.3 65.7802 68.94 65.7802 69.92V71.12H68.1402V73.16H65.7802V81H63.3602V73.16H61.9402V71.12ZM68.8245 76.04C68.8245 72.96 71.0445 70.84 74.1045 70.84C77.1645 70.84 79.3845 72.96 79.3845 76.04C79.3845 79.12 77.1645 81.24 74.1045 81.24C71.0445 81.24 68.8245 79.12 68.8245 76.04ZM71.2645 76.04C71.2645 77.84 72.4245 79.06 74.1045 79.06C75.7845 79.06 76.9445 77.84 76.9445 76.04C76.9445 74.24 75.7845 73.02 74.1045 73.02C72.4245 73.02 71.2645 74.24 71.2645 76.04ZM87.5186 71.08V73.34H86.6186C84.8586 73.34 83.7586 74.28 83.7586 76.2V81H81.3186V71.14H83.6186L83.7586 72.58C84.1786 71.6 85.1186 70.94 86.4386 70.94C86.7786 70.94 87.1186 70.98 87.5186 71.08ZM91.6102 81H89.1702V71.12H91.4102L91.6102 72.28C92.1102 71.46 93.1102 70.82 94.5302 70.82C96.0302 70.82 97.0702 71.56 97.5902 72.7C98.0902 71.56 99.2502 70.82 100.75 70.82C103.15 70.82 104.47 72.26 104.47 74.54V81H102.05V75.18C102.05 73.76 101.29 73.02 100.13 73.02C98.9502 73.02 98.0502 73.78 98.0502 75.4V81H95.6102V75.16C95.6102 73.78 94.8702 73.04 93.7102 73.04C92.5502 73.04 91.6102 73.8 91.6102 75.4V81ZM109.805 81.26C107.705 81.26 106.425 80.04 106.425 78.18C106.425 76.36 107.745 75.22 110.085 75.04L113.045 74.82V74.6C113.045 73.26 112.245 72.72 111.005 72.72C109.565 72.72 108.765 73.32 108.765 74.36H106.685C106.685 72.22 108.445 70.82 111.125 70.82C113.785 70.82 115.425 72.26 115.425 75V81H113.285L113.105 79.54C112.685 80.56 111.345 81.26 109.805 81.26ZM110.605 79.42C112.105 79.42 113.065 78.52 113.065 77V76.48L111.005 76.64C109.485 76.78 108.905 77.28 108.905 78.08C108.905 78.98 109.505 79.42 110.605 79.42ZM120.263 81H117.823V71.12H120.083L120.283 72.4C120.903 71.4 122.103 70.82 123.443 70.82C125.923 70.82 127.203 72.36 127.203 74.92V81H124.763V75.5C124.763 73.84 123.943 73.04 122.683 73.04C121.183 73.04 120.263 74.08 120.263 75.68V81ZM129.02 76.04C129.02 72.98 131.04 70.82 133.96 70.82C136.66 70.82 138.5 72.32 138.76 74.7H136.32C136.04 73.58 135.22 73 134.06 73C132.5 73 131.46 74.18 131.46 76.04C131.46 77.9 132.42 79.06 133.98 79.06C135.2 79.06 136.06 78.46 136.32 77.38H138.78C138.48 79.68 136.56 81.26 133.98 81.26C130.98 81.26 129.02 79.18 129.02 76.04ZM145.016 81.26C142.076 81.26 140.016 79.12 140.016 76.06C140.016 72.96 142.036 70.82 144.936 70.82C147.896 70.82 149.776 72.8 149.776 75.88V76.62L142.336 76.64C142.516 78.38 143.436 79.26 145.056 79.26C146.396 79.26 147.276 78.74 147.556 77.8H149.816C149.396 79.96 147.596 81.26 145.016 81.26ZM144.956 72.82C143.516 72.82 142.636 73.6 142.396 75.08H147.356C147.356 73.72 146.416 72.82 144.956 72.82Z" fill="#2C2C2C"/>
<rect x="258" y="111" width="212" height="167" rx="6" fill="#F0F0F0"/>
<path d="M268.59 124.236H267.463V126H266.567V120.883H268.59C269.619 120.883 270.284 121.555 270.284 122.556C270.284 123.543 269.612 124.236 268.59 124.236ZM268.415 121.681H267.463V123.438H268.401C269.017 123.438 269.346 123.109 269.346 122.549C269.346 121.989 269.01 121.681 268.415 121.681ZM271.804 126.091C271.069 126.091 270.621 125.664 270.621 125.013C270.621 124.376 271.083 123.977 271.902 123.914L272.938 123.837V123.76C272.938 123.291 272.658 123.102 272.224 123.102C271.72 123.102 271.44 123.312 271.44 123.676H270.712C270.712 122.927 271.328 122.437 272.266 122.437C273.197 122.437 273.771 122.941 273.771 123.9V126H273.022L272.959 125.489C272.812 125.846 272.343 126.091 271.804 126.091ZM272.084 125.447C272.609 125.447 272.945 125.132 272.945 124.6V124.418L272.224 124.474C271.692 124.523 271.489 124.698 271.489 124.978C271.489 125.293 271.699 125.447 272.084 125.447ZM276.78 122.528V123.319H276.465C275.849 123.319 275.464 123.648 275.464 124.32V126H274.61V122.549H275.415L275.464 123.053C275.611 122.71 275.94 122.479 276.402 122.479C276.521 122.479 276.64 122.493 276.78 122.528ZM278.671 126H277.817V123.256H277.152V122.542H277.817V121.464H278.671V122.542H279.343V123.256H278.671V126ZM280.728 126H279.874V122.542H280.665L280.735 122.99C280.952 122.64 281.372 122.437 281.841 122.437C282.709 122.437 283.157 122.976 283.157 123.872V126H282.303V124.075C282.303 123.494 282.016 123.214 281.575 123.214C281.05 123.214 280.728 123.578 280.728 124.138V126ZM285.543 126.091C284.514 126.091 283.793 125.342 283.793 124.271C283.793 123.186 284.5 122.437 285.515 122.437C286.551 122.437 287.209 123.13 287.209 124.208V124.467L284.605 124.474C284.668 125.083 284.99 125.391 285.557 125.391C286.026 125.391 286.334 125.209 286.432 124.88H287.223C287.076 125.636 286.446 126.091 285.543 126.091ZM285.522 123.137C285.018 123.137 284.71 123.41 284.626 123.928H286.362C286.362 123.452 286.033 123.137 285.522 123.137ZM290.062 122.528V123.319H289.747C289.131 123.319 288.746 123.648 288.746 124.32V126H287.892V122.549H288.697L288.746 123.053C288.893 122.71 289.222 122.479 289.684 122.479C289.803 122.479 289.922 122.493 290.062 122.528ZM290.374 124.95H291.186C291.193 125.251 291.417 125.44 291.809 125.44C292.208 125.44 292.425 125.279 292.425 125.027C292.425 124.852 292.334 124.726 292.026 124.656L291.403 124.509C290.78 124.369 290.479 124.075 290.479 123.522C290.479 122.843 291.053 122.437 291.851 122.437C292.628 122.437 293.153 122.885 293.16 123.557H292.348C292.341 123.263 292.145 123.074 291.816 123.074C291.48 123.074 291.284 123.228 291.284 123.487C291.284 123.683 291.438 123.809 291.732 123.879L292.355 124.026C292.936 124.159 293.23 124.425 293.23 124.957C293.23 125.657 292.635 126.091 291.781 126.091C290.92 126.091 290.374 125.629 290.374 124.95ZM297.916 124.236H296.789V126H295.893V120.883H297.916C298.945 120.883 299.61 121.555 299.61 122.556C299.61 123.543 298.938 124.236 297.916 124.236ZM297.741 121.681H296.789V123.438H297.727C298.343 123.438 298.672 123.109 298.672 122.549C298.672 121.989 298.336 121.681 297.741 121.681ZM301.614 126.091C300.585 126.091 299.864 125.342 299.864 124.271C299.864 123.186 300.571 122.437 301.586 122.437C302.622 122.437 303.28 123.13 303.28 124.208V124.467L300.676 124.474C300.739 125.083 301.061 125.391 301.628 125.391C302.097 125.391 302.405 125.209 302.503 124.88H303.294C303.147 125.636 302.517 126.091 301.614 126.091ZM301.593 123.137C301.089 123.137 300.781 123.41 300.697 123.928H302.433C302.433 123.452 302.104 123.137 301.593 123.137ZM306.133 122.528V123.319H305.818C305.202 123.319 304.817 123.648 304.817 124.32V126H303.963V122.549H304.768L304.817 123.053C304.964 122.71 305.293 122.479 305.755 122.479C305.874 122.479 305.993 122.493 306.133 122.528ZM307.573 126H306.726V120.792H307.573V123.991L308.917 122.542H309.988L308.672 123.914L309.96 126H308.98L308.077 124.544L307.573 125.069V126ZM310.205 124.95H311.017C311.024 125.251 311.248 125.44 311.64 125.44C312.039 125.44 312.256 125.279 312.256 125.027C312.256 124.852 312.165 124.726 311.857 124.656L311.234 124.509C310.611 124.369 310.31 124.075 310.31 123.522C310.31 122.843 310.884 122.437 311.682 122.437C312.459 122.437 312.984 122.885 312.991 123.557H312.179C312.172 123.263 311.976 123.074 311.647 123.074C311.311 123.074 311.115 123.228 311.115 123.487C311.115 123.683 311.269 123.809 311.563 123.879L312.186 124.026C312.767 124.159 313.061 124.425 313.061 124.957C313.061 125.657 312.466 126.091 311.612 126.091C310.751 126.091 310.205 125.629 310.205 124.95Z" fill="#2C2C2C"/>
<path d="M268 134L268 263" stroke="#BFBFBF" stroke-linecap="round" stroke-dasharray="4 4"/>
<path d="M460 262.5H268" stroke="#BFBFBF" stroke-linecap="round" stroke-dasharray="4 4"/>
<rect x="286" y="159" width="34" height="104" fill="#EDB408"/>
<rect x="327" y="169" width="34" height="94" fill="#CCCCCC"/>
<rect x="368" y="194" width="34" height="69" fill="#CCCCCC"/>
<rect x="409" y="199" width="34" height="64" fill="#CCCCCC"/>
<rect x="30" y="111" width="212" height="167" rx="6" fill="#F0F0F0"/>
<path d="M39.435 126H38.567V120.883H39.435L41.087 124.957L42.739 120.883H43.621V126H42.753V124.425C42.753 123.396 42.753 123.095 42.802 122.731L41.5 126H40.674L39.379 122.738C39.428 123.046 39.435 123.529 39.435 124.166V126ZM44.3265 127.603V126.889H44.8375C45.1735 126.889 45.3835 126.812 45.5305 126.406L45.6285 126.147L44.2355 122.542H45.1385L46.0275 125.062L46.9655 122.542H47.8475L46.1535 126.77C45.8945 127.414 45.5305 127.68 44.9635 127.68C44.7255 127.68 44.5155 127.652 44.3265 127.603ZM52.3683 124.236H51.2413V126H50.3453V120.883H52.3683C53.3973 120.883 54.0623 121.555 54.0623 122.556C54.0623 123.543 53.3903 124.236 52.3683 124.236ZM52.1933 121.681H51.2413V123.438H52.1793C52.7953 123.438 53.1243 123.109 53.1243 122.549C53.1243 121.989 52.7883 121.681 52.1933 121.681ZM56.0661 126.091C55.0371 126.091 54.3161 125.342 54.3161 124.271C54.3161 123.186 55.0231 122.437 56.0381 122.437C57.0741 122.437 57.7321 123.13 57.7321 124.208V124.467L55.1281 124.474C55.1911 125.083 55.5131 125.391 56.0801 125.391C56.5491 125.391 56.8571 125.209 56.9551 124.88H57.7461C57.5991 125.636 56.9691 126.091 56.0661 126.091ZM56.0451 123.137C55.5411 123.137 55.2331 123.41 55.1491 123.928H56.8851C56.8851 123.452 56.5561 123.137 56.0451 123.137ZM60.5856 122.528V123.319H60.2706C59.6546 123.319 59.2696 123.648 59.2696 124.32V126H58.4156V122.549H59.2206L59.2696 123.053C59.4166 122.71 59.7456 122.479 60.2076 122.479C60.3266 122.479 60.4456 122.493 60.5856 122.528ZM62.0247 126H61.1777V120.792H62.0247V123.991L63.3687 122.542H64.4397L63.1237 123.914L64.4117 126H63.4317L62.5287 124.544L62.0247 125.069V126ZM64.6574 124.95H65.4694C65.4764 125.251 65.7004 125.44 66.0924 125.44C66.4914 125.44 66.7084 125.279 66.7084 125.027C66.7084 124.852 66.6174 124.726 66.3094 124.656L65.6864 124.509C65.0634 124.369 64.7624 124.075 64.7624 123.522C64.7624 122.843 65.3364 122.437 66.1344 122.437C66.9114 122.437 67.4364 122.885 67.4434 123.557H66.6314C66.6244 123.263 66.4284 123.074 66.0994 123.074C65.7634 123.074 65.5674 123.228 65.5674 123.487C65.5674 123.683 65.7214 123.809 66.0154 123.879L66.6384 124.026C67.2194 124.159 67.5134 124.425 67.5134 124.957C67.5134 125.657 66.9184 126.091 66.0644 126.091C65.2034 126.091 64.6574 125.629 64.6574 124.95Z" fill="#2C2C2C"/>
<path d="M40 134L40 263" stroke="#BFBFBF" stroke-linecap="round" stroke-dasharray="4 4"/>
<path d="M232 262.5H40" stroke="#BFBFBF" stroke-linecap="round" stroke-dasharray="4 4"/>
<rect x="57" y="189" width="34" height="74" fill="#CCCCCC"/>
<rect x="98" y="194" width="34" height="69" fill="#CCCCCC"/>
<rect x="139" y="159" width="34" height="104" fill="#EDB408"/>
<rect x="180" y="169" width="34" height="94" fill="#CCCCCC"/>
</g>
<defs>
<linearGradient id="paint0_linear_2150_12218" x1="250" y1="0" x2="250" y2="330" gradientUnits="userSpaceOnUse">
<stop stop-color="white"/>
<stop offset="1" stop-color="white" stop-opacity="0"/>
</linearGradient>
<clipPath id="clip0_2150_12218">
<rect width="500" height="330" rx="30" fill="white"/>
</clipPath>
</defs>
</svg>
