<svg width="500" height="333" viewBox="0 0 500 333" fill="none" xmlns="http://www.w3.org/2000/svg">
<g clip-path="url(#clip0_2150_12143)">
<rect width="500" height="333" rx="30" fill="url(#paint0_linear_2150_12143)"/>
<path d="M50.419 76.371C50.04 76.7523 49.7498 77.2125 49.569 77.7187C49.3882 78.225 49.3213 78.7649 49.373 79.3L49.355 79.282C49.4082 79.9119 49.3232 80.5457 49.1061 81.1394C48.889 81.733 48.545 82.2721 48.0981 82.7191C47.6511 83.166 47.112 83.5101 46.5183 83.7271C45.9247 83.9442 45.2908 84.0292 44.661 83.976L44.679 83.994C43.9256 83.9239 43.1689 84.0878 42.512 84.4635C41.8552 84.8392 41.3302 85.4083 41.0087 86.0933C40.6872 86.7783 40.5847 87.5457 40.7153 88.2911C40.846 89.0364 41.2033 89.7233 41.7386 90.2581C42.2739 90.7929 42.9611 91.1496 43.7065 91.2795C44.452 91.4095 45.2193 91.3063 45.904 90.9842C46.5887 90.662 47.1573 90.1366 47.5324 89.4794C47.9075 88.8222 48.0708 88.0654 48 87.312L48.019 87.33C47.9658 86.7002 48.0507 86.0663 48.2678 85.4726C48.4849 84.879 48.829 84.3399 49.2759 83.8929C49.7229 83.446 50.262 83.1019 50.8556 82.8849C51.4493 82.6678 52.0831 82.5828 52.713 82.636L52.694 82.618C53.3094 82.6733 53.9289 82.5724 54.495 82.3246C55.061 82.0768 55.5554 81.6901 55.9322 81.2004C56.309 80.7107 56.5562 80.1337 56.6506 79.5231C56.7451 78.9124 56.6839 78.2878 56.4727 77.707C56.2615 77.1263 55.9071 76.6083 55.4424 76.201C54.9777 75.7937 54.4177 75.5103 53.8143 75.3771C53.2109 75.2439 52.5836 75.2651 51.9906 75.4388C51.3976 75.6126 50.8581 75.9332 50.422 76.371H50.419Z" fill="#394149"/>
<path d="M43.042 81.636L43.023 81.618C43.5583 81.6719 44.0989 81.6062 44.6058 81.4256C45.1126 81.245 45.573 80.9541 45.9536 80.5738C46.3341 80.1935 46.6255 79.7333 46.8064 79.2266C46.9874 78.7199 47.0535 78.1794 47 77.644L47.019 77.662C46.9658 77.0321 47.0508 76.3983 47.2678 75.8046C47.4849 75.211 47.829 74.6719 48.2759 74.2249C48.7229 73.778 49.262 73.4339 49.8556 73.2169C50.4493 72.9998 51.0831 72.9148 51.713 72.968L51.694 72.95C52.4475 73.0208 53.2044 72.8574 53.8616 72.4821C54.5189 72.1068 55.0443 71.538 55.3663 70.8531C55.6883 70.1682 55.7912 69.4007 55.661 68.6552C55.5308 67.9097 55.1738 67.2225 54.6386 66.6874C54.1035 66.1522 53.4163 65.7952 52.6708 65.665C51.9253 65.5347 51.1578 65.6377 50.4729 65.9597C49.788 66.2817 49.2192 66.8071 48.8439 67.4643C48.4686 68.1215 48.3052 68.8785 48.376 69.632L48.358 69.613C48.4113 70.2429 48.3265 70.8768 48.1095 71.4705C47.8925 72.0643 47.5484 72.6035 47.1015 73.0505C46.6545 73.4974 46.1153 73.8415 45.5216 74.0585C44.9278 74.2755 44.2939 74.3603 43.664 74.307L43.682 74.326C43.1467 74.2721 42.606 74.3378 42.0992 74.5184C41.5924 74.6989 41.132 74.9899 40.7514 75.3702C40.3708 75.7505 40.0795 76.2107 39.8985 76.7174C39.7176 77.2241 39.6515 77.7646 39.705 78.3L39.687 78.282C39.74 78.9118 39.6549 79.5456 39.4378 80.1392C39.2206 80.7327 38.8766 81.2718 38.4297 81.7187C37.9827 82.1656 37.4437 82.5096 36.8501 82.7268C36.2566 82.9439 35.6228 83.029 34.993 82.976L35.011 82.994C34.2575 82.9232 33.5005 83.0866 32.8433 83.4619C32.1861 83.8372 31.6607 84.406 31.3387 85.0909C31.0166 85.7758 30.9137 86.5433 31.0439 87.2888C31.1742 88.0343 31.5312 88.7215 32.0663 89.2566C32.6015 89.7918 33.2887 90.1488 34.0342 90.279C34.7797 90.4092 35.5472 90.3063 36.2321 89.9843C36.9169 89.6623 37.4858 89.1369 37.8611 88.4797C38.2364 87.8224 38.3998 87.0655 38.329 86.312L38.348 86.33C38.2948 85.7001 38.3798 85.0663 38.5969 84.4726C38.8139 83.879 39.158 83.3399 39.6049 82.8929C40.0519 82.446 40.591 82.1019 41.1846 81.8849C41.7783 81.6678 42.4121 81.5828 43.042 81.636Z" fill="#394149"/>
<path d="M36.34 79.629C36.719 79.2478 37.0092 78.7876 37.1899 78.2813C37.3705 77.775 37.4371 77.235 37.385 76.7L37.404 76.718C37.3508 76.088 37.4358 75.4539 37.653 74.8601C37.8702 74.2663 38.2144 73.7271 38.6616 73.2801C39.1088 72.8331 39.6481 72.4891 40.242 72.2722C40.8359 72.0552 41.47 71.9705 42.1 72.024L42.081 72.006C42.8342 72.0766 43.5909 71.9131 44.2478 71.5378C44.9047 71.1626 45.4298 70.5939 45.7517 69.9092C46.0735 69.2246 46.1763 68.4573 46.0461 67.7121C45.9159 66.9669 45.5589 66.2799 45.024 65.745C44.4891 65.2101 43.8021 64.8531 43.0569 64.7229C42.3117 64.5927 41.5444 64.6955 40.8598 65.0173C40.1751 65.3392 39.6064 65.8643 39.2312 66.5212C38.8559 67.1781 38.6924 67.9348 38.763 68.688L38.745 68.67C38.7982 69.2999 38.7132 69.9337 38.4961 70.5274C38.279 71.121 37.935 71.6601 37.4881 72.1071C37.0411 72.554 36.502 72.8981 35.9084 73.1151C35.3147 73.3322 34.6809 73.4172 34.051 73.364L34.069 73.382C33.4536 73.3268 32.8342 73.4279 32.2682 73.6758C31.7022 73.9237 31.208 74.3105 30.8313 74.8003C30.4546 75.29 30.2076 75.867 30.1132 76.4776C30.0188 77.0883 30.0801 77.7129 30.2914 78.2935C30.5027 78.8742 30.8571 79.3921 31.3218 79.7993C31.7865 80.2066 32.3465 80.4899 32.9499 80.6231C33.5533 80.7562 34.1805 80.7349 34.7735 80.5612C35.3665 80.3874 35.906 80.0668 36.342 79.629H36.34Z" fill="#394149"/>
<path d="M67.317 69.655H70.287V84.108H67.317V69.655Z" fill="#394149"/>
<path d="M71.969 79.159C71.9649 78.1204 72.2691 77.1038 72.8431 76.2382C73.4171 75.3726 74.2351 74.6968 75.1935 74.2965C76.1519 73.8961 77.2075 73.7892 78.2267 73.9893C79.2459 74.1894 80.1828 74.6874 80.9187 75.4204C81.6546 76.1533 82.1564 77.0882 82.3606 78.1066C82.5648 79.125 82.4621 80.1811 82.0656 81.1411C81.6691 82.101 80.9966 82.9218 80.1333 83.4992C79.2699 84.0767 78.2547 84.385 77.216 84.385C76.5266 84.3929 75.8425 84.2632 75.2037 84.0036C74.5649 83.744 73.9843 83.3597 73.4958 82.8732C73.0072 82.3866 72.6206 81.8075 72.3585 81.1698C72.0963 80.5321 71.9639 79.8485 71.969 79.159ZM79.493 79.159C79.4806 78.7113 79.3365 78.2772 79.0788 77.9109C78.821 77.5447 78.461 77.2625 78.0438 77.0998C77.6265 76.937 77.1706 76.9008 76.7329 76.9958C76.2952 77.0908 75.8952 77.3126 75.5829 77.6337C75.2707 77.9547 75.0599 78.3607 74.9772 78.8009C74.8944 79.241 74.9431 79.6958 75.1174 80.1084C75.2917 80.521 75.5837 80.873 75.9569 81.1205C76.3302 81.368 76.7682 81.5 77.216 81.5C77.5227 81.5082 77.8278 81.4527 78.1121 81.3371C78.3963 81.2215 78.6535 81.0483 78.8674 80.8284C79.0813 80.6084 79.2474 80.3465 79.355 80.0592C79.4627 79.7719 79.5097 79.4654 79.493 79.159Z" fill="#394149"/>
<path d="M94.3 74.209V83.609C94.3 86.935 91.706 88.341 89.073 88.341C88.146 88.4104 87.2177 88.2231 86.39 87.7998C85.5624 87.3764 84.8673 86.7333 84.381 85.941L86.915 84.476C87.1194 84.889 87.4451 85.2297 87.8484 85.4526C88.2518 85.6754 88.7136 85.7698 89.172 85.723C89.465 85.7636 89.7634 85.7378 90.0451 85.6475C90.3267 85.5572 90.5845 85.4047 90.7993 85.2014C91.0141 84.998 91.1804 84.749 91.286 84.4726C91.3915 84.1963 91.4335 83.8998 91.409 83.605V82.7C91.0612 83.1255 90.6186 83.4636 90.1165 83.6871C89.6144 83.9106 89.067 84.0133 88.518 83.987C87.2118 83.9458 85.9729 83.398 85.0635 82.4594C84.1541 81.5209 83.6456 80.2653 83.6456 78.9585C83.6456 77.6517 84.1541 76.3961 85.0635 75.4576C85.9729 74.519 87.2118 73.9712 88.518 73.93C89.067 73.9037 89.6144 74.0064 90.1165 74.2299C90.6186 74.4534 91.0612 74.7915 91.409 75.217V74.207L94.3 74.209ZM91.41 78.96C91.43 78.4814 91.3062 78.0077 91.0547 77.6C90.8032 77.1922 90.4354 76.8691 89.9987 76.6722C89.562 76.4752 89.0764 76.4135 88.6043 76.4949C88.1322 76.5763 87.6953 76.7971 87.3497 77.129C87.0042 77.4608 86.7659 77.8884 86.6654 78.3568C86.565 78.8252 86.607 79.313 86.7862 79.7573C86.9653 80.2016 87.2733 80.5822 87.6705 80.85C88.0677 81.1178 88.536 81.2606 89.015 81.26C89.3271 81.2818 89.6402 81.238 89.9343 81.1314C90.2284 81.0248 90.4969 80.8577 90.7225 80.6411C90.9481 80.4244 91.1259 80.1629 91.2443 79.8733C91.3627 79.5838 91.4192 79.2727 91.41 78.96Z" fill="#394149"/>
<path d="M95.982 79.159C95.9779 78.1204 96.282 77.1038 96.8561 76.2382C97.4301 75.3726 98.2481 74.6968 99.2065 74.2965C100.165 73.8961 101.221 73.7892 102.24 73.9893C103.259 74.1894 104.196 74.6874 104.932 75.4204C105.668 76.1533 106.169 77.0882 106.374 78.1066C106.578 79.125 106.475 80.1811 106.079 81.1411C105.682 82.101 105.01 82.9218 104.146 83.4992C103.283 84.0767 102.268 84.385 101.229 84.385C100.54 84.3929 99.8554 84.2632 99.2167 84.0036C98.5779 83.744 97.9973 83.3597 97.5088 82.8732C97.0202 82.3866 96.6336 81.8075 96.3715 81.1698C96.1093 80.5321 95.9769 79.8485 95.982 79.159ZM103.506 79.159C103.494 78.7113 103.35 78.2772 103.092 77.9109C102.834 77.5447 102.474 77.2625 102.057 77.0998C101.64 76.937 101.184 76.9008 100.746 76.9958C100.308 77.0908 99.9082 77.3126 99.5959 77.6337C99.2837 77.9547 99.0729 78.3607 98.9901 78.8009C98.9073 79.241 98.9561 79.6958 99.1304 80.1084C99.3047 80.521 99.5967 80.873 99.9699 81.1205C100.343 81.368 100.781 81.5 101.229 81.5C101.536 81.5082 101.841 81.4527 102.125 81.3371C102.409 81.2215 102.667 81.0483 102.88 80.8284C103.094 80.6084 103.26 80.3465 103.368 80.0592C103.476 79.7719 103.523 79.4654 103.506 79.159Z" fill="#394149"/>
<path d="M107.861 71.556C107.861 71.2035 107.966 70.859 108.161 70.566C108.357 70.2729 108.636 70.0445 108.961 69.9096C109.287 69.7748 109.645 69.7395 109.991 69.8082C110.336 69.877 110.654 70.0467 110.903 70.2959C111.152 70.5451 111.322 70.8627 111.391 71.2083C111.46 71.554 111.424 71.9123 111.289 72.2379C111.155 72.5635 110.926 72.8419 110.633 73.0377C110.34 73.2335 109.996 73.338 109.643 73.338C109.172 73.3333 108.721 73.1441 108.388 72.8109C108.055 72.4777 107.866 72.0271 107.861 71.556ZM108.161 74.209H111.132V84.109H108.157L108.161 74.209Z" fill="#394149"/>
<path d="M123.956 79.159C123.99 79.8133 123.895 80.4679 123.675 81.0852C123.456 81.7025 123.116 82.2703 122.677 82.756C122.237 83.2416 121.705 83.6356 121.113 83.9152C120.52 84.1947 119.878 84.3544 119.224 84.385C118.674 84.415 118.123 84.3222 117.613 84.1133C117.103 83.9043 116.646 83.5845 116.275 83.177V88.068H113.305V74.209H116.275V75.139C116.646 74.7318 117.104 74.4122 117.614 74.2035C118.124 73.9947 118.674 73.902 119.224 73.932C119.879 73.9625 120.521 74.1221 121.113 74.4017C121.706 74.6813 122.238 75.0753 122.677 75.5611C123.117 76.0469 123.457 76.6149 123.676 77.2324C123.895 77.8498 123.991 78.5046 123.956 79.159ZM120.986 79.159C120.974 78.6957 120.826 78.2461 120.56 77.8664C120.295 77.4868 119.923 77.194 119.491 77.0248C119.06 76.8555 118.588 76.8172 118.135 76.9148C117.682 77.0123 117.268 77.2413 116.944 77.5731C116.62 77.905 116.402 78.3248 116.316 78.7803C116.23 79.2357 116.28 79.7063 116.46 80.1334C116.64 80.5605 116.942 80.9249 117.328 81.1812C117.714 81.4374 118.167 81.5741 118.631 81.574C118.949 81.5882 119.267 81.5349 119.563 81.4177C119.859 81.3006 120.127 81.1221 120.349 80.8941C120.572 80.666 120.743 80.3936 120.853 80.0946C120.963 79.7956 121.008 79.4767 120.986 79.159Z" fill="#394149"/>
<path d="M133.121 81.138C133.121 83.415 131.142 84.385 129.004 84.385C128.14 84.4632 127.273 84.2806 126.514 83.8605C125.755 83.4405 125.14 82.8025 124.747 82.029L127.32 80.564C127.424 80.9215 127.648 81.2326 127.953 81.4451C128.259 81.6577 128.629 81.759 129 81.732C129.712 81.732 130.069 81.514 130.069 81.119C130.069 80.029 125.198 80.604 125.198 77.179C125.198 75.02 127.02 73.932 129.079 73.932C129.853 73.9075 130.619 74.0911 131.298 74.4636C131.977 74.8362 132.544 75.384 132.939 76.05L130.405 77.416C130.294 77.1567 130.109 76.9358 129.873 76.7809C129.637 76.626 129.361 76.544 129.079 76.545C128.564 76.545 128.247 76.745 128.247 77.099C128.251 78.228 133.121 77.475 133.121 81.138Z" fill="#394149"/>
<path d="M143.97 74.209V84.109H141V83.178C140.657 83.5888 140.222 83.9125 139.73 84.1225C139.238 84.3325 138.704 84.4228 138.17 84.386C136.17 84.386 134.47 82.961 134.47 80.286V74.209H137.44V79.851C137.415 80.0868 137.442 80.3252 137.519 80.5495C137.595 80.7739 137.72 80.9789 137.884 81.1502C138.048 81.3215 138.247 81.455 138.468 81.5415C138.688 81.628 138.925 81.6654 139.162 81.651C140.251 81.651 141.003 81.018 141.003 79.612V74.212L143.97 74.209Z" fill="#394149"/>
<path d="M161 78.03V84.108H158.03V78.287C158.03 77.297 157.555 76.664 156.605 76.664C155.615 76.664 155.06 77.357 155.06 78.525V84.108H152.091V78.287C152.091 77.297 151.616 76.664 150.665 76.664C149.675 76.664 149.121 77.357 149.121 78.525V84.108H146.151V74.208H149.121V75.118C149.429 74.7143 149.833 74.3941 150.296 74.1868C150.76 73.9794 151.268 73.8915 151.774 73.931C152.282 73.9061 152.788 74.0134 153.243 74.2423C153.697 74.4711 154.084 74.8139 154.367 75.237C154.696 74.7943 155.132 74.4423 155.634 74.2139C156.136 73.9855 156.688 73.8882 157.238 73.931C159.511 73.932 161 75.555 161 78.03Z" fill="#394149"/>
<path d="M163.512 74.148C164.729 74.148 165.716 73.1612 165.716 71.944C165.716 70.7268 164.729 69.74 163.512 69.74C162.295 69.74 161.308 70.7268 161.308 71.944C161.308 73.1612 162.295 74.148 163.512 74.148Z" fill="#394149"/>
<rect x="-1" width="500" height="35" fill="#746666"/>
<rect x="30.5" y="117.5" width="439" height="153" rx="5.5" fill="#F5F5F5" stroke="#D9D9D9"/>
<line x1="30" y1="144.5" x2="470" y2="144.5" stroke="#D9D9D9"/>
<path d="M44.17 128.87V127.69H49.73V128.87H47.59V135H46.31V128.87H44.17ZM51.1384 129.07C50.7184 129.07 50.3884 128.74 50.3884 128.33C50.3884 127.92 50.7184 127.6 51.1384 127.6C51.5384 127.6 51.8684 127.92 51.8684 128.33C51.8684 128.74 51.5384 129.07 51.1384 129.07ZM50.5284 135V130.06H51.7484V135H50.5284ZM54.6889 135H53.4689V131.08H52.5189V130.06H53.4689V128.52H54.6889V130.06H55.6489V131.08H54.6889V135ZM57.6373 135H56.4273V127.56H57.6373V135ZM61.1271 135.13C59.6571 135.13 58.6271 134.06 58.6271 132.53C58.6271 130.98 59.6371 129.91 61.0871 129.91C62.5671 129.91 63.5071 130.9 63.5071 132.44V132.81L59.7871 132.82C59.8771 133.69 60.3371 134.13 61.1471 134.13C61.8171 134.13 62.2571 133.87 62.3971 133.4H63.5271C63.3171 134.48 62.4171 135.13 61.1271 135.13ZM61.0971 130.91C60.3771 130.91 59.9371 131.3 59.8171 132.04H62.2971C62.2971 131.36 61.8271 130.91 61.0971 130.91Z" fill="#969696"/>
<path d="M133.9 135.12C131.77 135.12 130.39 133.64 130.39 131.35C130.39 129.08 131.82 127.57 133.96 127.57C135.69 127.57 136.98 128.58 137.23 130.15H135.88C135.63 129.3 134.9 128.8 133.93 128.8C132.58 128.8 131.73 129.78 131.73 131.34C131.73 132.89 132.59 133.89 133.93 133.89C134.92 133.89 135.68 133.37 135.92 132.56H137.25C136.97 134.1 135.63 135.12 133.9 135.12ZM139.59 135.13C138.54 135.13 137.9 134.52 137.9 133.59C137.9 132.68 138.56 132.11 139.73 132.02L141.21 131.91V131.8C141.21 131.13 140.81 130.86 140.19 130.86C139.47 130.86 139.07 131.16 139.07 131.68H138.03C138.03 130.61 138.91 129.91 140.25 129.91C141.58 129.91 142.4 130.63 142.4 132V135H141.33L141.24 134.27C141.03 134.78 140.36 135.13 139.59 135.13ZM139.99 134.21C140.74 134.21 141.22 133.76 141.22 133V132.74L140.19 132.82C139.43 132.89 139.14 133.14 139.14 133.54C139.14 133.99 139.44 134.21 139.99 134.21ZM145.21 135H143.99V131.08H143.04V130.06H143.99V128.52H145.21V130.06H146.17V131.08H145.21V135ZM149.09 135.13C147.62 135.13 146.59 134.06 146.59 132.53C146.59 130.98 147.6 129.91 149.05 129.91C150.53 129.91 151.47 130.9 151.47 132.44V132.81L147.75 132.82C147.84 133.69 148.3 134.13 149.11 134.13C149.78 134.13 150.22 133.87 150.36 133.4H151.49C151.28 134.48 150.38 135.13 149.09 135.13ZM149.06 130.91C148.34 130.91 147.9 131.3 147.78 132.04H150.26C150.26 131.36 149.79 130.91 149.06 130.91ZM152.166 132.42C152.166 130.98 153.106 129.9 154.516 129.9C155.256 129.9 155.836 130.21 156.126 130.74L156.196 130.06H157.326V134.75C157.326 136.4 156.336 137.43 154.736 137.43C153.316 137.43 152.346 136.62 152.196 135.3H153.416C153.496 135.94 153.986 136.32 154.736 136.32C155.576 136.32 156.116 135.79 156.116 134.97V134.15C155.806 134.61 155.196 134.9 154.486 134.9C153.086 134.9 152.166 133.85 152.166 132.42ZM153.396 132.39C153.396 133.22 153.926 133.84 154.726 133.84C155.566 133.84 156.086 133.25 156.086 132.39C156.086 131.55 155.576 130.97 154.726 130.97C153.916 130.97 153.396 131.58 153.396 132.39ZM158.299 132.52C158.299 130.98 159.409 129.92 160.939 129.92C162.469 129.92 163.579 130.98 163.579 132.52C163.579 134.06 162.469 135.12 160.939 135.12C159.409 135.12 158.299 134.06 158.299 132.52ZM159.519 132.52C159.519 133.42 160.099 134.03 160.939 134.03C161.779 134.03 162.359 133.42 162.359 132.52C162.359 131.62 161.779 131.01 160.939 131.01C160.099 131.01 159.519 131.62 159.519 132.52ZM167.646 130.04V131.17H167.196C166.316 131.17 165.766 131.64 165.766 132.6V135H164.546V130.07H165.696L165.766 130.79C165.976 130.3 166.446 129.97 167.106 129.97C167.276 129.97 167.446 129.99 167.646 130.04ZM168.188 137.29V136.27H168.918C169.398 136.27 169.698 136.16 169.908 135.58L170.048 135.21L168.058 130.06H169.348L170.618 133.66L171.958 130.06H173.218L170.798 136.1C170.428 137.02 169.908 137.4 169.098 137.4C168.758 137.4 168.458 137.36 168.188 137.29Z" fill="#969696"/>
<path d="M213.44 135H210.81V127.69H213.37C215.53 127.69 217.02 129.18 217.02 131.36C217.02 133.51 215.56 135 213.44 135ZM213.25 128.87H212.09V133.82H213.32C214.78 133.82 215.67 132.88 215.67 131.36C215.67 129.81 214.76 128.87 213.25 128.87ZM220.242 135.13C218.772 135.13 217.742 134.06 217.742 132.53C217.742 130.98 218.752 129.91 220.202 129.91C221.682 129.91 222.622 130.9 222.622 132.44V132.81L218.902 132.82C218.992 133.69 219.452 134.13 220.262 134.13C220.932 134.13 221.372 133.87 221.512 133.4H222.642C222.432 134.48 221.532 135.13 220.242 135.13ZM220.212 130.91C219.492 130.91 219.052 131.3 218.932 132.04H221.412C221.412 131.36 220.942 130.91 220.212 130.91ZM223.219 133.5H224.379C224.389 133.93 224.709 134.2 225.269 134.2C225.839 134.2 226.149 133.97 226.149 133.61C226.149 133.36 226.019 133.18 225.579 133.08L224.689 132.87C223.799 132.67 223.369 132.25 223.369 131.46C223.369 130.49 224.189 129.91 225.329 129.91C226.439 129.91 227.189 130.55 227.199 131.51H226.039C226.029 131.09 225.749 130.82 225.279 130.82C224.799 130.82 224.519 131.04 224.519 131.41C224.519 131.69 224.739 131.87 225.159 131.97L226.049 132.18C226.879 132.37 227.299 132.75 227.299 133.51C227.299 134.51 226.449 135.13 225.229 135.13C223.999 135.13 223.219 134.47 223.219 133.5ZM227.938 132.52C227.938 130.99 228.948 129.91 230.408 129.91C231.758 129.91 232.678 130.66 232.808 131.85H231.588C231.448 131.29 231.038 131 230.458 131C229.678 131 229.158 131.59 229.158 132.52C229.158 133.45 229.638 134.03 230.418 134.03C231.028 134.03 231.458 133.73 231.588 133.19H232.818C232.668 134.34 231.708 135.13 230.418 135.13C228.918 135.13 227.938 134.09 227.938 132.52ZM236.826 130.04V131.17H236.376C235.496 131.17 234.946 131.64 234.946 132.6V135H233.726V130.07H234.876L234.946 130.79C235.156 130.3 235.626 129.97 236.286 129.97C236.456 129.97 236.626 129.99 236.826 130.04ZM238.261 129.07C237.841 129.07 237.511 128.74 237.511 128.33C237.511 127.92 237.841 127.6 238.261 127.6C238.661 127.6 238.991 127.92 238.991 128.33C238.991 128.74 238.661 129.07 238.261 129.07ZM237.651 135V130.06H238.871V135H237.651ZM240.132 137.29V130.06H241.262L241.342 130.81C241.642 130.24 242.292 129.91 243.042 129.91C244.432 129.91 245.352 130.92 245.352 132.47C245.352 134.01 244.512 135.13 243.042 135.13C242.302 135.13 241.662 134.84 241.352 134.34V137.29H240.132ZM241.362 132.53C241.362 133.42 241.912 134.03 242.752 134.03C243.612 134.03 244.122 133.41 244.122 132.53C244.122 131.65 243.612 131.02 242.752 131.02C241.912 131.02 241.362 131.64 241.362 132.53ZM247.955 135H246.735V131.08H245.785V130.06H246.735V128.52H247.955V130.06H248.915V131.08H247.955V135ZM250.283 129.07C249.863 129.07 249.533 128.74 249.533 128.33C249.533 127.92 249.863 127.6 250.283 127.6C250.683 127.6 251.013 127.92 251.013 128.33C251.013 128.74 250.683 129.07 250.283 129.07ZM249.673 135V130.06H250.893V135H249.673ZM251.863 132.52C251.863 130.98 252.973 129.92 254.503 129.92C256.033 129.92 257.143 130.98 257.143 132.52C257.143 134.06 256.033 135.12 254.503 135.12C252.973 135.12 251.863 134.06 251.863 132.52ZM253.083 132.52C253.083 133.42 253.663 134.03 254.503 134.03C255.343 134.03 255.923 133.42 255.923 132.52C255.923 131.62 255.343 131.01 254.503 131.01C253.663 131.01 253.083 131.62 253.083 132.52ZM259.33 135H258.11V130.06H259.24L259.34 130.7C259.65 130.2 260.25 129.91 260.92 129.91C262.16 129.91 262.8 130.68 262.8 131.96V135H261.58V132.25C261.58 131.42 261.17 131.02 260.54 131.02C259.79 131.02 259.33 131.54 259.33 132.34V135Z" fill="#969696"/>
<path d="M324.01 128.77C322.56 128.77 321.73 129.82 321.73 131.4C321.73 133.03 322.67 133.92 324.02 133.92C325.29 133.92 326.06 133.22 326.06 132.05V132.02H323.85V130.89H327.25V135H326.17L326.09 134.16C325.69 134.72 324.86 135.11 323.87 135.11C321.82 135.11 320.39 133.62 320.39 131.37C320.39 129.15 321.84 127.57 324.04 127.57C325.71 127.57 327 128.54 327.21 130.03H325.86C325.63 129.17 324.89 128.77 324.01 128.77ZM329.062 129.07C328.642 129.07 328.312 128.74 328.312 128.33C328.312 127.92 328.642 127.6 329.062 127.6C329.462 127.6 329.792 127.92 329.792 128.33C329.792 128.74 329.462 129.07 329.062 129.07ZM328.452 135V130.06H329.672V135H328.452ZM330.443 130.06H331.153V129.46C331.153 128.12 331.853 127.56 332.853 127.56C333.043 127.56 333.273 127.57 333.483 127.61V128.65H333.053C332.503 128.65 332.363 128.97 332.363 129.46V130.06H334.443V128.52H335.663V130.06H336.623V131.08H335.663V135H334.443V131.08H332.363V135H331.153V131.08H330.443V130.06ZM343.343 135.12C341.213 135.12 339.833 133.64 339.833 131.35C339.833 129.08 341.263 127.57 343.403 127.57C345.133 127.57 346.423 128.58 346.673 130.15H345.323C345.073 129.3 344.343 128.8 343.373 128.8C342.023 128.8 341.173 129.78 341.173 131.34C341.173 132.89 342.033 133.89 343.373 133.89C344.363 133.89 345.123 133.37 345.363 132.56H346.693C346.413 134.1 345.073 135.12 343.343 135.12ZM349.034 135.13C347.984 135.13 347.344 134.52 347.344 133.59C347.344 132.68 348.004 132.11 349.174 132.02L350.654 131.91V131.8C350.654 131.13 350.254 130.86 349.634 130.86C348.914 130.86 348.514 131.16 348.514 131.68H347.474C347.474 130.61 348.354 129.91 349.694 129.91C351.024 129.91 351.844 130.63 351.844 132V135H350.774L350.684 134.27C350.474 134.78 349.804 135.13 349.034 135.13ZM349.434 134.21C350.184 134.21 350.664 133.76 350.664 133V132.74L349.634 132.82C348.874 132.89 348.584 133.14 348.584 133.54C348.584 133.99 348.884 134.21 349.434 134.21ZM356.142 130.04V131.17H355.692C354.812 131.17 354.262 131.64 354.262 132.6V135H353.042V130.07H354.192L354.262 130.79C354.472 130.3 354.942 129.97 355.602 129.97C355.772 129.97 355.942 129.99 356.142 130.04ZM358.832 135.13C357.402 135.13 356.512 134.08 356.512 132.55C356.512 131.01 357.412 129.91 358.902 129.91C359.592 129.91 360.202 130.2 360.512 130.69V127.56H361.722V135H360.602L360.522 134.23C360.222 134.8 359.582 135.13 358.832 135.13ZM359.102 134.01C359.952 134.01 360.502 133.4 360.502 132.51C360.502 131.62 359.952 131 359.102 131C358.252 131 357.732 131.63 357.732 132.51C357.732 133.39 358.252 134.01 359.102 134.01Z" fill="#969696"/>
<path d="M412.39 129.73C412.39 128.45 413.45 127.56 414.99 127.56C416.47 127.56 417.41 128.38 417.45 129.7H416.17C416.14 129.07 415.69 128.7 414.97 128.7C414.18 128.7 413.67 129.08 413.67 129.69C413.67 130.21 413.95 130.5 414.56 130.64L415.71 130.89C416.96 131.16 417.57 131.8 417.57 132.89C417.57 134.25 416.51 135.13 414.9 135.13C413.34 135.13 412.32 134.3 412.29 132.99H413.57C413.58 133.61 414.08 133.98 414.9 133.98C415.75 133.98 416.29 133.61 416.29 133C416.29 132.51 416.04 132.22 415.44 132.09L414.28 131.83C413.04 131.56 412.39 130.85 412.39 129.73ZM420.228 135H419.008V131.08H418.058V130.06H419.008V128.52H420.228V130.06H421.188V131.08H420.228V135ZM423.387 135.13C422.337 135.13 421.697 134.52 421.697 133.59C421.697 132.68 422.357 132.11 423.527 132.02L425.007 131.91V131.8C425.007 131.13 424.607 130.86 423.987 130.86C423.267 130.86 422.867 131.16 422.867 131.68H421.827C421.827 130.61 422.707 129.91 424.047 129.91C425.377 129.91 426.197 130.63 426.197 132V135H425.127L425.037 134.27C424.827 134.78 424.157 135.13 423.387 135.13ZM423.787 134.21C424.537 134.21 425.017 133.76 425.017 133V132.74L423.987 132.82C423.227 132.89 422.937 133.14 422.937 133.54C422.937 133.99 423.237 134.21 423.787 134.21ZM429.007 135H427.787V131.08H426.837V130.06H427.787V128.52H429.007V130.06H429.967V131.08H429.007V135ZM434.076 130.06H435.296V135H434.166L434.076 134.34C433.776 134.81 433.136 135.13 432.476 135.13C431.336 135.13 430.666 134.36 430.666 133.15V130.06H431.886V132.72C431.886 133.66 432.256 134.04 432.936 134.04C433.706 134.04 434.076 133.59 434.076 132.65V130.06ZM436.078 133.5H437.238C437.248 133.93 437.568 134.2 438.128 134.2C438.698 134.2 439.008 133.97 439.008 133.61C439.008 133.36 438.878 133.18 438.438 133.08L437.548 132.87C436.658 132.67 436.228 132.25 436.228 131.46C436.228 130.49 437.048 129.91 438.188 129.91C439.298 129.91 440.048 130.55 440.058 131.51H438.898C438.888 131.09 438.608 130.82 438.138 130.82C437.658 130.82 437.378 131.04 437.378 131.41C437.378 131.69 437.598 131.87 438.018 131.97L438.908 132.18C439.738 132.37 440.158 132.75 440.158 133.51C440.158 134.51 439.308 135.13 438.088 135.13C436.858 135.13 436.078 134.47 436.078 133.5Z" fill="#969696"/>
<path d="M421.827 164L421.596 170M418.404 170L418.173 164M424.818 161.86C425.046 161.895 425.274 161.932 425.5 161.971M424.818 161.86L424.107 171.115C424.046 171.897 423.395 172.5 422.611 172.5H417.389C416.605 172.5 415.954 171.897 415.893 171.115L415.182 161.86M424.818 161.86C424.054 161.745 423.281 161.657 422.5 161.596M414.5 161.971C414.726 161.932 414.954 161.895 415.182 161.86M415.182 161.86C415.946 161.745 416.719 161.657 417.5 161.596M422.5 161.596V160.985C422.5 160.199 421.893 159.543 421.107 159.518C420.739 159.506 420.37 159.5 420 159.5C419.63 159.5 419.261 159.506 418.893 159.518C418.107 159.543 417.5 160.199 417.5 160.985V161.596M422.5 161.596C421.675 161.532 420.841 161.5 420 161.5C419.159 161.5 418.325 161.532 417.5 161.596" stroke="#D5394A" stroke-width="1.25" stroke-linecap="round" stroke-linejoin="round"/>
<path d="M46.05 170H44.81V162.69H46.05L48.41 168.51L50.77 162.69H52.03V170H50.79V167.75C50.79 166.28 50.79 165.85 50.86 165.33L49 170H47.82L45.97 165.34C46.04 165.78 46.05 166.47 46.05 167.38V170ZM53.0379 172.29V171.27H53.7679C54.2479 171.27 54.5479 171.16 54.7579 170.58L54.8979 170.21L52.9079 165.06H54.1979L55.4679 168.66L56.8079 165.06H58.0679L55.6479 171.1C55.2779 172.02 54.7579 172.4 53.9479 172.4C53.6079 172.4 53.3079 172.36 53.0379 172.29ZM64.5262 167.48H62.9162V170H61.6362V162.69H64.5262C65.9962 162.69 66.9462 163.65 66.9462 165.08C66.9462 166.49 65.9862 167.48 64.5262 167.48ZM64.2762 163.83H62.9162V166.34H64.2562C65.1362 166.34 65.6062 165.87 65.6062 165.07C65.6062 164.27 65.1262 163.83 64.2762 163.83ZM69.8088 170.13C68.3388 170.13 67.3088 169.06 67.3088 167.53C67.3088 165.98 68.3188 164.91 69.7688 164.91C71.2488 164.91 72.1888 165.9 72.1888 167.44V167.81L68.4688 167.82C68.5588 168.69 69.0188 169.13 69.8288 169.13C70.4988 169.13 70.9388 168.87 71.0788 168.4H72.2088C71.9988 169.48 71.0988 170.13 69.8088 170.13ZM69.7788 165.91C69.0588 165.91 68.6188 166.3 68.4988 167.04H70.9788C70.9788 166.36 70.5088 165.91 69.7788 165.91ZM76.2652 165.04V166.17H75.8152C74.9352 166.17 74.3852 166.64 74.3852 167.6V170H73.1652V165.07H74.3152L74.3852 165.79C74.5952 165.3 75.0652 164.97 75.7252 164.97C75.8952 164.97 76.0652 164.99 76.2652 165.04ZM78.3209 170H77.1109V162.56H78.3209V167.13L80.2409 165.06H81.7709L79.8909 167.02L81.7309 170H80.3309L79.0409 167.92L78.3209 168.67V170Z" fill="#2C2C2C"/>
<path d="M321.94 163.84H320.34V162.69H323.17V170H321.94V163.84ZM328.53 170H327.31V165.06H328.43L328.53 165.64C328.78 165.23 329.28 164.91 329.99 164.91C330.74 164.91 331.26 165.28 331.52 165.85C331.77 165.28 332.35 164.91 333.1 164.91C334.3 164.91 334.96 165.63 334.96 166.77V170H333.75V167.09C333.75 166.38 333.37 166.01 332.79 166.01C332.2 166.01 331.75 166.39 331.75 167.2V170H330.53V167.08C330.53 166.39 330.16 166.02 329.58 166.02C329 166.02 328.53 166.4 328.53 167.2V170ZM335.867 167.52C335.867 165.98 336.977 164.92 338.507 164.92C340.037 164.92 341.147 165.98 341.147 167.52C341.147 169.06 340.037 170.12 338.507 170.12C336.977 170.12 335.867 169.06 335.867 167.52ZM337.087 167.52C337.087 168.42 337.667 169.03 338.507 169.03C339.347 169.03 339.927 168.42 339.927 167.52C339.927 166.62 339.347 166.01 338.507 166.01C337.667 166.01 337.087 166.62 337.087 167.52ZM343.334 170H342.114V165.06H343.244L343.344 165.7C343.654 165.2 344.254 164.91 344.924 164.91C346.164 164.91 346.804 165.68 346.804 166.96V170H345.584V167.25C345.584 166.42 345.174 166.02 344.544 166.02C343.794 166.02 343.334 166.54 343.334 167.34V170ZM349.683 170H348.463V166.08H347.513V165.06H348.463V163.52H349.683V165.06H350.643V166.08H349.683V170ZM352.621 170H351.401V162.56H352.631V165.7C352.941 165.22 353.521 164.91 354.231 164.91C355.451 164.91 356.091 165.68 356.091 166.96V170H354.871V167.25C354.871 166.42 354.461 166.02 353.841 166.02C353.071 166.02 352.621 166.56 352.621 167.3V170ZM363.875 166.85H360.945V170H360.225V162.84H364.445V163.5H360.945V166.2H363.875V166.85ZM367.732 165.1V165.72H367.352C366.462 165.72 365.892 166.32 365.892 167.24V170H365.202V165.16H365.852L365.902 165.91C366.092 165.39 366.602 165.05 367.282 165.05C367.432 165.05 367.562 165.06 367.732 165.1ZM370.494 170.12C369.074 170.12 368.124 169.1 368.124 167.58C368.124 166.07 369.064 165.03 370.444 165.03C371.754 165.03 372.644 165.96 372.644 167.33V167.67H368.794C368.844 168.85 369.464 169.53 370.504 169.53C371.294 169.53 371.804 169.19 371.984 168.55H372.644C372.384 169.57 371.634 170.12 370.494 170.12ZM370.444 165.62C369.534 165.62 368.934 166.22 368.814 167.17H371.954C371.954 166.24 371.354 165.62 370.444 165.62ZM375.777 170.12C374.357 170.12 373.407 169.1 373.407 167.58C373.407 166.07 374.347 165.03 375.727 165.03C377.037 165.03 377.927 165.96 377.927 167.33V167.67H374.077C374.127 168.85 374.747 169.53 375.787 169.53C376.577 169.53 377.087 169.19 377.267 168.55H377.927C377.667 169.57 376.917 170.12 375.777 170.12ZM375.727 165.62C374.817 165.62 374.217 166.22 374.097 167.17H377.237C377.237 166.24 376.637 165.62 375.727 165.62Z" fill="#2C2C2C"/>
<rect x="129" y="163" width="55" height="8" rx="4" fill="#D9D9D9"/>
<rect x="210" y="163" width="83" height="8" rx="4" fill="#D9D9D9"/>
<path d="M421.827 190L421.596 196M418.404 196L418.173 190M424.818 187.86C425.046 187.895 425.274 187.932 425.5 187.971M424.818 187.86L424.107 197.115C424.046 197.897 423.395 198.5 422.611 198.5H417.389C416.605 198.5 415.954 197.897 415.893 197.115L415.182 187.86M424.818 187.86C424.054 187.745 423.281 187.657 422.5 187.596M414.5 187.971C414.726 187.932 414.954 187.895 415.182 187.86M415.182 187.86C415.946 187.745 416.719 187.657 417.5 187.596M422.5 187.596V186.985C422.5 186.199 421.893 185.543 421.107 185.518C420.739 185.506 420.37 185.5 420 185.5C419.63 185.5 419.261 185.506 418.893 185.518C418.107 185.543 417.5 186.199 417.5 186.985V187.596M422.5 187.596C421.675 187.532 420.841 187.5 420 187.5C419.159 187.5 418.325 187.532 417.5 187.596" stroke="#D5394A" stroke-width="1.25" stroke-linecap="round" stroke-linejoin="round"/>
<path d="M47.7 193.48H46.09V196H44.81V188.69H47.7C49.17 188.69 50.12 189.65 50.12 191.08C50.12 192.49 49.16 193.48 47.7 193.48ZM47.45 189.83H46.09V192.34H47.43C48.31 192.34 48.78 191.87 48.78 191.07C48.78 190.27 48.3 189.83 47.45 189.83ZM52.2914 196.13C51.2414 196.13 50.6014 195.52 50.6014 194.59C50.6014 193.68 51.2614 193.11 52.4314 193.02L53.9114 192.91V192.8C53.9114 192.13 53.5114 191.86 52.8914 191.86C52.1714 191.86 51.7714 192.16 51.7714 192.68H50.7314C50.7314 191.61 51.6114 190.91 52.9514 190.91C54.2814 190.91 55.1014 191.63 55.1014 193V196H54.0314L53.9414 195.27C53.7314 195.78 53.0614 196.13 52.2914 196.13ZM52.6914 195.21C53.4414 195.21 53.9214 194.76 53.9214 194V193.74L52.8914 193.82C52.1314 193.89 51.8414 194.14 51.8414 194.54C51.8414 194.99 52.1414 195.21 52.6914 195.21ZM59.3999 191.04V192.17H58.9499C58.0699 192.17 57.5199 192.64 57.5199 193.6V196H56.2999V191.07H57.4499L57.5199 191.79C57.7299 191.3 58.1999 190.97 58.8599 190.97C59.0299 190.97 59.1999 190.99 59.3999 191.04ZM62.101 196H60.881V192.08H59.931V191.06H60.881V189.52H62.101V191.06H63.061V192.08H62.101V196ZM65.0395 196H63.8195V191.06H64.9495L65.0495 191.7C65.3595 191.2 65.9595 190.91 66.6295 190.91C67.8695 190.91 68.5095 191.68 68.5095 192.96V196H67.2895V193.25C67.2895 192.42 66.8795 192.02 66.2495 192.02C65.4995 192.02 65.0395 192.54 65.0395 193.34V196ZM71.9181 196.13C70.4481 196.13 69.4181 195.06 69.4181 193.53C69.4181 191.98 70.4281 190.91 71.8781 190.91C73.3581 190.91 74.2981 191.9 74.2981 193.44V193.81L70.5781 193.82C70.6681 194.69 71.1281 195.13 71.9381 195.13C72.6081 195.13 73.0481 194.87 73.1881 194.4H74.3181C74.1081 195.48 73.2081 196.13 71.9181 196.13ZM71.8881 191.91C71.1681 191.91 70.7281 192.3 70.6081 193.04H73.0881C73.0881 192.36 72.6181 191.91 71.8881 191.91ZM78.3745 191.04V192.17H77.9245C77.0445 192.17 76.4945 192.64 76.4945 193.6V196H75.2745V191.07H76.4245L76.4945 191.79C76.7045 191.3 77.1745 190.97 77.8345 190.97C78.0045 190.97 78.1745 190.99 78.3745 191.04ZM83.2056 189.84H81.6056V188.69H84.4356V196H83.2056V189.84Z" fill="#2C2C2C"/>
<path d="M323.44 196H320.81V188.69H323.37C325.53 188.69 327.02 190.18 327.02 192.36C327.02 194.51 325.56 196 323.44 196ZM323.25 189.87H322.09V194.82H323.32C324.78 194.82 325.67 193.88 325.67 192.36C325.67 190.81 324.76 189.87 323.25 189.87ZM328.642 190.07C328.222 190.07 327.892 189.74 327.892 189.33C327.892 188.92 328.222 188.6 328.642 188.6C329.042 188.6 329.372 188.92 329.372 189.33C329.372 189.74 329.042 190.07 328.642 190.07ZM328.032 196V191.06H329.252V196H328.032ZM330.133 194.5H331.293C331.303 194.93 331.623 195.2 332.183 195.2C332.753 195.2 333.063 194.97 333.063 194.61C333.063 194.36 332.933 194.18 332.493 194.08L331.603 193.87C330.713 193.67 330.283 193.25 330.283 192.46C330.283 191.49 331.103 190.91 332.243 190.91C333.353 190.91 334.103 191.55 334.113 192.51H332.953C332.943 192.09 332.663 191.82 332.193 191.82C331.713 191.82 331.433 192.04 331.433 192.41C331.433 192.69 331.653 192.87 332.073 192.97L332.963 193.18C333.793 193.37 334.213 193.75 334.213 194.51C334.213 195.51 333.363 196.13 332.143 196.13C330.913 196.13 330.133 195.47 330.133 194.5ZM334.852 193.52C334.852 191.99 335.862 190.91 337.322 190.91C338.672 190.91 339.592 191.66 339.722 192.85H338.502C338.362 192.29 337.952 192 337.372 192C336.592 192 336.072 192.59 336.072 193.52C336.072 194.45 336.552 195.03 337.332 195.03C337.942 195.03 338.372 194.73 338.502 194.19H339.732C339.582 195.34 338.622 196.13 337.332 196.13C335.832 196.13 334.852 195.09 334.852 193.52ZM340.35 193.52C340.35 191.98 341.46 190.92 342.99 190.92C344.52 190.92 345.63 191.98 345.63 193.52C345.63 195.06 344.52 196.12 342.99 196.12C341.46 196.12 340.35 195.06 340.35 193.52ZM341.57 193.52C341.57 194.42 342.15 195.03 342.99 195.03C343.83 195.03 344.41 194.42 344.41 193.52C344.41 192.62 343.83 192.01 342.99 192.01C342.15 192.01 341.57 192.62 341.57 193.52ZM349.83 191.06H351.05V196H349.92L349.83 195.34C349.53 195.81 348.89 196.13 348.23 196.13C347.09 196.13 346.42 195.36 346.42 194.15V191.06H347.64V193.72C347.64 194.66 348.01 195.04 348.69 195.04C349.46 195.04 349.83 194.59 349.83 193.65V191.06ZM353.53 196H352.31V191.06H353.44L353.54 191.7C353.85 191.2 354.45 190.91 355.12 190.91C356.36 190.91 357 191.68 357 192.96V196H355.78V193.25C355.78 192.42 355.37 192.02 354.74 192.02C353.99 192.02 353.53 192.54 353.53 193.34V196ZM359.878 196H358.658V192.08H357.708V191.06H358.658V189.52H359.878V191.06H360.838V192.08H359.878V196ZM365.472 189.49H364.012V188.84H366.162V196H365.472V189.49ZM367.552 192.42C367.552 190.2 368.642 188.7 370.422 188.7C372.192 188.7 373.282 190.2 373.282 192.42C373.282 194.65 372.212 196.13 370.422 196.13C368.622 196.13 367.552 194.65 367.552 192.42ZM368.262 192.42C368.262 194.28 369.052 195.48 370.422 195.48C371.792 195.48 372.582 194.28 372.582 192.42C372.582 190.55 371.792 189.36 370.422 189.36C369.052 189.36 368.262 190.55 368.262 192.42ZM377.818 190.48C377.818 191.51 377.088 192.25 376.068 192.25C375.048 192.25 374.308 191.51 374.308 190.48C374.308 189.45 375.048 188.7 376.068 188.7C377.088 188.7 377.818 189.45 377.818 190.48ZM381.448 188.84L376.008 196H375.288L380.718 188.84H381.448ZM377.218 190.48C377.218 189.77 376.748 189.28 376.068 189.28C375.378 189.28 374.908 189.77 374.908 190.48C374.908 191.18 375.388 191.68 376.068 191.68C376.738 191.68 377.218 191.18 377.218 190.48ZM382.438 194.36C382.438 195.39 381.708 196.13 380.688 196.13C379.668 196.13 378.928 195.39 378.928 194.36C378.928 193.33 379.668 192.58 380.688 192.58C381.708 192.58 382.438 193.33 382.438 194.36ZM381.838 194.36C381.838 193.65 381.368 193.16 380.688 193.16C379.998 193.16 379.528 193.65 379.528 194.36C379.528 195.06 380.008 195.55 380.688 195.55C381.358 195.55 381.838 195.06 381.838 194.36Z" fill="#2C2C2C"/>
<rect x="129" y="189" width="55" height="8" rx="4" fill="#D9D9D9"/>
<rect x="210" y="189" width="83" height="8" rx="4" fill="#D9D9D9"/>
<path d="M421.827 216L421.596 222M418.404 222L418.173 216M424.818 213.86C425.046 213.895 425.274 213.932 425.5 213.971M424.818 213.86L424.107 223.115C424.046 223.897 423.395 224.5 422.611 224.5H417.389C416.605 224.5 415.954 223.897 415.893 223.115L415.182 213.86M424.818 213.86C424.054 213.745 423.281 213.657 422.5 213.596M414.5 213.971C414.726 213.932 414.954 213.895 415.182 213.86M415.182 213.86C415.946 213.745 416.719 213.657 417.5 213.596M422.5 213.596V212.985C422.5 212.199 421.893 211.543 421.107 211.518C420.739 211.506 420.37 211.5 420 211.5C419.63 211.5 419.261 211.506 418.893 211.518C418.107 211.543 417.5 212.199 417.5 212.985V213.596M422.5 213.596C421.675 213.532 420.841 213.5 420 213.5C419.159 213.5 418.325 213.532 417.5 213.596" stroke="#D5394A" stroke-width="1.25" stroke-linecap="round" stroke-linejoin="round"/>
<path d="M47.7 219.48H46.09V222H44.81V214.69H47.7C49.17 214.69 50.12 215.65 50.12 217.08C50.12 218.49 49.16 219.48 47.7 219.48ZM47.45 215.83H46.09V218.34H47.43C48.31 218.34 48.78 217.87 48.78 217.07C48.78 216.27 48.3 215.83 47.45 215.83ZM52.2914 222.13C51.2414 222.13 50.6014 221.52 50.6014 220.59C50.6014 219.68 51.2614 219.11 52.4314 219.02L53.9114 218.91V218.8C53.9114 218.13 53.5114 217.86 52.8914 217.86C52.1714 217.86 51.7714 218.16 51.7714 218.68H50.7314C50.7314 217.61 51.6114 216.91 52.9514 216.91C54.2814 216.91 55.1014 217.63 55.1014 219V222H54.0314L53.9414 221.27C53.7314 221.78 53.0614 222.13 52.2914 222.13ZM52.6914 221.21C53.4414 221.21 53.9214 220.76 53.9214 220V219.74L52.8914 219.82C52.1314 219.89 51.8414 220.14 51.8414 220.54C51.8414 220.99 52.1414 221.21 52.6914 221.21ZM59.3999 217.04V218.17H58.9499C58.0699 218.17 57.5199 218.64 57.5199 219.6V222H56.2999V217.07H57.4499L57.5199 217.79C57.7299 217.3 58.1999 216.97 58.8599 216.97C59.0299 216.97 59.1999 216.99 59.3999 217.04ZM62.101 222H60.881V218.08H59.931V217.06H60.881V215.52H62.101V217.06H63.061V218.08H62.101V222ZM65.0395 222H63.8195V217.06H64.9495L65.0495 217.7C65.3595 217.2 65.9595 216.91 66.6295 216.91C67.8695 216.91 68.5095 217.68 68.5095 218.96V222H67.2895V219.25C67.2895 218.42 66.8795 218.02 66.2495 218.02C65.4995 218.02 65.0395 218.54 65.0395 219.34V222ZM71.9181 222.13C70.4481 222.13 69.4181 221.06 69.4181 219.53C69.4181 217.98 70.4281 216.91 71.8781 216.91C73.3581 216.91 74.2981 217.9 74.2981 219.44V219.81L70.5781 219.82C70.6681 220.69 71.1281 221.13 71.9381 221.13C72.6081 221.13 73.0481 220.87 73.1881 220.4H74.3181C74.1081 221.48 73.2081 222.13 71.9181 222.13ZM71.8881 217.91C71.1681 217.91 70.7281 218.3 70.6081 219.04H73.0881C73.0881 218.36 72.6181 217.91 71.8881 217.91ZM78.3745 217.04V218.17H77.9245C77.0445 218.17 76.4945 218.64 76.4945 219.6V222H75.2745V217.07H76.4245L76.4945 217.79C76.7045 217.3 77.1745 216.97 77.8345 216.97C78.0045 216.97 78.1745 216.99 78.3745 217.04ZM86.7956 221.99L81.7256 222V221.04L84.1156 219.02C85.1056 218.18 85.4356 217.7 85.4356 217C85.4356 216.17 84.9856 215.7 84.2156 215.7C83.4156 215.7 82.9156 216.26 82.9056 217.2H81.6356C81.6456 215.6 82.6656 214.56 84.2156 214.56C85.7756 214.56 86.7456 215.45 86.7456 216.93C86.7456 217.95 86.1856 218.72 85.0756 219.67L83.7556 220.8H86.7956V221.99Z" fill="#2C2C2C"/>
<path d="M323.44 222H320.81V214.69H323.37C325.53 214.69 327.02 216.18 327.02 218.36C327.02 220.51 325.56 222 323.44 222ZM323.25 215.87H322.09V220.82H323.32C324.78 220.82 325.67 219.88 325.67 218.36C325.67 216.81 324.76 215.87 323.25 215.87ZM328.642 216.07C328.222 216.07 327.892 215.74 327.892 215.33C327.892 214.92 328.222 214.6 328.642 214.6C329.042 214.6 329.372 214.92 329.372 215.33C329.372 215.74 329.042 216.07 328.642 216.07ZM328.032 222V217.06H329.252V222H328.032ZM330.133 220.5H331.293C331.303 220.93 331.623 221.2 332.183 221.2C332.753 221.2 333.063 220.97 333.063 220.61C333.063 220.36 332.933 220.18 332.493 220.08L331.603 219.87C330.713 219.67 330.283 219.25 330.283 218.46C330.283 217.49 331.103 216.91 332.243 216.91C333.353 216.91 334.103 217.55 334.113 218.51H332.953C332.943 218.09 332.663 217.82 332.193 217.82C331.713 217.82 331.433 218.04 331.433 218.41C331.433 218.69 331.653 218.87 332.073 218.97L332.963 219.18C333.793 219.37 334.213 219.75 334.213 220.51C334.213 221.51 333.363 222.13 332.143 222.13C330.913 222.13 330.133 221.47 330.133 220.5ZM334.852 219.52C334.852 217.99 335.862 216.91 337.322 216.91C338.672 216.91 339.592 217.66 339.722 218.85H338.502C338.362 218.29 337.952 218 337.372 218C336.592 218 336.072 218.59 336.072 219.52C336.072 220.45 336.552 221.03 337.332 221.03C337.942 221.03 338.372 220.73 338.502 220.19H339.732C339.582 221.34 338.622 222.13 337.332 222.13C335.832 222.13 334.852 221.09 334.852 219.52ZM340.35 219.52C340.35 217.98 341.46 216.92 342.99 216.92C344.52 216.92 345.63 217.98 345.63 219.52C345.63 221.06 344.52 222.12 342.99 222.12C341.46 222.12 340.35 221.06 340.35 219.52ZM341.57 219.52C341.57 220.42 342.15 221.03 342.99 221.03C343.83 221.03 344.41 220.42 344.41 219.52C344.41 218.62 343.83 218.01 342.99 218.01C342.15 218.01 341.57 218.62 341.57 219.52ZM349.83 217.06H351.05V222H349.92L349.83 221.34C349.53 221.81 348.89 222.13 348.23 222.13C347.09 222.13 346.42 221.36 346.42 220.15V217.06H347.64V219.72C347.64 220.66 348.01 221.04 348.69 221.04C349.46 221.04 349.83 220.59 349.83 219.65V217.06ZM353.53 222H352.31V217.06H353.44L353.54 217.7C353.85 217.2 354.45 216.91 355.12 216.91C356.36 216.91 357 217.68 357 218.96V222H355.78V219.25C355.78 218.42 355.37 218.02 354.74 218.02C353.99 218.02 353.53 218.54 353.53 219.34V222ZM359.878 222H358.658V218.08H357.708V217.06H358.658V215.52H359.878V217.06H360.838V218.08H359.878V222ZM363.752 214.84H368.622V215.5L365.802 222H365.062L367.892 215.5H363.752V214.84ZM372.691 216.48C372.691 217.51 371.961 218.25 370.941 218.25C369.921 218.25 369.181 217.51 369.181 216.48C369.181 215.45 369.921 214.7 370.941 214.7C371.961 214.7 372.691 215.45 372.691 216.48ZM376.321 214.84L370.881 222H370.161L375.591 214.84H376.321ZM372.091 216.48C372.091 215.77 371.621 215.28 370.941 215.28C370.251 215.28 369.781 215.77 369.781 216.48C369.781 217.18 370.261 217.68 370.941 217.68C371.611 217.68 372.091 217.18 372.091 216.48ZM377.311 220.36C377.311 221.39 376.581 222.13 375.561 222.13C374.541 222.13 373.801 221.39 373.801 220.36C373.801 219.33 374.541 218.58 375.561 218.58C376.581 218.58 377.311 219.33 377.311 220.36ZM376.711 220.36C376.711 219.65 376.241 219.16 375.561 219.16C374.871 219.16 374.401 219.65 374.401 220.36C374.401 221.06 374.881 221.55 375.561 221.55C376.231 221.55 376.711 221.06 376.711 220.36Z" fill="#2C2C2C"/>
<rect x="129" y="215" width="55" height="8" rx="4" fill="#D9D9D9"/>
<rect x="210" y="215" width="83" height="8" rx="4" fill="#D9D9D9"/>
<path d="M421.827 242L421.596 248M418.404 248L418.173 242M424.818 239.86C425.046 239.895 425.274 239.932 425.5 239.971M424.818 239.86L424.107 249.115C424.046 249.897 423.395 250.5 422.611 250.5H417.389C416.605 250.5 415.954 249.897 415.893 249.115L415.182 239.86M424.818 239.86C424.054 239.745 423.281 239.657 422.5 239.596M414.5 239.971C414.726 239.932 414.954 239.895 415.182 239.86M415.182 239.86C415.946 239.745 416.719 239.657 417.5 239.596M422.5 239.596V238.985C422.5 238.199 421.893 237.543 421.107 237.518C420.739 237.506 420.37 237.5 420 237.5C419.63 237.5 419.261 237.506 418.893 237.518C418.107 237.543 417.5 238.199 417.5 238.985V239.596M422.5 239.596C421.675 239.532 420.841 239.5 420 239.5C419.159 239.5 418.325 239.532 417.5 239.596" stroke="#D5394A" stroke-width="1.25" stroke-linecap="round" stroke-linejoin="round"/>
<path d="M47.7 245.48H46.09V248H44.81V240.69H47.7C49.17 240.69 50.12 241.65 50.12 243.08C50.12 244.49 49.16 245.48 47.7 245.48ZM47.45 241.83H46.09V244.34H47.43C48.31 244.34 48.78 243.87 48.78 243.07C48.78 242.27 48.3 241.83 47.45 241.83ZM52.2914 248.13C51.2414 248.13 50.6014 247.52 50.6014 246.59C50.6014 245.68 51.2614 245.11 52.4314 245.02L53.9114 244.91V244.8C53.9114 244.13 53.5114 243.86 52.8914 243.86C52.1714 243.86 51.7714 244.16 51.7714 244.68H50.7314C50.7314 243.61 51.6114 242.91 52.9514 242.91C54.2814 242.91 55.1014 243.63 55.1014 245V248H54.0314L53.9414 247.27C53.7314 247.78 53.0614 248.13 52.2914 248.13ZM52.6914 247.21C53.4414 247.21 53.9214 246.76 53.9214 246V245.74L52.8914 245.82C52.1314 245.89 51.8414 246.14 51.8414 246.54C51.8414 246.99 52.1414 247.21 52.6914 247.21ZM59.3999 243.04V244.17H58.9499C58.0699 244.17 57.5199 244.64 57.5199 245.6V248H56.2999V243.07H57.4499L57.5199 243.79C57.7299 243.3 58.1999 242.97 58.8599 242.97C59.0299 242.97 59.1999 242.99 59.3999 243.04ZM62.101 248H60.881V244.08H59.931V243.06H60.881V241.52H62.101V243.06H63.061V244.08H62.101V248ZM65.0395 248H63.8195V243.06H64.9495L65.0495 243.7C65.3595 243.2 65.9595 242.91 66.6295 242.91C67.8695 242.91 68.5095 243.68 68.5095 244.96V248H67.2895V245.25C67.2895 244.42 66.8795 244.02 66.2495 244.02C65.4995 244.02 65.0395 244.54 65.0395 245.34V248ZM71.9181 248.13C70.4481 248.13 69.4181 247.06 69.4181 245.53C69.4181 243.98 70.4281 242.91 71.8781 242.91C73.3581 242.91 74.2981 243.9 74.2981 245.44V245.81L70.5781 245.82C70.6681 246.69 71.1281 247.13 71.9381 247.13C72.6081 247.13 73.0481 246.87 73.1881 246.4H74.3181C74.1081 247.48 73.2081 248.13 71.9181 248.13ZM71.8881 243.91C71.1681 243.91 70.7281 244.3 70.6081 245.04H73.0881C73.0881 244.36 72.6181 243.91 71.8881 243.91ZM78.3745 243.04V244.17H77.9245C77.0445 244.17 76.4945 244.64 76.4945 245.6V248H75.2745V243.07H76.4245L76.4945 243.79C76.7045 243.3 77.1745 242.97 77.8345 242.97C78.0045 242.97 78.1745 242.99 78.3745 243.04ZM83.8556 244.38H82.9656V243.55L84.8456 241.82H81.8056V240.69H86.4456V241.71L84.6656 243.35C85.7856 243.57 86.6556 244.39 86.6556 245.68C86.6556 247.18 85.4856 248.13 84.0056 248.13C82.5756 248.13 81.4656 247.25 81.4656 245.67H82.7256C82.7256 246.51 83.2456 246.99 84.0256 246.99C84.8256 246.99 85.3556 246.47 85.3556 245.66C85.3556 244.92 84.8756 244.38 83.8556 244.38Z" fill="#2C2C2C"/>
<path d="M323.44 248H320.81V240.69H323.37C325.53 240.69 327.02 242.18 327.02 244.36C327.02 246.51 325.56 248 323.44 248ZM323.25 241.87H322.09V246.82H323.32C324.78 246.82 325.67 245.88 325.67 244.36C325.67 242.81 324.76 241.87 323.25 241.87ZM328.642 242.07C328.222 242.07 327.892 241.74 327.892 241.33C327.892 240.92 328.222 240.6 328.642 240.6C329.042 240.6 329.372 240.92 329.372 241.33C329.372 241.74 329.042 242.07 328.642 242.07ZM328.032 248V243.06H329.252V248H328.032ZM330.133 246.5H331.293C331.303 246.93 331.623 247.2 332.183 247.2C332.753 247.2 333.063 246.97 333.063 246.61C333.063 246.36 332.933 246.18 332.493 246.08L331.603 245.87C330.713 245.67 330.283 245.25 330.283 244.46C330.283 243.49 331.103 242.91 332.243 242.91C333.353 242.91 334.103 243.55 334.113 244.51H332.953C332.943 244.09 332.663 243.82 332.193 243.82C331.713 243.82 331.433 244.04 331.433 244.41C331.433 244.69 331.653 244.87 332.073 244.97L332.963 245.18C333.793 245.37 334.213 245.75 334.213 246.51C334.213 247.51 333.363 248.13 332.143 248.13C330.913 248.13 330.133 247.47 330.133 246.5ZM334.852 245.52C334.852 243.99 335.862 242.91 337.322 242.91C338.672 242.91 339.592 243.66 339.722 244.85H338.502C338.362 244.29 337.952 244 337.372 244C336.592 244 336.072 244.59 336.072 245.52C336.072 246.45 336.552 247.03 337.332 247.03C337.942 247.03 338.372 246.73 338.502 246.19H339.732C339.582 247.34 338.622 248.13 337.332 248.13C335.832 248.13 334.852 247.09 334.852 245.52ZM340.35 245.52C340.35 243.98 341.46 242.92 342.99 242.92C344.52 242.92 345.63 243.98 345.63 245.52C345.63 247.06 344.52 248.12 342.99 248.12C341.46 248.12 340.35 247.06 340.35 245.52ZM341.57 245.52C341.57 246.42 342.15 247.03 342.99 247.03C343.83 247.03 344.41 246.42 344.41 245.52C344.41 244.62 343.83 244.01 342.99 244.01C342.15 244.01 341.57 244.62 341.57 245.52ZM349.83 243.06H351.05V248H349.92L349.83 247.34C349.53 247.81 348.89 248.13 348.23 248.13C347.09 248.13 346.42 247.36 346.42 246.15V243.06H347.64V245.72C347.64 246.66 348.01 247.04 348.69 247.04C349.46 247.04 349.83 246.59 349.83 245.65V243.06ZM353.53 248H352.31V243.06H353.44L353.54 243.7C353.85 243.2 354.45 242.91 355.12 242.91C356.36 242.91 357 243.68 357 244.96V248H355.78V245.25C355.78 244.42 355.37 244.02 354.74 244.02C353.99 244.02 353.53 244.54 353.53 245.34V248ZM359.878 248H358.658V244.08H357.708V243.06H358.658V241.52H359.878V243.06H360.838V244.08H359.878V248ZM368.832 248H364.112V247.43L366.402 245.43C367.722 244.28 368.062 243.78 368.062 242.93C368.062 241.96 367.482 241.37 366.532 241.37C365.542 241.37 364.892 242.09 364.862 243.2H364.142C364.182 241.7 365.132 240.71 366.542 240.71C367.892 240.71 368.792 241.58 368.792 242.89C368.792 243.93 368.322 244.62 366.892 245.87L365.222 247.33H368.832V248ZM371.107 241.49H369.647V240.84H371.797V248H371.107V241.49ZM376.627 242.48C376.627 243.51 375.897 244.25 374.877 244.25C373.857 244.25 373.117 243.51 373.117 242.48C373.117 241.45 373.857 240.7 374.877 240.7C375.897 240.7 376.627 241.45 376.627 242.48ZM380.257 240.84L374.817 248H374.097L379.527 240.84H380.257ZM376.027 242.48C376.027 241.77 375.557 241.28 374.877 241.28C374.187 241.28 373.717 241.77 373.717 242.48C373.717 243.18 374.197 243.68 374.877 243.68C375.547 243.68 376.027 243.18 376.027 242.48ZM381.247 246.36C381.247 247.39 380.517 248.13 379.497 248.13C378.477 248.13 377.737 247.39 377.737 246.36C377.737 245.33 378.477 244.58 379.497 244.58C380.517 244.58 381.247 245.33 381.247 246.36ZM380.647 246.36C380.647 245.65 380.177 245.16 379.497 245.16C378.807 245.16 378.337 245.65 378.337 246.36C378.337 247.06 378.817 247.55 379.497 247.55C380.167 247.55 380.647 247.06 380.647 246.36Z" fill="#2C2C2C"/>
<rect x="129" y="241" width="55" height="8" rx="4" fill="#D9D9D9"/>
<rect x="210" y="241" width="83" height="8" rx="4" fill="#D9D9D9"/>
<rect x="390" y="283" width="80" height="27" rx="4" fill="#746666"/>
<path d="M402.016 302H400.154L403.85 291.766H405.684L409.38 302H407.49L406.664 299.634H402.842L402.016 302ZM404.536 294.818L403.374 298.122H406.146L404.97 294.818C404.886 294.552 404.788 294.244 404.76 294.034C404.718 294.23 404.634 294.538 404.536 294.818ZM412.939 302.182C410.937 302.182 409.691 300.712 409.691 298.57C409.691 296.414 410.951 294.874 413.037 294.874C414.003 294.874 414.857 295.28 415.291 295.966V291.584H416.985V302H415.417L415.305 300.922C414.885 301.72 413.989 302.182 412.939 302.182ZM413.317 300.614C414.507 300.614 415.277 299.76 415.277 298.514C415.277 297.268 414.507 296.4 413.317 296.4C412.127 296.4 411.399 297.282 411.399 298.514C411.399 299.746 412.127 300.614 413.317 300.614ZM421.607 302.182C419.605 302.182 418.359 300.712 418.359 298.57C418.359 296.414 419.619 294.874 421.705 294.874C422.671 294.874 423.525 295.28 423.959 295.966V291.584H425.653V302H424.085L423.973 300.922C423.553 301.72 422.657 302.182 421.607 302.182ZM421.985 300.614C423.175 300.614 423.945 299.76 423.945 298.514C423.945 297.268 423.175 296.4 421.985 296.4C420.795 296.4 420.067 297.282 420.067 298.514C420.067 299.746 420.795 300.614 421.985 300.614ZM435.504 298.472H433.25V302H431.458V291.766H435.504C437.562 291.766 438.892 293.11 438.892 295.112C438.892 297.086 437.548 298.472 435.504 298.472ZM435.154 293.362H433.25V296.876H435.126C436.358 296.876 437.016 296.218 437.016 295.098C437.016 293.978 436.344 293.362 435.154 293.362ZM442.9 302.182C440.842 302.182 439.4 300.684 439.4 298.542C439.4 296.372 440.814 294.874 442.844 294.874C444.916 294.874 446.232 296.26 446.232 298.416V298.934L441.024 298.948C441.15 300.166 441.794 300.782 442.928 300.782C443.866 300.782 444.482 300.418 444.678 299.76H446.26C445.966 301.272 444.706 302.182 442.9 302.182ZM442.858 296.274C441.85 296.274 441.234 296.82 441.066 297.856H444.538C444.538 296.904 443.88 296.274 442.858 296.274ZM451.939 295.056V296.638H451.309C450.077 296.638 449.307 297.296 449.307 298.64V302H447.599V295.098H449.209L449.307 296.106C449.601 295.42 450.259 294.958 451.183 294.958C451.421 294.958 451.659 294.986 451.939 295.056ZM454.817 302H453.123V291.584H454.817V297.982L457.505 295.084H459.647L457.015 297.828L459.591 302H457.631L455.825 299.088L454.817 300.138V302Z" fill="white"/>
<path d="M443.357 166.215C443.311 166.077 443.311 165.927 443.357 165.789C444.282 163.006 446.907 161 450 161C453.092 161 455.716 163.005 456.643 165.785C456.689 165.923 456.689 166.073 456.643 166.211C455.717 168.994 453.093 171 449.999 171C446.907 171 444.284 168.995 443.357 166.215Z" stroke="#C0C0C0" stroke-linecap="round" stroke-linejoin="round"/>
<path d="M452 166C452 167.105 451.104 168 450 168C448.895 168 448 167.105 448 166C448 164.895 448.895 164 450 164C451.104 164 452 164.895 452 166Z" stroke="#C0C0C0" stroke-linecap="round" stroke-linejoin="round"/>
<path d="M443.357 218.215C443.311 218.077 443.311 217.927 443.357 217.789C444.282 215.006 446.907 213 450 213C453.092 213 455.716 215.005 456.643 217.785C456.689 217.923 456.689 218.073 456.643 218.211C455.717 220.994 453.093 223 449.999 223C446.907 223 444.284 220.995 443.357 218.215Z" stroke="#C0C0C0" stroke-linecap="round" stroke-linejoin="round"/>
<path d="M452 218C452 219.105 451.104 220 450 220C448.895 220 448 219.105 448 218C448 216.895 448.895 216 450 216C451.104 216 452 216.895 452 218Z" stroke="#C0C0C0" stroke-linecap="round" stroke-linejoin="round"/>
<path d="M443.357 244.215C443.311 244.077 443.311 243.927 443.357 243.789C444.282 241.006 446.907 239 450 239C453.092 239 455.716 241.005 456.643 243.785C456.689 243.923 456.689 244.073 456.643 244.211C455.717 246.994 453.093 249 449.999 249C446.907 249 444.284 246.995 443.357 244.215Z" stroke="#C0C0C0" stroke-linecap="round" stroke-linejoin="round"/>
<path d="M452 244C452 245.105 451.104 246 450 246C448.895 246 448 245.105 448 244C448 242.895 448.895 242 450 242C451.104 242 452 242.895 452 244Z" stroke="#C0C0C0" stroke-linecap="round" stroke-linejoin="round"/>
<path d="M444.653 189.482C444.038 190.209 443.568 191.064 443.29 192.001C444.15 194.892 446.829 197 449.999 197C450.661 197 451.301 196.908 451.908 196.737M446.152 188.152C447.256 187.424 448.578 187 450 187C453.171 187 455.849 189.108 456.71 191.999C456.235 193.595 455.207 194.952 453.848 195.848M446.152 188.152L444 186M446.152 188.152L448.586 190.586M453.848 195.848L456 198M453.848 195.848L451.414 193.414M451.414 193.414C451.776 193.052 452 192.552 452 192C452 190.895 451.105 190 450 190C449.448 190 448.948 190.224 448.586 190.586M451.414 193.414L448.586 190.586" stroke="#C0C0C0" stroke-linecap="round" stroke-linejoin="round"/>
</g>
<defs>
<linearGradient id="paint0_linear_2150_12143" x1="250" y1="0" x2="250" y2="333" gradientUnits="userSpaceOnUse">
<stop stop-color="white"/>
<stop offset="1" stop-color="white" stop-opacity="0"/>
</linearGradient>
<clipPath id="clip0_2150_12143">
<rect width="500" height="333" rx="30" fill="white"/>
</clipPath>
</defs>
</svg>
