<svg width="500" height="330" viewBox="0 0 500 330" fill="none" xmlns="http://www.w3.org/2000/svg">
<g clip-path="url(#clip0_2150_12218)">
<rect width="500" height="330" rx="30" fill="url(#paint0_linear_2150_12218)"/>
<rect x="-1" width="500" height="35" fill="#EDB408"/>
<path d="M37.4 75.96H34.18V81H31.62V66.38H37.4C40.34 66.38 42.24 68.3 42.24 71.16C42.24 73.98 40.32 75.96 37.4 75.96ZM36.9 68.66H34.18V73.68H36.86C38.62 73.68 39.56 72.74 39.56 71.14C39.56 69.54 38.6 68.66 36.9 68.66ZM47.9652 81.26C45.0252 81.26 42.9652 79.12 42.9652 76.06C42.9652 72.96 44.9852 70.82 47.8852 70.82C50.8452 70.82 52.7252 72.8 52.7252 75.88V76.62L45.2852 76.64C45.4652 78.38 46.3852 79.26 48.0052 79.26C49.3452 79.26 50.2252 78.74 50.5052 77.8H52.7652C52.3452 79.96 50.5452 81.26 47.9652 81.26ZM47.9052 72.82C46.4652 72.82 45.5852 73.6 45.3452 75.08H50.3052C50.3052 73.72 49.3652 72.82 47.9052 72.82ZM60.878 71.08V73.34H59.978C58.218 73.34 57.118 74.28 57.118 76.2V81H54.678V71.14H56.978L57.118 72.58C57.538 71.6 58.478 70.94 59.798 70.94C60.138 70.94 60.478 70.98 60.878 71.08ZM61.9402 71.12H63.3602V69.92C63.3602 67.24 64.7802 66.12 66.9202 66.12C67.3002 66.12 67.7602 66.14 68.1802 66.22V68.3H67.3202C66.0802 68.3 65.7802 68.94 65.7802 69.92V71.12H68.1402V73.16H65.7802V81H63.3602V73.16H61.9402V71.12ZM68.8245 76.04C68.8245 72.96 71.0445 70.84 74.1045 70.84C77.1645 70.84 79.3845 72.96 79.3845 76.04C79.3845 79.12 77.1645 81.24 74.1045 81.24C71.0445 81.24 68.8245 79.12 68.8245 76.04ZM71.2645 76.04C71.2645 77.84 72.4245 79.06 74.1045 79.06C75.7845 79.06 76.9445 77.84 76.9445 76.04C76.9445 74.24 75.7845 73.02 74.1045 73.02C72.4245 73.02 71.2645 74.24 71.2645 76.04ZM87.5186 71.08V73.34H86.6186C84.8586 73.34 83.7586 74.28 83.7586 76.2V81H81.3186V71.14H83.6186L83.7586 72.58C84.1786 71.6 85.1186 70.94 86.4386 70.94C86.7786 70.94 87.1186 70.98 87.5186 71.08ZM91.6102 81H89.1702V71.12H91.4102L91.6102 72.28C92.1102 71.46 93.1102 70.82 94.5302 70.82C96.0302 70.82 97.0702 71.56 97.5902 72.7C98.0902 71.56 99.2502 70.82 100.75 70.82C103.15 70.82 104.47 72.26 104.47 74.54V81H102.05V75.18C102.05 73.76 101.29 73.02 100.13 73.02C98.9502 73.02 98.0502 73.78 98.0502 75.4V81H95.6102V75.16C95.6102 73.78 94.8702 73.04 93.7102 73.04C92.5502 73.04 91.6102 73.8 91.6102 75.4V81ZM109.805 81.26C107.705 81.26 106.425 80.04 106.425 78.18C106.425 76.36 107.745 75.22 110.085 75.04L113.045 74.82V74.6C113.045 73.26 112.245 72.72 111.005 72.72C109.565 72.72 108.765 73.32 108.765 74.36H106.685C106.685 72.22 108.445 70.82 111.125 70.82C113.785 70.82 115.425 72.26 115.425 75V81H113.285L113.105 79.54C112.685 80.56 111.345 81.26 109.805 81.26ZM110.605 79.42C112.105 79.42 113.065 78.52 113.065 77V76.48L111.005 76.64C109.485 76.78 108.905 77.28 108.905 78.08C108.905 78.98 109.505 79.42 110.605 79.42ZM120.263 81H117.823V71.12H120.083L120.283 72.4C120.903 71.4 122.103 70.82 123.443 70.82C125.923 70.82 127.203 72.36 127.203 74.92V81H124.763V75.5C124.763 73.84 123.943 73.04 122.683 73.04C121.183 73.04 120.263 74.08 120.263 75.68V81ZM129.02 76.04C129.02 72.98 131.04 70.82 133.96 70.82C136.66 70.82 138.5 72.32 138.76 74.7H136.32C136.04 73.58 135.22 73 134.06 73C132.5 73 131.46 74.18 131.46 76.04C131.46 77.9 132.42 79.06 133.98 79.06C135.2 79.06 136.06 78.46 136.32 77.38H138.78C138.48 79.68 136.56 81.26 133.98 81.26C130.98 81.26 129.02 79.18 129.02 76.04ZM145.016 81.26C142.076 81.26 140.016 79.12 140.016 76.06C140.016 72.96 142.036 70.82 144.936 70.82C147.896 70.82 149.776 72.8 149.776 75.88V76.62L142.336 76.64C142.516 78.38 143.436 79.26 145.056 79.26C146.396 79.26 147.276 78.74 147.556 77.8H149.816C149.396 79.96 147.596 81.26 145.016 81.26ZM144.956 72.82C143.516 72.82 142.636 73.6 142.396 75.08H147.356C147.356 73.72 146.416 72.82 144.956 72.82Z" fill="#2C2C2C"/>
<rect x="258" y="111" width="212" height="167" rx="6" fill="#F0F0F0"/>
<path d="M268.59 124.236H267.463V126H266.567V120.883H268.59C269.619 120.883 270.284 121.555 270.284 122.556C270.284 123.543 269.612 124.236 268.59 124.236ZM268.415 121.681H267.463V123.438H268.401C269.017 123.438 269.346 123.109 269.346 122.549C269.346 121.989 269.01 121.681 268.415 121.681ZM271.804 126.091C271.069 126.091 270.621 125.664 270.621 125.013C270.621 124.376 271.083 123.977 271.902 123.914L272.938 123.837V123.76C272.938 123.291 272.658 123.102 272.224 123.102C271.72 123.102 271.44 123.312 271.44 123.676H270.712C270.712 122.927 271.328 122.437 272.266 122.437C273.197 122.437 273.771 122.941 273.771 123.9V126H273.022L272.959 125.489C272.812 125.846 272.343 126.091 271.804 126.091ZM272.084 125.447C272.609 125.447 272.945 125.132 272.945 124.6V124.418L272.224 124.474C271.692 124.523 271.489 124.698 271.489 124.978C271.489 125.293 271.699 125.447 272.084 125.447ZM276.78 122.528V123.319H276.465C275.849 123.319 275.464 123.648 275.464 124.32V126H274.61V122.549H275.415L275.464 123.053C275.611 122.71 275.94 122.479 276.402 122.479C276.521 122.479 276.64 122.493 276.78 122.528ZM278.671 126H277.817V123.256H277.152V122.542H277.817V121.464H278.671V122.542H279.343V123.256H278.671V126ZM280.728 126H279.874V122.542H280.665L280.735 122.99C280.952 122.64 281.372 122.437 281.841 122.437C282.709 122.437 283.157 122.976 283.157 123.872V126H282.303V124.075C282.303 123.494 282.016 123.214 281.575 123.214C281.05 123.214 280.728 123.578 280.728 124.138V126ZM285.543 126.091C284.514 126.091 283.793 125.342 283.793 124.271C283.793 123.186 284.5 122.437 285.515 122.437C286.551 122.437 287.209 123.13 287.209 124.208V124.467L284.605 124.474C284.668 125.083 284.99 125.391 285.557 125.391C286.026 125.391 286.334 125.209 286.432 124.88H287.223C287.076 125.636 286.446 126.091 285.543 126.091ZM285.522 123.137C285.018 123.137 284.71 123.41 284.626 123.928H286.362C286.362 123.452 286.033 123.137 285.522 123.137ZM290.062 122.528V123.319H289.747C289.131 123.319 288.746 123.648 288.746 124.32V126H287.892V122.549H288.697L288.746 123.053C288.893 122.71 289.222 122.479 289.684 122.479C289.803 122.479 289.922 122.493 290.062 122.528ZM290.374 124.95H291.186C291.193 125.251 291.417 125.44 291.809 125.44C292.208 125.44 292.425 125.279 292.425 125.027C292.425 124.852 292.334 124.726 292.026 124.656L291.403 124.509C290.78 124.369 290.479 124.075 290.479 123.522C290.479 122.843 291.053 122.437 291.851 122.437C292.628 122.437 293.153 122.885 293.16 123.557H292.348C292.341 123.263 292.145 123.074 291.816 123.074C291.48 123.074 291.284 123.228 291.284 123.487C291.284 123.683 291.438 123.809 291.732 123.879L292.355 124.026C292.936 124.159 293.23 124.425 293.23 124.957C293.23 125.657 292.635 126.091 291.781 126.091C290.92 126.091 290.374 125.629 290.374 124.95ZM297.734 126H295.893V120.883H297.685C299.197 120.883 300.24 121.926 300.24 123.452C300.24 124.957 299.218 126 297.734 126ZM297.601 121.709H296.789V125.174H297.65C298.672 125.174 299.295 124.516 299.295 123.452C299.295 122.367 298.658 121.709 297.601 121.709ZM302.496 126.091C301.467 126.091 300.746 125.342 300.746 124.271C300.746 123.186 301.453 122.437 302.468 122.437C303.504 122.437 304.162 123.13 304.162 124.208V124.467L301.558 124.474C301.621 125.083 301.943 125.391 302.51 125.391C302.979 125.391 303.287 125.209 303.385 124.88H304.176C304.029 125.636 303.399 126.091 302.496 126.091ZM302.475 123.137C301.971 123.137 301.663 123.41 301.579 123.928H303.315C303.315 123.452 302.986 123.137 302.475 123.137ZM305.84 126.091C305.105 126.091 304.657 125.664 304.657 125.013C304.657 124.376 305.119 123.977 305.938 123.914L306.974 123.837V123.76C306.974 123.291 306.694 123.102 306.26 123.102C305.756 123.102 305.476 123.312 305.476 123.676H304.748C304.748 122.927 305.364 122.437 306.302 122.437C307.233 122.437 307.807 122.941 307.807 123.9V126H307.058L306.995 125.489C306.848 125.846 306.379 126.091 305.84 126.091ZM306.12 125.447C306.645 125.447 306.981 125.132 306.981 124.6V124.418L306.26 124.474C305.728 124.523 305.525 124.698 305.525 124.978C305.525 125.293 305.735 125.447 306.12 125.447ZM309.507 126H308.66V120.792H309.507V126ZM311.194 126H310.403V120.792H311.257V123.046C311.481 122.661 311.943 122.43 312.468 122.43C313.455 122.43 314.057 123.2 314.057 124.292C314.057 125.356 313.406 126.091 312.412 126.091C311.894 126.091 311.453 125.86 311.25 125.461L311.194 126ZM311.264 124.257C311.264 124.88 311.649 125.307 312.237 125.307C312.839 125.307 313.196 124.873 313.196 124.257C313.196 123.641 312.839 123.2 312.237 123.2C311.649 123.2 311.264 123.634 311.264 124.257ZM314.534 124.264C314.534 123.186 315.311 122.444 316.382 122.444C317.453 122.444 318.23 123.186 318.23 124.264C318.23 125.342 317.453 126.084 316.382 126.084C315.311 126.084 314.534 125.342 314.534 124.264ZM315.388 124.264C315.388 124.894 315.794 125.321 316.382 125.321C316.97 125.321 317.376 124.894 317.376 124.264C317.376 123.634 316.97 123.207 316.382 123.207C315.794 123.207 315.388 123.634 315.388 124.264ZM318.704 124.264C318.704 123.186 319.481 122.444 320.552 122.444C321.623 122.444 322.4 123.186 322.4 124.264C322.4 125.342 321.623 126.084 320.552 126.084C319.481 126.084 318.704 125.342 318.704 124.264ZM319.558 124.264C319.558 124.894 319.964 125.321 320.552 125.321C321.14 125.321 321.546 124.894 321.546 124.264C321.546 123.634 321.14 123.207 320.552 123.207C319.964 123.207 319.558 123.634 319.558 124.264ZM323.938 126H323.091V120.792H323.938V123.991L325.282 122.542H326.353L325.037 123.914L326.325 126H325.345L324.442 124.544L323.938 125.069V126Z" fill="#2C2C2C"/>
<path d="M268 134L268 263" stroke="#BFBFBF" stroke-linecap="round" stroke-dasharray="4 4"/>
<path d="M460 262.5H268" stroke="#BFBFBF" stroke-linecap="round" stroke-dasharray="4 4"/>
<rect x="286" y="159" width="34" height="104" fill="#EDB408"/>
<rect x="327" y="169" width="34" height="94" fill="#CCCCCC"/>
<rect x="368" y="194" width="34" height="69" fill="#CCCCCC"/>
<rect x="409" y="199" width="34" height="64" fill="#CCCCCC"/>
<rect x="30" y="111" width="212" height="167" rx="6" fill="#F0F0F0"/>
<path d="M39.435 126H38.567V120.883H39.435L41.087 124.957L42.739 120.883H43.621V126H42.753V124.425C42.753 123.396 42.753 123.095 42.802 122.731L41.5 126H40.674L39.379 122.738C39.428 123.046 39.435 123.529 39.435 124.166V126ZM44.3265 127.603V126.889H44.8375C45.1735 126.889 45.3835 126.812 45.5305 126.406L45.6285 126.147L44.2355 122.542H45.1385L46.0275 125.062L46.9655 122.542H47.8475L46.1535 126.77C45.8945 127.414 45.5305 127.68 44.9635 127.68C44.7255 127.68 44.5155 127.652 44.3265 127.603ZM52.1863 126H50.3453V120.883H52.1373C53.6493 120.883 54.6923 121.926 54.6923 123.452C54.6923 124.957 53.6703 126 52.1863 126ZM52.0533 121.709H51.2413V125.174H52.1023C53.1243 125.174 53.7473 124.516 53.7473 123.452C53.7473 122.367 53.1103 121.709 52.0533 121.709ZM56.948 126.091C55.919 126.091 55.198 125.342 55.198 124.271C55.198 123.186 55.905 122.437 56.92 122.437C57.956 122.437 58.614 123.13 58.614 124.208V124.467L56.01 124.474C56.073 125.083 56.395 125.391 56.962 125.391C57.431 125.391 57.739 125.209 57.837 124.88H58.628C58.481 125.636 57.851 126.091 56.948 126.091ZM56.927 123.137C56.423 123.137 56.115 123.41 56.031 123.928H57.767C57.767 123.452 57.438 123.137 56.927 123.137ZM60.2923 126.091C59.5573 126.091 59.1093 125.664 59.1093 125.013C59.1093 124.376 59.5713 123.977 60.3903 123.914L61.4263 123.837V123.76C61.4263 123.291 61.1463 123.102 60.7123 123.102C60.2083 123.102 59.9283 123.312 59.9283 123.676H59.2003C59.2003 122.927 59.8163 122.437 60.7543 122.437C61.6853 122.437 62.2593 122.941 62.2593 123.9V126H61.5103L61.4473 125.489C61.3003 125.846 60.8313 126.091 60.2923 126.091ZM60.5723 125.447C61.0973 125.447 61.4333 125.132 61.4333 124.6V124.418L60.7123 124.474C60.1803 124.523 59.9773 124.698 59.9773 124.978C59.9773 125.293 60.1873 125.447 60.5723 125.447ZM63.9592 126H63.1122V120.792H63.9592V126ZM65.6461 126H64.8551V120.792H65.7091V123.046C65.9331 122.661 66.3951 122.43 66.9201 122.43C67.9071 122.43 68.5091 123.2 68.5091 124.292C68.5091 125.356 67.8581 126.091 66.8641 126.091C66.3461 126.091 65.9051 125.86 65.7021 125.461L65.6461 126ZM65.7161 124.257C65.7161 124.88 66.1011 125.307 66.6891 125.307C67.2911 125.307 67.6481 124.873 67.6481 124.257C67.6481 123.641 67.2911 123.2 66.6891 123.2C66.1011 123.2 65.7161 123.634 65.7161 124.257ZM68.986 124.264C68.986 123.186 69.763 122.444 70.834 122.444C71.905 122.444 72.682 123.186 72.682 124.264C72.682 125.342 71.905 126.084 70.834 126.084C69.763 126.084 68.986 125.342 68.986 124.264ZM69.84 124.264C69.84 124.894 70.246 125.321 70.834 125.321C71.422 125.321 71.828 124.894 71.828 124.264C71.828 123.634 71.422 123.207 70.834 123.207C70.246 123.207 69.84 123.634 69.84 124.264ZM73.156 124.264C73.156 123.186 73.933 122.444 75.004 122.444C76.075 122.444 76.852 123.186 76.852 124.264C76.852 125.342 76.075 126.084 75.004 126.084C73.933 126.084 73.156 125.342 73.156 124.264ZM74.01 124.264C74.01 124.894 74.416 125.321 75.004 125.321C75.592 125.321 75.998 124.894 75.998 124.264C75.998 123.634 75.592 123.207 75.004 123.207C74.416 123.207 74.01 123.634 74.01 124.264ZM78.3899 126H77.5429V120.792H78.3899V123.991L79.7339 122.542H80.8049L79.4889 123.914L80.7769 126H79.7969L78.8939 124.544L78.3899 125.069V126Z" fill="#2C2C2C"/>
<path d="M40 134L40 263" stroke="#BFBFBF" stroke-linecap="round" stroke-dasharray="4 4"/>
<path d="M232 262.5H40" stroke="#BFBFBF" stroke-linecap="round" stroke-dasharray="4 4"/>
<rect x="57" y="189" width="34" height="74" fill="#CCCCCC"/>
<rect x="98" y="194" width="34" height="69" fill="#CCCCCC"/>
<rect x="139" y="159" width="34" height="104" fill="#EDB408"/>
<rect x="180" y="169" width="34" height="94" fill="#CCCCCC"/>
</g>
<defs>
<linearGradient id="paint0_linear_2150_12218" x1="250" y1="0" x2="250" y2="330" gradientUnits="userSpaceOnUse">
<stop stop-color="white"/>
<stop offset="1" stop-color="white" stop-opacity="0"/>
</linearGradient>
<clipPath id="clip0_2150_12218">
<rect width="500" height="330" rx="30" fill="white"/>
</clipPath>
</defs>
</svg>
