<svg width="500" height="361" viewBox="0 0 500 361" fill="none" xmlns="http://www.w3.org/2000/svg">
<g clip-path="url(#clip0_2150_12300)">
<rect width="500" height="361" rx="30" fill="url(#paint0_linear_2150_12300)"/>
<g clip-path="url(#clip1_2150_12300)">
<path d="M46.5147 66C43.4686 66 40.5473 67.2101 38.3934 69.364L31.364 76.3934C29.2101 78.5473 28 81.4686 28 84.5147C28 90.8579 33.1421 96 39.4853 96C42.5314 96 45.4527 94.7899 47.6066 92.636L52.4689 87.7737C52.4689 87.7736 52.469 87.7738 52.4689 87.7737L66.636 73.6066C67.6647 72.5779 69.0599 72 70.5147 72C72.9503 72 75.0152 73.5874 75.7311 75.7841L80.2022 71.313C78.1625 68.1183 74.586 66 70.5147 66C67.4686 66 64.5473 67.2101 62.3934 69.364L43.364 88.3934C42.3353 89.4221 40.9401 90 39.4853 90C36.4558 90 34 87.5442 34 84.5147C34 83.0599 34.5779 81.6647 35.6066 80.636L42.636 73.6066C43.6647 72.5779 45.0599 72 46.5147 72C48.9504 72 51.0152 73.5875 51.7311 75.7842L56.2023 71.3131C54.1626 68.1184 50.5861 66 46.5147 66Z" fill="#394149"/>
<path d="M67.364 88.3934C66.3353 89.4221 64.9401 90 63.4853 90C61.05 90 58.9853 88.413 58.2692 86.2167L53.7982 90.6877C55.838 93.8819 59.4143 96 63.4853 96C66.5314 96 69.4527 94.7899 71.6066 92.636L90.636 73.6066C91.6647 72.5779 93.0599 72 94.5147 72C97.5442 72 100 74.4558 100 77.4853C100 78.9401 99.4221 80.3353 98.3934 81.364L91.364 88.3934C90.3353 89.4221 88.9401 90 87.4853 90C85.0498 90 82.985 88.4127 82.269 86.2162L77.798 90.6873C79.8377 93.8818 83.4141 96 87.4853 96C90.5314 96 93.4527 94.7899 95.6066 92.636L102.636 85.6066C104.79 83.4527 106 80.5314 106 77.4853C106 71.1421 100.858 66 94.5147 66C91.4686 66 88.5473 67.2101 86.3934 69.364L67.364 88.3934Z" fill="#394149"/>
</g>
<rect x="-1" width="500" height="35" fill="#EDB408"/>
<rect x="113.75" y="121.75" width="273.5" height="141.5" rx="9.25" fill="#F2F2F2" stroke="#CBCBCB" stroke-width="1.5" stroke-dasharray="9 9"/>
<path d="M420 156L384.5 123H115.5L113 261L166 274.5L420 156Z" fill="url(#paint1_linear_2150_12300)"/>
<path fill-rule="evenodd" clip-rule="evenodd" d="M140.276 152.774L142.464 146.763L143.031 145.205L143.042 145.174L145.798 137.601C145.925 137.254 146.312 137.073 146.659 137.199C147.006 137.326 147.186 137.715 147.061 138.06L144.304 145.633L144.293 145.665L143.726 147.222L141.536 153.238L140.97 154.795L140.958 154.827L138.202 162.4C138.076 162.745 137.688 162.928 137.341 162.801C136.994 162.675 136.813 162.287 136.94 161.94L139.696 154.367L140.276 152.774Z" fill="#B7B7B7"/>
<path fill-rule="evenodd" clip-rule="evenodd" d="M155.439 149.53L153.254 147.346L152.302 146.393L150.118 144.209C149.857 143.948 149.429 143.948 149.168 144.209C148.907 144.47 148.91 144.901 149.168 145.159L151.352 147.343L152.305 148.295L154.489 150.48C154.747 150.738 155.178 150.741 155.439 150.48C155.7 150.219 155.7 149.791 155.439 149.53Z" fill="#B7B7B7"/>
<path fill-rule="evenodd" clip-rule="evenodd" d="M152.302 153.617L153.264 152.655L155.439 150.48C155.7 150.219 155.7 149.791 155.439 149.53C155.178 149.269 154.747 149.272 154.489 149.53L152.314 151.705L151.352 152.667L149.177 154.842C148.92 155.099 148.916 155.53 149.177 155.792C149.439 156.053 149.866 156.053 150.127 155.792L152.302 153.617Z" fill="#B7B7B7"/>
<path fill-rule="evenodd" clip-rule="evenodd" d="M128.561 149.53L130.745 147.346L131.698 146.393L133.882 144.209C134.143 143.948 134.571 143.948 134.832 144.209C135.093 144.47 135.09 144.901 134.832 145.159L132.648 147.343L131.695 148.295L129.511 150.48C129.253 150.738 128.822 150.741 128.561 150.48C128.3 150.219 128.3 149.791 128.561 149.53Z" fill="#B7B7B7"/>
<path fill-rule="evenodd" clip-rule="evenodd" d="M131.698 153.617L130.736 152.655L128.561 150.48C128.3 150.219 128.3 149.791 128.561 149.53C128.822 149.269 129.253 149.272 129.511 149.53L131.686 151.705L132.648 152.667L134.823 154.842C135.08 155.099 135.084 155.53 134.823 155.792C134.561 156.053 134.134 156.053 133.873 155.792L131.698 153.617Z" fill="#B7B7B7"/>
<rect x="152.5" y="155.5" width="274" height="142" rx="9.5" fill="white" stroke="#E5E5E5"/>
<path d="M169.64 196H168.648V190.152H169.64L171.528 194.808L173.416 190.152H174.424V196H173.432V194.2C173.432 193.024 173.432 192.68 173.488 192.264L172 196H171.056L169.576 192.272C169.632 192.624 169.64 193.176 169.64 193.904V196ZM177.342 196.104C176.166 196.104 175.342 195.248 175.342 194.024C175.342 192.784 176.15 191.928 177.31 191.928C178.494 191.928 179.246 192.72 179.246 193.952V194.248L176.27 194.256C176.342 194.952 176.71 195.304 177.358 195.304C177.894 195.304 178.246 195.096 178.358 194.72H179.262C179.094 195.584 178.374 196.104 177.342 196.104ZM177.318 192.728C176.742 192.728 176.39 193.04 176.294 193.632H178.278C178.278 193.088 177.902 192.728 177.318 192.728ZM181.003 196H180.027V192.048H180.923L181.003 192.512C181.203 192.184 181.603 191.928 182.171 191.928C182.771 191.928 183.187 192.224 183.395 192.68C183.595 192.224 184.059 191.928 184.659 191.928C185.619 191.928 186.147 192.504 186.147 193.416V196H185.179V193.672C185.179 193.104 184.875 192.808 184.411 192.808C183.939 192.808 183.579 193.112 183.579 193.76V196H182.603V193.664C182.603 193.112 182.307 192.816 181.843 192.816C181.379 192.816 181.003 193.12 181.003 193.76V196ZM188.01 196H187.106V190.048H188.082V192.624C188.338 192.184 188.866 191.92 189.466 191.92C190.594 191.92 191.282 192.8 191.282 194.048C191.282 195.264 190.538 196.104 189.402 196.104C188.81 196.104 188.306 195.84 188.074 195.384L188.01 196ZM188.09 194.008C188.09 194.72 188.53 195.208 189.202 195.208C189.89 195.208 190.298 194.712 190.298 194.008C190.298 193.304 189.89 192.8 189.202 192.8C188.53 192.8 188.09 193.296 188.09 194.008ZM193.827 196.104C192.651 196.104 191.827 195.248 191.827 194.024C191.827 192.784 192.635 191.928 193.795 191.928C194.979 191.928 195.731 192.72 195.731 193.952V194.248L192.755 194.256C192.827 194.952 193.195 195.304 193.843 195.304C194.379 195.304 194.731 195.096 194.843 194.72H195.747C195.579 195.584 194.859 196.104 193.827 196.104ZM193.803 192.728C193.227 192.728 192.875 193.04 192.779 193.632H194.763C194.763 193.088 194.387 192.728 193.803 192.728ZM198.992 192.032V192.936H198.632C197.928 192.936 197.488 193.312 197.488 194.08V196H196.512V192.056H197.432L197.488 192.632C197.656 192.24 198.032 191.976 198.56 191.976C198.696 191.976 198.832 191.992 198.992 192.032ZM201.953 196V190.152H204.281C205.433 190.152 206.137 190.752 206.137 191.728C206.137 192.376 205.849 192.84 205.297 193.072C205.913 193.272 206.225 193.736 206.225 194.416C206.225 195.416 205.529 196 204.321 196H201.953ZM204.193 191.056H202.977V192.648H204.217C204.777 192.648 205.089 192.352 205.089 191.832C205.089 191.328 204.769 191.056 204.193 191.056ZM204.281 193.512H202.977V195.096H204.281C204.857 195.096 205.177 194.816 205.177 194.288C205.177 193.792 204.849 193.512 204.281 193.512ZM208.788 196.104C207.612 196.104 206.788 195.248 206.788 194.024C206.788 192.784 207.596 191.928 208.756 191.928C209.94 191.928 210.692 192.72 210.692 193.952V194.248L207.716 194.256C207.788 194.952 208.156 195.304 208.804 195.304C209.34 195.304 209.692 195.096 209.804 194.72H210.708C210.54 195.584 209.82 196.104 208.788 196.104ZM208.764 192.728C208.188 192.728 207.836 193.04 207.74 193.632H209.724C209.724 193.088 209.348 192.728 208.764 192.728ZM212.449 196H211.473V192.048H212.377L212.457 192.56C212.705 192.16 213.185 191.928 213.721 191.928C214.713 191.928 215.225 192.544 215.225 193.568V196H214.249V193.8C214.249 193.136 213.921 192.816 213.417 192.816C212.817 192.816 212.449 193.232 212.449 193.872V196ZM217.952 196.104C216.776 196.104 215.952 195.248 215.952 194.024C215.952 192.784 216.76 191.928 217.92 191.928C219.104 191.928 219.856 192.72 219.856 193.952V194.248L216.88 194.256C216.952 194.952 217.32 195.304 217.968 195.304C218.504 195.304 218.856 195.096 218.968 194.72H219.872C219.704 195.584 218.984 196.104 217.952 196.104ZM217.928 192.728C217.352 192.728 217 193.04 216.904 193.632H218.888C218.888 193.088 218.512 192.728 217.928 192.728ZM223.397 196V192.864H221.781V196H220.813V192.864H220.245V192.048H220.813V191.568C220.813 190.496 221.373 190.048 222.173 190.048C222.325 190.048 222.509 190.056 222.677 190.088V190.92H222.333C221.893 190.92 221.781 191.176 221.781 191.568V192.048H224.373V196H223.397ZM223.885 191.24C223.557 191.24 223.301 190.984 223.301 190.656C223.301 190.336 223.557 190.08 223.885 190.08C224.205 190.08 224.461 190.336 224.461 190.656C224.461 190.984 224.205 191.24 223.885 191.24ZM226.723 196H225.747V192.864H224.987V192.048H225.747V190.816H226.723V192.048H227.491V192.864H226.723V196ZM227.794 194.8H228.722C228.73 195.144 228.986 195.36 229.434 195.36C229.89 195.36 230.138 195.176 230.138 194.888C230.138 194.688 230.034 194.544 229.682 194.464L228.97 194.296C228.258 194.136 227.914 193.8 227.914 193.168C227.914 192.392 228.57 191.928 229.482 191.928C230.37 191.928 230.97 192.44 230.978 193.208H230.05C230.042 192.872 229.818 192.656 229.442 192.656C229.058 192.656 228.834 192.832 228.834 193.128C228.834 193.352 229.01 193.496 229.346 193.576L230.058 193.744C230.722 193.896 231.058 194.2 231.058 194.808C231.058 195.608 230.378 196.104 229.402 196.104C228.418 196.104 227.794 195.576 227.794 194.8ZM232.537 193.184C232.185 193.184 231.889 192.896 231.889 192.552C231.889 192.2 232.185 191.912 232.537 191.912C232.889 191.912 233.185 192.2 233.185 192.552C233.185 192.896 232.889 193.184 232.537 193.184ZM232.537 196.096C232.185 196.096 231.889 195.808 231.889 195.464C231.889 195.112 232.185 194.824 232.537 194.824C232.889 194.824 233.185 195.112 233.185 195.464C233.185 195.808 232.889 196.096 232.537 196.096Z" fill="black"/>
<g clip-path="url(#clip2_2150_12300)">
<path d="M169.67 168.482C169.761 168.05 170.191 167.7 170.63 167.7H173.014L171.031 177.088H168.647C168.208 177.088 167.926 176.738 168.017 176.306L169.67 168.482ZM177.617 168.482C177.708 168.05 178.138 167.7 178.577 167.7H180.961L178.978 177.088H176.594C176.155 177.088 175.873 176.738 175.965 176.306L177.617 168.482ZM193.512 168.482C193.603 168.05 194.033 167.7 194.472 167.7H196.856L194.874 177.088H192.489C192.05 177.088 191.769 176.738 191.86 176.306L193.512 168.482ZM181.756 167.7H184.14C184.579 167.7 184.861 168.05 184.77 168.482L183.118 176.306C183.027 176.738 182.596 177.088 182.158 177.088H179.773L181.756 167.7ZM197.651 167.7H200.036C200.474 167.7 200.757 168.05 200.665 168.482L199.012 176.306C198.921 176.738 198.492 177.088 198.053 177.088H195.668L197.651 167.7ZM185.565 168.482C185.656 168.05 186.086 167.7 186.524 167.7H188.909L186.926 177.088H184.542C184.103 177.088 183.821 176.738 183.912 176.306L185.564 168.482H185.565ZM189.704 167.7H192.088C192.527 167.7 192.809 168.05 192.717 168.482L190.239 180.218C190.147 180.65 189.718 181 189.279 181H186.894L189.704 167.7ZM172.487 173.959H175.666L175.17 176.306C175.079 176.738 174.649 177.088 174.21 177.088H171.826L172.486 173.959L172.487 173.959ZM183.582 177.871H186.761L186.1 181H183.716C183.276 181 182.995 180.65 183.086 180.218L183.582 177.871ZM192.211 178.598L191.808 180.504C191.791 180.586 191.764 180.609 191.68 180.609H191.497C191.414 180.609 191.396 180.586 191.413 180.504L191.816 178.598C191.833 178.517 191.861 178.494 191.944 178.494H192.127C192.21 178.494 192.228 178.517 192.211 178.598ZM192.74 179.884H192.703C192.663 179.884 192.649 179.895 192.641 179.935L192.52 180.504C192.503 180.586 192.475 180.609 192.392 180.609H192.209C192.126 180.609 192.108 180.586 192.125 180.504L192.527 178.598C192.545 178.517 192.573 178.494 192.656 178.494H193.034C193.469 178.494 193.634 178.649 193.554 179.029L193.486 179.348C193.406 179.729 193.176 179.884 192.74 179.884ZM192.851 178.94L192.746 179.439C192.737 179.478 192.746 179.489 192.786 179.489H192.847C192.987 179.489 193.062 179.433 193.092 179.289L193.134 179.089C193.165 178.946 193.114 178.889 192.973 178.889H192.913C192.873 178.889 192.859 178.9 192.851 178.94ZM194.159 179.247L194.457 179.574C194.613 179.743 194.634 179.845 194.594 180.034L194.584 180.084C194.509 180.44 194.329 180.637 193.914 180.637C193.499 180.637 193.396 180.471 193.492 180.016L193.504 179.96C193.522 179.879 193.549 179.856 193.632 179.856H193.827C193.91 179.856 193.928 179.879 193.911 179.96L193.885 180.084C193.861 180.197 193.897 180.242 193.997 180.242C194.098 180.242 194.152 180.2 194.174 180.099L194.185 180.045C194.202 179.966 194.193 179.927 194.107 179.833L193.827 179.532C193.67 179.365 193.65 179.269 193.69 179.08L193.703 179.019C193.778 178.663 193.957 178.466 194.373 178.466C194.788 178.466 194.891 178.632 194.795 179.086L194.783 179.143C194.765 179.224 194.738 179.247 194.655 179.247H194.46C194.377 179.247 194.359 179.224 194.376 179.143L194.402 179.019C194.426 178.906 194.39 178.861 194.289 178.861C194.189 178.861 194.134 178.903 194.113 179.004L194.103 179.052C194.085 179.134 194.094 179.174 194.159 179.247ZM195.836 178.598C195.854 178.517 195.881 178.494 195.964 178.494H196.147C196.231 178.494 196.249 178.517 196.231 178.598L195.932 180.017C195.836 180.471 195.663 180.637 195.248 180.637C194.833 180.637 194.73 180.471 194.826 180.016L195.126 178.598C195.143 178.517 195.171 178.494 195.254 178.494H195.437C195.52 178.494 195.538 178.517 195.521 178.598L195.207 180.084C195.183 180.197 195.223 180.242 195.332 180.242C195.437 180.242 195.498 180.197 195.522 180.084L195.836 178.598ZM197.028 179.746C197.029 179.769 197.037 179.774 197.051 179.774C197.065 179.774 197.075 179.769 197.086 179.746L197.581 178.567C197.605 178.508 197.633 178.494 197.705 178.494H197.983C198.066 178.494 198.084 178.517 198.067 178.598L197.665 180.504C197.647 180.586 197.619 180.609 197.536 180.609H197.405C197.322 180.609 197.303 180.586 197.321 180.504L197.514 179.591C197.519 179.566 197.514 179.56 197.497 179.56C197.486 179.56 197.473 179.566 197.466 179.585L197.066 180.516C197.037 180.583 197.001 180.609 196.918 180.609H196.84C196.754 180.609 196.728 180.583 196.728 180.516L196.718 179.585C196.716 179.565 196.712 179.56 196.698 179.56C196.68 179.56 196.673 179.566 196.668 179.591L196.475 180.504C196.458 180.586 196.431 180.609 196.347 180.609H196.216C196.132 180.609 196.114 180.586 196.132 180.504L196.534 178.598C196.552 178.517 196.579 178.494 196.662 178.494H196.9C197 178.494 197.033 178.517 197.032 178.615L197.028 179.746H197.028ZM203 167.7C203 168.087 202.689 168.4 202.305 168.4C202.213 168.4 202.122 168.381 202.038 168.346C201.953 168.311 201.876 168.259 201.812 168.194C201.747 168.129 201.696 168.052 201.661 167.967C201.627 167.882 201.609 167.792 201.609 167.7C201.609 167.313 201.921 167 202.305 167C202.689 167 203 167.313 203 167.7Z" fill="#1D2633"/>
</g>
<rect x="250.841" y="203" width="77.3182" height="23.0636" rx="8" fill="#F7F3CE"/>
<g clip-path="url(#clip3_2150_12300)">
<path d="M271.239 212.971C271.149 212.699 270.901 212.507 270.608 212.481L266.623 212.129L265.047 208.547C264.931 208.285 264.666 208.115 264.372 208.115C264.078 208.115 263.813 208.285 263.697 208.548L262.121 212.129L258.136 212.481C257.843 212.507 257.596 212.699 257.505 212.971C257.414 213.242 257.498 213.54 257.719 213.728L260.731 216.294L259.843 220.094C259.778 220.373 259.89 220.662 260.129 220.829C260.257 220.919 260.407 220.965 260.558 220.965C260.689 220.965 260.818 220.931 260.935 220.864L264.372 218.868L267.808 220.864C268.06 221.01 268.377 220.997 268.615 220.829C268.854 220.661 268.965 220.372 268.9 220.094L268.012 216.294L271.024 213.729C271.246 213.54 271.33 213.243 271.239 212.971Z" fill="#FFC107"/>
</g>
<rect x="277.35" y="210.509" width="28.7182" height="3.21818" rx="1.60909" fill="#FFC107"/>
<rect x="277.35" y="215.873" width="34.7932" height="3.21818" rx="1.60909" fill="#FFC107"/>
<rect x="333.682" y="203" width="77.3182" height="23.0636" rx="8" fill="#F7F3CE"/>
<g clip-path="url(#clip4_2150_12300)">
<path d="M354.079 212.971C353.989 212.699 353.741 212.507 353.448 212.481L349.463 212.129L347.887 208.547C347.771 208.285 347.506 208.115 347.212 208.115C346.918 208.115 346.653 208.285 346.537 208.548L344.961 212.129L340.976 212.481C340.683 212.507 340.436 212.699 340.345 212.971C340.254 213.242 340.338 213.54 340.559 213.728L343.572 216.294L342.683 220.094C342.618 220.373 342.73 220.662 342.969 220.829C343.097 220.919 343.247 220.965 343.398 220.965C343.529 220.965 343.658 220.931 343.775 220.864L347.212 218.868L350.648 220.864C350.9 221.01 351.217 220.997 351.455 220.829C351.694 220.661 351.805 220.372 351.74 220.094L350.852 216.294L353.864 213.729C354.086 213.54 354.17 213.243 354.079 212.971Z" fill="#FFC107"/>
</g>
<rect x="360.191" y="210.509" width="28.7182" height="3.21818" rx="1.60909" fill="#FFC107"/>
<rect x="360.191" y="215.873" width="34.7932" height="3.21818" rx="1.60909" fill="#FFC107"/>
<rect x="168" y="231.427" width="77.3182" height="23.0636" rx="8" fill="#F7F3CE"/>
<g clip-path="url(#clip5_2150_12300)">
<path d="M188.398 241.398C188.308 241.127 188.06 240.934 187.767 240.908L183.782 240.557L182.206 236.975C182.09 236.712 181.825 236.542 181.531 236.542C181.237 236.542 180.972 236.712 180.856 236.975L179.28 240.557L175.295 240.908C175.002 240.934 174.754 241.127 174.664 241.398C174.573 241.67 174.657 241.968 174.878 242.155L177.89 244.721L177.002 248.521C176.937 248.8 177.049 249.089 177.287 249.257C177.416 249.347 177.566 249.392 177.717 249.392C177.848 249.392 177.977 249.358 178.093 249.291L181.531 247.296L184.967 249.291C185.219 249.438 185.536 249.424 185.774 249.257C186.013 249.089 186.124 248.8 186.059 248.521L185.171 244.721L188.183 242.156C188.405 241.968 188.489 241.67 188.398 241.398Z" fill="#FFC107"/>
</g>
<rect x="194.509" y="238.936" width="28.7182" height="3.21818" rx="1.60909" fill="#FFC107"/>
<rect x="194.509" y="244.3" width="34.7932" height="3.21818" rx="1.60909" fill="#FFC107"/>
<rect x="250.841" y="231.427" width="77.3182" height="23.0636" rx="8" fill="#F7F3CE"/>
<g clip-path="url(#clip6_2150_12300)">
<path d="M271.239 241.398C271.149 241.127 270.901 240.934 270.608 240.908L266.623 240.557L265.047 236.975C264.931 236.712 264.666 236.542 264.372 236.542C264.078 236.542 263.813 236.712 263.697 236.975L262.121 240.557L258.136 240.908C257.843 240.934 257.596 241.127 257.505 241.398C257.414 241.67 257.498 241.968 257.719 242.155L260.731 244.721L259.843 248.521C259.778 248.8 259.89 249.089 260.129 249.257C260.257 249.347 260.407 249.392 260.558 249.392C260.689 249.392 260.818 249.358 260.935 249.291L264.372 247.296L267.808 249.291C268.06 249.438 268.377 249.424 268.615 249.257C268.854 249.089 268.965 248.8 268.9 248.521L268.012 244.721L271.024 242.156C271.246 241.968 271.33 241.67 271.239 241.398Z" fill="#FFC107"/>
</g>
<rect x="277.35" y="238.936" width="28.7182" height="3.21818" rx="1.60909" fill="#FFC107"/>
<rect x="277.35" y="244.3" width="34.7932" height="3.21818" rx="1.60909" fill="#FFC107"/>
<rect x="333.682" y="231.427" width="77.3182" height="23.0636" rx="8" fill="#F7F3CE"/>
<g clip-path="url(#clip7_2150_12300)">
<path d="M354.079 241.398C353.989 241.127 353.741 240.934 353.448 240.908L349.463 240.557L347.887 236.975C347.771 236.712 347.506 236.542 347.212 236.542C346.918 236.542 346.653 236.712 346.537 236.975L344.961 240.557L340.976 240.908C340.683 240.934 340.436 241.127 340.345 241.398C340.254 241.67 340.338 241.968 340.559 242.155L343.572 244.721L342.683 248.521C342.618 248.8 342.73 249.089 342.969 249.257C343.097 249.347 343.247 249.392 343.398 249.392C343.529 249.392 343.658 249.358 343.775 249.291L347.212 247.296L350.648 249.291C350.9 249.438 351.217 249.424 351.455 249.257C351.694 249.089 351.805 248.8 351.74 248.521L350.852 244.721L353.864 242.156C354.086 241.968 354.17 241.67 354.079 241.398Z" fill="#FFC107"/>
</g>
<rect x="360.191" y="238.936" width="28.7182" height="3.21818" rx="1.60909" fill="#FFC107"/>
<rect x="360.191" y="244.3" width="34.7932" height="3.21818" rx="1.60909" fill="#FFC107"/>
<rect x="168" y="259.854" width="77.3182" height="23.0636" rx="8" fill="#F7F3CE"/>
<g clip-path="url(#clip8_2150_12300)">
<path d="M188.398 269.825C188.308 269.554 188.06 269.361 187.767 269.335L183.782 268.984L182.206 265.402C182.09 265.139 181.825 264.969 181.531 264.969C181.237 264.969 180.972 265.139 180.856 265.403L179.28 268.984L175.295 269.335C175.002 269.362 174.754 269.554 174.664 269.825C174.573 270.097 174.657 270.395 174.878 270.582L177.89 273.148L177.002 276.948C176.937 277.227 177.049 277.516 177.287 277.684C177.416 277.774 177.566 277.82 177.717 277.82C177.848 277.82 177.977 277.786 178.093 277.718L181.531 275.723L184.967 277.718C185.219 277.865 185.536 277.852 185.774 277.684C186.013 277.516 186.124 277.227 186.059 276.948L185.171 273.148L188.183 270.583C188.405 270.395 188.489 270.097 188.398 269.825Z" fill="#FFC107"/>
</g>
<rect x="194.509" y="267.364" width="28.7182" height="3.21818" rx="1.60909" fill="#FFC107"/>
<rect x="194.509" y="272.727" width="34.7932" height="3.21818" rx="1.60909" fill="#FFC107"/>
<rect x="250.841" y="259.854" width="77.3182" height="23.0636" rx="8" fill="#F7F3CE"/>
<g clip-path="url(#clip9_2150_12300)">
<path d="M271.239 269.825C271.149 269.554 270.901 269.361 270.608 269.335L266.623 268.984L265.047 265.402C264.931 265.139 264.666 264.969 264.372 264.969C264.078 264.969 263.813 265.139 263.697 265.403L262.121 268.984L258.136 269.335C257.843 269.362 257.596 269.554 257.505 269.825C257.414 270.097 257.498 270.395 257.719 270.582L260.731 273.148L259.843 276.948C259.778 277.227 259.89 277.516 260.129 277.684C260.257 277.774 260.407 277.82 260.558 277.82C260.689 277.82 260.818 277.786 260.935 277.718L264.372 275.723L267.808 277.718C268.06 277.865 268.377 277.852 268.615 277.684C268.854 277.516 268.965 277.227 268.9 276.948L268.012 273.148L271.024 270.583C271.246 270.395 271.33 270.097 271.239 269.825Z" fill="#FFC107"/>
</g>
<rect x="277.35" y="267.364" width="28.7182" height="3.21818" rx="1.60909" fill="#FFC107"/>
<rect x="277.35" y="272.727" width="34.7932" height="3.21818" rx="1.60909" fill="#FFC107"/>
<rect x="333.682" y="259.854" width="77.3182" height="23.0636" rx="8" fill="#F7F3CE"/>
<g clip-path="url(#clip10_2150_12300)">
<path d="M354.079 269.825C353.989 269.554 353.741 269.361 353.448 269.335L349.463 268.984L347.887 265.402C347.771 265.139 347.506 264.969 347.212 264.969C346.918 264.969 346.653 265.139 346.537 265.403L344.961 268.984L340.976 269.335C340.683 269.362 340.436 269.554 340.345 269.825C340.254 270.097 340.338 270.395 340.559 270.582L343.572 273.148L342.683 276.948C342.618 277.227 342.73 277.516 342.969 277.684C343.097 277.774 343.247 277.82 343.398 277.82C343.529 277.82 343.658 277.786 343.775 277.718L347.212 275.723L350.648 277.718C350.9 277.865 351.217 277.852 351.455 277.684C351.694 277.516 351.805 277.227 351.74 276.948L350.852 273.148L353.864 270.583C354.086 270.395 354.17 270.097 354.079 269.825Z" fill="#FFC107"/>
</g>
<rect x="360.191" y="267.364" width="28.7182" height="3.21818" rx="1.60909" fill="#FFC107"/>
<rect x="360.191" y="272.727" width="34.7932" height="3.21818" rx="1.60909" fill="#FFC107"/>
<rect x="168" y="203" width="77.3182" height="23.0636" rx="8" fill="#F7F3CE"/>
<g clip-path="url(#clip11_2150_12300)">
<path d="M188.398 212.971C188.308 212.699 188.06 212.507 187.767 212.481L183.782 212.129L182.206 208.547C182.09 208.285 181.825 208.115 181.531 208.115C181.237 208.115 180.972 208.285 180.856 208.548L179.28 212.129L175.295 212.481C175.002 212.507 174.754 212.699 174.664 212.971C174.573 213.242 174.657 213.54 174.878 213.728L177.89 216.294L177.002 220.094C176.937 220.373 177.049 220.662 177.287 220.829C177.416 220.919 177.566 220.965 177.717 220.965C177.848 220.965 177.977 220.931 178.093 220.864L181.531 218.868L184.967 220.864C185.219 221.01 185.536 220.997 185.774 220.829C186.013 220.661 186.124 220.372 186.059 220.094L185.171 216.294L188.183 213.729C188.405 213.54 188.489 213.243 188.398 212.971Z" fill="#FFC107"/>
</g>
<rect x="194.509" y="210.509" width="28.7182" height="3.21818" rx="1.60909" fill="#FFC107"/>
<rect x="194.509" y="215.873" width="34.7932" height="3.21818" rx="1.60909" fill="#FFC107"/>
</g>
<defs>
<linearGradient id="paint0_linear_2150_12300" x1="250" y1="0" x2="250" y2="361" gradientUnits="userSpaceOnUse">
<stop stop-color="white"/>
<stop offset="1" stop-color="white" stop-opacity="0"/>
</linearGradient>
<linearGradient id="paint1_linear_2150_12300" x1="167.5" y1="140" x2="414.5" y2="264" gradientUnits="userSpaceOnUse">
<stop stop-color="#FBFBFB" stop-opacity="0"/>
<stop offset="1" stop-color="#616161" stop-opacity="0.2"/>
</linearGradient>
<clipPath id="clip0_2150_12300">
<rect width="500" height="361" rx="30" fill="white"/>
</clipPath>
<clipPath id="clip1_2150_12300">
<rect width="78" height="30" fill="white" transform="translate(28 66)"/>
</clipPath>
<clipPath id="clip2_2150_12300">
<rect width="35" height="14" fill="white" transform="translate(168 167)"/>
</clipPath>
<clipPath id="clip3_2150_12300">
<rect width="13.8068" height="13.4091" fill="white" transform="translate(257.469 207.827)"/>
</clipPath>
<clipPath id="clip4_2150_12300">
<rect width="13.8068" height="13.4091" fill="white" transform="translate(340.309 207.827)"/>
</clipPath>
<clipPath id="clip5_2150_12300">
<rect width="13.8068" height="13.4091" fill="white" transform="translate(174.627 236.255)"/>
</clipPath>
<clipPath id="clip6_2150_12300">
<rect width="13.8068" height="13.4091" fill="white" transform="translate(257.469 236.255)"/>
</clipPath>
<clipPath id="clip7_2150_12300">
<rect width="13.8068" height="13.4091" fill="white" transform="translate(340.309 236.255)"/>
</clipPath>
<clipPath id="clip8_2150_12300">
<rect width="13.8068" height="13.4091" fill="white" transform="translate(174.627 264.682)"/>
</clipPath>
<clipPath id="clip9_2150_12300">
<rect width="13.8068" height="13.4091" fill="white" transform="translate(257.469 264.682)"/>
</clipPath>
<clipPath id="clip10_2150_12300">
<rect width="13.8068" height="13.4091" fill="white" transform="translate(340.309 264.682)"/>
</clipPath>
<clipPath id="clip11_2150_12300">
<rect width="13.8068" height="13.4091" fill="white" transform="translate(174.627 207.827)"/>
</clipPath>
</defs>
</svg>
