<svg width="500" height="361" viewBox="0 0 500 361" fill="none" xmlns="http://www.w3.org/2000/svg">
<g clip-path="url(#clip0_2150_12300)">
<rect width="500" height="361" rx="30" fill="url(#paint0_linear_2150_12300)"/>
<g clip-path="url(#clip1_2150_12300)">
<path d="M46.5147 66C43.4686 66 40.5473 67.2101 38.3934 69.364L31.364 76.3934C29.2101 78.5473 28 81.4686 28 84.5147C28 90.8579 33.1421 96 39.4853 96C42.5314 96 45.4527 94.7899 47.6066 92.636L52.4689 87.7737C52.4689 87.7736 52.469 87.7738 52.4689 87.7737L66.636 73.6066C67.6647 72.5779 69.0599 72 70.5147 72C72.9503 72 75.0152 73.5874 75.7311 75.7841L80.2022 71.313C78.1625 68.1183 74.586 66 70.5147 66C67.4686 66 64.5473 67.2101 62.3934 69.364L43.364 88.3934C42.3353 89.4221 40.9401 90 39.4853 90C36.4558 90 34 87.5442 34 84.5147C34 83.0599 34.5779 81.6647 35.6066 80.636L42.636 73.6066C43.6647 72.5779 45.0599 72 46.5147 72C48.9504 72 51.0152 73.5875 51.7311 75.7842L56.2023 71.3131C54.1626 68.1184 50.5861 66 46.5147 66Z" fill="#394149"/>
<path d="M67.364 88.3934C66.3353 89.4221 64.9401 90 63.4853 90C61.05 90 58.9853 88.413 58.2692 86.2167L53.7982 90.6877C55.838 93.8819 59.4143 96 63.4853 96C66.5314 96 69.4527 94.7899 71.6066 92.636L90.636 73.6066C91.6647 72.5779 93.0599 72 94.5147 72C97.5442 72 100 74.4558 100 77.4853C100 78.9401 99.4221 80.3353 98.3934 81.364L91.364 88.3934C90.3353 89.4221 88.9401 90 87.4853 90C85.0498 90 82.985 88.4127 82.269 86.2162L77.798 90.6873C79.8377 93.8818 83.4141 96 87.4853 96C90.5314 96 93.4527 94.7899 95.6066 92.636L102.636 85.6066C104.79 83.4527 106 80.5314 106 77.4853C106 71.1421 100.858 66 94.5147 66C91.4686 66 88.5473 67.2101 86.3934 69.364L67.364 88.3934Z" fill="#394149"/>
</g>
<rect x="-1" width="500" height="35" fill="#EDB408"/>
<rect x="113.75" y="121.75" width="273.5" height="141.5" rx="9.25" fill="#F2F2F2" stroke="#CBCBCB" stroke-width="1.5" stroke-dasharray="9 9"/>
<path d="M420 156L384.5 123H115.5L113 261L166 274.5L420 156Z" fill="url(#paint1_linear_2150_12300)"/>
<path fill-rule="evenodd" clip-rule="evenodd" d="M140.276 152.774L142.464 146.763L143.031 145.205L143.042 145.174L145.798 137.601C145.925 137.254 146.312 137.073 146.659 137.199C147.006 137.326 147.186 137.715 147.061 138.06L144.304 145.633L144.293 145.665L143.726 147.222L141.536 153.238L140.97 154.795L140.958 154.827L138.202 162.4C138.076 162.745 137.688 162.928 137.341 162.801C136.994 162.675 136.813 162.287 136.94 161.94L139.696 154.367L140.276 152.774Z" fill="#B7B7B7"/>
<path fill-rule="evenodd" clip-rule="evenodd" d="M155.439 149.53L153.254 147.346L152.302 146.393L150.118 144.209C149.857 143.948 149.429 143.948 149.168 144.209C148.907 144.47 148.91 144.901 149.168 145.159L151.352 147.343L152.305 148.295L154.489 150.48C154.747 150.738 155.178 150.741 155.439 150.48C155.7 150.219 155.7 149.791 155.439 149.53Z" fill="#B7B7B7"/>
<path fill-rule="evenodd" clip-rule="evenodd" d="M152.302 153.617L153.264 152.655L155.439 150.48C155.7 150.219 155.7 149.791 155.439 149.53C155.178 149.269 154.747 149.272 154.489 149.53L152.314 151.705L151.352 152.667L149.177 154.842C148.92 155.099 148.916 155.53 149.177 155.792C149.439 156.053 149.866 156.053 150.127 155.792L152.302 153.617Z" fill="#B7B7B7"/>
<path fill-rule="evenodd" clip-rule="evenodd" d="M128.561 149.53L130.745 147.346L131.698 146.393L133.882 144.209C134.143 143.948 134.571 143.948 134.832 144.209C135.093 144.47 135.09 144.901 134.832 145.159L132.648 147.343L131.695 148.295L129.511 150.48C129.253 150.738 128.822 150.741 128.561 150.48C128.3 150.219 128.3 149.791 128.561 149.53Z" fill="#B7B7B7"/>
<path fill-rule="evenodd" clip-rule="evenodd" d="M131.698 153.617L130.736 152.655L128.561 150.48C128.3 150.219 128.3 149.791 128.561 149.53C128.822 149.269 129.253 149.272 129.511 149.53L131.686 151.705L132.648 152.667L134.823 154.842C135.08 155.099 135.084 155.53 134.823 155.792C134.561 156.053 134.134 156.053 133.873 155.792L131.698 153.617Z" fill="#B7B7B7"/>
<rect x="152.5" y="155.5" width="274" height="142" rx="9.5" fill="white" stroke="#E5E5E5"/>
<path d="M170.752 196H168.648V190.152H170.696C172.424 190.152 173.616 191.344 173.616 193.088C173.616 194.808 172.448 196 170.752 196ZM170.6 191.096H169.672V195.056H170.656C171.824 195.056 172.536 194.304 172.536 193.088C172.536 191.848 171.808 191.096 170.6 191.096ZM176.194 196.104C175.018 196.104 174.194 195.248 174.194 194.024C174.194 192.784 175.002 191.928 176.162 191.928C177.346 191.928 178.098 192.72 178.098 193.952V194.248L175.122 194.256C175.194 194.952 175.562 195.304 176.21 195.304C176.746 195.304 177.098 195.096 177.21 194.72H178.114C177.946 195.584 177.226 196.104 176.194 196.104ZM176.17 192.728C175.594 192.728 175.242 193.04 175.146 193.632H177.13C177.13 193.088 176.754 192.728 176.17 192.728ZM180.016 196.104C179.176 196.104 178.664 195.616 178.664 194.872C178.664 194.144 179.192 193.688 180.128 193.616L181.312 193.528V193.44C181.312 192.904 180.992 192.688 180.496 192.688C179.92 192.688 179.6 192.928 179.6 193.344H178.768C178.768 192.488 179.472 191.928 180.544 191.928C181.608 191.928 182.264 192.504 182.264 193.6V196H181.408L181.336 195.416C181.168 195.824 180.632 196.104 180.016 196.104ZM180.336 195.368C180.936 195.368 181.32 195.008 181.32 194.4V194.192L180.496 194.256C179.888 194.312 179.656 194.512 179.656 194.832C179.656 195.192 179.896 195.368 180.336 195.368ZM184.207 196H183.239V190.048H184.207V196ZM186.135 196H185.231V190.048H186.207V192.624C186.463 192.184 186.991 191.92 187.591 191.92C188.719 191.92 189.407 192.8 189.407 194.048C189.407 195.264 188.663 196.104 187.527 196.104C186.935 196.104 186.431 195.84 186.199 195.384L186.135 196ZM186.215 194.008C186.215 194.72 186.655 195.208 187.327 195.208C188.015 195.208 188.423 194.712 188.423 194.008C188.423 193.304 188.015 192.8 187.327 192.8C186.655 192.8 186.215 193.296 186.215 194.008ZM189.952 194.016C189.952 192.784 190.84 191.936 192.064 191.936C193.288 191.936 194.176 192.784 194.176 194.016C194.176 195.248 193.288 196.096 192.064 196.096C190.84 196.096 189.952 195.248 189.952 194.016ZM190.928 194.016C190.928 194.736 191.392 195.224 192.064 195.224C192.736 195.224 193.2 194.736 193.2 194.016C193.2 193.296 192.736 192.808 192.064 192.808C191.392 192.808 190.928 193.296 190.928 194.016ZM194.717 194.016C194.717 192.784 195.605 191.936 196.829 191.936C198.053 191.936 198.941 192.784 198.941 194.016C198.941 195.248 198.053 196.096 196.829 196.096C195.605 196.096 194.717 195.248 194.717 194.016ZM195.693 194.016C195.693 194.736 196.157 195.224 196.829 195.224C197.501 195.224 197.965 194.736 197.965 194.016C197.965 193.296 197.501 192.808 196.829 192.808C196.157 192.808 195.693 193.296 195.693 194.016ZM200.699 196H199.731V190.048H200.699V193.704L202.235 192.048H203.459L201.955 193.616L203.427 196H202.307L201.275 194.336L200.699 194.936V196Z" fill="black"/>
<g clip-path="url(#clip2_2150_12300)">
<path d="M183.6 175.896C183.598 176.054 183.534 176.205 183.422 176.316C183.31 176.428 183.158 176.49 183 176.49C182.842 176.49 182.69 176.428 182.578 176.316C182.466 176.205 182.402 176.054 182.4 175.896V170.5C182.402 170.342 182.466 170.191 182.578 170.08C182.69 169.969 182.842 169.906 183 169.906C183.158 169.906 183.31 169.969 183.422 170.08C183.534 170.191 183.598 170.342 183.6 170.5V175.896ZM183.391 179.652C183.298 179.731 181.075 181.596 177 181.596C172.925 181.596 170.702 179.731 170.61 179.652C170.489 179.548 170.414 179.401 170.402 179.242C170.39 179.084 170.441 178.927 170.544 178.806C170.648 178.685 170.795 178.61 170.953 178.598C171.111 178.586 171.268 178.637 171.389 178.74C171.424 178.769 173.409 180.396 177 180.396C180.636 180.396 182.59 178.757 182.609 178.741C182.861 178.525 183.24 178.554 183.456 178.806C183.559 178.927 183.61 179.084 183.598 179.242C183.586 179.401 183.511 179.548 183.391 179.652ZM170.4 170.5C170.402 170.342 170.466 170.191 170.578 170.08C170.69 169.969 170.842 169.906 171 169.906C171.158 169.906 171.31 169.969 171.422 170.08C171.534 170.191 171.598 170.342 171.6 170.5V175.896C171.598 176.054 171.534 176.205 171.422 176.316C171.31 176.428 171.158 176.49 171 176.49C170.842 176.49 170.69 176.428 170.578 176.316C170.466 176.205 170.402 176.054 170.4 175.896V170.5ZM173.4 169.3C173.402 169.142 173.467 168.992 173.579 168.882C173.691 168.771 173.842 168.709 174 168.709C174.158 168.709 174.309 168.771 174.421 168.882C174.533 168.992 174.598 169.142 174.6 169.3V177.316C174.598 177.473 174.533 177.623 174.421 177.734C174.309 177.845 174.158 177.907 174 177.907C173.842 177.907 173.691 177.845 173.579 177.734C173.467 177.623 173.402 177.473 173.4 177.316V169.3ZM176.4 168.996C176.4 168.918 176.416 168.84 176.446 168.767C176.476 168.694 176.52 168.628 176.576 168.572C176.631 168.516 176.698 168.472 176.77 168.442C176.843 168.412 176.921 168.396 177 168.396C177.079 168.396 177.157 168.412 177.23 168.442C177.302 168.472 177.369 168.516 177.424 168.572C177.48 168.628 177.524 168.694 177.554 168.767C177.585 168.84 177.6 168.918 177.6 168.996V177.696C177.598 177.854 177.534 178.005 177.422 178.116C177.31 178.228 177.158 178.29 177 178.29C176.842 178.29 176.69 178.228 176.578 178.116C176.466 178.005 176.402 177.854 176.4 177.696V168.996ZM179.4 169.3C179.402 169.142 179.467 168.992 179.579 168.882C179.691 168.771 179.842 168.709 180 168.709C180.158 168.709 180.309 168.771 180.421 168.882C180.533 168.992 180.598 169.142 180.6 169.3V177.316C180.598 177.473 180.533 177.623 180.421 177.734C180.309 177.845 180.158 177.907 180 177.907C179.842 177.907 179.691 177.845 179.579 177.734C179.467 177.623 179.402 177.473 179.4 177.316V169.3ZM183.75 166H170.25C169.007 166 168 167.007 168 168.25V181.75C168 182.993 169.007 184 170.25 184H183.75C184.993 184 186 182.993 186 181.75V168.25C186 167.007 184.993 166 183.75 166Z" fill="black"/>
</g>
<rect x="250.841" y="203" width="77.3182" height="23.0636" rx="8" fill="#F7F3CE"/>
<g clip-path="url(#clip3_2150_12300)">
<path d="M271.239 212.971C271.149 212.699 270.901 212.507 270.608 212.481L266.623 212.129L265.047 208.547C264.931 208.285 264.666 208.115 264.372 208.115C264.078 208.115 263.813 208.285 263.697 208.548L262.121 212.129L258.136 212.481C257.843 212.507 257.596 212.699 257.505 212.971C257.414 213.242 257.498 213.54 257.719 213.728L260.731 216.294L259.843 220.094C259.778 220.373 259.89 220.662 260.129 220.829C260.257 220.919 260.407 220.965 260.558 220.965C260.689 220.965 260.818 220.931 260.935 220.864L264.372 218.868L267.808 220.864C268.06 221.01 268.377 220.997 268.615 220.829C268.854 220.661 268.965 220.372 268.9 220.094L268.012 216.294L271.024 213.729C271.246 213.54 271.33 213.243 271.239 212.971Z" fill="#FFC107"/>
</g>
<rect x="277.35" y="210.509" width="28.7182" height="3.21818" rx="1.60909" fill="#FFC107"/>
<rect x="277.35" y="215.873" width="34.7932" height="3.21818" rx="1.60909" fill="#FFC107"/>
<rect x="333.682" y="203" width="77.3182" height="23.0636" rx="8" fill="#F7F3CE"/>
<g clip-path="url(#clip4_2150_12300)">
<path d="M354.079 212.971C353.989 212.699 353.741 212.507 353.448 212.481L349.463 212.129L347.887 208.547C347.771 208.285 347.506 208.115 347.212 208.115C346.918 208.115 346.653 208.285 346.537 208.548L344.961 212.129L340.976 212.481C340.683 212.507 340.436 212.699 340.345 212.971C340.254 213.242 340.338 213.54 340.559 213.728L343.572 216.294L342.683 220.094C342.618 220.373 342.73 220.662 342.969 220.829C343.097 220.919 343.247 220.965 343.398 220.965C343.529 220.965 343.658 220.931 343.775 220.864L347.212 218.868L350.648 220.864C350.9 221.01 351.217 220.997 351.455 220.829C351.694 220.661 351.805 220.372 351.74 220.094L350.852 216.294L353.864 213.729C354.086 213.54 354.17 213.243 354.079 212.971Z" fill="#FFC107"/>
</g>
<rect x="360.191" y="210.509" width="28.7182" height="3.21818" rx="1.60909" fill="#FFC107"/>
<rect x="360.191" y="215.873" width="34.7932" height="3.21818" rx="1.60909" fill="#FFC107"/>
<rect x="168" y="231.427" width="77.3182" height="23.0636" rx="8" fill="#F7F3CE"/>
<g clip-path="url(#clip5_2150_12300)">
<path d="M188.398 241.398C188.308 241.127 188.06 240.934 187.767 240.908L183.782 240.557L182.206 236.975C182.09 236.712 181.825 236.542 181.531 236.542C181.237 236.542 180.972 236.712 180.856 236.975L179.28 240.557L175.295 240.908C175.002 240.934 174.754 241.127 174.664 241.398C174.573 241.67 174.657 241.968 174.878 242.155L177.89 244.721L177.002 248.521C176.937 248.8 177.049 249.089 177.287 249.257C177.416 249.347 177.566 249.392 177.717 249.392C177.848 249.392 177.977 249.358 178.093 249.291L181.531 247.296L184.967 249.291C185.219 249.438 185.536 249.424 185.774 249.257C186.013 249.089 186.124 248.8 186.059 248.521L185.171 244.721L188.183 242.156C188.405 241.968 188.489 241.67 188.398 241.398Z" fill="#FFC107"/>
</g>
<rect x="194.509" y="238.936" width="28.7182" height="3.21818" rx="1.60909" fill="#FFC107"/>
<rect x="194.509" y="244.3" width="34.7932" height="3.21818" rx="1.60909" fill="#FFC107"/>
<rect x="250.841" y="231.427" width="77.3182" height="23.0636" rx="8" fill="#F7F3CE"/>
<g clip-path="url(#clip6_2150_12300)">
<path d="M271.239 241.398C271.149 241.127 270.901 240.934 270.608 240.908L266.623 240.557L265.047 236.975C264.931 236.712 264.666 236.542 264.372 236.542C264.078 236.542 263.813 236.712 263.697 236.975L262.121 240.557L258.136 240.908C257.843 240.934 257.596 241.127 257.505 241.398C257.414 241.67 257.498 241.968 257.719 242.155L260.731 244.721L259.843 248.521C259.778 248.8 259.89 249.089 260.129 249.257C260.257 249.347 260.407 249.392 260.558 249.392C260.689 249.392 260.818 249.358 260.935 249.291L264.372 247.296L267.808 249.291C268.06 249.438 268.377 249.424 268.615 249.257C268.854 249.089 268.965 248.8 268.9 248.521L268.012 244.721L271.024 242.156C271.246 241.968 271.33 241.67 271.239 241.398Z" fill="#FFC107"/>
</g>
<rect x="277.35" y="238.936" width="28.7182" height="3.21818" rx="1.60909" fill="#FFC107"/>
<rect x="277.35" y="244.3" width="34.7932" height="3.21818" rx="1.60909" fill="#FFC107"/>
<rect x="333.682" y="231.427" width="77.3182" height="23.0636" rx="8" fill="#F7F3CE"/>
<g clip-path="url(#clip7_2150_12300)">
<path d="M354.079 241.398C353.989 241.127 353.741 240.934 353.448 240.908L349.463 240.557L347.887 236.975C347.771 236.712 347.506 236.542 347.212 236.542C346.918 236.542 346.653 236.712 346.537 236.975L344.961 240.557L340.976 240.908C340.683 240.934 340.436 241.127 340.345 241.398C340.254 241.67 340.338 241.968 340.559 242.155L343.572 244.721L342.683 248.521C342.618 248.8 342.73 249.089 342.969 249.257C343.097 249.347 343.247 249.392 343.398 249.392C343.529 249.392 343.658 249.358 343.775 249.291L347.212 247.296L350.648 249.291C350.9 249.438 351.217 249.424 351.455 249.257C351.694 249.089 351.805 248.8 351.74 248.521L350.852 244.721L353.864 242.156C354.086 241.968 354.17 241.67 354.079 241.398Z" fill="#FFC107"/>
</g>
<rect x="360.191" y="238.936" width="28.7182" height="3.21818" rx="1.60909" fill="#FFC107"/>
<rect x="360.191" y="244.3" width="34.7932" height="3.21818" rx="1.60909" fill="#FFC107"/>
<rect x="168" y="259.854" width="77.3182" height="23.0636" rx="8" fill="#F7F3CE"/>
<g clip-path="url(#clip8_2150_12300)">
<path d="M188.398 269.825C188.308 269.554 188.06 269.361 187.767 269.335L183.782 268.984L182.206 265.402C182.09 265.139 181.825 264.969 181.531 264.969C181.237 264.969 180.972 265.139 180.856 265.403L179.28 268.984L175.295 269.335C175.002 269.362 174.754 269.554 174.664 269.825C174.573 270.097 174.657 270.395 174.878 270.582L177.89 273.148L177.002 276.948C176.937 277.227 177.049 277.516 177.287 277.684C177.416 277.774 177.566 277.82 177.717 277.82C177.848 277.82 177.977 277.786 178.093 277.718L181.531 275.723L184.967 277.718C185.219 277.865 185.536 277.852 185.774 277.684C186.013 277.516 186.124 277.227 186.059 276.948L185.171 273.148L188.183 270.583C188.405 270.395 188.489 270.097 188.398 269.825Z" fill="#FFC107"/>
</g>
<rect x="194.509" y="267.364" width="28.7182" height="3.21818" rx="1.60909" fill="#FFC107"/>
<rect x="194.509" y="272.727" width="34.7932" height="3.21818" rx="1.60909" fill="#FFC107"/>
<rect x="250.841" y="259.854" width="77.3182" height="23.0636" rx="8" fill="#F7F3CE"/>
<g clip-path="url(#clip9_2150_12300)">
<path d="M271.239 269.825C271.149 269.554 270.901 269.361 270.608 269.335L266.623 268.984L265.047 265.402C264.931 265.139 264.666 264.969 264.372 264.969C264.078 264.969 263.813 265.139 263.697 265.403L262.121 268.984L258.136 269.335C257.843 269.362 257.596 269.554 257.505 269.825C257.414 270.097 257.498 270.395 257.719 270.582L260.731 273.148L259.843 276.948C259.778 277.227 259.89 277.516 260.129 277.684C260.257 277.774 260.407 277.82 260.558 277.82C260.689 277.82 260.818 277.786 260.935 277.718L264.372 275.723L267.808 277.718C268.06 277.865 268.377 277.852 268.615 277.684C268.854 277.516 268.965 277.227 268.9 276.948L268.012 273.148L271.024 270.583C271.246 270.395 271.33 270.097 271.239 269.825Z" fill="#FFC107"/>
</g>
<rect x="277.35" y="267.364" width="28.7182" height="3.21818" rx="1.60909" fill="#FFC107"/>
<rect x="277.35" y="272.727" width="34.7932" height="3.21818" rx="1.60909" fill="#FFC107"/>
<rect x="333.682" y="259.854" width="77.3182" height="23.0636" rx="8" fill="#F7F3CE"/>
<g clip-path="url(#clip10_2150_12300)">
<path d="M354.079 269.825C353.989 269.554 353.741 269.361 353.448 269.335L349.463 268.984L347.887 265.402C347.771 265.139 347.506 264.969 347.212 264.969C346.918 264.969 346.653 265.139 346.537 265.403L344.961 268.984L340.976 269.335C340.683 269.362 340.436 269.554 340.345 269.825C340.254 270.097 340.338 270.395 340.559 270.582L343.572 273.148L342.683 276.948C342.618 277.227 342.73 277.516 342.969 277.684C343.097 277.774 343.247 277.82 343.398 277.82C343.529 277.82 343.658 277.786 343.775 277.718L347.212 275.723L350.648 277.718C350.9 277.865 351.217 277.852 351.455 277.684C351.694 277.516 351.805 277.227 351.74 276.948L350.852 273.148L353.864 270.583C354.086 270.395 354.17 270.097 354.079 269.825Z" fill="#FFC107"/>
</g>
<rect x="360.191" y="267.364" width="28.7182" height="3.21818" rx="1.60909" fill="#FFC107"/>
<rect x="360.191" y="272.727" width="34.7932" height="3.21818" rx="1.60909" fill="#FFC107"/>
<rect x="168" y="203" width="77.3182" height="23.0636" rx="8" fill="#F7F3CE"/>
<g clip-path="url(#clip11_2150_12300)">
<path d="M188.398 212.971C188.308 212.699 188.06 212.507 187.767 212.481L183.782 212.129L182.206 208.547C182.09 208.285 181.825 208.115 181.531 208.115C181.237 208.115 180.972 208.285 180.856 208.548L179.28 212.129L175.295 212.481C175.002 212.507 174.754 212.699 174.664 212.971C174.573 213.242 174.657 213.54 174.878 213.728L177.89 216.294L177.002 220.094C176.937 220.373 177.049 220.662 177.287 220.829C177.416 220.919 177.566 220.965 177.717 220.965C177.848 220.965 177.977 220.931 178.093 220.864L181.531 218.868L184.967 220.864C185.219 221.01 185.536 220.997 185.774 220.829C186.013 220.661 186.124 220.372 186.059 220.094L185.171 216.294L188.183 213.729C188.405 213.54 188.489 213.243 188.398 212.971Z" fill="#FFC107"/>
</g>
<rect x="194.509" y="210.509" width="28.7182" height="3.21818" rx="1.60909" fill="#FFC107"/>
<rect x="194.509" y="215.873" width="34.7932" height="3.21818" rx="1.60909" fill="#FFC107"/>
</g>
<defs>
<linearGradient id="paint0_linear_2150_12300" x1="250" y1="0" x2="250" y2="361" gradientUnits="userSpaceOnUse">
<stop stop-color="white"/>
<stop offset="1" stop-color="white" stop-opacity="0"/>
</linearGradient>
<linearGradient id="paint1_linear_2150_12300" x1="167.5" y1="140" x2="414.5" y2="264" gradientUnits="userSpaceOnUse">
<stop stop-color="#FBFBFB" stop-opacity="0"/>
<stop offset="1" stop-color="#616161" stop-opacity="0.2"/>
</linearGradient>
<clipPath id="clip0_2150_12300">
<rect width="500" height="361" rx="30" fill="white"/>
</clipPath>
<clipPath id="clip1_2150_12300">
<rect width="78" height="30" fill="white" transform="translate(28 66)"/>
</clipPath>
<clipPath id="clip2_2150_12300">
<rect width="18" height="18" fill="white" transform="translate(168 166)"/>
</clipPath>
<clipPath id="clip3_2150_12300">
<rect width="13.8068" height="13.4091" fill="white" transform="translate(257.469 207.827)"/>
</clipPath>
<clipPath id="clip4_2150_12300">
<rect width="13.8068" height="13.4091" fill="white" transform="translate(340.309 207.827)"/>
</clipPath>
<clipPath id="clip5_2150_12300">
<rect width="13.8068" height="13.4091" fill="white" transform="translate(174.627 236.255)"/>
</clipPath>
<clipPath id="clip6_2150_12300">
<rect width="13.8068" height="13.4091" fill="white" transform="translate(257.469 236.255)"/>
</clipPath>
<clipPath id="clip7_2150_12300">
<rect width="13.8068" height="13.4091" fill="white" transform="translate(340.309 236.255)"/>
</clipPath>
<clipPath id="clip8_2150_12300">
<rect width="13.8068" height="13.4091" fill="white" transform="translate(174.627 264.682)"/>
</clipPath>
<clipPath id="clip9_2150_12300">
<rect width="13.8068" height="13.4091" fill="white" transform="translate(257.469 264.682)"/>
</clipPath>
<clipPath id="clip10_2150_12300">
<rect width="13.8068" height="13.4091" fill="white" transform="translate(340.309 264.682)"/>
</clipPath>
<clipPath id="clip11_2150_12300">
<rect width="13.8068" height="13.4091" fill="white" transform="translate(174.627 207.827)"/>
</clipPath>
</defs>
</svg>
