<svg width="500" height="285" viewBox="0 0 500 285" fill="none" xmlns="http://www.w3.org/2000/svg">
<g clip-path="url(#clip0_2150_12218)">
<rect width="500" height="285" rx="30" fill="url(#paint0_linear_2150_12218)"/>
<rect x="-1" width="500" height="35" fill="#EDB408"/>
<path d="M37.4 75.96H34.18V81H31.62V66.38H37.4C40.34 66.38 42.24 68.3 42.24 71.16C42.24 73.98 40.32 75.96 37.4 75.96ZM36.9 68.66H34.18V73.68H36.86C38.62 73.68 39.56 72.74 39.56 71.14C39.56 69.54 38.6 68.66 36.9 68.66ZM47.9652 81.26C45.0252 81.26 42.9652 79.12 42.9652 76.06C42.9652 72.96 44.9852 70.82 47.8852 70.82C50.8452 70.82 52.7252 72.8 52.7252 75.88V76.62L45.2852 76.64C45.4652 78.38 46.3852 79.26 48.0052 79.26C49.3452 79.26 50.2252 78.74 50.5052 77.8H52.7652C52.3452 79.96 50.5452 81.26 47.9652 81.26ZM47.9052 72.82C46.4652 72.82 45.5852 73.6 45.3452 75.08H50.3052C50.3052 73.72 49.3652 72.82 47.9052 72.82ZM60.878 71.08V73.34H59.978C58.218 73.34 57.118 74.28 57.118 76.2V81H54.678V71.14H56.978L57.118 72.58C57.538 71.6 58.478 70.94 59.798 70.94C60.138 70.94 60.478 70.98 60.878 71.08ZM61.9402 71.12H63.3602V69.92C63.3602 67.24 64.7802 66.12 66.9202 66.12C67.3002 66.12 67.7602 66.14 68.1802 66.22V68.3H67.3202C66.0802 68.3 65.7802 68.94 65.7802 69.92V71.12H68.1402V73.16H65.7802V81H63.3602V73.16H61.9402V71.12ZM68.8245 76.04C68.8245 72.96 71.0445 70.84 74.1045 70.84C77.1645 70.84 79.3845 72.96 79.3845 76.04C79.3845 79.12 77.1645 81.24 74.1045 81.24C71.0445 81.24 68.8245 79.12 68.8245 76.04ZM71.2645 76.04C71.2645 77.84 72.4245 79.06 74.1045 79.06C75.7845 79.06 76.9445 77.84 76.9445 76.04C76.9445 74.24 75.7845 73.02 74.1045 73.02C72.4245 73.02 71.2645 74.24 71.2645 76.04ZM87.5186 71.08V73.34H86.6186C84.8586 73.34 83.7586 74.28 83.7586 76.2V81H81.3186V71.14H83.6186L83.7586 72.58C84.1786 71.6 85.1186 70.94 86.4386 70.94C86.7786 70.94 87.1186 70.98 87.5186 71.08ZM91.6102 81H89.1702V71.12H91.4102L91.6102 72.28C92.1102 71.46 93.1102 70.82 94.5302 70.82C96.0302 70.82 97.0702 71.56 97.5902 72.7C98.0902 71.56 99.2502 70.82 100.75 70.82C103.15 70.82 104.47 72.26 104.47 74.54V81H102.05V75.18C102.05 73.76 101.29 73.02 100.13 73.02C98.9502 73.02 98.0502 73.78 98.0502 75.4V81H95.6102V75.16C95.6102 73.78 94.8702 73.04 93.7102 73.04C92.5502 73.04 91.6102 73.8 91.6102 75.4V81ZM109.805 81.26C107.705 81.26 106.425 80.04 106.425 78.18C106.425 76.36 107.745 75.22 110.085 75.04L113.045 74.82V74.6C113.045 73.26 112.245 72.72 111.005 72.72C109.565 72.72 108.765 73.32 108.765 74.36H106.685C106.685 72.22 108.445 70.82 111.125 70.82C113.785 70.82 115.425 72.26 115.425 75V81H113.285L113.105 79.54C112.685 80.56 111.345 81.26 109.805 81.26ZM110.605 79.42C112.105 79.42 113.065 78.52 113.065 77V76.48L111.005 76.64C109.485 76.78 108.905 77.28 108.905 78.08C108.905 78.98 109.505 79.42 110.605 79.42ZM120.263 81H117.823V71.12H120.083L120.283 72.4C120.903 71.4 122.103 70.82 123.443 70.82C125.923 70.82 127.203 72.36 127.203 74.92V81H124.763V75.5C124.763 73.84 123.943 73.04 122.683 73.04C121.183 73.04 120.263 74.08 120.263 75.68V81ZM129.02 76.04C129.02 72.98 131.04 70.82 133.96 70.82C136.66 70.82 138.5 72.32 138.76 74.7H136.32C136.04 73.58 135.22 73 134.06 73C132.5 73 131.46 74.18 131.46 76.04C131.46 77.9 132.42 79.06 133.98 79.06C135.2 79.06 136.06 78.46 136.32 77.38H138.78C138.48 79.68 136.56 81.26 133.98 81.26C130.98 81.26 129.02 79.18 129.02 76.04ZM145.016 81.26C142.076 81.26 140.016 79.12 140.016 76.06C140.016 72.96 142.036 70.82 144.936 70.82C147.896 70.82 149.776 72.8 149.776 75.88V76.62L142.336 76.64C142.516 78.38 143.436 79.26 145.056 79.26C146.396 79.26 147.276 78.74 147.556 77.8H149.816C149.396 79.96 147.596 81.26 145.016 81.26ZM144.956 72.82C143.516 72.82 142.636 73.6 142.396 75.08H147.356C147.356 73.72 146.416 72.82 144.956 72.82Z" fill="#2C2C2C"/>
<rect x="258" y="111" width="212" height="109.5" rx="6" fill="#F0F0F0"/>
<path d="M268.59 124.236H267.463V126H266.567V120.883H268.59C269.619 120.883 270.284 121.555 270.284 122.556C270.284 123.543 269.612 124.236 268.59 124.236ZM268.415 121.681H267.463V123.438H268.401C269.017 123.438 269.346 123.109 269.346 122.549C269.346 121.989 269.01 121.681 268.415 121.681ZM271.804 126.091C271.069 126.091 270.621 125.664 270.621 125.013C270.621 124.376 271.083 123.977 271.902 123.914L272.938 123.837V123.76C272.938 123.291 272.658 123.102 272.224 123.102C271.72 123.102 271.44 123.312 271.44 123.676H270.712C270.712 122.927 271.328 122.437 272.266 122.437C273.197 122.437 273.771 122.941 273.771 123.9V126H273.022L272.959 125.489C272.812 125.846 272.343 126.091 271.804 126.091ZM272.084 125.447C272.609 125.447 272.945 125.132 272.945 124.6V124.418L272.224 124.474C271.692 124.523 271.489 124.698 271.489 124.978C271.489 125.293 271.699 125.447 272.084 125.447ZM276.78 122.528V123.319H276.465C275.849 123.319 275.464 123.648 275.464 124.32V126H274.61V122.549H275.415L275.464 123.053C275.611 122.71 275.94 122.479 276.402 122.479C276.521 122.479 276.64 122.493 276.78 122.528ZM278.671 126H277.817V123.256H277.152V122.542H277.817V121.464H278.671V122.542H279.343V123.256H278.671V126ZM280.728 126H279.874V122.542H280.665L280.735 122.99C280.952 122.64 281.372 122.437 281.841 122.437C282.709 122.437 283.157 122.976 283.157 123.872V126H282.303V124.075C282.303 123.494 282.016 123.214 281.575 123.214C281.05 123.214 280.728 123.578 280.728 124.138V126ZM285.543 126.091C284.514 126.091 283.793 125.342 283.793 124.271C283.793 123.186 284.5 122.437 285.515 122.437C286.551 122.437 287.209 123.13 287.209 124.208V124.467L284.605 124.474C284.668 125.083 284.99 125.391 285.557 125.391C286.026 125.391 286.334 125.209 286.432 124.88H287.223C287.076 125.636 286.446 126.091 285.543 126.091ZM285.522 123.137C285.018 123.137 284.71 123.41 284.626 123.928H286.362C286.362 123.452 286.033 123.137 285.522 123.137ZM290.062 122.528V123.319H289.747C289.131 123.319 288.746 123.648 288.746 124.32V126H287.892V122.549H288.697L288.746 123.053C288.893 122.71 289.222 122.479 289.684 122.479C289.803 122.479 289.922 122.493 290.062 122.528ZM290.374 124.95H291.186C291.193 125.251 291.417 125.44 291.809 125.44C292.208 125.44 292.425 125.279 292.425 125.027C292.425 124.852 292.334 124.726 292.026 124.656L291.403 124.509C290.78 124.369 290.479 124.075 290.479 123.522C290.479 122.843 291.053 122.437 291.851 122.437C292.628 122.437 293.153 122.885 293.16 123.557H292.348C292.341 123.263 292.145 123.074 291.816 123.074C291.48 123.074 291.284 123.228 291.284 123.487C291.284 123.683 291.438 123.809 291.732 123.879L292.355 124.026C292.936 124.159 293.23 124.425 293.23 124.957C293.23 125.657 292.635 126.091 291.781 126.091C290.92 126.091 290.374 125.629 290.374 124.95ZM297.916 124.236H296.789V126H295.893V120.883H297.916C298.945 120.883 299.61 121.555 299.61 122.556C299.61 123.543 298.938 124.236 297.916 124.236ZM297.741 121.681H296.789V123.438H297.727C298.343 123.438 298.672 123.109 298.672 122.549C298.672 121.989 298.336 121.681 297.741 121.681ZM301.614 126.091C300.585 126.091 299.864 125.342 299.864 124.271C299.864 123.186 300.571 122.437 301.586 122.437C302.622 122.437 303.28 123.13 303.28 124.208V124.467L300.676 124.474C300.739 125.083 301.061 125.391 301.628 125.391C302.097 125.391 302.405 125.209 302.503 124.88H303.294C303.147 125.636 302.517 126.091 301.614 126.091ZM301.593 123.137C301.089 123.137 300.781 123.41 300.697 123.928H302.433C302.433 123.452 302.104 123.137 301.593 123.137ZM306.133 122.528V123.319H305.818C305.202 123.319 304.817 123.648 304.817 124.32V126H303.963V122.549H304.768L304.817 123.053C304.964 122.71 305.293 122.479 305.755 122.479C305.874 122.479 305.993 122.493 306.133 122.528ZM306.505 122.542H307.002V122.122C307.002 121.184 307.499 120.792 308.248 120.792C308.381 120.792 308.542 120.799 308.689 120.827V121.555H308.388C307.954 121.555 307.849 121.779 307.849 122.122V122.542H308.675V123.256H307.849V126H307.002V123.256H306.505V122.542ZM308.915 124.264C308.915 123.186 309.692 122.444 310.763 122.444C311.834 122.444 312.611 123.186 312.611 124.264C312.611 125.342 311.834 126.084 310.763 126.084C309.692 126.084 308.915 125.342 308.915 124.264ZM309.769 124.264C309.769 124.894 310.175 125.321 310.763 125.321C311.351 125.321 311.757 124.894 311.757 124.264C311.757 123.634 311.351 123.207 310.763 123.207C310.175 123.207 309.769 123.634 309.769 124.264ZM315.458 122.528V123.319H315.143C314.527 123.319 314.142 123.648 314.142 124.32V126H313.288V122.549H314.093L314.142 123.053C314.289 122.71 314.618 122.479 315.08 122.479C315.199 122.479 315.318 122.493 315.458 122.528ZM316.89 126H316.036V122.542H316.82L316.89 122.948C317.065 122.661 317.415 122.437 317.912 122.437C318.437 122.437 318.801 122.696 318.983 123.095C319.158 122.696 319.564 122.437 320.089 122.437C320.929 122.437 321.391 122.941 321.391 123.739V126H320.544V123.963C320.544 123.466 320.278 123.207 319.872 123.207C319.459 123.207 319.144 123.473 319.144 124.04V126H318.29V123.956C318.29 123.473 318.031 123.214 317.625 123.214C317.219 123.214 316.89 123.48 316.89 124.04V126ZM323.258 126.091C322.523 126.091 322.075 125.664 322.075 125.013C322.075 124.376 322.537 123.977 323.356 123.914L324.392 123.837V123.76C324.392 123.291 324.112 123.102 323.678 123.102C323.174 123.102 322.894 123.312 322.894 123.676H322.166C322.166 122.927 322.782 122.437 323.72 122.437C324.651 122.437 325.225 122.941 325.225 123.9V126H324.476L324.413 125.489C324.266 125.846 323.797 126.091 323.258 126.091ZM323.538 125.447C324.063 125.447 324.399 125.132 324.399 124.6V124.418L323.678 124.474C323.146 124.523 322.943 124.698 322.943 124.978C322.943 125.293 323.153 125.447 323.538 125.447ZM326.918 126H326.064V122.542H326.855L326.925 122.99C327.142 122.64 327.562 122.437 328.031 122.437C328.899 122.437 329.347 122.976 329.347 123.872V126H328.493V124.075C328.493 123.494 328.206 123.214 327.765 123.214C327.24 123.214 326.918 123.578 326.918 124.138V126ZM329.983 124.264C329.983 123.193 330.69 122.437 331.712 122.437C332.657 122.437 333.301 122.962 333.392 123.795H332.538C332.44 123.403 332.153 123.2 331.747 123.2C331.201 123.2 330.837 123.613 330.837 124.264C330.837 124.915 331.173 125.321 331.719 125.321C332.146 125.321 332.447 125.111 332.538 124.733H333.399C333.294 125.538 332.622 126.091 331.719 126.091C330.669 126.091 329.983 125.363 329.983 124.264ZM335.582 126.091C334.553 126.091 333.832 125.342 333.832 124.271C333.832 123.186 334.539 122.437 335.554 122.437C336.59 122.437 337.248 123.13 337.248 124.208V124.467L334.644 124.474C334.707 125.083 335.029 125.391 335.596 125.391C336.065 125.391 336.373 125.209 336.471 124.88H337.262C337.115 125.636 336.485 126.091 335.582 126.091ZM335.561 123.137C335.057 123.137 334.749 123.41 334.665 123.928H336.401C336.401 123.452 336.072 123.137 335.561 123.137Z" fill="#2C2C2C"/>
<path d="M268 134L268 213" stroke="#BFBFBF" stroke-linecap="round" stroke-dasharray="4 4"/>
<path d="M460 212.5L268 212.5" stroke="#BFBFBF" stroke-linecap="round" stroke-dasharray="4 4"/>
<rect x="285.5" y="149" width="34" height="63" fill="#EDB408"/>
<rect x="326.5" y="155" width="34" height="57" fill="#EDB408"/>
<rect x="367.5" y="170" width="34" height="42" fill="#EDB408"/>
<rect x="408.5" y="173" width="34" height="39" fill="#EDB408"/>
<rect x="30" y="111" width="212" height="109.5" rx="6" fill="#F0F0F0"/>
<path d="M39.435 126H38.567V120.883H39.435L41.087 124.957L42.739 120.883H43.621V126H42.753V124.425C42.753 123.396 42.753 123.095 42.802 122.731L41.5 126H40.674L39.379 122.738C39.428 123.046 39.435 123.529 39.435 124.166V126ZM44.3265 127.603V126.889H44.8375C45.1735 126.889 45.3835 126.812 45.5305 126.406L45.6285 126.147L44.2355 122.542H45.1385L46.0275 125.062L46.9655 122.542H47.8475L46.1535 126.77C45.8945 127.414 45.5305 127.68 44.9635 127.68C44.7255 127.68 44.5155 127.652 44.3265 127.603ZM51.2133 126H50.3453V120.883H51.2133L52.8653 124.957L54.5173 120.883H55.3993V126H54.5313V124.425C54.5313 123.396 54.5313 123.095 54.5803 122.731L53.2783 126H52.4523L51.1573 122.738C51.2063 123.046 51.2133 123.529 51.2133 124.166V126ZM57.9528 126.091C56.9238 126.091 56.2028 125.342 56.2028 124.271C56.2028 123.186 56.9098 122.437 57.9248 122.437C58.9608 122.437 59.6188 123.13 59.6188 124.208V124.467L57.0148 124.474C57.0778 125.083 57.3998 125.391 57.9668 125.391C58.4358 125.391 58.7438 125.209 58.8418 124.88H59.6328C59.4858 125.636 58.8558 126.091 57.9528 126.091ZM57.9318 123.137C57.4278 123.137 57.1198 123.41 57.0358 123.928H58.7718C58.7718 123.452 58.4428 123.137 57.9318 123.137ZM61.1563 126H60.3023V122.542H61.0863L61.1563 122.948C61.3313 122.661 61.6813 122.437 62.1783 122.437C62.7033 122.437 63.0673 122.696 63.2493 123.095C63.4243 122.696 63.8303 122.437 64.3553 122.437C65.1953 122.437 65.6573 122.941 65.6573 123.739V126H64.8103V123.963C64.8103 123.466 64.5443 123.207 64.1383 123.207C63.7253 123.207 63.4103 123.473 63.4103 124.04V126H62.5563V123.956C62.5563 123.473 62.2973 123.214 61.8913 123.214C61.4853 123.214 61.1563 123.48 61.1563 124.04V126ZM67.2867 126H66.4957V120.792H67.3497V123.046C67.5737 122.661 68.0357 122.43 68.5607 122.43C69.5477 122.43 70.1497 123.2 70.1497 124.292C70.1497 125.356 69.4987 126.091 68.5047 126.091C67.9867 126.091 67.5457 125.86 67.3427 125.461L67.2867 126ZM67.3567 124.257C67.3567 124.88 67.7417 125.307 68.3297 125.307C68.9317 125.307 69.2887 124.873 69.2887 124.257C69.2887 123.641 68.9317 123.2 68.3297 123.2C67.7417 123.2 67.3567 123.634 67.3567 124.257ZM72.3767 126.091C71.3477 126.091 70.6267 125.342 70.6267 124.271C70.6267 123.186 71.3337 122.437 72.3487 122.437C73.3847 122.437 74.0427 123.13 74.0427 124.208V124.467L71.4387 124.474C71.5017 125.083 71.8237 125.391 72.3907 125.391C72.8597 125.391 73.1677 125.209 73.2657 124.88H74.0567C73.9097 125.636 73.2797 126.091 72.3767 126.091ZM72.3557 123.137C71.8517 123.137 71.5437 123.41 71.4597 123.928H73.1957C73.1957 123.452 72.8667 123.137 72.3557 123.137ZM76.8962 122.528V123.319H76.5812C75.9652 123.319 75.5802 123.648 75.5802 124.32V126H74.7262V122.549H75.5312L75.5802 123.053C75.7272 122.71 76.0562 122.479 76.5182 122.479C76.6372 122.479 76.7562 122.493 76.8962 122.528ZM77.2082 124.95H78.0202C78.0272 125.251 78.2512 125.44 78.6432 125.44C79.0422 125.44 79.2592 125.279 79.2592 125.027C79.2592 124.852 79.1682 124.726 78.8602 124.656L78.2372 124.509C77.6142 124.369 77.3132 124.075 77.3132 123.522C77.3132 122.843 77.8872 122.437 78.6852 122.437C79.4622 122.437 79.9872 122.885 79.9942 123.557H79.1822C79.1752 123.263 78.9792 123.074 78.6502 123.074C78.3142 123.074 78.1182 123.228 78.1182 123.487C78.1182 123.683 78.2722 123.809 78.5662 123.879L79.1892 124.026C79.7702 124.159 80.0642 124.425 80.0642 124.957C80.0642 125.657 79.4692 126.091 78.6152 126.091C77.7542 126.091 77.2082 125.629 77.2082 124.95ZM84.7502 124.236H83.6232V126H82.7272V120.883H84.7502C85.7792 120.883 86.4442 121.555 86.4442 122.556C86.4442 123.543 85.7722 124.236 84.7502 124.236ZM84.5752 121.681H83.6232V123.438H84.5612C85.1772 123.438 85.5062 123.109 85.5062 122.549C85.5062 121.989 85.1702 121.681 84.5752 121.681ZM87.9641 126.091C87.2291 126.091 86.7811 125.664 86.7811 125.013C86.7811 124.376 87.2431 123.977 88.0621 123.914L89.0981 123.837V123.76C89.0981 123.291 88.8181 123.102 88.3841 123.102C87.8801 123.102 87.6001 123.312 87.6001 123.676H86.8721C86.8721 122.927 87.4881 122.437 88.4261 122.437C89.3571 122.437 89.9311 122.941 89.9311 123.9V126H89.1821L89.1191 125.489C88.9721 125.846 88.5031 126.091 87.9641 126.091ZM88.2441 125.447C88.7691 125.447 89.1051 125.132 89.1051 124.6V124.418L88.3841 124.474C87.8521 124.523 87.6491 124.698 87.6491 124.978C87.6491 125.293 87.8591 125.447 88.2441 125.447ZM90.5741 124.194C90.5741 123.186 91.2321 122.43 92.2191 122.43C92.7371 122.43 93.1431 122.647 93.3461 123.018L93.3951 122.542H94.1861V125.825C94.1861 126.98 93.4931 127.701 92.3731 127.701C91.3791 127.701 90.7001 127.134 90.5951 126.21H91.4491C91.5051 126.658 91.8481 126.924 92.3731 126.924C92.9611 126.924 93.3391 126.553 93.3391 125.979V125.405C93.1221 125.727 92.6951 125.93 92.1981 125.93C91.2181 125.93 90.5741 125.195 90.5741 124.194ZM91.4351 124.173C91.4351 124.754 91.8061 125.188 92.3661 125.188C92.9541 125.188 93.3181 124.775 93.3181 124.173C93.3181 123.585 92.9611 123.179 92.3661 123.179C91.7991 123.179 91.4351 123.606 91.4351 124.173ZM96.6169 126.091C95.5879 126.091 94.8669 125.342 94.8669 124.271C94.8669 123.186 95.5739 122.437 96.5889 122.437C97.6249 122.437 98.2829 123.13 98.2829 124.208V124.467L95.6789 124.474C95.7419 125.083 96.0639 125.391 96.6309 125.391C97.0999 125.391 97.4079 125.209 97.5059 124.88H98.2969C98.1499 125.636 97.5199 126.091 96.6169 126.091ZM96.5959 123.137C96.0919 123.137 95.7839 123.41 95.6999 123.928H97.4359C97.4359 123.452 97.1069 123.137 96.5959 123.137ZM103.002 124.236H101.875V126H100.979V120.883H103.002C104.031 120.883 104.696 121.555 104.696 122.556C104.696 123.543 104.024 124.236 103.002 124.236ZM102.827 121.681H101.875V123.438H102.813C103.429 123.438 103.758 123.109 103.758 122.549C103.758 121.989 103.422 121.681 102.827 121.681ZM106.7 126.091C105.671 126.091 104.95 125.342 104.95 124.271C104.95 123.186 105.657 122.437 106.672 122.437C107.708 122.437 108.366 123.13 108.366 124.208V124.467L105.762 124.474C105.825 125.083 106.147 125.391 106.714 125.391C107.183 125.391 107.491 125.209 107.589 124.88H108.38C108.233 125.636 107.603 126.091 106.7 126.091ZM106.679 123.137C106.175 123.137 105.867 123.41 105.783 123.928H107.519C107.519 123.452 107.19 123.137 106.679 123.137ZM111.219 122.528V123.319H110.904C110.288 123.319 109.903 123.648 109.903 124.32V126H109.049V122.549H109.854L109.903 123.053C110.05 122.71 110.379 122.479 110.841 122.479C110.96 122.479 111.079 122.493 111.219 122.528ZM111.591 122.542H112.088V122.122C112.088 121.184 112.585 120.792 113.334 120.792C113.467 120.792 113.628 120.799 113.775 120.827V121.555H113.474C113.04 121.555 112.935 121.779 112.935 122.122V122.542H113.761V123.256H112.935V126H112.088V123.256H111.591V122.542ZM114.001 124.264C114.001 123.186 114.778 122.444 115.849 122.444C116.92 122.444 117.697 123.186 117.697 124.264C117.697 125.342 116.92 126.084 115.849 126.084C114.778 126.084 114.001 125.342 114.001 124.264ZM114.855 124.264C114.855 124.894 115.261 125.321 115.849 125.321C116.437 125.321 116.843 124.894 116.843 124.264C116.843 123.634 116.437 123.207 115.849 123.207C115.261 123.207 114.855 123.634 114.855 124.264ZM120.544 122.528V123.319H120.229C119.613 123.319 119.228 123.648 119.228 124.32V126H118.374V122.549H119.179L119.228 123.053C119.375 122.71 119.704 122.479 120.166 122.479C120.285 122.479 120.404 122.493 120.544 122.528ZM121.976 126H121.122V122.542H121.906L121.976 122.948C122.151 122.661 122.501 122.437 122.998 122.437C123.523 122.437 123.887 122.696 124.069 123.095C124.244 122.696 124.65 122.437 125.175 122.437C126.015 122.437 126.477 122.941 126.477 123.739V126H125.63V123.963C125.63 123.466 125.364 123.207 124.958 123.207C124.545 123.207 124.23 123.473 124.23 124.04V126H123.376V123.956C123.376 123.473 123.117 123.214 122.711 123.214C122.305 123.214 121.976 123.48 121.976 124.04V126ZM128.344 126.091C127.609 126.091 127.161 125.664 127.161 125.013C127.161 124.376 127.623 123.977 128.442 123.914L129.478 123.837V123.76C129.478 123.291 129.198 123.102 128.764 123.102C128.26 123.102 127.98 123.312 127.98 123.676H127.252C127.252 122.927 127.868 122.437 128.806 122.437C129.737 122.437 130.311 122.941 130.311 123.9V126H129.562L129.499 125.489C129.352 125.846 128.883 126.091 128.344 126.091ZM128.624 125.447C129.149 125.447 129.485 125.132 129.485 124.6V124.418L128.764 124.474C128.232 124.523 128.029 124.698 128.029 124.978C128.029 125.293 128.239 125.447 128.624 125.447ZM132.004 126H131.15V122.542H131.941L132.011 122.99C132.228 122.64 132.648 122.437 133.117 122.437C133.985 122.437 134.433 122.976 134.433 123.872V126H133.579V124.075C133.579 123.494 133.292 123.214 132.851 123.214C132.326 123.214 132.004 123.578 132.004 124.138V126ZM135.069 124.264C135.069 123.193 135.776 122.437 136.798 122.437C137.743 122.437 138.387 122.962 138.478 123.795H137.624C137.526 123.403 137.239 123.2 136.833 123.2C136.287 123.2 135.923 123.613 135.923 124.264C135.923 124.915 136.259 125.321 136.805 125.321C137.232 125.321 137.533 125.111 137.624 124.733H138.485C138.38 125.538 137.708 126.091 136.805 126.091C135.755 126.091 135.069 125.363 135.069 124.264ZM140.668 126.091C139.639 126.091 138.918 125.342 138.918 124.271C138.918 123.186 139.625 122.437 140.64 122.437C141.676 122.437 142.334 123.13 142.334 124.208V124.467L139.73 124.474C139.793 125.083 140.115 125.391 140.682 125.391C141.151 125.391 141.459 125.209 141.557 124.88H142.348C142.201 125.636 141.571 126.091 140.668 126.091ZM140.647 123.137C140.143 123.137 139.835 123.41 139.751 123.928H141.487C141.487 123.452 141.158 123.137 140.647 123.137Z" fill="#2C2C2C"/>
<path d="M40 134L40 213" stroke="#BFBFBF" stroke-linecap="round" stroke-dasharray="4 4"/>
<path d="M232 212.5L40 212.5" stroke="#BFBFBF" stroke-linecap="round" stroke-dasharray="4 4"/>
<rect x="57" y="167" width="34" height="45" fill="#EDB408"/>
<rect x="98" y="170" width="34" height="42" fill="#EDB408"/>
<rect x="139" y="149" width="34" height="63" fill="#EDB408"/>
<rect x="180" y="155" width="34" height="57" fill="#EDB408"/>
</g>
<defs>
<linearGradient id="paint0_linear_2150_12218" x1="250" y1="0" x2="250" y2="285" gradientUnits="userSpaceOnUse">
<stop stop-color="white"/>
<stop offset="1" stop-color="white" stop-opacity="0"/>
</linearGradient>
<clipPath id="clip0_2150_12218">
<rect width="500" height="285" rx="30" fill="white"/>
</clipPath>
</defs>
</svg>
