<svg width="500" height="361" viewBox="0 0 500 361" fill="none" xmlns="http://www.w3.org/2000/svg">
<g clip-path="url(#clip0_2150_12111)">
<rect width="500" height="361" rx="30" fill="url(#paint0_linear_2150_12111)"/>
<path d="M50.4191 76.371C50.0401 76.7523 49.7499 77.2125 49.569 77.7187C49.3882 78.225 49.3213 78.7649 49.373 79.3L49.355 79.282C49.4082 79.9119 49.3232 80.5457 49.1061 81.1394C48.889 81.733 48.5451 82.2721 48.0982 82.7191C47.6512 83.166 47.112 83.5101 46.5183 83.7271C45.9247 83.9442 45.2908 84.0292 44.661 83.976L44.6791 83.994C43.9257 83.9239 43.1689 84.0878 42.512 84.4635C41.8552 84.8392 41.3302 85.4083 41.0087 86.0933C40.6872 86.7783 40.5847 87.5457 40.7153 88.2911C40.846 89.0364 41.2033 89.7233 41.7386 90.2581C42.2739 90.7929 42.9611 91.1496 43.7065 91.2795C44.452 91.4095 45.2193 91.3063 45.904 90.9842C46.5887 90.662 47.1573 90.1366 47.5324 89.4794C47.9075 88.8222 48.0708 88.0654 48 87.312L48.019 87.33C47.9658 86.7002 48.0507 86.0663 48.2678 85.4726C48.4849 84.879 48.829 84.3399 49.2759 83.8929C49.7229 83.446 50.262 83.1019 50.8556 82.8849C51.4494 82.6678 52.0831 82.5828 52.713 82.636L52.694 82.618C53.3095 82.6733 53.929 82.5724 54.4951 82.3246C55.0611 82.0768 55.5554 81.6901 55.9322 81.2004C56.309 80.7107 56.5562 80.1337 56.6507 79.5231C56.7451 78.9124 56.684 78.2878 56.4727 77.707C56.2615 77.1263 55.9071 76.6083 55.4424 76.201C54.9777 75.7937 54.4178 75.5103 53.8144 75.3771C53.2109 75.2439 52.5837 75.2651 51.9907 75.4388C51.3976 75.6126 50.8582 75.9332 50.4221 76.371H50.4191Z" fill="#394149"/>
<path d="M43.042 81.636L43.023 81.618C43.5583 81.6719 44.0989 81.6062 44.6058 81.4256C45.1126 81.245 45.573 80.9541 45.9536 80.5738C46.3341 80.1935 46.6255 79.7333 46.8064 79.2266C46.9874 78.7199 47.0535 78.1794 47 77.644L47.019 77.662C46.9658 77.0321 47.0508 76.3983 47.2678 75.8046C47.4849 75.211 47.829 74.6719 48.2759 74.2249C48.7229 73.778 49.262 73.4339 49.8556 73.2169C50.4493 72.9998 51.0831 72.9148 51.713 72.968L51.694 72.95C52.4475 73.0208 53.2044 72.8574 53.8616 72.4821C54.5189 72.1068 55.0443 71.538 55.3663 70.8531C55.6883 70.1682 55.7912 69.4007 55.661 68.6552C55.5308 67.9097 55.1738 67.2225 54.6386 66.6874C54.1035 66.1522 53.4163 65.7952 52.6708 65.665C51.9253 65.5347 51.1578 65.6377 50.4729 65.9597C49.788 66.2817 49.2192 66.8071 48.8439 67.4643C48.4686 68.1215 48.3052 68.8785 48.376 69.632L48.358 69.613C48.4113 70.2429 48.3265 70.8768 48.1095 71.4705C47.8925 72.0643 47.5484 72.6035 47.1015 73.0505C46.6545 73.4974 46.1153 73.8415 45.5216 74.0585C44.9278 74.2755 44.2939 74.3603 43.664 74.307L43.682 74.326C43.1467 74.2721 42.606 74.3378 42.0992 74.5184C41.5924 74.6989 41.132 74.9899 40.7514 75.3702C40.3708 75.7505 40.0795 76.2107 39.8985 76.7174C39.7176 77.2241 39.6515 77.7646 39.705 78.3L39.687 78.282C39.74 78.9118 39.6549 79.5456 39.4378 80.1392C39.2206 80.7327 38.8766 81.2718 38.4297 81.7187C37.9828 82.1656 37.4438 82.5096 36.8502 82.7268C36.2566 82.9439 35.6228 83.029 34.993 82.976L35.011 82.994C34.2576 82.9232 33.5006 83.0866 32.8434 83.4619C32.1862 83.8372 31.6607 84.406 31.3387 85.0909C31.0167 85.7758 30.9138 86.5433 31.044 87.2888C31.1742 88.0343 31.5313 88.7215 32.0664 89.2566C32.6015 89.7918 33.2887 90.1488 34.0342 90.279C34.7797 90.4092 35.5473 90.3063 36.2321 89.9843C36.917 89.6623 37.4859 89.1369 37.8611 88.4797C38.2364 87.8224 38.3998 87.0655 38.329 86.312L38.348 86.33C38.2948 85.7001 38.3798 85.0663 38.5969 84.4726C38.8139 83.879 39.158 83.3399 39.6049 82.8929C40.0519 82.446 40.591 82.1019 41.1846 81.8849C41.7783 81.6678 42.4121 81.5828 43.042 81.636Z" fill="#394149"/>
<path d="M36.34 79.629C36.719 79.2478 37.0092 78.7876 37.1898 78.2813C37.3704 77.775 37.4371 77.235 37.385 76.7L37.404 76.718C37.3508 76.088 37.4357 75.4539 37.6529 74.8601C37.8701 74.2663 38.2144 73.7271 38.6616 73.2801C39.1088 72.8331 39.6481 72.4891 40.242 72.2722C40.8359 72.0552 41.47 71.9705 42.1 72.024L42.081 72.006C42.8342 72.0766 43.5909 71.9131 44.2478 71.5378C44.9047 71.1626 45.4298 70.5939 45.7517 69.9092C46.0735 69.2246 46.1763 68.4573 46.0461 67.7121C45.9159 66.9669 45.5589 66.2799 45.024 65.745C44.4891 65.2101 43.8021 64.8531 43.0569 64.7229C42.3117 64.5927 41.5444 64.6955 40.8598 65.0173C40.1751 65.3392 39.6064 65.8643 39.2312 66.5212C38.8559 67.1781 38.6924 67.9348 38.763 68.688L38.745 68.67C38.7982 69.2999 38.7132 69.9337 38.4961 70.5274C38.279 71.121 37.935 71.6601 37.488 72.1071C37.0411 72.554 36.502 72.8981 35.9083 73.1151C35.3147 73.3322 34.6808 73.4172 34.051 73.364L34.069 73.382C33.4535 73.3268 32.8341 73.4279 32.2681 73.6758C31.7022 73.9237 31.2079 74.3105 30.8312 74.8003C30.4545 75.29 30.2075 75.867 30.1131 76.4776C30.0188 77.0883 30.0801 77.7129 30.2913 78.2935C30.5026 78.8742 30.857 79.3921 31.3218 79.7993C31.7865 80.2066 32.3465 80.4899 32.9499 80.6231C33.5532 80.7562 34.1805 80.7349 34.7734 80.5612C35.3664 80.3874 35.9059 80.0668 36.342 79.629H36.34Z" fill="#394149"/>
<path d="M67.317 69.655H70.287V84.108H67.317V69.655Z" fill="#394149"/>
<path d="M71.969 79.159C71.9649 78.1204 72.2691 77.1038 72.8431 76.2382C73.4171 75.3726 74.2351 74.6968 75.1935 74.2965C76.1519 73.8961 77.2075 73.7892 78.2267 73.9893C79.2459 74.1894 80.1828 74.6874 80.9187 75.4204C81.6546 76.1533 82.1564 77.0882 82.3606 78.1066C82.5648 79.125 82.4621 80.1811 82.0656 81.1411C81.6691 82.101 80.9966 82.9218 80.1333 83.4992C79.2699 84.0767 78.2547 84.385 77.216 84.385C76.5266 84.3929 75.8425 84.2632 75.2037 84.0036C74.5649 83.744 73.9843 83.3597 73.4958 82.8732C73.0072 82.3866 72.6206 81.8075 72.3585 81.1698C72.0963 80.5321 71.9639 79.8485 71.969 79.159ZM79.493 79.159C79.4806 78.7113 79.3365 78.2772 79.0788 77.9109C78.821 77.5447 78.461 77.2625 78.0438 77.0998C77.6265 76.937 77.1706 76.9008 76.7329 76.9958C76.2952 77.0908 75.8952 77.3126 75.5829 77.6337C75.2707 77.9547 75.0599 78.3607 74.9772 78.8009C74.8944 79.241 74.9431 79.6958 75.1174 80.1084C75.2917 80.521 75.5837 80.873 75.9569 81.1205C76.3302 81.368 76.7682 81.5 77.216 81.5C77.5227 81.5082 77.8278 81.4527 78.1121 81.3371C78.3963 81.2215 78.6535 81.0483 78.8674 80.8284C79.0813 80.6084 79.2474 80.3465 79.355 80.0592C79.4627 79.7719 79.5097 79.4654 79.493 79.159Z" fill="#394149"/>
<path d="M94.3 74.209V83.609C94.3 86.935 91.706 88.341 89.073 88.341C88.146 88.4104 87.2177 88.2231 86.39 87.7998C85.5624 87.3764 84.8673 86.7333 84.381 85.941L86.915 84.476C87.1194 84.889 87.4451 85.2297 87.8484 85.4526C88.2518 85.6754 88.7136 85.7698 89.172 85.723C89.465 85.7636 89.7634 85.7378 90.0451 85.6475C90.3267 85.5572 90.5845 85.4047 90.7993 85.2014C91.0141 84.998 91.1804 84.749 91.286 84.4726C91.3915 84.1963 91.4335 83.8998 91.409 83.605V82.7C91.0612 83.1255 90.6186 83.4636 90.1165 83.6871C89.6144 83.9106 89.067 84.0133 88.518 83.987C87.2118 83.9458 85.9729 83.398 85.0635 82.4594C84.1541 81.5209 83.6456 80.2653 83.6456 78.9585C83.6456 77.6517 84.1541 76.3961 85.0635 75.4576C85.9729 74.519 87.2118 73.9712 88.518 73.93C89.067 73.9037 89.6144 74.0064 90.1165 74.2299C90.6186 74.4534 91.0612 74.7915 91.409 75.217V74.207L94.3 74.209ZM91.41 78.96C91.43 78.4814 91.3062 78.0077 91.0547 77.6C90.8032 77.1922 90.4354 76.8691 89.9987 76.6722C89.562 76.4752 89.0764 76.4135 88.6043 76.4949C88.1322 76.5763 87.6953 76.7971 87.3497 77.129C87.0042 77.4608 86.7659 77.8884 86.6654 78.3568C86.565 78.8252 86.607 79.313 86.7862 79.7573C86.9653 80.2016 87.2733 80.5822 87.6705 80.85C88.0677 81.1178 88.536 81.2606 89.015 81.26C89.3271 81.2818 89.6402 81.238 89.9343 81.1314C90.2284 81.0248 90.4969 80.8577 90.7225 80.6411C90.9481 80.4244 91.1259 80.1629 91.2443 79.8733C91.3627 79.5838 91.4192 79.2727 91.41 78.96Z" fill="#394149"/>
<path d="M95.982 79.159C95.9779 78.1204 96.282 77.1038 96.8561 76.2382C97.4301 75.3726 98.248 74.6968 99.2064 74.2965C100.165 73.8961 101.22 73.7892 102.24 73.9893C103.259 74.1894 104.196 74.6874 104.932 75.4204C105.668 76.1533 106.169 77.0882 106.374 78.1066C106.578 79.125 106.475 80.1811 106.079 81.1411C105.682 82.101 105.01 82.9218 104.146 83.4992C103.283 84.0767 102.268 84.385 101.229 84.385C100.54 84.3929 99.8553 84.2632 99.2166 84.0036C98.5778 83.744 97.9972 83.3597 97.5087 82.8732C97.0201 82.3866 96.6335 81.8075 96.3714 81.1698C96.1092 80.5321 95.9769 79.8485 95.982 79.159ZM103.506 79.159C103.494 78.7113 103.349 78.2772 103.092 77.9109C102.834 77.5447 102.474 77.2625 102.057 77.0998C101.639 76.937 101.183 76.9008 100.746 76.9958C100.308 77.0908 99.9082 77.3126 99.5959 77.6337C99.2837 77.9547 99.0728 78.3607 98.99 78.8009C98.9072 79.241 98.9561 79.6958 99.1304 80.1084C99.3047 80.521 99.5967 80.873 99.9699 81.1205C100.343 81.368 100.781 81.5 101.229 81.5C101.536 81.5082 101.841 81.4527 102.125 81.3371C102.409 81.2215 102.666 81.0483 102.88 80.8284C103.094 80.6084 103.26 80.3465 103.368 80.0592C103.476 79.7719 103.523 79.4654 103.506 79.159Z" fill="#394149"/>
<path d="M107.861 71.556C107.861 71.2035 107.965 70.859 108.161 70.566C108.357 70.2729 108.635 70.0445 108.961 69.9096C109.287 69.7748 109.645 69.7395 109.991 69.8082C110.336 69.877 110.654 70.0467 110.903 70.2959C111.152 70.5451 111.322 70.8627 111.391 71.2083C111.459 71.554 111.424 71.9123 111.289 72.2379C111.154 72.5635 110.926 72.8419 110.633 73.0377C110.34 73.2335 109.995 73.338 109.643 73.338C109.172 73.3333 108.721 73.1441 108.388 72.8109C108.055 72.4777 107.866 72.0271 107.861 71.556ZM108.161 74.209H111.132V84.109H108.157L108.161 74.209Z" fill="#394149"/>
<path d="M123.956 79.159C123.99 79.8133 123.895 80.4679 123.675 81.0852C123.456 81.7025 123.117 82.2703 122.677 82.756C122.237 83.2416 121.706 83.6356 121.113 83.9152C120.52 84.1947 119.879 84.3544 119.224 84.385C118.674 84.415 118.124 84.3222 117.613 84.1133C117.103 83.9043 116.646 83.5845 116.275 83.177V88.068H113.305V74.209H116.275V75.139C116.646 74.7318 117.104 74.4122 117.614 74.2035C118.124 73.9947 118.674 73.902 119.224 73.932C119.879 73.9625 120.521 74.1221 121.113 74.4017C121.706 74.6813 122.238 75.0753 122.677 75.5611C123.117 76.0469 123.457 76.6149 123.676 77.2324C123.895 77.8498 123.991 78.5046 123.956 79.159ZM120.986 79.159C120.974 78.6957 120.826 78.2461 120.561 77.8664C120.295 77.4868 119.923 77.194 119.491 77.0248C119.06 76.8555 118.588 76.8172 118.135 76.9148C117.682 77.0123 117.268 77.2413 116.944 77.5731C116.62 77.905 116.402 78.3248 116.316 78.7803C116.23 79.2357 116.28 79.7063 116.46 80.1334C116.64 80.5605 116.942 80.9249 117.328 81.1812C117.714 81.4374 118.168 81.5741 118.631 81.574C118.949 81.5882 119.267 81.5349 119.563 81.4177C119.859 81.3006 120.127 81.1221 120.35 80.8941C120.572 80.666 120.744 80.3936 120.853 80.0946C120.963 79.7956 121.008 79.4767 120.986 79.159Z" fill="#394149"/>
<path d="M133.121 81.138C133.121 83.415 131.142 84.385 129.004 84.385C128.14 84.4632 127.273 84.2806 126.514 83.8605C125.755 83.4405 125.139 82.8025 124.747 82.029L127.32 80.564C127.424 80.9215 127.648 81.2326 127.953 81.4451C128.259 81.6577 128.629 81.759 129 81.732C129.712 81.732 130.069 81.514 130.069 81.119C130.069 80.029 125.198 80.604 125.198 77.179C125.198 75.02 127.02 73.932 129.079 73.932C129.853 73.9075 130.619 74.0911 131.298 74.4636C131.977 74.8362 132.544 75.384 132.939 76.05L130.405 77.416C130.294 77.1567 130.109 76.9358 129.873 76.7809C129.637 76.626 129.361 76.544 129.079 76.545C128.564 76.545 128.247 76.745 128.247 77.099C128.251 78.228 133.121 77.475 133.121 81.138Z" fill="#394149"/>
<path d="M143.97 74.209V84.109H141V83.178C140.657 83.5888 140.222 83.9125 139.73 84.1225C139.238 84.3325 138.704 84.4228 138.17 84.386C136.17 84.386 134.47 82.961 134.47 80.286V74.209H137.44V79.851C137.415 80.0868 137.442 80.3252 137.519 80.5495C137.595 80.7739 137.72 80.9789 137.884 81.1502C138.048 81.3215 138.247 81.455 138.468 81.5415C138.688 81.628 138.925 81.6654 139.162 81.651C140.251 81.651 141.003 81.018 141.003 79.612V74.212L143.97 74.209Z" fill="#394149"/>
<path d="M161 78.03V84.108H158.03V78.287C158.03 77.297 157.555 76.664 156.605 76.664C155.615 76.664 155.06 77.357 155.06 78.525V84.108H152.091V78.287C152.091 77.297 151.616 76.664 150.665 76.664C149.675 76.664 149.121 77.357 149.121 78.525V84.108H146.151V74.208H149.121V75.118C149.429 74.7143 149.833 74.3941 150.296 74.1868C150.76 73.9794 151.268 73.8915 151.774 73.931C152.282 73.9061 152.788 74.0134 153.243 74.2423C153.697 74.4711 154.084 74.8139 154.367 75.237C154.696 74.7943 155.132 74.4423 155.634 74.2139C156.136 73.9855 156.688 73.8882 157.238 73.931C159.511 73.932 161 75.555 161 78.03Z" fill="#394149"/>
<path d="M163.512 74.148C164.729 74.148 165.716 73.1612 165.716 71.944C165.716 70.7268 164.729 69.74 163.512 69.74C162.295 69.74 161.308 70.7268 161.308 71.944C161.308 73.1612 162.295 74.148 163.512 74.148Z" fill="#394149"/>
<rect x="-1" width="500" height="35" fill="#746666"/>
<rect x="30" y="121" width="138.667" height="70" rx="6" fill="#D9D9D9"/>
<rect x="30" y="203" width="114" height="10" rx="5" fill="#D9D9D9"/>
<rect x="181" y="203" width="114" height="10" rx="5" fill="#D9D9D9"/>
<rect x="331" y="203" width="114" height="10" rx="5" fill="#D9D9D9"/>
<rect x="31" y="223" width="95" height="10" rx="5" fill="#D9D9D9"/>
<rect x="182" y="223" width="95" height="10" rx="5" fill="#D9D9D9"/>
<rect x="332" y="223" width="95" height="10" rx="5" fill="#D9D9D9"/>
<rect x="180.667" y="121" width="138.667" height="70" rx="6" fill="#D9D9D9"/>
<rect x="331.333" y="121" width="138.667" height="70" rx="6" fill="#D9D9D9"/>
<rect x="31" y="253" width="101" height="31" rx="4" fill="#746666"/>
<path d="M41.546 266.622C41.546 264.83 43.03 263.584 45.186 263.584C47.258 263.584 48.574 264.732 48.63 266.58H46.838C46.796 265.698 46.166 265.18 45.158 265.18C44.052 265.18 43.338 265.712 43.338 266.566C43.338 267.294 43.73 267.7 44.584 267.896L46.194 268.246C47.944 268.624 48.798 269.52 48.798 271.046C48.798 272.95 47.314 274.182 45.06 274.182C42.876 274.182 41.448 273.02 41.406 271.186H43.198C43.212 272.054 43.912 272.572 45.06 272.572C46.25 272.572 47.006 272.054 47.006 271.2C47.006 270.514 46.656 270.108 45.816 269.926L44.192 269.562C42.456 269.184 41.546 268.19 41.546 266.622ZM52.2252 274.182C50.7552 274.182 49.8592 273.328 49.8592 272.026C49.8592 270.752 50.7832 269.954 52.4212 269.828L54.4932 269.674V269.52C54.4932 268.582 53.9332 268.204 53.0652 268.204C52.0572 268.204 51.4972 268.624 51.4972 269.352H50.0412C50.0412 267.854 51.2732 266.874 53.1492 266.874C55.0112 266.874 56.1592 267.882 56.1592 269.8V274H54.6612L54.5352 272.978C54.2412 273.692 53.3032 274.182 52.2252 274.182ZM52.7852 272.894C53.8352 272.894 54.5072 272.264 54.5072 271.2V270.836L53.0652 270.948C52.0012 271.046 51.5952 271.396 51.5952 271.956C51.5952 272.586 52.0152 272.894 52.7852 272.894ZM59.5236 274L56.7796 267.084H58.5996L59.8036 270.262C60.0976 271.088 60.3356 271.802 60.4196 272.18C60.5176 271.746 60.7696 271.018 61.0636 270.262L62.3236 267.084H64.0876L61.2036 274H59.5236ZM67.8217 274.182C65.7637 274.182 64.3217 272.684 64.3217 270.542C64.3217 268.372 65.7357 266.874 67.7657 266.874C69.8377 266.874 71.1537 268.26 71.1537 270.416V270.934L65.9457 270.948C66.0717 272.166 66.7157 272.782 67.8497 272.782C68.7877 272.782 69.4037 272.418 69.5997 271.76H71.1817C70.8877 273.272 69.6277 274.182 67.8217 274.182ZM67.7797 268.274C66.7717 268.274 66.1557 268.82 65.9877 269.856H69.4597C69.4597 268.904 68.8017 268.274 67.7797 268.274ZM76.5461 274V263.766H80.6201C82.6361 263.766 83.8681 264.816 83.8681 266.524C83.8681 267.658 83.3641 268.47 82.3981 268.876C83.4761 269.226 84.0221 270.038 84.0221 271.228C84.0221 272.978 82.8041 274 80.6901 274H76.5461ZM80.4661 265.348H78.3381V268.134H80.5081C81.4881 268.134 82.0341 267.616 82.0341 266.706C82.0341 265.824 81.4741 265.348 80.4661 265.348ZM80.6201 269.646H78.3381V272.418H80.6201C81.6281 272.418 82.1881 271.928 82.1881 271.004C82.1881 270.136 81.6141 269.646 80.6201 269.646ZM88.5073 274.182C86.4493 274.182 85.0073 272.684 85.0073 270.542C85.0073 268.372 86.4213 266.874 88.4513 266.874C90.5233 266.874 91.8393 268.26 91.8393 270.416V270.934L86.6313 270.948C86.7573 272.166 87.4013 272.782 88.5353 272.782C89.4733 272.782 90.0893 272.418 90.2853 271.76H91.8673C91.5733 273.272 90.3133 274.182 88.5073 274.182ZM88.4653 268.274C87.4573 268.274 86.8413 268.82 86.6733 269.856H90.1453C90.1453 268.904 89.4873 268.274 88.4653 268.274ZM94.9142 274H93.2062V267.084H94.7882L94.9282 267.98C95.3622 267.28 96.2022 266.874 97.1402 266.874C98.8762 266.874 99.7722 267.952 99.7722 269.744V274H98.0642V270.15C98.0642 268.988 97.4902 268.428 96.6082 268.428C95.5582 268.428 94.9142 269.156 94.9142 270.276V274ZM104.544 274.182C102.486 274.182 101.044 272.684 101.044 270.542C101.044 268.372 102.458 266.874 104.488 266.874C106.56 266.874 107.876 268.26 107.876 270.416V270.934L102.668 270.948C102.794 272.166 103.438 272.782 104.572 272.782C105.51 272.782 106.126 272.418 106.322 271.76H107.904C107.61 273.272 106.35 274.182 104.544 274.182ZM104.502 268.274C103.494 268.274 102.878 268.82 102.71 269.856H106.182C106.182 268.904 105.524 268.274 104.502 268.274ZM114.073 274V268.512H111.245V274H109.551V268.512H108.557V267.084H109.551V266.244C109.551 264.368 110.531 263.584 111.931 263.584C112.197 263.584 112.519 263.598 112.813 263.654V265.11H112.211C111.441 265.11 111.245 265.558 111.245 266.244V267.084H115.781V274H114.073ZM114.927 265.67C114.353 265.67 113.905 265.222 113.905 264.648C113.905 264.088 114.353 263.64 114.927 263.64C115.487 263.64 115.935 264.088 115.935 264.648C115.935 265.222 115.487 265.67 114.927 265.67ZM119.894 274H118.186V268.512H116.856V267.084H118.186V264.928H119.894V267.084H121.238V268.512H119.894V274Z" fill="white"/>
<rect x="181" y="253" width="101" height="31" rx="4" fill="#746666"/>
<path d="M191.546 266.622C191.546 264.83 193.03 263.584 195.186 263.584C197.258 263.584 198.574 264.732 198.63 266.58H196.838C196.796 265.698 196.166 265.18 195.158 265.18C194.052 265.18 193.338 265.712 193.338 266.566C193.338 267.294 193.73 267.7 194.584 267.896L196.194 268.246C197.944 268.624 198.798 269.52 198.798 271.046C198.798 272.95 197.314 274.182 195.06 274.182C192.876 274.182 191.448 273.02 191.406 271.186H193.198C193.212 272.054 193.912 272.572 195.06 272.572C196.25 272.572 197.006 272.054 197.006 271.2C197.006 270.514 196.656 270.108 195.816 269.926L194.192 269.562C192.456 269.184 191.546 268.19 191.546 266.622ZM202.225 274.182C200.755 274.182 199.859 273.328 199.859 272.026C199.859 270.752 200.783 269.954 202.421 269.828L204.493 269.674V269.52C204.493 268.582 203.933 268.204 203.065 268.204C202.057 268.204 201.497 268.624 201.497 269.352H200.041C200.041 267.854 201.273 266.874 203.149 266.874C205.011 266.874 206.159 267.882 206.159 269.8V274H204.661L204.535 272.978C204.241 273.692 203.303 274.182 202.225 274.182ZM202.785 272.894C203.835 272.894 204.507 272.264 204.507 271.2V270.836L203.065 270.948C202.001 271.046 201.595 271.396 201.595 271.956C201.595 272.586 202.015 272.894 202.785 272.894ZM209.524 274L206.78 267.084H208.6L209.804 270.262C210.098 271.088 210.336 271.802 210.42 272.18C210.518 271.746 210.77 271.018 211.064 270.262L212.324 267.084H214.088L211.204 274H209.524ZM217.822 274.182C215.764 274.182 214.322 272.684 214.322 270.542C214.322 268.372 215.736 266.874 217.766 266.874C219.838 266.874 221.154 268.26 221.154 270.416V270.934L215.946 270.948C216.072 272.166 216.716 272.782 217.85 272.782C218.788 272.782 219.404 272.418 219.6 271.76H221.182C220.888 273.272 219.628 274.182 217.822 274.182ZM217.78 268.274C216.772 268.274 216.156 268.82 215.988 269.856H219.46C219.46 268.904 218.802 268.274 217.78 268.274ZM226.546 274V263.766H230.62C232.636 263.766 233.868 264.816 233.868 266.524C233.868 267.658 233.364 268.47 232.398 268.876C233.476 269.226 234.022 270.038 234.022 271.228C234.022 272.978 232.804 274 230.69 274H226.546ZM230.466 265.348H228.338V268.134H230.508C231.488 268.134 232.034 267.616 232.034 266.706C232.034 265.824 231.474 265.348 230.466 265.348ZM230.62 269.646H228.338V272.418H230.62C231.628 272.418 232.188 271.928 232.188 271.004C232.188 270.136 231.614 269.646 230.62 269.646ZM238.507 274.182C236.449 274.182 235.007 272.684 235.007 270.542C235.007 268.372 236.421 266.874 238.451 266.874C240.523 266.874 241.839 268.26 241.839 270.416V270.934L236.631 270.948C236.757 272.166 237.401 272.782 238.535 272.782C239.473 272.782 240.089 272.418 240.285 271.76H241.867C241.573 273.272 240.313 274.182 238.507 274.182ZM238.465 268.274C237.457 268.274 236.841 268.82 236.673 269.856H240.145C240.145 268.904 239.487 268.274 238.465 268.274ZM244.914 274H243.206V267.084H244.788L244.928 267.98C245.362 267.28 246.202 266.874 247.14 266.874C248.876 266.874 249.772 267.952 249.772 269.744V274H248.064V270.15C248.064 268.988 247.49 268.428 246.608 268.428C245.558 268.428 244.914 269.156 244.914 270.276V274ZM254.544 274.182C252.486 274.182 251.044 272.684 251.044 270.542C251.044 268.372 252.458 266.874 254.488 266.874C256.56 266.874 257.876 268.26 257.876 270.416V270.934L252.668 270.948C252.794 272.166 253.438 272.782 254.572 272.782C255.51 272.782 256.126 272.418 256.322 271.76H257.904C257.61 273.272 256.35 274.182 254.544 274.182ZM254.502 268.274C253.494 268.274 252.878 268.82 252.71 269.856H256.182C256.182 268.904 255.524 268.274 254.502 268.274ZM264.073 274V268.512H261.245V274H259.551V268.512H258.557V267.084H259.551V266.244C259.551 264.368 260.531 263.584 261.931 263.584C262.197 263.584 262.519 263.598 262.813 263.654V265.11H262.211C261.441 265.11 261.245 265.558 261.245 266.244V267.084H265.781V274H264.073ZM264.927 265.67C264.353 265.67 263.905 265.222 263.905 264.648C263.905 264.088 264.353 263.64 264.927 263.64C265.487 263.64 265.935 264.088 265.935 264.648C265.935 265.222 265.487 265.67 264.927 265.67ZM269.894 274H268.186V268.512H266.856V267.084H268.186V264.928H269.894V267.084H271.238V268.512H269.894V274Z" fill="white"/>
<rect x="331.5" y="253.5" width="109" height="30" rx="3.5" stroke="#746666"/>
<path d="M342.134 274V263.766H346.208C348.224 263.766 349.456 264.816 349.456 266.524C349.456 267.658 348.952 268.47 347.986 268.876C349.064 269.226 349.61 270.038 349.61 271.228C349.61 272.978 348.392 274 346.278 274H342.134ZM346.054 265.348H343.926V268.134H346.096C347.076 268.134 347.622 267.616 347.622 266.706C347.622 265.824 347.062 265.348 346.054 265.348ZM346.208 269.646H343.926V272.418H346.208C347.216 272.418 347.776 271.928 347.776 271.004C347.776 270.136 347.202 269.646 346.208 269.646ZM354.095 274.182C352.037 274.182 350.595 272.684 350.595 270.542C350.595 268.372 352.009 266.874 354.039 266.874C356.111 266.874 357.427 268.26 357.427 270.416V270.934L352.219 270.948C352.345 272.166 352.989 272.782 354.123 272.782C355.061 272.782 355.677 272.418 355.873 271.76H357.455C357.161 273.272 355.901 274.182 354.095 274.182ZM354.053 268.274C353.045 268.274 352.429 268.82 352.261 269.856H355.733C355.733 268.904 355.075 268.274 354.053 268.274ZM360.502 274H358.794V267.084H360.376L360.516 267.98C360.95 267.28 361.79 266.874 362.728 266.874C364.464 266.874 365.36 267.952 365.36 269.744V274H363.652V270.15C363.652 268.988 363.078 268.428 362.196 268.428C361.146 268.428 360.502 269.156 360.502 270.276V274ZM370.132 274.182C368.074 274.182 366.632 272.684 366.632 270.542C366.632 268.372 368.046 266.874 370.076 266.874C372.148 266.874 373.464 268.26 373.464 270.416V270.934L368.256 270.948C368.382 272.166 369.026 272.782 370.16 272.782C371.098 272.782 371.714 272.418 371.91 271.76H373.492C373.198 273.272 371.938 274.182 370.132 274.182ZM370.09 268.274C369.082 268.274 368.466 268.82 368.298 269.856H371.77C371.77 268.904 371.112 268.274 370.09 268.274ZM379.661 274V268.512H376.833V274H375.139V268.512H374.145V267.084H375.139V266.244C375.139 264.368 376.119 263.584 377.519 263.584C377.785 263.584 378.107 263.598 378.401 263.654V265.11H377.799C377.029 265.11 376.833 265.558 376.833 266.244V267.084H381.369V274H379.661ZM380.515 265.67C379.941 265.67 379.493 265.222 379.493 264.648C379.493 264.088 379.941 263.64 380.515 263.64C381.075 263.64 381.523 264.088 381.523 264.648C381.523 265.222 381.075 265.67 380.515 265.67ZM385.482 274H383.774V268.512H382.444V267.084H383.774V264.928H385.482V267.084H386.826V268.512H385.482V274ZM391.325 266.622C391.325 264.83 392.809 263.584 394.965 263.584C397.037 263.584 398.353 264.732 398.409 266.58H396.617C396.575 265.698 395.945 265.18 394.937 265.18C393.831 265.18 393.117 265.712 393.117 266.566C393.117 267.294 393.509 267.7 394.363 267.896L395.973 268.246C397.723 268.624 398.577 269.52 398.577 271.046C398.577 272.95 397.093 274.182 394.839 274.182C392.655 274.182 391.227 273.02 391.185 271.186H392.977C392.991 272.054 393.691 272.572 394.839 272.572C396.029 272.572 396.785 272.054 396.785 271.2C396.785 270.514 396.435 270.108 395.595 269.926L393.971 269.562C392.235 269.184 391.325 268.19 391.325 266.622ZM402.004 274.182C400.534 274.182 399.638 273.328 399.638 272.026C399.638 270.752 400.562 269.954 402.2 269.828L404.272 269.674V269.52C404.272 268.582 403.712 268.204 402.844 268.204C401.836 268.204 401.276 268.624 401.276 269.352H399.82C399.82 267.854 401.052 266.874 402.928 266.874C404.79 266.874 405.938 267.882 405.938 269.8V274H404.44L404.314 272.978C404.02 273.692 403.082 274.182 402.004 274.182ZM402.564 272.894C403.614 272.894 404.286 272.264 404.286 271.2V270.836L402.844 270.948C401.78 271.046 401.374 271.396 401.374 271.956C401.374 272.586 401.794 272.894 402.564 272.894ZM409.303 274L406.559 267.084H408.379L409.583 270.262C409.877 271.088 410.115 271.802 410.199 272.18C410.297 271.746 410.549 271.018 410.843 270.262L412.103 267.084H413.867L410.983 274H409.303ZM417.601 274.182C415.543 274.182 414.101 272.684 414.101 270.542C414.101 268.372 415.515 266.874 417.545 266.874C419.617 266.874 420.933 268.26 420.933 270.416V270.934L415.725 270.948C415.851 272.166 416.495 272.782 417.629 272.782C418.567 272.782 419.183 272.418 419.379 271.76H420.961C420.667 273.272 419.407 274.182 417.601 274.182ZM417.559 268.274C416.551 268.274 415.935 268.82 415.767 269.856H419.239C419.239 268.904 418.581 268.274 417.559 268.274ZM425.142 274.182C423.14 274.182 421.894 272.712 421.894 270.57C421.894 268.414 423.154 266.874 425.24 266.874C426.206 266.874 427.06 267.28 427.494 267.966V263.584H429.188V274H427.62L427.508 272.922C427.088 273.72 426.192 274.182 425.142 274.182ZM425.52 272.614C426.71 272.614 427.48 271.76 427.48 270.514C427.48 269.268 426.71 268.4 425.52 268.4C424.33 268.4 423.602 269.282 423.602 270.514C423.602 271.746 424.33 272.614 425.52 272.614Z" fill="#746666"/>
</g>
<defs>
<linearGradient id="paint0_linear_2150_12111" x1="250" y1="0" x2="250" y2="361" gradientUnits="userSpaceOnUse">
<stop stop-color="white"/>
<stop offset="1" stop-color="white" stop-opacity="0"/>
</linearGradient>
<clipPath id="clip0_2150_12111">
<rect width="500" height="361" rx="30" fill="white"/>
</clipPath>
</defs>
</svg>
