<svg width="500" height="361" viewBox="0 0 500 361" fill="none" xmlns="http://www.w3.org/2000/svg">
<g clip-path="url(#clip0_2150_12258)">
<rect width="500" height="361" rx="30" fill="url(#paint0_linear_2150_12258)"/>
<rect x="-1" width="500" height="35" fill="#EDB408"/>
<path d="M37.8 81.24C33.54 81.24 30.78 78.28 30.78 73.7C30.78 69.16 33.64 66.14 37.92 66.14C41.38 66.14 43.96 68.16 44.46 71.3H41.76C41.26 69.6 39.8 68.6 37.86 68.6C35.16 68.6 33.46 70.56 33.46 73.68C33.46 76.78 35.18 78.78 37.86 78.78C39.84 78.78 41.36 77.74 41.84 76.12H44.5C43.94 79.2 41.26 81.24 37.8 81.24ZM53.1358 71.12H55.5758V81H53.3158L53.1358 79.68C52.5358 80.62 51.2558 81.26 49.9358 81.26C47.6558 81.26 46.3158 79.72 46.3158 77.3V71.12H48.7558V76.44C48.7558 78.32 49.4958 79.08 50.8558 79.08C52.3958 79.08 53.1358 78.18 53.1358 76.3V71.12ZM57.1406 78H59.4606C59.4806 78.86 60.1206 79.4 61.2406 79.4C62.3806 79.4 63.0006 78.94 63.0006 78.22C63.0006 77.72 62.7406 77.36 61.8606 77.16L60.0806 76.74C58.3006 76.34 57.4406 75.5 57.4406 73.92C57.4406 71.98 59.0806 70.82 61.3606 70.82C63.5806 70.82 65.0806 72.1 65.1006 74.02H62.7806C62.7606 73.18 62.2006 72.64 61.2606 72.64C60.3006 72.64 59.7406 73.08 59.7406 73.82C59.7406 74.38 60.1806 74.74 61.0206 74.94L62.8006 75.36C64.4606 75.74 65.3006 76.5 65.3006 78.02C65.3006 80.02 63.6006 81.26 61.1606 81.26C58.7006 81.26 57.1406 79.94 57.1406 78ZM70.5184 81H68.0784V73.16H66.1784V71.12H68.0784V68.04H70.5184V71.12H72.4384V73.16H70.5184V81ZM73.2777 76.04C73.2777 72.96 75.4977 70.84 78.5577 70.84C81.6177 70.84 83.8377 72.96 83.8377 76.04C83.8377 79.12 81.6177 81.24 78.5577 81.24C75.4977 81.24 73.2777 79.12 73.2777 76.04ZM75.7177 76.04C75.7177 77.84 76.8777 79.06 78.5577 79.06C80.2377 79.06 81.3977 77.84 81.3977 76.04C81.3977 74.24 80.2377 73.02 78.5577 73.02C76.8777 73.02 75.7177 74.24 75.7177 76.04ZM88.2117 81H85.7717V71.12H88.0117L88.2117 72.28C88.7117 71.46 89.7117 70.82 91.1317 70.82C92.6317 70.82 93.6717 71.56 94.1917 72.7C94.6917 71.56 95.8517 70.82 97.3517 70.82C99.7517 70.82 101.072 72.26 101.072 74.54V81H98.6517V75.18C98.6517 73.76 97.8917 73.02 96.7317 73.02C95.5517 73.02 94.6517 73.78 94.6517 75.4V81H92.2117V75.16C92.2117 73.78 91.4717 73.04 90.3117 73.04C89.1517 73.04 88.2117 73.8 88.2117 75.4V81ZM104.687 69.14C103.847 69.14 103.187 68.48 103.187 67.66C103.187 66.84 103.847 66.2 104.687 66.2C105.487 66.2 106.147 66.84 106.147 67.66C106.147 68.48 105.487 69.14 104.687 69.14ZM103.467 81V71.12H105.907V81H103.467ZM115.888 81H107.908V79L112.828 73.16H107.908V71.12H115.888V73.14L110.888 78.96H115.888V81ZM122.184 81.26C119.244 81.26 117.184 79.12 117.184 76.06C117.184 72.96 119.204 70.82 122.104 70.82C125.064 70.82 126.944 72.8 126.944 75.88V76.62L119.504 76.64C119.684 78.38 120.604 79.26 122.224 79.26C123.564 79.26 124.444 78.74 124.724 77.8H126.984C126.564 79.96 124.764 81.26 122.184 81.26ZM122.124 72.82C120.684 72.82 119.804 73.6 119.564 75.08H124.524C124.524 73.72 123.584 72.82 122.124 72.82ZM135.907 81H133.247L138.527 66.38H141.147L146.427 81H143.727L142.547 77.62H137.087L135.907 81ZM139.507 70.74L137.847 75.46H141.807L140.127 70.74C140.007 70.36 139.867 69.92 139.827 69.62C139.767 69.9 139.647 70.34 139.507 70.74ZM147.901 85.58V71.12H150.161L150.321 72.62C150.921 71.48 152.221 70.82 153.721 70.82C156.501 70.82 158.341 72.84 158.341 75.94C158.341 79.02 156.661 81.26 153.721 81.26C152.241 81.26 150.961 80.68 150.341 79.68V85.58H147.901ZM150.361 76.06C150.361 77.84 151.461 79.06 153.141 79.06C154.861 79.06 155.881 77.82 155.881 76.06C155.881 74.3 154.861 73.04 153.141 73.04C151.461 73.04 150.361 74.28 150.361 76.06ZM160.283 85.58V71.12H162.543L162.703 72.62C163.303 71.48 164.603 70.82 166.103 70.82C168.883 70.82 170.723 72.84 170.723 75.94C170.723 79.02 169.043 81.26 166.103 81.26C164.623 81.26 163.343 80.68 162.723 79.68V85.58H160.283ZM162.743 76.06C162.743 77.84 163.843 79.06 165.523 79.06C167.243 79.06 168.263 77.82 168.263 76.06C168.263 74.3 167.243 73.04 165.523 73.04C163.843 73.04 162.743 74.28 162.743 76.06ZM177.086 81.26C174.146 81.26 172.086 79.12 172.086 76.06C172.086 72.96 174.106 70.82 177.006 70.82C179.966 70.82 181.846 72.8 181.846 75.88V76.62L174.406 76.64C174.586 78.38 175.506 79.26 177.126 79.26C178.466 79.26 179.346 78.74 179.626 77.8H181.886C181.466 79.96 179.666 81.26 177.086 81.26ZM177.026 72.82C175.586 72.82 174.706 73.6 174.466 75.08H179.426C179.426 73.72 178.486 72.82 177.026 72.82ZM186.641 81.26C184.541 81.26 183.261 80.04 183.261 78.18C183.261 76.36 184.581 75.22 186.921 75.04L189.881 74.82V74.6C189.881 73.26 189.081 72.72 187.841 72.72C186.401 72.72 185.601 73.32 185.601 74.36H183.521C183.521 72.22 185.281 70.82 187.961 70.82C190.621 70.82 192.261 72.26 192.261 75V81H190.121L189.941 79.54C189.521 80.56 188.181 81.26 186.641 81.26ZM187.441 79.42C188.941 79.42 189.901 78.52 189.901 77V76.48L187.841 76.64C186.321 76.78 185.741 77.28 185.741 78.08C185.741 78.98 186.341 79.42 187.441 79.42ZM200.858 71.08V73.34H199.958C198.198 73.34 197.098 74.28 197.098 76.2V81H194.658V71.14H196.958L197.098 72.58C197.518 71.6 198.458 70.94 199.778 70.94C200.118 70.94 200.458 70.98 200.858 71.08ZM205.059 81.26C202.959 81.26 201.679 80.04 201.679 78.18C201.679 76.36 202.999 75.22 205.339 75.04L208.299 74.82V74.6C208.299 73.26 207.499 72.72 206.259 72.72C204.819 72.72 204.019 73.32 204.019 74.36H201.939C201.939 72.22 203.699 70.82 206.379 70.82C209.039 70.82 210.679 72.26 210.679 75V81H208.539L208.359 79.54C207.939 80.56 206.599 81.26 205.059 81.26ZM205.859 79.42C207.359 79.42 208.319 78.52 208.319 77V76.48L206.259 76.64C204.739 76.78 204.159 77.28 204.159 78.08C204.159 78.98 204.759 79.42 205.859 79.42ZM215.516 81H213.076V71.12H215.336L215.536 72.4C216.156 71.4 217.356 70.82 218.696 70.82C221.176 70.82 222.456 72.36 222.456 74.92V81H220.016V75.5C220.016 73.84 219.196 73.04 217.936 73.04C216.436 73.04 215.516 74.08 215.516 75.68V81ZM224.274 76.04C224.274 72.98 226.294 70.82 229.214 70.82C231.914 70.82 233.754 72.32 234.014 74.7H231.574C231.294 73.58 230.474 73 229.314 73C227.754 73 226.714 74.18 226.714 76.04C226.714 77.9 227.674 79.06 229.234 79.06C230.454 79.06 231.314 78.46 231.574 77.38H234.034C233.734 79.68 231.814 81.26 229.234 81.26C226.234 81.26 224.274 79.18 224.274 76.04ZM240.27 81.26C237.33 81.26 235.27 79.12 235.27 76.06C235.27 72.96 237.29 70.82 240.19 70.82C243.15 70.82 245.03 72.8 245.03 75.88V76.62L237.59 76.64C237.77 78.38 238.69 79.26 240.31 79.26C241.65 79.26 242.53 78.74 242.81 77.8H245.07C244.65 79.96 242.85 81.26 240.27 81.26ZM240.21 72.82C238.77 72.82 237.89 73.6 237.65 75.08H242.61C242.61 73.72 241.67 72.82 240.21 72.82Z" fill="#2C2C2C"/>
<path d="M213.555 136.84V133.24H227.523V136.84H222.483V151H218.595V136.84H213.555ZM236.141 133.24V151H232.253V133.24H236.141ZM240.878 136.84V133.24H254.846V136.84H249.806V151H245.918V136.84H240.878ZM263.464 133.24V147.4H270.472V151H259.576V133.24H263.464ZM286.592 151H275.312V133.24H286.592V136.84H279.2V140.32H285.752V143.728H279.2V147.4H286.592V151Z" fill="#2C2C2C"/>
<path d="M211.312 175H207.488V163.432H211.248C212.976 163.432 214.373 163.965 215.44 165.032C216.506 166.099 217.04 167.496 217.04 169.224C217.04 170.941 216.512 172.333 215.456 173.4C214.4 174.467 213.018 175 211.312 175ZM211.136 164.872H209.056V173.544H211.2C212.49 173.544 213.514 173.155 214.272 172.376C215.029 171.597 215.408 170.547 215.408 169.224C215.408 167.88 215.024 166.819 214.256 166.04C213.498 165.261 212.458 164.872 211.136 164.872ZM222.795 175.192C221.643 175.192 220.704 174.813 219.979 174.056C219.264 173.299 218.907 172.312 218.907 171.096C218.907 169.869 219.259 168.872 219.963 168.104C220.677 167.336 221.6 166.952 222.731 166.952C223.84 166.952 224.731 167.304 225.403 168.008C226.075 168.712 226.411 169.645 226.411 170.808V171.368L220.363 171.384C220.416 172.205 220.651 172.84 221.067 173.288C221.493 173.725 222.08 173.944 222.827 173.944C224.021 173.944 224.752 173.485 225.019 172.568H226.427C226.235 173.411 225.824 174.061 225.195 174.52C224.565 174.968 223.765 175.192 222.795 175.192ZM222.731 168.216C222.08 168.216 221.552 168.403 221.147 168.776C220.741 169.149 220.491 169.683 220.395 170.376H224.907C224.907 169.725 224.709 169.203 224.315 168.808C223.92 168.413 223.392 168.216 222.731 168.216ZM228.09 172.728H229.531C229.531 173.123 229.669 173.437 229.947 173.672C230.235 173.896 230.629 174.008 231.131 174.008C231.653 174.008 232.059 173.907 232.346 173.704C232.645 173.501 232.795 173.219 232.795 172.856C232.795 172.579 232.715 172.36 232.555 172.2C232.395 172.029 232.117 171.896 231.723 171.8L230.347 171.48C228.981 171.149 228.298 170.424 228.298 169.304C228.298 168.589 228.57 168.019 229.115 167.592C229.659 167.165 230.368 166.952 231.243 166.952C232.096 166.952 232.779 167.176 233.291 167.624C233.813 168.061 234.085 168.653 234.107 169.4H232.667C232.645 169.005 232.507 168.696 232.251 168.472C231.995 168.237 231.643 168.12 231.195 168.12C230.725 168.12 230.363 168.221 230.107 168.424C229.851 168.616 229.723 168.893 229.723 169.256C229.723 169.779 230.107 170.136 230.875 170.328L232.251 170.664C232.933 170.824 233.435 171.069 233.755 171.4C234.075 171.731 234.235 172.184 234.235 172.76C234.235 173.496 233.947 174.088 233.371 174.536C232.795 174.973 232.037 175.192 231.099 175.192C230.181 175.192 229.451 174.968 228.906 174.52C228.362 174.072 228.09 173.475 228.09 172.728ZM236.03 171.096C236.03 169.869 236.382 168.872 237.086 168.104C237.801 167.336 238.729 166.952 239.87 166.952C240.852 166.952 241.662 167.213 242.302 167.736C242.953 168.248 243.348 168.941 243.486 169.816H241.982C241.854 169.325 241.604 168.952 241.23 168.696C240.868 168.429 240.43 168.296 239.918 168.296C239.204 168.296 238.622 168.552 238.174 169.064C237.737 169.565 237.518 170.237 237.518 171.08C237.518 171.923 237.726 172.595 238.142 173.096C238.569 173.597 239.14 173.848 239.854 173.848C240.388 173.848 240.841 173.72 241.214 173.464C241.598 173.197 241.86 172.829 241.998 172.36H243.502C243.353 173.213 242.942 173.901 242.27 174.424C241.598 174.936 240.793 175.192 239.854 175.192C238.702 175.192 237.774 174.819 237.07 174.072C236.377 173.325 236.03 172.333 236.03 171.096ZM250.209 167.112V168.488H249.537C248.823 168.488 248.257 168.696 247.841 169.112C247.436 169.528 247.233 170.109 247.233 170.856V175H245.729V167.192H247.137L247.233 168.376C247.393 167.96 247.665 167.629 248.049 167.384C248.433 167.139 248.887 167.016 249.409 167.016C249.644 167.016 249.911 167.048 250.209 167.112ZM253.7 165.032C253.508 165.224 253.273 165.32 252.996 165.32C252.719 165.32 252.484 165.224 252.292 165.032C252.1 164.829 252.004 164.595 252.004 164.328C252.004 164.051 252.1 163.816 252.292 163.624C252.484 163.432 252.719 163.336 252.996 163.336C253.273 163.336 253.508 163.432 253.7 163.624C253.892 163.816 253.988 164.051 253.988 164.328C253.988 164.595 253.892 164.829 253.7 165.032ZM252.26 175V167.176H253.764V175H252.26ZM256.587 178.504V167.176H257.947L258.059 168.584C258.315 168.061 258.694 167.661 259.195 167.384C259.697 167.096 260.262 166.952 260.891 166.952C262.001 166.952 262.881 167.331 263.531 168.088C264.193 168.835 264.523 169.816 264.523 171.032C264.523 172.259 264.198 173.261 263.547 174.04C262.907 174.819 262.022 175.208 260.891 175.208C260.262 175.208 259.702 175.08 259.211 174.824C258.721 174.568 258.347 174.2 258.091 173.72V178.504H256.587ZM258.107 171.096C258.107 171.907 258.326 172.568 258.763 173.08C259.211 173.592 259.814 173.848 260.571 173.848C261.329 173.848 261.926 173.592 262.363 173.08C262.801 172.568 263.019 171.907 263.019 171.096C263.019 170.275 262.801 169.608 262.363 169.096C261.926 168.584 261.329 168.328 260.571 168.328C259.814 168.328 259.211 168.584 258.763 169.096C258.326 169.597 258.107 170.264 258.107 171.096ZM268.951 175H267.447V168.44H265.911V167.176H267.447V164.728H268.951V167.176H270.487V168.44H268.951V175ZM273.917 165.032C273.725 165.224 273.49 165.32 273.213 165.32C272.935 165.32 272.701 165.224 272.509 165.032C272.317 164.829 272.221 164.595 272.221 164.328C272.221 164.051 272.317 163.816 272.509 163.624C272.701 163.432 272.935 163.336 273.213 163.336C273.49 163.336 273.725 163.432 273.917 163.624C274.109 163.816 274.205 164.051 274.205 164.328C274.205 164.595 274.109 164.829 273.917 165.032ZM272.477 175V167.176H273.981V175H272.477ZM277.444 174.04C276.676 173.272 276.292 172.285 276.292 171.08C276.292 169.875 276.676 168.888 277.444 168.12C278.212 167.352 279.188 166.968 280.372 166.968C281.546 166.968 282.516 167.352 283.284 168.12C284.052 168.888 284.436 169.875 284.436 171.08C284.436 172.285 284.052 173.272 283.284 174.04C282.516 174.808 281.546 175.192 280.372 175.192C279.188 175.192 278.212 174.808 277.444 174.04ZM278.516 169.08C278.047 169.592 277.812 170.259 277.812 171.08C277.812 171.901 278.047 172.568 278.516 173.08C278.996 173.592 279.615 173.848 280.372 173.848C281.13 173.848 281.743 173.592 282.212 173.08C282.692 172.557 282.932 171.891 282.932 171.08C282.932 170.269 282.692 169.608 282.212 169.096C281.743 168.573 281.13 168.312 280.372 168.312C279.615 168.312 278.996 168.568 278.516 169.08ZM288.245 175H286.741V167.176H288.101L288.261 168.376C288.506 167.928 288.858 167.581 289.317 167.336C289.786 167.08 290.298 166.952 290.853 166.952C291.856 166.952 292.608 167.24 293.109 167.816C293.61 168.381 293.861 169.181 293.861 170.216V175H292.357V170.552C292.357 169.069 291.728 168.328 290.469 168.328C289.776 168.328 289.232 168.557 288.837 169.016C288.442 169.475 288.245 170.088 288.245 170.856V175Z" fill="#2C2C2C"/>
<rect x="401" y="62" width="68" height="27" rx="4" fill="#746666"/>
<path d="M416.18 77.472H413.926V81H412.134V70.766H416.18C418.238 70.766 419.568 72.11 419.568 74.112C419.568 76.086 418.224 77.472 416.18 77.472ZM415.83 72.362H413.926V75.876H415.802C417.034 75.876 417.692 75.218 417.692 74.098C417.692 72.978 417.02 72.362 415.83 72.362ZM425.513 74.084H427.221V81H425.639L425.513 80.076C425.093 80.734 424.197 81.182 423.273 81.182C421.677 81.182 420.739 80.104 420.739 78.41V74.084H422.447V77.808C422.447 79.124 422.965 79.656 423.917 79.656C424.995 79.656 425.513 79.026 425.513 77.71V74.084ZM430.568 81H428.986V70.584H430.694V75.092C431.142 74.322 432.066 73.86 433.116 73.86C435.09 73.86 436.294 75.4 436.294 77.584C436.294 79.712 434.992 81.182 433.004 81.182C431.968 81.182 431.086 80.72 430.68 79.922L430.568 81ZM430.708 77.514C430.708 78.76 431.478 79.614 432.654 79.614C433.858 79.614 434.572 78.746 434.572 77.514C434.572 76.282 433.858 75.4 432.654 75.4C431.478 75.4 430.708 76.268 430.708 77.514ZM439.375 81H437.681V70.584H439.375V81ZM442.021 72.698C441.433 72.698 440.971 72.236 440.971 71.662C440.971 71.088 441.433 70.64 442.021 70.64C442.581 70.64 443.043 71.088 443.043 71.662C443.043 72.236 442.581 72.698 442.021 72.698ZM441.167 81V74.084H442.875V81H441.167ZM444.108 78.9H445.732C445.746 79.502 446.194 79.88 446.978 79.88C447.776 79.88 448.21 79.558 448.21 79.054C448.21 78.704 448.028 78.452 447.412 78.312L446.166 78.018C444.92 77.738 444.318 77.15 444.318 76.044C444.318 74.686 445.466 73.874 447.062 73.874C448.616 73.874 449.666 74.77 449.68 76.114H448.056C448.042 75.526 447.65 75.148 446.992 75.148C446.32 75.148 445.928 75.456 445.928 75.974C445.928 76.366 446.236 76.618 446.824 76.758L448.07 77.052C449.232 77.318 449.82 77.85 449.82 78.914C449.82 80.314 448.63 81.182 446.922 81.182C445.2 81.182 444.108 80.258 444.108 78.9ZM452.828 81H451.12V70.584H452.842V74.98C453.276 74.308 454.088 73.874 455.082 73.874C456.79 73.874 457.686 74.952 457.686 76.744V81H455.978V77.15C455.978 75.988 455.404 75.428 454.536 75.428C453.458 75.428 452.828 76.184 452.828 77.22V81Z" fill="white"/>
<rect x="30.5" y="198" width="138.667" height="70" rx="6" fill="#D9D9D9"/>
<rect x="30.5" y="280" width="114" height="10" rx="5" fill="#D9D9D9"/>
<rect x="181.5" y="280" width="114" height="10" rx="5" fill="#D9D9D9"/>
<rect x="331.5" y="280" width="114" height="10" rx="5" fill="#D9D9D9"/>
<rect x="31.5" y="300" width="95" height="10" rx="5" fill="#D9D9D9"/>
<rect x="182.5" y="300" width="95" height="10" rx="5" fill="#D9D9D9"/>
<rect x="332.5" y="300" width="95" height="10" rx="5" fill="#D9D9D9"/>
<rect x="181.167" y="198" width="138.667" height="70" rx="6" fill="#D9D9D9"/>
<rect x="331.833" y="198" width="138.667" height="70" rx="6" fill="#D9D9D9"/>
<rect x="164" y="117" width="173" height="72" stroke="#BDBDBD" stroke-width="2" stroke-dasharray="8 8"/>
<rect x="331.75" y="110.75" width="10.5" height="10.5" fill="white" stroke="black" stroke-width="1.5"/>
<rect x="331.75" y="182.75" width="10.5" height="10.5" fill="white" stroke="black" stroke-width="1.5"/>
<rect x="158.75" y="110.75" width="10.5" height="10.5" fill="white" stroke="black" stroke-width="1.5"/>
<rect x="157.75" y="182.75" width="10.5" height="10.5" fill="white" stroke="black" stroke-width="1.5"/>
<g clip-path="url(#clip1_2150_12258)">
<path fill-rule="evenodd" clip-rule="evenodd" d="M350.31 187.686C350.945 187.431 351.666 187.739 351.921 188.373L353.307 191.821C353.562 192.456 353.254 193.177 352.619 193.432C351.984 193.687 351.263 193.379 351.008 192.744L349.623 189.297C349.368 188.662 349.676 187.941 350.31 187.686ZM342.182 195.643C342.451 195.014 343.178 194.721 343.807 194.99L347.225 196.448C347.854 196.717 348.146 197.444 347.878 198.073C347.609 198.702 346.881 198.995 346.252 198.726L342.835 197.268C342.206 197 341.914 196.272 342.182 195.643ZM361.684 187.807C362.314 188.076 362.606 188.803 362.337 189.432L360.879 192.85C360.611 193.479 359.883 193.771 359.254 193.503C358.625 193.234 358.332 192.506 358.601 191.877L360.059 188.46C360.328 187.831 361.055 187.539 361.684 187.807ZM354.009 198.892C354.435 198.572 355.019 198.56 355.457 198.864L368.34 207.776C368.752 208.061 368.952 208.566 368.846 209.056C368.741 209.546 368.35 209.923 367.858 210.013L364.38 210.647L368.381 215.978C368.792 216.525 368.681 217.301 368.134 217.712C367.587 218.122 366.81 218.012 366.4 217.465L362.399 212.134L360.819 215.296C360.595 215.744 360.124 216.013 359.624 215.978C359.124 215.942 358.695 215.609 358.537 215.134L353.578 200.274C353.409 199.769 353.583 199.212 354.009 198.892ZM342.061 207.017C341.806 206.382 342.114 205.661 342.748 205.406L346.196 204.021C346.831 203.766 347.552 204.074 347.807 204.708C348.062 205.343 347.754 206.064 347.119 206.319L343.672 207.704C343.037 207.959 342.316 207.652 342.061 207.017ZM363.895 198.244C363.64 197.609 363.948 196.888 364.583 196.633L368.031 195.248C368.665 194.993 369.386 195.301 369.641 195.935C369.896 196.57 369.589 197.291 368.954 197.546L365.506 198.932C364.872 199.187 364.15 198.879 363.895 198.244ZM352.448 209.45C353.077 209.718 353.37 210.446 353.101 211.075L351.643 214.492C351.374 215.121 350.647 215.414 350.018 215.145C349.389 214.877 349.096 214.149 349.365 213.52L350.823 210.103C351.092 209.474 351.819 209.181 352.448 209.45Z" fill="#121212"/>
</g>
</g>
<defs>
<linearGradient id="paint0_linear_2150_12258" x1="250" y1="0" x2="250" y2="361" gradientUnits="userSpaceOnUse">
<stop stop-color="white"/>
<stop offset="1" stop-color="white" stop-opacity="0"/>
</linearGradient>
<clipPath id="clip0_2150_12258">
<rect width="500" height="361" rx="30" fill="white"/>
</clipPath>
<clipPath id="clip1_2150_12258">
<rect width="39.6313" height="39.6313" fill="white" transform="translate(331 192.775) rotate(-21.8893)"/>
</clipPath>
</defs>
</svg>
