<svg width="500" height="361" viewBox="0 0 500 361" fill="none" xmlns="http://www.w3.org/2000/svg">
<g clip-path="url(#clip0_2150_12111)">
<rect width="500" height="361" rx="30" fill="url(#paint0_linear_2150_12111)"/>
<path d="M50.4191 76.371C50.0401 76.7523 49.7499 77.2125 49.569 77.7187C49.3882 78.225 49.3213 78.7649 49.373 79.3L49.355 79.282C49.4082 79.9119 49.3232 80.5457 49.1061 81.1394C48.889 81.733 48.5451 82.2721 48.0982 82.7191C47.6512 83.166 47.112 83.5101 46.5183 83.7271C45.9247 83.9442 45.2908 84.0292 44.661 83.976L44.6791 83.994C43.9257 83.9239 43.1689 84.0878 42.512 84.4635C41.8552 84.8392 41.3302 85.4083 41.0087 86.0933C40.6872 86.7783 40.5847 87.5457 40.7153 88.2911C40.846 89.0364 41.2033 89.7233 41.7386 90.2581C42.2739 90.7929 42.9611 91.1496 43.7065 91.2795C44.452 91.4095 45.2193 91.3063 45.904 90.9842C46.5887 90.662 47.1573 90.1366 47.5324 89.4794C47.9075 88.8222 48.0708 88.0654 48 87.312L48.019 87.33C47.9658 86.7002 48.0507 86.0663 48.2678 85.4726C48.4849 84.879 48.829 84.3399 49.2759 83.8929C49.7229 83.446 50.262 83.1019 50.8556 82.8849C51.4494 82.6678 52.0831 82.5828 52.713 82.636L52.694 82.618C53.3095 82.6733 53.929 82.5724 54.4951 82.3246C55.0611 82.0768 55.5554 81.6901 55.9322 81.2004C56.309 80.7107 56.5562 80.1337 56.6507 79.5231C56.7451 78.9124 56.684 78.2878 56.4727 77.707C56.2615 77.1263 55.9071 76.6083 55.4424 76.201C54.9777 75.7937 54.4178 75.5103 53.8144 75.3771C53.2109 75.2439 52.5837 75.2651 51.9907 75.4388C51.3976 75.6126 50.8582 75.9332 50.4221 76.371H50.4191Z" fill="#394149"/>
<path d="M43.042 81.636L43.023 81.618C43.5583 81.6719 44.0989 81.6062 44.6058 81.4256C45.1126 81.245 45.573 80.9541 45.9536 80.5738C46.3341 80.1935 46.6255 79.7333 46.8064 79.2266C46.9874 78.7199 47.0535 78.1794 47 77.644L47.019 77.662C46.9658 77.0321 47.0508 76.3983 47.2678 75.8046C47.4849 75.211 47.829 74.6719 48.2759 74.2249C48.7229 73.778 49.262 73.4339 49.8556 73.2169C50.4493 72.9998 51.0831 72.9148 51.713 72.968L51.694 72.95C52.4475 73.0208 53.2044 72.8574 53.8616 72.4821C54.5189 72.1068 55.0443 71.538 55.3663 70.8531C55.6883 70.1682 55.7912 69.4007 55.661 68.6552C55.5308 67.9097 55.1738 67.2225 54.6386 66.6874C54.1035 66.1522 53.4163 65.7952 52.6708 65.665C51.9253 65.5347 51.1578 65.6377 50.4729 65.9597C49.788 66.2817 49.2192 66.8071 48.8439 67.4643C48.4686 68.1215 48.3052 68.8785 48.376 69.632L48.358 69.613C48.4113 70.2429 48.3265 70.8768 48.1095 71.4705C47.8925 72.0643 47.5484 72.6035 47.1015 73.0505C46.6545 73.4974 46.1153 73.8415 45.5216 74.0585C44.9278 74.2755 44.2939 74.3603 43.664 74.307L43.682 74.326C43.1467 74.2721 42.606 74.3378 42.0992 74.5184C41.5924 74.6989 41.132 74.9899 40.7514 75.3702C40.3708 75.7505 40.0795 76.2107 39.8985 76.7174C39.7176 77.2241 39.6515 77.7646 39.705 78.3L39.687 78.282C39.74 78.9118 39.6549 79.5456 39.4378 80.1392C39.2206 80.7327 38.8766 81.2718 38.4297 81.7187C37.9828 82.1656 37.4438 82.5096 36.8502 82.7268C36.2566 82.9439 35.6228 83.029 34.993 82.976L35.011 82.994C34.2576 82.9232 33.5006 83.0866 32.8434 83.4619C32.1862 83.8372 31.6607 84.406 31.3387 85.0909C31.0167 85.7758 30.9138 86.5433 31.044 87.2888C31.1742 88.0343 31.5313 88.7215 32.0664 89.2566C32.6015 89.7918 33.2887 90.1488 34.0342 90.279C34.7797 90.4092 35.5473 90.3063 36.2321 89.9843C36.917 89.6623 37.4859 89.1369 37.8611 88.4797C38.2364 87.8224 38.3998 87.0655 38.329 86.312L38.348 86.33C38.2948 85.7001 38.3798 85.0663 38.5969 84.4726C38.8139 83.879 39.158 83.3399 39.6049 82.8929C40.0519 82.446 40.591 82.1019 41.1846 81.8849C41.7783 81.6678 42.4121 81.5828 43.042 81.636Z" fill="#394149"/>
<path d="M36.34 79.629C36.719 79.2478 37.0092 78.7876 37.1898 78.2813C37.3704 77.775 37.4371 77.235 37.385 76.7L37.404 76.718C37.3508 76.088 37.4357 75.4539 37.6529 74.8601C37.8701 74.2663 38.2144 73.7271 38.6616 73.2801C39.1088 72.8331 39.6481 72.4891 40.242 72.2722C40.8359 72.0552 41.47 71.9705 42.1 72.024L42.081 72.006C42.8342 72.0766 43.5909 71.9131 44.2478 71.5378C44.9047 71.1626 45.4298 70.5939 45.7517 69.9092C46.0735 69.2246 46.1763 68.4573 46.0461 67.7121C45.9159 66.9669 45.5589 66.2799 45.024 65.745C44.4891 65.2101 43.8021 64.8531 43.0569 64.7229C42.3117 64.5927 41.5444 64.6955 40.8598 65.0173C40.1751 65.3392 39.6064 65.8643 39.2312 66.5212C38.8559 67.1781 38.6924 67.9348 38.763 68.688L38.745 68.67C38.7982 69.2999 38.7132 69.9337 38.4961 70.5274C38.279 71.121 37.935 71.6601 37.488 72.1071C37.0411 72.554 36.502 72.8981 35.9083 73.1151C35.3147 73.3322 34.6808 73.4172 34.051 73.364L34.069 73.382C33.4535 73.3268 32.8341 73.4279 32.2681 73.6758C31.7022 73.9237 31.2079 74.3105 30.8312 74.8003C30.4545 75.29 30.2075 75.867 30.1131 76.4776C30.0188 77.0883 30.0801 77.7129 30.2913 78.2935C30.5026 78.8742 30.857 79.3921 31.3218 79.7993C31.7865 80.2066 32.3465 80.4899 32.9499 80.6231C33.5532 80.7562 34.1805 80.7349 34.7734 80.5612C35.3664 80.3874 35.9059 80.0668 36.342 79.629H36.34Z" fill="#394149"/>
<path d="M67.317 69.655H70.287V84.108H67.317V69.655Z" fill="#394149"/>
<path d="M71.969 79.159C71.9649 78.1204 72.2691 77.1038 72.8431 76.2382C73.4171 75.3726 74.2351 74.6968 75.1935 74.2965C76.1519 73.8961 77.2075 73.7892 78.2267 73.9893C79.2459 74.1894 80.1828 74.6874 80.9187 75.4204C81.6546 76.1533 82.1564 77.0882 82.3606 78.1066C82.5648 79.125 82.4621 80.1811 82.0656 81.1411C81.6691 82.101 80.9966 82.9218 80.1333 83.4992C79.2699 84.0767 78.2547 84.385 77.216 84.385C76.5266 84.3929 75.8425 84.2632 75.2037 84.0036C74.5649 83.744 73.9843 83.3597 73.4958 82.8732C73.0072 82.3866 72.6206 81.8075 72.3585 81.1698C72.0963 80.5321 71.9639 79.8485 71.969 79.159ZM79.493 79.159C79.4806 78.7113 79.3365 78.2772 79.0788 77.9109C78.821 77.5447 78.461 77.2625 78.0438 77.0998C77.6265 76.937 77.1706 76.9008 76.7329 76.9958C76.2952 77.0908 75.8952 77.3126 75.5829 77.6337C75.2707 77.9547 75.0599 78.3607 74.9772 78.8009C74.8944 79.241 74.9431 79.6958 75.1174 80.1084C75.2917 80.521 75.5837 80.873 75.9569 81.1205C76.3302 81.368 76.7682 81.5 77.216 81.5C77.5227 81.5082 77.8278 81.4527 78.1121 81.3371C78.3963 81.2215 78.6535 81.0483 78.8674 80.8284C79.0813 80.6084 79.2474 80.3465 79.355 80.0592C79.4627 79.7719 79.5097 79.4654 79.493 79.159Z" fill="#394149"/>
<path d="M94.3 74.209V83.609C94.3 86.935 91.706 88.341 89.073 88.341C88.146 88.4104 87.2177 88.2231 86.39 87.7998C85.5624 87.3764 84.8673 86.7333 84.381 85.941L86.915 84.476C87.1194 84.889 87.4451 85.2297 87.8484 85.4526C88.2518 85.6754 88.7136 85.7698 89.172 85.723C89.465 85.7636 89.7634 85.7378 90.0451 85.6475C90.3267 85.5572 90.5845 85.4047 90.7993 85.2014C91.0141 84.998 91.1804 84.749 91.286 84.4726C91.3915 84.1963 91.4335 83.8998 91.409 83.605V82.7C91.0612 83.1255 90.6186 83.4636 90.1165 83.6871C89.6144 83.9106 89.067 84.0133 88.518 83.987C87.2118 83.9458 85.9729 83.398 85.0635 82.4594C84.1541 81.5209 83.6456 80.2653 83.6456 78.9585C83.6456 77.6517 84.1541 76.3961 85.0635 75.4576C85.9729 74.519 87.2118 73.9712 88.518 73.93C89.067 73.9037 89.6144 74.0064 90.1165 74.2299C90.6186 74.4534 91.0612 74.7915 91.409 75.217V74.207L94.3 74.209ZM91.41 78.96C91.43 78.4814 91.3062 78.0077 91.0547 77.6C90.8032 77.1922 90.4354 76.8691 89.9987 76.6722C89.562 76.4752 89.0764 76.4135 88.6043 76.4949C88.1322 76.5763 87.6953 76.7971 87.3497 77.129C87.0042 77.4608 86.7659 77.8884 86.6654 78.3568C86.565 78.8252 86.607 79.313 86.7862 79.7573C86.9653 80.2016 87.2733 80.5822 87.6705 80.85C88.0677 81.1178 88.536 81.2606 89.015 81.26C89.3271 81.2818 89.6402 81.238 89.9343 81.1314C90.2284 81.0248 90.4969 80.8577 90.7225 80.6411C90.9481 80.4244 91.1259 80.1629 91.2443 79.8733C91.3627 79.5838 91.4192 79.2727 91.41 78.96Z" fill="#394149"/>
<path d="M95.982 79.159C95.9779 78.1204 96.282 77.1038 96.8561 76.2382C97.4301 75.3726 98.248 74.6968 99.2064 74.2965C100.165 73.8961 101.22 73.7892 102.24 73.9893C103.259 74.1894 104.196 74.6874 104.932 75.4204C105.668 76.1533 106.169 77.0882 106.374 78.1066C106.578 79.125 106.475 80.1811 106.079 81.1411C105.682 82.101 105.01 82.9218 104.146 83.4992C103.283 84.0767 102.268 84.385 101.229 84.385C100.54 84.3929 99.8553 84.2632 99.2166 84.0036C98.5778 83.744 97.9972 83.3597 97.5087 82.8732C97.0201 82.3866 96.6335 81.8075 96.3714 81.1698C96.1092 80.5321 95.9769 79.8485 95.982 79.159ZM103.506 79.159C103.494 78.7113 103.349 78.2772 103.092 77.9109C102.834 77.5447 102.474 77.2625 102.057 77.0998C101.639 76.937 101.183 76.9008 100.746 76.9958C100.308 77.0908 99.9082 77.3126 99.5959 77.6337C99.2837 77.9547 99.0728 78.3607 98.99 78.8009C98.9072 79.241 98.9561 79.6958 99.1304 80.1084C99.3047 80.521 99.5967 80.873 99.9699 81.1205C100.343 81.368 100.781 81.5 101.229 81.5C101.536 81.5082 101.841 81.4527 102.125 81.3371C102.409 81.2215 102.666 81.0483 102.88 80.8284C103.094 80.6084 103.26 80.3465 103.368 80.0592C103.476 79.7719 103.523 79.4654 103.506 79.159Z" fill="#394149"/>
<path d="M107.861 71.556C107.861 71.2035 107.965 70.859 108.161 70.566C108.357 70.2729 108.635 70.0445 108.961 69.9096C109.287 69.7748 109.645 69.7395 109.991 69.8082C110.336 69.877 110.654 70.0467 110.903 70.2959C111.152 70.5451 111.322 70.8627 111.391 71.2083C111.459 71.554 111.424 71.9123 111.289 72.2379C111.154 72.5635 110.926 72.8419 110.633 73.0377C110.34 73.2335 109.995 73.338 109.643 73.338C109.172 73.3333 108.721 73.1441 108.388 72.8109C108.055 72.4777 107.866 72.0271 107.861 71.556ZM108.161 74.209H111.132V84.109H108.157L108.161 74.209Z" fill="#394149"/>
<path d="M123.956 79.159C123.99 79.8133 123.895 80.4679 123.675 81.0852C123.456 81.7025 123.117 82.2703 122.677 82.756C122.237 83.2416 121.706 83.6356 121.113 83.9152C120.52 84.1947 119.879 84.3544 119.224 84.385C118.674 84.415 118.124 84.3222 117.613 84.1133C117.103 83.9043 116.646 83.5845 116.275 83.177V88.068H113.305V74.209H116.275V75.139C116.646 74.7318 117.104 74.4122 117.614 74.2035C118.124 73.9947 118.674 73.902 119.224 73.932C119.879 73.9625 120.521 74.1221 121.113 74.4017C121.706 74.6813 122.238 75.0753 122.677 75.5611C123.117 76.0469 123.457 76.6149 123.676 77.2324C123.895 77.8498 123.991 78.5046 123.956 79.159ZM120.986 79.159C120.974 78.6957 120.826 78.2461 120.561 77.8664C120.295 77.4868 119.923 77.194 119.491 77.0248C119.06 76.8555 118.588 76.8172 118.135 76.9148C117.682 77.0123 117.268 77.2413 116.944 77.5731C116.62 77.905 116.402 78.3248 116.316 78.7803C116.23 79.2357 116.28 79.7063 116.46 80.1334C116.64 80.5605 116.942 80.9249 117.328 81.1812C117.714 81.4374 118.168 81.5741 118.631 81.574C118.949 81.5882 119.267 81.5349 119.563 81.4177C119.859 81.3006 120.127 81.1221 120.35 80.8941C120.572 80.666 120.744 80.3936 120.853 80.0946C120.963 79.7956 121.008 79.4767 120.986 79.159Z" fill="#394149"/>
<path d="M133.121 81.138C133.121 83.415 131.142 84.385 129.004 84.385C128.14 84.4632 127.273 84.2806 126.514 83.8605C125.755 83.4405 125.139 82.8025 124.747 82.029L127.32 80.564C127.424 80.9215 127.648 81.2326 127.953 81.4451C128.259 81.6577 128.629 81.759 129 81.732C129.712 81.732 130.069 81.514 130.069 81.119C130.069 80.029 125.198 80.604 125.198 77.179C125.198 75.02 127.02 73.932 129.079 73.932C129.853 73.9075 130.619 74.0911 131.298 74.4636C131.977 74.8362 132.544 75.384 132.939 76.05L130.405 77.416C130.294 77.1567 130.109 76.9358 129.873 76.7809C129.637 76.626 129.361 76.544 129.079 76.545C128.564 76.545 128.247 76.745 128.247 77.099C128.251 78.228 133.121 77.475 133.121 81.138Z" fill="#394149"/>
<path d="M143.97 74.209V84.109H141V83.178C140.657 83.5888 140.222 83.9125 139.73 84.1225C139.238 84.3325 138.704 84.4228 138.17 84.386C136.17 84.386 134.47 82.961 134.47 80.286V74.209H137.44V79.851C137.415 80.0868 137.442 80.3252 137.519 80.5495C137.595 80.7739 137.72 80.9789 137.884 81.1502C138.048 81.3215 138.247 81.455 138.468 81.5415C138.688 81.628 138.925 81.6654 139.162 81.651C140.251 81.651 141.003 81.018 141.003 79.612V74.212L143.97 74.209Z" fill="#394149"/>
<path d="M161 78.03V84.108H158.03V78.287C158.03 77.297 157.555 76.664 156.605 76.664C155.615 76.664 155.06 77.357 155.06 78.525V84.108H152.091V78.287C152.091 77.297 151.616 76.664 150.665 76.664C149.675 76.664 149.121 77.357 149.121 78.525V84.108H146.151V74.208H149.121V75.118C149.429 74.7143 149.833 74.3941 150.296 74.1868C150.76 73.9794 151.268 73.8915 151.774 73.931C152.282 73.9061 152.788 74.0134 153.243 74.2423C153.697 74.4711 154.084 74.8139 154.367 75.237C154.696 74.7943 155.132 74.4423 155.634 74.2139C156.136 73.9855 156.688 73.8882 157.238 73.931C159.511 73.932 161 75.555 161 78.03Z" fill="#394149"/>
<path d="M163.512 74.148C164.729 74.148 165.716 73.1612 165.716 71.944C165.716 70.7268 164.729 69.74 163.512 69.74C162.295 69.74 161.308 70.7268 161.308 71.944C161.308 73.1612 162.295 74.148 163.512 74.148Z" fill="#394149"/>
<rect x="-1" width="500" height="35" fill="#746666"/>
<rect x="30" y="121" width="138.667" height="70" rx="6" fill="#D9D9D9"/>
<rect x="30" y="203" width="114" height="10" rx="5" fill="#D9D9D9"/>
<rect x="181" y="203" width="114" height="10" rx="5" fill="#D9D9D9"/>
<rect x="331" y="203" width="114" height="10" rx="5" fill="#D9D9D9"/>
<rect x="31" y="223" width="95" height="10" rx="5" fill="#D9D9D9"/>
<rect x="182" y="223" width="95" height="10" rx="5" fill="#D9D9D9"/>
<rect x="332" y="223" width="95" height="10" rx="5" fill="#D9D9D9"/>
<rect x="180.667" y="121" width="138.667" height="70" rx="6" fill="#D9D9D9"/>
<rect x="331.333" y="121" width="138.667" height="70" rx="6" fill="#D9D9D9"/>
<rect x="31" y="253" width="91" height="31" rx="4" fill="#746666"/>
<path d="M46.46 274.168C43.478 274.168 41.546 272.096 41.546 268.89C41.546 265.712 43.548 263.598 46.544 263.598C48.966 263.598 50.772 265.012 51.122 267.21H49.232C48.882 266.02 47.86 265.32 46.502 265.32C44.612 265.32 43.422 266.692 43.422 268.876C43.422 271.046 44.626 272.446 46.502 272.446C47.888 272.446 48.952 271.718 49.288 270.584H51.15C50.758 272.74 48.882 274.168 46.46 274.168ZM54.1587 274H52.4647V263.584H54.1587V274ZM58.0084 274.182C56.5384 274.182 55.6424 273.328 55.6424 272.026C55.6424 270.752 56.5664 269.954 58.2044 269.828L60.2764 269.674V269.52C60.2764 268.582 59.7164 268.204 58.8484 268.204C57.8404 268.204 57.2804 268.624 57.2804 269.352H55.8244C55.8244 267.854 57.0564 266.874 58.9324 266.874C60.7944 266.874 61.9424 267.882 61.9424 269.8V274H60.4444L60.3184 272.978C60.0244 273.692 59.0864 274.182 58.0084 274.182ZM58.5684 272.894C59.6184 272.894 60.2904 272.264 60.2904 271.2V270.836L58.8484 270.948C57.7844 271.046 57.3784 271.396 57.3784 271.956C57.3784 272.586 57.7984 272.894 58.5684 272.894ZM64.4743 265.698C63.8863 265.698 63.4243 265.236 63.4243 264.662C63.4243 264.088 63.8863 263.64 64.4743 263.64C65.0343 263.64 65.4963 264.088 65.4963 264.662C65.4963 265.236 65.0343 265.698 64.4743 265.698ZM63.6203 274V267.084H65.3283V274H63.6203ZM68.8009 274H67.0929V267.084H68.6609L68.8009 267.896C69.1509 267.322 69.8509 266.874 70.8449 266.874C71.8949 266.874 72.6229 267.392 72.9869 268.19C73.3369 267.392 74.1489 266.874 75.1989 266.874C76.8789 266.874 77.8029 267.882 77.8029 269.478V274H76.1089V269.926C76.1089 268.932 75.5769 268.414 74.7649 268.414C73.9389 268.414 73.3089 268.946 73.3089 270.08V274H71.6009V269.912C71.6009 268.946 71.0829 268.428 70.2709 268.428C69.4589 268.428 68.8009 268.96 68.8009 270.08V274ZM87.5511 270.472H85.2971V274H83.5051V263.766H87.5511C89.6091 263.766 90.9391 265.11 90.9391 267.112C90.9391 269.086 89.5951 270.472 87.5511 270.472ZM87.2011 265.362H85.2971V268.876H87.1731C88.4051 268.876 89.0631 268.218 89.0631 267.098C89.0631 265.978 88.3911 265.362 87.2011 265.362ZM94.9467 274.182C92.8887 274.182 91.4467 272.684 91.4467 270.542C91.4467 268.372 92.8607 266.874 94.8907 266.874C96.9627 266.874 98.2787 268.26 98.2787 270.416V270.934L93.0707 270.948C93.1967 272.166 93.8407 272.782 94.9747 272.782C95.9127 272.782 96.5287 272.418 96.7247 271.76H98.3067C98.0127 273.272 96.7527 274.182 94.9467 274.182ZM94.9047 268.274C93.8967 268.274 93.2807 268.82 93.1127 269.856H96.5847C96.5847 268.904 95.9267 268.274 94.9047 268.274ZM103.986 267.056V268.638H103.356C102.124 268.638 101.354 269.296 101.354 270.64V274H99.6457V267.098H101.256L101.354 268.106C101.648 267.42 102.306 266.958 103.23 266.958C103.468 266.958 103.706 266.986 103.986 267.056ZM106.864 274H105.17V263.584H106.864V269.982L109.552 267.084H111.694L109.062 269.828L111.638 274H109.678L107.872 271.088L106.864 272.138V274Z" fill="white"/>
<rect x="181" y="253" width="91" height="31" rx="4" fill="#746666"/>
<path d="M196.46 274.168C193.478 274.168 191.546 272.096 191.546 268.89C191.546 265.712 193.548 263.598 196.544 263.598C198.966 263.598 200.772 265.012 201.122 267.21H199.232C198.882 266.02 197.86 265.32 196.502 265.32C194.612 265.32 193.422 266.692 193.422 268.876C193.422 271.046 194.626 272.446 196.502 272.446C197.888 272.446 198.952 271.718 199.288 270.584H201.15C200.758 272.74 198.882 274.168 196.46 274.168ZM204.159 274H202.465V263.584H204.159V274ZM208.008 274.182C206.538 274.182 205.642 273.328 205.642 272.026C205.642 270.752 206.566 269.954 208.204 269.828L210.276 269.674V269.52C210.276 268.582 209.716 268.204 208.848 268.204C207.84 268.204 207.28 268.624 207.28 269.352H205.824C205.824 267.854 207.056 266.874 208.932 266.874C210.794 266.874 211.942 267.882 211.942 269.8V274H210.444L210.318 272.978C210.024 273.692 209.086 274.182 208.008 274.182ZM208.568 272.894C209.618 272.894 210.29 272.264 210.29 271.2V270.836L208.848 270.948C207.784 271.046 207.378 271.396 207.378 271.956C207.378 272.586 207.798 272.894 208.568 272.894ZM214.474 265.698C213.886 265.698 213.424 265.236 213.424 264.662C213.424 264.088 213.886 263.64 214.474 263.64C215.034 263.64 215.496 264.088 215.496 264.662C215.496 265.236 215.034 265.698 214.474 265.698ZM213.62 274V267.084H215.328V274H213.62ZM218.801 274H217.093V267.084H218.661L218.801 267.896C219.151 267.322 219.851 266.874 220.845 266.874C221.895 266.874 222.623 267.392 222.987 268.19C223.337 267.392 224.149 266.874 225.199 266.874C226.879 266.874 227.803 267.882 227.803 269.478V274H226.109V269.926C226.109 268.932 225.577 268.414 224.765 268.414C223.939 268.414 223.309 268.946 223.309 270.08V274H221.601V269.912C221.601 268.946 221.083 268.428 220.271 268.428C219.459 268.428 218.801 268.96 218.801 270.08V274ZM237.551 270.472H235.297V274H233.505V263.766H237.551C239.609 263.766 240.939 265.11 240.939 267.112C240.939 269.086 239.595 270.472 237.551 270.472ZM237.201 265.362H235.297V268.876H237.173C238.405 268.876 239.063 268.218 239.063 267.098C239.063 265.978 238.391 265.362 237.201 265.362ZM244.947 274.182C242.889 274.182 241.447 272.684 241.447 270.542C241.447 268.372 242.861 266.874 244.891 266.874C246.963 266.874 248.279 268.26 248.279 270.416V270.934L243.071 270.948C243.197 272.166 243.841 272.782 244.975 272.782C245.913 272.782 246.529 272.418 246.725 271.76H248.307C248.013 273.272 246.753 274.182 244.947 274.182ZM244.905 268.274C243.897 268.274 243.281 268.82 243.113 269.856H246.585C246.585 268.904 245.927 268.274 244.905 268.274ZM253.986 267.056V268.638H253.356C252.124 268.638 251.354 269.296 251.354 270.64V274H249.646V267.098H251.256L251.354 268.106C251.648 267.42 252.306 266.958 253.23 266.958C253.468 266.958 253.706 266.986 253.986 267.056ZM256.864 274H255.17V263.584H256.864V269.982L259.552 267.084H261.694L259.062 269.828L261.638 274H259.678L257.872 271.088L256.864 272.138V274Z" fill="white"/>
<rect x="331.5" y="253.5" width="107" height="30" rx="3.5" stroke="#746666"/>
<path d="M346.18 270.472H343.926V274H342.134V263.766H346.18C348.238 263.766 349.568 265.11 349.568 267.112C349.568 269.086 348.224 270.472 346.18 270.472ZM345.83 265.362H343.926V268.876H345.802C347.034 268.876 347.692 268.218 347.692 267.098C347.692 265.978 347.02 265.362 345.83 265.362ZM353.576 274.182C351.518 274.182 350.076 272.684 350.076 270.542C350.076 268.372 351.49 266.874 353.52 266.874C355.592 266.874 356.908 268.26 356.908 270.416V270.934L351.7 270.948C351.826 272.166 352.47 272.782 353.604 272.782C354.542 272.782 355.158 272.418 355.354 271.76H356.936C356.642 273.272 355.382 274.182 353.576 274.182ZM353.534 268.274C352.526 268.274 351.91 268.82 351.742 269.856H355.214C355.214 268.904 354.556 268.274 353.534 268.274ZM362.615 267.056V268.638H361.985C360.753 268.638 359.983 269.296 359.983 270.64V274H358.275V267.098H359.885L359.983 268.106C360.277 267.42 360.935 266.958 361.859 266.958C362.097 266.958 362.335 266.986 362.615 267.056ZM365.493 274H363.799V263.584H365.493V269.982L368.181 267.084H370.323L367.691 269.828L370.267 274H368.307L366.501 271.088L365.493 272.138V274ZM379.655 274.168C376.673 274.168 374.741 272.096 374.741 268.89C374.741 265.712 376.743 263.598 379.739 263.598C382.161 263.598 383.967 265.012 384.317 267.21H382.427C382.077 266.02 381.055 265.32 379.697 265.32C377.807 265.32 376.617 266.692 376.617 268.876C376.617 271.046 377.821 272.446 379.697 272.446C381.083 272.446 382.147 271.718 382.483 270.584H384.345C383.953 272.74 382.077 274.168 379.655 274.168ZM387.354 274H385.66V263.584H387.354V274ZM391.204 274.182C389.734 274.182 388.838 273.328 388.838 272.026C388.838 270.752 389.762 269.954 391.4 269.828L393.472 269.674V269.52C393.472 268.582 392.912 268.204 392.044 268.204C391.036 268.204 390.476 268.624 390.476 269.352H389.02C389.02 267.854 390.252 266.874 392.128 266.874C393.99 266.874 395.138 267.882 395.138 269.8V274H393.64L393.514 272.978C393.22 273.692 392.282 274.182 391.204 274.182ZM391.764 272.894C392.814 272.894 393.486 272.264 393.486 271.2V270.836L392.044 270.948C390.98 271.046 390.574 271.396 390.574 271.956C390.574 272.586 390.994 272.894 391.764 272.894ZM397.67 265.698C397.082 265.698 396.62 265.236 396.62 264.662C396.62 264.088 397.082 263.64 397.67 263.64C398.23 263.64 398.692 264.088 398.692 264.662C398.692 265.236 398.23 265.698 397.67 265.698ZM396.816 274V267.084H398.524V274H396.816ZM401.996 274H400.288V267.084H401.856L401.996 267.896C402.346 267.322 403.046 266.874 404.04 266.874C405.09 266.874 405.818 267.392 406.182 268.19C406.532 267.392 407.344 266.874 408.394 266.874C410.074 266.874 410.998 267.882 410.998 269.478V274H409.304V269.926C409.304 268.932 408.772 268.414 407.96 268.414C407.134 268.414 406.504 268.946 406.504 270.08V274H404.796V269.912C404.796 268.946 404.278 268.428 403.466 268.428C402.654 268.428 401.996 268.96 401.996 270.08V274ZM415.769 274.182C413.711 274.182 412.269 272.684 412.269 270.542C412.269 268.372 413.683 266.874 415.713 266.874C417.785 266.874 419.101 268.26 419.101 270.416V270.934L413.893 270.948C414.019 272.166 414.663 272.782 415.797 272.782C416.735 272.782 417.351 272.418 417.547 271.76H419.129C418.835 273.272 417.575 274.182 415.769 274.182ZM415.727 268.274C414.719 268.274 414.103 268.82 413.935 269.856H417.407C417.407 268.904 416.749 268.274 415.727 268.274ZM423.31 274.182C421.308 274.182 420.062 272.712 420.062 270.57C420.062 268.414 421.322 266.874 423.408 266.874C424.374 266.874 425.228 267.28 425.662 267.966V263.584H427.356V274H425.788L425.676 272.922C425.256 273.72 424.36 274.182 423.31 274.182ZM423.688 272.614C424.878 272.614 425.648 271.76 425.648 270.514C425.648 269.268 424.878 268.4 423.688 268.4C422.498 268.4 421.77 269.282 421.77 270.514C421.77 271.746 422.498 272.614 423.688 272.614Z" fill="#746666"/>
</g>
<defs>
<linearGradient id="paint0_linear_2150_12111" x1="250" y1="0" x2="250" y2="361" gradientUnits="userSpaceOnUse">
<stop stop-color="white"/>
<stop offset="1" stop-color="white" stop-opacity="0"/>
</linearGradient>
<clipPath id="clip0_2150_12111">
<rect width="500" height="361" rx="30" fill="white"/>
</clipPath>
</defs>
</svg>
