<svg width="32" height="32" viewBox="0 0 20 20" fill="none" xmlns="http://www.w3.org/2000/svg">
    <path
        d="M7.1875 10C7.1875 10.1726 7.04759 10.3125 6.875 10.3125C6.70241 10.3125 6.5625 10.1726 6.5625 10C6.5625 9.82741 6.70241 9.6875 6.875 9.6875C7.04759 9.6875 7.1875 9.82741 7.1875 10ZM7.1875 10H6.875M10.3125 10C10.3125 10.1726 10.1726 10.3125 10 10.3125C9.82741 10.3125 9.6875 10.1726 9.6875 10C9.6875 9.82741 9.82741 9.6875 10 9.6875C10.1726 9.6875 10.3125 9.82741 10.3125 10ZM10.3125 10H10M13.4375 10C13.4375 10.1726 13.2976 10.3125 13.125 10.3125C12.9524 10.3125 12.8125 10.1726 12.8125 10C12.8125 9.82741 12.9524 9.6875 13.125 9.6875C13.2976 9.6875 13.4375 9.82741 13.4375 10ZM13.4375 10H13.125M17.5 10C17.5 14.1421 14.1421 17.5 10 17.5C5.85786 17.5 2.5 14.1421 2.5 10C2.5 5.85786 5.85786 2.5 10 2.5C14.1421 2.5 17.5 5.85786 17.5 10Z"
        stroke="currentColor" stroke-width="1.25" stroke-linecap="round" stroke-linejoin="round" />
</svg>