<svg width="20" height="20" viewBox="0 0 20 20" fill="none" xmlns="http://www.w3.org/2000/svg">
    <path
        d="M7.94239 13.4353C7.57097 12.5203 6.67334 11.875 5.625 11.875C4.24429 11.875 3.125 12.9943 3.125 14.375C3.125 15.4105 2.28551 16.25 1.24998 16.25C1.20773 16.25 1.16582 16.2486 1.12427 16.2459C1.77207 17.369 2.98524 18.125 4.37498 18.125C6.44017 18.125 8.11545 16.4556 8.12494 14.3926C8.12498 14.3867 8.125 14.3809 8.125 14.375C8.125 14.0426 8.06014 13.7254 7.94239 13.4353ZM7.94239 13.4353C8.93765 13.0961 9.88432 12.642 10.7646 12.0856M6.5625 12.0641C6.90192 11.0664 7.35675 10.1176 7.91437 9.23543M10.7646 12.0856C12.3316 11.0951 13.6882 9.78016 14.7339 8.21171L17.9639 3.36672C18.0689 3.20911 18.125 3.02392 18.125 2.83449C18.125 2.30458 17.6954 1.875 17.1655 1.875C16.9761 1.875 16.7909 1.93107 16.6333 2.03615L11.7883 5.26614C10.2198 6.31177 8.90493 7.66836 7.91437 9.23543M10.7646 12.0856C10.1997 10.8194 9.1806 9.80031 7.91437 9.23543"
        stroke="#121212" stroke-width="1.25" stroke-linecap="round" stroke-linejoin="round" />
</svg>