<svg width="20" height="20" viewBox="0 0 20 20" fill="none" xmlns="http://www.w3.org/2000/svg">
<g id="cog-6-tooth">
<g id="Shape">
<path d="M7.99473 3.28338C8.07007 2.83132 8.46119 2.5 8.91947 2.5H11.0811C11.5394 2.5 11.9305 2.83132 12.0059 3.28338L12.1838 4.35092C12.2357 4.66262 12.444 4.92226 12.7205 5.0753C12.7823 5.10952 12.8434 5.14486 12.9038 5.18131C13.1746 5.34487 13.5041 5.39572 13.8004 5.28471L14.8144 4.90481C15.2436 4.74404 15.7261 4.91709 15.9552 5.31398L17.0361 7.18601C17.2652 7.5829 17.1738 8.08728 16.82 8.37855L15.9831 9.06756C15.7393 9.26823 15.6185 9.5781 15.6243 9.89377C15.625 9.9291 15.6253 9.96451 15.6253 10C15.6253 10.0355 15.625 10.0709 15.6243 10.1062C15.6185 10.4219 15.7393 10.7318 15.9831 10.9324L16.82 11.6214C17.1738 11.9127 17.2652 12.4171 17.0361 12.814L15.9552 14.686C15.7261 15.0829 15.2436 15.256 14.8144 15.0952L13.8004 14.7153C13.5041 14.6043 13.1747 14.6551 12.9038 14.8187C12.8434 14.8551 12.7823 14.8905 12.7205 14.9247C12.444 15.0777 12.2357 15.3374 12.1838 15.6491L12.0059 16.7166C11.9305 17.1687 11.5394 17.5 11.0811 17.5H8.91947C8.46119 17.5 8.07007 17.1687 7.99473 16.7166L7.8168 15.6491C7.76485 15.3374 7.55654 15.0777 7.28007 14.9247C7.21826 14.8905 7.15716 14.8551 7.0968 14.8187C6.82594 14.6551 6.49649 14.6043 6.20019 14.7153L5.18613 15.0952C4.75698 15.256 4.27448 15.0829 4.04534 14.686L2.96452 12.814C2.73538 12.4171 2.82676 11.9127 3.18057 11.6215L4.01753 10.9324C4.26129 10.7318 4.38212 10.4219 4.37627 10.1062C4.37562 10.0709 4.37529 10.0355 4.37529 10C4.37529 9.96452 4.37562 9.92911 4.37627 9.89379C4.38212 9.57811 4.26129 9.26824 4.01753 9.06758L3.18057 8.37856C2.82675 8.08729 2.73538 7.58291 2.96452 7.18602L4.04534 5.31399C4.27448 4.9171 4.75698 4.74405 5.18613 4.90483L6.20018 5.28472C6.49648 5.39573 6.82593 5.34487 7.09679 5.18132C7.15715 5.14487 7.21825 5.10952 7.28007 5.0753C7.55654 4.92226 7.76485 4.66262 7.8168 4.35092L7.99473 3.28338Z" stroke="#5E5E5E" stroke-width="1.25" stroke-linecap="round" stroke-linejoin="round"/>
<path d="M12.5001 9.99993C12.5001 11.3806 11.3808 12.4999 10.0001 12.4999C8.61939 12.4999 7.5001 11.3806 7.5001 9.99993C7.5001 8.61922 8.61939 7.49993 10.0001 7.49993C11.3808 7.49993 12.5001 8.61922 12.5001 9.99993Z" stroke="#5E5E5E" stroke-width="1.25" stroke-linecap="round" stroke-linejoin="round"/>
</g>
</g>
</svg>
