<svg width="20" height="20" viewBox="0 0 20 20" fill="none" xmlns="http://www.w3.org/2000/svg">
    <path
        d="M7.50008 14.1666H5.83342C4.72835 14.1666 3.66854 13.7276 2.88714 12.9462C2.10573 12.1648 1.66675 11.105 1.66675 9.99992C1.66675 8.89485 2.10573 7.83504 2.88714 7.05364C3.66854 6.27224 4.72835 5.83325 5.83342 5.83325H7.50008"
        stroke="currentColor" stroke-width="1.25" stroke-linecap="round" stroke-linejoin="round" />
    <path
        d="M12.5 5.83325H14.1667C15.2717 5.83325 16.3315 6.27224 17.1129 7.05364C17.8943 7.83504 18.3333 8.89485 18.3333 9.99992C18.3333 11.105 17.8943 12.1648 17.1129 12.9462C16.3315 13.7276 15.2717 14.1666 14.1667 14.1666H12.5"
        stroke="currentColor" stroke-width="1.25" stroke-linecap="round" stroke-linejoin="round" />
    <path d="M6.66675 10H13.3334" stroke="currentColor" stroke-width="1.25" stroke-linecap="round"
        stroke-linejoin="round" />
</svg>