<svg width="20" height="20" viewBox="0 0 20 20" fill="none" xmlns="http://www.w3.org/2000/svg">
    <path
        d="M3.75004 13.75C2.50004 14.8 2.08337 17.9167 2.08337 17.9167C2.08337 17.9167 5.20004 17.5 6.25004 16.25C6.84171 15.55 6.83337 14.475 6.17504 13.825C5.85113 13.5159 5.42445 13.3372 4.9769 13.3234C4.52934 13.3095 4.09244 13.4615 3.75004 13.75Z"
        stroke="currentColor" stroke-width="1.25" stroke-linecap="round" stroke-linejoin="round" />
    <path
        d="M10 12.5L7.5 10C7.94345 8.84957 8.50184 7.74676 9.16667 6.70838C10.1377 5.15587 11.4897 3.87758 13.0942 2.99512C14.6986 2.11266 16.5022 1.65535 18.3333 1.66671C18.3333 3.93338 17.6833 7.91671 13.3333 10.8334C12.2807 11.499 11.164 12.0573 10 12.5Z"
        stroke="currentColor" stroke-width="1.25" stroke-linecap="round" stroke-linejoin="round" />
    <path
        d="M7.50004 9.99993H3.33337C3.33337 9.99993 3.79171 7.47493 5.00004 6.6666C6.35004 5.7666 9.16671 6.6666 9.16671 6.6666"
        stroke="currentColor" stroke-width="1.25" stroke-linecap="round" stroke-linejoin="round" />
    <path
        d="M10 12.4999V16.6666C10 16.6666 12.525 16.2083 13.3333 14.9999C14.2333 13.6499 13.3333 10.8333 13.3333 10.8333"
        stroke="currentColor" stroke-width="1.25" stroke-linecap="round" stroke-linejoin="round" />
</svg>