<svg width="20" height="20" viewBox="0 0 20 20" fill="none" xmlns="http://www.w3.org/2000/svg">
    <path
        d="M8.33325 10.8332C8.69113 11.3117 9.14772 11.7075 9.67204 11.994C10.1964 12.2805 10.7762 12.4508 11.3721 12.4935C11.9681 12.5362 12.5662 12.4502 13.126 12.2414C13.6858 12.0326 14.1942 11.7058 14.6166 11.2832L17.1166 8.78322C17.8756 7.99738 18.2956 6.94487 18.2861 5.85238C18.2766 4.7599 17.8384 3.71485 17.0658 2.94231C16.2933 2.16978 15.2482 1.73157 14.1558 1.72208C13.0633 1.71259 12.0108 2.13256 11.2249 2.89156L9.79159 4.31656"
        stroke="currentColor" stroke-width="1.25" stroke-linecap="round" stroke-linejoin="round" />
    <path
        d="M11.6666 9.16677C11.3087 8.68833 10.8521 8.29245 10.3278 8.00599C9.80347 7.71953 9.22367 7.54918 8.62771 7.50649C8.03176 7.46381 7.4336 7.5498 6.8738 7.75862C6.314 7.96744 5.80566 8.29421 5.38326 8.71677L2.88326 11.2168C2.12426 12.0026 1.70429 13.0551 1.71378 14.1476C1.72327 15.2401 2.16148 16.2851 2.93401 17.0577C3.70655 17.8302 4.7516 18.2684 5.84408 18.2779C6.93657 18.2874 7.98908 17.8674 8.77492 17.1084L10.1999 15.6834"
        stroke="currentColor" stroke-width="1.25" stroke-linecap="round" stroke-linejoin="round" />
</svg>