<svg width="464" height="293" viewBox="0 0 464 293" fill="none" xmlns="http://www.w3.org/2000/svg">
<g filter="url(#filter0_d_2296_210)">
<g clip-path="url(#clip0_2296_210)">
<rect x="17" y="15.619" width="429.905" height="259.587" rx="28.6603" fill="url(#paint0_linear_2296_210)"/>
<path d="M79.1983 72.1296C79.0291 72.1296 78.5969 73.1445 77.629 75.7286C77.037 77.2978 76.5108 78.745 76.2383 79.3088C76.0127 79.7222 75.6557 80.0417 75.167 80.0417C74.9227 80.0417 74.7066 79.8162 74.5844 79.5531C74.3307 79.0081 72.4231 74.2251 71.6714 72.4585C71.5492 72.1766 71.4741 72.0356 71.3989 72.0356C71.3237 72.0356 71.2861 72.1578 71.2673 72.3551C71.2297 72.6934 71.1452 75.4937 71.1452 76.0387C71.1452 77.0159 71.2485 77.8711 71.3989 78.1999C71.7466 78.8765 72.2634 78.8859 72.2634 79.4403C72.2634 79.7692 72.0849 79.9947 71.5868 79.9947C70.976 79.9947 70.6096 79.9478 70.2713 79.9478C69.8484 79.9478 69.3504 79.9947 68.7302 79.9947C68.2885 79.9947 68.0818 79.7786 68.0818 79.4497C68.0818 78.745 69.0027 78.9047 69.1906 77.4764C69.388 75.8977 69.5477 72.6464 69.5477 71.1899C69.5477 70.6167 69.5289 70.1469 69.5007 69.7992C69.3692 68.3145 68.4577 68.3991 68.4577 67.6755C68.4577 67.356 68.6174 67.1211 69.1155 67.1211C69.4537 67.1211 70.2243 67.1681 70.6847 67.1681C71.7748 67.1681 72.0849 67.2245 72.4137 67.4312C72.7614 67.6473 73.0809 68.1547 73.2595 68.4836C73.5508 69.0192 75.3737 73.37 75.9282 74.6667C75.9657 74.7701 76.0127 74.8359 76.0879 74.8359C76.1349 74.8359 76.1913 74.8077 76.257 74.6761C76.4168 74.2627 78.0612 70.0435 78.7848 68.446C79.0291 67.9292 79.2734 67.6097 79.5553 67.4218C79.8654 67.2338 80.3635 67.1681 81.3313 67.1681C81.6226 67.1681 82.2616 67.1211 82.5999 67.1211C83.0603 67.1211 83.2295 67.3654 83.2295 67.6849C83.2295 68.3803 82.3744 68.3427 82.1958 69.771C82.1489 70.1563 82.1395 70.7389 82.1395 71.1053C82.1395 73.0975 82.3556 76.2642 82.5247 77.4388C82.7221 78.9235 83.643 78.745 83.643 79.4497C83.643 79.7786 83.4362 79.9947 82.9664 79.9947C82.365 79.9947 81.4629 79.9478 81.0494 79.9478C80.4104 79.9478 79.7809 79.9947 79.1701 79.9947C78.6908 79.9947 78.4277 79.7974 78.4277 79.4779C78.4277 78.8483 79.2922 78.8765 79.4896 77.7771C79.5177 77.6173 79.5271 77.3542 79.5271 77.0253C79.5271 76.1796 79.452 74.1123 79.3204 72.4491C79.2922 72.2142 79.2264 72.1296 79.1983 72.1296ZM92.799 72.9377C92.254 74.3285 91.521 76.3864 90.9384 77.7395C89.4537 81.2539 88.4013 84.0354 86.193 84.0354C85.1688 84.0354 84.3794 83.3588 84.3794 82.3345C84.3794 81.4325 84.9808 80.7465 85.6856 80.7465C86.0333 80.7465 86.2494 80.9344 86.4185 81.1505C86.6629 81.4794 86.8414 81.8177 87.1703 81.8177C87.518 81.8177 88.11 81.066 88.11 80.5304C88.11 79.8914 86.7098 76.875 86.193 75.6252C85.7796 74.6479 84.8117 72.2893 84.2761 71.8007C84.0036 71.5282 83.7592 71.3027 83.7592 70.9268C83.7592 70.5979 83.966 70.3724 84.3794 70.3724C84.9244 70.3724 85.3379 70.4194 85.9017 70.4194C86.4185 70.4194 87.0669 70.3724 87.6307 70.3724C88.0442 70.3724 88.2979 70.4851 88.2979 70.9926C88.2979 71.3497 87.7811 71.5752 87.7811 72.1296C87.7811 72.4773 87.9784 73.0505 88.5704 74.5258C89.106 75.8319 89.4725 76.7716 89.6041 76.7716C89.8014 76.7716 90.2055 75.5406 90.6753 74.0747C91.0418 73.0129 91.0982 72.637 91.0982 72.4021C91.0982 71.594 90.3746 71.406 90.3746 70.908C90.3746 70.5697 90.6095 70.3724 90.9196 70.3724C91.3331 70.3724 91.9533 70.4194 92.3291 70.4194C92.7614 70.4194 93.1561 70.3724 93.4568 70.3724C93.889 70.3724 94.0018 70.5979 94.0018 70.861C94.0018 71.5376 93.3816 71.3966 92.799 72.9377ZM99.2155 73.6049C99.2155 70.1657 101.255 66.8486 105.361 66.8486C106.808 66.8486 107.485 67.2996 108.077 67.2996C108.5 67.2996 108.772 67.1023 109.148 67.1023C109.872 67.1023 109.89 67.8258 110.116 68.9441C110.36 70.2126 110.492 70.5227 110.492 70.7858C110.492 71.1899 110.257 71.3778 109.984 71.3778C109.486 71.3778 109.233 70.8046 108.819 70.2126C107.955 69.0005 106.818 68.3051 105.69 68.3051C103.613 68.3051 102.542 70.2502 102.542 72.4867C102.542 75.3809 104.111 77.7207 106.667 77.7207C108.434 77.7207 109.449 76.5931 109.937 75.6722C110.106 75.3997 110.247 75.1742 110.445 75.1742C110.717 75.1742 110.821 75.55 110.821 75.8601C110.821 76.4709 110.633 77.1663 110.238 77.8053C109.43 79.1114 107.757 80.2672 105.38 80.2672C101.414 80.2672 99.2155 77.1287 99.2155 73.6049ZM116.194 71.6879C115.377 71.6879 114.634 72.3927 114.634 74.2627C114.634 75.1366 114.775 76.2548 115.17 77.1099C115.593 77.9932 116.26 78.4161 116.927 78.4161C117.792 78.4161 118.6 77.7865 118.6 76.1326C118.6 75.1742 118.346 73.9902 117.961 73.1538C117.482 72.1766 116.833 71.6879 116.194 71.6879ZM111.731 75.2587C111.731 72.2799 113.713 70.222 116.448 70.222C119.051 70.222 121.381 72.092 121.381 75.4279C121.381 78.5758 119.201 80.1357 116.561 80.1357C113.619 80.1357 111.731 78.0872 111.731 75.2587ZM131.522 71.7255C131.748 71.7255 132.8 70.222 134.632 70.222C136.653 70.222 137.536 71.5376 137.536 73.7928C137.536 75.3433 137.301 76.969 137.301 77.6267C137.301 78.0496 137.442 78.4818 137.733 78.7168C138.062 78.9893 138.354 79.0457 138.354 79.4497C138.354 79.7786 138.119 79.9947 137.574 79.9947C137.094 79.9947 136.643 79.9478 136.155 79.9478C135.525 79.9478 135.328 79.9947 134.736 79.9947C134.341 79.9947 134.2 79.7598 134.2 79.4779C134.2 79.1114 134.341 78.7638 134.416 78.557C134.595 78.0214 134.792 76.2924 134.792 74.6198C134.792 72.9001 134.219 72.1108 133.251 72.1108C132.622 72.1108 131.682 72.7028 131.682 73.9902C131.682 75.5406 131.616 76.969 131.616 77.6267C131.616 78.0496 131.682 78.4725 131.954 78.7168C132.264 78.9893 132.518 79.0457 132.518 79.4497C132.518 79.7786 132.293 79.9947 131.748 79.9947C131.259 79.9947 130.921 79.9478 130.441 79.9478C129.812 79.9478 129.615 79.9947 129.023 79.9947C128.628 79.9947 128.487 79.7598 128.487 79.4779C128.487 79.1114 128.628 78.7638 128.703 78.557C128.882 78.0214 129.041 76.2924 129.041 74.6198C129.041 72.9001 128.487 72.1108 127.519 72.1108C126.843 72.1108 125.931 72.8531 125.931 73.868V77.3636C125.931 78.106 126.006 78.3879 126.269 78.6792C126.523 78.9611 126.824 79.0269 126.824 79.4497C126.824 79.7692 126.645 79.9947 126.11 79.9947C125.593 79.9947 125.132 79.9478 124.653 79.9478C124.052 79.9478 123.497 79.9947 122.839 79.9947C122.398 79.9947 122.247 79.7598 122.247 79.4779C122.247 79.0738 122.586 78.8671 122.755 78.6886C123.197 78.1999 123.262 77.7113 123.262 77.2321V73.1726C123.262 72.6276 122.952 72.4115 122.689 72.2893C122.52 72.1954 122.304 72.0732 122.304 71.7819C122.304 71.3027 122.905 71.2181 123.629 70.908C124.55 70.4851 124.766 70.2784 125.085 70.2784C125.433 70.2784 125.64 70.4288 125.752 70.908C125.837 71.2745 125.884 71.6598 126.025 71.6598C126.232 71.6598 127.284 70.222 128.9 70.222C129.859 70.222 130.601 70.5791 131.099 71.2745C131.315 71.547 131.4 71.7255 131.522 71.7255ZM144.442 72.0826C143.53 72.0826 142.637 73.0411 142.637 75.146C142.637 77.9838 143.427 78.5382 144.338 78.5382C145.287 78.5382 146.227 77.6361 146.227 75.2869C146.227 72.9847 145.447 72.0826 144.442 72.0826ZM149.149 74.8829C149.149 78.0872 147.223 80.1357 144.808 80.1357C143.502 80.1357 143.051 79.4967 142.854 79.4967C142.731 79.4967 142.684 79.6283 142.684 80.0135V81.1975C142.684 81.9963 143.051 82.2124 143.417 82.4849C143.727 82.701 144.122 82.842 144.122 83.2648C144.122 83.5937 143.944 83.8098 143.399 83.8098C142.919 83.8098 141.961 83.7629 141.435 83.7629C140.796 83.7629 140.204 83.8098 139.527 83.8098C139.067 83.8098 138.916 83.5749 138.916 83.3024C138.916 82.889 139.264 82.6822 139.442 82.5037C139.903 82.0151 139.969 81.5358 139.969 81.0472V73.1726C139.969 72.6182 139.621 72.4021 139.339 72.2799C139.142 72.1578 138.973 72.0356 138.973 71.7819C138.973 71.3027 139.555 71.2181 140.279 70.908C141.2 70.4851 141.453 70.2784 141.792 70.2784C142.139 70.2784 142.337 70.4288 142.468 70.908C142.543 71.2745 142.6 71.6598 142.75 71.6598C142.966 71.6598 143.737 70.222 145.588 70.222C147.881 70.222 149.149 72.1672 149.149 74.8829ZM155.785 76.3488C155.785 75.738 155.719 75.597 155.615 75.597C155.07 75.597 154.582 75.6722 154.14 75.8319C153.341 76.1138 152.89 76.6871 152.89 77.3166C152.89 77.9462 153.341 78.3691 154.027 78.3691C155.127 78.3691 155.785 77.5046 155.785 76.3488ZM152.815 74.8453C153.99 74.4694 155.277 74.3942 155.54 74.1969C155.653 74.1123 155.766 73.915 155.766 73.2948C155.766 72.2612 155.315 71.4624 154.328 71.4624C153.501 71.4624 153.06 72.1202 152.815 73.0317C152.674 73.5391 152.458 73.9056 151.838 73.9056C151.199 73.9056 150.579 73.4545 150.579 72.5431C150.579 71.4154 151.941 70.2126 154.347 70.2126C156.687 70.2126 158.519 71.3591 158.519 73.9714C158.519 75.1742 158.416 76.3394 158.416 77.2978C158.416 77.6643 158.538 78.0778 158.961 78.0778C159.158 78.0778 159.252 78.012 159.393 78.012C159.496 78.012 159.581 78.153 159.581 78.3691C159.581 79.3558 158.707 80.1075 157.626 80.1075C156.743 80.1075 156.217 79.788 155.916 79.1772C155.879 79.0926 155.822 79.0081 155.747 79.0081C155.672 79.0081 155.597 79.1114 155.521 79.1866C154.929 79.741 153.943 80.1733 152.947 80.1733C151.359 80.1733 150.128 79.3558 150.128 77.8147C150.128 76.33 151.171 75.3997 152.815 74.8453ZM170.246 73.7928C170.246 75.3433 169.983 76.969 169.983 77.6267C169.983 78.0496 170.133 78.4725 170.443 78.7168C170.791 78.9799 171.082 79.0457 171.082 79.4497C171.082 79.7786 170.857 79.9947 170.302 79.9947C169.804 79.9947 169.372 79.9478 168.836 79.9478C168.207 79.9478 167.943 79.9947 167.351 79.9947C166.947 79.9947 166.797 79.7598 166.797 79.4779C166.797 79.1114 166.966 78.7638 167.032 78.557C167.22 78.0214 167.427 76.2924 167.427 74.6198C167.427 72.9001 166.835 72.1108 165.773 72.1108C164.983 72.1108 164.016 72.8531 164.016 73.868V77.3636C164.016 78.106 164.1 78.3879 164.382 78.6792C164.655 78.9611 164.974 79.0269 164.974 79.4497C164.974 79.7692 164.796 79.9947 164.241 79.9947C163.706 79.9947 163.198 79.9478 162.7 79.9478C162.08 79.9478 161.544 79.9947 160.868 79.9947C160.407 79.9947 160.257 79.7598 160.257 79.4779C160.257 79.0738 160.605 78.8671 160.783 78.6886C161.244 78.1999 161.3 77.7113 161.3 77.2321V73.1726C161.3 72.6276 160.962 72.4021 160.68 72.2799C160.482 72.1578 160.313 72.0356 160.313 71.7819C160.313 71.3027 160.896 71.2181 161.61 70.908C162.54 70.4851 162.794 70.2784 163.123 70.2784C163.471 70.2784 163.668 70.4288 163.799 70.908C163.875 71.2745 163.931 71.6598 164.091 71.6598C164.298 71.6598 165.425 70.222 167.201 70.222C169.268 70.222 170.246 71.5376 170.246 73.7928ZM180.252 72.9377C179.707 74.3285 178.974 76.3864 178.391 77.7395C176.907 81.2539 175.854 84.0354 173.646 84.0354C172.622 84.0354 171.832 83.3588 171.832 82.3345C171.832 81.4325 172.434 80.7465 173.138 80.7465C173.486 80.7465 173.702 80.9344 173.871 81.1505C174.116 81.4794 174.294 81.8177 174.623 81.8177C174.971 81.8177 175.563 81.066 175.563 80.5304C175.563 79.8914 174.163 76.875 173.646 75.6252C173.232 74.6479 172.265 72.2893 171.729 71.8007C171.456 71.5282 171.212 71.3027 171.212 70.9268C171.212 70.5979 171.419 70.3724 171.832 70.3724C172.377 70.3724 172.791 70.4194 173.355 70.4194C173.871 70.4194 174.52 70.3724 175.084 70.3724C175.497 70.3724 175.751 70.4851 175.751 70.9926C175.751 71.3497 175.234 71.5752 175.234 72.1296C175.234 72.4773 175.431 73.0505 176.023 74.5258C176.559 75.8319 176.925 76.7716 177.057 76.7716C177.254 76.7716 177.658 75.5406 178.128 74.0747C178.495 73.0129 178.551 72.637 178.551 72.4021C178.551 71.594 177.827 71.406 177.827 70.908C177.827 70.5697 178.062 70.3724 178.372 70.3724C178.786 70.3724 179.406 70.4194 179.782 70.4194C180.214 70.4194 180.609 70.3724 180.91 70.3724C181.342 70.3724 181.455 70.5979 181.455 70.861C181.455 71.5376 180.834 71.3966 180.252 72.9377Z" fill="black"/>
<path d="M98.7462 103.769H95.3775V93.5782H98.6898C100.212 93.5782 101.443 94.0481 102.383 94.9878C103.322 95.9275 103.792 97.1584 103.792 98.6807C103.792 100.194 103.327 101.42 102.397 102.36C101.467 103.299 100.25 103.769 98.7462 103.769ZM98.5912 94.8468H96.7588V102.486H98.6476C99.7846 102.486 100.687 102.143 101.354 101.457C102.021 100.772 102.355 99.8459 102.355 98.6807C102.355 97.4967 102.016 96.5617 101.34 95.8758C100.673 95.1898 99.7564 94.8468 98.5912 94.8468ZM108.298 103.938C107.283 103.938 106.456 103.605 105.818 102.937C105.188 102.27 104.873 101.401 104.873 100.33C104.873 99.2492 105.183 98.3706 105.803 97.6941C106.433 97.0175 107.246 96.6792 108.242 96.6792C109.219 96.6792 110.004 96.9893 110.596 97.6095C111.188 98.2297 111.484 99.0519 111.484 100.076V100.569L106.156 100.584C106.203 101.307 106.41 101.866 106.776 102.261C107.152 102.646 107.669 102.839 108.326 102.839C109.379 102.839 110.023 102.435 110.258 101.627H111.498C111.329 102.369 110.967 102.942 110.413 103.346C109.858 103.741 109.153 103.938 108.298 103.938ZM108.242 97.7927C107.669 97.7927 107.204 97.9572 106.846 98.2861C106.489 98.6149 106.269 99.0848 106.184 99.6956H110.159C110.159 99.1224 109.985 98.6619 109.637 98.3142C109.29 97.9666 108.824 97.7927 108.242 97.7927ZM114.91 103.938C114.178 103.938 113.6 103.75 113.177 103.374C112.763 102.989 112.557 102.482 112.557 101.852C112.557 101.223 112.777 100.72 113.219 100.344C113.67 99.9587 114.304 99.7332 115.122 99.6674L117.293 99.4982V99.3009C117.293 98.2579 116.752 97.7363 115.672 97.7363C115.117 97.7363 114.685 97.8538 114.375 98.0887C114.074 98.3236 113.924 98.6478 113.924 99.0613H112.768C112.768 98.3471 113.036 97.7739 113.571 97.3417C114.116 96.9 114.835 96.6792 115.728 96.6792C116.611 96.6792 117.307 96.9141 117.814 97.384C118.331 97.8538 118.589 98.5398 118.589 99.4419V103.769H117.462L117.321 102.656C117.142 103.05 116.832 103.365 116.39 103.6C115.958 103.825 115.465 103.938 114.91 103.938ZM115.291 102.909C115.921 102.909 116.414 102.721 116.771 102.345C117.128 101.96 117.307 101.443 117.307 100.795V100.429L115.545 100.569C114.445 100.673 113.896 101.086 113.896 101.81C113.896 102.167 114.018 102.439 114.262 102.627C114.506 102.815 114.849 102.909 115.291 102.909ZM121.777 103.769H120.452V93.395H121.777V103.769ZM124.926 103.769H123.728V93.395H125.053V98.0605C125.278 97.6189 125.607 97.2806 126.039 97.0457C126.481 96.8014 126.989 96.6792 127.562 96.6792C128.53 96.6792 129.295 97.0222 129.859 97.7082C130.432 98.3941 130.719 99.2774 130.719 100.358C130.719 101.42 130.423 102.284 129.831 102.952C129.248 103.609 128.464 103.938 127.477 103.938C126.923 103.938 126.429 103.816 125.997 103.572C125.574 103.327 125.25 102.975 125.025 102.515L124.926 103.769ZM125.067 100.302C125.067 101.035 125.26 101.627 125.645 102.078C126.039 102.519 126.57 102.74 127.238 102.74C127.905 102.74 128.431 102.515 128.816 102.064C129.201 101.613 129.394 101.025 129.394 100.302C129.394 99.5875 129.201 99.0049 128.816 98.5539C128.431 98.1028 127.905 97.8773 127.238 97.8773C126.57 97.8773 126.039 98.1028 125.645 98.5539C125.26 99.0049 125.067 99.5875 125.067 100.302ZM132.743 102.923C132.067 102.247 131.728 101.378 131.728 100.316C131.728 99.2539 132.067 98.3847 132.743 97.7082C133.42 97.0316 134.28 96.6933 135.323 96.6933C136.356 96.6933 137.211 97.0316 137.888 97.7082C138.565 98.3847 138.903 99.2539 138.903 100.316C138.903 101.378 138.565 102.247 137.888 102.923C137.211 103.6 136.356 103.938 135.323 103.938C134.28 103.938 133.42 103.6 132.743 102.923ZM133.688 98.5539C133.274 99.0049 133.067 99.5922 133.067 100.316C133.067 101.039 133.274 101.627 133.688 102.078C134.111 102.529 134.656 102.754 135.323 102.754C135.99 102.754 136.53 102.529 136.944 102.078C137.367 101.617 137.578 101.03 137.578 100.316C137.578 99.6016 137.367 99.019 136.944 98.568C136.53 98.1075 135.99 97.8773 135.323 97.8773C134.656 97.8773 134.111 98.1028 133.688 98.5539ZM140.933 102.923C140.257 102.247 139.919 101.378 139.919 100.316C139.919 99.2539 140.257 98.3847 140.933 97.7082C141.61 97.0316 142.47 96.6933 143.513 96.6933C144.546 96.6933 145.402 97.0316 146.078 97.7082C146.755 98.3847 147.093 99.2539 147.093 100.316C147.093 101.378 146.755 102.247 146.078 102.923C145.402 103.6 144.546 103.938 143.513 103.938C142.47 103.938 141.61 103.6 140.933 102.923ZM141.878 98.5539C141.464 99.0049 141.258 99.5922 141.258 100.316C141.258 101.039 141.464 101.627 141.878 102.078C142.301 102.529 142.846 102.754 143.513 102.754C144.18 102.754 144.72 102.529 145.134 102.078C145.557 101.617 145.768 101.03 145.768 100.316C145.768 99.6016 145.557 99.019 145.134 98.568C144.72 98.1075 144.18 97.8773 143.513 97.8773C142.846 97.8773 142.301 98.1028 141.878 98.5539ZM149.913 103.769H148.588V93.395H149.913V100.118L152.971 96.8765H154.635L151.999 99.6251L154.621 103.769H153.098L151.083 100.584L149.913 101.81V103.769Z" fill="#757575"/>
<rect x="40.5015" y="131.272" width="167.956" height="49.2961" rx="10.8909" fill="#F0F0F0" stroke="#D5D5D5" stroke-width="1.14641" stroke-dasharray="5.73 5.73"/>
<rect x="40.406" y="192.128" width="168.147" height="49.4872" rx="10.9864" fill="#F7F3CE" stroke="#EDB408" stroke-width="0.955344"/>
<g clip-path="url(#clip1_2296_210)">
<path d="M84.5412 213.458C84.3436 212.864 83.8012 212.442 83.1596 212.386L74.444 211.617L70.9977 203.783C70.7435 203.209 70.1648 202.837 69.5218 202.837C68.8788 202.837 68.3001 203.209 68.0459 203.785L64.5996 211.617L55.8826 212.386C55.2421 212.443 54.7012 212.864 54.5024 213.458C54.3035 214.052 54.4872 214.703 54.9717 215.113L61.5596 220.725L59.617 229.035C59.4748 229.647 59.719 230.278 60.2411 230.645C60.5217 230.842 60.85 230.942 61.1811 230.942C61.4665 230.942 61.7497 230.867 62.0038 230.719L69.5218 226.356L77.037 230.719C77.587 231.041 78.2802 231.011 78.8011 230.645C79.3234 230.277 79.5674 229.645 79.4252 229.035L77.4826 220.725L84.0706 215.115C84.5551 214.703 84.7401 214.053 84.5412 213.458Z" fill="#FFC107"/>
</g>
<rect x="97.9069" y="208.073" width="62.8089" height="7.03842" rx="3.51921" fill="#FFC107"/>
<rect x="97.9069" y="219.804" width="76.0955" height="7.03842" rx="3.51921" fill="#FFC107"/>
<path d="M307.936 71.1241C307.936 69.7334 306.958 68.7749 305.549 68.7749C304.553 68.7749 304.365 68.8971 304.365 70.0435V71.9698C304.365 73.2196 304.872 73.4452 305.896 73.4452C307.193 73.4452 307.936 72.5618 307.936 71.1241ZM304.393 75.738V77.0911C304.393 77.9932 304.825 78.3503 305.455 78.6228C305.896 78.8201 306.291 78.9893 306.291 79.3745C306.291 79.8444 305.887 79.9947 305.286 79.9947C304.731 79.9947 303.519 79.9478 302.908 79.9478C302.26 79.9478 301.452 79.9947 301.001 79.9947C300.484 79.9947 300.258 79.788 300.258 79.4779C300.258 78.8483 301.151 78.8765 301.301 77.8147C301.386 77.2791 301.414 75.0896 301.414 73.2666C301.414 71.9886 301.405 70.2032 301.377 69.7992C301.254 68.3145 300.333 68.3991 300.333 67.6755C300.333 67.3654 300.484 67.1211 301.01 67.1211C301.959 67.1211 302.279 67.1681 303.378 67.1681C304.412 67.1681 305.521 67.1023 306.705 67.1023C309.42 67.1023 311.187 68.6246 311.187 70.9644C311.187 73.2196 309.777 75.1272 306.62 75.1272C305.718 75.1272 305.229 74.9862 304.835 74.9862C304.43 74.9862 304.393 75.1742 304.393 75.738ZM317.344 76.3488C317.344 75.738 317.278 75.597 317.175 75.597C316.63 75.597 316.141 75.6722 315.699 75.8319C314.901 76.1138 314.45 76.6871 314.45 77.3166C314.45 77.9462 314.901 78.3691 315.587 78.3691C316.686 78.3691 317.344 77.5046 317.344 76.3488ZM314.375 74.8453C315.549 74.4694 316.837 74.3942 317.1 74.1969C317.212 74.1123 317.325 73.915 317.325 73.2948C317.325 72.2612 316.874 71.4624 315.887 71.4624C315.061 71.4624 314.619 72.1202 314.375 73.0317C314.234 73.5391 314.017 73.9056 313.397 73.9056C312.758 73.9056 312.138 73.4545 312.138 72.5431C312.138 71.4154 313.501 70.2126 315.906 70.2126C318.246 70.2126 320.078 71.3591 320.078 73.9714C320.078 75.1742 319.975 76.3394 319.975 77.2978C319.975 77.6643 320.097 78.0778 320.52 78.0778C320.717 78.0778 320.811 78.012 320.952 78.012C321.056 78.012 321.14 78.153 321.14 78.3691C321.14 79.3558 320.266 80.1075 319.186 80.1075C318.302 80.1075 317.776 79.788 317.475 79.1772C317.438 79.0926 317.382 79.0081 317.306 79.0081C317.231 79.0081 317.156 79.1114 317.081 79.1866C316.489 79.741 315.502 80.1733 314.506 80.1733C312.918 80.1733 311.687 79.3558 311.687 77.8147C311.687 76.33 312.73 75.3997 314.375 74.8453ZM326.9 72.3927C326.148 72.3927 325.575 73.3794 325.575 74.2909V77.2415C325.575 77.9838 325.725 78.2939 326.252 78.6886C326.562 78.9235 327.097 79.0175 327.097 79.4497C327.097 79.7692 326.928 79.9947 326.374 79.9947C325.829 79.9947 325.19 79.9478 324.259 79.9478C323.62 79.9478 323.226 79.9947 322.427 79.9947C321.967 79.9947 321.816 79.7598 321.816 79.4779C321.816 79.0738 322.164 78.8671 322.342 78.6886C322.803 78.1999 322.859 77.7113 322.859 77.2321V73.1726C322.859 72.6276 322.521 72.4021 322.239 72.2799C322.042 72.1578 321.873 72.0356 321.873 71.7819C321.873 71.3027 322.455 71.2181 323.169 70.908C324.1 70.4851 324.353 70.2784 324.682 70.2784C325.03 70.2784 325.227 70.4288 325.359 70.908C325.434 71.2745 325.49 71.6598 325.65 71.6598C325.857 71.6598 326.759 70.222 328.272 70.222C329.193 70.222 330.067 70.7671 330.067 72.2612C330.067 73.2948 329.315 74.3472 328.385 74.3472C327.764 74.3472 327.736 73.962 327.595 73.3136C327.473 72.7216 327.229 72.3927 326.9 72.3927ZM334.366 72.4397C334.328 72.825 334.281 74.9205 334.281 75.8977C334.281 76.969 334.563 77.9462 335.597 77.9462C336.114 77.9462 336.471 77.6455 336.706 77.4482C336.818 77.3354 336.893 77.2791 336.997 77.2791C337.138 77.2791 337.279 77.3824 337.279 77.7301C337.279 77.9274 337.213 78.1812 337.081 78.4349C336.724 79.1678 335.794 80.1357 334.168 80.1357C332.317 80.1357 331.509 78.8859 331.509 76.734C331.509 75.8789 331.631 73.8774 331.631 72.7968C331.631 72.4115 331.528 72.2142 331.218 72.1578C330.635 72.092 330.278 71.998 330.278 71.6316C330.278 71.3027 330.363 70.9832 330.72 70.8046C331.34 70.4945 331.96 70.0905 332.411 69.6394C333.163 68.8595 333.266 67.9574 333.849 67.9574C334.187 67.9574 334.45 68.2205 334.45 68.7937C334.45 69.1884 334.356 70.4758 334.356 70.5603C334.356 70.6073 334.366 70.6355 334.441 70.6355C334.629 70.6355 336.067 70.5509 336.311 70.5509C336.734 70.5509 336.987 70.6731 336.987 71.1899C336.987 71.5282 336.799 71.998 336.602 72.2142C336.546 72.2705 336.414 72.3363 336.236 72.3363C336.029 72.3363 334.807 72.2612 334.525 72.2612C334.469 72.2612 334.375 72.2799 334.366 72.4397ZM347.919 73.7928C347.919 75.3433 347.656 76.969 347.656 77.6267C347.656 78.0496 347.806 78.4725 348.116 78.7168C348.464 78.9799 348.755 79.0457 348.755 79.4497C348.755 79.7786 348.53 79.9947 347.976 79.9947C347.478 79.9947 347.045 79.9478 346.51 79.9478C345.88 79.9478 345.617 79.9947 345.025 79.9947C344.621 79.9947 344.471 79.7598 344.471 79.4779C344.471 79.1114 344.64 78.7638 344.705 78.557C344.893 78.0214 345.1 76.2924 345.1 74.6198C345.1 72.9001 344.508 72.1108 343.446 72.1108C342.657 72.1108 341.689 72.8531 341.689 73.868V77.3636C341.689 78.106 341.774 78.3879 342.056 78.6792C342.328 78.9611 342.648 79.0269 342.648 79.4497C342.648 79.7692 342.469 79.9947 341.915 79.9947C341.379 79.9947 340.872 79.9478 340.373 79.9478C339.753 79.9478 339.218 79.9947 338.541 79.9947C338.081 79.9947 337.93 79.7598 337.93 79.4779C337.93 79.0738 338.278 78.8671 338.457 78.6886C338.917 78.1999 338.973 77.7113 338.973 77.2321V73.1726C338.973 72.6276 338.635 72.4021 338.353 72.2799C338.156 72.1578 337.987 72.0356 337.987 71.7819C337.987 71.3027 338.569 71.2181 339.283 70.908C340.214 70.4851 340.467 70.2784 340.796 70.2784C341.144 70.2784 341.341 70.4288 341.473 70.908C341.548 71.2745 341.604 71.6598 341.764 71.6598C341.971 71.6598 343.099 70.222 344.875 70.222C346.942 70.222 347.919 71.5376 347.919 73.7928ZM355.646 73.1914C355.646 72.3175 355.044 71.6598 354.227 71.6598C353.108 71.6598 352.338 72.7968 352.338 73.962C352.338 74.3097 352.451 74.5164 352.704 74.5164C353.296 74.5164 354.819 74.2627 355.401 73.7458C355.561 73.5955 355.646 73.4264 355.646 73.1914ZM357.403 74.8829C356.322 75.4937 354.086 75.7286 352.93 75.7944C352.751 75.8038 352.686 75.8413 352.686 75.9729C352.686 76.6683 353.362 77.9556 355.091 77.9556C356.425 77.9556 357.224 77.3072 357.703 76.6871C357.826 76.5649 357.967 76.4803 358.079 76.4803C358.248 76.4803 358.361 76.6495 358.361 77.0159C358.361 78.2469 356.914 80.1545 354.245 80.1545C351.351 80.1545 349.575 78.1905 349.575 75.4091C349.575 72.6182 351.539 70.222 354.499 70.222C357.074 70.222 358.201 72.1202 358.201 73.6237C358.201 74.2627 357.882 74.6292 357.403 74.8829ZM364.285 72.3927C363.534 72.3927 362.96 73.3794 362.96 74.2909V77.2415C362.96 77.9838 363.111 78.2939 363.637 78.6886C363.947 78.9235 364.483 79.0175 364.483 79.4497C364.483 79.7692 364.314 79.9947 363.759 79.9947C363.214 79.9947 362.575 79.9478 361.645 79.9478C361.006 79.9478 360.611 79.9947 359.812 79.9947C359.352 79.9947 359.202 79.7598 359.202 79.4779C359.202 79.0738 359.549 78.8671 359.728 78.6886C360.188 78.1999 360.245 77.7113 360.245 77.2321V73.1726C360.245 72.6276 359.906 72.4021 359.625 72.2799C359.427 72.1578 359.258 72.0356 359.258 71.7819C359.258 71.3027 359.841 71.2181 360.555 70.908C361.485 70.4851 361.739 70.2784 362.068 70.2784C362.415 70.2784 362.613 70.4288 362.744 70.908C362.819 71.2745 362.876 71.6598 363.036 71.6598C363.242 71.6598 364.144 70.222 365.657 70.222C366.578 70.222 367.452 70.7671 367.452 72.2612C367.452 73.2948 366.7 74.3472 365.77 74.3472C365.15 74.3472 365.122 73.962 364.981 73.3136C364.859 72.7216 364.614 72.3927 364.285 72.3927ZM372.136 70.2032C373.095 70.2032 374.457 70.3912 374.993 70.9456C375.416 71.3778 375.538 71.9229 375.538 72.6652C375.538 73.182 375.284 73.4639 374.965 73.4639C374.645 73.4639 374.41 73.1632 374.129 72.8344C373.668 72.2893 373.029 71.5564 371.948 71.5564C371.187 71.5564 370.793 71.9792 370.793 72.5055C370.793 73.2572 371.544 73.4639 372.945 73.9526C374.457 74.4694 375.97 75.1272 375.97 77.1381C375.97 78.9893 374.335 80.2109 371.986 80.2109C370.934 80.2109 369.336 79.9008 368.65 79.1302C368.359 78.8295 368.152 78.1905 368.152 77.3824C368.152 76.875 368.359 76.5649 368.744 76.5649C368.96 76.5649 369.148 76.7622 369.355 77.0253C369.862 77.6549 370.605 78.6416 372.005 78.6416C372.757 78.6416 373.17 78.2375 373.17 77.6455C373.17 76.7904 372.108 76.5931 370.774 76.0011C369.637 75.4937 368.378 74.9298 368.378 73.1914C368.378 71.3591 370.125 70.2032 372.136 70.2032Z" fill="black"/>
<path d="M312.273 103.769H308.904V93.5782H312.216C313.738 93.5782 314.969 94.0481 315.909 94.9878C316.849 95.9275 317.319 97.1584 317.319 98.6807C317.319 100.194 316.854 101.42 315.923 102.36C314.993 103.299 313.776 103.769 312.273 103.769ZM312.118 94.8468H310.285V102.486H312.174C313.311 102.486 314.213 102.143 314.88 101.457C315.547 100.772 315.881 99.8459 315.881 98.6807C315.881 97.4967 315.543 96.5617 314.866 95.8758C314.199 95.1898 313.283 94.8468 312.118 94.8468ZM321.825 103.938C320.81 103.938 319.983 103.605 319.344 102.937C318.714 102.27 318.4 101.401 318.4 100.33C318.4 99.2492 318.71 98.3706 319.33 97.6941C319.959 97.0175 320.772 96.6792 321.768 96.6792C322.746 96.6792 323.53 96.9893 324.122 97.6095C324.714 98.2297 325.01 99.0519 325.01 100.076V100.569L319.682 100.584C319.729 101.307 319.936 101.866 320.302 102.261C320.678 102.646 321.195 102.839 321.853 102.839C322.905 102.839 323.549 102.435 323.784 101.627H325.024C324.855 102.369 324.493 102.942 323.939 103.346C323.385 103.741 322.68 103.938 321.825 103.938ZM321.768 97.7927C321.195 97.7927 320.73 97.9572 320.373 98.2861C320.016 98.6149 319.795 99.0848 319.71 99.6956H323.685C323.685 99.1224 323.511 98.6619 323.164 98.3142C322.816 97.9666 322.351 97.7927 321.768 97.7927ZM328.437 103.938C327.704 103.938 327.126 103.75 326.703 103.374C326.29 102.989 326.083 102.482 326.083 101.852C326.083 101.223 326.304 100.72 326.745 100.344C327.196 99.9587 327.831 99.7332 328.648 99.6674L330.819 99.4982V99.3009C330.819 98.2579 330.279 97.7363 329.198 97.7363C328.644 97.7363 328.211 97.8538 327.901 98.0887C327.601 98.3236 327.45 98.6478 327.45 99.0613H326.294C326.294 98.3471 326.562 97.7739 327.098 97.3417C327.643 96.9 328.362 96.6792 329.254 96.6792C330.138 96.6792 330.833 96.9141 331.34 97.384C331.857 97.8538 332.116 98.5398 332.116 99.4419V103.769H330.988L330.847 102.656C330.669 103.05 330.359 103.365 329.917 103.6C329.485 103.825 328.991 103.938 328.437 103.938ZM328.817 102.909C329.447 102.909 329.94 102.721 330.297 102.345C330.655 101.96 330.833 101.443 330.833 100.795V100.429L329.071 100.569C327.972 100.673 327.422 101.086 327.422 101.81C327.422 102.167 327.544 102.439 327.788 102.627C328.033 102.815 328.376 102.909 328.817 102.909ZM335.304 103.769H333.979V93.395H335.304V103.769ZM338.452 103.769H337.254V93.395H338.579V98.0605C338.805 97.6189 339.134 97.2806 339.566 97.0457C340.007 96.8014 340.515 96.6792 341.088 96.6792C342.056 96.6792 342.822 97.0222 343.386 97.7082C343.959 98.3941 344.245 99.2774 344.245 100.358C344.245 101.42 343.949 102.284 343.357 102.952C342.775 103.609 341.99 103.938 341.004 103.938C340.449 103.938 339.956 103.816 339.524 103.572C339.101 103.327 338.776 102.975 338.551 102.515L338.452 103.769ZM338.593 100.302C338.593 101.035 338.786 101.627 339.171 102.078C339.566 102.519 340.097 102.74 340.764 102.74C341.431 102.74 341.957 102.515 342.343 102.064C342.728 101.613 342.92 101.025 342.92 100.302C342.92 99.5875 342.728 99.0049 342.343 98.5539C341.957 98.1028 341.431 97.8773 340.764 97.8773C340.097 97.8773 339.566 98.1028 339.171 98.5539C338.786 99.0049 338.593 99.5875 338.593 100.302ZM346.27 102.923C345.593 102.247 345.255 101.378 345.255 100.316C345.255 99.2539 345.593 98.3847 346.27 97.7082C346.946 97.0316 347.806 96.6933 348.849 96.6933C349.883 96.6933 350.738 97.0316 351.414 97.7082C352.091 98.3847 352.429 99.2539 352.429 100.316C352.429 101.378 352.091 102.247 351.414 102.923C350.738 103.6 349.883 103.938 348.849 103.938C347.806 103.938 346.946 103.6 346.27 102.923ZM347.214 98.5539C346.801 99.0049 346.594 99.5922 346.594 100.316C346.594 101.039 346.801 101.627 347.214 102.078C347.637 102.529 348.182 102.754 348.849 102.754C349.516 102.754 350.057 102.529 350.47 102.078C350.893 101.617 351.104 101.03 351.104 100.316C351.104 99.6016 350.893 99.019 350.47 98.568C350.057 98.1075 349.516 97.8773 348.849 97.8773C348.182 97.8773 347.637 98.1028 347.214 98.5539ZM354.46 102.923C353.783 102.247 353.445 101.378 353.445 100.316C353.445 99.2539 353.783 98.3847 354.46 97.7082C355.136 97.0316 355.996 96.6933 357.039 96.6933C358.073 96.6933 358.928 97.0316 359.605 97.7082C360.281 98.3847 360.619 99.2539 360.619 100.316C360.619 101.378 360.281 102.247 359.605 102.923C358.928 103.6 358.073 103.938 357.039 103.938C355.996 103.938 355.136 103.6 354.46 102.923ZM355.404 98.5539C354.991 99.0049 354.784 99.5922 354.784 100.316C354.784 101.039 354.991 101.627 355.404 102.078C355.827 102.529 356.372 102.754 357.039 102.754C357.706 102.754 358.247 102.529 358.66 102.078C359.083 101.617 359.294 101.03 359.294 100.316C359.294 99.6016 359.083 99.019 358.66 98.568C358.247 98.1075 357.706 97.8773 357.039 97.8773C356.372 97.8773 355.827 98.1028 355.404 98.5539ZM363.439 103.769H362.114V93.395H363.439V100.118L366.498 96.8765H368.161L365.525 99.6251L368.147 103.769H366.625L364.609 100.584L363.439 101.81V103.769Z" fill="#757575"/>
<rect x="254.41" y="131.177" width="168.147" height="49.4872" rx="10.9864" fill="#F7F3CE" stroke="#EDB408" stroke-width="0.955344"/>
<g clip-path="url(#clip2_2296_210)">
<path d="M298.545 152.506C298.347 151.913 297.805 151.491 297.163 151.435L288.448 150.666L285.001 142.832C284.747 142.258 284.168 141.886 283.525 141.886C282.882 141.886 282.304 142.258 282.049 142.833L278.603 150.666L269.886 151.435C269.246 151.492 268.705 151.913 268.506 152.506C268.307 153.1 268.491 153.752 268.975 154.162L275.563 159.773L273.621 168.084C273.478 168.695 273.723 169.327 274.245 169.693C274.525 169.89 274.854 169.991 275.185 169.991C275.47 169.991 275.753 169.916 276.007 169.768L283.525 165.404L291.041 169.768C291.591 170.089 292.284 170.06 292.805 169.693C293.327 169.326 293.571 168.694 293.429 168.084L291.486 159.773L298.074 154.163C298.559 153.752 298.744 153.101 298.545 152.506Z" fill="#FFC107"/>
</g>
<rect x="311.911" y="147.122" width="62.8089" height="7.03842" rx="3.51921" fill="#FFC107"/>
<rect x="311.911" y="158.853" width="76.0955" height="7.03842" rx="3.51921" fill="#FFC107"/>
<rect x="254.505" y="192.223" width="167.956" height="49.2961" rx="10.8909" fill="#F0F0F0" stroke="#D5D5D5" stroke-width="1.14641" stroke-dasharray="5.73 5.73"/>
<rect x="-7.36127" y="7.02087" width="477.672" height="33.437" fill="#EDB408"/>
<path d="M248.099 218.825C248.099 220.936 249.81 222.647 251.921 222.647C254.031 222.647 255.742 220.936 255.742 218.825C255.742 216.715 254.031 215.004 251.921 215.004C249.81 215.004 248.099 216.715 248.099 218.825ZM208.163 153.05C208.163 155.16 209.874 156.871 211.984 156.871C214.095 156.871 215.806 155.16 215.806 153.05C215.806 150.939 214.095 149.228 211.984 149.228C209.874 149.228 208.163 150.939 208.163 153.05ZM251.962 218.11C247.619 217.857 244.255 216.663 241.612 214.799C238.967 212.933 237.002 210.365 235.507 207.298C232.503 201.132 231.449 193.063 230.561 184.924C229.681 176.856 228.964 168.693 226.552 162.596C225.34 159.529 223.677 156.924 221.3 155.102C218.913 153.272 215.865 152.279 211.974 152.333L211.994 153.766C215.615 153.716 218.335 154.635 220.429 156.24C222.533 157.853 224.066 160.205 225.22 163.123C227.542 168.994 228.245 176.912 229.136 185.079C230.019 193.176 231.087 201.499 234.219 207.926C235.792 211.155 237.899 213.934 240.786 215.97C243.677 218.009 247.308 219.274 251.879 219.541L251.962 218.11Z" fill="url(#paint1_linear_2296_210)"/>
<path d="M248.193 154.864C248.193 152.754 249.904 151.043 252.015 151.043C254.125 151.043 255.836 152.754 255.836 154.864C255.836 156.975 254.125 158.686 252.015 158.686C249.904 158.686 248.193 156.975 248.193 154.864ZM208.069 220.781C208.069 218.671 209.78 216.96 211.89 216.96C214.001 216.96 215.712 218.671 215.712 220.781C215.712 222.892 214.001 224.602 211.89 224.602C209.78 224.602 208.069 222.892 208.069 220.781ZM252.056 155.58C247.692 155.834 244.311 157.03 241.655 158.898C238.997 160.769 237.022 163.342 235.52 166.416C232.502 172.595 231.443 180.681 230.551 188.839C229.667 196.924 228.946 205.104 226.524 211.215C225.305 214.288 223.635 216.898 221.247 218.723C218.849 220.556 215.788 221.551 211.88 221.498L211.9 220.065C215.539 220.115 218.273 219.193 220.377 217.585C222.492 215.968 224.032 213.61 225.192 210.686C227.525 204.802 228.231 196.868 229.126 188.683C230.014 180.569 231.086 172.228 234.233 165.787C235.814 162.551 237.93 159.767 240.831 157.726C243.734 155.683 247.381 154.416 251.973 154.149L252.056 155.58Z" fill="url(#paint2_linear_2296_210)"/>
</g>
</g>
<defs>
<filter id="filter0_d_2296_210" x="0.555555" y="0.349177" width="462.794" height="292.476" filterUnits="userSpaceOnUse" color-interpolation-filters="sRGB">
<feFlood flood-opacity="0" result="BackgroundImageFix"/>
<feColorMatrix in="SourceAlpha" type="matrix" values="0 0 0 0 0 0 0 0 0 0 0 0 0 0 0 0 0 0 127 0" result="hardAlpha"/>
<feOffset dy="1.1746"/>
<feGaussianBlur stdDeviation="8.22222"/>
<feComposite in2="hardAlpha" operator="out"/>
<feColorMatrix type="matrix" values="0 0 0 0 0 0 0 0 0 0 0 0 0 0 0 0 0 0 0.1 0"/>
<feBlend mode="normal" in2="BackgroundImageFix" result="effect1_dropShadow_2296_210"/>
<feBlend mode="normal" in="SourceGraphic" in2="effect1_dropShadow_2296_210" result="shape"/>
</filter>
<linearGradient id="paint0_linear_2296_210" x1="231.952" y1="15.619" x2="231.952" y2="275.206" gradientUnits="userSpaceOnUse">
<stop stop-color="white"/>
<stop offset="1" stop-color="white"/>
</linearGradient>
<linearGradient id="paint1_linear_2296_210" x1="231.952" y1="153.048" x2="231.952" y2="218.825" gradientUnits="userSpaceOnUse">
<stop stop-color="#FFC107"/>
<stop offset="1" stop-color="#F79400"/>
</linearGradient>
<linearGradient id="paint2_linear_2296_210" x1="231.952" y1="220.783" x2="231.952" y2="154.864" gradientUnits="userSpaceOnUse">
<stop stop-color="#FFC107"/>
<stop offset="1" stop-color="#F79400"/>
</linearGradient>
<clipPath id="clip0_2296_210">
<rect x="17" y="15.619" width="429.905" height="259.587" rx="28.6603" fill="white"/>
</clipPath>
<clipPath id="clip1_2296_210">
<rect width="30.1966" height="29.3267" fill="white" transform="translate(54.4231 202.208)"/>
</clipPath>
<clipPath id="clip2_2296_210">
<rect width="30.1966" height="29.3267" fill="white" transform="translate(268.427 141.257)"/>
</clipPath>
</defs>
</svg>
