<svg width="500" height="333" viewBox="0 0 500 333" fill="none" xmlns="http://www.w3.org/2000/svg">
    <g clip-path="url(#clip0_2653_5607)">
        <rect width="500" height="333" rx="30" fill="white" />
        <rect x="-1" width="500" height="35" fill="#EDB408" />
        <path
            d="M74.2221 79.1818C74.0529 79.1818 73.6207 80.1967 72.6528 82.7808C72.0608 84.3501 71.5346 85.7972 71.2621 86.361C71.0365 86.7745 70.6795 87.094 70.1908 87.094C69.9465 87.094 69.7304 86.8684 69.6082 86.6053C69.3545 86.0603 67.4469 81.2773 66.6952 79.5107C66.573 79.2288 66.4979 79.0879 66.4227 79.0879C66.3475 79.0879 66.3099 79.21 66.2911 79.4074C66.2535 79.7457 66.169 82.5459 66.169 83.0909C66.169 84.0682 66.2723 84.9233 66.4227 85.2522C66.7704 85.9288 67.2872 85.9382 67.2872 86.4926C67.2872 86.8215 67.1087 87.047 66.6106 87.047C65.9998 87.047 65.6334 87 65.2951 87C64.8722 87 64.3742 87.047 63.754 87.047C63.3123 87.047 63.1056 86.8309 63.1056 86.502C63.1056 85.7972 64.0265 85.957 64.2144 84.5286C64.4118 82.95 64.5715 79.6987 64.5715 78.2422C64.5715 77.669 64.5527 77.1991 64.5245 76.8514C64.393 75.3667 63.4815 75.4513 63.4815 74.7277C63.4815 74.4083 63.6412 74.1733 64.1393 74.1733C64.4775 74.1733 65.2481 74.2203 65.7085 74.2203C66.7986 74.2203 67.1087 74.2767 67.4375 74.4834C67.7852 74.6996 68.1047 75.207 68.2833 75.5359C68.5746 76.0715 70.3975 80.4222 70.952 81.719C70.9895 81.8223 71.0365 81.8881 71.1117 81.8881C71.1587 81.8881 71.2151 81.8599 71.2809 81.7284C71.4406 81.3149 73.085 77.0957 73.8086 75.4983C74.0529 74.9815 74.2972 74.662 74.5791 74.474C74.8892 74.2861 75.3873 74.2203 76.3551 74.2203C76.6464 74.2203 77.2854 74.1733 77.6237 74.1733C78.0842 74.1733 78.2533 74.4176 78.2533 74.7371C78.2533 75.4325 77.3982 75.3949 77.2196 76.8232C77.1727 77.2085 77.1633 77.7911 77.1633 78.1576C77.1633 80.1497 77.3794 83.3164 77.5485 84.491C77.7459 85.9757 78.6668 85.7972 78.6668 86.502C78.6668 86.8309 78.46 87.047 77.9902 87.047C77.3888 87.047 76.4867 87 76.0732 87C75.4342 87 74.8047 87.047 74.1939 87.047C73.7146 87.047 73.4515 86.8497 73.4515 86.5302C73.4515 85.9006 74.316 85.9288 74.5134 84.8293C74.5415 84.6696 74.5509 84.4065 74.5509 84.0776C74.5509 83.2319 74.4758 81.1646 74.3442 79.5013C74.316 79.2664 74.2502 79.1818 74.2221 79.1818ZM87.8228 79.99C87.2778 81.3807 86.5448 83.4386 85.9622 84.7917C84.4775 88.3062 83.4251 91.0876 81.2168 91.0876C80.1926 91.0876 79.4032 90.411 79.4032 89.3868C79.4032 88.4847 80.0046 87.7987 80.7094 87.7987C81.0571 87.7987 81.2732 87.9867 81.4423 88.2028C81.6867 88.5317 81.8652 88.87 82.1941 88.87C82.5418 88.87 83.1338 88.1182 83.1338 87.5826C83.1338 86.9436 81.7336 83.9272 81.2168 82.6775C80.8034 81.7002 79.8355 79.3416 79.2999 78.853C79.0274 78.5804 78.783 78.3549 78.783 77.979C78.783 77.6502 78.9898 77.4246 79.4032 77.4246C79.9482 77.4246 80.3617 77.4716 80.9255 77.4716C81.4423 77.4716 82.0907 77.4246 82.6545 77.4246C83.068 77.4246 83.3217 77.5374 83.3217 78.0448C83.3217 78.4019 82.8049 78.6274 82.8049 79.1818C82.8049 79.5295 83.0022 80.1027 83.5942 81.578C84.1298 82.8842 84.4963 83.8239 84.6279 83.8239C84.8252 83.8239 85.2293 82.5929 85.6991 81.127C86.0656 80.0651 86.122 79.6893 86.122 79.4543C86.122 78.6462 85.3984 78.4583 85.3984 77.9603C85.3984 77.622 85.6333 77.4246 85.9434 77.4246C86.3569 77.4246 86.9771 77.4716 87.3529 77.4716C87.7852 77.4716 88.1799 77.4246 88.4806 77.4246C88.9128 77.4246 89.0256 77.6502 89.0256 77.9133C89.0256 78.5898 88.4054 78.4489 87.8228 79.99ZM94.2393 80.6571C94.2393 77.2179 96.2785 73.9008 100.385 73.9008C101.832 73.9008 102.509 74.3519 103.101 74.3519C103.523 74.3519 103.796 74.1545 104.172 74.1545C104.895 74.1545 104.914 74.8781 105.14 75.9963C105.384 77.2649 105.516 77.575 105.516 77.8381C105.516 78.2422 105.281 78.4301 105.008 78.4301C104.51 78.4301 104.256 77.8569 103.843 77.2649C102.978 76.0527 101.841 75.3573 100.714 75.3573C98.6371 75.3573 97.5658 77.3025 97.5658 79.5389C97.5658 82.4331 99.1351 84.773 101.691 84.773C103.458 84.773 104.472 83.6453 104.961 82.7244C105.13 82.4519 105.271 82.2264 105.469 82.2264C105.741 82.2264 105.844 82.6023 105.844 82.9124C105.844 83.5232 105.656 84.2185 105.262 84.8575C104.454 86.1637 102.781 87.3195 100.404 87.3195C96.4382 87.3195 94.2393 84.181 94.2393 80.6571ZM111.218 78.7402C110.4 78.7402 109.658 79.445 109.658 81.3149C109.658 82.1888 109.799 83.307 110.194 84.1622C110.617 85.0455 111.284 85.4683 111.951 85.4683C112.815 85.4683 113.624 84.8387 113.624 83.1849C113.624 82.2264 113.37 81.0424 112.985 80.2061C112.505 79.2288 111.857 78.7402 111.218 78.7402ZM106.754 82.311C106.754 79.3322 108.737 77.2743 111.472 77.2743C114.075 77.2743 116.405 79.1443 116.405 82.4801C116.405 85.6281 114.225 87.1879 111.584 87.1879C108.643 87.1879 106.754 85.1394 106.754 82.311ZM126.546 78.7778C126.771 78.7778 127.824 77.2743 129.656 77.2743C131.677 77.2743 132.56 78.5898 132.56 80.8451C132.56 82.3956 132.325 84.0212 132.325 84.679C132.325 85.1018 132.466 85.5341 132.757 85.769C133.086 86.0415 133.377 86.0979 133.377 86.502C133.377 86.8309 133.143 87.047 132.597 87.047C132.118 87.047 131.667 87 131.179 87C130.549 87 130.352 87.047 129.76 87.047C129.365 87.047 129.224 86.8121 129.224 86.5302C129.224 86.1637 129.365 85.816 129.44 85.6093C129.619 85.0737 129.816 83.3446 129.816 81.672C129.816 79.9524 129.243 79.163 128.275 79.163C127.645 79.163 126.706 79.755 126.706 81.0424C126.706 82.5929 126.64 84.0212 126.64 84.679C126.64 85.1018 126.706 85.5247 126.978 85.769C127.288 86.0415 127.542 86.0979 127.542 86.502C127.542 86.8309 127.316 87.047 126.771 87.047C126.283 87.047 125.945 87 125.465 87C124.836 87 124.638 87.047 124.046 87.047C123.652 87.047 123.511 86.8121 123.511 86.5302C123.511 86.1637 123.652 85.816 123.727 85.6093C123.905 85.0737 124.065 83.3446 124.065 81.672C124.065 79.9524 123.511 79.163 122.543 79.163C121.866 79.163 120.955 79.9054 120.955 80.9203V84.4159C120.955 85.1582 121.03 85.4401 121.293 85.7314C121.547 86.0133 121.848 86.0791 121.848 86.502C121.848 86.8215 121.669 87.047 121.133 87.047C120.617 87.047 120.156 87 119.677 87C119.075 87 118.521 87.047 117.863 87.047C117.422 87.047 117.271 86.8121 117.271 86.5302C117.271 86.1261 117.61 85.9194 117.779 85.7408C118.22 85.2522 118.286 84.7636 118.286 84.2843V80.2249C118.286 79.6799 117.976 79.4637 117.713 79.3416C117.544 79.2476 117.328 79.1255 117.328 78.8342C117.328 78.3549 117.929 78.2703 118.653 77.9603C119.573 77.5374 119.79 77.3307 120.109 77.3307C120.457 77.3307 120.664 77.481 120.776 77.9603C120.861 78.3267 120.908 78.712 121.049 78.712C121.256 78.712 122.308 77.2743 123.924 77.2743C124.883 77.2743 125.625 77.6314 126.123 78.3267C126.339 78.5992 126.424 78.7778 126.546 78.7778ZM139.465 79.1349C138.554 79.1349 137.661 80.0933 137.661 82.1982C137.661 85.0361 138.451 85.5905 139.362 85.5905C140.311 85.5905 141.251 84.6884 141.251 82.3392C141.251 80.037 140.471 79.1349 139.465 79.1349ZM144.173 81.9351C144.173 85.1394 142.247 87.1879 139.832 87.1879C138.526 87.1879 138.075 86.549 137.877 86.549C137.755 86.549 137.708 86.6805 137.708 87.0658V88.2498C137.708 89.0485 138.075 89.2646 138.441 89.5371C138.751 89.7533 139.146 89.8942 139.146 90.3171C139.146 90.646 138.967 90.8621 138.422 90.8621C137.943 90.8621 136.985 90.8151 136.458 90.8151C135.819 90.8151 135.227 90.8621 134.551 90.8621C134.09 90.8621 133.94 90.6272 133.94 90.3547C133.94 89.9412 134.288 89.7345 134.466 89.5559C134.927 89.0673 134.993 88.5881 134.993 88.0994V80.2249C134.993 79.6705 134.645 79.4543 134.363 79.3322C134.166 79.21 133.996 79.0879 133.996 78.8342C133.996 78.3549 134.579 78.2703 135.303 77.9603C136.223 77.5374 136.477 77.3307 136.815 77.3307C137.163 77.3307 137.361 77.481 137.492 77.9603C137.567 78.3267 137.624 78.712 137.774 78.712C137.99 78.712 138.761 77.2743 140.612 77.2743C142.905 77.2743 144.173 79.2194 144.173 81.9351ZM150.808 83.401C150.808 82.7902 150.743 82.6493 150.639 82.6493C150.094 82.6493 149.606 82.7244 149.164 82.8842C148.365 83.1661 147.914 83.7393 147.914 84.3689C147.914 84.9985 148.365 85.4213 149.051 85.4213C150.151 85.4213 150.808 84.5568 150.808 83.401ZM147.839 81.8975C149.014 81.5217 150.301 81.4465 150.564 81.2491C150.677 81.1646 150.79 80.9672 150.79 80.347C150.79 79.3134 150.339 78.5147 149.352 78.5147C148.525 78.5147 148.083 79.1724 147.839 80.0839C147.698 80.5914 147.482 80.9578 146.862 80.9578C146.223 80.9578 145.603 80.5068 145.603 79.5953C145.603 78.4677 146.965 77.2649 149.371 77.2649C151.71 77.2649 153.543 78.4113 153.543 81.0236C153.543 82.2264 153.44 83.3916 153.44 84.3501C153.44 84.7166 153.562 85.13 153.985 85.13C154.182 85.13 154.276 85.0643 154.417 85.0643C154.52 85.0643 154.605 85.2052 154.605 85.4213C154.605 86.408 153.731 87.1597 152.65 87.1597C151.767 87.1597 151.241 86.8403 150.94 86.2295C150.902 86.1449 150.846 86.0603 150.771 86.0603C150.696 86.0603 150.62 86.1637 150.545 86.2389C149.953 86.7933 148.967 87.2255 147.971 87.2255C146.382 87.2255 145.151 86.408 145.151 84.8669C145.151 83.3822 146.195 82.4519 147.839 81.8975ZM165.27 80.8451C165.27 82.3956 165.006 84.0212 165.006 84.679C165.006 85.1018 165.157 85.5247 165.467 85.769C165.815 86.0321 166.106 86.0979 166.106 86.502C166.106 86.8309 165.88 87.047 165.326 87.047C164.828 87.047 164.396 87 163.86 87C163.23 87 162.967 87.047 162.375 87.047C161.971 87.047 161.821 86.8121 161.821 86.5302C161.821 86.1637 161.99 85.816 162.056 85.6093C162.244 85.0737 162.45 83.3446 162.45 81.672C162.45 79.9524 161.858 79.163 160.797 79.163C160.007 79.163 159.039 79.9054 159.039 80.9203V84.4159C159.039 85.1582 159.124 85.4401 159.406 85.7314C159.678 86.0133 159.998 86.0791 159.998 86.502C159.998 86.8215 159.819 87.047 159.265 87.047C158.729 87.047 158.222 87 157.724 87C157.104 87 156.568 87.047 155.891 87.047C155.431 87.047 155.281 86.8121 155.281 86.5302C155.281 86.1261 155.628 85.9194 155.807 85.7408C156.267 85.2522 156.324 84.7636 156.324 84.2843V80.2249C156.324 79.6799 155.985 79.4543 155.704 79.3322C155.506 79.21 155.337 79.0879 155.337 78.8342C155.337 78.3549 155.92 78.2703 156.634 77.9603C157.564 77.5374 157.818 77.3307 158.147 77.3307C158.494 77.3307 158.692 77.481 158.823 77.9603C158.898 78.3267 158.955 78.712 159.115 78.712C159.321 78.712 160.449 77.2743 162.225 77.2743C164.292 77.2743 165.27 78.5898 165.27 80.8451ZM175.276 79.99C174.731 81.3807 173.998 83.4386 173.415 84.7917C171.93 88.3062 170.878 91.0876 168.67 91.0876C167.645 91.0876 166.856 90.411 166.856 89.3868C166.856 88.4847 167.458 87.7987 168.162 87.7987C168.51 87.7987 168.726 87.9867 168.895 88.2028C169.14 88.5317 169.318 88.87 169.647 88.87C169.995 88.87 170.587 88.1182 170.587 87.5826C170.587 86.9436 169.187 83.9272 168.67 82.6775C168.256 81.7002 167.288 79.3416 166.753 78.853C166.48 78.5804 166.236 78.3549 166.236 77.979C166.236 77.6502 166.443 77.4246 166.856 77.4246C167.401 77.4246 167.815 77.4716 168.378 77.4716C168.895 77.4716 169.544 77.4246 170.107 77.4246C170.521 77.4246 170.775 77.5374 170.775 78.0448C170.775 78.4019 170.258 78.6274 170.258 79.1818C170.258 79.5295 170.455 80.1027 171.047 81.578C171.583 82.8842 171.949 83.8239 172.081 83.8239C172.278 83.8239 172.682 82.5929 173.152 81.127C173.518 80.0651 173.575 79.6893 173.575 79.4543C173.575 78.6462 172.851 78.4583 172.851 77.9603C172.851 77.622 173.086 77.4246 173.396 77.4246C173.81 77.4246 174.43 77.4716 174.806 77.4716C175.238 77.4716 175.633 77.4246 175.933 77.4246C176.366 77.4246 176.478 77.6502 176.478 77.9133C176.478 78.5898 175.858 78.4489 175.276 79.99Z"
            fill="black" />
        <path
            d="M71.2846 115.155C68.381 115.155 66.4499 113.069 66.4499 109.912C66.4499 106.768 68.4374 104.64 71.3551 104.64C73.6526 104.64 75.4145 106.007 75.7951 108.093H74.3151C73.9345 106.768 72.7928 105.965 71.3128 105.965C69.2549 105.965 67.9017 107.515 67.9017 109.898C67.9017 112.28 69.2549 113.83 71.3128 113.83C72.8069 113.83 73.9909 113.027 74.3715 111.772H75.8374C75.4004 113.802 73.5821 115.155 71.2846 115.155ZM82.0698 108.107H83.3806V115H82.1966L82.0557 113.957C81.661 114.676 80.7448 115.169 79.73 115.169C78.1231 115.169 77.221 114.084 77.221 112.392V108.107H78.546V111.955C78.546 113.435 79.1802 113.999 80.1951 113.999C81.4073 113.999 82.0698 113.224 82.0698 111.744V108.107ZM84.6015 112.998H85.8701C85.8701 113.703 86.4057 114.126 87.2796 114.126C88.2099 114.126 88.7455 113.746 88.7455 113.111C88.7455 112.646 88.52 112.364 87.8011 112.181L86.5889 111.899C85.3627 111.603 84.7847 110.997 84.7847 109.982C84.7847 108.714 85.856 107.91 87.3783 107.91C88.8865 107.91 89.8731 108.756 89.9013 110.067H88.6327C88.6046 109.376 88.1394 108.939 87.336 108.939C86.5044 108.939 86.0392 109.306 86.0392 109.94C86.0392 110.405 86.3775 110.715 87.0541 110.884L88.2663 111.18C89.4362 111.462 90.0141 111.998 90.0141 113.027C90.0141 114.338 88.8865 115.169 87.2514 115.169C85.6305 115.169 84.6015 114.309 84.6015 112.998ZM93.4285 115H92.1036V109.221H90.7504V108.107H92.1036V105.951H93.4285V108.107H94.7817V109.221H93.4285V115ZM95.4509 111.547C95.4509 109.418 96.9732 107.924 99.0452 107.924C101.103 107.924 102.625 109.418 102.625 111.547C102.625 113.675 101.103 115.169 99.0452 115.169C96.9732 115.169 95.4509 113.675 95.4509 111.547ZM96.7899 111.547C96.7899 112.984 97.7061 113.985 99.0452 113.985C100.37 113.985 101.3 112.984 101.3 111.547C101.3 110.109 100.37 109.108 99.0452 109.108C97.7061 109.108 96.7899 110.109 96.7899 111.547ZM105.417 115H104.092V108.107H105.276L105.403 109.01C105.755 108.361 106.488 107.91 107.461 107.91C108.532 107.91 109.293 108.446 109.646 109.306C109.97 108.446 110.801 107.91 111.873 107.91C113.451 107.91 114.41 108.897 114.41 110.49V115H113.113V110.814C113.113 109.728 112.507 109.108 111.577 109.108C110.576 109.108 109.913 109.813 109.913 110.912V115H108.603V110.8C108.603 109.714 108.011 109.122 107.08 109.122C106.079 109.122 105.417 109.813 105.417 110.912V115ZM119.221 115.169C117.191 115.169 115.795 113.703 115.795 111.561C115.795 109.404 117.163 107.91 119.164 107.91C121.123 107.91 122.406 109.263 122.406 111.307V111.8L117.078 111.814C117.177 113.266 117.938 114.07 119.249 114.07C120.278 114.07 120.954 113.647 121.18 112.858H122.42C122.082 114.338 120.926 115.169 119.221 115.169ZM119.164 109.024C118.008 109.024 117.275 109.714 117.106 110.926H121.081C121.081 109.785 120.334 109.024 119.164 109.024ZM127.833 108.051V109.263H127.241C125.986 109.263 125.211 110.024 125.211 111.349V115H123.886V108.122H125.126L125.211 109.165C125.493 108.446 126.183 107.966 127.128 107.966C127.367 107.966 127.565 107.995 127.833 108.051ZM128.511 112.998H129.78C129.78 113.703 130.316 114.126 131.19 114.126C132.12 114.126 132.655 113.746 132.655 113.111C132.655 112.646 132.43 112.364 131.711 112.181L130.499 111.899C129.273 111.603 128.695 110.997 128.695 109.982C128.695 108.714 129.766 107.91 131.288 107.91C132.796 107.91 133.783 108.756 133.811 110.067H132.543C132.515 109.376 132.049 108.939 131.246 108.939C130.414 108.939 129.949 109.306 129.949 109.94C129.949 110.405 130.287 110.715 130.964 110.884L132.176 111.18C133.346 111.462 133.924 111.998 133.924 113.027C133.924 114.338 132.796 115.169 131.161 115.169C129.54 115.169 128.511 114.309 128.511 112.998ZM143.434 111.363H140.854V115H139.473V104.809H143.434C145.435 104.809 146.718 106.12 146.718 108.079C146.718 109.982 145.421 111.363 143.434 111.363ZM143.194 106.05H140.854V110.123H143.138C144.505 110.123 145.266 109.32 145.266 108.065C145.266 106.782 144.491 106.05 143.194 106.05ZM150.715 115.169C148.685 115.169 147.289 113.703 147.289 111.561C147.289 109.404 148.657 107.91 150.658 107.91C152.617 107.91 153.9 109.263 153.9 111.307V111.8L148.572 111.814C148.671 113.266 149.432 114.07 150.743 114.07C151.772 114.07 152.448 113.647 152.674 112.858H153.914C153.576 114.338 152.42 115.169 150.715 115.169ZM150.658 109.024C149.502 109.024 148.769 109.714 148.6 110.926H152.575C152.575 109.785 151.828 109.024 150.658 109.024ZM159.327 108.051V109.263H158.735C157.48 109.263 156.705 110.024 156.705 111.349V115H155.38V108.122H156.62L156.705 109.165C156.987 108.446 157.678 107.966 158.622 107.966C158.862 107.966 159.059 107.995 159.327 108.051ZM161.922 115H160.598V104.626H161.922V111.349L164.981 108.107H166.644L164.009 110.856L166.63 115H165.108L163.092 111.814L161.922 113.041V115ZM167.205 112.998H168.473C168.473 113.703 169.009 114.126 169.883 114.126C170.813 114.126 171.349 113.746 171.349 113.111C171.349 112.646 171.123 112.364 170.404 112.181L169.192 111.899C167.966 111.603 167.388 110.997 167.388 109.982C167.388 108.714 168.459 107.91 169.981 107.91C171.49 107.91 172.476 108.756 172.504 110.067H171.236C171.208 109.376 170.742 108.939 169.939 108.939C169.107 108.939 168.642 109.306 168.642 109.94C168.642 110.405 168.981 110.715 169.657 110.884L170.869 111.18C172.039 111.462 172.617 111.998 172.617 113.027C172.617 114.338 171.49 115.169 169.854 115.169C168.234 115.169 167.205 114.309 167.205 112.998Z"
            fill="#757575" />
        <path
            d="M293.577 75.5641C292.412 75.5641 291.209 76.7105 291.209 79.5201C291.209 80.7981 291.425 82.2828 291.989 83.5326C292.638 84.8763 293.671 85.4683 294.602 85.4683C295.945 85.4683 297.129 84.4723 297.129 82.0103C297.129 80.6196 296.782 78.9469 296.208 77.7535C295.588 76.391 294.583 75.5641 293.577 75.5641ZM287.695 80.7135C287.695 76.6917 290.251 73.9102 293.991 73.9102C297.449 73.9102 300.409 76.4192 300.409 80.9203C300.409 85.177 297.618 87.3195 294.122 87.3195C290.101 87.3195 287.695 84.5568 287.695 80.7135ZM305.097 79.4919C305.06 79.8772 305.013 81.9727 305.013 82.95C305.013 84.0212 305.295 84.9985 306.328 84.9985C306.845 84.9985 307.202 84.6978 307.437 84.5004C307.55 84.3877 307.625 84.3313 307.728 84.3313C307.869 84.3313 308.01 84.4347 308.01 84.7823C308.01 84.9797 307.944 85.2334 307.813 85.4871C307.456 86.2201 306.526 87.1879 304.9 87.1879C303.049 87.1879 302.241 85.9382 302.241 83.7863C302.241 82.9312 302.363 80.9297 302.363 79.849C302.363 79.4637 302.259 79.2664 301.949 79.21C301.367 79.1443 301.01 79.0503 301.01 78.6838C301.01 78.3549 301.094 78.0354 301.451 77.8569C302.071 77.5468 302.692 77.1427 303.143 76.6917C303.894 75.9117 303.998 75.0097 304.58 75.0097C304.919 75.0097 305.182 75.2728 305.182 75.846C305.182 76.2406 305.088 77.528 305.088 77.6126C305.088 77.6596 305.097 77.6877 305.172 77.6877C305.36 77.6877 306.798 77.6032 307.042 77.6032C307.465 77.6032 307.719 77.7253 307.719 78.2422C307.719 78.5804 307.531 79.0503 307.334 79.2664C307.277 79.3228 307.146 79.3886 306.967 79.3886C306.76 79.3886 305.539 79.3134 305.257 79.3134C305.201 79.3134 305.107 79.3322 305.097 79.4919ZM309.623 84.2843V76.0903C309.623 75.6204 309.294 75.3761 309.012 75.2446C308.814 75.1318 308.626 75.0097 308.626 74.7559C308.626 74.3049 309.209 74.2203 309.933 73.9196C310.854 73.5531 311.408 73.1867 311.821 73.1867C312.188 73.1867 312.423 73.3746 312.423 73.8069C312.423 74.3237 312.225 75.8178 312.225 78.3925C312.225 78.7026 312.301 78.7684 312.376 78.7684C312.583 78.7684 313.663 77.2743 315.524 77.2743C317.591 77.2743 318.559 78.5898 318.559 80.8451C318.559 82.3956 318.305 84.0212 318.305 84.679C318.305 85.1018 318.456 85.5247 318.756 85.769C319.113 86.0321 319.405 86.0979 319.405 86.502C319.405 86.8309 319.17 87.047 318.615 87.047C318.127 87.047 317.694 87 317.159 87C316.529 87 316.266 87.047 315.674 87.047C315.27 87.047 315.12 86.8121 315.12 86.5302C315.12 86.1637 315.279 85.816 315.355 85.6093C315.533 85.0737 315.749 83.3446 315.749 81.672C315.749 79.9524 315.157 79.163 314.086 79.163C313.306 79.163 312.338 79.9054 312.338 80.9203V84.4159C312.338 85.1582 312.423 85.4401 312.705 85.7314C312.977 86.0133 313.297 86.0791 313.297 86.502C313.297 86.8215 313.118 87.047 312.564 87.047C312.028 87.047 311.549 87 311.013 87C310.374 87 309.98 87.047 309.181 87.047C308.72 87.047 308.57 86.8121 308.57 86.5302C308.57 86.1261 308.927 85.9194 309.096 85.7408C309.566 85.2522 309.623 84.7636 309.623 84.2843ZM326.304 80.2437C326.304 79.3698 325.702 78.712 324.885 78.712C323.767 78.712 322.996 79.849 322.996 81.0142C322.996 81.3619 323.109 81.5686 323.362 81.5686C323.954 81.5686 325.477 81.3149 326.059 80.7981C326.219 80.6477 326.304 80.4786 326.304 80.2437ZM328.061 81.9351C326.98 82.5459 324.744 82.7808 323.588 82.8466C323.409 82.856 323.344 82.8936 323.344 83.0251C323.344 83.7205 324.02 85.0079 325.749 85.0079C327.084 85.0079 327.882 84.3595 328.362 83.7393C328.484 83.6171 328.625 83.5326 328.737 83.5326C328.907 83.5326 329.019 83.7017 329.019 84.0682C329.019 85.2992 327.572 87.2067 324.904 87.2067C322.009 87.2067 320.233 85.2428 320.233 82.4613C320.233 79.6705 322.197 77.2743 325.157 77.2743C327.732 77.2743 328.86 79.1724 328.86 80.6759C328.86 81.3149 328.54 81.6814 328.061 81.9351ZM334.943 79.445C334.192 79.445 333.619 80.4316 333.619 81.3431V84.2937C333.619 85.0361 333.769 85.3462 334.295 85.7408C334.605 85.9757 335.141 86.0697 335.141 86.502C335.141 86.8215 334.972 87.047 334.417 87.047C333.872 87.047 333.233 87 332.303 87C331.664 87 331.269 87.047 330.471 87.047C330.01 87.047 329.86 86.8121 329.86 86.5302C329.86 86.1261 330.207 85.9194 330.386 85.7408C330.846 85.2522 330.903 84.7636 330.903 84.2843V80.2249C330.903 79.6799 330.565 79.4543 330.283 79.3322C330.085 79.21 329.916 79.0879 329.916 78.8342C329.916 78.3549 330.499 78.2703 331.213 77.9603C332.143 77.5374 332.397 77.3307 332.726 77.3307C333.074 77.3307 333.271 77.481 333.402 77.9603C333.478 78.3267 333.534 78.712 333.694 78.712C333.9 78.712 334.803 77.2743 336.315 77.2743C337.236 77.2743 338.11 77.8193 338.11 79.3134C338.11 80.347 337.358 81.3995 336.428 81.3995C335.808 81.3995 335.78 81.0142 335.639 80.3658C335.517 79.7738 335.272 79.445 334.943 79.445ZM343.424 80.6571C343.424 77.2179 345.463 73.9008 349.57 73.9008C351.017 73.9008 351.693 74.3519 352.285 74.3519C352.708 74.3519 352.981 74.1545 353.357 74.1545C354.08 74.1545 354.099 74.8781 354.324 75.9963C354.569 77.2649 354.7 77.575 354.7 77.8381C354.7 78.2422 354.465 78.4301 354.193 78.4301C353.695 78.4301 353.441 77.8569 353.028 77.2649C352.163 76.0527 351.026 75.3573 349.899 75.3573C347.822 75.3573 346.751 77.3025 346.751 79.5389C346.751 82.4331 348.32 84.773 350.876 84.773C352.642 84.773 353.657 83.6453 354.146 82.7244C354.315 82.4519 354.456 82.2264 354.653 82.2264C354.926 82.2264 355.029 82.6023 355.029 82.9124C355.029 83.5232 354.841 84.2185 354.447 84.8575C353.638 86.1637 351.966 87.3195 349.588 87.3195C345.623 87.3195 343.424 84.181 343.424 80.6571ZM360.403 78.7402C359.585 78.7402 358.843 79.445 358.843 81.3149C358.843 82.1888 358.984 83.307 359.378 84.1622C359.801 85.0455 360.468 85.4683 361.136 85.4683C362 85.4683 362.808 84.8387 362.808 83.1849C362.808 82.2264 362.555 81.0424 362.169 80.2061C361.69 79.2288 361.042 78.7402 360.403 78.7402ZM355.939 82.311C355.939 79.3322 357.922 77.2743 360.656 77.2743C363.259 77.2743 365.59 79.1443 365.59 82.4801C365.59 85.6281 363.41 87.1879 360.769 87.1879C357.828 87.1879 355.939 85.1394 355.939 82.311ZM375.731 78.7778C375.956 78.7778 377.009 77.2743 378.841 77.2743C380.861 77.2743 381.745 78.5898 381.745 80.8451C381.745 82.3956 381.51 84.0212 381.51 84.679C381.51 85.1018 381.651 85.5341 381.942 85.769C382.271 86.0415 382.562 86.0979 382.562 86.502C382.562 86.8309 382.327 87.047 381.782 87.047C381.303 87.047 380.852 87 380.363 87C379.734 87 379.536 87.047 378.944 87.047C378.55 87.047 378.409 86.8121 378.409 86.5302C378.409 86.1637 378.55 85.816 378.625 85.6093C378.803 85.0737 379.001 83.3446 379.001 81.672C379.001 79.9524 378.428 79.163 377.46 79.163C376.83 79.163 375.89 79.755 375.89 81.0424C375.89 82.5929 375.825 84.0212 375.825 84.679C375.825 85.1018 375.89 85.5247 376.163 85.769C376.473 86.0415 376.727 86.0979 376.727 86.502C376.727 86.8309 376.501 87.047 375.956 87.047C375.468 87.047 375.129 87 374.65 87C374.02 87 373.823 87.047 373.231 87.047C372.836 87.047 372.696 86.8121 372.696 86.5302C372.696 86.1637 372.836 85.816 372.912 85.6093C373.09 85.0737 373.25 83.3446 373.25 81.672C373.25 79.9524 372.696 79.163 371.728 79.163C371.051 79.163 370.14 79.9054 370.14 80.9203V84.4159C370.14 85.1582 370.215 85.4401 370.478 85.7314C370.732 86.0133 371.032 86.0791 371.032 86.502C371.032 86.8215 370.854 87.047 370.318 87.047C369.801 87.047 369.341 87 368.862 87C368.26 87 367.706 87.047 367.048 87.047C366.606 87.047 366.456 86.8121 366.456 86.5302C366.456 86.1261 366.794 85.9194 366.963 85.7408C367.405 85.2522 367.471 84.7636 367.471 84.2843V80.2249C367.471 79.6799 367.161 79.4637 366.898 79.3416C366.729 79.2476 366.512 79.1255 366.512 78.8342C366.512 78.3549 367.114 78.2703 367.837 77.9603C368.758 77.5374 368.974 77.3307 369.294 77.3307C369.642 77.3307 369.848 77.481 369.961 77.9603C370.046 78.3267 370.093 78.712 370.234 78.712C370.44 78.712 371.493 77.2743 373.109 77.2743C374.067 77.2743 374.81 77.6314 375.308 78.3267C375.524 78.5992 375.609 78.7778 375.731 78.7778ZM388.65 79.1349C387.739 79.1349 386.846 80.0933 386.846 82.1982C386.846 85.0361 387.635 85.5905 388.547 85.5905C389.496 85.5905 390.436 84.6884 390.436 82.3392C390.436 80.037 389.656 79.1349 388.65 79.1349ZM393.358 81.9351C393.358 85.1394 391.432 87.1879 389.017 87.1879C387.71 87.1879 387.259 86.549 387.062 86.549C386.94 86.549 386.893 86.6805 386.893 87.0658V88.2498C386.893 89.0485 387.259 89.2646 387.626 89.5371C387.936 89.7533 388.331 89.8942 388.331 90.3171C388.331 90.646 388.152 90.8621 387.607 90.8621C387.128 90.8621 386.169 90.8151 385.643 90.8151C385.004 90.8151 384.412 90.8621 383.736 90.8621C383.275 90.8621 383.125 90.6272 383.125 90.3547C383.125 89.9412 383.473 89.7345 383.651 89.5559C384.111 89.0673 384.177 88.5881 384.177 88.0994V80.2249C384.177 79.6705 383.83 79.4543 383.548 79.3322C383.35 79.21 383.181 79.0879 383.181 78.8342C383.181 78.3549 383.764 78.2703 384.487 77.9603C385.408 77.5374 385.662 77.3307 386 77.3307C386.348 77.3307 386.545 77.481 386.677 77.9603C386.752 78.3267 386.808 78.712 386.959 78.712C387.175 78.712 387.945 77.2743 389.797 77.2743C392.089 77.2743 393.358 79.2194 393.358 81.9351ZM399.993 83.401C399.993 82.7902 399.927 82.6493 399.824 82.6493C399.279 82.6493 398.79 82.7244 398.349 82.8842C397.55 83.1661 397.099 83.7393 397.099 84.3689C397.099 84.9985 397.55 85.4213 398.236 85.4213C399.335 85.4213 399.993 84.5568 399.993 83.401ZM397.024 81.8975C398.198 81.5217 399.486 81.4465 399.749 81.2491C399.862 81.1646 399.974 80.9672 399.974 80.347C399.974 79.3134 399.523 78.5147 398.537 78.5147C397.71 78.5147 397.268 79.1724 397.024 80.0839C396.883 80.5914 396.667 80.9578 396.046 80.9578C395.408 80.9578 394.787 80.5068 394.787 79.5953C394.787 78.4677 396.15 77.2649 398.555 77.2649C400.895 77.2649 402.728 78.4113 402.728 81.0236C402.728 82.2264 402.624 83.3916 402.624 84.3501C402.624 84.7166 402.746 85.13 403.169 85.13C403.367 85.13 403.461 85.0643 403.602 85.0643C403.705 85.0643 403.789 85.2052 403.789 85.4213C403.789 86.408 402.916 87.1597 401.835 87.1597C400.952 87.1597 400.425 86.8403 400.125 86.2295C400.087 86.1449 400.031 86.0603 399.956 86.0603C399.88 86.0603 399.805 86.1637 399.73 86.2389C399.138 86.7933 398.151 87.2255 397.155 87.2255C395.567 87.2255 394.336 86.408 394.336 84.8669C394.336 83.3822 395.379 82.4519 397.024 81.8975ZM414.454 80.8451C414.454 82.3956 414.191 84.0212 414.191 84.679C414.191 85.1018 414.342 85.5247 414.652 85.769C414.999 86.0321 415.291 86.0979 415.291 86.502C415.291 86.8309 415.065 87.047 414.511 87.047C414.013 87.047 413.58 87 413.045 87C412.415 87 412.152 87.047 411.56 87.047C411.156 87.047 411.006 86.8121 411.006 86.5302C411.006 86.1637 411.175 85.816 411.241 85.6093C411.429 85.0737 411.635 83.3446 411.635 81.672C411.635 79.9524 411.043 79.163 409.981 79.163C409.192 79.163 408.224 79.9054 408.224 80.9203V84.4159C408.224 85.1582 408.309 85.4401 408.591 85.7314C408.863 86.0133 409.183 86.0791 409.183 86.502C409.183 86.8215 409.004 87.047 408.45 87.047C407.914 87.047 407.407 87 406.909 87C406.288 87 405.753 87.047 405.076 87.047C404.616 87.047 404.465 86.8121 404.465 86.5302C404.465 86.1261 404.813 85.9194 404.992 85.7408C405.452 85.2522 405.509 84.7636 405.509 84.2843V80.2249C405.509 79.6799 405.17 79.4543 404.888 79.3322C404.691 79.21 404.522 79.0879 404.522 78.8342C404.522 78.3549 405.104 78.2703 405.819 77.9603C406.749 77.5374 407.003 77.3307 407.331 77.3307C407.679 77.3307 407.877 77.481 408.008 77.9603C408.083 78.3267 408.14 78.712 408.299 78.712C408.506 78.712 409.634 77.2743 411.41 77.2743C413.477 77.2743 414.454 78.5898 414.454 80.8451ZM416.769 75.3479C416.769 74.3143 417.775 73.2618 418.856 73.2618C419.607 73.2618 420.199 73.7505 420.199 74.521C420.199 75.5735 419.072 76.4286 417.953 76.4286C417.145 76.4286 416.769 75.9681 416.769 75.3479ZM419.927 77.8945C419.927 78.4583 419.833 79.4543 419.833 81.4089V84.4159C419.833 85.1582 419.983 85.4401 420.265 85.7314C420.538 86.0133 420.857 86.0791 420.857 86.502C420.857 86.8215 420.679 87.047 420.133 87.047C419.588 87.047 419.043 87 418.508 87C417.869 87 417.474 87.047 416.675 87.047C416.215 87.047 416.065 86.8121 416.065 86.5302C416.065 86.1261 416.422 85.9194 416.591 85.7408C417.061 85.2522 417.117 84.7636 417.117 84.2843V80.4974C417.117 79.9054 416.835 79.5671 416.525 79.4074C416.328 79.2758 416.102 79.1349 416.102 78.8623C416.102 78.3549 416.704 78.3079 417.427 78.0166C418.348 77.6502 418.996 77.2743 419.325 77.2743C419.72 77.2743 419.927 77.4622 419.927 77.8945ZM427.778 80.2437C427.778 79.3698 427.177 78.712 426.359 78.712C425.241 78.712 424.471 79.849 424.471 81.0142C424.471 81.3619 424.583 81.5686 424.837 81.5686C425.429 81.5686 426.951 81.3149 427.534 80.7981C427.694 80.6477 427.778 80.4786 427.778 80.2437ZM429.536 81.9351C428.455 82.5459 426.219 82.7808 425.063 82.8466C424.884 82.856 424.818 82.8936 424.818 83.0251C424.818 83.7205 425.495 85.0079 427.224 85.0079C428.558 85.0079 429.357 84.3595 429.836 83.7393C429.958 83.6171 430.099 83.5326 430.212 83.5326C430.381 83.5326 430.494 83.7017 430.494 84.0682C430.494 85.2992 429.047 87.2067 426.378 87.2067C423.484 87.2067 421.708 85.2428 421.708 82.4613C421.708 79.6705 423.672 77.2743 426.632 77.2743C429.207 77.2743 430.334 79.1724 430.334 80.6759C430.334 81.3149 430.015 81.6814 429.536 81.9351ZM435.46 77.2555C436.418 77.2555 437.781 77.4434 438.316 77.9978C438.739 78.4301 438.861 78.9751 438.861 79.7175C438.861 80.2343 438.608 80.5162 438.288 80.5162C437.969 80.5162 437.734 80.2155 437.452 79.8866C436.991 79.3416 436.352 78.6086 435.272 78.6086C434.511 78.6086 434.116 79.0315 434.116 79.5577C434.116 80.3095 434.868 80.5162 436.268 81.0048C437.781 81.5217 439.294 82.1794 439.294 84.1903C439.294 86.0415 437.659 87.2631 435.309 87.2631C434.257 87.2631 432.659 86.953 431.973 86.1825C431.682 85.8818 431.475 85.2428 431.475 84.4347C431.475 83.9272 431.682 83.6171 432.067 83.6171C432.284 83.6171 432.472 83.8145 432.678 84.0776C433.186 84.7072 433.928 85.6938 435.328 85.6938C436.08 85.6938 436.493 85.2898 436.493 84.6978C436.493 83.8427 435.432 83.6453 434.097 83.0533C432.96 82.5459 431.701 81.9821 431.701 80.2437C431.701 78.4113 433.449 77.2555 435.46 77.2555Z"
            fill="black" />
        <path
            d="M315.285 115.155C312.381 115.155 310.45 113.069 310.45 109.912C310.45 106.768 312.437 104.64 315.355 104.64C317.653 104.64 319.414 106.007 319.795 108.093H318.315C317.934 106.768 316.793 105.965 315.313 105.965C313.255 105.965 311.902 107.515 311.902 109.898C311.902 112.28 313.255 113.83 315.313 113.83C316.807 113.83 317.991 113.027 318.371 111.772H319.837C319.4 113.802 317.582 115.155 315.285 115.155ZM326.07 108.107H327.381V115H326.197L326.056 113.957C325.661 114.676 324.745 115.169 323.73 115.169C322.123 115.169 321.221 114.084 321.221 112.392V108.107H322.546V111.955C322.546 113.435 323.18 113.999 324.195 113.999C325.407 113.999 326.07 113.224 326.07 111.744V108.107ZM328.602 112.998H329.87C329.87 113.703 330.406 114.126 331.28 114.126C332.21 114.126 332.746 113.746 332.746 113.111C332.746 112.646 332.52 112.364 331.801 112.181L330.589 111.899C329.363 111.603 328.785 110.997 328.785 109.982C328.785 108.714 329.856 107.91 331.378 107.91C332.886 107.91 333.873 108.756 333.901 110.067H332.633C332.605 109.376 332.139 108.939 331.336 108.939C330.504 108.939 330.039 109.306 330.039 109.94C330.039 110.405 330.378 110.715 331.054 110.884L332.266 111.18C333.436 111.462 334.014 111.998 334.014 113.027C334.014 114.338 332.886 115.169 331.251 115.169C329.63 115.169 328.602 114.309 328.602 112.998ZM337.429 115H336.104V109.221H334.75V108.107H336.104V105.951H337.429V108.107H338.782V109.221H337.429V115ZM339.451 111.547C339.451 109.418 340.973 107.924 343.045 107.924C345.103 107.924 346.625 109.418 346.625 111.547C346.625 113.675 345.103 115.169 343.045 115.169C340.973 115.169 339.451 113.675 339.451 111.547ZM340.79 111.547C340.79 112.984 341.706 113.985 343.045 113.985C344.37 113.985 345.3 112.984 345.3 111.547C345.3 110.109 344.37 109.108 343.045 109.108C341.706 109.108 340.79 110.109 340.79 111.547ZM349.417 115H348.092V108.107H349.276L349.403 109.01C349.755 108.361 350.488 107.91 351.461 107.91C352.532 107.91 353.293 108.446 353.646 109.306C353.97 108.446 354.801 107.91 355.873 107.91C357.451 107.91 358.41 108.897 358.41 110.49V115H357.113V110.814C357.113 109.728 356.507 109.108 355.577 109.108C354.576 109.108 353.913 109.813 353.913 110.912V115H352.603V110.8C352.603 109.714 352.011 109.122 351.08 109.122C350.079 109.122 349.417 109.813 349.417 110.912V115ZM363.221 115.169C361.191 115.169 359.795 113.703 359.795 111.561C359.795 109.404 361.163 107.91 363.164 107.91C365.123 107.91 366.406 109.263 366.406 111.307V111.8L361.078 111.814C361.177 113.266 361.938 114.07 363.249 114.07C364.278 114.07 364.954 113.647 365.18 112.858H366.42C366.082 114.338 364.926 115.169 363.221 115.169ZM363.164 109.024C362.008 109.024 361.275 109.714 361.106 110.926H365.081C365.081 109.785 364.334 109.024 363.164 109.024ZM371.833 108.051V109.263H371.241C369.986 109.263 369.211 110.024 369.211 111.349V115H367.886V108.122H369.126L369.211 109.165C369.493 108.446 370.183 107.966 371.128 107.966C371.367 107.966 371.565 107.995 371.833 108.051ZM372.511 112.998H373.78C373.78 113.703 374.316 114.126 375.19 114.126C376.12 114.126 376.655 113.746 376.655 113.111C376.655 112.646 376.43 112.364 375.711 112.181L374.499 111.899C373.273 111.603 372.695 110.997 372.695 109.982C372.695 108.714 373.766 107.91 375.288 107.91C376.796 107.91 377.783 108.756 377.811 110.067H376.543C376.515 109.376 376.049 108.939 375.246 108.939C374.414 108.939 373.949 109.306 373.949 109.94C373.949 110.405 374.287 110.715 374.964 110.884L376.176 111.18C377.346 111.462 377.924 111.998 377.924 113.027C377.924 114.338 376.796 115.169 375.161 115.169C373.54 115.169 372.511 114.309 372.511 112.998ZM387.434 111.363H384.854V115H383.473V104.809H387.434C389.435 104.809 390.718 106.12 390.718 108.079C390.718 109.982 389.421 111.363 387.434 111.363ZM387.194 106.05H384.854V110.123H387.138C388.505 110.123 389.266 109.32 389.266 108.065C389.266 106.782 388.491 106.05 387.194 106.05ZM394.715 115.169C392.685 115.169 391.289 113.703 391.289 111.561C391.289 109.404 392.657 107.91 394.658 107.91C396.617 107.91 397.9 109.263 397.9 111.307V111.8L392.572 111.814C392.671 113.266 393.432 114.07 394.743 114.07C395.772 114.07 396.448 113.647 396.674 112.858H397.914C397.576 114.338 396.42 115.169 394.715 115.169ZM394.658 109.024C393.502 109.024 392.769 109.714 392.6 110.926H396.575C396.575 109.785 395.828 109.024 394.658 109.024ZM403.327 108.051V109.263H402.735C401.48 109.263 400.705 110.024 400.705 111.349V115H399.38V108.122H400.62L400.705 109.165C400.987 108.446 401.678 107.966 402.622 107.966C402.862 107.966 403.059 107.995 403.327 108.051ZM405.922 115H404.598V104.626H405.922V111.349L408.981 108.107H410.644L408.009 110.856L410.63 115H409.108L407.092 111.814L405.922 113.041V115ZM411.205 112.998H412.473C412.473 113.703 413.009 114.126 413.883 114.126C414.813 114.126 415.349 113.746 415.349 113.111C415.349 112.646 415.123 112.364 414.404 112.181L413.192 111.899C411.966 111.603 411.388 110.997 411.388 109.982C411.388 108.714 412.459 107.91 413.981 107.91C415.49 107.91 416.476 108.756 416.504 110.067H415.236C415.208 109.376 414.742 108.939 413.939 108.939C413.107 108.939 412.642 109.306 412.642 109.94C412.642 110.405 412.981 110.715 413.657 110.884L414.869 111.18C416.039 111.462 416.617 111.998 416.617 113.027C416.617 114.338 415.49 115.169 413.854 115.169C412.234 115.169 411.205 114.309 411.205 112.998Z"
            fill="#757575" />
        <rect x="30.6801" y="157.33" width="191.698" height="57.5572" rx="10.8909" fill="#F0F0F0" stroke="#D5D5D5"
            stroke-width="1.14641" stroke-dasharray="5.73 5.73" />
        <rect x="30.5845" y="228.168" width="191.889" height="57.7482" rx="10.9864" fill="#F7F3CE" stroke="#EDB408"
            stroke-width="0.955344" />
        <g clip-path="url(#clip1_2653_5607)">
            <path
                d="M80.9831 253.069C80.7577 252.378 80.1392 251.887 79.4075 251.822L69.4683 250.927L65.5381 241.81C65.2483 241.142 64.5883 240.71 63.855 240.71C63.1217 240.71 62.4617 241.142 62.1719 241.812L58.2417 250.927L48.3009 251.822C47.5705 251.889 46.9536 252.378 46.7269 253.069C46.5002 253.76 46.7096 254.518 47.2621 254.996L54.7749 261.526L52.5596 271.198C52.3975 271.909 52.676 272.644 53.2713 273.071C53.5913 273.3 53.9657 273.417 54.3433 273.417C54.6688 273.417 54.9917 273.33 55.2815 273.158L63.855 268.079L72.4253 273.158C73.0525 273.532 73.8431 273.498 74.4371 273.071C75.0327 272.643 75.3109 271.908 75.1488 271.198L72.9335 261.526L80.4463 254.997C80.9989 254.518 81.2098 253.762 80.9831 253.069Z"
                fill="#FFC107" />
        </g>
        <rect x="96.2252" y="246.803" width="71.627" height="8.19111" rx="4.09556" fill="#FFC107" />
        <rect x="96.2252" y="260.455" width="86.7789" height="8.19111" rx="4.09556" fill="#FFC107" />
        <rect x="274.634" y="157.235" width="191.889" height="57.7482" rx="10.9864" fill="#F7F3CE" stroke="#EDB408"
            stroke-width="0.955344" />
        <g clip-path="url(#clip2_2653_5607)">
            <path
                d="M325.032 182.136C324.806 181.445 324.188 180.954 323.456 180.889L313.517 179.994L309.587 170.877C309.297 170.209 308.637 169.776 307.904 169.776C307.171 169.776 306.511 170.209 306.221 170.878L302.291 179.994L292.35 180.889C291.619 180.955 291.002 181.445 290.776 182.136C290.549 182.827 290.758 183.585 291.311 184.063L298.824 190.593L296.608 200.265C296.446 200.976 296.725 201.711 297.32 202.138C297.64 202.367 298.015 202.483 298.392 202.483C298.718 202.483 299.041 202.396 299.33 202.225L307.904 197.146L316.474 202.225C317.101 202.598 317.892 202.564 318.486 202.138C319.082 201.71 319.36 200.974 319.198 200.265L316.982 190.593L324.495 184.064C325.048 183.585 325.259 182.828 325.032 182.136Z"
                fill="#FFC107" />
        </g>
        <rect x="340.274" y="175.87" width="71.627" height="8.19111" rx="4.09556" fill="#FFC107" />
        <rect x="340.274" y="189.522" width="86.7789" height="8.19111" rx="4.09556" fill="#FFC107" />
        <rect x="274.729" y="228.264" width="191.698" height="57.5572" rx="10.8909" fill="#F0F0F0" stroke="#D5D5D5"
            stroke-width="1.14641" stroke-dasharray="5.73 5.73" />
        <path
            d="M268.179 259C268.179 261.11 269.89 262.821 272 262.821C274.11 262.821 275.821 261.11 275.821 259C275.821 256.89 274.11 255.179 272 255.179C269.89 255.179 268.179 256.89 268.179 259ZM222.179 183.002C222.179 185.113 223.89 186.824 226 186.824C228.11 186.824 229.821 185.113 229.821 183.002C229.821 180.892 228.11 179.181 226 179.181C223.89 179.181 222.179 180.892 222.179 183.002ZM272.042 258.285C267.022 257.991 263.127 256.607 260.065 254.44C256.999 252.271 254.725 249.287 252.997 245.731C249.526 238.586 248.311 229.244 247.289 219.842C246.275 210.512 245.45 201.101 242.679 194.073C241.287 190.542 239.383 187.552 236.665 185.463C233.938 183.366 230.452 182.224 225.99 182.286L226.01 183.719C230.201 183.66 233.358 184.728 235.792 186.599C238.237 188.479 240.012 191.216 241.346 194.599C244.028 201.401 244.839 210.568 245.864 219.997C246.882 229.355 248.111 238.952 251.708 246.357C253.514 250.075 255.93 253.27 259.237 255.61C262.548 257.952 266.71 259.408 271.958 259.715L272.042 258.285Z"
            fill="url(#paint0_linear_2653_5607)" />
        <path
            d="M268.179 185C268.179 182.89 269.89 181.179 272 181.179C274.11 181.179 275.821 182.89 275.821 185C275.821 187.11 274.11 188.821 272 188.821C269.89 188.821 268.179 187.11 268.179 185ZM222.179 261.998C222.179 259.887 223.89 258.176 226 258.176C228.11 258.176 229.821 259.887 229.821 261.998C229.821 264.108 228.11 265.819 226 265.819C223.89 265.819 222.179 264.108 222.179 261.998ZM272.042 185.715C267.025 186.013 263.131 187.415 260.068 189.61C257.002 191.808 254.727 194.831 252.999 198.436C249.527 205.678 248.311 215.146 247.289 224.671C246.275 234.125 245.45 243.657 242.68 250.774C241.289 254.35 239.386 257.378 236.669 259.494C233.941 261.619 230.454 262.777 225.99 262.714L226.01 261.281C230.199 261.34 233.355 260.259 235.788 258.364C238.234 256.459 240.01 253.684 241.345 250.255C244.028 243.361 244.839 234.07 245.864 224.518C246.882 215.037 248.11 205.317 251.706 197.817C253.512 194.051 255.926 190.816 259.234 188.445C262.545 186.072 266.707 184.596 271.958 184.285L272.042 185.715Z"
            fill="url(#paint1_linear_2653_5607)" />
    </g>
    <defs>
        <linearGradient id="paint0_linear_2653_5607" x1="249" y1="183" x2="249" y2="259" gradientUnits="userSpaceOnUse">
            <stop stop-color="#FFC107" />
            <stop offset="1" stop-color="#F79400" />
        </linearGradient>
        <linearGradient id="paint1_linear_2653_5607" x1="249" y1="262" x2="249" y2="185" gradientUnits="userSpaceOnUse">
            <stop stop-color="#FFC107" />
            <stop offset="1" stop-color="#F79400" />
        </linearGradient>
        <clipPath id="clip0_2653_5607">
            <rect width="500" height="333" rx="30" fill="white" />
        </clipPath>
        <clipPath id="clip1_2653_5607">
            <rect width="34.4361" height="34.1296" fill="white" transform="translate(46.6366 239.977)" />
        </clipPath>
        <clipPath id="clip2_2653_5607">
            <rect width="34.4361" height="34.1296" fill="white" transform="translate(290.686 169.044)" />
        </clipPath>
    </defs>
</svg>