<svg width="186" height="119" viewBox="0 0 186 119" fill="none" xmlns="http://www.w3.org/2000/svg">
<g filter="url(#filter0_d_2224_10115)">
<g clip-path="url(#clip0_2224_10115)">
<rect x="7" y="7" width="172.27" height="104.021" rx="11.4847" fill="url(#paint0_linear_2224_10115)"/>
<path d="M31.924 29.8326C31.8562 29.8326 31.683 30.2393 31.2951 31.2748C31.0579 31.9036 30.847 32.4835 30.7378 32.7094C30.6475 32.8751 30.5044 33.0031 30.3086 33.0031C30.2107 33.0031 30.1241 32.9127 30.0751 32.8073C29.9734 32.5889 29.2091 30.6723 28.9078 29.9644C28.8589 29.8514 28.8287 29.7949 28.7986 29.7949C28.7685 29.7949 28.7534 29.8439 28.7459 29.923C28.7308 30.0585 28.6969 31.1806 28.6969 31.399C28.6969 31.7906 28.7384 32.1333 28.7986 32.2651C28.9379 32.5362 29.145 32.54 29.145 32.7621C29.145 32.8939 29.0735 32.9843 28.8739 32.9843C28.6292 32.9843 28.4823 32.9655 28.3468 32.9655C28.1773 32.9655 27.9777 32.9843 27.7292 32.9843C27.5522 32.9843 27.4694 32.8977 27.4694 32.7659C27.4694 32.4835 27.8384 32.5475 27.9137 31.9751C27.9928 31.3425 28.0568 30.0397 28.0568 29.456C28.0568 29.2263 28.0493 29.0381 28.038 28.8988C27.9853 28.3038 27.62 28.3377 27.62 28.0478C27.62 27.9197 27.684 27.8256 27.8836 27.8256C28.0192 27.8256 28.3279 27.8444 28.5124 27.8444C28.9492 27.8444 29.0735 27.867 29.2053 27.9499C29.3446 28.0365 29.4726 28.2398 29.5442 28.3716C29.6609 28.5862 30.3914 30.3296 30.6136 30.8493C30.6286 30.8907 30.6475 30.917 30.6776 30.917C30.6964 30.917 30.719 30.9057 30.7454 30.853C30.8094 30.6873 31.4683 28.9967 31.7583 28.3565C31.8562 28.1494 31.9541 28.0214 32.067 27.9461C32.1913 27.8708 32.3909 27.8444 32.7787 27.8444C32.8954 27.8444 33.1515 27.8256 33.2871 27.8256C33.4716 27.8256 33.5393 27.9235 33.5393 28.0515C33.5393 28.3302 33.1967 28.3151 33.1251 28.8875C33.1063 29.0418 33.1025 29.2753 33.1025 29.4222C33.1025 30.2204 33.1892 31.4894 33.2569 31.9601C33.336 32.555 33.705 32.4835 33.705 32.7659C33.705 32.8977 33.6222 32.9843 33.4339 32.9843C33.1929 32.9843 32.8314 32.9655 32.6658 32.9655C32.4097 32.9655 32.1574 32.9843 31.9127 32.9843C31.7206 32.9843 31.6152 32.9052 31.6152 32.7772C31.6152 32.5249 31.9616 32.5362 32.0407 32.0956C32.052 32.0316 32.0557 31.9262 32.0557 31.7944C32.0557 31.4555 32.0256 30.6271 31.9729 29.9606C31.9616 29.8665 31.9353 29.8326 31.924 29.8326ZM37.374 30.1564C37.1556 30.7137 36.8619 31.5383 36.6284 32.0806C36.0335 33.4889 35.6118 34.6034 34.7269 34.6034C34.3164 34.6034 34.0001 34.3323 34.0001 33.9219C34.0001 33.5604 34.2411 33.2855 34.5235 33.2855C34.6629 33.2855 34.7495 33.3608 34.8172 33.4474C34.9151 33.5792 34.9867 33.7148 35.1185 33.7148C35.2578 33.7148 35.495 33.4135 35.495 33.1989C35.495 32.9429 34.934 31.7341 34.7269 31.2333C34.5612 30.8417 34.1733 29.8966 33.9587 29.7008C33.8495 29.5916 33.7516 29.5012 33.7516 29.3506C33.7516 29.2188 33.8345 29.1284 34.0001 29.1284C34.2185 29.1284 34.3842 29.1473 34.6101 29.1473C34.8172 29.1473 35.0771 29.1284 35.303 29.1284C35.4687 29.1284 35.5703 29.1736 35.5703 29.377C35.5703 29.5201 35.3632 29.6104 35.3632 29.8326C35.3632 29.9719 35.4423 30.2016 35.6795 30.7928C35.8942 31.3162 36.041 31.6927 36.0937 31.6927C36.1728 31.6927 36.3347 31.1995 36.523 30.612C36.6699 30.1865 36.6924 30.0359 36.6924 29.9418C36.6924 29.618 36.4025 29.5426 36.4025 29.3431C36.4025 29.2075 36.4966 29.1284 36.6209 29.1284C36.7866 29.1284 37.0351 29.1473 37.1857 29.1473C37.3589 29.1473 37.5171 29.1284 37.6376 29.1284C37.8108 29.1284 37.856 29.2188 37.856 29.3242C37.856 29.5954 37.6075 29.5389 37.374 30.1564ZM39.9452 30.4238C39.9452 29.0456 40.7623 27.7164 42.4078 27.7164C42.9877 27.7164 43.2588 27.8971 43.4961 27.8971C43.6655 27.8971 43.7747 27.8181 43.9253 27.8181C44.2153 27.8181 44.2228 28.108 44.3132 28.5561C44.4111 29.0644 44.4638 29.1887 44.4638 29.2941C44.4638 29.456 44.3696 29.5313 44.2604 29.5313C44.0609 29.5313 43.9592 29.3017 43.7935 29.0644C43.4471 28.5787 42.9915 28.3 42.5396 28.3C41.7075 28.3 41.2782 29.0795 41.2782 29.9757C41.2782 31.1354 41.907 32.073 42.9312 32.073C43.6391 32.073 44.0458 31.6212 44.2416 31.2522C44.3094 31.143 44.3659 31.0526 44.445 31.0526C44.5541 31.0526 44.5956 31.2032 44.5956 31.3275C44.5956 31.5722 44.5203 31.8509 44.3621 32.1069C44.0383 32.6303 43.368 33.0935 42.4154 33.0935C40.8263 33.0935 39.9452 31.8358 39.9452 30.4238ZM46.7488 29.6556C46.4212 29.6556 46.1238 29.938 46.1238 30.6873C46.1238 31.0375 46.1802 31.4856 46.3384 31.8283C46.5078 32.1822 46.7752 32.3517 47.0425 32.3517C47.389 32.3517 47.7128 32.0994 47.7128 31.4367C47.7128 31.0526 47.6111 30.5781 47.4567 30.243C47.2647 29.8514 47.0049 29.6556 46.7488 29.6556ZM44.9602 31.0865C44.9602 29.8928 45.7547 29.0682 46.8505 29.0682C47.8935 29.0682 48.8274 29.8175 48.8274 31.1543C48.8274 32.4157 47.9538 33.0408 46.8957 33.0408C45.7171 33.0408 44.9602 32.2199 44.9602 31.0865ZM52.891 29.6707C52.9814 29.6707 53.4031 29.0682 54.1374 29.0682C54.947 29.0682 55.3009 29.5954 55.3009 30.4991C55.3009 31.1204 55.2068 31.7718 55.2068 32.0354C55.2068 32.2048 55.2632 32.378 55.38 32.4722C55.5118 32.5814 55.6285 32.604 55.6285 32.7659C55.6285 32.8977 55.5344 32.9843 55.316 32.9843C55.1239 32.9843 54.9432 32.9655 54.7474 32.9655C54.4951 32.9655 54.416 32.9843 54.1788 32.9843C54.0206 32.9843 53.9642 32.8901 53.9642 32.7772C53.9642 32.6303 54.0206 32.491 54.0508 32.4082C54.1223 32.1935 54.2014 31.5007 54.2014 30.8304C54.2014 30.1414 53.9717 29.8251 53.5839 29.8251C53.3316 29.8251 52.955 30.0623 52.955 30.5781C52.955 31.1995 52.9287 31.7718 52.9287 32.0354C52.9287 32.2048 52.955 32.3743 53.0642 32.4722C53.1885 32.5814 53.2901 32.604 53.2901 32.7659C53.2901 32.8977 53.1998 32.9843 52.9814 32.9843C52.7856 32.9843 52.65 32.9655 52.458 32.9655C52.2057 32.9655 52.1266 32.9843 51.8894 32.9843C51.7312 32.9843 51.6748 32.8901 51.6748 32.7772C51.6748 32.6303 51.7312 32.491 51.7614 32.4082C51.8329 32.1935 51.8969 31.5007 51.8969 30.8304C51.8969 30.1414 51.6748 29.8251 51.2869 29.8251C51.0158 29.8251 50.6506 30.1225 50.6506 30.5292V31.93C50.6506 32.2274 50.6807 32.3404 50.7861 32.4571C50.8878 32.5701 51.0083 32.5964 51.0083 32.7659C51.0083 32.8939 50.9367 32.9843 50.7221 32.9843C50.515 32.9843 50.3305 32.9655 50.1385 32.9655C49.8975 32.9655 49.6753 32.9843 49.4117 32.9843C49.2347 32.9843 49.1745 32.8901 49.1745 32.7772C49.1745 32.6153 49.31 32.5324 49.3778 32.4609C49.5548 32.2651 49.5812 32.0693 49.5812 31.8772V30.2506C49.5812 30.0322 49.4569 29.9456 49.3515 29.8966C49.2837 29.8589 49.1971 29.81 49.1971 29.6933C49.1971 29.5012 49.4381 29.4673 49.728 29.3431C50.097 29.1736 50.1836 29.0908 50.3117 29.0908C50.451 29.0908 50.5338 29.151 50.579 29.3431C50.6129 29.4899 50.6317 29.6443 50.6882 29.6443C50.771 29.6443 51.1928 29.0682 51.8404 29.0682C52.2245 29.0682 52.522 29.2113 52.7216 29.4899C52.8082 29.5991 52.8421 29.6707 52.891 29.6707ZM58.0681 29.8138C57.7028 29.8138 57.3451 30.1978 57.3451 31.0413C57.3451 32.1785 57.6614 32.4006 58.0266 32.4006C58.4069 32.4006 58.7835 32.0391 58.7835 31.0978C58.7835 30.1752 58.471 29.8138 58.0681 29.8138ZM59.9545 30.9359C59.9545 32.2199 59.1826 33.0408 58.2149 33.0408C57.6915 33.0408 57.5108 32.7847 57.4317 32.7847C57.3827 32.7847 57.3639 32.8374 57.3639 32.9918V33.4663C57.3639 33.7863 57.5108 33.8729 57.6576 33.9821C57.7819 34.0687 57.94 34.1252 57.94 34.2947C57.94 34.4265 57.8685 34.5131 57.6501 34.5131C57.458 34.5131 57.074 34.4942 56.8631 34.4942C56.6071 34.4942 56.3698 34.5131 56.0987 34.5131C55.9142 34.5131 55.854 34.4189 55.854 34.3097C55.854 34.144 55.9933 34.0612 56.0648 33.9897C56.2493 33.7939 56.2757 33.6018 56.2757 33.406V30.2506C56.2757 30.0284 56.1364 29.9418 56.0234 29.8928C55.9443 29.8439 55.8766 29.7949 55.8766 29.6933C55.8766 29.5012 56.11 29.4673 56.3999 29.3431C56.769 29.1736 56.8706 29.0908 57.0062 29.0908C57.1455 29.0908 57.2246 29.151 57.2773 29.3431C57.3074 29.4899 57.33 29.6443 57.3903 29.6443C57.4769 29.6443 57.7856 29.0682 58.5274 29.0682C59.4462 29.0682 59.9545 29.8476 59.9545 30.9359ZM62.6134 31.5233C62.6134 31.2785 62.587 31.222 62.5456 31.222C62.3272 31.222 62.1314 31.2522 61.9544 31.3162C61.6344 31.4291 61.4536 31.6588 61.4536 31.9111C61.4536 32.1634 61.6344 32.3329 61.9092 32.3329C62.3498 32.3329 62.6134 31.9864 62.6134 31.5233ZM61.4235 30.9208C61.8942 30.7702 62.41 30.7401 62.5155 30.661C62.5607 30.6271 62.6058 30.548 62.6058 30.2995C62.6058 29.8853 62.4251 29.5652 62.0297 29.5652C61.6984 29.5652 61.5214 29.8288 61.4235 30.1941C61.367 30.3974 61.2804 30.5443 61.0319 30.5443C60.7758 30.5443 60.5273 30.3635 60.5273 29.9983C60.5273 29.5464 61.0733 29.0644 62.0373 29.0644C62.9749 29.0644 63.7091 29.5238 63.7091 30.5706C63.7091 31.0526 63.6677 31.5195 63.6677 31.9036C63.6677 32.0504 63.7167 32.2161 63.8861 32.2161C63.9652 32.2161 64.0028 32.1898 64.0593 32.1898C64.1007 32.1898 64.1346 32.2463 64.1346 32.3329C64.1346 32.7282 63.7844 33.0295 63.3514 33.0295C62.9975 33.0295 62.7866 32.9014 62.6661 32.6567C62.651 32.6228 62.6284 32.5889 62.5983 32.5889C62.5682 32.5889 62.5381 32.6303 62.5079 32.6605C62.2707 32.8826 61.8753 33.0558 61.4762 33.0558C60.8398 33.0558 60.3466 32.7282 60.3466 32.1107C60.3466 31.5157 60.7645 31.143 61.4235 30.9208ZM68.4082 30.4991C68.4082 31.1204 68.3028 31.7718 68.3028 32.0354C68.3028 32.2048 68.363 32.3743 68.4873 32.4722C68.6266 32.5776 68.7433 32.604 68.7433 32.7659C68.7433 32.8977 68.653 32.9843 68.4308 32.9843C68.2312 32.9843 68.058 32.9655 67.8434 32.9655C67.5911 32.9655 67.4857 32.9843 67.2484 32.9843C67.0865 32.9843 67.0263 32.8901 67.0263 32.7772C67.0263 32.6303 67.0941 32.491 67.1204 32.4082C67.1957 32.1935 67.2786 31.5007 67.2786 30.8304C67.2786 30.1414 67.0413 29.8251 66.6158 29.8251C66.2995 29.8251 65.9117 30.1225 65.9117 30.5292V31.93C65.9117 32.2274 65.9456 32.3404 66.0585 32.4571C66.1677 32.5701 66.2958 32.5964 66.2958 32.7659C66.2958 32.8939 66.2242 32.9843 66.0021 32.9843C65.7874 32.9843 65.5841 32.9655 65.3845 32.9655C65.136 32.9655 64.9214 32.9843 64.6503 32.9843C64.4658 32.9843 64.4055 32.8901 64.4055 32.7772C64.4055 32.6153 64.5448 32.5324 64.6164 32.4609C64.8009 32.2651 64.8235 32.0693 64.8235 31.8772V30.2506C64.8235 30.0322 64.6879 29.9418 64.575 29.8928C64.4959 29.8439 64.4281 29.7949 64.4281 29.6933C64.4281 29.5012 64.6616 29.4673 64.9477 29.3431C65.3205 29.1736 65.4222 29.0908 65.554 29.0908C65.6933 29.0908 65.7724 29.151 65.8251 29.3431C65.8552 29.4899 65.8778 29.6443 65.9418 29.6443C66.0247 29.6443 66.4765 29.0682 67.1882 29.0682C68.0166 29.0682 68.4082 29.5954 68.4082 30.4991ZM72.4178 30.1564C72.1994 30.7137 71.9057 31.5383 71.6723 32.0806C71.0773 33.4889 70.6556 34.6034 69.7707 34.6034C69.3603 34.6034 69.044 34.3323 69.044 33.9219C69.044 33.5604 69.285 33.2855 69.5674 33.2855C69.7067 33.2855 69.7933 33.3608 69.8611 33.4474C69.959 33.5792 70.0305 33.7148 70.1623 33.7148C70.3016 33.7148 70.5389 33.4135 70.5389 33.1989C70.5389 32.9429 69.9778 31.7341 69.7707 31.2333C69.605 30.8417 69.2172 29.8966 69.0025 29.7008C68.8933 29.5916 68.7954 29.5012 68.7954 29.3506C68.7954 29.2188 68.8783 29.1284 69.044 29.1284C69.2624 29.1284 69.428 29.1473 69.654 29.1473C69.8611 29.1473 70.1209 29.1284 70.3468 29.1284C70.5125 29.1284 70.6142 29.1736 70.6142 29.377C70.6142 29.5201 70.4071 29.6104 70.4071 29.8326C70.4071 29.9719 70.4861 30.2016 70.7234 30.7928C70.938 31.3162 71.0849 31.6927 71.1376 31.6927C71.2166 31.6927 71.3786 31.1995 71.5668 30.612C71.7137 30.1865 71.7363 30.0359 71.7363 29.9418C71.7363 29.618 71.4463 29.5426 71.4463 29.3431C71.4463 29.2075 71.5405 29.1284 71.6647 29.1284C71.8304 29.1284 72.0789 29.1473 72.2296 29.1473C72.4028 29.1473 72.5609 29.1284 72.6814 29.1284C72.8546 29.1284 72.8998 29.2188 72.8998 29.3242C72.8998 29.5954 72.6513 29.5389 72.4178 30.1564Z" fill="black"/>
<path d="M45.1487 41.0395H44.1151V42.4967H43.5616V38.4131H45.1487C45.5478 38.4131 45.866 38.5336 46.1033 38.7745C46.3442 39.0118 46.4647 39.3281 46.4647 39.7234C46.4647 40.1075 46.3442 40.4238 46.1033 40.6723C45.8623 40.9171 45.5441 41.0395 45.1487 41.0395ZM45.0527 38.9101H44.1151V40.5424H45.0301C45.3012 40.5424 45.5102 40.469 45.657 40.3221C45.8077 40.1753 45.883 39.9738 45.883 39.7178C45.883 39.4617 45.8095 39.2641 45.6627 39.1247C45.5158 38.9816 45.3125 38.9101 45.0527 38.9101ZM48.0662 42.5645C47.6596 42.5645 47.3282 42.4308 47.0721 42.1635C46.8199 41.8961 46.6937 41.5478 46.6937 41.1185C46.6937 40.6855 46.818 40.3334 47.0665 40.0623C47.3188 39.7912 47.6445 39.6557 48.0436 39.6557C48.4352 39.6557 48.7497 39.7799 48.9869 40.0284C49.2241 40.277 49.3427 40.6064 49.3427 41.0169V41.2146L47.2077 41.2202C47.2265 41.5102 47.3094 41.7342 47.4562 41.8923C47.6068 42.0467 47.8139 42.1239 48.0775 42.1239C48.4993 42.1239 48.7572 41.962 48.8513 41.6382H49.3484C49.2806 41.9356 49.1356 42.1653 48.9135 42.3273C48.6913 42.4854 48.4089 42.5645 48.0662 42.5645ZM48.0436 40.1019C47.8139 40.1019 47.6275 40.1678 47.4845 40.2996C47.3414 40.4313 47.2529 40.6196 47.219 40.8644H48.8118C48.8118 40.6347 48.7421 40.4502 48.6028 40.3109C48.4635 40.1715 48.2771 40.1019 48.0436 40.1019ZM51.5172 39.7121V40.1979H51.28C51.0277 40.1979 50.8281 40.2713 50.6813 40.4182C50.5382 40.565 50.4667 40.7702 50.4667 41.0338V42.4967H49.9357V39.7404H50.4328L50.4667 40.1583C50.5231 40.0115 50.6192 39.8948 50.7547 39.8082C50.8903 39.7216 51.0503 39.6783 51.2348 39.6783C51.3177 39.6783 51.4118 39.6895 51.5172 39.7121ZM52.5574 42.4967H52.0265V38.3396H52.5574V41.0338L53.7831 39.7347H54.4496L53.3934 40.8361L54.4439 42.4967H53.8339L53.0262 41.2202L52.5574 41.7116V42.4967ZM54.674 41.6947H55.1824C55.1824 41.834 55.2313 41.9451 55.3292 42.0279C55.4309 42.107 55.5702 42.1465 55.7472 42.1465C55.9317 42.1465 56.0748 42.1107 56.1765 42.0392C56.2819 41.9677 56.3346 41.8679 56.3346 41.7398C56.3346 41.6419 56.3064 41.5648 56.2499 41.5083C56.1934 41.448 56.0955 41.401 55.9562 41.3671L55.4704 41.2541C54.9885 41.1374 54.7475 40.8813 54.7475 40.4859C54.7475 40.2337 54.8435 40.0322 55.0355 39.8816C55.2276 39.731 55.478 39.6557 55.7867 39.6557C56.088 39.6557 56.329 39.7347 56.5097 39.8929C56.6942 40.0473 56.7902 40.2563 56.7978 40.5198H56.2894C56.2819 40.3805 56.2329 40.2713 56.1426 40.1922C56.0522 40.1094 55.9279 40.068 55.7698 40.068C55.6041 40.068 55.4761 40.1038 55.3857 40.1753C55.2953 40.2431 55.2502 40.341 55.2502 40.469C55.2502 40.6535 55.3857 40.7797 55.6568 40.8474L56.1426 40.966C56.3836 41.0225 56.5605 41.1091 56.6735 41.2259C56.7865 41.3426 56.8429 41.5026 56.8429 41.706C56.8429 41.9658 56.7413 42.1748 56.5379 42.3329C56.3346 42.4873 56.0673 42.5645 55.7359 42.5645C55.4121 42.5645 55.1541 42.4854 54.9621 42.3273C54.7701 42.1691 54.674 41.9582 54.674 41.6947Z" fill="#757575"/>
<rect x="16.4174" y="53.3442" width="67.3029" height="19.7538" rx="4.36416" fill="#F0F0F0" stroke="#D5D5D5" stroke-width="0.459385" stroke-dasharray="2.3 2.3"/>
<rect x="16.3792" y="77.7301" width="67.3795" height="19.8303" rx="4.40244" fill="#F7F3CE" stroke="#EDB408" stroke-width="0.382822"/>
<g clip-path="url(#clip1_2224_10115)">
<path d="M34.0648 86.2772C33.9856 86.0393 33.7683 85.8703 33.5112 85.8478L30.0187 85.5398L28.6377 82.4005C28.5359 82.1704 28.304 82.0215 28.0463 82.0215C27.7886 82.0215 27.5567 82.1704 27.4549 82.401L26.0739 85.5398L22.5808 85.8478C22.3242 85.8708 22.1074 86.0393 22.0278 86.2772C21.9481 86.5152 22.0217 86.7762 22.2158 86.9407L24.8557 89.1892L24.0773 92.5195C24.0203 92.7644 24.1182 93.0175 24.3274 93.1643C24.4398 93.2433 24.5714 93.2834 24.704 93.2834C24.8184 93.2834 24.9319 93.2535 25.0337 93.1943L28.0463 91.4456L31.0578 93.1943C31.2782 93.323 31.5559 93.3113 31.7647 93.1643C31.974 93.017 32.0717 92.7638 32.0148 92.5195L31.2363 89.1892L33.8762 86.9412C34.0704 86.7762 34.1445 86.5156 34.0648 86.2772Z" fill="#FFC107"/>
</g>
<rect x="39.4207" y="84.1196" width="25.1686" height="2.82041" rx="1.41021" fill="#FFC107"/>
<rect x="39.4207" y="88.8206" width="30.4927" height="2.82041" rx="1.41021" fill="#FFC107"/>
<path d="M123.582 29.4297C123.582 28.8724 123.191 28.4883 122.626 28.4883C122.227 28.4883 122.152 28.5373 122.152 28.9967V29.7686C122.152 30.2694 122.355 30.3598 122.765 30.3598C123.285 30.3598 123.582 30.0058 123.582 29.4297ZM122.163 31.2785V31.8208C122.163 32.1822 122.336 32.3253 122.588 32.4345C122.765 32.5136 122.924 32.5814 122.924 32.7358C122.924 32.924 122.762 32.9843 122.521 32.9843C122.298 32.9843 121.813 32.9655 121.568 32.9655C121.308 32.9655 120.984 32.9843 120.804 32.9843C120.596 32.9843 120.506 32.9014 120.506 32.7772C120.506 32.5249 120.864 32.5362 120.924 32.1107C120.958 31.8961 120.969 31.0187 120.969 30.2882C120.969 29.7761 120.965 29.0607 120.954 28.8988C120.905 28.3038 120.536 28.3377 120.536 28.0478C120.536 27.9235 120.596 27.8256 120.807 27.8256C121.188 27.8256 121.316 27.8444 121.756 27.8444C122.17 27.8444 122.615 27.8181 123.089 27.8181C124.177 27.8181 124.885 28.4281 124.885 29.3657C124.885 30.2694 124.321 31.0338 123.055 31.0338C122.694 31.0338 122.498 30.9773 122.34 30.9773C122.178 30.9773 122.163 31.0526 122.163 31.2785ZM127.353 31.5233C127.353 31.2785 127.326 31.222 127.285 31.222C127.066 31.222 126.871 31.2522 126.694 31.3162C126.374 31.4291 126.193 31.6588 126.193 31.9111C126.193 32.1634 126.374 32.3329 126.648 32.3329C127.089 32.3329 127.353 31.9864 127.353 31.5233ZM126.163 30.9208C126.633 30.7702 127.149 30.7401 127.255 30.661C127.3 30.6271 127.345 30.548 127.345 30.2995C127.345 29.8853 127.164 29.5652 126.769 29.5652C126.438 29.5652 126.261 29.8288 126.163 30.1941C126.106 30.3974 126.02 30.5443 125.771 30.5443C125.515 30.5443 125.267 30.3635 125.267 29.9983C125.267 29.5464 125.813 29.0644 126.776 29.0644C127.714 29.0644 128.448 29.5238 128.448 30.5706C128.448 31.0526 128.407 31.5195 128.407 31.9036C128.407 32.0504 128.456 32.2161 128.625 32.2161C128.704 32.2161 128.742 32.1898 128.799 32.1898C128.84 32.1898 128.874 32.2463 128.874 32.3329C128.874 32.7282 128.524 33.0295 128.091 33.0295C127.737 33.0295 127.526 32.9014 127.405 32.6567C127.39 32.6228 127.368 32.5889 127.338 32.5889C127.307 32.5889 127.277 32.6303 127.247 32.6605C127.01 32.8826 126.615 33.0558 126.215 33.0558C125.579 33.0558 125.086 32.7282 125.086 32.1107C125.086 31.5157 125.504 31.143 126.163 30.9208ZM131.182 29.938C130.881 29.938 130.651 30.3334 130.651 30.6986V31.881C130.651 32.1785 130.711 32.3027 130.922 32.4609C131.046 32.555 131.261 32.5927 131.261 32.7659C131.261 32.8939 131.193 32.9843 130.971 32.9843C130.753 32.9843 130.497 32.9655 130.124 32.9655C129.868 32.9655 129.71 32.9843 129.389 32.9843C129.205 32.9843 129.145 32.8901 129.145 32.7772C129.145 32.6153 129.284 32.5324 129.356 32.4609C129.54 32.2651 129.563 32.0693 129.563 31.8772V30.2506C129.563 30.0322 129.427 29.9418 129.314 29.8928C129.235 29.8439 129.167 29.7949 129.167 29.6933C129.167 29.5012 129.401 29.4673 129.687 29.3431C130.06 29.1736 130.161 29.0908 130.293 29.0908C130.433 29.0908 130.512 29.151 130.564 29.3431C130.594 29.4899 130.617 29.6443 130.681 29.6443C130.764 29.6443 131.125 29.0682 131.732 29.0682C132.101 29.0682 132.451 29.2866 132.451 29.8853C132.451 30.2995 132.15 30.7212 131.777 30.7212C131.528 30.7212 131.517 30.5669 131.46 30.307C131.412 30.0698 131.314 29.938 131.182 29.938ZM134.174 29.9568C134.158 30.1112 134.14 30.9509 134.14 31.3425C134.14 31.7718 134.253 32.1634 134.667 32.1634C134.874 32.1634 135.017 32.0429 135.111 31.9638C135.156 31.9187 135.186 31.8961 135.228 31.8961C135.284 31.8961 135.341 31.9375 135.341 32.0768C135.341 32.1559 135.314 32.2575 135.262 32.3592C135.119 32.6529 134.746 33.0408 134.094 33.0408C133.353 33.0408 133.029 32.54 133.029 31.6777C133.029 31.335 133.078 30.533 133.078 30.0999C133.078 29.9456 133.036 29.8665 132.912 29.8439C132.679 29.8175 132.536 29.7799 132.536 29.633C132.536 29.5012 132.569 29.3732 132.713 29.3017C132.961 29.1774 133.21 29.0155 133.39 28.8347C133.692 28.5222 133.733 28.1607 133.966 28.1607C134.102 28.1607 134.207 28.2662 134.207 28.4958C134.207 28.654 134.17 29.1699 134.17 29.2038C134.17 29.2226 134.174 29.2339 134.204 29.2339C134.279 29.2339 134.855 29.2 134.953 29.2C135.122 29.2 135.224 29.2489 135.224 29.456C135.224 29.5916 135.149 29.7799 135.07 29.8665C135.047 29.8891 134.994 29.9154 134.923 29.9154C134.84 29.9154 134.35 29.8853 134.238 29.8853C134.215 29.8853 134.177 29.8928 134.174 29.9568ZM139.605 30.4991C139.605 31.1204 139.499 31.7718 139.499 32.0354C139.499 32.2048 139.559 32.3743 139.684 32.4722C139.823 32.5776 139.94 32.604 139.94 32.7659C139.94 32.8977 139.849 32.9843 139.627 32.9843C139.428 32.9843 139.254 32.9655 139.04 32.9655C138.787 32.9655 138.682 32.9843 138.445 32.9843C138.283 32.9843 138.223 32.8901 138.223 32.7772C138.223 32.6303 138.29 32.491 138.317 32.4082C138.392 32.1935 138.475 31.5007 138.475 30.8304C138.475 30.1414 138.238 29.8251 137.812 29.8251C137.496 29.8251 137.108 30.1225 137.108 30.5292V31.93C137.108 32.2274 137.142 32.3404 137.255 32.4571C137.364 32.5701 137.492 32.5964 137.492 32.7659C137.492 32.8939 137.421 32.9843 137.198 32.9843C136.984 32.9843 136.781 32.9655 136.581 32.9655C136.332 32.9655 136.118 32.9843 135.847 32.9843C135.662 32.9843 135.602 32.8901 135.602 32.7772C135.602 32.6153 135.741 32.5324 135.813 32.4609C135.997 32.2651 136.02 32.0693 136.02 31.8772V30.2506C136.02 30.0322 135.884 29.9418 135.771 29.8928C135.692 29.8439 135.625 29.7949 135.625 29.6933C135.625 29.5012 135.858 29.4673 136.144 29.3431C136.517 29.1736 136.619 29.0908 136.75 29.0908C136.89 29.0908 136.969 29.151 137.021 29.3431C137.052 29.4899 137.074 29.6443 137.138 29.6443C137.221 29.6443 137.673 29.0682 138.385 29.0682C139.213 29.0682 139.605 29.5954 139.605 30.4991ZM142.701 30.2581C142.701 29.9079 142.46 29.6443 142.132 29.6443C141.684 29.6443 141.375 30.0999 141.375 30.5669C141.375 30.7062 141.42 30.789 141.522 30.789C141.759 30.789 142.369 30.6873 142.603 30.4802C142.667 30.42 142.701 30.3522 142.701 30.2581ZM143.405 30.9359C142.972 31.1806 142.076 31.2748 141.612 31.3011C141.541 31.3049 141.515 31.3199 141.515 31.3727C141.515 31.6513 141.786 32.1672 142.479 32.1672C143.013 32.1672 143.333 31.9074 143.525 31.6588C143.574 31.6099 143.631 31.576 143.676 31.576C143.744 31.576 143.789 31.6438 143.789 31.7906C143.789 32.2839 143.209 33.0483 142.14 33.0483C140.98 33.0483 140.268 32.2613 140.268 31.1467C140.268 30.0284 141.055 29.0682 142.241 29.0682C143.273 29.0682 143.725 29.8288 143.725 30.4313C143.725 30.6873 143.597 30.8342 143.405 30.9359ZM146.163 29.938C145.862 29.938 145.632 30.3334 145.632 30.6986V31.881C145.632 32.1785 145.692 32.3027 145.903 32.4609C146.027 32.555 146.242 32.5927 146.242 32.7659C146.242 32.8939 146.174 32.9843 145.952 32.9843C145.734 32.9843 145.477 32.9655 145.105 32.9655C144.849 32.9655 144.691 32.9843 144.37 32.9843C144.186 32.9843 144.126 32.8901 144.126 32.7772C144.126 32.6153 144.265 32.5324 144.337 32.4609C144.521 32.2651 144.544 32.0693 144.544 31.8772V30.2506C144.544 30.0322 144.408 29.9418 144.295 29.8928C144.216 29.8439 144.148 29.7949 144.148 29.6933C144.148 29.5012 144.382 29.4673 144.668 29.3431C145.041 29.1736 145.142 29.0908 145.274 29.0908C145.413 29.0908 145.493 29.151 145.545 29.3431C145.575 29.4899 145.598 29.6443 145.662 29.6443C145.745 29.6443 146.106 29.0682 146.713 29.0682C147.082 29.0682 147.432 29.2866 147.432 29.8853C147.432 30.2995 147.131 30.7212 146.758 30.7212C146.509 30.7212 146.498 30.5669 146.441 30.307C146.393 30.0698 146.295 29.938 146.163 29.938ZM149.309 29.0607C149.693 29.0607 150.239 29.136 150.454 29.3581C150.623 29.5313 150.672 29.7497 150.672 30.0472C150.672 30.2543 150.57 30.3673 150.442 30.3673C150.314 30.3673 150.22 30.2468 150.107 30.115C149.923 29.8966 149.667 29.6029 149.234 29.6029C148.929 29.6029 148.77 29.7723 148.77 29.9832C148.77 30.2844 149.072 30.3673 149.633 30.5631C150.239 30.7702 150.845 31.0338 150.845 31.8396C150.845 32.5814 150.19 33.0709 149.249 33.0709C148.827 33.0709 148.187 32.9466 147.912 32.6379C147.795 32.5174 147.712 32.2613 147.712 31.9375C147.712 31.7341 147.795 31.6099 147.95 31.6099C148.036 31.6099 148.111 31.689 148.194 31.7944C148.398 32.0467 148.695 32.4421 149.256 32.4421C149.557 32.4421 149.723 32.2801 149.723 32.0429C149.723 31.7003 149.298 31.6212 148.763 31.384C148.307 31.1806 147.803 30.9547 147.803 30.2581C147.803 29.5238 148.503 29.0607 149.309 29.0607Z" fill="black"/>
<path d="M130.712 41.0395H129.679V42.4967H129.125V38.4131H130.712C131.111 38.4131 131.43 38.5336 131.667 38.7745C131.908 39.0118 132.028 39.3281 132.028 39.7234C132.028 40.1075 131.908 40.4238 131.667 40.6723C131.426 40.9171 131.108 41.0395 130.712 41.0395ZM130.616 38.9101H129.679V40.5424H130.594C130.865 40.5424 131.074 40.469 131.221 40.3221C131.371 40.1753 131.446 39.9738 131.446 39.7178C131.446 39.4617 131.373 39.2641 131.226 39.1247C131.079 38.9816 130.876 38.9101 130.616 38.9101ZM133.63 42.5645C133.223 42.5645 132.892 42.4308 132.636 42.1635C132.383 41.8961 132.257 41.5478 132.257 41.1185C132.257 40.6855 132.381 40.3334 132.63 40.0623C132.882 39.7912 133.208 39.6557 133.607 39.6557C133.999 39.6557 134.313 39.7799 134.55 40.0284C134.788 40.277 134.906 40.6064 134.906 41.0169V41.2146L132.771 41.2202C132.79 41.5102 132.873 41.7342 133.02 41.8923C133.17 42.0467 133.377 42.1239 133.641 42.1239C134.063 42.1239 134.321 41.962 134.415 41.6382H134.912C134.844 41.9356 134.699 42.1653 134.477 42.3273C134.255 42.4854 133.972 42.5645 133.63 42.5645ZM133.607 40.1019C133.377 40.1019 133.191 40.1678 133.048 40.2996C132.905 40.4313 132.816 40.6196 132.782 40.8644H134.375C134.375 40.6347 134.306 40.4502 134.166 40.3109C134.027 40.1715 133.841 40.1019 133.607 40.1019ZM137.081 39.7121V40.1979H136.843C136.591 40.1979 136.392 40.2713 136.245 40.4182C136.102 40.565 136.03 40.7702 136.03 41.0338V42.4967H135.499V39.7404H135.996L136.03 40.1583C136.087 40.0115 136.183 39.8948 136.318 39.8082C136.454 39.7216 136.614 39.6783 136.798 39.6783C136.881 39.6783 136.975 39.6895 137.081 39.7121ZM138.121 42.4967H137.59V38.3396H138.121V41.0338L139.347 39.7347H140.013L138.957 40.8361L140.007 42.4967H139.397L138.59 41.2202L138.121 41.7116V42.4967ZM140.238 41.6947H140.746C140.746 41.834 140.795 41.9451 140.893 42.0279C140.994 42.107 141.134 42.1465 141.311 42.1465C141.495 42.1465 141.638 42.1107 141.74 42.0392C141.845 41.9677 141.898 41.8679 141.898 41.7398C141.898 41.6419 141.87 41.5648 141.813 41.5083C141.757 41.448 141.659 41.401 141.52 41.3671L141.034 41.2541C140.552 41.1374 140.311 40.8813 140.311 40.4859C140.311 40.2337 140.407 40.0322 140.599 39.8816C140.791 39.731 141.041 39.6557 141.35 39.6557C141.651 39.6557 141.892 39.7347 142.073 39.8929C142.258 40.0473 142.354 40.2563 142.361 40.5198H141.853C141.845 40.3805 141.796 40.2713 141.706 40.1922C141.616 40.1094 141.491 40.068 141.333 40.068C141.168 40.068 141.04 40.1038 140.949 40.1753C140.859 40.2431 140.814 40.341 140.814 40.469C140.814 40.6535 140.949 40.7797 141.22 40.8474L141.706 40.966C141.947 41.0225 142.124 41.1091 142.237 41.2259C142.35 41.3426 142.406 41.5026 142.406 41.706C142.406 41.9658 142.305 42.1748 142.101 42.3329C141.898 42.4873 141.631 42.5645 141.299 42.5645C140.976 42.5645 140.718 42.4854 140.526 42.3273C140.334 42.1691 140.238 41.9582 140.238 41.6947Z" fill="#757575"/>
<rect x="102.134" y="53.3059" width="67.3795" height="19.8303" rx="4.40244" fill="#F7F3CE" stroke="#EDB408" stroke-width="0.382822"/>
<g clip-path="url(#clip2_2224_10115)">
<path d="M119.82 61.853C119.741 61.6151 119.523 61.4461 119.266 61.4236L115.774 61.1156L114.393 57.9763C114.291 57.7462 114.059 57.5973 113.801 57.5973C113.544 57.5973 113.312 57.7462 113.21 57.9768L111.829 61.1156L108.336 61.4236C108.079 61.4466 107.862 61.6151 107.783 61.853C107.703 62.091 107.777 62.352 107.971 62.5165L110.611 64.765L109.832 68.0953C109.775 68.3402 109.873 68.5933 110.082 68.7402C110.195 68.8191 110.326 68.8592 110.459 68.8592C110.573 68.8592 110.687 68.8293 110.789 68.7701L113.801 67.0214L116.813 68.7701C117.033 68.8989 117.311 68.8871 117.52 68.7402C117.729 68.5928 117.827 68.3396 117.77 68.0953L116.991 64.765L119.631 62.517C119.825 62.352 119.899 62.0914 119.82 61.853Z" fill="#FFC107"/>
</g>
<rect x="125.176" y="59.6956" width="25.1686" height="2.82041" rx="1.41021" fill="#FFC107"/>
<rect x="125.176" y="64.3964" width="30.4927" height="2.82041" rx="1.41021" fill="#FFC107"/>
<rect x="102.172" y="77.7684" width="67.3029" height="19.7538" rx="4.36416" fill="#F0F0F0" stroke="#D5D5D5" stroke-width="0.459385" stroke-dasharray="2.3 2.3"/>
<rect x="-2.76196" y="3.55457" width="191.411" height="13.3988" fill="#EDB408"/>
<path d="M99.6052 88.4282C99.6052 89.2739 100.291 89.9595 101.137 89.9595C101.982 89.9595 102.668 89.2739 102.668 88.4282C102.668 87.5825 101.982 86.8969 101.137 86.8969C100.291 86.8969 99.6052 87.5825 99.6052 88.4282ZM83.602 62.0707C83.602 62.9164 84.2876 63.602 85.1333 63.602C85.979 63.602 86.6646 62.9164 86.6646 62.0707C86.6646 61.225 85.979 60.5394 85.1333 60.5394C84.2876 60.5394 83.602 61.225 83.602 62.0707ZM101.153 88.1416C99.4129 88.0401 98.0647 87.5618 97.0058 86.8149C95.9457 86.0672 95.1582 85.0381 94.5593 83.809C93.3554 81.3383 92.9331 78.105 92.5773 74.8433C92.2246 71.6102 91.9374 68.3393 90.9711 65.896C90.4851 64.6671 89.819 63.6234 88.8665 62.8934C87.9097 62.1601 86.6885 61.7621 85.1293 61.7836L85.1373 62.3578C86.5882 62.3377 87.6782 62.7061 88.5172 63.3491C89.3604 63.9954 89.9747 64.938 90.4371 66.1072C91.3676 68.46 91.6495 71.6326 92.0065 74.9056C92.3603 78.1499 92.7882 81.4851 94.0431 84.0606C94.6737 85.3546 95.5177 86.468 96.6749 87.2842C97.8332 88.1012 99.288 88.608 101.12 88.7148L101.153 88.1416Z" fill="url(#paint1_linear_2224_10115)"/>
<path d="M99.643 62.7979C99.643 61.9522 100.329 61.2666 101.174 61.2666C102.02 61.2666 102.706 61.9522 102.706 62.7979C102.706 63.6436 102.02 64.3292 101.174 64.3292C100.329 64.3292 99.643 63.6436 99.643 62.7979ZM83.5644 89.2119C83.5644 88.3662 84.25 87.6806 85.0957 87.6806C85.9414 87.6806 86.627 88.3662 86.627 89.2119C86.627 90.0576 85.9414 90.7432 85.0957 90.7432C84.25 90.7432 83.5644 90.0576 83.5644 89.2119ZM101.191 63.0845C99.442 63.1863 98.0872 63.6657 97.023 64.4144C95.9577 65.1638 95.1664 66.1953 94.5647 67.427C93.3552 69.903 92.9308 73.1433 92.5734 76.4119C92.2191 79.652 91.9304 82.9299 90.9596 85.3784C90.4713 86.61 89.8022 87.6557 88.8454 88.3872C87.8844 89.1218 86.6578 89.5206 85.0917 89.499L85.0997 88.9248C86.5579 88.9449 87.6534 88.5756 88.4966 87.931C89.344 87.2832 89.9612 86.3385 90.4258 85.1668C91.3607 82.8089 91.6439 79.6294 92.0026 76.3495C92.3581 73.0982 92.788 69.7559 94.0488 67.1749C94.6823 65.8781 95.5303 64.7624 96.6926 63.9447C97.8562 63.1261 99.3175 62.6183 101.158 62.5113L101.191 63.0845Z" fill="url(#paint2_linear_2224_10115)"/>
</g>
</g>
<defs>
<filter id="filter0_d_2224_10115" x="0.410436" y="0.881119" width="185.449" height="117.2" filterUnits="userSpaceOnUse" color-interpolation-filters="sRGB">
<feFlood flood-opacity="0" result="BackgroundImageFix"/>
<feColorMatrix in="SourceAlpha" type="matrix" values="0 0 0 0 0 0 0 0 0 0 0 0 0 0 0 0 0 0 127 0" result="hardAlpha"/>
<feOffset dy="0.470683"/>
<feGaussianBlur stdDeviation="3.29478"/>
<feComposite in2="hardAlpha" operator="out"/>
<feColorMatrix type="matrix" values="0 0 0 0 0 0 0 0 0 0 0 0 0 0 0 0 0 0 0.1 0"/>
<feBlend mode="normal" in2="BackgroundImageFix" result="effect1_dropShadow_2224_10115"/>
<feBlend mode="normal" in="SourceGraphic" in2="effect1_dropShadow_2224_10115" result="shape"/>
</filter>
<linearGradient id="paint0_linear_2224_10115" x1="93.135" y1="7" x2="93.135" y2="111.021" gradientUnits="userSpaceOnUse">
<stop stop-color="white"/>
<stop offset="1" stop-color="white"/>
</linearGradient>
<linearGradient id="paint1_linear_2224_10115" x1="93.1349" y1="62.0699" x2="93.1349" y2="88.4282" gradientUnits="userSpaceOnUse">
<stop stop-color="#FFC107"/>
<stop offset="1" stop-color="#F79400"/>
</linearGradient>
<linearGradient id="paint2_linear_2224_10115" x1="93.135" y1="89.2126" x2="93.135" y2="62.7979" gradientUnits="userSpaceOnUse">
<stop stop-color="#FFC107"/>
<stop offset="1" stop-color="#F79400"/>
</linearGradient>
<clipPath id="clip0_2224_10115">
<rect x="7" y="7" width="172.27" height="104.021" rx="11.4847" fill="white"/>
</clipPath>
<clipPath id="clip1_2224_10115">
<rect width="12.1003" height="11.7517" fill="white" transform="translate(21.9961 81.7694)"/>
</clipPath>
<clipPath id="clip2_2224_10115">
<rect width="12.1003" height="11.7517" fill="white" transform="translate(107.751 57.3452)"/>
</clipPath>
</defs>
</svg>
