<svg width="464" height="293" viewBox="0 0 464 293" fill="none" xmlns="http://www.w3.org/2000/svg">
<g filter="url(#filter0_d_2154_11278)">
<g clip-path="url(#clip0_2154_11278)">
<rect x="17" y="15.619" width="429.905" height="259.587" rx="28.6603" fill="url(#paint0_linear_2154_11278)"/>
<path d="M79.1983 72.1296C79.0291 72.1296 78.5969 73.1445 77.629 75.7286C77.037 77.2978 76.5108 78.745 76.2383 79.3088C76.0127 79.7222 75.6557 80.0417 75.167 80.0417C74.9227 80.0417 74.7066 79.8162 74.5844 79.5531C74.3307 79.0081 72.4231 74.2251 71.6714 72.4585C71.5492 72.1766 71.4741 72.0356 71.3989 72.0356C71.3237 72.0356 71.2861 72.1578 71.2673 72.3551C71.2297 72.6934 71.1452 75.4937 71.1452 76.0387C71.1452 77.0159 71.2485 77.8711 71.3989 78.1999C71.7466 78.8765 72.2634 78.8859 72.2634 79.4403C72.2634 79.7692 72.0849 79.9947 71.5868 79.9947C70.976 79.9947 70.6096 79.9478 70.2713 79.9478C69.8484 79.9478 69.3504 79.9947 68.7302 79.9947C68.2885 79.9947 68.0818 79.7786 68.0818 79.4497C68.0818 78.745 69.0027 78.9047 69.1906 77.4764C69.388 75.8977 69.5477 72.6464 69.5477 71.1899C69.5477 70.6167 69.5289 70.1469 69.5007 69.7992C69.3692 68.3145 68.4577 68.3991 68.4577 67.6755C68.4577 67.356 68.6174 67.1211 69.1155 67.1211C69.4537 67.1211 70.2243 67.1681 70.6847 67.1681C71.7748 67.1681 72.0849 67.2245 72.4137 67.4312C72.7614 67.6473 73.0809 68.1547 73.2595 68.4836C73.5508 69.0192 75.3737 73.37 75.9282 74.6667C75.9657 74.7701 76.0127 74.8359 76.0879 74.8359C76.1349 74.8359 76.1913 74.8077 76.257 74.6761C76.4168 74.2627 78.0612 70.0435 78.7848 68.446C79.0291 67.9292 79.2734 67.6097 79.5553 67.4218C79.8654 67.2338 80.3635 67.1681 81.3313 67.1681C81.6226 67.1681 82.2616 67.1211 82.5999 67.1211C83.0603 67.1211 83.2295 67.3654 83.2295 67.6849C83.2295 68.3803 82.3744 68.3427 82.1958 69.771C82.1489 70.1563 82.1395 70.7389 82.1395 71.1053C82.1395 73.0975 82.3556 76.2642 82.5247 77.4388C82.7221 78.9235 83.643 78.745 83.643 79.4497C83.643 79.7786 83.4362 79.9947 82.9664 79.9947C82.365 79.9947 81.4629 79.9478 81.0494 79.9478C80.4104 79.9478 79.7809 79.9947 79.1701 79.9947C78.6908 79.9947 78.4277 79.7974 78.4277 79.4779C78.4277 78.8483 79.2922 78.8765 79.4896 77.7771C79.5177 77.6173 79.5271 77.3542 79.5271 77.0253C79.5271 76.1796 79.452 74.1123 79.3204 72.4491C79.2922 72.2142 79.2264 72.1296 79.1983 72.1296ZM92.799 72.9377C92.254 74.3285 91.521 76.3864 90.9384 77.7395C89.4537 81.2539 88.4013 84.0354 86.193 84.0354C85.1688 84.0354 84.3794 83.3588 84.3794 82.3345C84.3794 81.4325 84.9808 80.7465 85.6856 80.7465C86.0333 80.7465 86.2494 80.9344 86.4185 81.1505C86.6629 81.4794 86.8414 81.8177 87.1703 81.8177C87.518 81.8177 88.11 81.066 88.11 80.5304C88.11 79.8914 86.7098 76.875 86.193 75.6252C85.7796 74.6479 84.8117 72.2893 84.2761 71.8007C84.0036 71.5282 83.7592 71.3027 83.7592 70.9268C83.7592 70.5979 83.966 70.3724 84.3794 70.3724C84.9244 70.3724 85.3379 70.4194 85.9017 70.4194C86.4185 70.4194 87.0669 70.3724 87.6307 70.3724C88.0442 70.3724 88.2979 70.4851 88.2979 70.9926C88.2979 71.3497 87.7811 71.5752 87.7811 72.1296C87.7811 72.4773 87.9784 73.0505 88.5704 74.5258C89.106 75.8319 89.4725 76.7716 89.6041 76.7716C89.8014 76.7716 90.2055 75.5406 90.6753 74.0747C91.0418 73.0129 91.0982 72.637 91.0982 72.4021C91.0982 71.594 90.3746 71.406 90.3746 70.908C90.3746 70.5697 90.6095 70.3724 90.9196 70.3724C91.3331 70.3724 91.9533 70.4194 92.3291 70.4194C92.7614 70.4194 93.1561 70.3724 93.4568 70.3724C93.889 70.3724 94.0018 70.5979 94.0018 70.861C94.0018 71.5376 93.3816 71.3966 92.799 72.9377ZM99.2155 73.6049C99.2155 70.1657 101.255 66.8486 105.361 66.8486C106.808 66.8486 107.485 67.2996 108.077 67.2996C108.5 67.2996 108.772 67.1023 109.148 67.1023C109.872 67.1023 109.89 67.8258 110.116 68.9441C110.36 70.2126 110.492 70.5227 110.492 70.7858C110.492 71.1899 110.257 71.3778 109.984 71.3778C109.486 71.3778 109.233 70.8046 108.819 70.2126C107.955 69.0005 106.818 68.3051 105.69 68.3051C103.613 68.3051 102.542 70.2502 102.542 72.4867C102.542 75.3809 104.111 77.7207 106.667 77.7207C108.434 77.7207 109.449 76.5931 109.937 75.6722C110.106 75.3997 110.247 75.1742 110.445 75.1742C110.717 75.1742 110.821 75.55 110.821 75.8601C110.821 76.4709 110.633 77.1663 110.238 77.8053C109.43 79.1114 107.757 80.2672 105.38 80.2672C101.414 80.2672 99.2155 77.1287 99.2155 73.6049ZM116.194 71.6879C115.377 71.6879 114.634 72.3927 114.634 74.2627C114.634 75.1366 114.775 76.2548 115.17 77.1099C115.593 77.9932 116.26 78.4161 116.927 78.4161C117.792 78.4161 118.6 77.7865 118.6 76.1326C118.6 75.1742 118.346 73.9902 117.961 73.1538C117.482 72.1766 116.833 71.6879 116.194 71.6879ZM111.731 75.2587C111.731 72.2799 113.713 70.222 116.448 70.222C119.051 70.222 121.381 72.092 121.381 75.4279C121.381 78.5758 119.201 80.1357 116.561 80.1357C113.619 80.1357 111.731 78.0872 111.731 75.2587ZM131.522 71.7255C131.748 71.7255 132.8 70.222 134.632 70.222C136.653 70.222 137.536 71.5376 137.536 73.7928C137.536 75.3433 137.301 76.969 137.301 77.6267C137.301 78.0496 137.442 78.4818 137.733 78.7168C138.062 78.9893 138.354 79.0457 138.354 79.4497C138.354 79.7786 138.119 79.9947 137.574 79.9947C137.094 79.9947 136.643 79.9478 136.155 79.9478C135.525 79.9478 135.328 79.9947 134.736 79.9947C134.341 79.9947 134.2 79.7598 134.2 79.4779C134.2 79.1114 134.341 78.7638 134.416 78.557C134.595 78.0214 134.792 76.2924 134.792 74.6198C134.792 72.9001 134.219 72.1108 133.251 72.1108C132.622 72.1108 131.682 72.7028 131.682 73.9902C131.682 75.5406 131.616 76.969 131.616 77.6267C131.616 78.0496 131.682 78.4725 131.954 78.7168C132.264 78.9893 132.518 79.0457 132.518 79.4497C132.518 79.7786 132.293 79.9947 131.748 79.9947C131.259 79.9947 130.921 79.9478 130.441 79.9478C129.812 79.9478 129.615 79.9947 129.023 79.9947C128.628 79.9947 128.487 79.7598 128.487 79.4779C128.487 79.1114 128.628 78.7638 128.703 78.557C128.882 78.0214 129.041 76.2924 129.041 74.6198C129.041 72.9001 128.487 72.1108 127.519 72.1108C126.843 72.1108 125.931 72.8531 125.931 73.868V77.3636C125.931 78.106 126.006 78.3879 126.269 78.6792C126.523 78.9611 126.824 79.0269 126.824 79.4497C126.824 79.7692 126.645 79.9947 126.11 79.9947C125.593 79.9947 125.132 79.9478 124.653 79.9478C124.052 79.9478 123.497 79.9947 122.839 79.9947C122.398 79.9947 122.247 79.7598 122.247 79.4779C122.247 79.0738 122.586 78.8671 122.755 78.6886C123.197 78.1999 123.262 77.7113 123.262 77.2321V73.1726C123.262 72.6276 122.952 72.4115 122.689 72.2893C122.52 72.1954 122.304 72.0732 122.304 71.7819C122.304 71.3027 122.905 71.2181 123.629 70.908C124.55 70.4851 124.766 70.2784 125.085 70.2784C125.433 70.2784 125.64 70.4288 125.752 70.908C125.837 71.2745 125.884 71.6598 126.025 71.6598C126.232 71.6598 127.284 70.222 128.9 70.222C129.859 70.222 130.601 70.5791 131.099 71.2745C131.315 71.547 131.4 71.7255 131.522 71.7255ZM144.442 72.0826C143.53 72.0826 142.637 73.0411 142.637 75.146C142.637 77.9838 143.427 78.5382 144.338 78.5382C145.287 78.5382 146.227 77.6361 146.227 75.2869C146.227 72.9847 145.447 72.0826 144.442 72.0826ZM149.149 74.8829C149.149 78.0872 147.223 80.1357 144.808 80.1357C143.502 80.1357 143.051 79.4967 142.854 79.4967C142.731 79.4967 142.684 79.6283 142.684 80.0135V81.1975C142.684 81.9963 143.051 82.2124 143.417 82.4849C143.727 82.701 144.122 82.842 144.122 83.2648C144.122 83.5937 143.944 83.8098 143.399 83.8098C142.919 83.8098 141.961 83.7629 141.435 83.7629C140.796 83.7629 140.204 83.8098 139.527 83.8098C139.067 83.8098 138.916 83.5749 138.916 83.3024C138.916 82.889 139.264 82.6822 139.442 82.5037C139.903 82.0151 139.969 81.5358 139.969 81.0472V73.1726C139.969 72.6182 139.621 72.4021 139.339 72.2799C139.142 72.1578 138.973 72.0356 138.973 71.7819C138.973 71.3027 139.555 71.2181 140.279 70.908C141.2 70.4851 141.453 70.2784 141.792 70.2784C142.139 70.2784 142.337 70.4288 142.468 70.908C142.543 71.2745 142.6 71.6598 142.75 71.6598C142.966 71.6598 143.737 70.222 145.588 70.222C147.881 70.222 149.149 72.1672 149.149 74.8829ZM155.785 76.3488C155.785 75.738 155.719 75.597 155.615 75.597C155.07 75.597 154.582 75.6722 154.14 75.8319C153.341 76.1138 152.89 76.6871 152.89 77.3166C152.89 77.9462 153.341 78.3691 154.027 78.3691C155.127 78.3691 155.785 77.5046 155.785 76.3488ZM152.815 74.8453C153.99 74.4694 155.277 74.3942 155.54 74.1969C155.653 74.1123 155.766 73.915 155.766 73.2948C155.766 72.2612 155.315 71.4624 154.328 71.4624C153.501 71.4624 153.06 72.1202 152.815 73.0317C152.674 73.5391 152.458 73.9056 151.838 73.9056C151.199 73.9056 150.579 73.4545 150.579 72.5431C150.579 71.4154 151.941 70.2126 154.347 70.2126C156.687 70.2126 158.519 71.3591 158.519 73.9714C158.519 75.1742 158.416 76.3394 158.416 77.2978C158.416 77.6643 158.538 78.0778 158.961 78.0778C159.158 78.0778 159.252 78.012 159.393 78.012C159.496 78.012 159.581 78.153 159.581 78.3691C159.581 79.3558 158.707 80.1075 157.626 80.1075C156.743 80.1075 156.217 79.788 155.916 79.1772C155.879 79.0926 155.822 79.0081 155.747 79.0081C155.672 79.0081 155.597 79.1114 155.521 79.1866C154.929 79.741 153.943 80.1733 152.947 80.1733C151.359 80.1733 150.128 79.3558 150.128 77.8147C150.128 76.33 151.171 75.3997 152.815 74.8453ZM170.246 73.7928C170.246 75.3433 169.983 76.969 169.983 77.6267C169.983 78.0496 170.133 78.4725 170.443 78.7168C170.791 78.9799 171.082 79.0457 171.082 79.4497C171.082 79.7786 170.857 79.9947 170.302 79.9947C169.804 79.9947 169.372 79.9478 168.836 79.9478C168.207 79.9478 167.943 79.9947 167.351 79.9947C166.947 79.9947 166.797 79.7598 166.797 79.4779C166.797 79.1114 166.966 78.7638 167.032 78.557C167.22 78.0214 167.427 76.2924 167.427 74.6198C167.427 72.9001 166.835 72.1108 165.773 72.1108C164.983 72.1108 164.016 72.8531 164.016 73.868V77.3636C164.016 78.106 164.1 78.3879 164.382 78.6792C164.655 78.9611 164.974 79.0269 164.974 79.4497C164.974 79.7692 164.796 79.9947 164.241 79.9947C163.706 79.9947 163.198 79.9478 162.7 79.9478C162.08 79.9478 161.544 79.9947 160.868 79.9947C160.407 79.9947 160.257 79.7598 160.257 79.4779C160.257 79.0738 160.605 78.8671 160.783 78.6886C161.244 78.1999 161.3 77.7113 161.3 77.2321V73.1726C161.3 72.6276 160.962 72.4021 160.68 72.2799C160.482 72.1578 160.313 72.0356 160.313 71.7819C160.313 71.3027 160.896 71.2181 161.61 70.908C162.54 70.4851 162.794 70.2784 163.123 70.2784C163.471 70.2784 163.668 70.4288 163.799 70.908C163.875 71.2745 163.931 71.6598 164.091 71.6598C164.298 71.6598 165.425 70.222 167.201 70.222C169.268 70.222 170.246 71.5376 170.246 73.7928ZM180.252 72.9377C179.707 74.3285 178.974 76.3864 178.391 77.7395C176.907 81.2539 175.854 84.0354 173.646 84.0354C172.622 84.0354 171.832 83.3588 171.832 82.3345C171.832 81.4325 172.434 80.7465 173.138 80.7465C173.486 80.7465 173.702 80.9344 173.871 81.1505C174.116 81.4794 174.294 81.8177 174.623 81.8177C174.971 81.8177 175.563 81.066 175.563 80.5304C175.563 79.8914 174.163 76.875 173.646 75.6252C173.232 74.6479 172.265 72.2893 171.729 71.8007C171.456 71.5282 171.212 71.3027 171.212 70.9268C171.212 70.5979 171.419 70.3724 171.832 70.3724C172.377 70.3724 172.791 70.4194 173.355 70.4194C173.871 70.4194 174.52 70.3724 175.084 70.3724C175.497 70.3724 175.751 70.4851 175.751 70.9926C175.751 71.3497 175.234 71.5752 175.234 72.1296C175.234 72.4773 175.431 73.0505 176.023 74.5258C176.559 75.8319 176.925 76.7716 177.057 76.7716C177.254 76.7716 177.658 75.5406 178.128 74.0747C178.495 73.0129 178.551 72.637 178.551 72.4021C178.551 71.594 177.827 71.406 177.827 70.908C177.827 70.5697 178.062 70.3724 178.372 70.3724C178.786 70.3724 179.406 70.4194 179.782 70.4194C180.214 70.4194 180.609 70.3724 180.91 70.3724C181.342 70.3724 181.455 70.5979 181.455 70.861C181.455 71.5376 180.834 71.3966 180.252 72.9377Z" fill="black"/>
<path d="M112.202 100.133H109.622V103.769H108.241V93.5782H112.202C113.198 93.5782 113.992 93.8789 114.584 94.4803C115.185 95.0723 115.486 95.8617 115.486 96.8483C115.486 97.8068 115.185 98.5962 114.584 99.2163C113.982 99.8271 113.188 100.133 112.202 100.133ZM111.962 94.8186H109.622V98.8922H111.906C112.582 98.8922 113.104 98.7089 113.47 98.3424C113.846 97.976 114.034 97.4732 114.034 96.8342C114.034 96.1953 113.851 95.7019 113.484 95.3542C113.118 94.9972 112.61 94.8186 111.962 94.8186ZM119.482 103.938C118.467 103.938 117.64 103.605 117.001 102.937C116.372 102.27 116.057 101.401 116.057 100.33C116.057 99.2492 116.367 98.3706 116.987 97.6941C117.617 97.0175 118.43 96.6792 119.426 96.6792C120.403 96.6792 121.188 96.9893 121.78 97.6095C122.372 98.2297 122.668 99.0519 122.668 100.076V100.569L117.34 100.584C117.387 101.307 117.593 101.866 117.96 102.261C118.336 102.646 118.853 102.839 119.51 102.839C120.563 102.839 121.207 102.435 121.441 101.627H122.682C122.513 102.369 122.151 102.942 121.597 103.346C121.042 103.741 120.337 103.938 119.482 103.938ZM119.426 97.7927C118.853 97.7927 118.388 97.9572 118.03 98.2861C117.673 98.6149 117.453 99.0848 117.368 99.6956H121.343C121.343 99.1224 121.169 98.6619 120.821 98.3142C120.474 97.9666 120.008 97.7927 119.426 97.7927ZM128.094 96.8202V98.0323H127.502C126.873 98.0323 126.375 98.2156 126.008 98.5821C125.651 98.9485 125.473 99.4607 125.473 100.118V103.769H124.148V96.8906H125.388L125.473 97.9337C125.614 97.5672 125.853 97.2759 126.191 97.0598C126.53 96.8436 126.929 96.7356 127.39 96.7356C127.596 96.7356 127.831 96.7638 128.094 96.8202ZM130.69 103.769H129.365V93.395H130.69V100.118L133.749 96.8765H135.412L132.776 99.6251L135.398 103.769H133.876L131.86 100.584L130.69 101.81V103.769ZM135.972 101.768H137.241C137.241 102.115 137.363 102.392 137.607 102.599C137.861 102.797 138.209 102.895 138.65 102.895C139.111 102.895 139.468 102.806 139.722 102.627C139.985 102.449 140.116 102.2 140.116 101.88C140.116 101.636 140.046 101.443 139.905 101.302C139.764 101.152 139.52 101.035 139.172 100.95L137.96 100.668C136.757 100.377 136.155 99.7379 136.155 98.7512C136.155 98.1216 136.395 97.6189 136.874 97.243C137.354 96.8671 137.978 96.6792 138.749 96.6792C139.501 96.6792 140.102 96.8765 140.553 97.2712C141.014 97.6565 141.253 98.178 141.272 98.8358H140.003C139.985 98.4881 139.863 98.2156 139.637 98.0182C139.411 97.8115 139.101 97.7082 138.707 97.7082C138.293 97.7082 137.974 97.7974 137.748 97.976C137.523 98.1451 137.41 98.3894 137.41 98.7089C137.41 99.1694 137.748 99.4842 138.425 99.6533L139.637 99.9493C140.238 100.09 140.68 100.306 140.962 100.598C141.244 100.889 141.385 101.288 141.385 101.796C141.385 102.444 141.131 102.966 140.624 103.36C140.116 103.746 139.449 103.938 138.622 103.938C137.814 103.938 137.17 103.741 136.691 103.346C136.212 102.952 135.972 102.425 135.972 101.768Z" fill="#757575"/>
<rect x="40.5015" y="131.272" width="167.956" height="49.2961" rx="10.8909" fill="#F0F0F0" stroke="#D5D5D5" stroke-width="1.14641" stroke-dasharray="5.73 5.73"/>
<rect x="40.406" y="192.128" width="168.147" height="49.4872" rx="10.9864" fill="#F7F3CE" stroke="#EDB408" stroke-width="0.955344"/>
<g clip-path="url(#clip1_2154_11278)">
<path d="M84.5412 213.458C84.3436 212.864 83.8012 212.442 83.1596 212.386L74.444 211.617L70.9977 203.783C70.7435 203.209 70.1648 202.837 69.5218 202.837C68.8788 202.837 68.3001 203.209 68.0459 203.785L64.5996 211.617L55.8826 212.386C55.2421 212.443 54.7012 212.864 54.5024 213.458C54.3035 214.052 54.4872 214.703 54.9717 215.113L61.5596 220.725L59.617 229.035C59.4748 229.647 59.719 230.278 60.2411 230.645C60.5217 230.842 60.85 230.942 61.1811 230.942C61.4665 230.942 61.7497 230.867 62.0038 230.719L69.5218 226.356L77.037 230.719C77.587 231.041 78.2802 231.011 78.8011 230.645C79.3234 230.277 79.5674 229.645 79.4252 229.035L77.4826 220.725L84.0706 215.115C84.5551 214.703 84.7401 214.053 84.5412 213.458Z" fill="#FFC107"/>
</g>
<rect x="97.9069" y="208.073" width="62.8089" height="7.03842" rx="3.51921" fill="#FFC107"/>
<rect x="97.9069" y="219.804" width="76.0955" height="7.03842" rx="3.51921" fill="#FFC107"/>
<path d="M268.08 68.5118C266.915 68.5118 265.712 69.6582 265.712 72.4679C265.712 73.7458 265.928 75.2305 266.492 76.4803C267.14 77.8241 268.174 78.4161 269.104 78.4161C270.448 78.4161 271.632 77.42 271.632 74.958C271.632 73.5673 271.284 71.8947 270.711 70.7013C270.091 69.3387 269.085 68.5118 268.08 68.5118ZM262.197 73.6613C262.197 69.6394 264.753 66.858 268.493 66.858C271.951 66.858 274.911 69.3669 274.911 73.868C274.911 78.1248 272.121 80.2672 268.625 80.2672C264.603 80.2672 262.197 77.5046 262.197 73.6613ZM279.6 72.4397C279.562 72.825 279.515 74.9205 279.515 75.8977C279.515 76.969 279.797 77.9462 280.831 77.9462C281.348 77.9462 281.705 77.6455 281.94 77.4482C282.052 77.3354 282.128 77.2791 282.231 77.2791C282.372 77.2791 282.513 77.3824 282.513 77.7301C282.513 77.9274 282.447 78.1812 282.316 78.4349C281.958 79.1678 281.028 80.1357 279.402 80.1357C277.551 80.1357 276.743 78.8859 276.743 76.734C276.743 75.8789 276.865 73.8774 276.865 72.7968C276.865 72.4115 276.762 72.2142 276.452 72.1578C275.869 72.092 275.512 71.998 275.512 71.6316C275.512 71.3027 275.597 70.9832 275.954 70.8046C276.574 70.4945 277.194 70.0905 277.645 69.6394C278.397 68.8595 278.5 67.9574 279.083 67.9574C279.421 67.9574 279.684 68.2205 279.684 68.7937C279.684 69.1884 279.59 70.4758 279.59 70.5603C279.59 70.6073 279.6 70.6355 279.675 70.6355C279.863 70.6355 281.301 70.5509 281.545 70.5509C281.968 70.5509 282.222 70.6731 282.222 71.1899C282.222 71.5282 282.034 71.998 281.836 72.2142C281.78 72.2705 281.648 72.3363 281.47 72.3363C281.263 72.3363 280.041 72.2612 279.76 72.2612C279.703 72.2612 279.609 72.2799 279.6 72.4397ZM284.125 77.2321V69.038C284.125 68.5682 283.796 68.3239 283.514 68.1923C283.317 68.0796 283.129 67.9574 283.129 67.7037C283.129 67.2526 283.712 67.1681 284.435 66.8674C285.356 66.5009 285.911 66.1344 286.324 66.1344C286.69 66.1344 286.925 66.3224 286.925 66.7546C286.925 67.2714 286.728 68.7655 286.728 71.3403C286.728 71.6504 286.803 71.7161 286.878 71.7161C287.085 71.7161 288.166 70.222 290.026 70.222C292.094 70.222 293.062 71.5376 293.062 73.7928C293.062 75.3433 292.808 76.969 292.808 77.6267C292.808 78.0496 292.958 78.4725 293.259 78.7168C293.616 78.9799 293.907 79.0457 293.907 79.4497C293.907 79.7786 293.672 79.9947 293.118 79.9947C292.629 79.9947 292.197 79.9478 291.661 79.9478C291.032 79.9478 290.769 79.9947 290.177 79.9947C289.773 79.9947 289.622 79.7598 289.622 79.4779C289.622 79.1114 289.782 78.7638 289.857 78.557C290.036 78.0214 290.252 76.2924 290.252 74.6198C290.252 72.9001 289.66 72.1108 288.589 72.1108C287.809 72.1108 286.841 72.8531 286.841 73.868V77.3636C286.841 78.106 286.925 78.3879 287.207 78.6792C287.48 78.9611 287.799 79.0269 287.799 79.4497C287.799 79.7692 287.621 79.9947 287.066 79.9947C286.531 79.9947 286.051 79.9478 285.516 79.9478C284.877 79.9478 284.482 79.9947 283.683 79.9947C283.223 79.9947 283.073 79.7598 283.073 79.4779C283.073 79.0738 283.43 78.8671 283.599 78.6886C284.069 78.1999 284.125 77.7113 284.125 77.2321ZM300.806 73.1914C300.806 72.3175 300.205 71.6598 299.387 71.6598C298.269 71.6598 297.499 72.7968 297.499 73.962C297.499 74.3097 297.611 74.5164 297.865 74.5164C298.457 74.5164 299.979 74.2627 300.562 73.7458C300.722 73.5955 300.806 73.4264 300.806 73.1914ZM302.563 74.8829C301.483 75.4937 299.246 75.7286 298.091 75.7944C297.912 75.8038 297.846 75.8413 297.846 75.9729C297.846 76.6683 298.523 77.9556 300.252 77.9556C301.586 77.9556 302.385 77.3072 302.864 76.6871C302.986 76.5649 303.127 76.4803 303.24 76.4803C303.409 76.4803 303.522 76.6495 303.522 77.0159C303.522 78.2469 302.075 80.1545 299.406 80.1545C296.512 80.1545 294.736 78.1905 294.736 75.4091C294.736 72.6182 296.7 70.222 299.66 70.222C302.235 70.222 303.362 72.1202 303.362 73.6237C303.362 74.2627 303.043 74.6292 302.563 74.8829ZM309.446 72.3927C308.694 72.3927 308.121 73.3794 308.121 74.2909V77.2415C308.121 77.9838 308.271 78.2939 308.798 78.6886C309.108 78.9235 309.643 79.0175 309.643 79.4497C309.643 79.7692 309.474 79.9947 308.92 79.9947C308.375 79.9947 307.736 79.9478 306.806 79.9478C306.167 79.9478 305.772 79.9947 304.973 79.9947C304.513 79.9947 304.362 79.7598 304.362 79.4779C304.362 79.0738 304.71 78.8671 304.889 78.6886C305.349 78.1999 305.405 77.7113 305.405 77.2321V73.1726C305.405 72.6276 305.067 72.4021 304.785 72.2799C304.588 72.1578 304.419 72.0356 304.419 71.7819C304.419 71.3027 305.001 71.2181 305.716 70.908C306.646 70.4851 306.9 70.2784 307.228 70.2784C307.576 70.2784 307.773 70.4288 307.905 70.908C307.98 71.2745 308.037 71.6598 308.196 71.6598C308.403 71.6598 309.305 70.222 310.818 70.222C311.739 70.222 312.613 70.7671 312.613 72.2612C312.613 73.2948 311.861 74.3472 310.931 74.3472C310.311 74.3472 310.282 73.962 310.141 73.3136C310.019 72.7216 309.775 72.3927 309.446 72.3927ZM317.927 73.6049C317.927 70.1657 319.966 66.8486 324.072 66.8486C325.519 66.8486 326.196 67.2996 326.788 67.2996C327.211 67.2996 327.483 67.1023 327.859 67.1023C328.583 67.1023 328.601 67.8258 328.827 68.9441C329.071 70.2126 329.203 70.5227 329.203 70.7858C329.203 71.1899 328.968 71.3778 328.695 71.3778C328.197 71.3778 327.944 70.8046 327.53 70.2126C326.666 69.0005 325.529 68.3051 324.401 68.3051C322.324 68.3051 321.253 70.2502 321.253 72.4867C321.253 75.3809 322.822 77.7207 325.378 77.7207C327.145 77.7207 328.16 76.5931 328.648 75.6722C328.818 75.3997 328.959 75.1742 329.156 75.1742C329.428 75.1742 329.532 75.55 329.532 75.8601C329.532 76.4709 329.344 77.1663 328.949 77.8053C328.141 79.1114 326.468 80.2672 324.091 80.2672C320.126 80.2672 317.927 77.1287 317.927 73.6049ZM334.905 71.6879C334.088 71.6879 333.345 72.3927 333.345 74.2627C333.345 75.1366 333.486 76.2548 333.881 77.1099C334.304 77.9932 334.971 78.4161 335.638 78.4161C336.503 78.4161 337.311 77.7865 337.311 76.1326C337.311 75.1742 337.057 73.9902 336.672 73.1538C336.193 72.1766 335.544 71.6879 334.905 71.6879ZM330.442 75.2587C330.442 72.2799 332.425 70.222 335.159 70.222C337.762 70.222 340.092 72.092 340.092 75.4279C340.092 78.5758 337.912 80.1357 335.272 80.1357C332.331 80.1357 330.442 78.0872 330.442 75.2587ZM350.233 71.7255C350.459 71.7255 351.511 70.222 353.344 70.222C355.364 70.222 356.247 71.5376 356.247 73.7928C356.247 75.3433 356.012 76.969 356.012 77.6267C356.012 78.0496 356.153 78.4818 356.445 78.7168C356.773 78.9893 357.065 79.0457 357.065 79.4497C357.065 79.7786 356.83 79.9947 356.285 79.9947C355.806 79.9947 355.355 79.9478 354.866 79.9478C354.236 79.9478 354.039 79.9947 353.447 79.9947C353.052 79.9947 352.911 79.7598 352.911 79.4779C352.911 79.1114 353.052 78.7638 353.127 78.557C353.306 78.0214 353.503 76.2924 353.503 74.6198C353.503 72.9001 352.93 72.1108 351.962 72.1108C351.333 72.1108 350.393 72.7028 350.393 73.9902C350.393 75.5406 350.327 76.969 350.327 77.6267C350.327 78.0496 350.393 78.4725 350.666 78.7168C350.976 78.9893 351.229 79.0457 351.229 79.4497C351.229 79.7786 351.004 79.9947 350.459 79.9947C349.97 79.9947 349.632 79.9478 349.153 79.9478C348.523 79.9478 348.326 79.9947 347.734 79.9947C347.339 79.9947 347.198 79.7598 347.198 79.4779C347.198 79.1114 347.339 78.7638 347.414 78.557C347.593 78.0214 347.753 76.2924 347.753 74.6198C347.753 72.9001 347.198 72.1108 346.23 72.1108C345.554 72.1108 344.642 72.8531 344.642 73.868V77.3636C344.642 78.106 344.717 78.3879 344.98 78.6792C345.234 78.9611 345.535 79.0269 345.535 79.4497C345.535 79.7692 345.356 79.9947 344.821 79.9947C344.304 79.9947 343.843 79.9478 343.364 79.9478C342.763 79.9478 342.208 79.9947 341.551 79.9947C341.109 79.9947 340.959 79.7598 340.959 79.4779C340.959 79.0738 341.297 78.8671 341.466 78.6886C341.908 78.1999 341.973 77.7113 341.973 77.2321V73.1726C341.973 72.6276 341.663 72.4115 341.4 72.2893C341.231 72.1954 341.015 72.0732 341.015 71.7819C341.015 71.3027 341.616 71.2181 342.34 70.908C343.261 70.4851 343.477 70.2784 343.796 70.2784C344.144 70.2784 344.351 70.4288 344.464 70.908C344.548 71.2745 344.595 71.6598 344.736 71.6598C344.943 71.6598 345.995 70.222 347.612 70.222C348.57 70.222 349.312 70.5791 349.81 71.2745C350.027 71.547 350.111 71.7255 350.233 71.7255ZM363.153 72.0826C362.241 72.0826 361.349 73.0411 361.349 75.146C361.349 77.9838 362.138 78.5382 363.049 78.5382C363.998 78.5382 364.938 77.6361 364.938 75.2869C364.938 72.9847 364.158 72.0826 363.153 72.0826ZM367.861 74.8829C367.861 78.0872 365.934 80.1357 363.519 80.1357C362.213 80.1357 361.762 79.4967 361.565 79.4967C361.442 79.4967 361.396 79.6283 361.396 80.0135V81.1975C361.396 81.9963 361.762 82.2124 362.128 82.4849C362.439 82.701 362.833 82.842 362.833 83.2648C362.833 83.5937 362.655 83.8098 362.11 83.8098C361.63 83.8098 360.672 83.7629 360.146 83.7629C359.507 83.7629 358.915 83.8098 358.238 83.8098C357.778 83.8098 357.627 83.5749 357.627 83.3024C357.627 82.889 357.975 82.6822 358.154 82.5037C358.614 82.0151 358.68 81.5358 358.68 81.0472V73.1726C358.68 72.6182 358.332 72.4021 358.05 72.2799C357.853 72.1578 357.684 72.0356 357.684 71.7819C357.684 71.3027 358.266 71.2181 358.99 70.908C359.911 70.4851 360.165 70.2784 360.503 70.2784C360.85 70.2784 361.048 70.4288 361.179 70.908C361.255 71.2745 361.311 71.6598 361.461 71.6598C361.677 71.6598 362.448 70.222 364.299 70.222C366.592 70.222 367.861 72.1672 367.861 74.8829ZM374.496 76.3488C374.496 75.738 374.43 75.597 374.327 75.597C373.782 75.597 373.293 75.6722 372.851 75.8319C372.053 76.1138 371.601 76.6871 371.601 77.3166C371.601 77.9462 372.053 78.3691 372.739 78.3691C373.838 78.3691 374.496 77.5046 374.496 76.3488ZM371.526 74.8453C372.701 74.4694 373.988 74.3942 374.251 74.1969C374.364 74.1123 374.477 73.915 374.477 73.2948C374.477 72.2612 374.026 71.4624 373.039 71.4624C372.212 71.4624 371.771 72.1202 371.526 73.0317C371.385 73.5391 371.169 73.9056 370.549 73.9056C369.91 73.9056 369.29 73.4545 369.29 72.5431C369.29 71.4154 370.652 70.2126 373.058 70.2126C375.398 70.2126 377.23 71.3591 377.23 73.9714C377.23 75.1742 377.127 76.3394 377.127 77.2978C377.127 77.6643 377.249 78.0778 377.672 78.0778C377.869 78.0778 377.963 78.012 378.104 78.012C378.207 78.012 378.292 78.153 378.292 78.3691C378.292 79.3558 377.418 80.1075 376.337 80.1075C375.454 80.1075 374.928 79.788 374.627 79.1772C374.59 79.0926 374.533 79.0081 374.458 79.0081C374.383 79.0081 374.308 79.1114 374.233 79.1866C373.641 79.741 372.654 80.1733 371.658 80.1733C370.07 80.1733 368.839 79.3558 368.839 77.8147C368.839 76.33 369.882 75.3997 371.526 74.8453ZM388.957 73.7928C388.957 75.3433 388.694 76.969 388.694 77.6267C388.694 78.0496 388.844 78.4725 389.154 78.7168C389.502 78.9799 389.793 79.0457 389.793 79.4497C389.793 79.7786 389.568 79.9947 389.013 79.9947C388.515 79.9947 388.083 79.9478 387.547 79.9478C386.918 79.9478 386.655 79.9947 386.063 79.9947C385.659 79.9947 385.508 79.7598 385.508 79.4779C385.508 79.1114 385.677 78.7638 385.743 78.557C385.931 78.0214 386.138 76.2924 386.138 74.6198C386.138 72.9001 385.546 72.1108 384.484 72.1108C383.695 72.1108 382.727 72.8531 382.727 73.868V77.3636C382.727 78.106 382.811 78.3879 383.093 78.6792C383.366 78.9611 383.685 79.0269 383.685 79.4497C383.685 79.7692 383.507 79.9947 382.952 79.9947C382.417 79.9947 381.909 79.9478 381.411 79.9478C380.791 79.9478 380.255 79.9947 379.579 79.9947C379.118 79.9947 378.968 79.7598 378.968 79.4779C378.968 79.0738 379.316 78.8671 379.494 78.6886C379.955 78.1999 380.011 77.7113 380.011 77.2321V73.1726C380.011 72.6276 379.673 72.4021 379.391 72.2799C379.194 72.1578 379.024 72.0356 379.024 71.7819C379.024 71.3027 379.607 71.2181 380.321 70.908C381.251 70.4851 381.505 70.2784 381.834 70.2784C382.182 70.2784 382.379 70.4288 382.511 70.908C382.586 71.2745 382.642 71.6598 382.802 71.6598C383.009 71.6598 384.136 70.222 385.912 70.222C387.98 70.222 388.957 71.5376 388.957 73.7928ZM391.272 68.2957C391.272 67.262 392.277 66.2096 393.358 66.2096C394.11 66.2096 394.702 66.6982 394.702 67.4688C394.702 68.5212 393.574 69.3763 392.456 69.3763C391.648 69.3763 391.272 68.9159 391.272 68.2957ZM394.429 70.8422C394.429 71.406 394.335 72.4021 394.335 74.3566V77.3636C394.335 78.106 394.486 78.3879 394.768 78.6792C395.04 78.9611 395.36 79.0269 395.36 79.4497C395.36 79.7692 395.181 79.9947 394.636 79.9947C394.091 79.9947 393.546 79.9478 393.01 79.9478C392.371 79.9478 391.977 79.9947 391.178 79.9947C390.718 79.9947 390.567 79.7598 390.567 79.4779C390.567 79.0738 390.924 78.8671 391.093 78.6886C391.563 78.1999 391.62 77.7113 391.62 77.2321V73.4452C391.62 72.8531 391.338 72.5149 391.028 72.3551C390.83 72.2236 390.605 72.0826 390.605 71.8101C390.605 71.3027 391.206 71.2557 391.93 70.9644C392.851 70.5979 393.499 70.222 393.828 70.222C394.223 70.222 394.429 70.41 394.429 70.8422ZM402.281 73.1914C402.281 72.3175 401.68 71.6598 400.862 71.6598C399.744 71.6598 398.973 72.7968 398.973 73.962C398.973 74.3097 399.086 74.5164 399.34 74.5164C399.932 74.5164 401.454 74.2627 402.037 73.7458C402.196 73.5955 402.281 73.4264 402.281 73.1914ZM404.038 74.8829C402.958 75.4937 400.721 75.7286 399.565 75.7944C399.387 75.8038 399.321 75.8413 399.321 75.9729C399.321 76.6683 399.998 77.9556 401.727 77.9556C403.061 77.9556 403.86 77.3072 404.339 76.6871C404.461 76.5649 404.602 76.4803 404.715 76.4803C404.884 76.4803 404.997 76.6495 404.997 77.0159C404.997 78.2469 403.55 80.1545 400.881 80.1545C397.987 80.1545 396.211 78.1905 396.211 75.4091C396.211 72.6182 398.175 70.222 401.135 70.222C403.709 70.222 404.837 72.1202 404.837 73.6237C404.837 74.2627 404.517 74.6292 404.038 74.8829ZM409.962 70.2032C410.921 70.2032 412.283 70.3912 412.819 70.9456C413.242 71.3778 413.364 71.9229 413.364 72.6652C413.364 73.182 413.11 73.4639 412.791 73.4639C412.471 73.4639 412.236 73.1632 411.954 72.8344C411.494 72.2893 410.855 71.5564 409.774 71.5564C409.013 71.5564 408.619 71.9792 408.619 72.5055C408.619 73.2572 409.37 73.4639 410.77 73.9526C412.283 74.4694 413.796 75.1272 413.796 77.1381C413.796 78.9893 412.161 80.2109 409.812 80.2109C408.759 80.2109 407.162 79.9008 406.476 79.1302C406.185 78.8295 405.978 78.1905 405.978 77.3824C405.978 76.875 406.185 76.5649 406.57 76.5649C406.786 76.5649 406.974 76.7622 407.181 77.0253C407.688 77.6549 408.431 78.6416 409.831 78.6416C410.582 78.6416 410.996 78.2375 410.996 77.6455C410.996 76.7904 409.934 76.5931 408.6 76.0011C407.463 75.4937 406.204 74.9298 406.204 73.1914C406.204 71.3591 407.951 70.2032 409.962 70.2032Z" fill="black"/>
<path d="M325.728 100.133H323.148V103.769H321.767V93.5782H325.728C326.724 93.5782 327.518 93.8789 328.11 94.4803C328.711 95.0723 329.012 95.8617 329.012 96.8483C329.012 97.8068 328.711 98.5962 328.11 99.2163C327.509 99.8271 326.715 100.133 325.728 100.133ZM325.488 94.8186H323.148V98.8922H325.432C326.108 98.8922 326.63 98.7089 326.996 98.3424C327.372 97.976 327.56 97.4732 327.56 96.8342C327.56 96.1953 327.377 95.7019 327.011 95.3542C326.644 94.9972 326.137 94.8186 325.488 94.8186ZM333.009 103.938C331.994 103.938 331.167 103.605 330.528 102.937C329.898 102.27 329.583 101.401 329.583 100.33C329.583 99.2492 329.894 98.3706 330.514 97.6941C331.143 97.0175 331.956 96.6792 332.952 96.6792C333.929 96.6792 334.714 96.9893 335.306 97.6095C335.898 98.2297 336.194 99.0519 336.194 100.076V100.569L330.866 100.584C330.913 101.307 331.12 101.866 331.486 102.261C331.862 102.646 332.379 102.839 333.037 102.839C334.089 102.839 334.733 102.435 334.968 101.627H336.208C336.039 102.369 335.677 102.942 335.123 103.346C334.568 103.741 333.864 103.938 333.009 103.938ZM332.952 97.7927C332.379 97.7927 331.914 97.9572 331.557 98.2861C331.2 98.6149 330.979 99.0848 330.894 99.6956H334.869C334.869 99.1224 334.695 98.6619 334.348 98.3142C334 97.9666 333.535 97.7927 332.952 97.7927ZM341.621 96.8202V98.0323H341.029C340.399 98.0323 339.901 98.2156 339.535 98.5821C339.178 98.9485 338.999 99.4607 338.999 100.118V103.769H337.674V96.8906H338.914L338.999 97.9337C339.14 97.5672 339.38 97.2759 339.718 97.0598C340.056 96.8436 340.455 96.7356 340.916 96.7356C341.123 96.7356 341.358 96.7638 341.621 96.8202ZM344.217 103.769H342.892V93.395H344.217V100.118L347.275 96.8765H348.938L346.303 99.6251L348.924 103.769H347.402L345.386 100.584L344.217 101.81V103.769ZM349.499 101.768H350.767C350.767 102.115 350.889 102.392 351.134 102.599C351.387 102.797 351.735 102.895 352.177 102.895C352.637 102.895 352.994 102.806 353.248 102.627C353.511 102.449 353.643 102.2 353.643 101.88C353.643 101.636 353.572 101.443 353.431 101.302C353.29 101.152 353.046 101.035 352.698 100.95L351.486 100.668C350.283 100.377 349.682 99.7379 349.682 98.7512C349.682 98.1216 349.921 97.6189 350.401 97.243C350.88 96.8671 351.505 96.6792 352.275 96.6792C353.027 96.6792 353.629 96.8765 354.08 97.2712C354.54 97.6565 354.78 98.178 354.798 98.8358H353.53C353.511 98.4881 353.389 98.2156 353.163 98.0182C352.938 97.8115 352.628 97.7082 352.233 97.7082C351.82 97.7082 351.5 97.7974 351.275 97.976C351.049 98.1451 350.936 98.3894 350.936 98.7089C350.936 99.1694 351.275 99.4842 351.951 99.6533L353.163 99.9493C353.765 100.09 354.206 100.306 354.488 100.598C354.77 100.889 354.911 101.288 354.911 101.796C354.911 102.444 354.657 102.966 354.15 103.36C353.643 103.746 352.975 103.938 352.149 103.938C351.34 103.938 350.697 103.741 350.217 103.346C349.738 102.952 349.499 102.425 349.499 101.768Z" fill="#757575"/>
<rect x="254.41" y="131.177" width="168.147" height="49.4872" rx="10.9864" fill="#F7F3CE" stroke="#EDB408" stroke-width="0.955344"/>
<g clip-path="url(#clip2_2154_11278)">
<path d="M298.545 152.506C298.347 151.913 297.805 151.491 297.163 151.435L288.448 150.666L285.001 142.832C284.747 142.258 284.168 141.886 283.525 141.886C282.882 141.886 282.304 142.258 282.049 142.833L278.603 150.666L269.886 151.435C269.246 151.492 268.705 151.913 268.506 152.506C268.307 153.1 268.491 153.752 268.975 154.162L275.563 159.773L273.621 168.084C273.478 168.695 273.723 169.327 274.245 169.693C274.525 169.89 274.854 169.991 275.185 169.991C275.47 169.991 275.753 169.916 276.007 169.768L283.525 165.404L291.041 169.768C291.591 170.089 292.284 170.06 292.805 169.693C293.327 169.326 293.571 168.694 293.429 168.084L291.486 159.773L298.074 154.163C298.559 153.752 298.744 153.101 298.545 152.506Z" fill="#FFC107"/>
</g>
<rect x="311.911" y="147.122" width="62.8089" height="7.03842" rx="3.51921" fill="#FFC107"/>
<rect x="311.911" y="158.853" width="76.0955" height="7.03842" rx="3.51921" fill="#FFC107"/>
<rect x="254.505" y="192.223" width="167.956" height="49.2961" rx="10.8909" fill="#F0F0F0" stroke="#D5D5D5" stroke-width="1.14641" stroke-dasharray="5.73 5.73"/>
<rect x="-7.36127" y="7.02087" width="477.672" height="33.437" fill="#EDB408"/>
<path d="M248.099 218.825C248.099 220.936 249.81 222.647 251.921 222.647C254.031 222.647 255.742 220.936 255.742 218.825C255.742 216.715 254.031 215.004 251.921 215.004C249.81 215.004 248.099 216.715 248.099 218.825ZM208.163 153.05C208.163 155.16 209.874 156.871 211.984 156.871C214.095 156.871 215.806 155.16 215.806 153.05C215.806 150.939 214.095 149.228 211.984 149.228C209.874 149.228 208.163 150.939 208.163 153.05ZM251.962 218.11C247.619 217.857 244.255 216.663 241.612 214.799C238.967 212.933 237.002 210.365 235.507 207.298C232.503 201.132 231.449 193.063 230.561 184.924C229.681 176.856 228.964 168.693 226.552 162.596C225.34 159.529 223.677 156.924 221.3 155.102C218.913 153.272 215.865 152.279 211.974 152.333L211.994 153.766C215.615 153.716 218.335 154.635 220.429 156.24C222.533 157.853 224.066 160.205 225.22 163.123C227.542 168.994 228.245 176.912 229.136 185.079C230.019 193.176 231.087 201.499 234.219 207.926C235.792 211.155 237.899 213.934 240.786 215.97C243.677 218.009 247.308 219.274 251.879 219.541L251.962 218.11Z" fill="url(#paint1_linear_2154_11278)"/>
<path d="M248.193 154.864C248.193 152.754 249.904 151.043 252.015 151.043C254.125 151.043 255.836 152.754 255.836 154.864C255.836 156.975 254.125 158.686 252.015 158.686C249.904 158.686 248.193 156.975 248.193 154.864ZM208.069 220.781C208.069 218.671 209.78 216.96 211.89 216.96C214.001 216.96 215.712 218.671 215.712 220.781C215.712 222.892 214.001 224.602 211.89 224.602C209.78 224.602 208.069 222.892 208.069 220.781ZM252.056 155.58C247.692 155.834 244.311 157.03 241.655 158.898C238.997 160.769 237.022 163.342 235.52 166.416C232.502 172.595 231.443 180.681 230.551 188.839C229.667 196.924 228.946 205.104 226.524 211.215C225.305 214.288 223.635 216.898 221.247 218.723C218.849 220.556 215.788 221.551 211.88 221.498L211.9 220.065C215.539 220.115 218.273 219.193 220.377 217.585C222.492 215.968 224.032 213.61 225.192 210.686C227.525 204.802 228.231 196.868 229.126 188.683C230.014 180.569 231.086 172.228 234.233 165.787C235.814 162.551 237.93 159.767 240.831 157.726C243.734 155.683 247.381 154.416 251.973 154.149L252.056 155.58Z" fill="url(#paint2_linear_2154_11278)"/>
</g>
</g>
<defs>
<filter id="filter0_d_2154_11278" x="0.555555" y="0.349177" width="462.794" height="292.476" filterUnits="userSpaceOnUse" color-interpolation-filters="sRGB">
<feFlood flood-opacity="0" result="BackgroundImageFix"/>
<feColorMatrix in="SourceAlpha" type="matrix" values="0 0 0 0 0 0 0 0 0 0 0 0 0 0 0 0 0 0 127 0" result="hardAlpha"/>
<feOffset dy="1.1746"/>
<feGaussianBlur stdDeviation="8.22222"/>
<feComposite in2="hardAlpha" operator="out"/>
<feColorMatrix type="matrix" values="0 0 0 0 0 0 0 0 0 0 0 0 0 0 0 0 0 0 0.1 0"/>
<feBlend mode="normal" in2="BackgroundImageFix" result="effect1_dropShadow_2154_11278"/>
<feBlend mode="normal" in="SourceGraphic" in2="effect1_dropShadow_2154_11278" result="shape"/>
</filter>
<linearGradient id="paint0_linear_2154_11278" x1="231.952" y1="15.619" x2="231.952" y2="275.206" gradientUnits="userSpaceOnUse">
<stop stop-color="white"/>
<stop offset="1" stop-color="white"/>
</linearGradient>
<linearGradient id="paint1_linear_2154_11278" x1="231.952" y1="153.048" x2="231.952" y2="218.825" gradientUnits="userSpaceOnUse">
<stop stop-color="#FFC107"/>
<stop offset="1" stop-color="#F79400"/>
</linearGradient>
<linearGradient id="paint2_linear_2154_11278" x1="231.952" y1="220.783" x2="231.952" y2="154.864" gradientUnits="userSpaceOnUse">
<stop stop-color="#FFC107"/>
<stop offset="1" stop-color="#F79400"/>
</linearGradient>
<clipPath id="clip0_2154_11278">
<rect x="17" y="15.619" width="429.905" height="259.587" rx="28.6603" fill="white"/>
</clipPath>
<clipPath id="clip1_2154_11278">
<rect width="30.1966" height="29.3267" fill="white" transform="translate(54.4231 202.208)"/>
</clipPath>
<clipPath id="clip2_2154_11278">
<rect width="30.1966" height="29.3267" fill="white" transform="translate(268.427 141.257)"/>
</clipPath>
</defs>
</svg>
