<svg width="464" height="293" viewBox="0 0 464 293" fill="none" xmlns="http://www.w3.org/2000/svg">
<g filter="url(#filter0_d_2154_11278)">
<g clip-path="url(#clip0_2154_11278)">
<rect x="16.8254" y="15.619" width="429.905" height="259.587" rx="28.6603" fill="url(#paint0_linear_2154_11278)"/>
<path d="M79.0238 72.1296C78.8547 72.1296 78.4224 73.1445 77.4545 75.7286C76.8625 77.2978 76.3363 78.745 76.0638 79.3088C75.8383 79.7222 75.4812 80.0417 74.9926 80.0417C74.7483 80.0417 74.5321 79.8162 74.41 79.5531C74.1563 79.0081 72.2487 74.2251 71.497 72.4585C71.3748 72.1766 71.2996 72.0356 71.2244 72.0356C71.1493 72.0356 71.1117 72.1578 71.0929 72.3551C71.0553 72.6934 70.9707 75.4937 70.9707 76.0387C70.9707 77.0159 71.0741 77.8711 71.2244 78.1999C71.5721 78.8765 72.089 78.8859 72.089 79.4403C72.089 79.7692 71.9104 79.9947 71.4124 79.9947C70.8016 79.9947 70.4351 79.9478 70.0968 79.9478C69.674 79.9478 69.1759 79.9947 68.5558 79.9947C68.1141 79.9947 67.9074 79.7786 67.9074 79.4497C67.9074 78.745 68.8283 78.9047 69.0162 77.4764C69.2135 75.8977 69.3733 72.6464 69.3733 71.1899C69.3733 70.6167 69.3545 70.1469 69.3263 69.7992C69.1947 68.3145 68.2832 68.3991 68.2832 67.6755C68.2832 67.356 68.443 67.1211 68.941 67.1211C69.2793 67.1211 70.0498 67.1681 70.5103 67.1681C71.6003 67.1681 71.9104 67.2245 72.2393 67.4312C72.587 67.6473 72.9065 68.1547 73.085 68.4836C73.3763 69.0192 75.1993 73.37 75.7537 74.6667C75.7913 74.7701 75.8383 74.8359 75.9135 74.8359C75.9605 74.8359 76.0168 74.8077 76.0826 74.6761C76.2424 74.2627 77.8868 70.0435 78.6104 68.446C78.8547 67.9292 79.099 67.6097 79.3809 67.4218C79.691 67.2338 80.189 67.1681 81.1569 67.1681C81.4482 67.1681 82.0872 67.1211 82.4255 67.1211C82.8859 67.1211 83.0551 67.3654 83.0551 67.6849C83.0551 68.3803 82.1999 68.3427 82.0214 69.771C81.9744 70.1563 81.965 70.7389 81.965 71.1053C81.965 73.0975 82.1811 76.2642 82.3503 77.4388C82.5476 78.9235 83.4685 78.745 83.4685 79.4497C83.4685 79.7786 83.2618 79.9947 82.7919 79.9947C82.1905 79.9947 81.2885 79.9478 80.875 79.9478C80.236 79.9478 79.6064 79.9947 78.9956 79.9947C78.5164 79.9947 78.2533 79.7974 78.2533 79.4779C78.2533 78.8483 79.1178 78.8765 79.3151 77.7771C79.3433 77.6173 79.3527 77.3542 79.3527 77.0253C79.3527 76.1796 79.2775 74.1123 79.146 72.4491C79.1178 72.2142 79.052 72.1296 79.0238 72.1296ZM92.6245 72.9377C92.0795 74.3285 91.3466 76.3864 90.764 77.7395C89.2793 81.2539 88.2268 84.0354 86.0186 84.0354C84.9943 84.0354 84.205 83.3588 84.205 82.3345C84.205 81.4325 84.8064 80.7465 85.5111 80.7465C85.8588 80.7465 86.075 80.9344 86.2441 81.1505C86.4884 81.4794 86.667 81.8177 86.9958 81.8177C87.3435 81.8177 87.9355 81.066 87.9355 80.5304C87.9355 79.8914 86.5354 76.875 86.0186 75.6252C85.6051 74.6479 84.6372 72.2893 84.1016 71.8007C83.8291 71.5282 83.5848 71.3027 83.5848 70.9268C83.5848 70.5979 83.7915 70.3724 84.205 70.3724C84.75 70.3724 85.1635 70.4194 85.7273 70.4194C86.2441 70.4194 86.8925 70.3724 87.4563 70.3724C87.8698 70.3724 88.1235 70.4851 88.1235 70.9926C88.1235 71.3497 87.6066 71.5752 87.6066 72.1296C87.6066 72.4773 87.804 73.0505 88.396 74.5258C88.9316 75.8319 89.2981 76.7716 89.4296 76.7716C89.627 76.7716 90.031 75.5406 90.5009 74.0747C90.8673 73.0129 90.9237 72.637 90.9237 72.4021C90.9237 71.594 90.2002 71.406 90.2002 70.908C90.2002 70.5697 90.4351 70.3724 90.7452 70.3724C91.1586 70.3724 91.7788 70.4194 92.1547 70.4194C92.587 70.4194 92.9816 70.3724 93.2823 70.3724C93.7146 70.3724 93.8273 70.5979 93.8273 70.861C93.8273 71.5376 93.2071 71.3966 92.6245 72.9377ZM99.0411 73.6049C99.0411 70.1657 101.08 66.8486 105.187 66.8486C106.634 66.8486 107.31 67.2996 107.902 67.2996C108.325 67.2996 108.598 67.1023 108.974 67.1023C109.697 67.1023 109.716 67.8258 109.941 68.9441C110.186 70.2126 110.317 70.5227 110.317 70.7858C110.317 71.1899 110.082 71.3778 109.81 71.3778C109.312 71.3778 109.058 70.8046 108.645 70.2126C107.78 69.0005 106.643 68.3051 105.516 68.3051C103.439 68.3051 102.368 70.2502 102.368 72.4867C102.368 75.3809 103.937 77.7207 106.493 77.7207C108.259 77.7207 109.274 76.5931 109.763 75.6722C109.932 75.3997 110.073 75.1742 110.27 75.1742C110.543 75.1742 110.646 75.55 110.646 75.8601C110.646 76.4709 110.458 77.1663 110.064 77.8053C109.255 79.1114 107.583 80.2672 105.205 80.2672C101.24 80.2672 99.0411 77.1287 99.0411 73.6049ZM116.02 71.6879C115.202 71.6879 114.46 72.3927 114.46 74.2627C114.46 75.1366 114.601 76.2548 114.995 77.1099C115.418 77.9932 116.085 78.4161 116.753 78.4161C117.617 78.4161 118.425 77.7865 118.425 76.1326C118.425 75.1742 118.172 73.9902 117.786 73.1538C117.307 72.1766 116.659 71.6879 116.02 71.6879ZM111.556 75.2587C111.556 72.2799 113.539 70.222 116.273 70.222C118.876 70.222 121.207 72.092 121.207 75.4279C121.207 78.5758 119.027 80.1357 116.386 80.1357C113.445 80.1357 111.556 78.0872 111.556 75.2587ZM131.348 71.7255C131.573 71.7255 132.626 70.222 134.458 70.222C136.478 70.222 137.362 71.5376 137.362 73.7928C137.362 75.3433 137.127 76.969 137.127 77.6267C137.127 78.0496 137.268 78.4818 137.559 78.7168C137.888 78.9893 138.179 79.0457 138.179 79.4497C138.179 79.7786 137.944 79.9947 137.399 79.9947C136.92 79.9947 136.469 79.9478 135.98 79.9478C135.351 79.9478 135.153 79.9947 134.561 79.9947C134.167 79.9947 134.026 79.7598 134.026 79.4779C134.026 79.1114 134.167 78.7638 134.242 78.557C134.42 78.0214 134.618 76.2924 134.618 74.6198C134.618 72.9001 134.045 72.1108 133.077 72.1108C132.447 72.1108 131.507 72.7028 131.507 73.9902C131.507 75.5406 131.442 76.969 131.442 77.6267C131.442 78.0496 131.507 78.4725 131.78 78.7168C132.09 78.9893 132.344 79.0457 132.344 79.4497C132.344 79.7786 132.118 79.9947 131.573 79.9947C131.085 79.9947 130.746 79.9478 130.267 79.9478C129.637 79.9478 129.44 79.9947 128.848 79.9947C128.453 79.9947 128.313 79.7598 128.313 79.4779C128.313 79.1114 128.453 78.7638 128.529 78.557C128.707 78.0214 128.867 76.2924 128.867 74.6198C128.867 72.9001 128.313 72.1108 127.345 72.1108C126.668 72.1108 125.757 72.8531 125.757 73.868V77.3636C125.757 78.106 125.832 78.3879 126.095 78.6792C126.349 78.9611 126.649 79.0269 126.649 79.4497C126.649 79.7692 126.471 79.9947 125.935 79.9947C125.418 79.9947 124.958 79.9478 124.479 79.9478C123.877 79.9478 123.323 79.9947 122.665 79.9947C122.223 79.9947 122.073 79.7598 122.073 79.4779C122.073 79.0738 122.411 78.8671 122.58 78.6886C123.022 78.1999 123.088 77.7113 123.088 77.2321V73.1726C123.088 72.6276 122.778 72.4115 122.515 72.2893C122.346 72.1954 122.129 72.0732 122.129 71.7819C122.129 71.3027 122.731 71.2181 123.454 70.908C124.375 70.4851 124.591 70.2784 124.911 70.2784C125.259 70.2784 125.465 70.4288 125.578 70.908C125.663 71.2745 125.71 71.6598 125.851 71.6598C126.057 71.6598 127.11 70.222 128.726 70.222C129.684 70.222 130.427 70.5791 130.925 71.2745C131.141 71.547 131.226 71.7255 131.348 71.7255ZM144.267 72.0826C143.356 72.0826 142.463 73.0411 142.463 75.146C142.463 77.9838 143.252 78.5382 144.164 78.5382C145.113 78.5382 146.053 77.6361 146.053 75.2869C146.053 72.9847 145.273 72.0826 144.267 72.0826ZM148.975 74.8829C148.975 78.0872 147.049 80.1357 144.634 80.1357C143.327 80.1357 142.876 79.4967 142.679 79.4967C142.557 79.4967 142.51 79.6283 142.51 80.0135V81.1975C142.51 81.9963 142.876 82.2124 143.243 82.4849C143.553 82.701 143.948 82.842 143.948 83.2648C143.948 83.5937 143.769 83.8098 143.224 83.8098C142.745 83.8098 141.786 83.7629 141.26 83.7629C140.621 83.7629 140.029 83.8098 139.353 83.8098C138.892 83.8098 138.742 83.5749 138.742 83.3024C138.742 82.889 139.09 82.6822 139.268 82.5037C139.728 82.0151 139.794 81.5358 139.794 81.0472V73.1726C139.794 72.6182 139.447 72.4021 139.165 72.2799C138.967 72.1578 138.798 72.0356 138.798 71.7819C138.798 71.3027 139.381 71.2181 140.104 70.908C141.025 70.4851 141.279 70.2784 141.617 70.2784C141.965 70.2784 142.162 70.4288 142.294 70.908C142.369 71.2745 142.425 71.6598 142.576 71.6598C142.792 71.6598 143.562 70.222 145.414 70.222C147.706 70.222 148.975 72.1672 148.975 74.8829ZM155.61 76.3488C155.61 75.738 155.544 75.597 155.441 75.597C154.896 75.597 154.407 75.6722 153.966 75.8319C153.167 76.1138 152.716 76.6871 152.716 77.3166C152.716 77.9462 153.167 78.3691 153.853 78.3691C154.952 78.3691 155.61 77.5046 155.61 76.3488ZM152.641 74.8453C153.815 74.4694 155.103 74.3942 155.366 74.1969C155.479 74.1123 155.591 73.915 155.591 73.2948C155.591 72.2612 155.14 71.4624 154.154 71.4624C153.327 71.4624 152.885 72.1202 152.641 73.0317C152.5 73.5391 152.284 73.9056 151.663 73.9056C151.024 73.9056 150.404 73.4545 150.404 72.5431C150.404 71.4154 151.767 70.2126 154.172 70.2126C156.512 70.2126 158.345 71.3591 158.345 73.9714C158.345 75.1742 158.241 76.3394 158.241 77.2978C158.241 77.6643 158.363 78.0778 158.786 78.0778C158.984 78.0778 159.078 78.012 159.219 78.012C159.322 78.012 159.406 78.153 159.406 78.3691C159.406 79.3558 158.533 80.1075 157.452 80.1075C156.569 80.1075 156.042 79.788 155.742 79.1772C155.704 79.0926 155.648 79.0081 155.573 79.0081C155.497 79.0081 155.422 79.1114 155.347 79.1866C154.755 79.741 153.768 80.1733 152.772 80.1733C151.184 80.1733 149.953 79.3558 149.953 77.8147C149.953 76.33 150.996 75.3997 152.641 74.8453ZM170.071 73.7928C170.071 75.3433 169.808 76.969 169.808 77.6267C169.808 78.0496 169.959 78.4725 170.269 78.7168C170.616 78.9799 170.908 79.0457 170.908 79.4497C170.908 79.7786 170.682 79.9947 170.128 79.9947C169.63 79.9947 169.197 79.9478 168.662 79.9478C168.032 79.9478 167.769 79.9947 167.177 79.9947C166.773 79.9947 166.623 79.7598 166.623 79.4779C166.623 79.1114 166.792 78.7638 166.858 78.557C167.045 78.0214 167.252 76.2924 167.252 74.6198C167.252 72.9001 166.66 72.1108 165.598 72.1108C164.809 72.1108 163.841 72.8531 163.841 73.868V77.3636C163.841 78.106 163.926 78.3879 164.208 78.6792C164.48 78.9611 164.8 79.0269 164.8 79.4497C164.8 79.7692 164.621 79.9947 164.067 79.9947C163.531 79.9947 163.024 79.9478 162.526 79.9478C161.905 79.9478 161.37 79.9947 160.693 79.9947C160.233 79.9947 160.082 79.7598 160.082 79.4779C160.082 79.0738 160.43 78.8671 160.609 78.6886C161.069 78.1999 161.125 77.7113 161.125 77.2321V73.1726C161.125 72.6276 160.787 72.4021 160.505 72.2799C160.308 72.1578 160.139 72.0356 160.139 71.7819C160.139 71.3027 160.721 71.2181 161.436 70.908C162.366 70.4851 162.62 70.2784 162.948 70.2784C163.296 70.2784 163.493 70.4288 163.625 70.908C163.7 71.2745 163.757 71.6598 163.916 71.6598C164.123 71.6598 165.251 70.222 167.027 70.222C169.094 70.222 170.071 71.5376 170.071 73.7928ZM180.077 72.9377C179.532 74.3285 178.799 76.3864 178.217 77.7395C176.732 81.2539 175.68 84.0354 173.471 84.0354C172.447 84.0354 171.658 83.3588 171.658 82.3345C171.658 81.4325 172.259 80.7465 172.964 80.7465C173.312 80.7465 173.528 80.9344 173.697 81.1505C173.941 81.4794 174.12 81.8177 174.449 81.8177C174.796 81.8177 175.388 81.066 175.388 80.5304C175.388 79.8914 173.988 76.875 173.471 75.6252C173.058 74.6479 172.09 72.2893 171.555 71.8007C171.282 71.5282 171.038 71.3027 171.038 70.9268C171.038 70.5979 171.244 70.3724 171.658 70.3724C172.203 70.3724 172.616 70.4194 173.18 70.4194C173.697 70.4194 174.345 70.3724 174.909 70.3724C175.323 70.3724 175.576 70.4851 175.576 70.9926C175.576 71.3497 175.06 71.5752 175.06 72.1296C175.06 72.4773 175.257 73.0505 175.849 74.5258C176.384 75.8319 176.751 76.7716 176.883 76.7716C177.08 76.7716 177.484 75.5406 177.954 74.0747C178.32 73.0129 178.377 72.637 178.377 72.4021C178.377 71.594 177.653 71.406 177.653 70.908C177.653 70.5697 177.888 70.3724 178.198 70.3724C178.612 70.3724 179.232 70.4194 179.608 70.4194C180.04 70.4194 180.435 70.3724 180.735 70.3724C181.167 70.3724 181.28 70.5979 181.28 70.861C181.28 71.5376 180.66 71.3966 180.077 72.9377Z" fill="black"/>
<path d="M76.0864 103.924C73.1827 103.924 71.2517 101.838 71.2517 98.6807C71.2517 95.5375 73.2391 93.4091 76.1568 93.4091C78.4544 93.4091 80.2163 94.7763 80.5968 96.8624H79.1168C78.7363 95.5375 77.5945 94.7341 76.1145 94.7341C74.0566 94.7341 72.7035 96.2845 72.7035 98.6666C72.7035 101.049 74.0566 102.599 76.1145 102.599C77.6086 102.599 78.7926 101.796 79.1732 100.541H80.6391C80.2022 102.571 78.3839 103.924 76.0864 103.924ZM86.8715 96.8765H88.1824V103.769H86.9984L86.8574 102.726C86.4628 103.445 85.5466 103.938 84.5317 103.938C82.9249 103.938 82.0228 102.853 82.0228 101.161V96.8765H83.3477V100.725C83.3477 102.205 83.982 102.768 84.9969 102.768C86.209 102.768 86.8715 101.993 86.8715 100.513V96.8765ZM89.4033 101.768H90.6718C90.6718 102.472 91.2075 102.895 92.0814 102.895C93.0116 102.895 93.5473 102.515 93.5473 101.88C93.5473 101.415 93.3217 101.133 92.6029 100.95L91.3907 100.668C90.1644 100.372 89.5865 99.7661 89.5865 98.7512C89.5865 97.4826 90.6577 96.6792 92.18 96.6792C93.6882 96.6792 94.6749 97.5249 94.7031 98.8358H93.4345C93.4063 98.1451 92.9412 97.7082 92.1377 97.7082C91.3061 97.7082 90.841 98.0746 90.841 98.7089C90.841 99.1741 91.1793 99.4842 91.8558 99.6533L93.068 99.9493C94.2379 100.231 94.8158 100.767 94.8158 101.796C94.8158 103.107 93.6882 103.938 92.0532 103.938C90.4322 103.938 89.4033 103.078 89.4033 101.768ZM98.2303 103.769H96.9053V97.9901H95.5522V96.8765H96.9053V94.72H98.2303V96.8765H99.5834V97.9901H98.2303V103.769ZM100.253 100.316C100.253 98.1874 101.775 96.6933 103.847 96.6933C105.905 96.6933 107.427 98.1874 107.427 100.316C107.427 102.444 105.905 103.938 103.847 103.938C101.775 103.938 100.253 102.444 100.253 100.316ZM101.592 100.316C101.592 101.753 102.508 102.754 103.847 102.754C105.172 102.754 106.102 101.753 106.102 100.316C106.102 98.8781 105.172 97.8773 103.847 97.8773C102.508 97.8773 101.592 98.8781 101.592 100.316ZM110.219 103.769H108.894V96.8765H110.078L110.205 97.7786C110.557 97.1302 111.29 96.6792 112.263 96.6792C113.334 96.6792 114.095 97.2148 114.447 98.0746C114.772 97.2148 115.603 96.6792 116.674 96.6792C118.253 96.6792 119.212 97.6659 119.212 99.2586V103.769H117.915V99.5828C117.915 98.4975 117.309 97.8773 116.378 97.8773C115.378 97.8773 114.715 98.5821 114.715 99.6815V103.769H113.404V99.5687C113.404 98.4834 112.812 97.8914 111.882 97.8914C110.881 97.8914 110.219 98.5821 110.219 99.6815V103.769ZM124.022 103.938C121.993 103.938 120.597 102.472 120.597 100.33C120.597 98.1733 121.964 96.6792 123.966 96.6792C125.925 96.6792 127.208 98.0323 127.208 100.076V100.569L121.88 100.584C121.978 102.035 122.74 102.839 124.05 102.839C125.079 102.839 125.756 102.416 125.982 101.627H127.222C126.884 103.107 125.728 103.938 124.022 103.938ZM123.966 97.7927C122.81 97.7927 122.077 98.4834 121.908 99.6956H125.883C125.883 98.5539 125.136 97.7927 123.966 97.7927ZM132.634 96.8202V98.0323H132.042C130.788 98.0323 130.013 98.7935 130.013 100.118V103.769H128.688V96.8906H129.928L130.013 97.9337C130.295 97.2148 130.985 96.7356 131.93 96.7356C132.169 96.7356 132.367 96.7638 132.634 96.8202ZM133.313 101.768H134.582C134.582 102.472 135.117 102.895 135.991 102.895C136.922 102.895 137.457 102.515 137.457 101.88C137.457 101.415 137.232 101.133 136.513 100.95L135.301 100.668C134.074 100.372 133.496 99.7661 133.496 98.7512C133.496 97.4826 134.568 96.6792 136.09 96.6792C137.598 96.6792 138.585 97.5249 138.613 98.8358H137.344C137.316 98.1451 136.851 97.7082 136.048 97.7082C135.216 97.7082 134.751 98.0746 134.751 98.7089C134.751 99.1741 135.089 99.4842 135.766 99.6533L136.978 99.9493C138.148 100.231 138.726 100.767 138.726 101.796C138.726 103.107 137.598 103.938 135.963 103.938C134.342 103.938 133.313 103.078 133.313 101.768ZM148.236 100.133H145.656V103.769H144.275V93.5782H148.236C150.237 93.5782 151.52 94.8891 151.52 96.8483C151.52 98.7512 150.223 100.133 148.236 100.133ZM147.996 94.8186H145.656V98.8922H147.94C149.307 98.8922 150.068 98.0887 150.068 96.8342C150.068 95.5516 149.293 94.8186 147.996 94.8186ZM155.516 103.938C153.487 103.938 152.091 102.472 152.091 100.33C152.091 98.1733 153.458 96.6792 155.46 96.6792C157.419 96.6792 158.702 98.0323 158.702 100.076V100.569L153.374 100.584C153.473 102.035 154.234 102.839 155.545 102.839C156.573 102.839 157.25 102.416 157.476 101.627H158.716C158.378 103.107 157.222 103.938 155.516 103.938ZM155.46 97.7927C154.304 97.7927 153.571 98.4834 153.402 99.6956H157.377C157.377 98.5539 156.63 97.7927 155.46 97.7927ZM164.128 96.8202V98.0323H163.536C162.282 98.0323 161.507 98.7935 161.507 100.118V103.769H160.182V96.8906H161.422L161.507 97.9337C161.789 97.2148 162.479 96.7356 163.424 96.7356C163.663 96.7356 163.861 96.7638 164.128 96.8202ZM166.724 103.769H165.399V93.395H166.724V100.118L169.783 96.8765H171.446L168.81 99.6251L171.432 103.769H169.91L167.894 100.584L166.724 101.81V103.769ZM172.006 101.768H173.275C173.275 102.472 173.811 102.895 174.684 102.895C175.615 102.895 176.15 102.515 176.15 101.88C176.15 101.415 175.925 101.133 175.206 100.95L173.994 100.668C172.767 100.372 172.19 99.7661 172.19 98.7512C172.19 97.4826 173.261 96.6792 174.783 96.6792C176.291 96.6792 177.278 97.5249 177.306 98.8358H176.038C176.009 98.1451 175.544 97.7082 174.741 97.7082C173.909 97.7082 173.444 98.0746 173.444 98.7089C173.444 99.1741 173.782 99.4842 174.459 99.6533L175.671 99.9493C176.841 100.231 177.419 100.767 177.419 101.796C177.419 103.107 176.291 103.938 174.656 103.938C173.035 103.938 172.006 103.078 172.006 101.768Z" fill="#757575"/>
<rect x="40.3269" y="131.272" width="167.956" height="49.2961" rx="10.8909" fill="#F0F0F0" stroke="#D5D5D5" stroke-width="1.14641" stroke-dasharray="5.73 5.73"/>
<rect x="40.2313" y="192.128" width="168.147" height="49.4872" rx="10.9864" fill="#F7F3CE" stroke="#EDB408" stroke-width="0.955344"/>
<g clip-path="url(#clip1_2154_11278)">
<path d="M84.3667 213.458C84.169 212.864 83.6267 212.442 82.985 212.386L74.2695 211.617L70.8231 203.783C70.569 203.209 69.9902 202.837 69.3472 202.837C68.7042 202.837 68.1255 203.209 67.8714 203.785L64.425 211.617L55.7081 212.386C55.0676 212.443 54.5266 212.864 54.3278 213.458C54.129 214.052 54.3126 214.703 54.7971 215.114L61.385 220.725L59.4424 229.036C59.3003 229.647 59.5445 230.278 60.0665 230.645C60.3471 230.842 60.6754 230.942 61.0065 230.942C61.292 230.942 61.5751 230.867 61.8292 230.719L69.3472 226.356L76.8625 230.719C77.4124 231.041 78.1057 231.011 78.6266 230.645C79.1489 230.277 79.3928 229.645 79.2507 229.036L77.3081 220.725L83.896 215.115C84.3805 214.703 84.5655 214.053 84.3667 213.458Z" fill="#FFC107"/>
</g>
<rect x="97.7322" y="208.073" width="62.8089" height="7.03842" rx="3.51921" fill="#FFC107"/>
<rect x="97.7322" y="219.804" width="76.0955" height="7.03842" rx="3.51921" fill="#FFC107"/>
<path d="M267.905 68.5118C266.74 68.5118 265.537 69.6582 265.537 72.4679C265.537 73.7458 265.753 75.2305 266.317 76.4803C266.966 77.8241 267.999 78.4161 268.929 78.4161C270.273 78.4161 271.457 77.42 271.457 74.958C271.457 73.5673 271.11 71.8947 270.536 70.7013C269.916 69.3387 268.911 68.5118 267.905 68.5118ZM262.023 73.6613C262.023 69.6394 264.579 66.858 268.319 66.858C271.777 66.858 274.737 69.3669 274.737 73.868C274.737 78.1248 271.946 80.2672 268.45 80.2672C264.428 80.2672 262.023 77.5046 262.023 73.6613ZM279.425 72.4397C279.388 72.825 279.341 74.9205 279.341 75.8977C279.341 76.969 279.622 77.9462 280.656 77.9462C281.173 77.9462 281.53 77.6455 281.765 77.4482C281.878 77.3354 281.953 77.2791 282.056 77.2791C282.197 77.2791 282.338 77.3824 282.338 77.7301C282.338 77.9274 282.272 78.1812 282.141 78.4349C281.784 79.1678 280.853 80.1357 279.228 80.1357C277.377 80.1357 276.569 78.8859 276.569 76.734C276.569 75.8789 276.691 73.8774 276.691 72.7968C276.691 72.4115 276.587 72.2142 276.277 72.1578C275.695 72.092 275.338 71.998 275.338 71.6316C275.338 71.3027 275.422 70.9832 275.779 70.8046C276.399 70.4945 277.02 70.0905 277.471 69.6394C278.222 68.8595 278.326 67.9574 278.908 67.9574C279.247 67.9574 279.51 68.2205 279.51 68.7937C279.51 69.1884 279.416 70.4758 279.416 70.5603C279.416 70.6073 279.425 70.6355 279.5 70.6355C279.688 70.6355 281.126 70.5509 281.37 70.5509C281.793 70.5509 282.047 70.6731 282.047 71.1899C282.047 71.5282 281.859 71.998 281.662 72.2142C281.605 72.2705 281.474 72.3363 281.295 72.3363C281.088 72.3363 279.867 72.2612 279.585 72.2612C279.529 72.2612 279.435 72.2799 279.425 72.4397ZM283.95 77.2321V69.038C283.95 68.5682 283.622 68.3239 283.34 68.1923C283.142 68.0796 282.954 67.9574 282.954 67.7037C282.954 67.2526 283.537 67.1681 284.261 66.8674C285.181 66.5009 285.736 66.1344 286.149 66.1344C286.516 66.1344 286.751 66.3224 286.751 66.7546C286.751 67.2714 286.553 68.7655 286.553 71.3403C286.553 71.6504 286.629 71.7161 286.704 71.7161C286.91 71.7161 287.991 70.222 289.852 70.222C291.919 70.222 292.887 71.5376 292.887 73.7928C292.887 75.3433 292.633 76.969 292.633 77.6267C292.633 78.0496 292.783 78.4725 293.084 78.7168C293.441 78.9799 293.733 79.0457 293.733 79.4497C293.733 79.7786 293.498 79.9947 292.943 79.9947C292.455 79.9947 292.022 79.9478 291.487 79.9478C290.857 79.9478 290.594 79.9947 290.002 79.9947C289.598 79.9947 289.448 79.7598 289.448 79.4779C289.448 79.1114 289.607 78.7638 289.683 78.557C289.861 78.0214 290.077 76.2924 290.077 74.6198C290.077 72.9001 289.485 72.1108 288.414 72.1108C287.634 72.1108 286.666 72.8531 286.666 73.868V77.3636C286.666 78.106 286.751 78.3879 287.033 78.6792C287.305 78.9611 287.625 79.0269 287.625 79.4497C287.625 79.7692 287.446 79.9947 286.892 79.9947C286.356 79.9947 285.877 79.9478 285.341 79.9478C284.702 79.9478 284.308 79.9947 283.509 79.9947C283.048 79.9947 282.898 79.7598 282.898 79.4779C282.898 79.0738 283.255 78.8671 283.424 78.6886C283.894 78.1999 283.95 77.7113 283.95 77.2321ZM300.632 73.1914C300.632 72.3175 300.03 71.6598 299.213 71.6598C298.094 71.6598 297.324 72.7968 297.324 73.962C297.324 74.3097 297.437 74.5164 297.69 74.5164C298.282 74.5164 299.805 74.2627 300.387 73.7458C300.547 73.5955 300.632 73.4264 300.632 73.1914ZM302.389 74.8829C301.308 75.4937 299.072 75.7286 297.916 75.7944C297.737 75.8038 297.672 75.8413 297.672 75.9729C297.672 76.6683 298.348 77.9556 300.077 77.9556C301.412 77.9556 302.21 77.3072 302.689 76.6871C302.812 76.5649 302.953 76.4803 303.065 76.4803C303.234 76.4803 303.347 76.6495 303.347 77.0159C303.347 78.2469 301.9 80.1545 299.231 80.1545C296.337 80.1545 294.561 78.1905 294.561 75.4091C294.561 72.6182 296.525 70.222 299.485 70.222C302.06 70.222 303.188 72.1202 303.188 73.6237C303.188 74.2627 302.868 74.6292 302.389 74.8829ZM309.271 72.3927C308.52 72.3927 307.946 73.3794 307.946 74.2909V77.2415C307.946 77.9838 308.097 78.2939 308.623 78.6886C308.933 78.9235 309.469 79.0175 309.469 79.4497C309.469 79.7692 309.3 79.9947 308.745 79.9947C308.2 79.9947 307.561 79.9478 306.631 79.9478C305.992 79.9478 305.597 79.9947 304.798 79.9947C304.338 79.9947 304.188 79.7598 304.188 79.4779C304.188 79.0738 304.535 78.8671 304.714 78.6886C305.174 78.1999 305.231 77.7113 305.231 77.2321V73.1726C305.231 72.6276 304.892 72.4021 304.611 72.2799C304.413 72.1578 304.244 72.0356 304.244 71.7819C304.244 71.3027 304.827 71.2181 305.541 70.908C306.471 70.4851 306.725 70.2784 307.054 70.2784C307.401 70.2784 307.599 70.4288 307.73 70.908C307.805 71.2745 307.862 71.6598 308.022 71.6598C308.228 71.6598 309.13 70.222 310.643 70.222C311.564 70.222 312.438 70.7671 312.438 72.2612C312.438 73.2948 311.686 74.3472 310.756 74.3472C310.136 74.3472 310.108 73.962 309.967 73.3136C309.845 72.7216 309.6 72.3927 309.271 72.3927ZM317.752 73.6049C317.752 70.1657 319.791 66.8486 323.898 66.8486C325.345 66.8486 326.021 67.2996 326.613 67.2996C327.036 67.2996 327.309 67.1023 327.684 67.1023C328.408 67.1023 328.427 67.8258 328.652 68.9441C328.897 70.2126 329.028 70.5227 329.028 70.7858C329.028 71.1899 328.793 71.3778 328.521 71.3778C328.023 71.3778 327.769 70.8046 327.356 70.2126C326.491 69.0005 325.354 68.3051 324.226 68.3051C322.15 68.3051 321.078 70.2502 321.078 72.4867C321.078 75.3809 322.648 77.7207 325.204 77.7207C326.97 77.7207 327.985 76.5931 328.474 75.6722C328.643 75.3997 328.784 75.1742 328.981 75.1742C329.254 75.1742 329.357 75.55 329.357 75.8601C329.357 76.4709 329.169 77.1663 328.774 77.8053C327.966 79.1114 326.294 80.2672 323.916 80.2672C319.951 80.2672 317.752 77.1287 317.752 73.6049ZM334.731 71.6879C333.913 71.6879 333.171 72.3927 333.171 74.2627C333.171 75.1366 333.312 76.2548 333.706 77.1099C334.129 77.9932 334.796 78.4161 335.464 78.4161C336.328 78.4161 337.136 77.7865 337.136 76.1326C337.136 75.1742 336.882 73.9902 336.497 73.1538C336.018 72.1766 335.37 71.6879 334.731 71.6879ZM330.267 75.2587C330.267 72.2799 332.25 70.222 334.984 70.222C337.587 70.222 339.918 72.092 339.918 75.4279C339.918 78.5758 337.738 80.1357 335.097 80.1357C332.156 80.1357 330.267 78.0872 330.267 75.2587ZM350.059 71.7255C350.284 71.7255 351.337 70.222 353.169 70.222C355.189 70.222 356.073 71.5376 356.073 73.7928C356.073 75.3433 355.838 76.969 355.838 77.6267C355.838 78.0496 355.979 78.4818 356.27 78.7168C356.599 78.9893 356.89 79.0457 356.89 79.4497C356.89 79.7786 356.655 79.9947 356.11 79.9947C355.631 79.9947 355.18 79.9478 354.691 79.9478C354.062 79.9478 353.864 79.9947 353.272 79.9947C352.878 79.9947 352.737 79.7598 352.737 79.4779C352.737 79.1114 352.878 78.7638 352.953 78.557C353.131 78.0214 353.329 76.2924 353.329 74.6198C353.329 72.9001 352.755 72.1108 351.788 72.1108C351.158 72.1108 350.218 72.7028 350.218 73.9902C350.218 75.5406 350.153 76.969 350.153 77.6267C350.153 78.0496 350.218 78.4725 350.491 78.7168C350.801 78.9893 351.055 79.0457 351.055 79.4497C351.055 79.7786 350.829 79.9947 350.284 79.9947C349.795 79.9947 349.457 79.9478 348.978 79.9478C348.348 79.9478 348.151 79.9947 347.559 79.9947C347.164 79.9947 347.023 79.7598 347.023 79.4779C347.023 79.1114 347.164 78.7638 347.24 78.557C347.418 78.0214 347.578 76.2924 347.578 74.6198C347.578 72.9001 347.023 72.1108 346.056 72.1108C345.379 72.1108 344.467 72.8531 344.467 73.868V77.3636C344.467 78.106 344.543 78.3879 344.806 78.6792C345.059 78.9611 345.36 79.0269 345.36 79.4497C345.36 79.7692 345.182 79.9947 344.646 79.9947C344.129 79.9947 343.669 79.9478 343.19 79.9478C342.588 79.9478 342.034 79.9947 341.376 79.9947C340.934 79.9947 340.784 79.7598 340.784 79.4779C340.784 79.0738 341.122 78.8671 341.291 78.6886C341.733 78.1999 341.799 77.7113 341.799 77.2321V73.1726C341.799 72.6276 341.489 72.4115 341.226 72.2893C341.056 72.1954 340.84 72.0732 340.84 71.7819C340.84 71.3027 341.442 71.2181 342.165 70.908C343.086 70.4851 343.302 70.2784 343.622 70.2784C343.969 70.2784 344.176 70.4288 344.289 70.908C344.374 71.2745 344.42 71.6598 344.561 71.6598C344.768 71.6598 345.821 70.222 347.437 70.222C348.395 70.222 349.138 70.5791 349.636 71.2745C349.852 71.547 349.936 71.7255 350.059 71.7255ZM362.978 72.0826C362.067 72.0826 361.174 73.0411 361.174 75.146C361.174 77.9838 361.963 78.5382 362.875 78.5382C363.824 78.5382 364.763 77.6361 364.763 75.2869C364.763 72.9847 363.983 72.0826 362.978 72.0826ZM367.686 74.8829C367.686 78.0872 365.759 80.1357 363.345 80.1357C362.038 80.1357 361.587 79.4967 361.39 79.4967C361.268 79.4967 361.221 79.6283 361.221 80.0135V81.1975C361.221 81.9963 361.587 82.2124 361.954 82.4849C362.264 82.701 362.659 82.842 362.659 83.2648C362.659 83.5937 362.48 83.8098 361.935 83.8098C361.456 83.8098 360.497 83.7629 359.971 83.7629C359.332 83.7629 358.74 83.8098 358.063 83.8098C357.603 83.8098 357.453 83.5749 357.453 83.3024C357.453 82.889 357.8 82.6822 357.979 82.5037C358.439 82.0151 358.505 81.5358 358.505 81.0472V73.1726C358.505 72.6182 358.157 72.4021 357.876 72.2799C357.678 72.1578 357.509 72.0356 357.509 71.7819C357.509 71.3027 358.092 71.2181 358.815 70.908C359.736 70.4851 359.99 70.2784 360.328 70.2784C360.676 70.2784 360.873 70.4288 361.005 70.908C361.08 71.2745 361.136 71.6598 361.287 71.6598C361.503 71.6598 362.273 70.222 364.124 70.222C366.417 70.222 367.686 72.1672 367.686 74.8829ZM374.321 76.3488C374.321 75.738 374.255 75.597 374.152 75.597C373.607 75.597 373.118 75.6722 372.677 75.8319C371.878 76.1138 371.427 76.6871 371.427 77.3166C371.427 77.9462 371.878 78.3691 372.564 78.3691C373.663 78.3691 374.321 77.5046 374.321 76.3488ZM371.352 74.8453C372.526 74.4694 373.814 74.3942 374.077 74.1969C374.189 74.1123 374.302 73.915 374.302 73.2948C374.302 72.2612 373.851 71.4624 372.865 71.4624C372.038 71.4624 371.596 72.1202 371.352 73.0317C371.211 73.5391 370.995 73.9056 370.374 73.9056C369.735 73.9056 369.115 73.4545 369.115 72.5431C369.115 71.4154 370.478 70.2126 372.883 70.2126C375.223 70.2126 377.056 71.3591 377.056 73.9714C377.056 75.1742 376.952 76.3394 376.952 77.2978C376.952 77.6643 377.074 78.0778 377.497 78.0778C377.694 78.0778 377.788 78.012 377.929 78.012C378.033 78.012 378.117 78.153 378.117 78.3691C378.117 79.3558 377.243 80.1075 376.163 80.1075C375.28 80.1075 374.753 79.788 374.453 79.1772C374.415 79.0926 374.359 79.0081 374.283 79.0081C374.208 79.0081 374.133 79.1114 374.058 79.1866C373.466 79.741 372.479 80.1733 371.483 80.1733C369.895 80.1733 368.664 79.3558 368.664 77.8147C368.664 76.33 369.707 75.3997 371.352 74.8453ZM388.782 73.7928C388.782 75.3433 388.519 76.969 388.519 77.6267C388.519 78.0496 388.669 78.4725 388.98 78.7168C389.327 78.9799 389.618 79.0457 389.618 79.4497C389.618 79.7786 389.393 79.9947 388.839 79.9947C388.341 79.9947 387.908 79.9478 387.373 79.9478C386.743 79.9478 386.48 79.9947 385.888 79.9947C385.484 79.9947 385.334 79.7598 385.334 79.4779C385.334 79.1114 385.503 78.7638 385.568 78.557C385.756 78.0214 385.963 76.2924 385.963 74.6198C385.963 72.9001 385.371 72.1108 384.309 72.1108C383.52 72.1108 382.552 72.8531 382.552 73.868V77.3636C382.552 78.106 382.637 78.3879 382.919 78.6792C383.191 78.9611 383.511 79.0269 383.511 79.4497C383.511 79.7692 383.332 79.9947 382.778 79.9947C382.242 79.9947 381.735 79.9478 381.237 79.9478C380.616 79.9478 380.081 79.9947 379.404 79.9947C378.944 79.9947 378.793 79.7598 378.793 79.4779C378.793 79.0738 379.141 78.8671 379.32 78.6886C379.78 78.1999 379.836 77.7113 379.836 77.2321V73.1726C379.836 72.6276 379.498 72.4021 379.216 72.2799C379.019 72.1578 378.85 72.0356 378.85 71.7819C378.85 71.3027 379.432 71.2181 380.146 70.908C381.077 70.4851 381.33 70.2784 381.659 70.2784C382.007 70.2784 382.204 70.4288 382.336 70.908C382.411 71.2745 382.468 71.6598 382.627 71.6598C382.834 71.6598 383.962 70.222 385.738 70.222C387.805 70.222 388.782 71.5376 388.782 73.7928ZM391.097 68.2957C391.097 67.262 392.103 66.2096 393.183 66.2096C393.935 66.2096 394.527 66.6982 394.527 67.4688C394.527 68.5212 393.4 69.3763 392.281 69.3763C391.473 69.3763 391.097 68.9159 391.097 68.2957ZM394.255 70.8422C394.255 71.406 394.161 72.4021 394.161 74.3566V77.3636C394.161 78.106 394.311 78.3879 394.593 78.6792C394.865 78.9611 395.185 79.0269 395.185 79.4497C395.185 79.7692 395.006 79.9947 394.461 79.9947C393.916 79.9947 393.371 79.9478 392.836 79.9478C392.197 79.9478 391.802 79.9947 391.003 79.9947C390.543 79.9947 390.393 79.7598 390.393 79.4779C390.393 79.0738 390.75 78.8671 390.919 78.6886C391.389 78.1999 391.445 77.7113 391.445 77.2321V73.4452C391.445 72.8531 391.163 72.5149 390.853 72.3551C390.656 72.2236 390.43 72.0826 390.43 71.8101C390.43 71.3027 391.032 71.2557 391.755 70.9644C392.676 70.5979 393.324 70.222 393.653 70.222C394.048 70.222 394.255 70.41 394.255 70.8422ZM402.106 73.1914C402.106 72.3175 401.505 71.6598 400.687 71.6598C399.569 71.6598 398.799 72.7968 398.799 73.962C398.799 74.3097 398.911 74.5164 399.165 74.5164C399.757 74.5164 401.279 74.2627 401.862 73.7458C402.022 73.5955 402.106 73.4264 402.106 73.1914ZM403.863 74.8829C402.783 75.4937 400.546 75.7286 399.391 75.7944C399.212 75.8038 399.146 75.8413 399.146 75.9729C399.146 76.6683 399.823 77.9556 401.552 77.9556C402.886 77.9556 403.685 77.3072 404.164 76.6871C404.286 76.5649 404.427 76.4803 404.54 76.4803C404.709 76.4803 404.822 76.6495 404.822 77.0159C404.822 78.2469 403.375 80.1545 400.706 80.1545C397.812 80.1545 396.036 78.1905 396.036 75.4091C396.036 72.6182 398 70.222 400.96 70.222C403.535 70.222 404.662 72.1202 404.662 73.6237C404.662 74.2627 404.343 74.6292 403.863 74.8829ZM409.788 70.2032C410.746 70.2032 412.109 70.3912 412.644 70.9456C413.067 71.3778 413.189 71.9229 413.189 72.6652C413.189 73.182 412.936 73.4639 412.616 73.4639C412.297 73.4639 412.062 73.1632 411.78 72.8344C411.319 72.2893 410.68 71.5564 409.6 71.5564C408.839 71.5564 408.444 71.9792 408.444 72.5055C408.444 73.2572 409.196 73.4639 410.596 73.9526C412.109 74.4694 413.621 75.1272 413.621 77.1381C413.621 78.9893 411.986 80.2109 409.637 80.2109C408.585 80.2109 406.987 79.9008 406.301 79.1302C406.01 78.8295 405.803 78.1905 405.803 77.3824C405.803 76.875 406.01 76.5649 406.395 76.5649C406.611 76.5649 406.799 76.7622 407.006 77.0253C407.514 77.6549 408.256 78.6416 409.656 78.6416C410.408 78.6416 410.821 78.2375 410.821 77.6455C410.821 76.7904 409.759 76.5931 408.425 76.0011C407.288 75.4937 406.029 74.9298 406.029 73.1914C406.029 71.3591 407.777 70.2032 409.788 70.2032Z" fill="black"/>
<path d="M289.612 103.924C286.709 103.924 284.778 101.838 284.778 98.6807C284.778 95.5375 286.765 93.4091 289.683 93.4091C291.98 93.4091 293.742 94.7763 294.123 96.8624H292.643C292.262 95.5375 291.121 94.7341 289.641 94.7341C287.583 94.7341 286.23 96.2845 286.23 98.6666C286.23 101.049 287.583 102.599 289.641 102.599C291.135 102.599 292.319 101.796 292.699 100.541H294.165C293.728 102.571 291.91 103.924 289.612 103.924ZM300.398 96.8765H301.709V103.769H300.525L300.384 102.726C299.989 103.445 299.073 103.938 298.058 103.938C296.451 103.938 295.549 102.853 295.549 101.161V96.8765H296.874V100.725C296.874 102.205 297.508 102.768 298.523 102.768C299.735 102.768 300.398 101.993 300.398 100.513V96.8765ZM302.929 101.768H304.198C304.198 102.472 304.734 102.895 305.607 102.895C306.538 102.895 307.073 102.515 307.073 101.88C307.073 101.415 306.848 101.133 306.129 100.95L304.917 100.668C303.691 100.372 303.113 99.7661 303.113 98.7512C303.113 97.4826 304.184 96.6792 305.706 96.6792C307.214 96.6792 308.201 97.5249 308.229 98.8358H306.961C306.932 98.1451 306.467 97.7082 305.664 97.7082C304.832 97.7082 304.367 98.0746 304.367 98.7089C304.367 99.1741 304.705 99.4842 305.382 99.6533L306.594 99.9493C307.764 100.231 308.342 100.767 308.342 101.796C308.342 103.107 307.214 103.938 305.579 103.938C303.958 103.938 302.929 103.078 302.929 101.768ZM311.756 103.769H310.431V97.9901H309.078V96.8765H310.431V94.72H311.756V96.8765H313.11V97.9901H311.756V103.769ZM313.779 100.316C313.779 98.1874 315.301 96.6933 317.373 96.6933C319.431 96.6933 320.953 98.1874 320.953 100.316C320.953 102.444 319.431 103.938 317.373 103.938C315.301 103.938 313.779 102.444 313.779 100.316ZM315.118 100.316C315.118 101.753 316.034 102.754 317.373 102.754C318.698 102.754 319.628 101.753 319.628 100.316C319.628 98.8781 318.698 97.8773 317.373 97.8773C316.034 97.8773 315.118 98.8781 315.118 100.316ZM323.745 103.769H322.42V96.8765H323.604L323.731 97.7786C324.083 97.1302 324.816 96.6792 325.789 96.6792C326.86 96.6792 327.621 97.2148 327.973 98.0746C328.298 97.2148 329.129 96.6792 330.2 96.6792C331.779 96.6792 332.738 97.6659 332.738 99.2586V103.769H331.441V99.5828C331.441 98.4975 330.835 97.8773 329.904 97.8773C328.904 97.8773 328.241 98.5821 328.241 99.6815V103.769H326.93V99.5687C326.93 98.4834 326.338 97.8914 325.408 97.8914C324.407 97.8914 323.745 98.5821 323.745 99.6815V103.769ZM337.548 103.938C335.519 103.938 334.123 102.472 334.123 100.33C334.123 98.1733 335.49 96.6792 337.492 96.6792C339.451 96.6792 340.734 98.0323 340.734 100.076V100.569L335.406 100.584C335.505 102.035 336.266 102.839 337.577 102.839C338.606 102.839 339.282 102.416 339.508 101.627H340.748C340.41 103.107 339.254 103.938 337.548 103.938ZM337.492 97.7927C336.336 97.7927 335.603 98.4834 335.434 99.6956H339.409C339.409 98.5539 338.662 97.7927 337.492 97.7927ZM346.16 96.8202V98.0323H345.568C344.314 98.0323 343.539 98.7935 343.539 100.118V103.769H342.214V96.8906H343.454L343.539 97.9337C343.821 97.2148 344.511 96.7356 345.456 96.7356C345.695 96.7356 345.893 96.7638 346.16 96.8202ZM346.839 101.768H348.108C348.108 102.472 348.644 102.895 349.517 102.895C350.448 102.895 350.983 102.515 350.983 101.88C350.983 101.415 350.758 101.133 350.039 100.95L348.827 100.668C347.601 100.372 347.023 99.7661 347.023 98.7512C347.023 97.4826 348.094 96.6792 349.616 96.6792C351.124 96.6792 352.111 97.5249 352.139 98.8358H350.871C350.842 98.1451 350.377 97.7082 349.574 97.7082C348.742 97.7082 348.277 98.0746 348.277 98.7089C348.277 99.1741 348.615 99.4842 349.292 99.6533L350.504 99.9493C351.674 100.231 352.252 100.767 352.252 101.796C352.252 103.107 351.124 103.938 349.489 103.938C347.868 103.938 346.839 103.078 346.839 101.768ZM361.762 100.133H359.182V103.769H357.801V93.5782H361.762C363.763 93.5782 365.046 94.8891 365.046 96.8483C365.046 98.7512 363.749 100.133 361.762 100.133ZM361.522 94.8186H359.182V98.8922H361.466C362.833 98.8922 363.594 98.0887 363.594 96.8342C363.594 95.5516 362.819 94.8186 361.522 94.8186ZM369.042 103.938C367.013 103.938 365.617 102.472 365.617 100.33C365.617 98.1733 366.985 96.6792 368.986 96.6792C370.945 96.6792 372.228 98.0323 372.228 100.076V100.569L366.9 100.584C366.999 102.035 367.76 102.839 369.071 102.839C370.1 102.839 370.776 102.416 371.002 101.627H372.242C371.904 103.107 370.748 103.938 369.042 103.938ZM368.986 97.7927C367.83 97.7927 367.097 98.4834 366.928 99.6956H370.903C370.903 98.5539 370.156 97.7927 368.986 97.7927ZM377.655 96.8202V98.0323H377.063C375.808 98.0323 375.033 98.7935 375.033 100.118V103.769H373.708V96.8906H374.948L375.033 97.9337C375.315 97.2148 376.005 96.7356 376.95 96.7356C377.189 96.7356 377.387 96.7638 377.655 96.8202ZM380.25 103.769H378.925V93.395H380.25V100.118L383.309 96.8765H384.972L382.336 99.6251L384.958 103.769H383.436L381.42 100.584L380.25 101.81V103.769ZM385.532 101.768H386.801C386.801 102.472 387.337 102.895 388.211 102.895C389.141 102.895 389.676 102.515 389.676 101.88C389.676 101.415 389.451 101.133 388.732 100.95L387.52 100.668C386.294 100.372 385.716 99.7661 385.716 98.7512C385.716 97.4826 386.787 96.6792 388.309 96.6792C389.817 96.6792 390.804 97.5249 390.832 98.8358H389.564C389.535 98.1451 389.07 97.7082 388.267 97.7082C387.435 97.7082 386.97 98.0746 386.97 98.7089C386.97 99.1741 387.308 99.4842 387.985 99.6533L389.197 99.9493C390.367 100.231 390.945 100.767 390.945 101.796C390.945 103.107 389.817 103.938 388.182 103.938C386.561 103.938 385.532 103.078 385.532 101.768Z" fill="#757575"/>
<rect x="254.235" y="131.177" width="168.147" height="49.4872" rx="10.9864" fill="#F7F3CE" stroke="#EDB408" stroke-width="0.955344"/>
<g clip-path="url(#clip2_2154_11278)">
<path d="M298.37 152.506C298.173 151.913 297.63 151.491 296.989 151.435L288.273 150.666L284.827 142.832C284.573 142.258 283.994 141.886 283.351 141.886C282.708 141.886 282.129 142.258 281.875 142.833L278.429 150.666L269.712 151.435C269.071 151.492 268.53 151.913 268.331 152.506C268.133 153.1 268.316 153.752 268.801 154.162L275.389 159.773L273.446 168.084C273.304 168.695 273.548 169.327 274.07 169.693C274.351 169.89 274.679 169.991 275.01 169.991C275.296 169.991 275.579 169.916 275.833 169.768L283.351 165.404L290.866 169.768C291.416 170.089 292.109 170.06 292.63 169.693C293.153 169.326 293.396 168.694 293.254 168.084L291.312 159.773L297.9 154.163C298.384 153.752 298.569 153.101 298.37 152.506Z" fill="#FFC107"/>
</g>
<rect x="311.736" y="147.122" width="62.8089" height="7.03842" rx="3.51921" fill="#FFC107"/>
<rect x="311.736" y="158.853" width="76.0955" height="7.03842" rx="3.51921" fill="#FFC107"/>
<rect x="254.331" y="192.223" width="167.956" height="49.2961" rx="10.8909" fill="#F0F0F0" stroke="#D5D5D5" stroke-width="1.14641" stroke-dasharray="5.73 5.73"/>
<rect x="-7.53589" y="7.02087" width="477.672" height="33.437" fill="#EDB408"/>
<path d="M247.925 218.825C247.925 220.936 249.636 222.647 251.746 222.647C253.857 222.647 255.567 220.936 255.567 218.825C255.567 216.715 253.857 215.004 251.746 215.004C249.636 215.004 247.925 216.715 247.925 218.825ZM207.988 153.05C207.988 155.16 209.699 156.871 211.81 156.871C213.92 156.871 215.631 155.16 215.631 153.05C215.631 150.939 213.92 149.228 211.81 149.228C209.699 149.228 207.988 150.939 207.988 153.05ZM251.788 218.11C247.445 217.857 244.08 216.663 241.438 214.799C238.792 212.933 236.827 210.365 235.332 207.298C232.328 201.132 231.274 193.063 230.386 184.924C229.506 176.856 228.789 168.693 226.378 162.596C225.165 159.529 223.503 156.924 221.126 155.102C218.738 153.272 215.691 152.279 211.8 152.333L211.819 153.766C215.44 153.716 218.16 154.635 220.254 156.24C222.358 157.853 223.891 160.205 225.045 163.123C227.367 168.994 228.071 176.912 228.962 185.079C229.845 193.176 230.913 201.499 234.044 207.926C235.618 211.155 237.724 213.934 240.612 215.97C243.503 218.009 247.133 219.274 251.704 219.541L251.788 218.11Z" fill="url(#paint1_linear_2154_11278)"/>
<path d="M248.019 154.864C248.019 152.754 249.73 151.043 251.84 151.043C253.951 151.043 255.661 152.754 255.661 154.864C255.661 156.975 253.951 158.686 251.84 158.686C249.73 158.686 248.019 156.975 248.019 154.864ZM207.894 220.781C207.894 218.671 209.605 216.96 211.716 216.96C213.826 216.96 215.537 218.671 215.537 220.781C215.537 222.892 213.826 224.602 211.716 224.602C209.605 224.602 207.894 222.892 207.894 220.781ZM251.882 155.58C247.517 155.834 244.136 157.03 241.481 158.898C238.822 160.769 236.847 163.342 235.346 166.416C232.327 172.595 231.268 180.681 230.376 188.839C229.492 196.924 228.772 205.104 226.349 211.215C225.13 214.288 223.461 216.898 221.073 218.723C218.675 220.556 215.614 221.551 211.706 221.498L211.725 220.065C215.365 220.115 218.098 219.193 220.203 217.585C222.317 215.968 223.858 213.61 225.017 210.686C227.35 204.802 228.057 196.868 228.952 188.683C229.839 180.569 230.912 172.228 234.058 165.787C235.639 162.551 237.755 159.767 240.656 157.726C243.56 155.683 247.207 154.416 251.798 154.149L251.882 155.58Z" fill="url(#paint2_linear_2154_11278)"/>
</g>
</g>
<defs>
<filter id="filter0_d_2154_11278" x="0.380995" y="0.349177" width="462.794" height="292.476" filterUnits="userSpaceOnUse" color-interpolation-filters="sRGB">
<feFlood flood-opacity="0" result="BackgroundImageFix"/>
<feColorMatrix in="SourceAlpha" type="matrix" values="0 0 0 0 0 0 0 0 0 0 0 0 0 0 0 0 0 0 127 0" result="hardAlpha"/>
<feOffset dy="1.1746"/>
<feGaussianBlur stdDeviation="8.22222"/>
<feComposite in2="hardAlpha" operator="out"/>
<feColorMatrix type="matrix" values="0 0 0 0 0 0 0 0 0 0 0 0 0 0 0 0 0 0 0.1 0"/>
<feBlend mode="normal" in2="BackgroundImageFix" result="effect1_dropShadow_2154_11278"/>
<feBlend mode="normal" in="SourceGraphic" in2="effect1_dropShadow_2154_11278" result="shape"/>
</filter>
<linearGradient id="paint0_linear_2154_11278" x1="231.778" y1="15.619" x2="231.778" y2="275.206" gradientUnits="userSpaceOnUse">
<stop stop-color="white"/>
<stop offset="1" stop-color="white"/>
</linearGradient>
<linearGradient id="paint1_linear_2154_11278" x1="231.778" y1="153.048" x2="231.778" y2="218.825" gradientUnits="userSpaceOnUse">
<stop stop-color="#FFC107"/>
<stop offset="1" stop-color="#F79400"/>
</linearGradient>
<linearGradient id="paint2_linear_2154_11278" x1="231.778" y1="220.783" x2="231.778" y2="154.864" gradientUnits="userSpaceOnUse">
<stop stop-color="#FFC107"/>
<stop offset="1" stop-color="#F79400"/>
</linearGradient>
<clipPath id="clip0_2154_11278">
<rect x="16.8254" y="15.619" width="429.905" height="259.587" rx="28.6603" fill="white"/>
</clipPath>
<clipPath id="clip1_2154_11278">
<rect width="30.1966" height="29.3267" fill="white" transform="translate(54.2485 202.208)"/>
</clipPath>
<clipPath id="clip2_2154_11278">
<rect width="30.1966" height="29.3267" fill="white" transform="translate(268.252 141.257)"/>
</clipPath>
</defs>
</svg>
