<svg width="186" height="119" viewBox="0 0 186 119" fill="none" xmlns="http://www.w3.org/2000/svg">
    <g filter="url(#filter0_d_2224_10115)">
        <g clip-path="url(#clip0_2224_10115)">
            <rect x="7" y="7" width="172.27" height="104.021" rx="11.4847" fill="url(#paint0_linear_2224_10115)" />
            <path
                d="M31.924 29.8326C31.8562 29.8326 31.683 30.2393 31.2951 31.2748C31.0579 31.9036 30.847 32.4835 30.7378 32.7094C30.6475 32.8751 30.5044 33.0031 30.3086 33.0031C30.2107 33.0031 30.1241 32.9127 30.0751 32.8073C29.9734 32.5889 29.2091 30.6723 28.9078 29.9644C28.8589 29.8514 28.8287 29.7949 28.7986 29.7949C28.7685 29.7949 28.7534 29.8439 28.7459 29.923C28.7308 30.0585 28.6969 31.1806 28.6969 31.399C28.6969 31.7906 28.7384 32.1333 28.7986 32.2651C28.9379 32.5362 29.145 32.54 29.145 32.7621C29.145 32.8939 29.0735 32.9843 28.8739 32.9843C28.6292 32.9843 28.4823 32.9655 28.3468 32.9655C28.1773 32.9655 27.9777 32.9843 27.7292 32.9843C27.5522 32.9843 27.4694 32.8977 27.4694 32.7659C27.4694 32.4835 27.8384 32.5475 27.9137 31.9751C27.9928 31.3425 28.0568 30.0397 28.0568 29.456C28.0568 29.2263 28.0493 29.0381 28.038 28.8988C27.9853 28.3038 27.62 28.3377 27.62 28.0478C27.62 27.9197 27.684 27.8256 27.8836 27.8256C28.0192 27.8256 28.3279 27.8444 28.5124 27.8444C28.9492 27.8444 29.0735 27.867 29.2053 27.9499C29.3446 28.0365 29.4726 28.2398 29.5442 28.3716C29.6609 28.5862 30.3914 30.3296 30.6136 30.8493C30.6286 30.8907 30.6475 30.917 30.6776 30.917C30.6964 30.917 30.719 30.9057 30.7454 30.853C30.8094 30.6873 31.4683 28.9967 31.7583 28.3565C31.8562 28.1494 31.9541 28.0214 32.067 27.9461C32.1913 27.8708 32.3909 27.8444 32.7787 27.8444C32.8954 27.8444 33.1515 27.8256 33.2871 27.8256C33.4716 27.8256 33.5393 27.9235 33.5393 28.0515C33.5393 28.3302 33.1967 28.3151 33.1251 28.8875C33.1063 29.0418 33.1025 29.2753 33.1025 29.4222C33.1025 30.2204 33.1892 31.4894 33.2569 31.9601C33.336 32.555 33.705 32.4835 33.705 32.7659C33.705 32.8977 33.6222 32.9843 33.4339 32.9843C33.1929 32.9843 32.8314 32.9655 32.6658 32.9655C32.4097 32.9655 32.1574 32.9843 31.9127 32.9843C31.7206 32.9843 31.6152 32.9052 31.6152 32.7772C31.6152 32.5249 31.9616 32.5362 32.0407 32.0956C32.052 32.0316 32.0557 31.9262 32.0557 31.7944C32.0557 31.4555 32.0256 30.6271 31.9729 29.9606C31.9616 29.8665 31.9353 29.8326 31.924 29.8326ZM37.374 30.1564C37.1556 30.7137 36.8619 31.5383 36.6284 32.0806C36.0335 33.4889 35.6118 34.6034 34.7269 34.6034C34.3164 34.6034 34.0001 34.3323 34.0001 33.9219C34.0001 33.5604 34.2411 33.2855 34.5235 33.2855C34.6629 33.2855 34.7495 33.3608 34.8172 33.4474C34.9151 33.5792 34.9867 33.7148 35.1185 33.7148C35.2578 33.7148 35.495 33.4135 35.495 33.1989C35.495 32.9429 34.934 31.7341 34.7269 31.2333C34.5612 30.8417 34.1733 29.8966 33.9587 29.7008C33.8495 29.5916 33.7516 29.5012 33.7516 29.3506C33.7516 29.2188 33.8345 29.1284 34.0001 29.1284C34.2185 29.1284 34.3842 29.1473 34.6101 29.1473C34.8172 29.1473 35.0771 29.1284 35.303 29.1284C35.4687 29.1284 35.5703 29.1736 35.5703 29.377C35.5703 29.5201 35.3632 29.6104 35.3632 29.8326C35.3632 29.9719 35.4423 30.2016 35.6795 30.7928C35.8942 31.3162 36.041 31.6927 36.0937 31.6927C36.1728 31.6927 36.3347 31.1995 36.523 30.612C36.6699 30.1865 36.6924 30.0359 36.6924 29.9418C36.6924 29.618 36.4025 29.5426 36.4025 29.3431C36.4025 29.2075 36.4966 29.1284 36.6209 29.1284C36.7866 29.1284 37.0351 29.1473 37.1857 29.1473C37.3589 29.1473 37.5171 29.1284 37.6376 29.1284C37.8108 29.1284 37.856 29.2188 37.856 29.3242C37.856 29.5954 37.6075 29.5389 37.374 30.1564ZM39.9452 30.4238C39.9452 29.0456 40.7623 27.7164 42.4078 27.7164C42.9877 27.7164 43.2588 27.8971 43.4961 27.8971C43.6655 27.8971 43.7747 27.8181 43.9253 27.8181C44.2153 27.8181 44.2228 28.108 44.3132 28.5561C44.4111 29.0644 44.4638 29.1887 44.4638 29.2941C44.4638 29.456 44.3696 29.5313 44.2604 29.5313C44.0609 29.5313 43.9592 29.3017 43.7935 29.0644C43.4471 28.5787 42.9915 28.3 42.5396 28.3C41.7075 28.3 41.2782 29.0795 41.2782 29.9757C41.2782 31.1354 41.907 32.073 42.9312 32.073C43.6391 32.073 44.0458 31.6212 44.2416 31.2522C44.3094 31.143 44.3659 31.0526 44.445 31.0526C44.5541 31.0526 44.5956 31.2032 44.5956 31.3275C44.5956 31.5722 44.5203 31.8509 44.3621 32.1069C44.0383 32.6303 43.368 33.0935 42.4154 33.0935C40.8263 33.0935 39.9452 31.8358 39.9452 30.4238ZM46.7488 29.6556C46.4212 29.6556 46.1238 29.938 46.1238 30.6873C46.1238 31.0375 46.1802 31.4856 46.3384 31.8283C46.5078 32.1822 46.7752 32.3517 47.0425 32.3517C47.389 32.3517 47.7128 32.0994 47.7128 31.4367C47.7128 31.0526 47.6111 30.5781 47.4567 30.243C47.2647 29.8514 47.0049 29.6556 46.7488 29.6556ZM44.9602 31.0865C44.9602 29.8928 45.7547 29.0682 46.8505 29.0682C47.8935 29.0682 48.8274 29.8175 48.8274 31.1543C48.8274 32.4157 47.9538 33.0408 46.8957 33.0408C45.7171 33.0408 44.9602 32.2199 44.9602 31.0865ZM52.891 29.6707C52.9814 29.6707 53.4031 29.0682 54.1374 29.0682C54.947 29.0682 55.3009 29.5954 55.3009 30.4991C55.3009 31.1204 55.2068 31.7718 55.2068 32.0354C55.2068 32.2048 55.2632 32.378 55.38 32.4722C55.5118 32.5814 55.6285 32.604 55.6285 32.7659C55.6285 32.8977 55.5344 32.9843 55.316 32.9843C55.1239 32.9843 54.9432 32.9655 54.7474 32.9655C54.4951 32.9655 54.416 32.9843 54.1788 32.9843C54.0206 32.9843 53.9642 32.8901 53.9642 32.7772C53.9642 32.6303 54.0206 32.491 54.0508 32.4082C54.1223 32.1935 54.2014 31.5007 54.2014 30.8304C54.2014 30.1414 53.9717 29.8251 53.5839 29.8251C53.3316 29.8251 52.955 30.0623 52.955 30.5781C52.955 31.1995 52.9287 31.7718 52.9287 32.0354C52.9287 32.2048 52.955 32.3743 53.0642 32.4722C53.1885 32.5814 53.2901 32.604 53.2901 32.7659C53.2901 32.8977 53.1998 32.9843 52.9814 32.9843C52.7856 32.9843 52.65 32.9655 52.458 32.9655C52.2057 32.9655 52.1266 32.9843 51.8894 32.9843C51.7312 32.9843 51.6748 32.8901 51.6748 32.7772C51.6748 32.6303 51.7312 32.491 51.7614 32.4082C51.8329 32.1935 51.8969 31.5007 51.8969 30.8304C51.8969 30.1414 51.6748 29.8251 51.2869 29.8251C51.0158 29.8251 50.6506 30.1225 50.6506 30.5292V31.93C50.6506 32.2274 50.6807 32.3404 50.7861 32.4571C50.8878 32.5701 51.0083 32.5964 51.0083 32.7659C51.0083 32.8939 50.9367 32.9843 50.7221 32.9843C50.515 32.9843 50.3305 32.9655 50.1385 32.9655C49.8975 32.9655 49.6753 32.9843 49.4117 32.9843C49.2347 32.9843 49.1745 32.8901 49.1745 32.7772C49.1745 32.6153 49.31 32.5324 49.3778 32.4609C49.5548 32.2651 49.5812 32.0693 49.5812 31.8772V30.2506C49.5812 30.0322 49.4569 29.9456 49.3515 29.8966C49.2837 29.8589 49.1971 29.81 49.1971 29.6933C49.1971 29.5012 49.4381 29.4673 49.728 29.3431C50.097 29.1736 50.1836 29.0908 50.3117 29.0908C50.451 29.0908 50.5338 29.151 50.579 29.3431C50.6129 29.4899 50.6317 29.6443 50.6882 29.6443C50.771 29.6443 51.1928 29.0682 51.8404 29.0682C52.2245 29.0682 52.522 29.2113 52.7216 29.4899C52.8082 29.5991 52.8421 29.6707 52.891 29.6707ZM58.0681 29.8138C57.7028 29.8138 57.3451 30.1978 57.3451 31.0413C57.3451 32.1785 57.6614 32.4006 58.0266 32.4006C58.4069 32.4006 58.7835 32.0391 58.7835 31.0978C58.7835 30.1752 58.471 29.8138 58.0681 29.8138ZM59.9545 30.9359C59.9545 32.2199 59.1826 33.0408 58.2149 33.0408C57.6915 33.0408 57.5108 32.7847 57.4317 32.7847C57.3827 32.7847 57.3639 32.8374 57.3639 32.9918V33.4663C57.3639 33.7863 57.5108 33.8729 57.6576 33.9821C57.7819 34.0687 57.94 34.1252 57.94 34.2947C57.94 34.4265 57.8685 34.5131 57.6501 34.5131C57.458 34.5131 57.074 34.4942 56.8631 34.4942C56.6071 34.4942 56.3698 34.5131 56.0987 34.5131C55.9142 34.5131 55.854 34.4189 55.854 34.3097C55.854 34.144 55.9933 34.0612 56.0648 33.9897C56.2493 33.7939 56.2757 33.6018 56.2757 33.406V30.2506C56.2757 30.0284 56.1364 29.9418 56.0234 29.8928C55.9443 29.8439 55.8766 29.7949 55.8766 29.6933C55.8766 29.5012 56.11 29.4673 56.3999 29.3431C56.769 29.1736 56.8706 29.0908 57.0062 29.0908C57.1455 29.0908 57.2246 29.151 57.2773 29.3431C57.3074 29.4899 57.33 29.6443 57.3903 29.6443C57.4769 29.6443 57.7856 29.0682 58.5274 29.0682C59.4462 29.0682 59.9545 29.8476 59.9545 30.9359ZM62.6134 31.5233C62.6134 31.2785 62.587 31.222 62.5456 31.222C62.3272 31.222 62.1314 31.2522 61.9544 31.3162C61.6344 31.4291 61.4536 31.6588 61.4536 31.9111C61.4536 32.1634 61.6344 32.3329 61.9092 32.3329C62.3498 32.3329 62.6134 31.9864 62.6134 31.5233ZM61.4235 30.9208C61.8942 30.7702 62.41 30.7401 62.5155 30.661C62.5607 30.6271 62.6058 30.548 62.6058 30.2995C62.6058 29.8853 62.4251 29.5652 62.0297 29.5652C61.6984 29.5652 61.5214 29.8288 61.4235 30.1941C61.367 30.3974 61.2804 30.5443 61.0319 30.5443C60.7758 30.5443 60.5273 30.3635 60.5273 29.9983C60.5273 29.5464 61.0733 29.0644 62.0373 29.0644C62.9749 29.0644 63.7091 29.5238 63.7091 30.5706C63.7091 31.0526 63.6677 31.5195 63.6677 31.9036C63.6677 32.0504 63.7167 32.2161 63.8861 32.2161C63.9652 32.2161 64.0028 32.1898 64.0593 32.1898C64.1007 32.1898 64.1346 32.2463 64.1346 32.3329C64.1346 32.7282 63.7844 33.0295 63.3514 33.0295C62.9975 33.0295 62.7866 32.9014 62.6661 32.6567C62.651 32.6228 62.6284 32.5889 62.5983 32.5889C62.5682 32.5889 62.5381 32.6303 62.5079 32.6605C62.2707 32.8826 61.8753 33.0558 61.4762 33.0558C60.8398 33.0558 60.3466 32.7282 60.3466 32.1107C60.3466 31.5157 60.7645 31.143 61.4235 30.9208ZM68.4082 30.4991C68.4082 31.1204 68.3028 31.7718 68.3028 32.0354C68.3028 32.2048 68.363 32.3743 68.4873 32.4722C68.6266 32.5776 68.7433 32.604 68.7433 32.7659C68.7433 32.8977 68.653 32.9843 68.4308 32.9843C68.2312 32.9843 68.058 32.9655 67.8434 32.9655C67.5911 32.9655 67.4857 32.9843 67.2484 32.9843C67.0865 32.9843 67.0263 32.8901 67.0263 32.7772C67.0263 32.6303 67.0941 32.491 67.1204 32.4082C67.1957 32.1935 67.2786 31.5007 67.2786 30.8304C67.2786 30.1414 67.0413 29.8251 66.6158 29.8251C66.2995 29.8251 65.9117 30.1225 65.9117 30.5292V31.93C65.9117 32.2274 65.9456 32.3404 66.0585 32.4571C66.1677 32.5701 66.2958 32.5964 66.2958 32.7659C66.2958 32.8939 66.2242 32.9843 66.0021 32.9843C65.7874 32.9843 65.5841 32.9655 65.3845 32.9655C65.136 32.9655 64.9214 32.9843 64.6503 32.9843C64.4658 32.9843 64.4055 32.8901 64.4055 32.7772C64.4055 32.6153 64.5448 32.5324 64.6164 32.4609C64.8009 32.2651 64.8235 32.0693 64.8235 31.8772V30.2506C64.8235 30.0322 64.6879 29.9418 64.575 29.8928C64.4959 29.8439 64.4281 29.7949 64.4281 29.6933C64.4281 29.5012 64.6616 29.4673 64.9477 29.3431C65.3205 29.1736 65.4222 29.0908 65.554 29.0908C65.6933 29.0908 65.7724 29.151 65.8251 29.3431C65.8552 29.4899 65.8778 29.6443 65.9418 29.6443C66.0247 29.6443 66.4765 29.0682 67.1882 29.0682C68.0166 29.0682 68.4082 29.5954 68.4082 30.4991ZM72.4178 30.1564C72.1994 30.7137 71.9057 31.5383 71.6723 32.0806C71.0773 33.4889 70.6556 34.6034 69.7707 34.6034C69.3603 34.6034 69.044 34.3323 69.044 33.9219C69.044 33.5604 69.285 33.2855 69.5674 33.2855C69.7067 33.2855 69.7933 33.3608 69.8611 33.4474C69.959 33.5792 70.0305 33.7148 70.1623 33.7148C70.3016 33.7148 70.5389 33.4135 70.5389 33.1989C70.5389 32.9429 69.9778 31.7341 69.7707 31.2333C69.605 30.8417 69.2172 29.8966 69.0025 29.7008C68.8933 29.5916 68.7954 29.5012 68.7954 29.3506C68.7954 29.2188 68.8783 29.1284 69.044 29.1284C69.2624 29.1284 69.428 29.1473 69.654 29.1473C69.8611 29.1473 70.1209 29.1284 70.3468 29.1284C70.5125 29.1284 70.6142 29.1736 70.6142 29.377C70.6142 29.5201 70.4071 29.6104 70.4071 29.8326C70.4071 29.9719 70.4861 30.2016 70.7234 30.7928C70.938 31.3162 71.0849 31.6927 71.1376 31.6927C71.2166 31.6927 71.3786 31.1995 71.5668 30.612C71.7137 30.1865 71.7363 30.0359 71.7363 29.9418C71.7363 29.618 71.4463 29.5426 71.4463 29.3431C71.4463 29.2075 71.5405 29.1284 71.6647 29.1284C71.8304 29.1284 72.0789 29.1473 72.2296 29.1473C72.4028 29.1473 72.5609 29.1284 72.6814 29.1284C72.8546 29.1284 72.8998 29.2188 72.8998 29.3242C72.8998 29.5954 72.6513 29.5389 72.4178 30.1564Z"
                fill="black" />
            <path
                d="M45.1487 41.0395H44.1151V42.4967H43.5616V38.4131H45.1487C45.5478 38.4131 45.866 38.5336 46.1033 38.7745C46.3442 39.0118 46.4647 39.3281 46.4647 39.7234C46.4647 40.1075 46.3442 40.4238 46.1033 40.6723C45.8623 40.9171 45.5441 41.0395 45.1487 41.0395ZM45.0527 38.9101H44.1151V40.5424H45.0301C45.3012 40.5424 45.5102 40.469 45.657 40.3221C45.8077 40.1753 45.883 39.9738 45.883 39.7178C45.883 39.4617 45.8095 39.2641 45.6627 39.1247C45.5158 38.9816 45.3125 38.9101 45.0527 38.9101ZM48.0662 42.5645C47.6596 42.5645 47.3282 42.4308 47.0721 42.1635C46.8199 41.8961 46.6937 41.5478 46.6937 41.1185C46.6937 40.6855 46.818 40.3334 47.0665 40.0623C47.3188 39.7912 47.6445 39.6557 48.0436 39.6557C48.4352 39.6557 48.7497 39.7799 48.9869 40.0284C49.2241 40.277 49.3427 40.6064 49.3427 41.0169V41.2146L47.2077 41.2202C47.2265 41.5102 47.3094 41.7342 47.4562 41.8923C47.6068 42.0467 47.8139 42.1239 48.0775 42.1239C48.4993 42.1239 48.7572 41.962 48.8513 41.6382H49.3484C49.2806 41.9356 49.1356 42.1653 48.9135 42.3273C48.6913 42.4854 48.4089 42.5645 48.0662 42.5645ZM48.0436 40.1019C47.8139 40.1019 47.6275 40.1678 47.4845 40.2996C47.3414 40.4313 47.2529 40.6196 47.219 40.8644H48.8118C48.8118 40.6347 48.7421 40.4502 48.6028 40.3109C48.4635 40.1715 48.2771 40.1019 48.0436 40.1019ZM51.5172 39.7121V40.1979H51.28C51.0277 40.1979 50.8281 40.2713 50.6813 40.4182C50.5382 40.565 50.4667 40.7702 50.4667 41.0338V42.4967H49.9357V39.7404H50.4328L50.4667 40.1583C50.5231 40.0115 50.6192 39.8948 50.7547 39.8082C50.8903 39.7216 51.0503 39.6783 51.2348 39.6783C51.3177 39.6783 51.4118 39.6895 51.5172 39.7121ZM52.5574 42.4967H52.0265V38.3396H52.5574V41.0338L53.7831 39.7347H54.4496L53.3934 40.8361L54.4439 42.4967H53.8339L53.0262 41.2202L52.5574 41.7116V42.4967ZM54.674 41.6947H55.1824C55.1824 41.834 55.2313 41.9451 55.3292 42.0279C55.4309 42.107 55.5702 42.1465 55.7472 42.1465C55.9317 42.1465 56.0748 42.1107 56.1765 42.0392C56.2819 41.9677 56.3346 41.8679 56.3346 41.7398C56.3346 41.6419 56.3064 41.5648 56.2499 41.5083C56.1934 41.448 56.0955 41.401 55.9562 41.3671L55.4704 41.2541C54.9885 41.1374 54.7475 40.8813 54.7475 40.4859C54.7475 40.2337 54.8435 40.0322 55.0355 39.8816C55.2276 39.731 55.478 39.6557 55.7867 39.6557C56.088 39.6557 56.329 39.7347 56.5097 39.8929C56.6942 40.0473 56.7902 40.2563 56.7978 40.5198H56.2894C56.2819 40.3805 56.2329 40.2713 56.1426 40.1922C56.0522 40.1094 55.9279 40.068 55.7698 40.068C55.6041 40.068 55.4761 40.1038 55.3857 40.1753C55.2953 40.2431 55.2502 40.341 55.2502 40.469C55.2502 40.6535 55.3857 40.7797 55.6568 40.8474L56.1426 40.966C56.3836 41.0225 56.5605 41.1091 56.6735 41.2259C56.7865 41.3426 56.8429 41.5026 56.8429 41.706C56.8429 41.9658 56.7413 42.1748 56.5379 42.3329C56.3346 42.4873 56.0673 42.5645 55.7359 42.5645C55.4121 42.5645 55.1541 42.4854 54.9621 42.3273C54.7701 42.1691 54.674 41.9582 54.674 41.6947Z"
                fill="#757575" />
            <rect x="16.4174" y="53.3442" width="67.3029" height="19.7538" rx="4.36416" fill="#F0F0F0" stroke="#D5D5D5"
                stroke-width="0.459385" stroke-dasharray="2.3 2.3" />
            <rect x="16.3792" y="77.7301" width="67.3795" height="19.8303" rx="4.40244" fill="#F7F3CE" stroke="#EDB408"
                stroke-width="0.382822" />
            <g clip-path="url(#clip1_2224_10115)">
                <path
                    d="M34.0648 86.2772C33.9856 86.0393 33.7683 85.8703 33.5112 85.8478L30.0187 85.5398L28.6377 82.4005C28.5359 82.1704 28.304 82.0215 28.0463 82.0215C27.7886 82.0215 27.5567 82.1704 27.4549 82.401L26.0739 85.5398L22.5808 85.8478C22.3242 85.8708 22.1074 86.0393 22.0278 86.2772C21.9481 86.5152 22.0217 86.7762 22.2158 86.9407L24.8557 89.1892L24.0773 92.5195C24.0203 92.7644 24.1182 93.0175 24.3274 93.1643C24.4398 93.2433 24.5714 93.2834 24.704 93.2834C24.8184 93.2834 24.9319 93.2535 25.0337 93.1943L28.0463 91.4456L31.0578 93.1943C31.2782 93.323 31.5559 93.3113 31.7647 93.1643C31.974 93.017 32.0717 92.7638 32.0148 92.5195L31.2363 89.1892L33.8762 86.9412C34.0704 86.7762 34.1445 86.5156 34.0648 86.2772Z"
                    fill="#FFC107" />
            </g>
            <rect x="39.4207" y="84.1196" width="25.1686" height="2.82041" rx="1.41021" fill="#FFC107" />
            <rect x="39.4207" y="88.8206" width="30.4927" height="2.82041" rx="1.41021" fill="#FFC107" />
            <path
                d="M107.612 28.3829C107.145 28.3829 106.663 28.8423 106.663 29.9681C106.663 30.4802 106.749 31.0752 106.975 31.576C107.235 32.1145 107.649 32.3517 108.022 32.3517C108.561 32.3517 109.035 31.9525 109.035 30.966C109.035 30.4087 108.896 29.7384 108.666 29.2602C108.417 28.7142 108.015 28.3829 107.612 28.3829ZM105.254 30.4464C105.254 28.8347 106.279 27.7202 107.777 27.7202C109.163 27.7202 110.349 28.7255 110.349 30.5292C110.349 32.235 109.231 33.0935 107.83 33.0935C106.218 33.0935 105.254 31.9864 105.254 30.4464ZM112.228 29.9568C112.213 30.1112 112.194 30.9509 112.194 31.3425C112.194 31.7718 112.307 32.1634 112.721 32.1634C112.928 32.1634 113.071 32.0429 113.166 31.9638C113.211 31.9187 113.241 31.8961 113.282 31.8961C113.339 31.8961 113.395 31.9375 113.395 32.0768C113.395 32.1559 113.369 32.2575 113.316 32.3592C113.173 32.6529 112.8 33.0408 112.149 33.0408C111.407 33.0408 111.083 32.54 111.083 31.6777C111.083 31.335 111.132 30.533 111.132 30.0999C111.132 29.9456 111.091 29.8665 110.966 29.8439C110.733 29.8175 110.59 29.7799 110.59 29.633C110.59 29.5012 110.624 29.3732 110.767 29.3017C111.015 29.1774 111.264 29.0155 111.445 28.8347C111.746 28.5222 111.787 28.1607 112.021 28.1607C112.156 28.1607 112.262 28.2662 112.262 28.4958C112.262 28.654 112.224 29.1699 112.224 29.2038C112.224 29.2226 112.228 29.2339 112.258 29.2339C112.333 29.2339 112.909 29.2 113.007 29.2C113.177 29.2 113.278 29.2489 113.278 29.456C113.278 29.5916 113.203 29.7799 113.124 29.8665C113.101 29.8891 113.049 29.9154 112.977 29.9154C112.894 29.9154 112.405 29.8853 112.292 29.8853C112.269 29.8853 112.232 29.8928 112.228 29.9568ZM114.041 31.8772V28.5937C114.041 28.4055 113.909 28.3076 113.797 28.2549C113.717 28.2097 113.642 28.1607 113.642 28.0591C113.642 27.8783 113.876 27.8444 114.166 27.7239C114.535 27.5771 114.757 27.4302 114.922 27.4302C115.069 27.4302 115.163 27.5055 115.163 27.6787C115.163 27.8858 115.084 28.4845 115.084 29.5163C115.084 29.6405 115.114 29.6669 115.145 29.6669C115.227 29.6669 115.66 29.0682 116.406 29.0682C117.234 29.0682 117.622 29.5954 117.622 30.4991C117.622 31.1204 117.521 31.7718 117.521 32.0354C117.521 32.2048 117.581 32.3743 117.701 32.4722C117.844 32.5776 117.961 32.604 117.961 32.7659C117.961 32.8977 117.867 32.9843 117.645 32.9843C117.449 32.9843 117.276 32.9655 117.061 32.9655C116.809 32.9655 116.703 32.9843 116.466 32.9843C116.304 32.9843 116.244 32.8901 116.244 32.7772C116.244 32.6303 116.308 32.491 116.338 32.4082C116.41 32.1935 116.496 31.5007 116.496 30.8304C116.496 30.1414 116.259 29.8251 115.83 29.8251C115.517 29.8251 115.129 30.1225 115.129 30.5292V31.93C115.129 32.2274 115.163 32.3404 115.276 32.4571C115.386 32.5701 115.514 32.5964 115.514 32.7659C115.514 32.8939 115.442 32.9843 115.22 32.9843C115.005 32.9843 114.813 32.9655 114.599 32.9655C114.343 32.9655 114.184 32.9843 113.864 32.9843C113.68 32.9843 113.62 32.8901 113.62 32.7772C113.62 32.6153 113.763 32.5324 113.83 32.4609C114.019 32.2651 114.041 32.0693 114.041 31.8772ZM120.726 30.2581C120.726 29.9079 120.485 29.6443 120.157 29.6443C119.709 29.6443 119.4 30.0999 119.4 30.5669C119.4 30.7062 119.445 30.789 119.547 30.789C119.784 30.789 120.394 30.6873 120.628 30.4802C120.692 30.42 120.726 30.3522 120.726 30.2581ZM121.43 30.9359C120.997 31.1806 120.101 31.2748 119.637 31.3011C119.566 31.3049 119.54 31.3199 119.54 31.3727C119.54 31.6513 119.811 32.1672 120.504 32.1672C121.038 32.1672 121.358 31.9074 121.55 31.6588C121.599 31.6099 121.656 31.576 121.701 31.576C121.769 31.576 121.814 31.6438 121.814 31.7906C121.814 32.2839 121.234 33.0483 120.165 33.0483C119.005 33.0483 118.293 32.2613 118.293 31.1467C118.293 30.0284 119.08 29.0682 120.266 29.0682C121.298 29.0682 121.75 29.8288 121.75 30.4313C121.75 30.6873 121.622 30.8342 121.43 30.9359ZM124.188 29.938C123.887 29.938 123.657 30.3334 123.657 30.6986V31.881C123.657 32.1785 123.717 32.3027 123.928 32.4609C124.052 32.555 124.267 32.5927 124.267 32.7659C124.267 32.8939 124.199 32.9843 123.977 32.9843C123.759 32.9843 123.502 32.9655 123.13 32.9655C122.874 32.9655 122.715 32.9843 122.395 32.9843C122.211 32.9843 122.151 32.8901 122.151 32.7772C122.151 32.6153 122.29 32.5324 122.362 32.4609C122.546 32.2651 122.569 32.0693 122.569 31.8772V30.2506C122.569 30.0322 122.433 29.9418 122.32 29.8928C122.241 29.8439 122.173 29.7949 122.173 29.6933C122.173 29.5012 122.407 29.4673 122.693 29.3431C123.066 29.1736 123.167 29.0908 123.299 29.0908C123.438 29.0908 123.518 29.151 123.57 29.3431C123.6 29.4899 123.623 29.6443 123.687 29.6443C123.77 29.6443 124.131 29.0682 124.738 29.0682C125.107 29.0682 125.457 29.2866 125.457 29.8853C125.457 30.2995 125.156 30.7212 124.783 30.7212C124.534 30.7212 124.523 30.5669 124.466 30.307C124.417 30.0698 124.32 29.938 124.188 29.938ZM127.586 30.4238C127.586 29.0456 128.403 27.7164 130.049 27.7164C130.629 27.7164 130.9 27.8971 131.137 27.8971C131.306 27.8971 131.416 27.8181 131.566 27.8181C131.856 27.8181 131.864 28.108 131.954 28.5561C132.052 29.0644 132.105 29.1887 132.105 29.2941C132.105 29.456 132.011 29.5313 131.901 29.5313C131.702 29.5313 131.6 29.3017 131.434 29.0644C131.088 28.5787 130.632 28.3 130.181 28.3C129.348 28.3 128.919 29.0795 128.919 29.9757C128.919 31.1354 129.548 32.073 130.572 32.073C131.28 32.073 131.687 31.6212 131.883 31.2522C131.95 31.143 132.007 31.0526 132.086 31.0526C132.195 31.0526 132.236 31.2032 132.236 31.3275C132.236 31.5722 132.161 31.8509 132.003 32.1069C131.679 32.6303 131.009 33.0935 130.056 33.0935C128.467 33.0935 127.586 31.8358 127.586 30.4238ZM134.39 29.6556C134.062 29.6556 133.765 29.938 133.765 30.6873C133.765 31.0375 133.821 31.4856 133.979 31.8283C134.149 32.1822 134.416 32.3517 134.683 32.3517C135.03 32.3517 135.354 32.0994 135.354 31.4367C135.354 31.0526 135.252 30.5781 135.098 30.243C134.906 29.8514 134.646 29.6556 134.39 29.6556ZM132.601 31.0865C132.601 29.8928 133.396 29.0682 134.491 29.0682C135.534 29.0682 136.468 29.8175 136.468 31.1543C136.468 32.4157 135.595 33.0408 134.537 33.0408C133.358 33.0408 132.601 32.2199 132.601 31.0865ZM140.532 29.6707C140.622 29.6707 141.044 29.0682 141.778 29.0682C142.588 29.0682 142.942 29.5954 142.942 30.4991C142.942 31.1204 142.848 31.7718 142.848 32.0354C142.848 32.2048 142.904 32.378 143.021 32.4722C143.153 32.5814 143.269 32.604 143.269 32.7659C143.269 32.8977 143.175 32.9843 142.957 32.9843C142.765 32.9843 142.584 32.9655 142.388 32.9655C142.136 32.9655 142.057 32.9843 141.82 32.9843C141.662 32.9843 141.605 32.8901 141.605 32.7772C141.605 32.6303 141.662 32.491 141.692 32.4082C141.763 32.1935 141.842 31.5007 141.842 30.8304C141.842 30.1414 141.613 29.8251 141.225 29.8251C140.972 29.8251 140.596 30.0623 140.596 30.5781C140.596 31.1995 140.57 31.7718 140.57 32.0354C140.57 32.2048 140.596 32.3743 140.705 32.4722C140.829 32.5814 140.931 32.604 140.931 32.7659C140.931 32.8977 140.841 32.9843 140.622 32.9843C140.426 32.9843 140.291 32.9655 140.099 32.9655C139.847 32.9655 139.768 32.9843 139.53 32.9843C139.372 32.9843 139.316 32.8901 139.316 32.7772C139.316 32.6303 139.372 32.491 139.402 32.4082C139.474 32.1935 139.538 31.5007 139.538 30.8304C139.538 30.1414 139.316 29.8251 138.928 29.8251C138.657 29.8251 138.291 30.1225 138.291 30.5292V31.93C138.291 32.2274 138.322 32.3404 138.427 32.4571C138.529 32.5701 138.649 32.5964 138.649 32.7659C138.649 32.8939 138.578 32.9843 138.363 32.9843C138.156 32.9843 137.971 32.9655 137.779 32.9655C137.538 32.9655 137.316 32.9843 137.053 32.9843C136.876 32.9843 136.815 32.8901 136.815 32.7772C136.815 32.6153 136.951 32.5324 137.019 32.4609C137.196 32.2651 137.222 32.0693 137.222 31.8772V30.2506C137.222 30.0322 137.098 29.9456 136.992 29.8966C136.925 29.8589 136.838 29.81 136.838 29.6933C136.838 29.5012 137.079 29.4673 137.369 29.3431C137.738 29.1736 137.825 29.0908 137.953 29.0908C138.092 29.0908 138.175 29.151 138.22 29.3431C138.254 29.4899 138.273 29.6443 138.329 29.6443C138.412 29.6443 138.834 29.0682 139.481 29.0682C139.865 29.0682 140.163 29.2113 140.362 29.4899C140.449 29.5991 140.483 29.6707 140.532 29.6707ZM145.709 29.8138C145.344 29.8138 144.986 30.1978 144.986 31.0413C144.986 32.1785 145.302 32.4006 145.668 32.4006C146.048 32.4006 146.424 32.0391 146.424 31.0978C146.424 30.1752 146.112 29.8138 145.709 29.8138ZM147.595 30.9359C147.595 32.2199 146.824 33.0408 145.856 33.0408C145.332 33.0408 145.152 32.7847 145.073 32.7847C145.024 32.7847 145.005 32.8374 145.005 32.9918V33.4663C145.005 33.7863 145.152 33.8729 145.299 33.9821C145.423 34.0687 145.581 34.1252 145.581 34.2947C145.581 34.4265 145.509 34.5131 145.291 34.5131C145.099 34.5131 144.715 34.4942 144.504 34.4942C144.248 34.4942 144.011 34.5131 143.74 34.5131C143.555 34.5131 143.495 34.4189 143.495 34.3097C143.495 34.144 143.634 34.0612 143.706 33.9897C143.89 33.7939 143.917 33.6018 143.917 33.406V30.2506C143.917 30.0284 143.777 29.9418 143.664 29.8928C143.585 29.8439 143.517 29.7949 143.517 29.6933C143.517 29.5012 143.751 29.4673 144.041 29.3431C144.41 29.1736 144.512 29.0908 144.647 29.0908C144.786 29.0908 144.865 29.151 144.918 29.3431C144.948 29.4899 144.971 29.6443 145.031 29.6443C145.118 29.6443 145.427 29.0682 146.168 29.0682C147.087 29.0682 147.595 29.8476 147.595 30.9359ZM150.254 31.5233C150.254 31.2785 150.228 31.222 150.186 31.222C149.968 31.222 149.772 31.2522 149.595 31.3162C149.275 31.4291 149.095 31.6588 149.095 31.9111C149.095 32.1634 149.275 32.3329 149.55 32.3329C149.991 32.3329 150.254 31.9864 150.254 31.5233ZM149.064 30.9208C149.535 30.7702 150.051 30.7401 150.156 30.661C150.202 30.6271 150.247 30.548 150.247 30.2995C150.247 29.8853 150.066 29.5652 149.671 29.5652C149.339 29.5652 149.162 29.8288 149.064 30.1941C149.008 30.3974 148.921 30.5443 148.673 30.5443C148.417 30.5443 148.168 30.3635 148.168 29.9983C148.168 29.5464 148.714 29.0644 149.678 29.0644C150.616 29.0644 151.35 29.5238 151.35 30.5706C151.35 31.0526 151.309 31.5195 151.309 31.9036C151.309 32.0504 151.358 32.2161 151.527 32.2161C151.606 32.2161 151.644 32.1898 151.7 32.1898C151.742 32.1898 151.776 32.2463 151.776 32.3329C151.776 32.7282 151.425 33.0295 150.992 33.0295C150.638 33.0295 150.427 32.9014 150.307 32.6567C150.292 32.6228 150.269 32.5889 150.239 32.5889C150.209 32.5889 150.179 32.6303 150.149 32.6605C149.912 32.8826 149.516 33.0558 149.117 33.0558C148.481 33.0558 147.987 32.7282 147.987 32.1107C147.987 31.5157 148.405 31.143 149.064 30.9208ZM156.049 30.4991C156.049 31.1204 155.944 31.7718 155.944 32.0354C155.944 32.2048 156.004 32.3743 156.128 32.4722C156.267 32.5776 156.384 32.604 156.384 32.7659C156.384 32.8977 156.294 32.9843 156.072 32.9843C155.872 32.9843 155.699 32.9655 155.484 32.9655C155.232 32.9655 155.127 32.9843 154.889 32.9843C154.727 32.9843 154.667 32.8901 154.667 32.7772C154.667 32.6303 154.735 32.491 154.761 32.4082C154.837 32.1935 154.919 31.5007 154.919 30.8304C154.919 30.1414 154.682 29.8251 154.257 29.8251C153.94 29.8251 153.553 30.1225 153.553 30.5292V31.93C153.553 32.2274 153.586 32.3404 153.699 32.4571C153.809 32.5701 153.937 32.5964 153.937 32.7659C153.937 32.8939 153.865 32.9843 153.643 32.9843C153.428 32.9843 153.225 32.9655 153.025 32.9655C152.777 32.9655 152.562 32.9843 152.291 32.9843C152.107 32.9843 152.046 32.8901 152.046 32.7772C152.046 32.6153 152.186 32.5324 152.257 32.4609C152.442 32.2651 152.464 32.0693 152.464 31.8772V30.2506C152.464 30.0322 152.329 29.9418 152.216 29.8928C152.137 29.8439 152.069 29.7949 152.069 29.6933C152.069 29.5012 152.302 29.4673 152.589 29.3431C152.961 29.1736 153.063 29.0908 153.195 29.0908C153.334 29.0908 153.413 29.151 153.466 29.3431C153.496 29.4899 153.519 29.6443 153.583 29.6443C153.666 29.6443 154.117 29.0682 154.829 29.0682C155.657 29.0682 156.049 29.5954 156.049 30.4991ZM156.977 28.2963C156.977 27.8821 157.38 27.4603 157.813 27.4603C158.114 27.4603 158.351 27.6561 158.351 27.9649C158.351 28.3866 157.899 28.7293 157.451 28.7293C157.127 28.7293 156.977 28.5448 156.977 28.2963ZM158.242 29.3167C158.242 29.5426 158.204 29.9418 158.204 30.725V31.93C158.204 32.2274 158.265 32.3404 158.378 32.4571C158.487 32.5701 158.615 32.5964 158.615 32.7659C158.615 32.8939 158.543 32.9843 158.325 32.9843C158.106 32.9843 157.888 32.9655 157.673 32.9655C157.417 32.9655 157.259 32.9843 156.939 32.9843C156.755 32.9843 156.694 32.8901 156.694 32.7772C156.694 32.6153 156.837 32.5324 156.905 32.4609C157.094 32.2651 157.116 32.0693 157.116 31.8772V30.3598C157.116 30.1225 157.003 29.987 156.879 29.923C156.8 29.8702 156.709 29.8138 156.709 29.7046C156.709 29.5012 156.95 29.4824 157.24 29.3657C157.609 29.2188 157.869 29.0682 158.001 29.0682C158.159 29.0682 158.242 29.1435 158.242 29.3167ZM161.388 30.2581C161.388 29.9079 161.147 29.6443 160.82 29.6443C160.372 29.6443 160.063 30.0999 160.063 30.5669C160.063 30.7062 160.108 30.789 160.21 30.789C160.447 30.789 161.057 30.6873 161.29 30.4802C161.354 30.42 161.388 30.3522 161.388 30.2581ZM162.092 30.9359C161.659 31.1806 160.763 31.2748 160.3 31.3011C160.229 31.3049 160.202 31.3199 160.202 31.3727C160.202 31.6513 160.473 32.1672 161.166 32.1672C161.701 32.1672 162.021 31.9074 162.213 31.6588C162.262 31.6099 162.318 31.576 162.364 31.576C162.431 31.576 162.477 31.6438 162.477 31.7906C162.477 32.2839 161.897 33.0483 160.827 33.0483C159.667 33.0483 158.956 32.2613 158.956 31.1467C158.956 30.0284 159.743 29.0682 160.929 29.0682C161.961 29.0682 162.412 29.8288 162.412 30.4313C162.412 30.6873 162.284 30.8342 162.092 30.9359ZM164.466 29.0607C164.85 29.0607 165.396 29.136 165.611 29.3581C165.78 29.5313 165.829 29.7497 165.829 30.0472C165.829 30.2543 165.728 30.3673 165.6 30.3673C165.472 30.3673 165.378 30.2468 165.265 30.115C165.08 29.8966 164.824 29.6029 164.391 29.6029C164.086 29.6029 163.928 29.7723 163.928 29.9832C163.928 30.2844 164.229 30.3673 164.79 30.5631C165.396 30.7702 166.003 31.0338 166.003 31.8396C166.003 32.5814 165.347 33.0709 164.406 33.0709C163.984 33.0709 163.344 32.9466 163.069 32.6379C162.953 32.5174 162.87 32.2613 162.87 31.9375C162.87 31.7341 162.953 31.6099 163.107 31.6099C163.194 31.6099 163.269 31.689 163.352 31.7944C163.555 32.0467 163.853 32.4421 164.414 32.4421C164.715 32.4421 164.881 32.2801 164.881 32.0429C164.881 31.7003 164.455 31.6212 163.92 31.384C163.465 31.1806 162.96 30.9547 162.96 30.2581C162.96 29.5238 163.661 29.0607 164.466 29.0607Z"
                fill="black" />
            <path
                d="M130.712 41.0395H129.679V42.4967H129.125V38.4131H130.712C131.111 38.4131 131.43 38.5336 131.667 38.7745C131.908 39.0118 132.028 39.3281 132.028 39.7234C132.028 40.1075 131.908 40.4238 131.667 40.6723C131.426 40.9171 131.108 41.0395 130.712 41.0395ZM130.616 38.9101H129.679V40.5424H130.594C130.865 40.5424 131.074 40.469 131.221 40.3221C131.371 40.1753 131.446 39.9738 131.446 39.7178C131.446 39.4617 131.373 39.2641 131.226 39.1247C131.079 38.9816 130.876 38.9101 130.616 38.9101ZM133.63 42.5645C133.223 42.5645 132.892 42.4308 132.636 42.1635C132.383 41.8961 132.257 41.5478 132.257 41.1185C132.257 40.6855 132.381 40.3334 132.63 40.0623C132.882 39.7912 133.208 39.6557 133.607 39.6557C133.999 39.6557 134.313 39.7799 134.55 40.0284C134.788 40.277 134.906 40.6064 134.906 41.0169V41.2146L132.771 41.2202C132.79 41.5102 132.873 41.7342 133.02 41.8923C133.17 42.0467 133.377 42.1239 133.641 42.1239C134.063 42.1239 134.321 41.962 134.415 41.6382H134.912C134.844 41.9356 134.699 42.1653 134.477 42.3273C134.255 42.4854 133.972 42.5645 133.63 42.5645ZM133.607 40.1019C133.377 40.1019 133.191 40.1678 133.048 40.2996C132.905 40.4313 132.816 40.6196 132.782 40.8644H134.375C134.375 40.6347 134.306 40.4502 134.166 40.3109C134.027 40.1715 133.841 40.1019 133.607 40.1019ZM137.081 39.7121V40.1979H136.843C136.591 40.1979 136.392 40.2713 136.245 40.4182C136.102 40.565 136.03 40.7702 136.03 41.0338V42.4967H135.499V39.7404H135.996L136.03 40.1583C136.087 40.0115 136.183 39.8948 136.318 39.8082C136.454 39.7216 136.614 39.6783 136.798 39.6783C136.881 39.6783 136.975 39.6895 137.081 39.7121ZM138.121 42.4967H137.59V38.3396H138.121V41.0338L139.347 39.7347H140.013L138.957 40.8361L140.007 42.4967H139.397L138.59 41.2202L138.121 41.7116V42.4967ZM140.238 41.6947H140.746C140.746 41.834 140.795 41.9451 140.893 42.0279C140.994 42.107 141.134 42.1465 141.311 42.1465C141.495 42.1465 141.638 42.1107 141.74 42.0392C141.845 41.9677 141.898 41.8679 141.898 41.7398C141.898 41.6419 141.87 41.5648 141.813 41.5083C141.757 41.448 141.659 41.401 141.52 41.3671L141.034 41.2541C140.552 41.1374 140.311 40.8813 140.311 40.4859C140.311 40.2337 140.407 40.0322 140.599 39.8816C140.791 39.731 141.041 39.6557 141.35 39.6557C141.651 39.6557 141.892 39.7347 142.073 39.8929C142.258 40.0473 142.354 40.2563 142.361 40.5198H141.853C141.845 40.3805 141.796 40.2713 141.706 40.1922C141.616 40.1094 141.491 40.068 141.333 40.068C141.168 40.068 141.04 40.1038 140.949 40.1753C140.859 40.2431 140.814 40.341 140.814 40.469C140.814 40.6535 140.949 40.7797 141.22 40.8474L141.706 40.966C141.947 41.0225 142.124 41.1091 142.237 41.2259C142.35 41.3426 142.406 41.5026 142.406 41.706C142.406 41.9658 142.305 42.1748 142.101 42.3329C141.898 42.4873 141.631 42.5645 141.299 42.5645C140.976 42.5645 140.718 42.4854 140.526 42.3273C140.334 42.1691 140.238 41.9582 140.238 41.6947Z"
                fill="#757575" />
            <rect x="102.134" y="53.3059" width="67.3795" height="19.8303" rx="4.40244" fill="#F7F3CE" stroke="#EDB408"
                stroke-width="0.382822" />
            <g clip-path="url(#clip2_2224_10115)">
                <path
                    d="M119.82 61.853C119.741 61.6151 119.523 61.4461 119.266 61.4236L115.774 61.1156L114.393 57.9763C114.291 57.7462 114.059 57.5973 113.801 57.5973C113.544 57.5973 113.312 57.7462 113.21 57.9768L111.829 61.1156L108.336 61.4236C108.079 61.4466 107.862 61.6151 107.783 61.853C107.703 62.091 107.777 62.352 107.971 62.5165L110.611 64.765L109.832 68.0953C109.775 68.3402 109.873 68.5933 110.082 68.7402C110.195 68.8191 110.326 68.8592 110.459 68.8592C110.573 68.8592 110.687 68.8293 110.789 68.7701L113.801 67.0214L116.813 68.7701C117.033 68.8989 117.311 68.8871 117.52 68.7402C117.729 68.5928 117.827 68.3396 117.77 68.0953L116.991 64.765L119.631 62.517C119.825 62.352 119.899 62.0914 119.82 61.853Z"
                    fill="#FFC107" />
            </g>
            <rect x="125.176" y="59.6956" width="25.1686" height="2.82041" rx="1.41021" fill="#FFC107" />
            <rect x="125.176" y="64.3964" width="30.4927" height="2.82041" rx="1.41021" fill="#FFC107" />
            <rect x="102.172" y="77.7684" width="67.3029" height="19.7538" rx="4.36416" fill="#F0F0F0" stroke="#D5D5D5"
                stroke-width="0.459385" stroke-dasharray="2.3 2.3" />
            <rect x="-2.76196" y="3.55457" width="191.411" height="13.3988" fill="#EDB408" />
            <path
                d="M99.6052 88.4282C99.6052 89.2739 100.291 89.9595 101.137 89.9595C101.982 89.9595 102.668 89.2739 102.668 88.4282C102.668 87.5825 101.982 86.8969 101.137 86.8969C100.291 86.8969 99.6052 87.5825 99.6052 88.4282ZM83.602 62.0707C83.602 62.9164 84.2876 63.602 85.1333 63.602C85.979 63.602 86.6646 62.9164 86.6646 62.0707C86.6646 61.225 85.979 60.5394 85.1333 60.5394C84.2876 60.5394 83.602 61.225 83.602 62.0707ZM101.153 88.1416C99.4129 88.0401 98.0647 87.5618 97.0058 86.8149C95.9457 86.0672 95.1582 85.0381 94.5593 83.809C93.3554 81.3383 92.9331 78.105 92.5773 74.8433C92.2246 71.6102 91.9374 68.3393 90.9711 65.896C90.4851 64.6671 89.819 63.6234 88.8665 62.8934C87.9097 62.1601 86.6885 61.7621 85.1293 61.7836L85.1373 62.3578C86.5882 62.3377 87.6782 62.7061 88.5172 63.3491C89.3604 63.9954 89.9747 64.938 90.4371 66.1072C91.3676 68.46 91.6495 71.6326 92.0065 74.9056C92.3603 78.1499 92.7882 81.4851 94.0431 84.0606C94.6737 85.3546 95.5177 86.468 96.6749 87.2842C97.8332 88.1012 99.288 88.608 101.12 88.7148L101.153 88.1416Z"
                fill="url(#paint1_linear_2224_10115)" />
            <path
                d="M99.643 62.7979C99.643 61.9522 100.329 61.2666 101.174 61.2666C102.02 61.2666 102.706 61.9522 102.706 62.7979C102.706 63.6436 102.02 64.3292 101.174 64.3292C100.329 64.3292 99.643 63.6436 99.643 62.7979ZM83.5644 89.2119C83.5644 88.3662 84.25 87.6806 85.0957 87.6806C85.9414 87.6806 86.627 88.3662 86.627 89.2119C86.627 90.0576 85.9414 90.7432 85.0957 90.7432C84.25 90.7432 83.5644 90.0576 83.5644 89.2119ZM101.191 63.0845C99.442 63.1863 98.0872 63.6657 97.023 64.4144C95.9577 65.1638 95.1664 66.1953 94.5647 67.427C93.3552 69.903 92.9308 73.1433 92.5734 76.4119C92.2191 79.652 91.9304 82.9299 90.9596 85.3784C90.4713 86.61 89.8022 87.6557 88.8454 88.3872C87.8844 89.1218 86.6578 89.5206 85.0917 89.499L85.0997 88.9248C86.5579 88.9449 87.6534 88.5756 88.4966 87.931C89.344 87.2832 89.9612 86.3385 90.4258 85.1668C91.3607 82.8089 91.6439 79.6294 92.0026 76.3495C92.3581 73.0982 92.788 69.7559 94.0488 67.1749C94.6823 65.8781 95.5303 64.7624 96.6926 63.9447C97.8562 63.1261 99.3175 62.6183 101.158 62.5113L101.191 63.0845Z"
                fill="url(#paint2_linear_2224_10115)" />
        </g>
    </g>
    <defs>
        <filter id="filter0_d_2224_10115" x="0.410436" y="0.881119" width="185.449" height="117.2"
            filterUnits="userSpaceOnUse" color-interpolation-filters="sRGB">
            <feFlood flood-opacity="0" result="BackgroundImageFix" />
            <feColorMatrix in="SourceAlpha" type="matrix" values="0 0 0 0 0 0 0 0 0 0 0 0 0 0 0 0 0 0 127 0"
                result="hardAlpha" />
            <feOffset dy="0.470683" />
            <feGaussianBlur stdDeviation="3.29478" />
            <feComposite in2="hardAlpha" operator="out" />
            <feColorMatrix type="matrix" values="0 0 0 0 0 0 0 0 0 0 0 0 0 0 0 0 0 0 0.1 0" />
            <feBlend mode="normal" in2="BackgroundImageFix" result="effect1_dropShadow_2224_10115" />
            <feBlend mode="normal" in="SourceGraphic" in2="effect1_dropShadow_2224_10115" result="shape" />
        </filter>
        <linearGradient id="paint0_linear_2224_10115" x1="93.135" y1="7" x2="93.135" y2="111.021"
            gradientUnits="userSpaceOnUse">
            <stop stop-color="white" />
            <stop offset="1" stop-color="white" />
        </linearGradient>
        <linearGradient id="paint1_linear_2224_10115" x1="93.1349" y1="62.0699" x2="93.1349" y2="88.4282"
            gradientUnits="userSpaceOnUse">
            <stop stop-color="#FFC107" />
            <stop offset="1" stop-color="#F79400" />
        </linearGradient>
        <linearGradient id="paint2_linear_2224_10115" x1="93.135" y1="89.2126" x2="93.135" y2="62.7979"
            gradientUnits="userSpaceOnUse">
            <stop stop-color="#FFC107" />
            <stop offset="1" stop-color="#F79400" />
        </linearGradient>
        <clipPath id="clip0_2224_10115">
            <rect x="7" y="7" width="172.27" height="104.021" rx="11.4847" fill="white" />
        </clipPath>
        <clipPath id="clip1_2224_10115">
            <rect width="12.1003" height="11.7517" fill="white" transform="translate(21.9961 81.7694)" />
        </clipPath>
        <clipPath id="clip2_2224_10115">
            <rect width="12.1003" height="11.7517" fill="white" transform="translate(107.751 57.3452)" />
        </clipPath>
    </defs>
</svg>