<svg width="220" height="86" viewBox="0 0 220 86" fill="none" xmlns="http://www.w3.org/2000/svg">
    <path
        d="M68.6595 80.84V86H0.0195312V80.84H40.4595V64.88H4.45953V52.4L35.2995 2.11999H50.7795L20.4195 52.04H40.4595V36.68H53.8995V52.04H63.9795V64.88H53.8995V80.84H68.6595ZM151.251 80.84V86H68.6914V80.84H89.9314C80.4914 73.72 75.7714 61.28 75.7714 43.52C75.7714 30.32 78.6114 19.8 84.2914 11.96C89.9714 4.04 98.5314 0.0799975 109.971 0.0799975C121.411 0.0799975 129.971 4.04 135.651 11.96C141.331 19.8 144.171 30.32 144.171 43.52C144.171 61.2 139.411 73.64 129.891 80.84H151.251ZM94.3714 20.84C91.0914 26.6 89.4514 34.16 89.4514 43.52C89.4514 52.88 91.0914 60.44 94.3714 66.2C97.7314 71.96 102.931 74.84 109.971 74.84C117.011 74.84 122.131 72 125.331 66.32C128.611 60.56 130.251 52.96 130.251 43.52C130.251 34.08 128.611 26.52 125.331 20.84C122.131 15.08 117.011 12.2 109.971 12.2C102.931 12.2 97.7314 15.08 94.3714 20.84ZM219.949 80.84V86H151.309V80.84H191.749V64.88H155.749V52.4L186.589 2.11999H202.069L171.709 52.04H191.749V36.68H205.189V52.04H215.269V64.88H205.189V80.84H219.949Z"
        fill="#0F0F0F" />
</svg>