<svg width="129" height="38" viewBox="0 0 129 38" fill="none" xmlns="http://www.w3.org/2000/svg">
    <g filter="url(#filter0_dddd_2641_4944)">
        <rect x="3" width="123" height="32" rx="8" fill="white" />
        <rect x="3.5" y="0.5" width="122" height="31" rx="7.5" stroke="#DBDBDB" />
        <path
            d="M29.6611 8.76867C30.5783 8.87511 31.25 9.66583 31.25 10.5892V23.5L25 20.375L18.75 23.5V10.5892C18.75 9.66583 19.4217 8.87511 20.3389 8.76867C21.868 8.59122 23.4233 8.5 25 8.5C26.5767 8.5 28.132 8.59122 29.6611 8.76867Z"
            stroke="#5E5E5E" stroke-width="1.25" stroke-linecap="round" stroke-linejoin="round" />
        <path
            d="M49.6719 13.4929C49.6188 13.0223 49.4001 12.6577 49.0156 12.3991C48.6312 12.1373 48.1473 12.0064 47.5639 12.0064C47.1463 12.0064 46.785 12.0727 46.4801 12.2053C46.1752 12.3345 45.9382 12.5135 45.7692 12.7422C45.6035 12.9676 45.5206 13.2244 45.5206 13.5128C45.5206 13.7547 45.5769 13.9635 45.6896 14.1392C45.8056 14.3149 45.9564 14.4624 46.142 14.5817C46.331 14.6977 46.5331 14.7955 46.7486 14.875C46.964 14.9512 47.1712 15.0142 47.37 15.0639L48.3643 15.3224C48.6892 15.402 49.0223 15.5097 49.3636 15.6456C49.705 15.7815 50.0215 15.9605 50.3132 16.1825C50.6049 16.4046 50.8402 16.6797 51.0192 17.0078C51.2015 17.3359 51.2926 17.7287 51.2926 18.1861C51.2926 18.7628 51.1435 19.2749 50.8452 19.7223C50.5502 20.1697 50.121 20.5227 49.5575 20.7812C48.9974 21.0398 48.3196 21.169 47.5241 21.169C46.7618 21.169 46.1023 21.0481 45.5455 20.8061C44.9886 20.5642 44.5528 20.2211 44.2379 19.777C43.9231 19.3295 43.7491 18.7992 43.7159 18.1861H45.2571C45.2869 18.554 45.4063 18.8606 45.6151 19.1058C45.8272 19.3478 46.0973 19.5284 46.4254 19.6477C46.7569 19.7637 47.1198 19.8217 47.5142 19.8217C47.9484 19.8217 48.3345 19.7538 48.6726 19.6179C49.014 19.4787 49.2824 19.2865 49.478 19.0412C49.6735 18.7926 49.7713 18.5026 49.7713 18.1712C49.7713 17.8696 49.6851 17.6226 49.5128 17.4304C49.3438 17.2382 49.1134 17.0791 48.8217 16.9531C48.5334 16.8272 48.2069 16.7161 47.8423 16.62L46.6392 16.2919C45.8239 16.0698 45.1776 15.7434 44.7003 15.3125C44.2263 14.8816 43.9893 14.3116 43.9893 13.6023C43.9893 13.0156 44.1484 12.5036 44.4666 12.0661C44.7848 11.6286 45.2157 11.2888 45.7592 11.0469C46.3028 10.8016 46.916 10.679 47.5987 10.679C48.2881 10.679 48.8963 10.8 49.4233 11.0419C49.9536 11.2839 50.3712 11.617 50.6761 12.0412C50.9811 12.4621 51.1402 12.946 51.1534 13.4929H49.6719ZM55.2314 21.169C54.7475 21.169 54.31 21.0795 53.9189 20.9006C53.5278 20.7183 53.2179 20.4548 52.9892 20.1101C52.7638 19.7654 52.6511 19.3428 52.6511 18.8423C52.6511 18.4115 52.734 18.0568 52.8997 17.7784C53.0654 17.5 53.2891 17.2796 53.5708 17.1172C53.8526 16.9548 54.1674 16.8321 54.5154 16.7493C54.8635 16.6664 55.2181 16.6035 55.5794 16.5604C56.0368 16.5073 56.408 16.4643 56.693 16.4311C56.978 16.3946 57.1852 16.3366 57.3145 16.2571C57.4437 16.1776 57.5083 16.0483 57.5083 15.8693V15.8345C57.5083 15.4003 57.3857 15.0639 57.1404 14.8253C56.8985 14.5866 56.5372 14.4673 56.0566 14.4673C55.5562 14.4673 55.1618 14.5784 54.8734 14.8004C54.5884 15.0192 54.3912 15.2628 54.2818 15.5312L52.8848 15.2131C53.0505 14.7491 53.2924 14.3745 53.6106 14.0895C53.9321 13.8011 54.3017 13.5923 54.7193 13.4631C55.1369 13.3305 55.5761 13.2642 56.0368 13.2642C56.3417 13.2642 56.6648 13.3007 57.0062 13.3736C57.3509 13.4432 57.6724 13.5724 57.9707 13.7614C58.2723 13.9503 58.5192 14.2204 58.7115 14.5717C58.9037 14.9197 58.9998 15.3722 58.9998 15.929V21H57.5481V19.956H57.4885C57.3923 20.1482 57.2482 20.3371 57.0559 20.5227C56.8637 20.7083 56.6168 20.8625 56.3152 20.9851C56.0136 21.1077 55.6523 21.169 55.2314 21.169ZM55.5545 19.9759C55.9655 19.9759 56.3168 19.8946 56.6085 19.7322C56.9035 19.5698 57.1272 19.3577 57.2797 19.0959C57.4354 18.8307 57.5133 18.5473 57.5133 18.2457V17.2614C57.4603 17.3144 57.3575 17.3641 57.2051 17.4105C57.0559 17.4536 56.8852 17.4917 56.693 17.5249C56.5008 17.5547 56.3135 17.5829 56.1312 17.6094C55.9489 17.6326 55.7965 17.6525 55.6738 17.669C55.3855 17.7055 55.122 17.7668 54.8833 17.853C54.648 17.9392 54.4591 18.0634 54.3166 18.2259C54.1774 18.3849 54.1078 18.5971 54.1078 18.8622C54.1078 19.2301 54.2437 19.5085 54.5154 19.6974C54.7872 19.883 55.1336 19.9759 55.5545 19.9759ZM67.239 13.3636L64.4698 21H62.8789L60.1048 13.3636H61.7006L63.6346 19.2401H63.7141L65.6431 13.3636H67.239ZM71.6674 21.1541C70.9151 21.1541 70.2671 20.9934 69.7235 20.6719C69.1833 20.3471 68.7657 19.8913 68.4707 19.3047C68.179 18.7147 68.0332 18.0237 68.0332 17.2315C68.0332 16.4493 68.179 15.7599 68.4707 15.1634C68.7657 14.5668 69.1767 14.1011 69.7037 13.7663C70.234 13.4316 70.8538 13.2642 71.563 13.2642C71.9939 13.2642 72.4115 13.3355 72.8159 13.478C73.2202 13.6205 73.5832 13.8442 73.9047 14.1491C74.2261 14.4541 74.4797 14.8501 74.6653 15.3374C74.8509 15.8213 74.9437 16.4096 74.9437 17.1023V17.6293H68.8734V16.5156H73.487C73.487 16.1245 73.4075 15.7782 73.2484 15.4766C73.0893 15.1716 72.8656 14.9313 72.5772 14.7557C72.2922 14.58 71.9574 14.4922 71.573 14.4922C71.1554 14.4922 70.7908 14.5949 70.4792 14.8004C70.171 15.0026 69.9324 15.2678 69.7633 15.5959C69.5976 15.9207 69.5147 16.2737 69.5147 16.6548V17.5249C69.5147 18.0353 69.6042 18.4695 69.7832 18.8274C69.9655 19.1854 70.219 19.4588 70.5439 19.6477C70.8687 19.8333 71.2482 19.9261 71.6824 19.9261C71.9641 19.9261 72.2209 19.8864 72.4529 19.8068C72.685 19.724 72.8855 19.6013 73.0545 19.4389C73.2235 19.2765 73.3528 19.076 73.4423 18.8374L74.8493 19.0909C74.7366 19.5052 74.5344 19.8681 74.2427 20.1797C73.9544 20.4879 73.5914 20.7282 73.1539 20.9006C72.7198 21.0696 72.2243 21.1541 71.6674 21.1541ZM80.4174 21V10.8182H84.0467C84.8388 10.8182 85.4951 10.9624 86.0154 11.2507C86.5358 11.5391 86.9252 11.9335 87.1838 12.4339C87.4423 12.9311 87.5716 13.4912 87.5716 14.1143C87.5716 14.7408 87.4406 15.3042 87.1788 15.8047C86.9203 16.3018 86.5292 16.6963 86.0055 16.9879C85.4851 17.2763 84.8306 17.4205 84.0417 17.4205H81.546V16.1179H83.9025C84.403 16.1179 84.809 16.0317 85.1206 15.8594C85.4321 15.6837 85.6608 15.4451 85.8066 15.1435C85.9525 14.8419 86.0254 14.4988 86.0254 14.1143C86.0254 13.7299 85.9525 13.3885 85.8066 13.0902C85.6608 12.7919 85.4305 12.5582 85.1156 12.3892C84.804 12.2202 84.3931 12.1357 83.8826 12.1357H81.9537V21H80.4174ZM92.4487 21.1541C91.6963 21.1541 91.0484 20.9934 90.5048 20.6719C89.9645 20.3471 89.5469 19.8913 89.252 19.3047C88.9603 18.7147 88.8145 18.0237 88.8145 17.2315C88.8145 16.4493 88.9603 15.7599 89.252 15.1634C89.5469 14.5668 89.9579 14.1011 90.4849 13.7663C91.0152 13.4316 91.635 13.2642 92.3443 13.2642C92.7752 13.2642 93.1928 13.3355 93.5971 13.478C94.0015 13.6205 94.3644 13.8442 94.6859 14.1491C95.0074 14.4541 95.2609 14.8501 95.4466 15.3374C95.6322 15.8213 95.725 16.4096 95.725 17.1023V17.6293H89.6547V16.5156H94.2683C94.2683 16.1245 94.1887 15.7782 94.0297 15.4766C93.8706 15.1716 93.6468 14.9313 93.3585 14.7557C93.0734 14.58 92.7387 14.4922 92.3542 14.4922C91.9366 14.4922 91.572 14.5949 91.2605 14.8004C90.9522 15.0026 90.7136 15.2678 90.5446 15.5959C90.3788 15.9207 90.296 16.2737 90.296 16.6548V17.5249C90.296 18.0353 90.3855 18.4695 90.5645 18.8274C90.7467 19.1854 91.0003 19.4588 91.3251 19.6477C91.6499 19.8333 92.0294 19.9261 92.4636 19.9261C92.7453 19.9261 93.0022 19.8864 93.2342 19.8068C93.4662 19.724 93.6667 19.6013 93.8358 19.4389C94.0048 19.2765 94.1341 19.076 94.2235 18.8374L95.6305 19.0909C95.5178 19.5052 95.3156 19.8681 95.024 20.1797C94.7356 20.4879 94.3727 20.7282 93.9352 20.9006C93.501 21.0696 93.0055 21.1541 92.4487 21.1541ZM97.3743 21V13.3636H98.8111V14.5767H98.8906C99.0298 14.1657 99.2751 13.8426 99.6264 13.6072C99.9811 13.3686 100.382 13.2493 100.83 13.2493C100.922 13.2493 101.032 13.2526 101.158 13.2592C101.287 13.2659 101.388 13.2741 101.461 13.2841V14.706C101.401 14.6894 101.295 14.6712 101.143 14.6513C100.99 14.6281 100.838 14.6165 100.685 14.6165C100.334 14.6165 100.021 14.6911 99.7457 14.8402C99.474 14.986 99.2585 15.1899 99.0994 15.4517C98.9403 15.7102 98.8608 16.0052 98.8608 16.3366V21H97.3743ZM104.115 18.4098L104.105 16.5952H104.363L107.406 13.3636H109.186L105.715 17.0426H105.482L104.115 18.4098ZM102.747 21V10.8182H104.234V21H102.747ZM107.57 21L104.835 17.3707L105.86 16.3317L109.394 21H107.57Z"
            fill="#121212" />
    </g>
    <defs>
        <filter id="filter0_dddd_2641_4944" x="0" y="0" width="129" height="38" filterUnits="userSpaceOnUse"
            color-interpolation-filters="sRGB">
            <feFlood flood-opacity="0" result="BackgroundImageFix" />
            <feColorMatrix in="SourceAlpha" type="matrix" values="0 0 0 0 0 0 0 0 0 0 0 0 0 0 0 0 0 0 127 0"
                result="hardAlpha" />
            <feMorphology radius="3" operator="erode" in="SourceAlpha" result="effect1_dropShadow_2641_4944" />
            <feOffset dy="3" />
            <feGaussianBlur stdDeviation="3" />
            <feComposite in2="hardAlpha" operator="out" />
            <feColorMatrix type="matrix" values="0 0 0 0 0 0 0 0 0 0 0 0 0 0 0 0 0 0 0.05 0" />
            <feBlend mode="normal" in2="BackgroundImageFix" result="effect1_dropShadow_2641_4944" />
            <feColorMatrix in="SourceAlpha" type="matrix" values="0 0 0 0 0 0 0 0 0 0 0 0 0 0 0 0 0 0 127 0"
                result="hardAlpha" />
            <feMorphology radius="2" operator="erode" in="SourceAlpha" result="effect2_dropShadow_2641_4944" />
            <feOffset dy="2" />
            <feGaussianBlur stdDeviation="2" />
            <feComposite in2="hardAlpha" operator="out" />
            <feColorMatrix type="matrix" values="0 0 0 0 0 0 0 0 0 0 0 0 0 0 0 0 0 0 0.05 0" />
            <feBlend mode="normal" in2="effect1_dropShadow_2641_4944" result="effect2_dropShadow_2641_4944" />
            <feColorMatrix in="SourceAlpha" type="matrix" values="0 0 0 0 0 0 0 0 0 0 0 0 0 0 0 0 0 0 127 0"
                result="hardAlpha" />
            <feMorphology radius="1" operator="erode" in="SourceAlpha" result="effect3_dropShadow_2641_4944" />
            <feOffset dy="1" />
            <feGaussianBlur stdDeviation="1" />
            <feComposite in2="hardAlpha" operator="out" />
            <feColorMatrix type="matrix" values="0 0 0 0 0 0 0 0 0 0 0 0 0 0 0 0 0 0 0.05 0" />
            <feBlend mode="normal" in2="effect2_dropShadow_2641_4944" result="effect3_dropShadow_2641_4944" />
            <feColorMatrix in="SourceAlpha" type="matrix" values="0 0 0 0 0 0 0 0 0 0 0 0 0 0 0 0 0 0 127 0"
                result="hardAlpha" />
            <feMorphology radius="1" operator="erode" in="SourceAlpha" result="effect4_dropShadow_2641_4944" />
            <feOffset dy="1" />
            <feComposite in2="hardAlpha" operator="out" />
            <feColorMatrix type="matrix" values="0 0 0 0 0 0 0 0 0 0 0 0 0 0 0 0 0 0 0.05 0" />
            <feBlend mode="normal" in2="effect3_dropShadow_2641_4944" result="effect4_dropShadow_2641_4944" />
            <feBlend mode="normal" in="SourceGraphic" in2="effect4_dropShadow_2641_4944" result="shape" />
        </filter>
    </defs>
</svg>