<svg width="24" height="24" viewBox="0 0 20 20" fill="none" xmlns="http://www.w3.org/2000/svg">
    <path opacity="0.5"
        d="M18.3346 10.0003C18.3346 14.6027 14.6036 18.3337 10.0013 18.3337C5.39893 18.3337 1.66797 14.6027 1.66797 10.0003C1.66797 5.39795 5.39893 1.66699 10.0013 1.66699C14.6036 1.66699 18.3346 5.39795 18.3346 10.0003Z"
        fill="#BDBDBD" />
    <path
        d="M7.47603 7.47505C7.7201 7.23097 8.11583 7.23097 8.35988 7.47505L10.0013 9.11649L11.6427 7.47507C11.8868 7.23099 12.2825 7.23099 12.5265 7.47507C12.7706 7.71914 12.7706 8.11487 12.5265 8.35899L10.8852 10.0003L12.5265 11.6417C12.7706 11.8857 12.7706 12.2815 12.5265 12.5256C12.2825 12.7697 11.8867 12.7697 11.6426 12.5256L10.0013 10.8842L8.35997 12.5256C8.11585 12.7697 7.72012 12.7697 7.47604 12.5256C7.23197 12.2815 7.23197 11.8858 7.47604 11.6417L9.11747 10.0003L7.47603 8.35891C7.23195 8.11486 7.23195 7.71912 7.47603 7.47505Z"
        fill="#2C2A3C" />
</svg>