<svg width="125" height="32" viewBox="0 0 125 32" fill="none" xmlns="http://www.w3.org/2000/svg">
    <path
        d="M26.8874 17.1621C26.8874 20.5119 19.3793 25.1178 15.1976 25.1178C11.0159 25.1178 3.50781 20.3996 3.50781 17.1621C3.50781 12.2497 8.51093 6.27539 15.1976 6.27539C21.8842 6.27539 26.8874 12.2497 26.8874 17.1621Z"
        fill="url(#paint0_linear_563_6026)" />
    <path
        d="M24.4068 14.3971L24.7016 15.4196C25.2416 17.2929 24.3711 19.2851 22.6297 20.1616L18.0446 22.4692C16.3066 23.3439 14.2548 23.3337 12.5255 22.4416L8.13348 20.1759C6.41442 19.2891 5.56184 17.3109 6.09764 15.4523L6.40072 14.4009C6.56758 13.8221 7.13318 13.4528 7.73023 13.5328L13.6867 14.3309C14.743 14.4724 15.8134 14.4745 16.8702 14.3369L23.0819 13.5284C23.6775 13.4508 24.2405 13.82 24.4068 14.3971Z"
        fill="#221A53" />
    <rect x="11.4395" y="15.9062" width="2.08746" height="3.76848" rx="1.04373" fill="url(#paint1_linear_563_6026)" />
    <rect x="11.4395" y="15.9062" width="2.08746" height="3.76848" rx="1.04373" fill="url(#paint2_linear_563_6026)" />
    <rect x="16.8672" y="15.9062" width="2.08746" height="3.76848" rx="1.04373" fill="url(#paint3_linear_563_6026)" />
    <rect x="16.8672" y="15.9062" width="2.08746" height="3.76848" rx="1.04373" fill="url(#paint4_linear_563_6026)" />
    <path
        d="M2.73494 6.61212C2.73779 6.53698 2.79954 6.47754 2.87473 6.47754V6.47754C2.94992 6.47754 3.01166 6.53698 3.01451 6.61212L3.26342 13.165C3.27179 13.3855 3.09534 13.5688 2.87473 13.5688V13.5688C2.65412 13.5688 2.47766 13.3855 2.48604 13.165L2.73494 6.61212Z"
        fill="url(#paint5_linear_563_6026)" />
    <rect x="26.0508" y="12.5566" width="2.92244" height="7.53696" rx="1.46122" fill="url(#paint6_linear_563_6026)" />
    <rect x="1.41992" y="12.5566" width="2.92244" height="7.53696" rx="1.46122" fill="url(#paint7_linear_563_6026)" />
    <path
        d="M42.4221 18.1761L44.9749 19.3543C44.0094 21.2362 42.2584 21.9562 40.802 21.9562C38.5273 21.9562 36.2363 20.6307 36.2363 17.996V14.0031C36.2363 11.3848 38.5273 10.043 40.8511 10.043C42.2748 10.043 43.993 10.6484 44.9258 12.7104L42.5366 13.6759C41.7511 12.2358 39.1655 12.5631 39.1655 14.0031V17.996C39.1655 19.387 41.7838 19.7798 42.4221 18.1761Z"
        fill="white" />
    <path
        d="M46.4155 17.9797V14.0195C46.4155 11.3521 48.8047 10.043 51.2102 10.043C53.6158 10.043 56.0214 11.3685 56.0214 14.0195V17.9797C56.0214 20.6307 53.6322 21.9562 51.2266 21.9562C48.821 21.9562 46.4155 20.6307 46.4155 17.9797ZM49.3447 14.0195V17.9797C49.3447 18.8306 50.2938 19.2397 51.2266 19.2397C52.1594 19.2397 53.0921 18.8143 53.0921 17.9797V14.0195C53.0921 13.1195 52.1266 12.7104 51.1775 12.7104C50.2611 12.7104 49.3447 13.1686 49.3447 14.0195Z"
        fill="white" />
    <path
        d="M58.2312 10.2066H62.5677C64.8915 10.2066 67.0679 11.3848 67.0679 14.085V17.9797C67.0679 20.6471 64.8915 21.8089 62.5677 21.7926H58.2312V10.2066ZM60.5689 19.0434H62.6659C63.6641 19.0434 64.1223 18.5361 64.1223 17.7833V14.1668C64.1223 13.414 63.6478 12.9395 62.6659 12.9395L60.5689 12.9241V19.0434Z"
        fill="white" />
    <path
        d="M72.2512 12.9558V14.7559H76.9478V17.2924H72.2512V19.027H77.3569V21.7926H69.2893V10.2066H77.3569V12.9558H72.2512Z"
        fill="white" />
    <path
        d="M79.5643 19.4548V10.2066H84.1954C87.0264 10.2066 88.4338 12.2522 88.4338 14.2977C88.4338 16.3596 87.0101 18.4052 84.2118 18.4052H82.4935V21.7926L79.5643 19.4548ZM82.4935 15.8032H84.1954C85.9628 15.8196 85.9628 12.9231 84.1954 12.9395H82.4935V15.8032Z"
        fill="white" />
    <path d="M93.2639 10.2066V21.7926H90.3347V10.2066H93.2639Z" fill="white" />
    <path d="M95.7516 21.7926V10.2066H98.6972V18.8961H103.41V21.7926H95.7516Z" fill="white" />
    <path
        d="M104.853 17.9797V14.0195C104.853 11.3521 107.243 10.043 109.648 10.043C112.054 10.043 114.459 11.3685 114.459 14.0195V17.9797C114.459 20.6307 112.07 21.9562 109.665 21.9562C107.259 21.9562 104.853 20.6307 104.853 17.9797ZM107.783 14.0195V17.9797C107.783 18.8306 108.732 19.2397 109.665 19.2397C110.597 19.2397 111.53 18.8143 111.53 17.9797V14.0195C111.53 13.1195 110.565 12.7104 109.616 12.7104C108.699 12.7104 107.783 13.1686 107.783 14.0195Z"
        fill="white" />
    <path d="M125.001 12.9722H121.924V21.7926L118.963 19.4548V12.9722H115.886V10.1902H125.001V12.9722Z" fill="white" />
    <defs>
        <linearGradient id="paint0_linear_563_6026" x1="15.1976" y1="6.27539" x2="15.1976" y2="25.1178"
            gradientUnits="userSpaceOnUse">
            <stop stop-color="#9786FD" />
            <stop offset="1" stop-color="#9463FB" />
        </linearGradient>
        <linearGradient id="paint1_linear_563_6026" x1="12.4832" y1="15.9062" x2="12.4832" y2="19.6747"
            gradientUnits="userSpaceOnUse">
            <stop stop-color="#3CA8F6" />
            <stop offset="1" stop-color="#054B9C" />
        </linearGradient>
        <linearGradient id="paint2_linear_563_6026" x1="12.4832" y1="15.9062" x2="12.4832" y2="19.6747"
            gradientUnits="userSpaceOnUse">
            <stop stop-color="white" />
            <stop offset="1" stop-color="white" />
        </linearGradient>
        <linearGradient id="paint3_linear_563_6026" x1="17.9109" y1="15.9062" x2="17.9109" y2="19.6747"
            gradientUnits="userSpaceOnUse">
            <stop stop-color="#3CA8F6" />
            <stop offset="1" stop-color="#054B9C" />
        </linearGradient>
        <linearGradient id="paint4_linear_563_6026" x1="17.9109" y1="15.9062" x2="17.9109" y2="19.6747"
            gradientUnits="userSpaceOnUse">
            <stop stop-color="white" />
            <stop offset="1" stop-color="white" />
        </linearGradient>
        <linearGradient id="paint5_linear_563_6026" x1="2.87473" y1="6.47754" x2="2.87473" y2="13.5688"
            gradientUnits="userSpaceOnUse">
            <stop stop-color="#9786FD" />
            <stop offset="1" stop-color="#9463FB" />
        </linearGradient>
        <linearGradient id="paint6_linear_563_6026" x1="27.512" y1="12.5566" x2="27.512" y2="20.0936"
            gradientUnits="userSpaceOnUse">
            <stop stop-color="#9786FD" />
            <stop offset="1" stop-color="#9463FB" />
        </linearGradient>
        <linearGradient id="paint7_linear_563_6026" x1="2.88114" y1="12.5566" x2="2.88114" y2="20.0936"
            gradientUnits="userSpaceOnUse">
            <stop stop-color="#9786FD" />
            <stop offset="1" stop-color="#9463FB" />
        </linearGradient>
    </defs>
</svg>