<svg width="148" height="30" viewBox="0 0 148 30" fill="none" xmlns="http://www.w3.org/2000/svg">
    <path
        d="M40.083 17.7235C40.083 18.3103 40.1595 19.3309 40.2871 20.2239C40.5677 22.0609 42.0221 22.1119 42.0221 23.1835C42.0221 23.6683 41.5883 24.0765 40.8229 24.0765C39.7768 24.0765 38.4245 24 37.3785 24C36.2813 24 34.9546 24.0765 33.9085 24.0765C33.1176 24.0765 32.7093 23.6683 32.7093 23.1835C32.7093 22.1119 34.1636 22.0609 34.4443 20.2239C34.5719 19.3309 34.6229 18.1827 34.6229 17.4428C34.6229 16.3202 33.7299 14.8404 32.3521 12.5696C31.7653 11.6255 30.9488 10.2733 30.4641 9.68645C29.6986 8.79345 28.9842 8.56382 28.9842 7.67082C28.9842 6.82885 29.52 6.57371 30.7702 6.57371C31.5867 6.57371 32.199 6.65025 33.6534 6.65025C35.1077 6.65025 35.7966 6.57371 36.7151 6.57371C37.6081 6.57371 38.0673 6.95642 38.0673 7.56876C38.0673 8.43625 37.0978 8.79345 37.0978 9.78851C37.0978 10.4774 37.9398 12.4165 38.4501 12.8757C38.5011 12.9268 38.5776 12.9523 38.6542 12.9523C38.7052 12.9523 38.7817 12.9013 38.8328 12.8502C39.2665 12.3655 40.0319 10.4519 40.0319 9.78851C40.0319 8.58934 39.0114 8.3342 39.0114 7.49222C39.0114 6.98193 39.292 6.57371 40.2871 6.57371C40.976 6.57371 42.1496 6.65025 42.8896 6.65025C43.604 6.65025 43.9867 6.57371 44.6756 6.57371C45.3389 6.57371 45.6961 6.90539 45.6961 7.46671C45.6961 8.43625 45.1093 8.53831 43.9356 9.91608C43.0426 10.9622 42.4048 12.2634 41.6649 13.6667C40.8994 15.1465 40.083 16.4478 40.083 17.7235ZM61.8407 13.4115C61.8407 14.7383 61.8918 15.8609 61.8918 16.907C61.8918 21.7547 60.1058 24.4337 54.6457 24.4337C50.6399 24.4337 47.5782 22.4691 47.5782 16.8815C47.5782 14.7383 47.5527 11.9062 47.5017 11.1918C47.272 8.64037 45.9708 8.71691 45.9708 7.54325C45.9708 6.98193 46.2515 6.57371 47.0424 6.57371C48.1395 6.57371 49.2366 6.65025 50.3082 6.65025C51.4054 6.65025 52.5025 6.57371 53.5231 6.57371C54.2885 6.57371 54.5947 6.98193 54.5947 7.54325C54.5947 8.71691 53.4465 8.64037 53.1403 11.1918C53.0893 11.7531 53.0383 12.9013 53.0383 16.1161C53.0383 18.7951 53.8803 20.2749 55.9214 20.2749C57.0185 20.2749 57.7329 19.8156 58.1156 19.0247C58.3453 18.5654 58.5494 17.2132 58.5494 14.4576C58.5494 12.7992 58.4728 10.8346 57.9115 9.60991C57.4778 8.64037 56.7379 8.3342 56.7379 7.54325C56.7379 6.98193 57.0185 6.57371 57.8095 6.57371C58.5239 6.57371 59.3658 6.65025 59.9527 6.65025C60.6671 6.65025 61.5856 6.57371 62.1979 6.57371C62.9634 6.57371 63.244 6.98193 63.244 7.54325C63.244 8.74242 62.1214 8.41074 61.9173 10.9622C61.8662 11.5745 61.8407 12.8247 61.8407 13.4115ZM65.4616 6.57371C66.0484 6.57371 67.3496 6.65025 68.1406 6.65025C69.0591 6.65025 69.5694 6.67576 69.9521 6.87988C70.4879 7.13502 70.8451 7.69634 71.8657 8.87L75.6928 13.2329C76.3817 14.0239 76.841 14.4832 76.9175 14.4832C77.0961 14.4832 77.1216 14.3301 77.1216 14.126C77.1216 12.4675 76.943 10.656 76.3562 9.60991C75.7949 8.58934 75.157 8.3342 75.157 7.54325C75.157 6.98193 75.4377 6.57371 76.2286 6.57371C76.943 6.57371 77.785 6.65025 78.3718 6.65025C79.0862 6.65025 80.0047 6.57371 80.6171 6.57371C81.3825 6.57371 81.6632 6.98193 81.6632 7.54325C81.6632 8.74242 80.5405 8.41074 80.3364 10.9622C80.2854 11.5745 80.2599 12.8247 80.2599 13.4115C80.2854 20.377 80.5405 19.484 80.5405 22.2395C80.5405 23.3111 79.622 24.2296 77.9381 24.2296C77.5809 24.2296 76.9685 23.8979 76.4072 23.2601L69.85 15.7078C69.4928 15.2996 69.3398 15.121 69.2122 15.121C69.0081 15.121 68.9825 15.4527 68.9825 15.8609C68.9825 18.0296 69.3142 19.9687 69.85 21.0403C70.4114 22.1375 71.0492 22.3416 71.0492 23.107C71.0492 23.6683 70.7686 24.0765 69.9776 24.0765C69.1356 24.0765 68.4212 24 67.8344 24C67.12 24 66.1249 24.0765 65.3085 24.0765C64.5431 24.0765 64.2624 23.6683 64.2624 23.107C64.2624 21.9078 65.6657 22.2395 65.8698 19.6881C65.9208 19.0757 65.9719 17.6469 65.9719 14.7128C65.9719 12.5441 65.9463 11.9062 65.8953 11.2173C65.6657 8.66588 64.39 8.74242 64.39 7.54325C64.39 6.98193 64.6706 6.57371 65.4616 6.57371ZM88.1927 16.6264H90.0042C90.3103 16.6264 90.3869 16.5243 90.3869 16.3712C90.3869 15.963 89.9276 14.4832 89.4173 13.5901C89.3408 13.4371 89.2132 13.284 89.1367 13.284C89.0346 13.284 88.9326 13.4371 88.856 13.5901C88.3968 14.4066 87.8355 16.014 87.8355 16.3712C87.8355 16.5243 87.912 16.6264 88.1927 16.6264ZM83.6001 19.7136L86.6618 11.6766C87.07 10.5795 87.3252 9.4058 87.4783 8.58934C87.7334 7.33913 90.4379 6.2165 91.433 6.2165C92.3005 6.2165 92.6066 6.80333 92.9128 7.59428L97.7095 19.8667C97.9009 20.3514 98.1943 21.0148 98.8832 21.7547C99.1638 22.0609 99.6486 22.4947 99.6486 22.9794C99.6486 23.8214 99.0362 24.0765 97.786 24.0765C96.9696 24.0765 96.1786 24 94.6988 24C93.2445 24 92.2749 24.0765 91.3564 24.0765C90.4379 24.0765 90.0042 23.6938 90.0042 23.0815C90.0042 22.214 91.6626 21.8058 91.6626 20.377C91.6626 20.1473 91.5861 20.0198 91.4585 19.8156C91.3819 19.6881 91.1523 19.586 90.9482 19.586H87.6569C87.3252 19.586 87.0445 19.7136 86.8914 19.8667C86.7639 19.9942 86.5342 20.2239 86.5342 20.7342C86.5342 21.9844 87.9375 22.3161 87.9375 23.158C87.9375 23.6683 87.6313 24.0765 86.6363 24.0765C85.9474 24.0765 85.182 24 84.442 24C83.7276 24 83.2684 24.0765 82.5795 24.0765C81.9161 24.0765 81.5589 23.7449 81.5589 23.1835C81.5589 22.214 82.605 22.3161 83.6001 19.7136ZM107.389 14.177C107.746 14.177 110.859 10.5284 110.859 9.48234C110.859 8.66588 110.017 8.3342 110.017 7.49222C110.017 6.98193 110.45 6.57371 111.292 6.57371C111.981 6.57371 113.002 6.65025 113.742 6.65025C114.456 6.65025 115.222 6.57371 115.91 6.57371C116.982 6.57371 117.671 6.62473 117.671 7.56876C117.671 8.41074 116.625 8.58934 115.63 9.38028C114.38 10.3753 113.231 11.4214 111.65 13.4626C111.598 13.5391 111.496 13.6412 111.496 13.7432C111.496 13.7943 111.522 13.8453 111.65 13.8963C114.124 14.8148 115.298 17.3152 116.191 19.6626C116.599 20.7342 117.135 21.5761 117.696 22.1119C118.181 22.5712 118.462 22.6222 118.462 23.1835C118.462 23.8979 118.003 24.0765 117.518 24.0765C116.931 24.0765 115.068 24 114.431 24C113.206 24 111.879 24.0765 111.42 24.0765C110.603 24.0765 110.093 23.6428 110.093 23.0815C110.093 22.5712 110.374 22.2905 110.374 21.6782C110.374 20.2494 109.073 17.4683 107.899 17.4683C107.516 17.4683 107.261 17.8255 107.261 18.7951V18.9226C107.261 20.2494 107.644 20.9383 108.026 21.5761C108.409 22.214 108.996 22.5457 108.996 23.1835C108.996 23.7959 108.486 24.0765 107.822 24.0765C106.572 24.0765 105.603 24 104.557 24C103.459 24 102.362 24.0765 101.316 24.0765C100.525 24.0765 100.117 23.6683 100.117 23.1835C100.117 22.1119 101.367 22.0609 101.648 20.2239C101.775 19.3309 101.826 17.749 101.826 14.7128C101.826 12.5696 101.826 11.9062 101.775 11.1918C101.546 8.64037 100.245 8.71691 100.245 7.54325C100.245 6.98193 100.525 6.57371 101.316 6.57371C102.413 6.57371 103.51 6.65025 104.582 6.65025C105.679 6.65025 106.776 6.57371 107.797 6.57371C108.562 6.57371 108.868 6.98193 108.868 7.54325C108.868 8.30868 108.154 8.81897 107.771 9.55888C107.516 10.0437 107.184 10.707 107.184 11.9827C107.184 13.4626 107.236 14.177 107.389 14.177ZM126.683 6.57371C127.449 6.57371 127.755 6.98193 127.755 7.54325C127.755 8.71691 126.505 8.64037 126.25 11.1918C126.173 11.9062 126.173 12.5696 126.173 14.7128C126.173 17.749 126.25 19.3309 126.377 20.2239C126.658 22.0609 127.883 22.1119 127.883 23.1835C127.883 23.6683 127.449 24.0765 126.683 24.0765C125.637 24.0765 124.515 24 123.469 24C122.372 24 121.249 24.0765 120.203 24.0765C119.412 24.0765 119.004 23.6683 119.004 23.1835C119.004 22.1119 120.254 22.0609 120.534 20.2239C120.662 19.3309 120.713 17.749 120.713 14.7128C120.713 12.5696 120.713 11.9062 120.662 11.1918C120.432 8.64037 119.131 8.71691 119.131 7.54325C119.131 6.98193 119.412 6.57371 120.203 6.57371C121.3 6.57371 122.397 6.65025 123.469 6.65025C124.566 6.65025 125.663 6.57371 126.683 6.57371ZM130.468 6.57371C131.055 6.57371 132.356 6.65025 133.147 6.65025C134.066 6.65025 134.576 6.67576 134.959 6.87988C135.495 7.13502 135.852 7.69634 136.872 8.87L140.7 13.2329C141.388 14.0239 141.848 14.4832 141.924 14.4832C142.103 14.4832 142.128 14.3301 142.128 14.126C142.128 12.4675 141.95 10.656 141.363 9.60991C140.802 8.58934 140.164 8.3342 140.164 7.54325C140.164 6.98193 140.444 6.57371 141.235 6.57371C141.95 6.57371 142.792 6.65025 143.379 6.65025C144.093 6.65025 145.011 6.57371 145.624 6.57371C146.389 6.57371 146.67 6.98193 146.67 7.54325C146.67 8.74242 145.547 8.41074 145.343 10.9622C145.292 11.5745 145.267 12.8247 145.267 13.4115C145.292 20.377 145.547 19.484 145.547 22.2395C145.547 23.3111 144.629 24.2296 142.945 24.2296C142.588 24.2296 141.975 23.8979 141.414 23.2601L134.857 15.7078C134.5 15.2996 134.347 15.121 134.219 15.121C134.015 15.121 133.989 15.4527 133.989 15.8609C133.989 18.0296 134.321 19.9687 134.857 21.0403C135.418 22.1375 136.056 22.3416 136.056 23.107C136.056 23.6683 135.775 24.0765 134.984 24.0765C134.142 24.0765 133.428 24 132.841 24C132.127 24 131.132 24.0765 130.315 24.0765C129.55 24.0765 129.269 23.6683 129.269 23.107C129.269 21.9078 130.672 22.2395 130.877 19.6881C130.928 19.0757 130.979 17.6469 130.979 14.7128C130.979 12.5441 130.953 11.9062 130.902 11.2173C130.672 8.66588 129.397 8.74242 129.397 7.54325C129.397 6.98193 129.677 6.57371 130.468 6.57371Z"
        fill="black" />
    <ellipse cx="11.9852" cy="14.7943" rx="11.9852" ry="11.9852" fill="#FFDD04" />
    <path
        d="M11.8117 13.4458V7.55298M11.9793 13.4458L17.4784 7.94097M11.8662 13.5707L6.36713 8.06581M11.8117 16.1673V22.0602M11.9793 16.1673L17.4784 21.6722M11.8662 16.0425L6.36713 21.5473"
        stroke="black" stroke-width="2.18936" stroke-linecap="round" />
</svg>