<svg width="20" height="20" viewBox="0 0 20 20" fill="none" xmlns="http://www.w3.org/2000/svg">
    <path
        d="M3.31658 6.85214C2.54733 7.76152 1.96032 8.83001 1.61194 10.0012C2.68802 13.615 6.0359 16.25 9.99922 16.25C10.8264 16.25 11.6267 16.1352 12.3852 15.9207M5.18966 5.18969C6.56988 4.27965 8.22307 3.75 9.99996 3.75C13.9633 3.75 17.3112 6.38504 18.3872 9.99877C17.794 11.9932 16.5088 13.6898 14.81 14.81M5.18966 5.18969L2.49998 2.5M5.18966 5.18969L8.23221 8.23223M14.81 14.81L17.5 17.5M14.81 14.81L11.7677 11.7678M11.7677 11.7678C12.2202 11.3154 12.5 10.6904 12.5 10C12.5 8.61929 11.3807 7.5 9.99997 7.5C9.30962 7.5 8.68462 7.77982 8.23221 8.23223M11.7677 11.7678L8.23221 8.23223"
        stroke="currentColor" stroke-width="1.25" stroke-linecap="round" stroke-linejoin="round" />
</svg>