<svg width="20" height="20" viewBox="0 0 20 20" fill="none" xmlns="http://www.w3.org/2000/svg">
    <path
        d="M1.69623 10.2687C1.63866 10.0959 1.63861 9.90895 1.69607 9.73619C2.85304 6.2581 6.13393 3.75 10.0006 3.75C13.8655 3.75 17.1451 6.25577 18.3035 9.73134C18.3611 9.90406 18.3612 10.0911 18.3037 10.2638C17.1467 13.7419 13.8658 16.25 9.99915 16.25C6.13427 16.25 2.85464 13.7442 1.69623 10.2687Z"
        stroke="currentColor" stroke-width="1.25" stroke-linecap="round" stroke-linejoin="round" />
    <path
        d="M12.4999 10C12.4999 11.3807 11.3807 12.5 9.99994 12.5C8.61923 12.5 7.49994 11.3807 7.49994 10C7.49994 8.61929 8.61923 7.5 9.99994 7.5C11.3807 7.5 12.4999 8.61929 12.4999 10Z"
        stroke="currentColor" stroke-width="1.25" stroke-linecap="round" stroke-linejoin="round" />
</svg>