<svg width="20" height="20" viewBox="0 0 20 20" fill="none" xmlns="http://www.w3.org/2000/svg">
    <path
        d="M12.3812 14.2348C13.96 14.0475 15.4824 13.6763 16.9264 13.1432C15.7291 11.8142 15.0003 10.0547 15.0003 8.125V7.54099C15.0004 7.52734 15.0005 7.51368 15.0005 7.5C15.0005 4.73858 12.7619 2.5 10.0005 2.5C7.23906 2.5 5.00049 4.73858 5.00049 7.5L5.00032 8.125C5.00032 10.0547 4.27155 11.8142 3.07422 13.1432C4.51832 13.6763 6.04085 14.0475 7.61977 14.2348M12.3812 14.2348C11.6005 14.3274 10.806 14.375 10.0003 14.375C9.1948 14.375 8.40039 14.3274 7.61977 14.2348M12.3812 14.2348C12.4587 14.4759 12.5005 14.7331 12.5005 15C12.5005 16.3807 11.3812 17.5 10.0005 17.5C8.61978 17.5 7.50049 16.3807 7.50049 15C7.50049 14.7331 7.54231 14.476 7.61977 14.2348"
        stroke="currentColor" stroke-width="1.25" stroke-linecap="round" stroke-linejoin="round" />
</svg>