<svg width="24" height="24" viewBox="0 0 24 24" fill="none" xmlns="http://www.w3.org/2000/svg">
    <path
        d="M21.4789 6.96354C21.4935 7.17354 21.4935 7.38354 21.4935 7.59547C21.4935 14.0532 16.5773 21.501 7.58797 21.501V21.4971C4.93249 21.501 2.33216 20.7403 0.0966797 19.3061C0.482809 19.3526 0.870873 19.3758 1.25991 19.3768C3.46055 19.3787 5.59829 18.6403 7.32958 17.2806C5.23829 17.241 3.40442 15.8774 2.76378 13.8868C3.49636 14.0281 4.2512 13.999 4.97023 13.8026C2.69023 13.3419 1.04991 11.3387 1.04991 9.01225V8.95031C1.72926 9.3287 2.48991 9.5387 3.26797 9.56193C1.12055 8.12676 0.458615 5.26999 1.75539 3.03644C4.23668 6.08967 7.89765 7.9458 11.8276 8.14225C11.4338 6.44483 11.9718 4.66612 13.2415 3.47289C15.2099 1.62257 18.3057 1.71741 20.156 3.68483C21.2505 3.46902 22.2996 3.06741 23.2596 2.49838C22.8947 3.62967 22.1312 4.59064 21.1112 5.20128C22.0799 5.08709 23.0264 4.82773 23.9176 4.43193C23.2615 5.41515 22.4351 6.2716 21.4789 6.96354Z"
        fill="#1D9BF0" />
</svg>